<svg width="33" height="27" viewBox="0 0 33 27" fill="none" xmlns="http://www.w3.org/2000/svg">
<mask id="path-1-inside-1_1046_1737" fill="white">
<path d="M0.636719 0.97605V2.4396C0.636719 2.49224 0.6471 2.54436 0.667244 2.593C0.687389 2.64163 0.716904 2.68583 0.754126 2.72305C0.791348 2.76027 0.835532 2.78979 0.884165 2.80993C0.932798 2.83008 0.984919 2.84046 1.03756 2.84046H2.11892V3.77266H1.03756C0.984919 3.77266 0.932798 3.78303 0.884165 3.80317C0.835532 3.82332 0.791348 3.85283 0.754126 3.89005C0.716904 3.92728 0.687389 3.97147 0.667244 4.02011C0.6471 4.06874 0.636719 4.12086 0.636719 4.1735V5.66503C0.636719 5.71767 0.6471 5.76979 0.667244 5.81843C0.687389 5.86706 0.716904 5.91124 0.754126 5.94847C0.791348 5.98569 0.835532 6.01522 0.884165 6.03536C0.932798 6.05551 0.984919 6.06587 1.03756 6.06587H4.03926V20.9811H1.03756C0.984919 20.9811 0.932798 20.9915 0.884165 21.0116C0.835532 21.0318 0.791348 21.0613 0.754126 21.0985C0.716904 21.1358 0.687389 21.1799 0.667244 21.2286C0.6471 21.2772 0.636719 21.3293 0.636719 21.382V22.8455C0.636719 22.8982 0.6471 22.9503 0.667244 22.9989C0.687389 23.0476 0.716904 23.0918 0.754126 23.129C0.791348 23.1662 0.835532 23.1957 0.884165 23.2159C0.932798 23.236 0.984919 23.2464 1.03756 23.2464H2.11892V24.132H1.03756C0.984919 24.132 0.932798 24.1423 0.884165 24.1625C0.835532 24.1826 0.791348 24.2122 0.754126 24.2494C0.716904 24.2866 0.687389 24.3308 0.667244 24.3794C0.6471 24.4281 0.636719 24.4802 0.636719 24.5328V26.0244C0.636719 26.077 0.6471 26.1291 0.667244 26.1777C0.687389 26.2264 0.716904 26.2706 0.754126 26.3078C0.791348 26.345 0.835532 26.3745 0.884165 26.3947C0.932798 26.4148 0.984919 26.4252 1.03756 26.4252H31.8003C31.9066 26.4252 32.0086 26.383 32.0837 26.3078C32.1589 26.2326 32.2011 26.1307 32.2011 26.0244V24.5328C32.2011 24.4265 32.1589 24.3246 32.0837 24.2494C32.0086 24.1742 31.9066 24.132 31.8003 24.132H30.5232V23.2464H31.8003C31.9066 23.2464 32.0086 23.2042 32.0837 23.129C32.1589 23.0538 32.2011 22.9518 32.2011 22.8455V21.382C32.2011 21.2757 32.1589 21.1737 32.0837 21.0985C32.0086 21.0234 31.9066 20.9811 31.8003 20.9811H28.4071V6.06587H31.8003C31.9066 6.06587 32.0086 6.02364 32.0837 5.94847C32.1589 5.87329 32.2011 5.77134 32.2011 5.66503V4.1735C32.2011 4.06719 32.1589 3.96523 32.0837 3.89005C32.0086 3.81488 31.9066 3.77266 31.8003 3.77266H30.5232V2.84046H31.8003C31.9066 2.84046 32.0086 2.79822 32.0837 2.72305C32.1589 2.64788 32.2011 2.54591 32.2011 2.4396V0.97605C32.2011 0.869739 32.1589 0.767776 32.0837 0.692603C32.0086 0.617429 31.9066 0.575195 31.8003 0.575195H1.03756C0.984919 0.575195 0.932798 0.585562 0.884165 0.605706C0.835532 0.625851 0.791348 0.655381 0.754126 0.692603C0.716904 0.729825 0.687389 0.774008 0.667244 0.822641C0.6471 0.871274 0.636719 0.92341 0.636719 0.97605ZM1.43843 1.37689H31.3715V2.03876H30.085C29.9787 2.03876 29.8768 2.08098 29.8016 2.15615C29.7264 2.23133 29.6842 2.33329 29.6842 2.4396V4.12689C29.6842 4.2332 29.7264 4.33516 29.8016 4.41034C29.8768 4.48551 29.9787 4.52774 30.085 4.52774H31.3715V5.21756H28.0808H27.9782H25.5545H25.452H7.24604H7.15281H4.4401H4.3469H1.43843V4.52774H2.51976C2.5724 4.52774 2.62455 4.51738 2.67318 4.49723C2.72182 4.47709 2.766 4.44756 2.80322 4.41034C2.84044 4.37311 2.86996 4.32892 2.8901 4.28028C2.91025 4.23165 2.92063 4.17953 2.92063 4.12689V2.4396C2.92063 2.38696 2.91025 2.33484 2.8901 2.28621C2.86996 2.23757 2.84044 2.19338 2.80322 2.15615C2.766 2.11893 2.72182 2.08942 2.67318 2.06927C2.62455 2.04913 2.5724 2.03876 2.51976 2.03876H1.43843V1.37689ZM27.5401 20.7667H25.9181V6.00063H27.5401V20.7667ZM31.3342 22.4167H30.0477C29.9414 22.4167 29.8395 22.4589 29.7643 22.5341C29.6891 22.6093 29.6469 22.7113 29.6469 22.8176V24.5049C29.6469 24.6112 29.6891 24.7131 29.7643 24.7883C29.8395 24.8635 29.9414 24.9057 30.0477 24.9057H31.3342V25.5955H1.43843V24.9057H2.51976C2.62607 24.9057 2.72805 24.8635 2.80322 24.7883C2.87839 24.7131 2.92063 24.6112 2.92063 24.5049V22.8176C2.92063 22.7113 2.87839 22.6093 2.80322 22.5341C2.72805 22.4589 2.62607 22.4167 2.51976 22.4167H1.43843V21.7549H31.3715L31.3342 22.4167ZM4.80367 6.00063H6.66808V20.7667H4.80367V6.00063ZM7.60028 20.9159V6.00063H25.1071V20.9159H7.60028Z"/>
</mask>
<path d="M0.636719 0.97605V2.4396C0.636719 2.49224 0.6471 2.54436 0.667244 2.593C0.687389 2.64163 0.716904 2.68583 0.754126 2.72305C0.791348 2.76027 0.835532 2.78979 0.884165 2.80993C0.932798 2.83008 0.984919 2.84046 1.03756 2.84046H2.11892V3.77266H1.03756C0.984919 3.77266 0.932798 3.78303 0.884165 3.80317C0.835532 3.82332 0.791348 3.85283 0.754126 3.89005C0.716904 3.92728 0.687389 3.97147 0.667244 4.02011C0.6471 4.06874 0.636719 4.12086 0.636719 4.1735V5.66503C0.636719 5.71767 0.6471 5.76979 0.667244 5.81843C0.687389 5.86706 0.716904 5.91124 0.754126 5.94847C0.791348 5.98569 0.835532 6.01522 0.884165 6.03536C0.932798 6.05551 0.984919 6.06587 1.03756 6.06587H4.03926V20.9811H1.03756C0.984919 20.9811 0.932798 20.9915 0.884165 21.0116C0.835532 21.0318 0.791348 21.0613 0.754126 21.0985C0.716904 21.1358 0.687389 21.1799 0.667244 21.2286C0.6471 21.2772 0.636719 21.3293 0.636719 21.382V22.8455C0.636719 22.8982 0.6471 22.9503 0.667244 22.9989C0.687389 23.0476 0.716904 23.0918 0.754126 23.129C0.791348 23.1662 0.835532 23.1957 0.884165 23.2159C0.932798 23.236 0.984919 23.2464 1.03756 23.2464H2.11892V24.132H1.03756C0.984919 24.132 0.932798 24.1423 0.884165 24.1625C0.835532 24.1826 0.791348 24.2122 0.754126 24.2494C0.716904 24.2866 0.687389 24.3308 0.667244 24.3794C0.6471 24.4281 0.636719 24.4802 0.636719 24.5328V26.0244C0.636719 26.077 0.6471 26.1291 0.667244 26.1777C0.687389 26.2264 0.716904 26.2706 0.754126 26.3078C0.791348 26.345 0.835532 26.3745 0.884165 26.3947C0.932798 26.4148 0.984919 26.4252 1.03756 26.4252H31.8003C31.9066 26.4252 32.0086 26.383 32.0837 26.3078C32.1589 26.2326 32.2011 26.1307 32.2011 26.0244V24.5328C32.2011 24.4265 32.1589 24.3246 32.0837 24.2494C32.0086 24.1742 31.9066 24.132 31.8003 24.132H30.5232V23.2464H31.8003C31.9066 23.2464 32.0086 23.2042 32.0837 23.129C32.1589 23.0538 32.2011 22.9518 32.2011 22.8455V21.382C32.2011 21.2757 32.1589 21.1737 32.0837 21.0985C32.0086 21.0234 31.9066 20.9811 31.8003 20.9811H28.4071V6.06587H31.8003C31.9066 6.06587 32.0086 6.02364 32.0837 5.94847C32.1589 5.87329 32.2011 5.77134 32.2011 5.66503V4.1735C32.2011 4.06719 32.1589 3.96523 32.0837 3.89005C32.0086 3.81488 31.9066 3.77266 31.8003 3.77266H30.5232V2.84046H31.8003C31.9066 2.84046 32.0086 2.79822 32.0837 2.72305C32.1589 2.64788 32.2011 2.54591 32.2011 2.4396V0.97605C32.2011 0.869739 32.1589 0.767776 32.0837 0.692603C32.0086 0.617429 31.9066 0.575195 31.8003 0.575195H1.03756C0.984919 0.575195 0.932798 0.585562 0.884165 0.605706C0.835532 0.625851 0.791348 0.655381 0.754126 0.692603C0.716904 0.729825 0.687389 0.774008 0.667244 0.822641C0.6471 0.871274 0.636719 0.92341 0.636719 0.97605ZM1.43843 1.37689H31.3715V2.03876H30.085C29.9787 2.03876 29.8768 2.08098 29.8016 2.15615C29.7264 2.23133 29.6842 2.33329 29.6842 2.4396V4.12689C29.6842 4.2332 29.7264 4.33516 29.8016 4.41034C29.8768 4.48551 29.9787 4.52774 30.085 4.52774H31.3715V5.21756H28.0808H27.9782H25.5545H25.452H7.24604H7.15281H4.4401H4.3469H1.43843V4.52774H2.51976C2.5724 4.52774 2.62455 4.51738 2.67318 4.49723C2.72182 4.47709 2.766 4.44756 2.80322 4.41034C2.84044 4.37311 2.86996 4.32892 2.8901 4.28028C2.91025 4.23165 2.92063 4.17953 2.92063 4.12689V2.4396C2.92063 2.38696 2.91025 2.33484 2.8901 2.28621C2.86996 2.23757 2.84044 2.19338 2.80322 2.15615C2.766 2.11893 2.72182 2.08942 2.67318 2.06927C2.62455 2.04913 2.5724 2.03876 2.51976 2.03876H1.43843V1.37689ZM27.5401 20.7667H25.9181V6.00063H27.5401V20.7667ZM31.3342 22.4167H30.0477C29.9414 22.4167 29.8395 22.4589 29.7643 22.5341C29.6891 22.6093 29.6469 22.7113 29.6469 22.8176V24.5049C29.6469 24.6112 29.6891 24.7131 29.7643 24.7883C29.8395 24.8635 29.9414 24.9057 30.0477 24.9057H31.3342V25.5955H1.43843V24.9057H2.51976C2.62607 24.9057 2.72805 24.8635 2.80322 24.7883C2.87839 24.7131 2.92063 24.6112 2.92063 24.5049V22.8176C2.92063 22.7113 2.87839 22.6093 2.80322 22.5341C2.72805 22.4589 2.62607 22.4167 2.51976 22.4167H1.43843V21.7549H31.3715L31.3342 22.4167ZM4.80367 6.00063H6.66808V20.7667H4.80367V6.00063ZM7.60028 20.9159V6.00063H25.1071V20.9159H7.60028Z" fill="#272525" stroke="black" stroke-width="4" mask="url(#path-1-inside-1_1046_1737)"/>
<mask id="path-2-inside-2_1046_1737" fill="white">
<path d="M19.9048 4.52804H22.8878C22.9941 4.52804 23.0961 4.48581 23.1713 4.41064C23.2464 4.33546 23.2887 4.2335 23.2887 4.12719V2.4399C23.2887 2.33359 23.2464 2.23163 23.1713 2.15646C23.0961 2.08128 22.9941 2.03906 22.8878 2.03906H19.9048C19.7985 2.03906 19.6965 2.08128 19.6213 2.15646C19.5461 2.23163 19.5039 2.33359 19.5039 2.4399V4.12719C19.5039 4.2335 19.5461 4.33546 19.6213 4.41064C19.6965 4.48581 19.7985 4.52804 19.9048 4.52804V4.52804ZM20.3056 2.84076H22.487V3.77296H20.3056V2.84076Z"/>
</mask>
<path d="M19.9048 4.52804H22.8878C22.9941 4.52804 23.0961 4.48581 23.1713 4.41064C23.2464 4.33546 23.2887 4.2335 23.2887 4.12719V2.4399C23.2887 2.33359 23.2464 2.23163 23.1713 2.15646C23.0961 2.08128 22.9941 2.03906 22.8878 2.03906H19.9048C19.7985 2.03906 19.6965 2.08128 19.6213 2.15646C19.5461 2.23163 19.5039 2.33359 19.5039 2.4399V4.12719C19.5039 4.2335 19.5461 4.33546 19.6213 4.41064C19.6965 4.48581 19.7985 4.52804 19.9048 4.52804V4.52804ZM20.3056 2.84076H22.487V3.77296H20.3056V2.84076Z" fill="#272525"/>
<path d="M22.8878 4.52804V2.52804V4.52804ZM23.2887 4.12719H25.2887H23.2887ZM19.5039 2.4399H17.5039H19.5039ZM19.5039 4.12719H17.5039H19.5039ZM20.3056 2.84076V0.840758H18.3056V2.84076H20.3056ZM22.487 2.84076H24.487V0.840758H22.487V2.84076ZM22.487 3.77296V5.77296H24.487V3.77296H22.487ZM20.3056 3.77296H18.3056V5.77296H20.3056V3.77296ZM19.9048 6.52804H22.8878V2.52804H19.9048V6.52804ZM22.8878 6.52804C23.5245 6.52804 24.1352 6.27515 24.5855 5.82485L21.7571 2.99642C22.057 2.69647 22.4638 2.52804 22.8878 2.52804V6.52804ZM24.5855 5.82485C25.036 5.37434 25.2887 4.76356 25.2887 4.12719H21.2887C21.2887 3.70344 21.4569 3.29658 21.7571 2.99642L24.5855 5.82485ZM25.2887 4.12719V2.4399H21.2887V4.12719H25.2887ZM25.2887 2.4399C25.2887 1.80353 25.036 1.19275 24.5855 0.742242L21.7571 3.57067C21.4569 3.27051 21.2887 2.86366 21.2887 2.4399H25.2887ZM24.5855 0.742242C24.1351 0.291809 23.5243 0.0390625 22.8878 0.0390625V4.03906C22.464 4.03906 22.0571 3.87075 21.7571 3.57067L24.5855 0.742242ZM22.8878 0.0390625H19.9048V4.03906H22.8878V0.0390625ZM19.9048 0.0390625C19.2683 0.0390625 18.6575 0.291809 18.2071 0.742242L21.0355 3.57067C20.7354 3.87075 20.3286 4.03906 19.9048 4.03906V0.0390625ZM18.2071 0.742242C17.7568 1.19249 17.5039 1.80316 17.5039 2.4399H21.5039C21.5039 2.86402 21.3354 3.27077 21.0355 3.57067L18.2071 0.742242ZM17.5039 2.4399V4.12719H21.5039V2.4399H17.5039ZM17.5039 4.12719C17.5039 4.76393 17.7568 5.3746 18.2071 5.82485L21.0355 2.99642C21.3354 3.29633 21.5039 3.70307 21.5039 4.12719H17.5039ZM18.2071 5.82485C18.6574 6.27515 19.2681 6.52804 19.9048 6.52804V2.52804C20.3288 2.52804 20.7356 2.69647 21.0355 2.99642L18.2071 5.82485ZM20.3056 4.84076H22.487V0.840758H20.3056V4.84076ZM20.487 2.84076V3.77296H24.487V2.84076H20.487ZM22.487 1.77296H20.3056V5.77296H22.487V1.77296ZM22.3056 3.77296V2.84076H18.3056V3.77296H22.3056Z" fill="black" mask="url(#path-2-inside-2_1046_1737)"/>
<mask id="path-4-inside-3_1046_1737" fill="white">
<path d="M14.8247 4.52804H17.8077C17.914 4.52804 18.016 4.48581 18.0912 4.41064C18.1663 4.33546 18.2086 4.2335 18.2086 4.12719V2.4399C18.2086 2.33359 18.1663 2.23163 18.0912 2.15646C18.016 2.08128 17.914 2.03906 17.8077 2.03906H14.8247C14.7184 2.03906 14.6164 2.08128 14.5412 2.15646C14.4661 2.23163 14.4238 2.33359 14.4238 2.4399V4.12719C14.4238 4.2335 14.4661 4.33546 14.5412 4.41064C14.6164 4.48581 14.7184 4.52804 14.8247 4.52804V4.52804ZM15.2255 2.84076H17.4069V3.77296H15.2255V2.84076Z"/>
</mask>
<path d="M14.8247 4.52804H17.8077C17.914 4.52804 18.016 4.48581 18.0912 4.41064C18.1663 4.33546 18.2086 4.2335 18.2086 4.12719V2.4399C18.2086 2.33359 18.1663 2.23163 18.0912 2.15646C18.016 2.08128 17.914 2.03906 17.8077 2.03906H14.8247C14.7184 2.03906 14.6164 2.08128 14.5412 2.15646C14.4661 2.23163 14.4238 2.33359 14.4238 2.4399V4.12719C14.4238 4.2335 14.4661 4.33546 14.5412 4.41064C14.6164 4.48581 14.7184 4.52804 14.8247 4.52804V4.52804ZM15.2255 2.84076H17.4069V3.77296H15.2255V2.84076Z" fill="#272525"/>
<path d="M17.8077 4.52804V2.52804V4.52804ZM18.2086 4.12719H20.2086H18.2086ZM18.2086 2.4399H20.2086H18.2086ZM14.4238 2.4399H12.4238H14.4238ZM14.4238 4.12719H12.4238H14.4238ZM15.2255 2.84076V0.840758H13.2255V2.84076H15.2255ZM17.4069 2.84076H19.4069V0.840758H17.4069V2.84076ZM17.4069 3.77296V5.77296H19.4069V3.77296H17.4069ZM15.2255 3.77296H13.2255V5.77296H15.2255V3.77296ZM14.8247 6.52804H17.8077V2.52804H14.8247V6.52804ZM17.8077 6.52804C18.4445 6.52804 19.0552 6.27505 19.5054 5.82485L16.6769 2.99642C16.9768 2.69657 17.3835 2.52804 17.8077 2.52804V6.52804ZM19.5054 5.82485C19.9556 5.3746 20.2086 4.76393 20.2086 4.12719H16.2086C16.2086 3.70307 16.377 3.29633 16.6769 2.99642L19.5054 5.82485ZM20.2086 4.12719V2.4399H16.2086V4.12719H20.2086ZM20.2086 2.4399C20.2086 1.80317 19.9556 1.19249 19.5054 0.742242L16.6769 3.57067C16.377 3.27077 16.2086 2.86402 16.2086 2.4399H20.2086ZM19.5054 0.742242C19.0551 0.291916 18.4444 0.0390625 17.8077 0.0390625V4.03906C17.3837 4.03906 16.9769 3.87065 16.6769 3.57067L19.5054 0.742242ZM17.8077 0.0390625H14.8247V4.03906H17.8077V0.0390625ZM14.8247 0.0390625C14.188 0.0390625 13.5773 0.291916 13.127 0.742242L15.9554 3.57067C15.6555 3.87065 15.2487 4.03906 14.8247 4.03906V0.0390625ZM13.127 0.742242C12.6768 1.19249 12.4238 1.80317 12.4238 2.4399H16.4238C16.4238 2.86402 16.2554 3.27077 15.9554 3.57067L13.127 0.742242ZM12.4238 2.4399V4.12719H16.4238V2.4399H12.4238ZM12.4238 4.12719C12.4238 4.76393 12.6768 5.3746 13.127 5.82485L15.9554 2.99642C16.2554 3.29633 16.4238 3.70307 16.4238 4.12719H12.4238ZM13.127 5.82485C13.5772 6.27505 14.1879 6.52804 14.8247 6.52804V2.52804C15.2489 2.52804 15.6556 2.69657 15.9554 2.99642L13.127 5.82485ZM15.2255 4.84076H17.4069V0.840758H15.2255V4.84076ZM15.4069 2.84076V3.77296H19.4069V2.84076H15.4069ZM17.4069 1.77296H15.2255V5.77296H17.4069V1.77296ZM17.2255 3.77296V2.84076H13.2255V3.77296H17.2255Z" fill="black" mask="url(#path-4-inside-3_1046_1737)"/>
<mask id="path-6-inside-4_1046_1737" fill="white">
<path d="M24.9946 4.52804H27.9776C28.0839 4.52804 28.1859 4.48581 28.2611 4.41064C28.3363 4.33546 28.3785 4.2335 28.3785 4.12719V2.4399C28.3785 2.33359 28.3363 2.23163 28.2611 2.15646C28.1859 2.08128 28.0839 2.03906 27.9776 2.03906H24.9946C24.8883 2.03906 24.7863 2.08128 24.7112 2.15646C24.636 2.23163 24.5938 2.33359 24.5938 2.4399V4.12719C24.5938 4.2335 24.636 4.33546 24.7112 4.41064C24.7863 4.48581 24.8883 4.52804 24.9946 4.52804V4.52804ZM25.3954 2.84076H27.5768V3.77296H25.3954V2.84076Z"/>
</mask>
<path d="M24.9946 4.52804H27.9776C28.0839 4.52804 28.1859 4.48581 28.2611 4.41064C28.3363 4.33546 28.3785 4.2335 28.3785 4.12719V2.4399C28.3785 2.33359 28.3363 2.23163 28.2611 2.15646C28.1859 2.08128 28.0839 2.03906 27.9776 2.03906H24.9946C24.8883 2.03906 24.7863 2.08128 24.7112 2.15646C24.636 2.23163 24.5938 2.33359 24.5938 2.4399V4.12719C24.5938 4.2335 24.636 4.33546 24.7112 4.41064C24.7863 4.48581 24.8883 4.52804 24.9946 4.52804V4.52804ZM25.3954 2.84076H27.5768V3.77296H25.3954V2.84076Z" fill="#272525"/>
<path d="M27.9776 4.52804V2.52804V4.52804ZM28.3785 4.12719H30.3785H28.3785ZM24.5938 2.4399H22.5938H24.5938ZM24.5938 4.12719H22.5938H24.5938ZM25.3954 2.84076V0.840758H23.3954V2.84076H25.3954ZM27.5768 2.84076H29.5768V0.840758H27.5768V2.84076ZM27.5768 3.77296V5.77296H29.5768V3.77296H27.5768ZM25.3954 3.77296H23.3954V5.77296H25.3954V3.77296ZM24.9946 6.52804H27.9776V2.52804H24.9946V6.52804ZM27.9776 6.52804C28.6143 6.52804 29.225 6.27515 29.6753 5.82485L26.8469 2.99642C27.1468 2.69647 27.5536 2.52804 27.9776 2.52804V6.52804ZM29.6753 5.82485C30.1255 5.3746 30.3785 4.76393 30.3785 4.12719H26.3785C26.3785 3.70307 26.547 3.29633 26.8469 2.99642L29.6753 5.82485ZM30.3785 4.12719V2.4399H26.3785V4.12719H30.3785ZM30.3785 2.4399C30.3785 1.80317 30.1255 1.19249 29.6753 0.742242L26.8469 3.57067C26.547 3.27077 26.3785 2.86402 26.3785 2.4399H30.3785ZM29.6753 0.742242C29.2249 0.29181 28.6141 0.0390625 27.9776 0.0390625V4.03906C27.5538 4.03906 27.147 3.87075 26.8469 3.57067L29.6753 0.742242ZM27.9776 0.0390625H24.9946V4.03906H27.9776V0.0390625ZM24.9946 0.0390625C24.358 0.0390625 23.7473 0.291916 23.2969 0.742242L26.1254 3.57067C25.8254 3.87065 25.4186 4.03906 24.9946 4.03906V0.0390625ZM23.2969 0.742242C22.8467 1.19249 22.5938 1.80317 22.5938 2.4399H26.5938C26.5938 2.86402 26.4253 3.27077 26.1254 3.57067L23.2969 0.742242ZM22.5938 2.4399V4.12719H26.5938V2.4399H22.5938ZM22.5938 4.12719C22.5938 4.76393 22.8467 5.3746 23.2969 5.82485L26.1254 2.99642C26.4253 3.29633 26.5938 3.70307 26.5938 4.12719H22.5938ZM23.2969 5.82485C23.7471 6.27505 24.3578 6.52804 24.9946 6.52804V2.52804C25.4188 2.52804 25.8255 2.69657 26.1254 2.99642L23.2969 5.82485ZM25.3954 4.84076H27.5768V0.840758H25.3954V4.84076ZM25.5768 2.84076V3.77296H29.5768V2.84076H25.5768ZM27.5768 1.77296H25.3954V5.77296H27.5768V1.77296ZM27.3954 3.77296V2.84076H23.3954V3.77296H27.3954Z" fill="black" mask="url(#path-6-inside-4_1046_1737)"/>
<mask id="path-8-inside-5_1046_1737" fill="white">
<path d="M4.4399 4.52804H7.42297C7.52928 4.52804 7.63123 4.48581 7.7064 4.41064C7.78157 4.33546 7.82381 4.2335 7.82381 4.12719V2.4399C7.82381 2.33359 7.78157 2.23163 7.7064 2.15646C7.63123 2.08128 7.52928 2.03906 7.42297 2.03906H4.4399C4.33359 2.03906 4.23164 2.08128 4.15647 2.15646C4.0813 2.23163 4.03906 2.33359 4.03906 2.4399V4.12719C4.03906 4.2335 4.0813 4.33546 4.15647 4.41064C4.23164 4.48581 4.33359 4.52804 4.4399 4.52804V4.52804ZM4.84077 2.84076H7.02213V3.77296H4.84077V2.84076Z"/>
</mask>
<path d="M4.4399 4.52804H7.42297C7.52928 4.52804 7.63123 4.48581 7.7064 4.41064C7.78157 4.33546 7.82381 4.2335 7.82381 4.12719V2.4399C7.82381 2.33359 7.78157 2.23163 7.7064 2.15646C7.63123 2.08128 7.52928 2.03906 7.42297 2.03906H4.4399C4.33359 2.03906 4.23164 2.08128 4.15647 2.15646C4.0813 2.23163 4.03906 2.33359 4.03906 2.4399V4.12719C4.03906 4.2335 4.0813 4.33546 4.15647 4.41064C4.23164 4.48581 4.33359 4.52804 4.4399 4.52804V4.52804ZM4.84077 2.84076H7.02213V3.77296H4.84077V2.84076Z" fill="#272525"/>
<path d="M7.42297 4.52804V2.52804V4.52804ZM7.82381 4.12719H9.82381H7.82381ZM7.82381 2.4399H9.82381H7.82381ZM4.03906 2.4399H2.03906H4.03906ZM4.03906 4.12719H2.03906H4.03906ZM4.84077 2.84076V0.840758H2.84077V2.84076H4.84077ZM7.02213 2.84076H9.02213V0.840758H7.02213V2.84076ZM7.02213 3.77296V5.77296H9.02213V3.77296H7.02213ZM4.84077 3.77296H2.84077V5.77296H4.84077V3.77296ZM4.4399 6.52804H7.42297V2.52804H4.4399V6.52804ZM7.42297 6.52804C8.05978 6.52804 8.67042 6.27505 9.12061 5.82485L6.29219 2.99642C6.59204 2.69657 6.99878 2.52804 7.42297 2.52804V6.52804ZM9.12061 5.82485C9.57086 5.3746 9.82381 4.76393 9.82381 4.12719H5.82381C5.82381 3.70307 5.99228 3.29633 6.29219 2.99642L9.12061 5.82485ZM9.82381 4.12719V2.4399H5.82381V4.12719H9.82381ZM9.82381 2.4399C9.82381 1.80316 9.57086 1.19249 9.12061 0.742242L6.29219 3.57067C5.99228 3.27077 5.82381 2.86402 5.82381 2.4399H9.82381ZM9.12061 0.742242C8.67029 0.291916 8.0596 0.0390625 7.42297 0.0390625V4.03906C6.99896 4.03906 6.59216 3.87065 6.29219 3.57067L9.12061 0.742242ZM7.42297 0.0390625H4.4399V4.03906H7.42297V0.0390625ZM4.4399 0.0390625C3.80327 0.0390625 3.19258 0.291916 2.74226 0.742242L5.57068 3.57067C5.2707 3.87065 4.86391 4.03906 4.4399 4.03906V0.0390625ZM2.74226 0.742242C2.29201 1.19249 2.03906 1.80316 2.03906 2.4399H6.03906C6.03906 2.86402 5.87059 3.27077 5.57068 3.57067L2.74226 0.742242ZM2.03906 2.4399V4.12719H6.03906V2.4399H2.03906ZM2.03906 4.12719C2.03906 4.76393 2.29201 5.3746 2.74226 5.82485L5.57068 2.99642C5.87059 3.29633 6.03906 3.70307 6.03906 4.12719H2.03906ZM2.74226 5.82485C3.19245 6.27505 3.80309 6.52804 4.4399 6.52804V2.52804C4.86409 2.52804 5.27083 2.69657 5.57068 2.99642L2.74226 5.82485ZM4.84077 4.84076H7.02213V0.840758H4.84077V4.84076ZM5.02213 2.84076V3.77296H9.02213V2.84076H5.02213ZM7.02213 1.77296H4.84077V5.77296H7.02213V1.77296ZM6.84077 3.77296V2.84076H2.84077V3.77296H6.84077Z" fill="black" mask="url(#path-8-inside-5_1046_1737)"/>
<mask id="path-10-inside-6_1046_1737" fill="white">
<path d="M9.53905 4.52804H12.5128C12.6191 4.52804 12.7211 4.48581 12.7962 4.41064C12.8714 4.33546 12.9137 4.2335 12.9137 4.12719V2.4399C12.9137 2.33359 12.8714 2.23163 12.7962 2.15646C12.7211 2.08128 12.6191 2.03906 12.5128 2.03906H9.53905C9.43186 2.03903 9.32895 2.08096 9.25229 2.15587C9.17563 2.23079 9.13134 2.33274 9.12891 2.4399V4.12719C9.13134 4.23435 9.17563 4.3363 9.25229 4.41122C9.32895 4.48614 9.43186 4.52807 9.53905 4.52804V4.52804ZM9.93992 2.84076H12.1119V3.77296H9.93992V2.84076Z"/>
</mask>
<path d="M9.53905 4.52804H12.5128C12.6191 4.52804 12.7211 4.48581 12.7962 4.41064C12.8714 4.33546 12.9137 4.2335 12.9137 4.12719V2.4399C12.9137 2.33359 12.8714 2.23163 12.7962 2.15646C12.7211 2.08128 12.6191 2.03906 12.5128 2.03906H9.53905C9.43186 2.03903 9.32895 2.08096 9.25229 2.15587C9.17563 2.23079 9.13134 2.33274 9.12891 2.4399V4.12719C9.13134 4.23435 9.17563 4.3363 9.25229 4.41122C9.32895 4.48614 9.43186 4.52807 9.53905 4.52804V4.52804ZM9.93992 2.84076H12.1119V3.77296H9.93992V2.84076Z" fill="#272525"/>
<path d="M12.5128 4.52804V2.52804V4.52804ZM12.9137 4.12719H14.9137H12.9137ZM12.9137 2.4399H14.9137H12.9137ZM9.53905 2.03906L9.53853 4.03906H9.53905V2.03906ZM9.12891 2.4399L7.12942 2.39445L7.12891 2.41717V2.4399H9.12891ZM9.12891 4.12719H7.12891V4.14992L7.12942 4.17264L9.12891 4.12719ZM9.93992 2.84076V0.840758H7.93992V2.84076H9.93992ZM12.1119 2.84076H14.1119V0.840758H12.1119V2.84076ZM12.1119 3.77296V5.77296H14.1119V3.77296H12.1119ZM9.93992 3.77296H7.93992V5.77296H9.93992V3.77296ZM9.53905 6.52804H12.5128V2.52804H9.53905V6.52804ZM12.5128 6.52804C13.1494 6.52804 13.7602 6.27515 14.2105 5.82485L11.382 2.99642C11.682 2.69647 12.0887 2.52804 12.5128 2.52804V6.52804ZM14.2105 5.82485C14.6607 5.3746 14.9137 4.76393 14.9137 4.12719H10.9137C10.9137 3.70307 11.0821 3.29633 11.382 2.99642L14.2105 5.82485ZM14.9137 4.12719V2.4399H10.9137V4.12719H14.9137ZM14.9137 2.4399C14.9137 1.80316 14.6607 1.19249 14.2105 0.742242L11.382 3.57067C11.0821 3.27077 10.9137 2.86402 10.9137 2.4399H14.9137ZM14.2105 0.742242C13.76 0.29181 13.1493 0.0390625 12.5128 0.0390625V4.03906C12.0889 4.03906 11.6821 3.87075 11.382 3.57067L14.2105 0.742242ZM12.5128 0.0390625H9.53905V4.03906H12.5128V0.0390625ZM9.53957 0.0390626C8.90975 0.0388999 8.30489 0.285271 7.85442 0.725498L10.6502 3.58625C10.353 3.87664 9.95398 4.03917 9.53853 4.03906L9.53957 0.0390626ZM7.85442 0.725498C7.40394 1.16574 7.14374 1.76481 7.12942 2.39445L11.1284 2.48536C11.1189 2.90067 10.9473 3.29584 10.6502 3.58625L7.85442 0.725498ZM7.12891 2.4399V4.12719H11.1289V2.4399H7.12891ZM7.12942 4.17264C7.14374 4.80228 7.40394 5.40135 7.85442 5.84159L10.6502 2.98085C10.9473 3.27125 11.1189 3.66642 11.1284 4.08173L7.12942 4.17264ZM7.85442 5.84159C8.30476 6.28169 8.90957 6.52821 9.53957 6.52804L9.53853 2.52804C9.95416 2.52794 10.3531 2.69058 10.6502 2.98085L7.85442 5.84159ZM9.93992 4.84076H12.1119V0.840758H9.93992V4.84076ZM10.1119 2.84076V3.77296H14.1119V2.84076H10.1119ZM12.1119 1.77296H9.93992V5.77296H12.1119V1.77296ZM11.9399 3.77296V2.84076H7.93992V3.77296H11.9399Z" fill="black" mask="url(#path-10-inside-6_1046_1737)"/>
<mask id="path-12-inside-7_1046_1737" fill="white">
<path d="M7.42297 22.417H4.4399C4.33359 22.417 4.23164 22.4592 4.15647 22.5344C4.0813 22.6096 4.03906 22.7115 4.03906 22.8178V24.5051C4.03906 24.6114 4.0813 24.7134 4.15647 24.7886C4.23164 24.8637 4.33359 24.906 4.4399 24.906H7.42297C7.52928 24.906 7.63123 24.8637 7.7064 24.7886C7.78157 24.7134 7.82381 24.6114 7.82381 24.5051V22.8178C7.82381 22.7115 7.78157 22.6096 7.7064 22.5344C7.63123 22.4592 7.52928 22.417 7.42297 22.417ZM7.02213 24.1043H4.84077V23.2187H7.02213V24.1043Z"/>
</mask>
<path d="M7.42297 22.417H4.4399C4.33359 22.417 4.23164 22.4592 4.15647 22.5344C4.0813 22.6096 4.03906 22.7115 4.03906 22.8178V24.5051C4.03906 24.6114 4.0813 24.7134 4.15647 24.7886C4.23164 24.8637 4.33359 24.906 4.4399 24.906H7.42297C7.52928 24.906 7.63123 24.8637 7.7064 24.7886C7.78157 24.7134 7.82381 24.6114 7.82381 24.5051V22.8178C7.82381 22.7115 7.78157 22.6096 7.7064 22.5344C7.63123 22.4592 7.52928 22.417 7.42297 22.417ZM7.02213 24.1043H4.84077V23.2187H7.02213V24.1043Z" fill="#272525"/>
<path d="M4.03906 22.8178H2.03906H4.03906ZM4.03906 24.5051H2.03906H4.03906ZM7.42297 24.906V22.906V24.906ZM7.82381 24.5051H9.82381H7.82381ZM7.82381 22.8178H9.82381H7.82381ZM7.02213 24.1043V26.1043H9.02213V24.1043H7.02213ZM4.84077 24.1043H2.84077V26.1043H4.84077V24.1043ZM4.84077 23.2187V21.2187H2.84077V23.2187H4.84077ZM7.02213 23.2187H9.02213V21.2187H7.02213V23.2187ZM7.42297 20.417H4.4399V24.417H7.42297V20.417ZM4.4399 20.417C3.80327 20.417 3.19258 20.6698 2.74226 21.1202L5.57068 23.9486C5.2707 24.2486 4.86391 24.417 4.4399 24.417V20.417ZM2.74226 21.1202C2.29201 21.5704 2.03906 22.1811 2.03906 22.8178H6.03906C6.03906 23.2419 5.87059 23.6487 5.57068 23.9486L2.74226 21.1202ZM2.03906 22.8178V24.5051H6.03906V22.8178H2.03906ZM2.03906 24.5051C2.03906 25.1419 2.29201 25.7525 2.74226 26.2028L5.57068 23.3744C5.87059 23.6743 6.03906 24.081 6.03906 24.5051H2.03906ZM2.74226 26.2028C3.19245 26.653 3.80309 26.906 4.4399 26.906V22.906C4.86409 22.906 5.27083 23.0745 5.57068 23.3744L2.74226 26.2028ZM4.4399 26.906H7.42297V22.906H4.4399V26.906ZM7.42297 26.906C8.05978 26.906 8.67042 26.653 9.12061 26.2028L6.29219 23.3744C6.59204 23.0745 6.99878 22.906 7.42297 22.906V26.906ZM9.12061 26.2028C9.57086 25.7525 9.82381 25.1419 9.82381 24.5051H5.82381C5.82381 24.081 5.99228 23.6743 6.29219 23.3744L9.12061 26.2028ZM9.82381 24.5051V22.8178H5.82381V24.5051H9.82381ZM9.82381 22.8178C9.82381 22.1811 9.57086 21.5704 9.12061 21.1202L6.29219 23.9486C5.99228 23.6487 5.82381 23.2419 5.82381 22.8178H9.82381ZM9.12061 21.1202C8.67029 20.6698 8.0596 20.417 7.42297 20.417V24.417C6.99896 24.417 6.59216 24.2486 6.29219 23.9486L9.12061 21.1202ZM7.02213 22.1043H4.84077V26.1043H7.02213V22.1043ZM6.84077 24.1043V23.2187H2.84077V24.1043H6.84077ZM4.84077 25.2187H7.02213V21.2187H4.84077V25.2187ZM5.02213 23.2187V24.1043H9.02213V23.2187H5.02213Z" fill="black" mask="url(#path-12-inside-7_1046_1737)"/>
<mask id="path-14-inside-8_1046_1737" fill="white">
<path d="M17.7984 22.4166H14.8247C14.7184 22.4166 14.6164 22.4588 14.5412 22.534C14.4661 22.6092 14.4238 22.7111 14.4238 22.8175V24.5047C14.4238 24.611 14.4661 24.713 14.5412 24.7882C14.6164 24.8634 14.7184 24.9056 14.8247 24.9056H17.8077C17.914 24.9056 18.016 24.8634 18.0912 24.7882C18.1663 24.713 18.2086 24.611 18.2086 24.5047V22.8175C18.2086 22.764 18.1979 22.7111 18.1772 22.6619C18.1565 22.6126 18.1261 22.568 18.0879 22.5307C18.0497 22.4933 18.0044 22.464 17.9547 22.4444C17.905 22.4248 17.8518 22.4154 17.7984 22.4166V22.4166ZM17.3976 24.1039H15.2162V23.2183H17.3976V24.1039Z"/>
</mask>
<path d="M17.7984 22.4166H14.8247C14.7184 22.4166 14.6164 22.4588 14.5412 22.534C14.4661 22.6092 14.4238 22.7111 14.4238 22.8175V24.5047C14.4238 24.611 14.4661 24.713 14.5412 24.7882C14.6164 24.8634 14.7184 24.9056 14.8247 24.9056H17.8077C17.914 24.9056 18.016 24.8634 18.0912 24.7882C18.1663 24.713 18.2086 24.611 18.2086 24.5047V22.8175C18.2086 22.764 18.1979 22.7111 18.1772 22.6619C18.1565 22.6126 18.1261 22.568 18.0879 22.5307C18.0497 22.4933 18.0044 22.464 17.9547 22.4444C17.905 22.4248 17.8518 22.4154 17.7984 22.4166V22.4166ZM17.3976 24.1039H15.2162V23.2183H17.3976V24.1039Z" fill="#272525"/>
<path d="M14.4238 22.8175H12.4238H14.4238ZM14.4238 24.5047H12.4238H14.4238ZM17.8077 24.9056V22.9056V24.9056ZM18.2086 24.5047H20.2086H18.2086ZM18.2086 22.8175L16.2086 22.8169V22.8175H18.2086ZM17.3976 24.1039V26.1039H19.3976V24.1039H17.3976ZM15.2162 24.1039H13.2162V26.1039H15.2162V24.1039ZM15.2162 23.2183V21.2183H13.2162V23.2183H15.2162ZM17.3976 23.2183H19.3976V21.2183H17.3976V23.2183ZM17.7984 20.4166H14.8247V24.4166H17.7984V20.4166ZM14.8247 20.4166C14.188 20.4166 13.5773 20.6695 13.127 21.1198L15.9554 23.9482C15.6555 24.2482 15.2487 24.4166 14.8247 24.4166V20.4166ZM13.127 21.1198C12.6768 21.57 12.4238 22.1807 12.4238 22.8175H16.4238C16.4238 23.2416 16.2554 23.6483 15.9554 23.9482L13.127 21.1198ZM12.4238 22.8175V24.5047H16.4238V22.8175H12.4238ZM12.4238 24.5047C12.4238 25.1415 12.6768 25.7521 13.127 26.2024L15.9554 23.374C16.2554 23.6739 16.4238 24.0806 16.4238 24.5047H12.4238ZM13.127 26.2024C13.5772 26.6526 14.1879 26.9056 14.8247 26.9056V22.9056C15.2489 22.9056 15.6556 23.0741 15.9554 23.374L13.127 26.2024ZM14.8247 26.9056H17.8077V22.9056H14.8247V26.9056ZM17.8077 26.9056C18.4445 26.9056 19.0552 26.6526 19.5054 26.2024L16.677 23.374C16.9768 23.0741 17.3835 22.9056 17.8077 22.9056V26.9056ZM19.5054 26.2024C19.9556 25.7521 20.2086 25.1415 20.2086 24.5047H16.2086C16.2086 24.0806 16.377 23.6739 16.677 23.374L19.5054 26.2024ZM20.2086 24.5047V22.8175H16.2086V24.5047H20.2086ZM20.2086 22.818C20.2087 22.498 20.1448 22.1812 20.0206 21.8861L16.3338 23.4376C16.2511 23.2411 16.2085 23.0301 16.2086 22.8169L20.2086 22.818ZM20.0206 21.8861C19.8965 21.5912 19.7147 21.324 19.4858 21.1003L16.69 23.961C16.5376 23.812 16.4164 23.6341 16.3338 23.4376L20.0206 21.8861ZM19.4858 21.1003C19.2568 20.8765 18.9854 20.7009 18.6878 20.5836L17.2215 24.3052C17.0233 24.2271 16.8426 24.1101 16.69 23.961L19.4858 21.1003ZM18.6878 20.5836C18.39 20.4663 18.0718 20.4097 17.7519 20.4172L17.8449 24.4161C17.6318 24.421 17.4199 24.3833 17.2215 24.3052L18.6878 20.5836ZM17.3976 22.1039H15.2162V26.1039H17.3976V22.1039ZM17.2162 24.1039V23.2183H13.2162V24.1039H17.2162ZM15.2162 25.2183H17.3976V21.2183H15.2162V25.2183ZM15.3976 23.2183V24.1039H19.3976V23.2183H15.3976Z" fill="black" mask="url(#path-14-inside-8_1046_1737)"/>
<mask id="path-16-inside-9_1046_1737" fill="white">
<path d="M24.5938 22.8178V24.5051C24.5938 24.6114 24.636 24.7134 24.7112 24.7886C24.7863 24.8637 24.8883 24.906 24.9946 24.906H27.9776C28.0839 24.906 28.1859 24.8637 28.2611 24.7886C28.3363 24.7134 28.3785 24.6114 28.3785 24.5051V22.8178C28.3785 22.7115 28.3363 22.6096 28.2611 22.5344C28.1859 22.4592 28.0839 22.417 27.9776 22.417H24.9946C24.8883 22.417 24.7863 22.4592 24.7112 22.5344C24.636 22.6096 24.5938 22.7115 24.5938 22.8178V22.8178ZM27.5768 24.1043H25.3954V23.2187H27.5768V24.1043Z"/>
</mask>
<path d="M24.5938 22.8178V24.5051C24.5938 24.6114 24.636 24.7134 24.7112 24.7886C24.7863 24.8637 24.8883 24.906 24.9946 24.906H27.9776C28.0839 24.906 28.1859 24.8637 28.2611 24.7886C28.3363 24.7134 28.3785 24.6114 28.3785 24.5051V22.8178C28.3785 22.7115 28.3363 22.6096 28.2611 22.5344C28.1859 22.4592 28.0839 22.417 27.9776 22.417H24.9946C24.8883 22.417 24.7863 22.4592 24.7112 22.5344C24.636 22.6096 24.5938 22.7115 24.5938 22.8178V22.8178ZM27.5768 24.1043H25.3954V23.2187H27.5768V24.1043Z" fill="#272525"/>
<path d="M24.5938 24.5051H22.5938H24.5938ZM27.9776 24.906V22.906V24.906ZM28.3785 24.5051H30.3785H28.3785ZM27.5768 24.1043V26.1043H29.5768V24.1043H27.5768ZM25.3954 24.1043H23.3954V26.1043H25.3954V24.1043ZM25.3954 23.2187V21.2187H23.3954V23.2187H25.3954ZM27.5768 23.2187H29.5768V21.2187H27.5768V23.2187ZM22.5938 22.8178V24.5051H26.5938V22.8178H22.5938ZM22.5938 24.5051C22.5938 25.1419 22.8467 25.7525 23.2969 26.2028L26.1254 23.3744C26.4253 23.6743 26.5938 24.081 26.5938 24.5051H22.5938ZM23.2969 26.2028C23.7471 26.653 24.3578 26.906 24.9946 26.906V22.906C25.4188 22.906 25.8255 23.0745 26.1254 23.3744L23.2969 26.2028ZM24.9946 26.906H27.9776V22.906H24.9946V26.906ZM27.9776 26.906C28.6143 26.906 29.225 26.6531 29.6753 26.2028L26.8469 23.3744C27.1468 23.0744 27.5536 22.906 27.9776 22.906V26.906ZM29.6753 26.2028C30.1255 25.7525 30.3785 25.1419 30.3785 24.5051H26.3785C26.3785 24.081 26.547 23.6743 26.8469 23.3744L29.6753 26.2028ZM30.3785 24.5051V22.8178H26.3785V24.5051H30.3785ZM30.3785 22.8178C30.3785 22.1811 30.1255 21.5704 29.6753 21.1202L26.8469 23.9486C26.547 23.6487 26.3785 23.2419 26.3785 22.8178H30.3785ZM29.6753 21.1202C29.2249 20.6697 28.6141 20.417 27.9776 20.417V24.417C27.5538 24.417 27.147 24.2487 26.8469 23.9486L29.6753 21.1202ZM27.9776 20.417H24.9946V24.417H27.9776V20.417ZM24.9946 20.417C24.358 20.417 23.7473 20.6698 23.2969 21.1202L26.1254 23.9486C25.8254 24.2486 25.4186 24.417 24.9946 24.417V20.417ZM23.2969 21.1202C22.8467 21.5704 22.5938 22.1811 22.5938 22.8178H26.5938C26.5938 23.2419 26.4253 23.6487 26.1254 23.9486L23.2969 21.1202ZM27.5768 22.1043H25.3954V26.1043H27.5768V22.1043ZM27.3954 24.1043V23.2187H23.3954V24.1043H27.3954ZM25.3954 25.2187H27.5768V21.2187H25.3954V25.2187ZM25.5768 23.2187V24.1043H29.5768V23.2187H25.5768Z" fill="black" mask="url(#path-16-inside-9_1046_1737)"/>
<mask id="path-18-inside-10_1046_1737" fill="white">
<path d="M12.5128 22.417H9.53905C9.43186 22.417 9.32895 22.4589 9.25229 22.5338C9.17563 22.6087 9.13134 22.7107 9.12891 22.8178V24.5051C9.13134 24.6123 9.17563 24.7142 9.25229 24.7892C9.32895 24.8641 9.43186 24.906 9.53905 24.906H12.5128C12.6191 24.906 12.7211 24.8637 12.7962 24.7886C12.8714 24.7134 12.9137 24.6114 12.9137 24.5051V22.8178C12.9137 22.7115 12.8714 22.6096 12.7962 22.5344C12.7211 22.4592 12.6191 22.417 12.5128 22.417ZM12.1119 24.1043H9.93992V23.2187H12.1119V24.1043Z"/>
</mask>
<path d="M12.5128 22.417H9.53905C9.43186 22.417 9.32895 22.4589 9.25229 22.5338C9.17563 22.6087 9.13134 22.7107 9.12891 22.8178V24.5051C9.13134 24.6123 9.17563 24.7142 9.25229 24.7892C9.32895 24.8641 9.43186 24.906 9.53905 24.906H12.5128C12.6191 24.906 12.7211 24.8637 12.7962 24.7886C12.8714 24.7134 12.9137 24.6114 12.9137 24.5051V22.8178C12.9137 22.7115 12.8714 22.6096 12.7962 22.5344C12.7211 22.4592 12.6191 22.417 12.5128 22.417ZM12.1119 24.1043H9.93992V23.2187H12.1119V24.1043Z" fill="#272525"/>
<path d="M9.53905 22.417L9.53853 24.417H9.53905V22.417ZM9.12891 22.8178L7.12942 22.7724L7.12891 22.7951V22.8178H9.12891ZM9.12891 24.5051H7.12891V24.5279L7.12942 24.5506L9.12891 24.5051ZM9.53905 24.906V22.906L9.53853 22.906L9.53905 24.906ZM12.5128 24.906V22.906V24.906ZM12.9137 24.5051H14.9137H12.9137ZM12.9137 22.8178H14.9137H12.9137ZM12.1119 24.1043V26.1043H14.1119V24.1043H12.1119ZM9.93992 24.1043H7.93992V26.1043H9.93992V24.1043ZM9.93992 23.2187V21.2187H7.93992V23.2187H9.93992ZM12.1119 23.2187H14.1119V21.2187H12.1119V23.2187ZM12.5128 20.417H9.53905V24.417H12.5128V20.417ZM9.53957 20.417C8.90974 20.4168 8.30489 20.6632 7.85442 21.1034L10.6502 23.9642C10.353 24.2546 9.95398 24.4171 9.53853 24.417L9.53957 20.417ZM7.85442 21.1034C7.40394 21.5437 7.14374 22.1427 7.12942 22.7724L11.1284 22.8633C11.1189 23.2786 10.9473 23.6738 10.6502 23.9642L7.85442 21.1034ZM7.12891 22.8178V24.5051H11.1289V22.8178H7.12891ZM7.12942 24.5506C7.14374 25.1802 7.40394 25.7793 7.85442 26.2195L10.6502 23.3588C10.9473 23.6492 11.1189 24.0443 11.1284 24.4597L7.12942 24.5506ZM7.85442 26.2195C8.30476 26.6596 8.90956 26.9061 9.53957 26.906L9.53853 22.906C9.95416 22.9059 10.3531 23.0685 10.6502 23.3588L7.85442 26.2195ZM9.53905 26.906H12.5128V22.906H9.53905V26.906ZM12.5128 26.906C13.1494 26.906 13.7602 26.6531 14.2105 26.2028L11.382 23.3744C11.682 23.0744 12.0887 22.906 12.5128 22.906V26.906ZM14.2105 26.2028C14.6607 25.7525 14.9137 25.1419 14.9137 24.5051H10.9137C10.9137 24.081 11.0821 23.6743 11.382 23.3744L14.2105 26.2028ZM14.9137 24.5051V22.8178H10.9137V24.5051H14.9137ZM14.9137 22.8178C14.9137 22.1811 14.6607 21.5704 14.2105 21.1202L11.382 23.9486C11.0821 23.6487 10.9137 23.2419 10.9137 22.8178H14.9137ZM14.2105 21.1202C13.76 20.6697 13.1493 20.417 12.5128 20.417V24.417C12.0889 24.417 11.6821 24.2487 11.382 23.9486L14.2105 21.1202ZM12.1119 22.1043H9.93992V26.1043H12.1119V22.1043ZM11.9399 24.1043V23.2187H7.93992V24.1043H11.9399ZM9.93992 25.2187H12.1119V21.2187H9.93992V25.2187ZM10.1119 23.2187V24.1043H14.1119V23.2187H10.1119Z" fill="black" mask="url(#path-18-inside-10_1046_1737)"/>
<mask id="path-20-inside-11_1046_1737" fill="white">
<path d="M22.8878 22.417H19.9048C19.7985 22.417 19.6965 22.4592 19.6213 22.5344C19.5461 22.6096 19.5039 22.7115 19.5039 22.8178V24.5051C19.5039 24.6114 19.5461 24.7134 19.6213 24.7886C19.6965 24.8637 19.7985 24.906 19.9048 24.906H22.8878C22.9941 24.906 23.0961 24.8637 23.1713 24.7886C23.2464 24.7134 23.2887 24.6114 23.2887 24.5051V22.8178C23.2887 22.7115 23.2464 22.6096 23.1713 22.5344C23.0961 22.4592 22.9941 22.417 22.8878 22.417V22.417ZM22.487 24.1043H20.3056V23.2187H22.487V24.1043Z"/>
</mask>
<path d="M22.8878 22.417H19.9048C19.7985 22.417 19.6965 22.4592 19.6213 22.5344C19.5461 22.6096 19.5039 22.7115 19.5039 22.8178V24.5051C19.5039 24.6114 19.5461 24.7134 19.6213 24.7886C19.6965 24.8637 19.7985 24.906 19.9048 24.906H22.8878C22.9941 24.906 23.0961 24.8637 23.1713 24.7886C23.2464 24.7134 23.2887 24.6114 23.2887 24.5051V22.8178C23.2887 22.7115 23.2464 22.6096 23.1713 22.5344C23.0961 22.4592 22.9941 22.417 22.8878 22.417V22.417ZM22.487 24.1043H20.3056V23.2187H22.487V24.1043Z" fill="#272525"/>
<path d="M19.5039 22.8178H17.5039H19.5039ZM19.5039 24.5051H17.5039H19.5039ZM22.8878 24.906V22.906V24.906ZM23.2887 24.5051H25.2887H23.2887ZM22.487 24.1043V26.1043H24.487V24.1043H22.487ZM20.3056 24.1043H18.3056V26.1043H20.3056V24.1043ZM20.3056 23.2187V21.2187H18.3056V23.2187H20.3056ZM22.487 23.2187H24.487V21.2187H22.487V23.2187ZM22.8878 20.417H19.9048V24.417H22.8878V20.417ZM19.9048 20.417C19.2683 20.417 18.6575 20.6697 18.2071 21.1202L21.0355 23.9486C20.7354 24.2487 20.3286 24.417 19.9048 24.417V20.417ZM18.2071 21.1202C17.7568 21.5704 17.5039 22.1811 17.5039 22.8178H21.5039C21.5039 23.2419 21.3354 23.6487 21.0355 23.9486L18.2071 21.1202ZM17.5039 22.8178V24.5051H21.5039V22.8178H17.5039ZM17.5039 24.5051C17.5039 25.1419 17.7568 25.7525 18.2071 26.2028L21.0355 23.3744C21.3354 23.6743 21.5039 24.081 21.5039 24.5051H17.5039ZM18.2071 26.2028C18.6574 26.6531 19.2681 26.906 19.9048 26.906V22.906C20.3288 22.906 20.7356 23.0744 21.0355 23.3744L18.2071 26.2028ZM19.9048 26.906H22.8878V22.906H19.9048V26.906ZM22.8878 26.906C23.5245 26.906 24.1352 26.6531 24.5855 26.2028L21.7571 23.3744C22.057 23.0744 22.4638 22.906 22.8878 22.906V26.906ZM24.5855 26.2028C25.036 25.7523 25.2887 25.1415 25.2887 24.5051H21.2887C21.2887 24.0814 21.4569 23.6745 21.7571 23.3744L24.5855 26.2028ZM25.2887 24.5051V22.8178H21.2887V24.5051H25.2887ZM25.2887 22.8178C25.2887 22.1815 25.036 21.5707 24.5855 21.1202L21.7571 23.9486C21.4569 23.6484 21.2887 23.2416 21.2887 22.8178H25.2887ZM24.5855 21.1202C24.1351 20.6697 23.5243 20.417 22.8878 20.417V24.417C22.464 24.417 22.0571 24.2487 21.7571 23.9486L24.5855 21.1202ZM22.487 22.1043H20.3056V26.1043H22.487V22.1043ZM22.3056 24.1043V23.2187H18.3056V24.1043H22.3056ZM20.3056 25.2187H22.487V21.2187H20.3056V25.2187ZM20.487 23.2187V24.1043H24.487V23.2187H20.487Z" fill="black" mask="url(#path-20-inside-11_1046_1737)"/>
<mask id="path-22-inside-12_1046_1737" fill="white">
<path d="M21.9644 12.8618L13.5187 7.16608C13.4549 7.12926 13.3825 7.10986 13.3089 7.10986C13.2353 7.10986 13.1629 7.12926 13.0992 7.16608C13.0352 7.2008 12.9816 7.2519 12.944 7.31415C12.9063 7.3764 12.8859 7.44755 12.8848 7.52031V18.9212C12.8868 18.9937 12.9076 19.0645 12.9452 19.1266C12.9828 19.1887 13.0358 19.2399 13.0992 19.2754C13.1606 19.3039 13.2272 19.3198 13.2949 19.322C13.375 19.3185 13.4525 19.2927 13.5187 19.2474L21.9644 13.5517C22.0203 13.5164 22.0663 13.4675 22.0981 13.4096C22.13 13.3518 22.1467 13.2868 22.1467 13.2207C22.1467 13.1547 22.13 13.0897 22.0981 13.0318C22.0663 12.974 22.0203 12.9251 21.9644 12.8898V12.8618ZM13.6958 18.1381V8.24742L21.0229 13.1881L13.6958 18.1381Z"/>
</mask>
<path d="M21.9644 12.8618L13.5187 7.16608C13.4549 7.12926 13.3825 7.10986 13.3089 7.10986C13.2353 7.10986 13.1629 7.12926 13.0992 7.16608C13.0352 7.2008 12.9816 7.2519 12.944 7.31415C12.9063 7.3764 12.8859 7.44755 12.8848 7.52031V18.9212C12.8868 18.9937 12.9076 19.0645 12.9452 19.1266C12.9828 19.1887 13.0358 19.2399 13.0992 19.2754C13.1606 19.3039 13.2272 19.3198 13.2949 19.322C13.375 19.3185 13.4525 19.2927 13.5187 19.2474L21.9644 13.5517C22.0203 13.5164 22.0663 13.4675 22.0981 13.4096C22.13 13.3518 22.1467 13.2868 22.1467 13.2207C22.1467 13.1547 22.13 13.0897 22.0981 13.0318C22.0663 12.974 22.0203 12.9251 21.9644 12.8898V12.8618ZM13.6958 18.1381V8.24742L21.0229 13.1881L13.6958 18.1381Z" fill="#272525"/>
<path d="M21.9644 12.8618H23.9644V11.7983L23.0827 11.2037L21.9644 12.8618ZM13.5187 7.16608L14.6369 5.50791L14.5791 5.46891L14.5187 5.43403L13.5187 7.16608ZM13.3089 7.10986V9.10986V7.10986ZM13.0992 7.16608L14.0535 8.92371L14.0765 8.91122L14.0992 8.89813L13.0992 7.16608ZM12.8848 7.52031L10.885 7.48994L10.8848 7.50512V7.52031H12.8848ZM12.8848 18.9212H10.8848V18.9493L10.8856 18.9774L12.8848 18.9212ZM13.0992 19.2754L12.1222 21.0205L12.188 21.0574L12.2564 21.0891L13.0992 19.2754ZM13.2949 19.322L13.2299 21.3209L13.3056 21.3234L13.3812 21.3201L13.2949 19.322ZM13.5187 19.2474L12.4004 17.5892L12.3888 17.5971L13.5187 19.2474ZM21.9644 13.5517L20.8956 11.8612L20.8707 11.877L20.8462 11.8935L21.9644 13.5517ZM21.9644 12.8898H19.9644V13.9915L20.8956 14.5803L21.9644 12.8898ZM13.6958 18.1381H11.6958V21.9029L14.8154 19.7954L13.6958 18.1381ZM13.6958 8.24742L14.8139 6.58919L11.6958 4.48661V8.24742H13.6958ZM21.0229 13.1881L22.1425 14.8454L24.5979 13.1865L22.141 11.5299L21.0229 13.1881ZM23.0827 11.2037L14.6369 5.50791L12.4004 8.82424L20.8462 14.52L23.0827 11.2037ZM14.5187 5.43403C14.151 5.22178 13.7338 5.10986 13.3089 5.10986V9.10986C13.0313 9.10986 12.7587 9.03674 12.5187 8.89813L14.5187 5.43403ZM13.3089 5.10986C12.884 5.10986 12.4668 5.22178 12.0992 5.43403L14.0992 8.89813C13.8591 9.03674 13.5866 9.10986 13.3089 9.10986V5.10986ZM12.1448 5.40844C11.7691 5.61243 11.4544 5.9127 11.233 6.27855L14.655 8.34976C14.5089 8.5911 14.3013 8.78917 14.0535 8.92371L12.1448 5.40844ZM11.233 6.27855C11.0114 6.64463 10.8915 7.06277 10.885 7.48994L14.8845 7.55067C14.8803 7.83233 14.8012 8.10818 14.655 8.34976L11.233 6.27855ZM10.8848 7.52031V18.9212H14.8848V7.52031H10.8848ZM10.8856 18.9774C10.8973 19.3954 11.0172 19.8037 11.2342 20.1622L14.6562 18.091C14.798 18.3253 14.8763 18.592 14.884 18.8649L10.8856 18.9774ZM11.2342 20.1622C11.451 20.5205 11.7571 20.8161 12.1222 21.0205L14.0761 17.5303C14.3146 17.6637 14.5145 17.8569 14.6562 18.091L11.2342 20.1622ZM12.2564 21.0891C12.5619 21.2311 12.893 21.31 13.2299 21.3209L13.3599 17.3231C13.5614 17.3296 13.7593 17.3768 13.9419 17.4616L12.2564 21.0891ZM13.3812 21.3201C13.8347 21.3005 14.2738 21.1542 14.6485 20.8977L12.3888 17.5971C12.6312 17.4312 12.9152 17.3365 13.2086 17.3239L13.3812 21.3201ZM14.6369 20.9056L23.0827 15.2098L20.8462 11.8935L12.4004 17.5893L14.6369 20.9056ZM23.0332 15.2421C23.3742 15.0266 23.6552 14.7282 23.8499 14.3746L20.3463 12.4446C20.4773 12.2069 20.6663 12.0062 20.8956 11.8612L23.0332 15.2421ZM23.8499 14.3746C24.0446 14.0212 24.1467 13.6242 24.1467 13.2207H20.1467C20.1467 12.9493 20.2154 12.6824 20.3463 12.4446L23.8499 14.3746ZM24.1467 13.2207C24.1467 12.8172 24.0446 12.4203 23.8499 12.0668L20.3463 13.9968C20.2154 13.7591 20.1467 13.4921 20.1467 13.2207H24.1467ZM23.8499 12.0668C23.6552 11.7133 23.3742 11.4149 23.0332 11.1993L20.8956 14.5803C20.6663 14.4353 20.4773 14.2346 20.3463 13.9968L23.8499 12.0668ZM23.9644 12.8898V12.8618H19.9644V12.8898H23.9644ZM15.6958 18.1381V8.24742H11.6958V18.1381H15.6958ZM12.5776 9.90566L19.9047 14.8463L22.141 11.5299L14.8139 6.58919L12.5776 9.90566ZM19.9033 11.5308L12.5762 16.4808L14.8154 19.7954L22.1425 14.8454L19.9033 11.5308Z" fill="black" mask="url(#path-22-inside-12_1046_1737)"/>
</svg>
