<svg width="39" height="32" viewBox="0 0 39 32" fill="none" xmlns="http://www.w3.org/2000/svg">
<mask id="path-1-inside-1_1046_1924" fill="white">
<path d="M0.261719 0.988585V2.76353C0.261719 2.82737 0.274308 2.89058 0.298739 2.94956C0.323169 3.00854 0.358965 3.06214 0.404106 3.10729C0.449248 3.15243 0.502832 3.18822 0.561813 3.21265C0.620793 3.23708 0.684005 3.24967 0.747845 3.24967H2.05928V4.38022H0.747845C0.684005 4.38022 0.620793 4.39279 0.561813 4.41722C0.502832 4.44165 0.449248 4.47745 0.404106 4.52259C0.358965 4.56773 0.323169 4.62133 0.298739 4.68031C0.274308 4.73929 0.261719 4.8025 0.261719 4.86634V6.67522C0.261719 6.73906 0.274308 6.80227 0.298739 6.86125C0.323169 6.92024 0.358965 6.97382 0.404106 7.01896C0.449248 7.0641 0.502832 7.09992 0.561813 7.12435C0.620793 7.14878 0.684005 7.16135 0.747845 7.16135H4.3882V25.2501H0.747845C0.684005 25.2501 0.620793 25.2626 0.561813 25.2871C0.502832 25.3115 0.449248 25.3473 0.404106 25.3925C0.358965 25.4376 0.323169 25.4912 0.298739 25.5502C0.274308 25.6091 0.261719 25.6724 0.261719 25.7362V27.5112C0.261719 27.575 0.274308 27.6382 0.298739 27.6972C0.323169 27.7562 0.358965 27.8098 0.404106 27.8549C0.449248 27.9 0.502832 27.9358 0.561813 27.9603C0.620793 27.9847 0.684005 27.9973 0.747845 27.9973H2.05928V29.0713H0.747845C0.684005 29.0713 0.620793 29.0839 0.561813 29.1083C0.502832 29.1327 0.449248 29.1686 0.404106 29.2137C0.358965 29.2588 0.323169 29.3124 0.298739 29.3714C0.274308 29.4304 0.261719 29.4936 0.261719 29.5574V31.3663C0.261719 31.4302 0.274308 31.4934 0.298739 31.5523C0.323169 31.6113 0.358965 31.6649 0.404106 31.7101C0.449248 31.7552 0.502832 31.791 0.561813 31.8154C0.620793 31.8399 0.684005 31.8524 0.747845 31.8524H38.0558C38.1847 31.8524 38.3084 31.8012 38.3996 31.7101C38.4908 31.6189 38.542 31.4952 38.542 31.3663V29.5574C38.542 29.4285 38.4908 29.3049 38.3996 29.2137C38.3084 29.1225 38.1847 29.0713 38.0558 29.0713H36.507V27.9973H38.0558C38.1847 27.9973 38.3084 27.9461 38.3996 27.8549C38.4908 27.7637 38.542 27.6401 38.542 27.5112V25.7362C38.542 25.6073 38.4908 25.4836 38.3996 25.3925C38.3084 25.3013 38.1847 25.2501 38.0558 25.2501H33.9407V7.16135H38.0558C38.1847 7.16135 38.3084 7.11013 38.3996 7.01896C38.4908 6.92779 38.542 6.80415 38.542 6.67522V4.86634C38.542 4.73741 38.4908 4.61376 38.3996 4.52259C38.3084 4.43142 38.1847 4.38022 38.0558 4.38022H36.507V3.24967H38.0558C38.1847 3.24967 38.3084 3.19845 38.3996 3.10729C38.4908 3.01612 38.542 2.89246 38.542 2.76353V0.988585C38.542 0.859654 38.4908 0.735997 38.3996 0.644829C38.3084 0.553661 38.1847 0.502441 38.0558 0.502441H0.747845C0.684005 0.502441 0.620793 0.515014 0.561813 0.539444C0.502832 0.563875 0.449248 0.599687 0.404106 0.644829C0.358965 0.689971 0.323169 0.743555 0.298739 0.802535C0.274308 0.861516 0.261719 0.924745 0.261719 0.988585ZM1.23401 1.47471H37.5358V2.2774H35.9756C35.8467 2.2774 35.723 2.32861 35.6319 2.41978C35.5407 2.51094 35.4895 2.6346 35.4895 2.76353V4.80981C35.4895 4.93874 35.5407 5.0624 35.6319 5.15357C35.723 5.24474 35.8467 5.29596 35.9756 5.29596H37.5358V6.13255H33.545H33.4206H30.4812H30.3568H8.27728H8.16422H4.87433H4.7613H1.23401V5.29596H2.54541C2.60925 5.29596 2.67249 5.28338 2.73147 5.25895C2.79045 5.23452 2.84404 5.19871 2.88918 5.15357C2.93432 5.10843 2.97012 5.05483 2.99455 4.99585C3.01898 4.93687 3.03157 4.87365 3.03157 4.80981V2.76353C3.03157 2.69969 3.01898 2.63648 2.99455 2.5775C2.97012 2.51852 2.93432 2.46492 2.88918 2.41978C2.84404 2.37463 2.79045 2.33884 2.73147 2.31441C2.67249 2.28998 2.60925 2.2774 2.54541 2.2774H1.23401V1.47471ZM32.8893 24.99H30.9221V7.08222H32.8893V24.99ZM37.4905 26.9911H35.9304C35.8015 26.9911 35.6778 27.0423 35.5867 27.1335C35.4955 27.2246 35.4443 27.3483 35.4443 27.4772V29.5235C35.4443 29.6525 35.4955 29.7761 35.5867 29.8673C35.6778 29.9584 35.8015 30.0097 35.9304 30.0097H37.4905V30.8463H1.23401V30.0097H2.54541C2.67434 30.0097 2.79801 29.9584 2.88918 29.8673C2.98035 29.7761 3.03157 29.6525 3.03157 29.5235V27.4772C3.03157 27.3483 2.98035 27.2246 2.88918 27.1335C2.79801 27.0423 2.67434 26.9911 2.54541 26.9911H1.23401V26.1884H37.5358L37.4905 26.9911ZM5.31525 7.08222H7.57634V24.99H5.31525V7.08222ZM8.70689 25.1709V7.08222H29.9385V25.1709H8.70689Z"/>
</mask>
<path d="M0.261719 0.988585V2.76353C0.261719 2.82737 0.274308 2.89058 0.298739 2.94956C0.323169 3.00854 0.358965 3.06214 0.404106 3.10729C0.449248 3.15243 0.502832 3.18822 0.561813 3.21265C0.620793 3.23708 0.684005 3.24967 0.747845 3.24967H2.05928V4.38022H0.747845C0.684005 4.38022 0.620793 4.39279 0.561813 4.41722C0.502832 4.44165 0.449248 4.47745 0.404106 4.52259C0.358965 4.56773 0.323169 4.62133 0.298739 4.68031C0.274308 4.73929 0.261719 4.8025 0.261719 4.86634V6.67522C0.261719 6.73906 0.274308 6.80227 0.298739 6.86125C0.323169 6.92024 0.358965 6.97382 0.404106 7.01896C0.449248 7.0641 0.502832 7.09992 0.561813 7.12435C0.620793 7.14878 0.684005 7.16135 0.747845 7.16135H4.3882V25.2501H0.747845C0.684005 25.2501 0.620793 25.2626 0.561813 25.2871C0.502832 25.3115 0.449248 25.3473 0.404106 25.3925C0.358965 25.4376 0.323169 25.4912 0.298739 25.5502C0.274308 25.6091 0.261719 25.6724 0.261719 25.7362V27.5112C0.261719 27.575 0.274308 27.6382 0.298739 27.6972C0.323169 27.7562 0.358965 27.8098 0.404106 27.8549C0.449248 27.9 0.502832 27.9358 0.561813 27.9603C0.620793 27.9847 0.684005 27.9973 0.747845 27.9973H2.05928V29.0713H0.747845C0.684005 29.0713 0.620793 29.0839 0.561813 29.1083C0.502832 29.1327 0.449248 29.1686 0.404106 29.2137C0.358965 29.2588 0.323169 29.3124 0.298739 29.3714C0.274308 29.4304 0.261719 29.4936 0.261719 29.5574V31.3663C0.261719 31.4302 0.274308 31.4934 0.298739 31.5523C0.323169 31.6113 0.358965 31.6649 0.404106 31.7101C0.449248 31.7552 0.502832 31.791 0.561813 31.8154C0.620793 31.8399 0.684005 31.8524 0.747845 31.8524H38.0558C38.1847 31.8524 38.3084 31.8012 38.3996 31.7101C38.4908 31.6189 38.542 31.4952 38.542 31.3663V29.5574C38.542 29.4285 38.4908 29.3049 38.3996 29.2137C38.3084 29.1225 38.1847 29.0713 38.0558 29.0713H36.507V27.9973H38.0558C38.1847 27.9973 38.3084 27.9461 38.3996 27.8549C38.4908 27.7637 38.542 27.6401 38.542 27.5112V25.7362C38.542 25.6073 38.4908 25.4836 38.3996 25.3925C38.3084 25.3013 38.1847 25.2501 38.0558 25.2501H33.9407V7.16135H38.0558C38.1847 7.16135 38.3084 7.11013 38.3996 7.01896C38.4908 6.92779 38.542 6.80415 38.542 6.67522V4.86634C38.542 4.73741 38.4908 4.61376 38.3996 4.52259C38.3084 4.43142 38.1847 4.38022 38.0558 4.38022H36.507V3.24967H38.0558C38.1847 3.24967 38.3084 3.19845 38.3996 3.10729C38.4908 3.01612 38.542 2.89246 38.542 2.76353V0.988585C38.542 0.859654 38.4908 0.735997 38.3996 0.644829C38.3084 0.553661 38.1847 0.502441 38.0558 0.502441H0.747845C0.684005 0.502441 0.620793 0.515014 0.561813 0.539444C0.502832 0.563875 0.449248 0.599687 0.404106 0.644829C0.358965 0.689971 0.323169 0.743555 0.298739 0.802535C0.274308 0.861516 0.261719 0.924745 0.261719 0.988585ZM1.23401 1.47471H37.5358V2.2774H35.9756C35.8467 2.2774 35.723 2.32861 35.6319 2.41978C35.5407 2.51094 35.4895 2.6346 35.4895 2.76353V4.80981C35.4895 4.93874 35.5407 5.0624 35.6319 5.15357C35.723 5.24474 35.8467 5.29596 35.9756 5.29596H37.5358V6.13255H33.545H33.4206H30.4812H30.3568H8.27728H8.16422H4.87433H4.7613H1.23401V5.29596H2.54541C2.60925 5.29596 2.67249 5.28338 2.73147 5.25895C2.79045 5.23452 2.84404 5.19871 2.88918 5.15357C2.93432 5.10843 2.97012 5.05483 2.99455 4.99585C3.01898 4.93687 3.03157 4.87365 3.03157 4.80981V2.76353C3.03157 2.69969 3.01898 2.63648 2.99455 2.5775C2.97012 2.51852 2.93432 2.46492 2.88918 2.41978C2.84404 2.37463 2.79045 2.33884 2.73147 2.31441C2.67249 2.28998 2.60925 2.2774 2.54541 2.2774H1.23401V1.47471ZM32.8893 24.99H30.9221V7.08222H32.8893V24.99ZM37.4905 26.9911H35.9304C35.8015 26.9911 35.6778 27.0423 35.5867 27.1335C35.4955 27.2246 35.4443 27.3483 35.4443 27.4772V29.5235C35.4443 29.6525 35.4955 29.7761 35.5867 29.8673C35.6778 29.9584 35.8015 30.0097 35.9304 30.0097H37.4905V30.8463H1.23401V30.0097H2.54541C2.67434 30.0097 2.79801 29.9584 2.88918 29.8673C2.98035 29.7761 3.03157 29.6525 3.03157 29.5235V27.4772C3.03157 27.3483 2.98035 27.2246 2.88918 27.1335C2.79801 27.0423 2.67434 26.9911 2.54541 26.9911H1.23401V26.1884H37.5358L37.4905 26.9911ZM5.31525 7.08222H7.57634V24.99H5.31525V7.08222ZM8.70689 25.1709V7.08222H29.9385V25.1709H8.70689Z" fill="#272525" stroke="black" stroke-width="4" mask="url(#path-1-inside-1_1046_1924)"/>
<mask id="path-2-inside-2_1046_1924" fill="white">
<path d="M23.6307 5.29638H27.2484C27.3773 5.29638 27.501 5.24517 27.5922 5.154C27.6834 5.06283 27.7345 4.93917 27.7345 4.81024V2.76396C27.7345 2.63503 27.6834 2.51137 27.5922 2.4202C27.501 2.32903 27.3773 2.27783 27.2484 2.27783H23.6307C23.5018 2.27783 23.3781 2.32903 23.2869 2.4202C23.1958 2.51137 23.1445 2.63503 23.1445 2.76396V4.81024C23.1445 4.93917 23.1958 5.06283 23.2869 5.154C23.3781 5.24517 23.5018 5.29638 23.6307 5.29638ZM24.1168 3.2501H26.7623V4.38065H24.1168V3.2501Z"/>
</mask>
<path d="M23.6307 5.29638H27.2484C27.3773 5.29638 27.501 5.24517 27.5922 5.154C27.6834 5.06283 27.7345 4.93917 27.7345 4.81024V2.76396C27.7345 2.63503 27.6834 2.51137 27.5922 2.4202C27.501 2.32903 27.3773 2.27783 27.2484 2.27783H23.6307C23.5018 2.27783 23.3781 2.32903 23.2869 2.4202C23.1958 2.51137 23.1445 2.63503 23.1445 2.76396V4.81024C23.1445 4.93917 23.1958 5.06283 23.2869 5.154C23.3781 5.24517 23.5018 5.29638 23.6307 5.29638ZM24.1168 3.2501H26.7623V4.38065H24.1168V3.2501Z" fill="#272525"/>
<path d="M27.2484 5.29638V3.29638V5.29638ZM27.7345 4.81024H29.7345H27.7345ZM23.1445 2.76396H21.1445H23.1445ZM23.1445 4.81024H21.1445H23.1445ZM24.1168 3.2501V1.2501H22.1168V3.2501H24.1168ZM26.7623 3.2501H28.7623V1.2501H26.7623V3.2501ZM26.7623 4.38065V6.38065H28.7623V4.38065H26.7623ZM24.1168 4.38065H22.1168V6.38065H24.1168V4.38065ZM23.6307 7.29638H27.2484V3.29638H23.6307V7.29638ZM27.2484 7.29638C27.9077 7.29638 28.5401 7.03451 29.0064 6.56821L26.178 3.73978C26.4619 3.45582 26.847 3.29638 27.2484 3.29638V7.29638ZM29.0064 6.56821C29.4729 6.10171 29.7345 5.46924 29.7345 4.81024H25.7345C25.7345 4.40911 25.8938 4.02395 26.178 3.73978L29.0064 6.56821ZM29.7345 4.81024V2.76396H25.7345V4.81024H29.7345ZM29.7345 2.76396C29.7345 2.10496 29.4729 1.47249 29.0064 1.00599L26.178 3.83442C25.8938 3.55025 25.7345 3.16509 25.7345 2.76396H29.7345ZM29.0064 1.00599C28.54 0.539562 27.9075 0.277832 27.2484 0.277832V4.27783C26.8472 4.27783 26.4621 4.11851 26.178 3.83442L29.0064 1.00599ZM27.2484 0.277832H23.6307V4.27783H27.2484V0.277832ZM23.6307 0.277832C22.9716 0.277832 22.3391 0.539562 21.8727 1.00599L24.7011 3.83442C24.417 4.11851 24.0319 4.27783 23.6307 4.27783V0.277832ZM21.8727 1.00599C21.4065 1.47223 21.1445 2.1046 21.1445 2.76396H25.1445C25.1445 3.16545 24.985 3.55051 24.7011 3.83442L21.8727 1.00599ZM21.1445 2.76396V4.81024H25.1445V2.76396H21.1445ZM21.1445 4.81024C21.1445 5.4696 21.4065 6.10197 21.8727 6.56821L24.7011 3.73978C24.985 4.02369 25.1445 4.40875 25.1445 4.81024H21.1445ZM21.8727 6.56821C22.339 7.03451 22.9714 7.29638 23.6307 7.29638V3.29638C24.0321 3.29638 24.4172 3.45582 24.7011 3.73978L21.8727 6.56821ZM24.1168 5.2501H26.7623V1.2501H24.1168V5.2501ZM24.7623 3.2501V4.38065H28.7623V3.2501H24.7623ZM26.7623 2.38065H24.1168V6.38065H26.7623V2.38065ZM26.1168 4.38065V3.2501H22.1168V4.38065H26.1168Z" fill="black" mask="url(#path-2-inside-2_1046_1924)"/>
<mask id="path-4-inside-3_1046_1924" fill="white">
<path d="M17.4685 5.29638H21.0863C21.2152 5.29638 21.3389 5.24517 21.43 5.154C21.5212 5.06283 21.5724 4.93917 21.5724 4.81024V2.76396C21.5724 2.63503 21.5212 2.51137 21.43 2.4202C21.3389 2.32903 21.2152 2.27783 21.0863 2.27783H17.4685C17.3396 2.27783 17.216 2.32903 17.1248 2.4202C17.0336 2.51137 16.9824 2.63503 16.9824 2.76396V4.81024C16.9824 4.93917 17.0336 5.06283 17.1248 5.154C17.216 5.24517 17.3396 5.29638 17.4685 5.29638ZM17.9547 3.2501H20.6001V4.38065H17.9547V3.2501Z"/>
</mask>
<path d="M17.4685 5.29638H21.0863C21.2152 5.29638 21.3389 5.24517 21.43 5.154C21.5212 5.06283 21.5724 4.93917 21.5724 4.81024V2.76396C21.5724 2.63503 21.5212 2.51137 21.43 2.4202C21.3389 2.32903 21.2152 2.27783 21.0863 2.27783H17.4685C17.3396 2.27783 17.216 2.32903 17.1248 2.4202C17.0336 2.51137 16.9824 2.63503 16.9824 2.76396V4.81024C16.9824 4.93917 17.0336 5.06283 17.1248 5.154C17.216 5.24517 17.3396 5.29638 17.4685 5.29638ZM17.9547 3.2501H20.6001V4.38065H17.9547V3.2501Z" fill="#272525"/>
<path d="M21.0863 5.29638V3.29638V5.29638ZM21.5724 4.81024H23.5724H21.5724ZM21.5724 2.76396H23.5724H21.5724ZM16.9824 2.76396H14.9824H16.9824ZM16.9824 4.81024H14.9824H16.9824ZM17.9547 3.2501V1.2501H15.9547V3.2501H17.9547ZM20.6001 3.2501H22.6001V1.2501H20.6001V3.2501ZM20.6001 4.38065V6.38065H22.6001V4.38065H20.6001ZM17.9547 4.38065H15.9547V6.38065H17.9547V4.38065ZM17.4685 7.29638H21.0863V3.29638H17.4685V7.29638ZM21.0863 7.29638C21.7457 7.29638 22.3781 7.0344 22.8443 6.56821L20.0158 3.73978C20.2997 3.45593 20.6847 3.29638 21.0863 3.29638V7.29638ZM22.8443 6.56821C23.3105 6.10197 23.5724 5.4696 23.5724 4.81024H19.5724C19.5724 4.40875 19.7319 4.02369 20.0158 3.73978L22.8443 6.56821ZM23.5724 4.81024V2.76396H19.5724V4.81024H23.5724ZM23.5724 2.76396C23.5724 2.1046 23.3105 1.47223 22.8443 1.00599L20.0158 3.83442C19.7319 3.55051 19.5724 3.16545 19.5724 2.76396H23.5724ZM22.8443 1.00599C22.3779 0.539669 21.7456 0.277832 21.0863 0.277832V4.27783C20.6849 4.27783 20.2998 4.1184 20.0158 3.83442L22.8443 1.00599ZM21.0863 0.277832H17.4685V4.27783H21.0863V0.277832ZM17.4685 0.277832C16.8093 0.277832 16.1769 0.539669 15.7106 1.00599L18.539 3.83442C18.255 4.1184 17.8699 4.27783 17.4685 4.27783V0.277832ZM15.7106 1.00599C15.2444 1.47223 14.9824 2.1046 14.9824 2.76396H18.9824C18.9824 3.16545 18.8229 3.55051 18.539 3.83442L15.7106 1.00599ZM14.9824 2.76396V4.81024H18.9824V2.76396H14.9824ZM14.9824 4.81024C14.9824 5.4696 15.2444 6.10197 15.7106 6.56821L18.539 3.73978C18.8229 4.02369 18.9824 4.40875 18.9824 4.81024H14.9824ZM15.7106 6.56821C16.1768 7.0344 16.8091 7.29638 17.4685 7.29638V3.29638C17.8701 3.29638 18.2552 3.45593 18.539 3.73978L15.7106 6.56821ZM17.9547 5.2501H20.6001V1.2501H17.9547V5.2501ZM18.6001 3.2501V4.38065H22.6001V3.2501H18.6001ZM20.6001 2.38065H17.9547V6.38065H20.6001V2.38065ZM19.9547 4.38065V3.2501H15.9547V4.38065H19.9547Z" fill="black" mask="url(#path-4-inside-3_1046_1924)"/>
<mask id="path-6-inside-4_1046_1924" fill="white">
<path d="M29.8025 5.29638H33.4203C33.5492 5.29638 33.6729 5.24517 33.764 5.154C33.8552 5.06283 33.9064 4.93917 33.9064 4.81024V2.76396C33.9064 2.63503 33.8552 2.51137 33.764 2.4202C33.6729 2.32903 33.5492 2.27783 33.4203 2.27783H29.8025C29.6736 2.27783 29.55 2.32903 29.4588 2.4202C29.3676 2.51137 29.3164 2.63503 29.3164 2.76396V4.81024C29.3164 4.93917 29.3676 5.06283 29.4588 5.154C29.55 5.24517 29.6736 5.29638 29.8025 5.29638ZM30.2887 3.2501H32.9341V4.38065H30.2887V3.2501Z"/>
</mask>
<path d="M29.8025 5.29638H33.4203C33.5492 5.29638 33.6729 5.24517 33.764 5.154C33.8552 5.06283 33.9064 4.93917 33.9064 4.81024V2.76396C33.9064 2.63503 33.8552 2.51137 33.764 2.4202C33.6729 2.32903 33.5492 2.27783 33.4203 2.27783H29.8025C29.6736 2.27783 29.55 2.32903 29.4588 2.4202C29.3676 2.51137 29.3164 2.63503 29.3164 2.76396V4.81024C29.3164 4.93917 29.3676 5.06283 29.4588 5.154C29.55 5.24517 29.6736 5.29638 29.8025 5.29638ZM30.2887 3.2501H32.9341V4.38065H30.2887V3.2501Z" fill="#272525"/>
<path d="M33.4203 5.29638V3.29638V5.29638ZM33.9064 4.81024H35.9064H33.9064ZM29.3164 2.76396H27.3164H29.3164ZM29.3164 4.81024H27.3164H29.3164ZM30.2887 3.2501V1.2501H28.2887V3.2501H30.2887ZM32.9341 3.2501H34.9341V1.2501H32.9341V3.2501ZM32.9341 4.38065V6.38065H34.9341V4.38065H32.9341ZM30.2887 4.38065H28.2887V6.38065H30.2887V4.38065ZM29.8025 7.29638H33.4203V3.29638H29.8025V7.29638ZM33.4203 7.29638C34.0795 7.29638 34.7119 7.03451 35.1782 6.56821L32.3498 3.73978C32.6338 3.45582 33.0188 3.29638 33.4203 3.29638V7.29638ZM35.1782 6.56821C35.6445 6.10197 35.9064 5.4696 35.9064 4.81024H31.9064C31.9064 4.40875 32.0659 4.02369 32.3498 3.73978L35.1782 6.56821ZM35.9064 4.81024V2.76396H31.9064V4.81024H35.9064ZM35.9064 2.76396C35.9064 2.1046 35.6445 1.47223 35.1782 1.00599L32.3498 3.83442C32.0659 3.55051 31.9064 3.16545 31.9064 2.76396H35.9064ZM35.1782 1.00599C34.7118 0.539562 34.0794 0.277832 33.4203 0.277832V4.27783C33.019 4.27783 32.6339 4.11851 32.3498 3.83442L35.1782 1.00599ZM33.4203 0.277832H29.8025V4.27783H33.4203V0.277832ZM29.8025 0.277832C29.1433 0.277832 28.5109 0.539669 28.0446 1.00599L30.873 3.83442C30.589 4.1184 30.2039 4.27783 29.8025 4.27783V0.277832ZM28.0446 1.00599C27.5783 1.47223 27.3164 2.1046 27.3164 2.76396H31.3164C31.3164 3.16545 31.1569 3.55051 30.873 3.83442L28.0446 1.00599ZM27.3164 2.76396V4.81024H31.3164V2.76396H27.3164ZM27.3164 4.81024C27.3164 5.4696 27.5783 6.10197 28.0446 6.56821L30.873 3.73978C31.1569 4.02369 31.3164 4.40875 31.3164 4.81024H27.3164ZM28.0446 6.56821C28.5108 7.0344 29.1431 7.29638 29.8025 7.29638V3.29638C30.2041 3.29638 30.5892 3.45593 30.873 3.73978L28.0446 6.56821ZM30.2887 5.2501H32.9341V1.2501H30.2887V5.2501ZM30.9341 3.2501V4.38065H34.9341V3.2501H30.9341ZM32.9341 2.38065H30.2887V6.38065H32.9341V2.38065ZM32.2887 4.38065V3.2501H28.2887V4.38065H32.2887Z" fill="black" mask="url(#path-6-inside-4_1046_1924)"/>
<mask id="path-8-inside-5_1046_1924" fill="white">
<path d="M4.8748 5.29638H8.49255C8.62148 5.29638 8.74512 5.24517 8.83629 5.154C8.92746 5.06283 8.97868 4.93917 8.97868 4.81024V2.76396C8.97868 2.63503 8.92746 2.51137 8.83629 2.4202C8.74512 2.32903 8.62148 2.27783 8.49255 2.27783H4.8748C4.74587 2.27783 4.62223 2.32903 4.53106 2.4202C4.43989 2.51137 4.38867 2.63503 4.38867 2.76396V4.81024C4.38867 4.93917 4.43989 5.06283 4.53106 5.154C4.62223 5.24517 4.74587 5.29638 4.8748 5.29638ZM5.36096 3.2501H8.00643V4.38065H5.36096V3.2501Z"/>
</mask>
<path d="M4.8748 5.29638H8.49255C8.62148 5.29638 8.74512 5.24517 8.83629 5.154C8.92746 5.06283 8.97868 4.93917 8.97868 4.81024V2.76396C8.97868 2.63503 8.92746 2.51137 8.83629 2.4202C8.74512 2.32903 8.62148 2.27783 8.49255 2.27783H4.8748C4.74587 2.27783 4.62223 2.32903 4.53106 2.4202C4.43989 2.51137 4.38867 2.63503 4.38867 2.76396V4.81024C4.38867 4.93917 4.43989 5.06283 4.53106 5.154C4.62223 5.24517 4.74587 5.29638 4.8748 5.29638ZM5.36096 3.2501H8.00643V4.38065H5.36096V3.2501Z" fill="#272525"/>
<path d="M8.49255 5.29638V3.29638V5.29638ZM8.97868 4.81024H10.9787H8.97868ZM8.97868 2.76396H10.9787H8.97868ZM4.38867 2.76396H2.38867H4.38867ZM4.38867 4.81024H2.38867H4.38867ZM5.36096 3.2501V1.2501H3.36096V3.2501H5.36096ZM8.00643 3.2501H10.0064V1.2501H8.00643V3.2501ZM8.00643 4.38065V6.38065H10.0064V4.38065H8.00643ZM5.36096 4.38065H3.36096V6.38065H5.36096V4.38065ZM4.8748 7.29638H8.49255V3.29638H4.8748V7.29638ZM8.49255 7.29638C9.15199 7.29638 9.78431 7.0344 10.2505 6.56821L7.42208 3.73978C7.70593 3.45593 8.09098 3.29638 8.49255 3.29638V7.29638ZM10.2505 6.56821C10.7167 6.10197 10.9787 5.4696 10.9787 4.81024H6.97868C6.97868 4.40875 7.13817 4.02369 7.42208 3.73978L10.2505 6.56821ZM10.9787 4.81024V2.76396H6.97868V4.81024H10.9787ZM10.9787 2.76396C10.9787 2.1046 10.7167 1.47223 10.2505 1.00599L7.42208 3.83442C7.13817 3.55051 6.97868 3.16545 6.97868 2.76396H10.9787ZM10.2505 1.00599C9.78418 0.539669 9.1518 0.277832 8.49255 0.277832V4.27783C8.09116 4.27783 7.70606 4.1184 7.42208 3.83442L10.2505 1.00599ZM8.49255 0.277832H4.8748V4.27783H8.49255V0.277832ZM4.8748 0.277832C4.21555 0.277832 3.58317 0.539669 3.11685 1.00599L5.94527 3.83442C5.66129 4.1184 5.27619 4.27783 4.8748 4.27783V0.277832ZM3.11685 1.00599C2.6506 1.47223 2.38867 2.1046 2.38867 2.76396H6.38867C6.38867 3.16545 6.22918 3.55051 5.94527 3.83442L3.11685 1.00599ZM2.38867 2.76396V4.81024H6.38867V2.76396H2.38867ZM2.38867 4.81024C2.38867 5.4696 2.6506 6.10197 3.11685 6.56821L5.94527 3.73978C6.22918 4.02369 6.38867 4.40875 6.38867 4.81024H2.38867ZM3.11685 6.56821C3.58304 7.0344 4.21536 7.29638 4.8748 7.29638V3.29638C5.27637 3.29638 5.66142 3.45593 5.94527 3.73978L3.11685 6.56821ZM5.36096 5.2501H8.00643V1.2501H5.36096V5.2501ZM6.00643 3.2501V4.38065H10.0064V3.2501H6.00643ZM8.00643 2.38065H5.36096V6.38065H8.00643V2.38065ZM7.36096 4.38065V3.2501H3.36096V4.38065H7.36096Z" fill="black" mask="url(#path-8-inside-5_1046_1924)"/>
<mask id="path-10-inside-6_1046_1924" fill="white">
<path d="M11.058 5.29638H14.6644C14.7933 5.29638 14.917 5.24517 15.0082 5.154C15.0993 5.06283 15.1506 4.93917 15.1506 4.81024V2.76396C15.1506 2.63503 15.0993 2.51137 15.0082 2.4202C14.917 2.32903 14.7933 2.27783 14.6644 2.27783H11.058C10.928 2.2778 10.8031 2.32864 10.7102 2.4195C10.6172 2.51035 10.5635 2.634 10.5605 2.76396V4.81024C10.5635 4.9402 10.6172 5.06385 10.7102 5.1547C10.8031 5.24556 10.928 5.29642 11.058 5.29638ZM11.5441 3.2501H14.1783V4.38065H11.5441V3.2501Z"/>
</mask>
<path d="M11.058 5.29638H14.6644C14.7933 5.29638 14.917 5.24517 15.0082 5.154C15.0993 5.06283 15.1506 4.93917 15.1506 4.81024V2.76396C15.1506 2.63503 15.0993 2.51137 15.0082 2.4202C14.917 2.32903 14.7933 2.27783 14.6644 2.27783H11.058C10.928 2.2778 10.8031 2.32864 10.7102 2.4195C10.6172 2.51035 10.5635 2.634 10.5605 2.76396V4.81024C10.5635 4.9402 10.6172 5.06385 10.7102 5.1547C10.8031 5.24556 10.928 5.29642 11.058 5.29638ZM11.5441 3.2501H14.1783V4.38065H11.5441V3.2501Z" fill="#272525"/>
<path d="M14.6644 5.29638V3.29638V5.29638ZM15.1506 4.81024H17.1506H15.1506ZM15.1506 2.76396H17.1506H15.1506ZM11.058 2.27783L11.0574 4.27783H11.058V2.27783ZM10.5605 2.76396L8.56106 2.7185L8.56055 2.74123V2.76396H10.5605ZM10.5605 4.81024H8.56055V4.83297L8.56106 4.8557L10.5605 4.81024ZM11.5441 3.2501V1.2501H9.54411V3.2501H11.5441ZM14.1783 3.2501H16.1783V1.2501H14.1783V3.2501ZM14.1783 4.38065V6.38065H16.1783V4.38065H14.1783ZM11.5441 4.38065H9.54411V6.38065H11.5441V4.38065ZM11.058 7.29638H14.6644V3.29638H11.058V7.29638ZM14.6644 7.29638C15.3237 7.29638 15.9561 7.03451 16.4224 6.56821L13.594 3.73978C13.8779 3.45582 14.263 3.29638 14.6644 3.29638V7.29638ZM16.4224 6.56821C16.8886 6.10197 17.1506 5.4696 17.1506 4.81024H13.1506C13.1506 4.40875 13.31 4.02369 13.594 3.73978L16.4224 6.56821ZM17.1506 4.81024V2.76396H13.1506V4.81024H17.1506ZM17.1506 2.76396C17.1506 2.1046 16.8886 1.47223 16.4224 1.00599L13.594 3.83442C13.31 3.55051 13.1506 3.16545 13.1506 2.76396H17.1506ZM16.4224 1.00599C15.956 0.539562 15.3235 0.277832 14.6644 0.277832V4.27783C14.2632 4.27783 13.878 4.11851 13.594 3.83442L16.4224 1.00599ZM14.6644 0.277832H11.058V4.27783H14.6644V0.277832ZM11.0585 0.277832C10.4058 0.277663 9.77909 0.532954 9.31231 0.989121L12.108 3.84987C11.8272 4.12432 11.4501 4.27793 11.0574 4.27783L11.0585 0.277832ZM9.31231 0.989121C8.84552 1.4453 8.5759 2.06607 8.56106 2.7185L12.56 2.80941C12.5511 3.20193 12.3889 3.5754 12.108 3.84987L9.31231 0.989121ZM8.56055 2.76396V4.81024H12.5605V2.76396H8.56055ZM8.56106 4.8557C8.5759 5.50813 8.84552 6.1289 9.31231 6.58508L12.108 3.72433C12.3889 3.9988 12.5511 4.37227 12.56 4.76479L8.56106 4.8557ZM9.31231 6.58508C9.77896 7.04112 10.4057 7.29655 11.0585 7.29638L11.0574 3.29638C11.4503 3.29628 11.8273 3.45 12.108 3.72433L9.31231 6.58508ZM11.5441 5.2501H14.1783V1.2501H11.5441V5.2501ZM12.1783 3.2501V4.38065H16.1783V3.2501H12.1783ZM14.1783 2.38065H11.5441V6.38065H14.1783V2.38065ZM13.5441 4.38065V3.2501H9.54411V4.38065H13.5441Z" fill="black" mask="url(#path-10-inside-6_1046_1924)"/>
<mask id="path-12-inside-7_1046_1924" fill="white">
<path d="M8.49255 26.9912H4.8748C4.74587 26.9912 4.62223 27.0424 4.53106 27.1336C4.43989 27.2247 4.38867 27.3484 4.38867 27.4773V29.5236C4.38867 29.6525 4.43989 29.7762 4.53106 29.8674C4.62223 29.9585 4.74587 30.0098 4.8748 30.0098H8.49255C8.62148 30.0098 8.74512 29.9585 8.83629 29.8674C8.92746 29.7762 8.97868 29.6525 8.97868 29.5236V27.4773C8.97868 27.3484 8.92746 27.2247 8.83629 27.1336C8.74512 27.0424 8.62148 26.9912 8.49255 26.9912ZM8.00643 29.0375H5.36096V27.9635H8.00643V29.0375Z"/>
</mask>
<path d="M8.49255 26.9912H4.8748C4.74587 26.9912 4.62223 27.0424 4.53106 27.1336C4.43989 27.2247 4.38867 27.3484 4.38867 27.4773V29.5236C4.38867 29.6525 4.43989 29.7762 4.53106 29.8674C4.62223 29.9585 4.74587 30.0098 4.8748 30.0098H8.49255C8.62148 30.0098 8.74512 29.9585 8.83629 29.8674C8.92746 29.7762 8.97868 29.6525 8.97868 29.5236V27.4773C8.97868 27.3484 8.92746 27.2247 8.83629 27.1336C8.74512 27.0424 8.62148 26.9912 8.49255 26.9912ZM8.00643 29.0375H5.36096V27.9635H8.00643V29.0375Z" fill="#272525"/>
<path d="M4.38867 27.4773H2.38867H4.38867ZM4.38867 29.5236H2.38867H4.38867ZM8.49255 30.0098V28.0098V30.0098ZM8.97868 29.5236H10.9787H8.97868ZM8.97868 27.4773H10.9787H8.97868ZM8.00643 29.0375V31.0375H10.0064V29.0375H8.00643ZM5.36096 29.0375H3.36096V31.0375H5.36096V29.0375ZM5.36096 27.9635V25.9635H3.36096V27.9635H5.36096ZM8.00643 27.9635H10.0064V25.9635H8.00643V27.9635ZM8.49255 24.9912H4.8748V28.9912H8.49255V24.9912ZM4.8748 24.9912C4.21555 24.9912 3.58317 25.253 3.11685 25.7194L5.94527 28.5478C5.66129 28.8318 5.27619 28.9912 4.8748 28.9912V24.9912ZM3.11685 25.7194C2.6506 26.1856 2.38867 26.818 2.38867 27.4773H6.38867C6.38867 27.8788 6.22918 28.2639 5.94527 28.5478L3.11685 25.7194ZM2.38867 27.4773V29.5236H6.38867V27.4773H2.38867ZM2.38867 29.5236C2.38867 30.183 2.6506 30.8153 3.11685 31.2816L5.94527 28.4532C6.22918 28.7371 6.38867 29.1221 6.38867 29.5236H2.38867ZM3.11685 31.2816C3.58304 31.7478 4.21536 32.0098 4.8748 32.0098V28.0098C5.27637 28.0098 5.66142 28.1693 5.94527 28.4532L3.11685 31.2816ZM4.8748 32.0098H8.49255V28.0098H4.8748V32.0098ZM8.49255 32.0098C9.15199 32.0098 9.78431 31.7478 10.2505 31.2816L7.42208 28.4532C7.70593 28.1693 8.09098 28.0098 8.49255 28.0098V32.0098ZM10.2505 31.2816C10.7167 30.8153 10.9787 30.183 10.9787 29.5236H6.97868C6.97868 29.1221 7.13817 28.7371 7.42208 28.4532L10.2505 31.2816ZM10.9787 29.5236V27.4773H6.97868V29.5236H10.9787ZM10.9787 27.4773C10.9787 26.818 10.7167 26.1856 10.2505 25.7194L7.42208 28.5478C7.13817 28.2639 6.97868 27.8788 6.97868 27.4773H10.9787ZM10.2505 25.7194C9.78418 25.253 9.1518 24.9912 8.49255 24.9912V28.9912C8.09116 28.9912 7.70606 28.8318 7.42208 28.5478L10.2505 25.7194ZM8.00643 27.0375H5.36096V31.0375H8.00643V27.0375ZM7.36096 29.0375V27.9635H3.36096V29.0375H7.36096ZM5.36096 29.9635H8.00643V25.9635H5.36096V29.9635ZM6.00643 27.9635V29.0375H10.0064V27.9635H6.00643Z" fill="black" mask="url(#path-12-inside-7_1046_1924)"/>
<mask id="path-14-inside-8_1046_1924" fill="white">
<path d="M21.075 26.9909H17.4685C17.3396 26.9909 17.216 27.0421 17.1248 27.1332C17.0336 27.2244 16.9824 27.348 16.9824 27.477V29.5233C16.9824 29.6522 17.0336 29.7758 17.1248 29.867C17.216 29.9582 17.3396 30.0094 17.4685 30.0094H21.0863C21.2152 30.0094 21.3389 29.9582 21.43 29.867C21.5212 29.7758 21.5724 29.6522 21.5724 29.5233V27.477C21.5724 27.4122 21.5595 27.348 21.5344 27.2883C21.5092 27.2286 21.4724 27.1745 21.4261 27.1292C21.3797 27.0839 21.3248 27.0483 21.2645 27.0246C21.2042 27.0008 21.1398 26.9893 21.075 26.9909ZM20.5889 29.0371H17.9434V27.9631H20.5889V29.0371Z"/>
</mask>
<path d="M21.075 26.9909H17.4685C17.3396 26.9909 17.216 27.0421 17.1248 27.1332C17.0336 27.2244 16.9824 27.348 16.9824 27.477V29.5233C16.9824 29.6522 17.0336 29.7758 17.1248 29.867C17.216 29.9582 17.3396 30.0094 17.4685 30.0094H21.0863C21.2152 30.0094 21.3389 29.9582 21.43 29.867C21.5212 29.7758 21.5724 29.6522 21.5724 29.5233V27.477C21.5724 27.4122 21.5595 27.348 21.5344 27.2883C21.5092 27.2286 21.4724 27.1745 21.4261 27.1292C21.3797 27.0839 21.3248 27.0483 21.2645 27.0246C21.2042 27.0008 21.1398 26.9893 21.075 26.9909ZM20.5889 29.0371H17.9434V27.9631H20.5889V29.0371Z" fill="#272525"/>
<path d="M16.9824 27.477H14.9824H16.9824ZM16.9824 29.5233H14.9824H16.9824ZM21.0863 30.0094V28.0094V30.0094ZM21.5724 29.5233H23.5724H21.5724ZM21.5724 27.477L19.5724 27.4764V27.477H21.5724ZM20.5889 29.0371V31.0371H22.5889V29.0371H20.5889ZM17.9434 29.0371H15.9434V31.0371H17.9434V29.0371ZM17.9434 27.9631V25.9631H15.9434V27.9631H17.9434ZM20.5889 27.9631H22.5889V25.9631H20.5889V27.9631ZM21.075 24.9909H17.4685V28.9909H21.075V24.9909ZM17.4685 24.9909C16.8093 24.9909 16.1769 25.2527 15.7106 25.719L18.539 28.5474C18.255 28.8314 17.8699 28.9909 17.4685 28.9909V24.9909ZM15.7106 25.719C15.2444 26.1853 14.9824 26.8176 14.9824 27.477H18.9824C18.9824 27.8785 18.8229 28.2635 18.539 28.5474L15.7106 25.719ZM14.9824 27.477V29.5233H18.9824V27.477H14.9824ZM14.9824 29.5233C14.9824 30.1826 15.2444 30.815 15.7106 31.2812L18.539 28.4528C18.8229 28.7367 18.9824 29.1218 18.9824 29.5233H14.9824ZM15.7106 31.2812C16.1768 31.7474 16.8091 32.0094 17.4685 32.0094V28.0094C17.8701 28.0094 18.2552 28.1689 18.539 28.4528L15.7106 31.2812ZM17.4685 32.0094H21.0863V28.0094H17.4685V32.0094ZM21.0863 32.0094C21.7457 32.0094 22.3781 31.7474 22.8443 31.2812L20.0158 28.4528C20.2997 28.1689 20.6847 28.0094 21.0863 28.0094V32.0094ZM22.8443 31.2812C23.3105 30.815 23.5724 30.1826 23.5724 29.5233H19.5724C19.5724 29.1218 19.7319 28.7367 20.0158 28.4528L22.8443 31.2812ZM23.5724 29.5233V27.477H19.5724V29.5233H23.5724ZM23.5724 27.4775C23.5725 27.1461 23.5064 26.8181 23.3778 26.5126L19.6909 28.064C19.6127 27.878 19.5724 27.6782 19.5724 27.4764L23.5724 27.4775ZM23.3778 26.5126C23.2493 26.2071 23.061 25.9304 22.8239 25.6988L20.0282 28.5595C19.8839 28.4185 19.7692 28.25 19.6909 28.064L23.3778 26.5126ZM22.8239 25.6988C22.5868 25.4671 22.3059 25.2852 21.9976 25.1638L20.5314 28.8853C20.3437 28.8114 20.1726 28.7007 20.0282 28.5595L22.8239 25.6988ZM21.9976 25.1638C21.6893 25.0423 21.3597 24.9837 21.0285 24.9914L21.1215 28.9903C20.9198 28.995 20.7191 28.9593 20.5314 28.8853L21.9976 25.1638ZM20.5889 27.0371H17.9434V31.0371H20.5889V27.0371ZM19.9434 29.0371V27.9631H15.9434V29.0371H19.9434ZM17.9434 29.9631H20.5889V25.9631H17.9434V29.9631ZM18.5889 27.9631V29.0371H22.5889V27.9631H18.5889Z" fill="black" mask="url(#path-14-inside-8_1046_1924)"/>
<mask id="path-16-inside-9_1046_1924" fill="white">
<path d="M29.3164 27.4773V29.5236C29.3164 29.6525 29.3676 29.7762 29.4588 29.8674C29.55 29.9585 29.6736 30.0098 29.8025 30.0098H33.4203C33.5492 30.0098 33.6729 29.9585 33.764 29.8674C33.8552 29.7762 33.9064 29.6525 33.9064 29.5236V27.4773C33.9064 27.3484 33.8552 27.2247 33.764 27.1336C33.6729 27.0424 33.5492 26.9912 33.4203 26.9912H29.8025C29.6736 26.9912 29.55 27.0424 29.4588 27.1336C29.3676 27.2247 29.3164 27.3484 29.3164 27.4773ZM32.9341 29.0375H30.2887V27.9635H32.9341V29.0375Z"/>
</mask>
<path d="M29.3164 27.4773V29.5236C29.3164 29.6525 29.3676 29.7762 29.4588 29.8674C29.55 29.9585 29.6736 30.0098 29.8025 30.0098H33.4203C33.5492 30.0098 33.6729 29.9585 33.764 29.8674C33.8552 29.7762 33.9064 29.6525 33.9064 29.5236V27.4773C33.9064 27.3484 33.8552 27.2247 33.764 27.1336C33.6729 27.0424 33.5492 26.9912 33.4203 26.9912H29.8025C29.6736 26.9912 29.55 27.0424 29.4588 27.1336C29.3676 27.2247 29.3164 27.3484 29.3164 27.4773ZM32.9341 29.0375H30.2887V27.9635H32.9341V29.0375Z" fill="#272525"/>
<path d="M29.3164 29.5236H27.3164H29.3164ZM33.4203 30.0098V28.0098V30.0098ZM33.9064 29.5236H35.9064H33.9064ZM32.9341 29.0375V31.0375H34.9341V29.0375H32.9341ZM30.2887 29.0375H28.2887V31.0375H30.2887V29.0375ZM30.2887 27.9635V25.9635H28.2887V27.9635H30.2887ZM32.9341 27.9635H34.9341V25.9635H32.9341V27.9635ZM27.3164 27.4773V29.5236H31.3164V27.4773H27.3164ZM27.3164 29.5236C27.3164 30.183 27.5783 30.8153 28.0446 31.2816L30.873 28.4532C31.1569 28.7371 31.3164 29.1221 31.3164 29.5236H27.3164ZM28.0446 31.2816C28.5108 31.7478 29.1431 32.0098 29.8025 32.0098V28.0098C30.2041 28.0098 30.5892 28.1693 30.873 28.4532L28.0446 31.2816ZM29.8025 32.0098H33.4203V28.0098H29.8025V32.0098ZM33.4203 32.0098C34.0795 32.0098 34.7119 31.7479 35.1782 31.2816L32.3498 28.4532C32.6338 28.1692 33.0188 28.0098 33.4203 28.0098V32.0098ZM35.1782 31.2816C35.6445 30.8153 35.9064 30.183 35.9064 29.5236H31.9064C31.9064 29.1221 32.0659 28.7371 32.3498 28.4532L35.1782 31.2816ZM35.9064 29.5236V27.4773H31.9064V29.5236H35.9064ZM35.9064 27.4773C35.9064 26.818 35.6445 26.1856 35.1782 25.7194L32.3498 28.5478C32.0659 28.2639 31.9064 27.8788 31.9064 27.4773H35.9064ZM35.1782 25.7194C34.7118 25.2529 34.0794 24.9912 33.4203 24.9912V28.9912C33.019 28.9912 32.6339 28.8319 32.3498 28.5478L35.1782 25.7194ZM33.4203 24.9912H29.8025V28.9912H33.4203V24.9912ZM29.8025 24.9912C29.1433 24.9912 28.5109 25.253 28.0446 25.7194L30.873 28.5478C30.589 28.8318 30.2039 28.9912 29.8025 28.9912V24.9912ZM28.0446 25.7194C27.5783 26.1856 27.3164 26.818 27.3164 27.4773H31.3164C31.3164 27.8788 31.1569 28.2639 30.873 28.5478L28.0446 25.7194ZM32.9341 27.0375H30.2887V31.0375H32.9341V27.0375ZM32.2887 29.0375V27.9635H28.2887V29.0375H32.2887ZM30.2887 29.9635H32.9341V25.9635H30.2887V29.9635ZM30.9341 27.9635V29.0375H34.9341V27.9635H30.9341Z" fill="black" mask="url(#path-16-inside-9_1046_1924)"/>
<mask id="path-18-inside-10_1046_1924" fill="white">
<path d="M14.6644 26.9912H11.058C10.928 26.9912 10.8031 27.042 10.7102 27.1329C10.6172 27.2237 10.5635 27.3474 10.5605 27.4773V29.5236C10.5635 29.6536 10.6172 29.7772 10.7102 29.8681C10.8031 29.9589 10.928 30.0098 11.058 30.0098H14.6644C14.7933 30.0098 14.917 29.9585 15.0082 29.8674C15.0993 29.7762 15.1506 29.6525 15.1506 29.5236V27.4773C15.1506 27.3484 15.0993 27.2247 15.0082 27.1336C14.917 27.0424 14.7933 26.9912 14.6644 26.9912ZM14.1783 29.0375H11.5441V27.9635H14.1783V29.0375Z"/>
</mask>
<path d="M14.6644 26.9912H11.058C10.928 26.9912 10.8031 27.042 10.7102 27.1329C10.6172 27.2237 10.5635 27.3474 10.5605 27.4773V29.5236C10.5635 29.6536 10.6172 29.7772 10.7102 29.8681C10.8031 29.9589 10.928 30.0098 11.058 30.0098H14.6644C14.7933 30.0098 14.917 29.9585 15.0082 29.8674C15.0993 29.7762 15.1506 29.6525 15.1506 29.5236V27.4773C15.1506 27.3484 15.0993 27.2247 15.0082 27.1336C14.917 27.0424 14.7933 26.9912 14.6644 26.9912ZM14.1783 29.0375H11.5441V27.9635H14.1783V29.0375Z" fill="#272525"/>
<path d="M11.058 26.9912L11.0574 28.9912H11.058V26.9912ZM10.5605 27.4773L8.56106 27.4319L8.56055 27.4546V27.4773H10.5605ZM10.5605 29.5236H8.56055V29.5463L8.56106 29.5691L10.5605 29.5236ZM11.058 30.0098V28.0098L11.0574 28.0098L11.058 30.0098ZM14.6644 30.0098V28.0098V30.0098ZM15.1506 29.5236H17.1506H15.1506ZM15.1506 27.4773H17.1506H15.1506ZM14.1783 29.0375V31.0375H16.1783V29.0375H14.1783ZM11.5441 29.0375H9.54411V31.0375H11.5441V29.0375ZM11.5441 27.9635V25.9635H9.54411V27.9635H11.5441ZM14.1783 27.9635H16.1783V25.9635H14.1783V27.9635ZM14.6644 24.9912H11.058V28.9912H14.6644V24.9912ZM11.0585 24.9912C10.4058 24.991 9.77909 25.2463 9.31231 25.7025L12.108 28.5632C11.8272 28.8377 11.4501 28.9913 11.0574 28.9912L11.0585 24.9912ZM9.31231 25.7025C8.84552 26.1587 8.5759 26.7794 8.56106 27.4319L12.56 27.5228C12.5511 27.9153 12.3889 28.2888 12.108 28.5632L9.31231 25.7025ZM8.56055 27.4773V29.5236H12.5605V27.4773H8.56055ZM8.56106 29.5691C8.5759 30.2215 8.84552 30.8423 9.31231 31.2985L12.108 28.4377C12.3889 28.7122 12.5511 29.0856 12.56 29.4782L8.56106 29.5691ZM9.31231 31.2985C9.77896 31.7545 10.4057 32.0099 11.0585 32.0098L11.0574 28.0098C11.4503 28.0097 11.8273 28.1634 12.108 28.4377L9.31231 31.2985ZM11.058 32.0098H14.6644V28.0098H11.058V32.0098ZM14.6644 32.0098C15.3237 32.0098 15.9561 31.7479 16.4224 31.2816L13.594 28.4532C13.8779 28.1692 14.263 28.0098 14.6644 28.0098V32.0098ZM16.4224 31.2816C16.8886 30.8153 17.1506 30.183 17.1506 29.5236H13.1506C13.1506 29.1221 13.31 28.7371 13.594 28.4532L16.4224 31.2816ZM17.1506 29.5236V27.4773H13.1506V29.5236H17.1506ZM17.1506 27.4773C17.1506 26.818 16.8886 26.1856 16.4224 25.7194L13.594 28.5478C13.31 28.2639 13.1506 27.8788 13.1506 27.4773H17.1506ZM16.4224 25.7194C15.956 25.2529 15.3235 24.9912 14.6644 24.9912V28.9912C14.2632 28.9912 13.878 28.8319 13.594 28.5478L16.4224 25.7194ZM14.1783 27.0375H11.5441V31.0375H14.1783V27.0375ZM13.5441 29.0375V27.9635H9.54411V29.0375H13.5441ZM11.5441 29.9635H14.1783V25.9635H11.5441V29.9635ZM12.1783 27.9635V29.0375H16.1783V27.9635H12.1783Z" fill="black" mask="url(#path-18-inside-10_1046_1924)"/>
<mask id="path-20-inside-11_1046_1924" fill="white">
<path d="M27.2484 26.9912H23.6307C23.5018 26.9912 23.3781 27.0424 23.2869 27.1336C23.1958 27.2247 23.1445 27.3484 23.1445 27.4773V29.5236C23.1445 29.6525 23.1958 29.7762 23.2869 29.8674C23.3781 29.9585 23.5018 30.0098 23.6307 30.0098H27.2484C27.3773 30.0098 27.501 29.9585 27.5922 29.8674C27.6834 29.7762 27.7345 29.6525 27.7345 29.5236V27.4773C27.7345 27.3484 27.6834 27.2247 27.5922 27.1336C27.501 27.0424 27.3773 26.9912 27.2484 26.9912ZM26.7623 29.0375H24.1168V27.9635H26.7623V29.0375Z"/>
</mask>
<path d="M27.2484 26.9912H23.6307C23.5018 26.9912 23.3781 27.0424 23.2869 27.1336C23.1958 27.2247 23.1445 27.3484 23.1445 27.4773V29.5236C23.1445 29.6525 23.1958 29.7762 23.2869 29.8674C23.3781 29.9585 23.5018 30.0098 23.6307 30.0098H27.2484C27.3773 30.0098 27.501 29.9585 27.5922 29.8674C27.6834 29.7762 27.7345 29.6525 27.7345 29.5236V27.4773C27.7345 27.3484 27.6834 27.2247 27.5922 27.1336C27.501 27.0424 27.3773 26.9912 27.2484 26.9912ZM26.7623 29.0375H24.1168V27.9635H26.7623V29.0375Z" fill="#272525"/>
<path d="M23.1445 27.4773H21.1445H23.1445ZM23.1445 29.5236H21.1445H23.1445ZM27.2484 30.0098V28.0098V30.0098ZM27.7345 29.5236H29.7345H27.7345ZM26.7623 29.0375V31.0375H28.7623V29.0375H26.7623ZM24.1168 29.0375H22.1168V31.0375H24.1168V29.0375ZM24.1168 27.9635V25.9635H22.1168V27.9635H24.1168ZM26.7623 27.9635H28.7623V25.9635H26.7623V27.9635ZM27.2484 24.9912H23.6307V28.9912H27.2484V24.9912ZM23.6307 24.9912C22.9716 24.9912 22.3391 25.2529 21.8727 25.7194L24.7011 28.5478C24.417 28.8319 24.0319 28.9912 23.6307 28.9912V24.9912ZM21.8727 25.7194C21.4065 26.1856 21.1445 26.818 21.1445 27.4773H25.1445C25.1445 27.8788 24.985 28.2639 24.7011 28.5478L21.8727 25.7194ZM21.1445 27.4773V29.5236H25.1445V27.4773H21.1445ZM21.1445 29.5236C21.1445 30.183 21.4065 30.8153 21.8727 31.2816L24.7011 28.4532C24.985 28.7371 25.1445 29.1221 25.1445 29.5236H21.1445ZM21.8727 31.2816C22.339 31.7479 22.9714 32.0098 23.6307 32.0098V28.0098C24.0321 28.0098 24.4172 28.1692 24.7011 28.4532L21.8727 31.2816ZM23.6307 32.0098H27.2484V28.0098H23.6307V32.0098ZM27.2484 32.0098C27.9077 32.0098 28.5401 31.7479 29.0064 31.2816L26.178 28.4532C26.4619 28.1692 26.847 28.0098 27.2484 28.0098V32.0098ZM29.0064 31.2816C29.4729 30.8151 29.7345 30.1826 29.7345 29.5236H25.7345C25.7345 29.1225 25.8938 28.7373 26.178 28.4532L29.0064 31.2816ZM29.7345 29.5236V27.4773H25.7345V29.5236H29.7345ZM29.7345 27.4773C29.7345 26.8183 29.4729 26.1859 29.0064 25.7194L26.178 28.5478C25.8938 28.2636 25.7345 27.8785 25.7345 27.4773H29.7345ZM29.0064 25.7194C28.54 25.2529 27.9075 24.9912 27.2484 24.9912V28.9912C26.8472 28.9912 26.4621 28.8319 26.178 28.5478L29.0064 25.7194ZM26.7623 27.0375H24.1168V31.0375H26.7623V27.0375ZM26.1168 29.0375V27.9635H22.1168V29.0375H26.1168ZM24.1168 29.9635H26.7623V25.9635H24.1168V29.9635ZM24.7623 27.9635V29.0375H28.7623V27.9635H24.7623Z" fill="black" mask="url(#path-20-inside-11_1046_1924)"/>
<mask id="path-22-inside-12_1046_1924" fill="white">
<path d="M26.1287 15.403L15.8859 8.49542C15.8086 8.45077 15.7209 8.42725 15.6316 8.42725C15.5423 8.42725 15.4545 8.45077 15.3772 8.49542C15.2996 8.53753 15.2347 8.59951 15.189 8.675C15.1433 8.7505 15.1185 8.83678 15.1172 8.92502V22.7516C15.1197 22.8396 15.1449 22.9254 15.1905 23.0007C15.236 23.076 15.3004 23.1382 15.3772 23.1812C15.4517 23.2158 15.5325 23.235 15.6146 23.2377C15.7117 23.2335 15.8057 23.2022 15.8859 23.1473L26.1287 16.2396C26.1964 16.1968 26.2522 16.1376 26.2908 16.0674C26.3295 15.9972 26.3498 15.9184 26.3498 15.8383C26.3498 15.7582 26.3295 15.6794 26.2908 15.6092C26.2522 15.539 26.1964 15.4798 26.1287 15.437V15.403ZM16.1008 21.8019V9.80684L24.9868 15.7987L16.1008 21.8019Z"/>
</mask>
<path d="M26.1287 15.403L15.8859 8.49542C15.8086 8.45077 15.7209 8.42725 15.6316 8.42725C15.5423 8.42725 15.4545 8.45077 15.3772 8.49542C15.2996 8.53753 15.2347 8.59951 15.189 8.675C15.1433 8.7505 15.1185 8.83678 15.1172 8.92502V22.7516C15.1197 22.8396 15.1449 22.9254 15.1905 23.0007C15.236 23.076 15.3004 23.1382 15.3772 23.1812C15.4517 23.2158 15.5325 23.235 15.6146 23.2377C15.7117 23.2335 15.8057 23.2022 15.8859 23.1473L26.1287 16.2396C26.1964 16.1968 26.2522 16.1376 26.2908 16.0674C26.3295 15.9972 26.3498 15.9184 26.3498 15.8383C26.3498 15.7582 26.3295 15.6794 26.2908 15.6092C26.2522 15.539 26.1964 15.4798 26.1287 15.437V15.403ZM16.1008 21.8019V9.80684L24.9868 15.7987L16.1008 21.8019Z" fill="#272525"/>
<path d="M26.1287 15.403H28.1287V14.3395L27.2469 13.7449L26.1287 15.403ZM15.8859 8.49542L17.0042 6.83726L16.9464 6.79825L16.8859 6.76337L15.8859 8.49542ZM15.6316 8.42725V10.4272V8.42725ZM15.3772 8.49542L16.3315 10.2531L16.3545 10.2406L16.3772 10.2275L15.3772 8.49542ZM15.1172 8.92502L13.1174 8.89465L13.1172 8.90983V8.92502H15.1172ZM15.1172 22.7516H13.1172V22.7797L13.118 22.8078L15.1172 22.7516ZM15.3772 23.1812L14.4002 24.9263L14.466 24.9632L14.5344 24.9949L15.3772 23.1812ZM15.6146 23.2377L15.5496 25.2367L15.6253 25.2391L15.7009 25.2358L15.6146 23.2377ZM15.8859 23.1473L14.7677 21.4891L14.7561 21.497L15.8859 23.1473ZM26.1287 16.2396L25.0599 14.5492L25.0349 14.565L25.0104 14.5815L26.1287 16.2396ZM26.1287 15.437H24.1287V16.5387L25.0599 17.1274L26.1287 15.437ZM16.1008 21.8019H14.1008V25.5667L17.2204 23.4592L16.1008 21.8019ZM16.1008 9.80684L17.2189 8.14861L14.1008 6.04603V9.80684H16.1008ZM24.9868 15.7987L26.1064 17.456L28.5618 15.7972L26.105 14.1405L24.9868 15.7987ZM27.2469 13.7449L17.0042 6.83726L14.7677 10.1536L25.0104 17.0612L27.2469 13.7449ZM16.8859 6.76337C16.5048 6.54329 16.0722 6.42725 15.6316 6.42725V10.4272C15.3696 10.4272 15.1125 10.3583 14.8859 10.2275L16.8859 6.76337ZM15.6316 6.42725C15.191 6.42725 14.7584 6.54329 14.3772 6.76337L16.3772 10.2275C16.1507 10.3583 15.8936 10.4272 15.6316 10.4272V6.42725ZM14.4229 6.73779C14.0336 6.94916 13.7074 7.26031 13.478 7.6394L16.9 9.71061C16.7619 9.9387 16.5657 10.1259 16.3315 10.2531L14.4229 6.73779ZM13.478 7.6394C13.2484 8.01872 13.1241 8.452 13.1174 8.89465L17.117 8.95538C17.1129 9.22156 17.0382 9.48227 16.9 9.71061L13.478 7.6394ZM13.1172 8.92502V22.7516H17.1172V8.92502H13.1172ZM13.118 22.8078C13.1302 23.2413 13.2545 23.6646 13.4795 24.0363L16.9015 21.9651C17.0353 22.1862 17.1092 22.4379 17.1164 22.6953L13.118 22.8078ZM13.4795 24.0363C13.7043 24.4078 14.0216 24.7144 14.4002 24.9263L16.3542 21.436C16.5791 21.562 16.7678 21.7442 16.9015 21.9651L13.4795 24.0363ZM14.5344 24.9949C14.853 25.143 15.1983 25.2252 15.5496 25.2367L15.6796 21.2388C15.8666 21.2449 16.0504 21.2886 16.22 21.3674L14.5344 24.9949ZM15.7009 25.2358C16.1715 25.2155 16.627 25.0637 17.0158 24.7976L14.7561 21.497C14.9845 21.3406 15.252 21.2515 15.5283 21.2396L15.7009 25.2358ZM17.0042 24.8054L27.2469 17.8978L25.0104 14.5815L14.7677 21.4891L17.0042 24.8054ZM27.1975 17.9301C27.5503 17.707 27.8411 17.3982 28.0426 17.0324L24.539 15.1024C24.6633 14.8769 24.8425 14.6866 25.0599 14.5492L27.1975 17.9301ZM28.0426 17.0324C28.2441 16.6667 28.3498 16.2559 28.3498 15.8383H24.3498C24.3498 15.581 24.4149 15.3278 24.539 15.1024L28.0426 17.0324ZM28.3498 15.8383C28.3498 15.4207 28.2441 15.0099 28.0426 14.6442L24.539 16.5742C24.4149 16.3488 24.3498 16.0956 24.3498 15.8383H28.3498ZM28.0426 14.6442C27.8411 14.2784 27.5503 13.9696 27.1975 13.7465L25.0599 17.1274C24.8425 16.99 24.6633 16.7997 24.539 16.5742L28.0426 14.6442ZM28.1287 15.437V15.403H24.1287V15.437H28.1287ZM18.1008 21.8019V9.80684H14.1008V21.8019H18.1008ZM14.9826 11.4651L23.8687 17.457L26.105 14.1405L17.2189 8.14861L14.9826 11.4651ZM23.8672 14.1415L14.9812 20.1447L17.2204 23.4592L26.1064 17.456L23.8672 14.1415Z" fill="black" mask="url(#path-22-inside-12_1046_1924)"/>
</svg>
