<?xml version="1.0" encoding="UTF-8" standalone="no"?><!DOCTYPE svg PUBLIC "-//W3C//DTD SVG 1.1//EN" "http://www.w3.org/Graphics/SVG/1.1/DTD/svg11.dtd"><svg width="100%" height="100%" viewBox="0 0 3165 588" version="1.1" xmlns="http://www.w3.org/2000/svg" xmlns:xlink="http://www.w3.org/1999/xlink" xml:space="preserve" xmlns:serif="http://www.serif.com/" style="fill-rule:evenodd;clip-rule:evenodd;stroke-linejoin:round;stroke-miterlimit:2;"><path d="M3164.68,0l-3164.68,0l148.356,293.769l-148.356,293.762l3164.68,0l-148.356,-293.762l148.356,-293.769Z" style="fill:#f9bd82;fill-rule:nonzero;"/><rect x="418.374" y="261.141" width="332.257" height="56.484" style="fill:#fff;fill-rule:nonzero;"/><path d="M1108.56,235.919l-26.381,-0c5.704,-29.485 11.051,-58.26 14.26,-79.575c0.713,-2.842 1.426,-6.394 1.782,-9.236l-24.242,-4.263l-10.695,0.71l-120.497,0l0,42.63l-42.066,-18.828c-7.843,16.696 -18.182,35.524 -29.946,53.997c-2.139,-2.842 -4.635,-6.039 -7.13,-8.881c12.121,-19.183 26.381,-45.116 34.58,-64.3c5.348,0 9.269,-1.421 10.695,-3.907l-49.553,-19.894c-5.704,17.762 -14.617,40.143 -23.886,59.326l-6.06,-5.329l-24.242,35.525c13.903,13.499 29.589,31.261 39.571,46.892c-4.634,6.395 -9.269,12.434 -13.903,18.473l-25.668,-0l9.269,50.445c2.852,-0.356 6.06,-1.777 7.13,-5.684c10.695,-0.356 23.529,-1.421 37.432,-2.132l0,23.446l-40.997,-9.236c-2.139,29.485 -6.774,62.878 -14.973,82.417c10.338,4.263 26.737,11.368 36.006,17.407c9.626,-21.67 16.043,-55.774 18.895,-84.548l1.069,-0l0,110.126l44.919,-0l0,-97.338c5.348,16.697 10.695,34.814 13.191,47.603l22.815,-8.526c-4.634,10.658 -10.338,19.894 -16.755,28.065c11.408,6.749 30.302,22.025 38.145,30.196c8.556,-11.368 15.686,-24.157 21.747,-38.367c10.695,8.171 27.094,26.288 33.511,36.946c16.399,-9.237 31.372,-20.96 45.275,-34.814c15.686,14.92 34.581,27.353 57.04,36.945c6.774,-13.144 21.034,-32.683 31.372,-41.919c-22.816,-8.171 -41.71,-19.183 -57.753,-33.038c23.173,-35.879 40.285,-80.285 50.267,-132.506c2.139,-1.776 4.278,-4.618 4.991,-7.105l-31.016,-13.144l-8.199,1.421Zm-204.631,82.594l11.765,-1.065c1.782,6.039 2.852,11.368 3.565,16.341l39.571,-17.407c-3.922,-21.315 -17.469,-52.902 -30.659,-77.009l-31.728,13.117c15.329,-20.562 29.946,-41.834 40.64,-59.56c3.922,0 6.774,-0.709 8.913,-2.127l22.816,-0c-0.357,70.55 -3.922,135.171 -18.182,184.194c-4.278,-13.144 -9.269,-26.998 -13.903,-39.077l-32.798,10.658l0,-28.065Zm139.391,-127.71c-4.634,25.88 -10.338,56.015 -15.686,82.604c-4.991,-17.372 -8.912,-36.161 -11.764,-56.015c0.356,-8.863 0.356,-17.726 0.713,-26.589l26.737,-0Zm-167.198,87.568c5.348,-6.737 11.052,-13.827 16.756,-21.272c3.208,6.736 6.417,13.826 9.269,20.917l-26.025,0.355Zm194.649,13.321l2.139,-9.946l15.329,-0c-6.773,25.577 -16.399,48.313 -28.163,67.851c-12.121,-18.472 -21.39,-39.432 -28.52,-62.523l39.215,4.618Zm-86.986,129.665c9.982,-23.802 17.112,-51.866 22.103,-82.772c6.773,17.762 14.973,34.103 24.242,49.024c-13.547,13.499 -29.233,24.867 -46.345,33.748Z" style="fill:#fff;fill-rule:nonzero;"/><path d="M1504.98,356.68l-0,-45.782l-111.228,-0l-0,-32.017l135.47,0l-0,-47.558l-135.47,-0l-0,-26.688l106.593,0l0,-47.203l-106.593,0l-0,-22.403c7.486,-1.065 10.338,-3.552 10.695,-7.46l-64.17,-3.552l-0,33.415l-100.176,0l-0,47.203l100.176,0l-0,26.688l-132.261,-0l-0,47.558l132.261,0l-0,108.377c-16.756,-9.6 -30.659,-23.467 -41.354,-42.999c3.565,-13.487 6.417,-26.263 8.556,-38.341c5.347,-0.356 8.912,-2.846 9.625,-6.404l-62.387,-9.605c-5.347,48.671 -20.677,108.015 -58.109,138.201c11.051,7.099 30.659,23.78 39.571,33.723c19.251,-16.331 33.867,-39.402 44.919,-64.62c38.502,48.289 93.403,59.646 161.494,59.646l78.43,0c2.852,-14.552 10.695,-38.332 17.825,-49.69c-17.112,0.355 -49.197,0.711 -72.369,0.711c-39.572,-0 -55.258,-0.711 -72.726,-3.2l-0,-48l111.228,0Z" style="fill:#fff;fill-rule:nonzero;"/><path d="M1786.26,395.757l100.533,-0l-0,-42.94l-100.533,-0l0,-11.738c7.487,-1.042 10.339,-3.473 10.695,-7.294l-6.417,-0.351c16.756,-16.267 26.738,-37.133 32.442,-58.816l39.593,0l0,17.43c0,3.92 -1.428,5.351 -5.711,5.351c-3.936,-0 -17.845,-0 -28.556,-0.716c5.711,12.427 11.782,31.946 13.568,45.077c52.042,-0 69.139,-7.098 69.139,-48.647l-0,-156.64l-128.652,-0l-0,73.871c-0,25.241 -2.142,55.049 -19.273,80.283l-0,-67.141c6.424,-1.066 9.279,-3.198 9.636,-6.75l-51.007,-2.842l0,33.393l-13.553,-0l0,-38.722l66.332,0l-0,-40.143l-34.937,0c5.704,-9.236 11.051,-19.538 15.329,-27.709c5.348,-0.355 8.2,-1.776 9.626,-4.618l-52.064,-12.078c-3.928,13.144 -11.052,30.906 -17.463,44.405l-19.945,0c-3.205,-12.788 -11.04,-30.906 -18.903,-44.405l-37.779,14.21c4.63,8.881 8.903,20.249 12.464,30.195l-32.773,0l-0,40.143l64.526,0l0,38.722l-13.591,-0l-0,-24.157c6.438,-1.066 9.299,-3.197 9.657,-6.394l-50.254,-2.842l0,83.483l40.597,0l-0,-11.724l12.161,0c-3.577,13.501 -14.654,23.097 -48.484,30.204c8.902,7.108 24.927,26.654 30.269,36.249c47.781,-12.083 61.671,-37.315 64.52,-66.453l14.265,0l0,8.526l38.875,0c-5.349,7.108 -11.769,13.504 -19.972,19.546c8.203,3.909 21.042,11.727 31.034,18.835l-38.869,-2.132l0,22.389l-98.044,-0l0,42.94l98.044,-0l0,15.32l-135.091,-0l0,44.361l325.796,0l0,-44.361l-137.23,-0l0,-15.32Zm76.313,-207.419l-32.842,0l-0,-10.701l32.842,-0l0,10.701Zm0,36.546l0,11.412l-33.555,0c0,-3.923 0.356,-7.489 0.356,-11.412l33.199,0Z" style="fill:#fff;fill-rule:nonzero;"/><path d="M2191.6,135.385c7.487,-1.421 10.339,-3.908 10.695,-7.816l-64.882,-3.552l-0,39.099l-125.488,-0l-0,88.449c-0,52.203 -2.139,128.577 -32.085,179.734c12.121,5.324 35.293,20.587 44.919,29.113c33.154,-56.796 39.215,-149.529 39.215,-208.847l-0,-39.47l254.184,0l-0,-48.979l-126.558,-0l0,-27.731Zm-38.145,80.508l0,105.662l-74.508,0l-0,139.567l50.623,0l-0,-12.078l111.584,-0l-0,12.078l53.118,0l0,-139.567l-88.055,0l-0,-31.661l106.95,-0l-0,-45.427l-106.95,0l-0,-17.429c7.486,-1.086 10.695,-3.62 11.051,-7.963l-63.813,-3.182Zm-23.885,188.079l-0,-37.345l111.584,-0l-0,37.345l-111.584,0Z" style="fill:#fff;fill-rule:nonzero;"/><path d="M2715.28,176.97l-19.954,0l18.528,-21.681c-9.98,-10.307 -30.637,-23.145 -46.665,-31.095l-26.055,29.674c11.434,6.042 24.274,14.928 34.247,23.102l-36.748,0l-0,-42.651c7.146,-1.45 10.005,-3.625 10.362,-7.25l-57.019,-3.23l0,53.131l-67.738,0c-12.131,-11.729 -31.041,-25.235 -47.81,-36.253l0.714,-1.067c5.351,-0.355 8.206,-2.488 9.276,-6.056l-55.582,-9.755c-11.762,28.962 -32.439,64.843 -59.89,92.88c8.913,6.056 21.747,18.489 29.946,28.792l0,11.723l27.094,-0l0,19.538l-44.919,0l0,43.34l44.919,0l0,46.182c-2.852,-13.499 -7.13,-29.13 -11.764,-42.274l-33.155,9.236c5.704,18.828 11.408,43.34 13.191,59.681l31.728,-9.947l0,9.947c-19.607,2.132 -37.432,4.263 -52.049,5.684l13.904,52.576c3.208,-0.71 6.417,-2.842 7.13,-6.394c31.372,-4.618 79.811,-12.434 126.513,-20.604l-2.496,-42.63l-18.181,2.132c5.704,-12.434 11.764,-30.906 14.973,-43.695c4.991,-0 8.199,-1.421 9.625,-3.908l-43.448,-13.144c-1.827,13.855 -6.462,33.038 -10.383,47.248l-0,-50.09l42.78,0l-0,-43.34l-42.78,0l-0,-19.538l31.75,-0l0,-34.125l15.701,-24.134l0,23.778l70.951,-0l0,22.069l-63.1,0l-0,216.3l44.874,0l0,-64.299l18.226,-0l0,64.654l46.657,0l-0,-64.654l19.652,-0l-0,12.466c-0,3.206 -0.715,4.275 -3.573,4.275c-2.501,-0 -8.576,-0 -13.935,-0.357c6.074,12.779 12.148,33.719 13.578,47.56c46.314,0 51.656,-19.875 51.656,-50.053l0,-165.892l-67.378,0l-0,-22.069l76.647,-0l0,-45.783Zm-123.304,124.336l-18.226,0l0,-13.543l18.226,-0l0,13.543Zm66.309,0l-19.652,0l-0,-13.543l19.652,-0l-0,13.543Zm-84.535,38.322l18.226,0l0,14.254l-18.226,0l0,-14.254Zm64.883,0l19.652,0l-0,14.254l-19.652,0l-0,-14.254Zm-204.592,-125.024c7.835,-11.012 14.602,-21.67 20.657,-32.682c13.533,10.302 27.798,22.38 38.505,32.682l-59.162,0Zm39.533,173.005l-0,-12.079l24.62,8.881l-24.62,3.198Z" style="fill:#fff;fill-rule:nonzero;"/></svg>