<svg clip-rule="evenodd" fill-rule="evenodd" stroke-linejoin="round" stroke-miterlimit="2" viewBox="0 0 3165 588" xmlns="http://www.w3.org/2000/svg"><g fill-rule="nonzero"><path d="m3164.68 0h-3164.68l148.356 293.769-148.356 293.762h3164.68l-148.362-293.762 148.362-293.769z" fill="#f9bd82"/><g fill="#fff"><path d="m454.378 227.038h260.244v-55.063h-260.244zm-29.59 198.937h319.424v-55.063h-319.424z"/><path d="m1108.55 235.919h-26.381c5.704-29.485 11.051-58.26 14.26-79.575.713-2.842 1.426-6.394 1.782-9.236l-24.242-4.263-10.695.71h-120.497v42.63l-42.067-18.828c-7.843 16.696-18.181 35.524-29.946 53.997-2.139-2.842-4.634-6.039-7.129-8.881 12.12-19.183 26.38-45.116 34.58-64.3 5.347 0 9.269-1.421 10.695-3.907l-49.553-19.894c-5.704 17.762-14.617 40.143-23.886 59.326l-6.06-5.329-24.242 35.525c13.903 13.499 29.589 31.261 39.571 46.892-4.634 6.395-9.269 12.434-13.903 18.473h-25.668l9.269 50.445c2.852-.356 6.06-1.777 7.13-5.684 10.695-.356 23.529-1.421 37.432-2.132v23.446l-40.997-9.236c-2.139 29.485-6.774 62.878-14.973 82.417 10.338 4.263 26.737 11.368 36.006 17.407 9.626-21.67 16.043-55.774 18.895-84.548h1.069v110.126h44.919v-97.338c5.347 16.697 10.695 34.814 13.19 47.603l22.816-8.526c-4.634 10.658-10.338 19.894-16.755 28.065 11.408 6.749 30.302 22.025 38.145 30.196 8.556-11.368 15.686-24.157 21.747-38.367 10.695 8.171 27.094 26.288 33.511 36.946 16.399-9.237 31.372-20.96 45.275-34.814 15.686 14.92 34.581 27.353 57.04 36.945 6.774-13.144 21.034-32.683 31.372-41.919-22.816-8.171-41.71-19.183-57.753-33.038 23.173-35.879 40.285-80.285 50.267-132.506 2.139-1.776 4.278-4.618 4.991-7.105l-31.016-13.144zm-204.631 82.594 11.764-1.065c1.783 6.039 2.852 11.368 3.565 16.341l39.572-17.407c-3.922-21.315-17.469-52.902-30.659-77.009l-31.729 13.117c15.33-20.562 29.946-41.834 40.641-59.56 3.922 0 6.774-.709 8.913-2.127h22.816c-.357 70.55-3.922 135.171-18.182 184.194-4.278-13.144-9.269-26.998-13.903-39.077l-32.798 10.658zm139.391-127.71c-4.634 25.88-10.338 56.015-15.686 82.604-4.991-17.372-8.912-36.161-11.764-56.015.356-8.863.356-17.726.713-26.589zm-167.198 87.568c5.347-6.737 11.051-13.827 16.755-21.272 3.209 6.736 6.417 13.826 9.269 20.917zm194.649 13.321 2.139-9.946h15.329c-6.773 25.577-16.399 48.313-28.163 67.851-12.121-18.472-21.39-39.432-28.52-62.523zm-86.986 129.665c9.982-23.802 17.112-51.866 22.103-82.772 6.773 17.762 14.973 34.103 24.242 49.024-13.547 13.499-29.233 24.867-46.345 33.748z"/><path d="m1504.98 356.68v-45.782h-111.227v-32.017h135.469v-47.558h-135.469v-26.688h106.593v-47.203h-106.593v-22.403c7.486-1.065 10.338-3.552 10.695-7.46l-64.17-3.552v33.415h-100.177v47.203h100.177v26.688h-132.262v47.558h132.262v108.377c-16.756-9.6-30.659-23.467-41.354-42.999 3.565-13.487 6.417-26.263 8.556-38.341 5.347-.356 8.912-2.846 9.625-6.404l-62.387-9.605c-5.348 48.671-20.677 108.015-58.11 138.201 11.052 7.099 30.659 23.78 39.572 33.723 19.251-16.331 33.867-39.402 44.919-64.62 38.502 48.289 93.403 59.646 161.494 59.646h78.43c2.852-14.552 10.695-38.332 17.825-49.69-17.112.355-49.197.711-72.369.711-39.572 0-55.258-.711-72.726-3.2v-48z"/><path d="m1786.26 395.757h100.533v-42.94h-100.533v-11.738c7.486-1.042 10.338-3.473 10.695-7.294l-6.417-.351c16.755-16.267 26.737-37.133 32.441-58.816h39.594v17.43c0 3.92-1.428 5.351-5.712 5.351-3.936 0-17.844 0-28.555-.716 5.71 12.427 11.782 31.946 13.568 45.077 52.042 0 69.138-7.098 69.138-48.647v-156.64h-128.651v73.871c0 25.241-2.142 55.049-19.273 80.283v-67.141c6.424-1.066 9.279-3.198 9.636-6.75l-51.007-2.842v33.393h-13.553v-38.722h66.332v-40.143h-34.937c5.704-9.236 11.051-19.538 15.329-27.709 5.348-.355 8.2-1.776 9.626-4.618l-52.065-12.078c-3.928 13.144-11.052 30.906-17.462 44.405h-19.945c-3.205-12.788-11.04-30.906-18.903-44.405l-37.779 14.21c4.63 8.881 8.903 20.249 12.464 30.195h-32.773v40.143h64.526v38.722h-13.592v-24.157c6.439-1.066 9.3-3.197 9.658-6.394l-50.254-2.842v83.483h40.596v-11.724h12.161c-3.576 13.501-14.653 23.097-48.484 30.204 8.903 7.108 24.928 26.654 30.27 36.249 47.781-12.083 61.671-37.315 64.52-66.453h14.265v8.526h38.875c-5.35 7.108-11.769 13.504-19.972 19.546 8.203 3.909 21.042 11.727 31.033 18.835l-38.868-2.132v22.389h-98.044v42.94h98.044v15.32h-135.091v44.361h325.796v-44.361h-137.23zm76.313-207.419h-32.842v-10.701h32.842zm0 36.546v11.412h-33.555c0-3.923.356-7.489.356-11.412z"/><path d="m2191.6 135.385c7.487-1.421 10.339-3.908 10.695-7.816l-64.883-3.552v39.099h-125.487v88.449c0 52.203-2.139 128.577-32.085 179.734 12.121 5.324 35.293 20.587 44.919 29.113 33.154-56.796 39.215-149.529 39.215-208.847v-39.47h254.184v-48.979h-126.558zm-38.145 80.508v105.662h-74.508v139.567h50.622v-12.078h111.585v12.078h53.118v-139.567h-88.055v-31.661h106.95v-45.427h-106.95v-17.429c7.486-1.086 10.695-3.62 11.051-7.963zm-23.886 188.079v-37.345h111.585v37.345z"/><path d="m2715.27 176.97h-19.954l18.528-21.681c-9.98-10.307-30.637-23.145-46.665-31.095l-26.055 29.674c11.434 6.042 24.274 14.928 34.247 23.102h-36.748v-42.651c7.146-1.45 10.005-3.625 10.362-7.25l-57.019-3.23v53.131h-67.739c-12.13-11.729-31.04-25.235-47.809-36.253l.713-1.067c5.352-.355 8.207-2.488 9.277-6.056l-55.583-9.755c-11.761 28.962-32.438 64.843-59.889 92.88 8.913 6.056 21.747 18.489 29.946 28.792v11.723h27.094v19.538h-44.919v43.34h44.919v46.182c-2.852-13.499-7.13-29.13-11.764-42.274l-33.155 9.236c5.704 18.828 11.408 43.34 13.191 59.681l31.728-9.947v9.947c-19.607 2.132-37.432 4.263-52.049 5.684l13.904 52.576c3.208-.71 6.417-2.842 7.13-6.394 31.371-4.618 79.811-12.434 126.513-20.604l-2.496-42.63-18.181 2.132c5.704-12.434 11.764-30.906 14.973-43.695 4.991 0 8.199-1.421 9.625-3.908l-43.448-13.144c-1.827 13.855-6.462 33.038-10.383 47.248v-50.09h42.78v-43.34h-42.78v-19.538h31.75v-34.125l15.701-24.134v23.778h70.951v22.069h-63.1v216.3h44.874v-64.299h18.226v64.654h46.657v-64.654h19.652v12.466c0 3.206-.715 4.275-3.573 4.275-2.501 0-8.576 0-13.935-.357 6.074 12.779 12.148 33.719 13.577 47.56 46.315 0 51.657-19.875 51.657-50.053v-165.892h-67.378v-22.069h76.647v-45.783zm-123.304 124.336h-18.226v-13.543h18.226zm66.309 0h-19.652v-13.543h19.652zm-84.535 38.322h18.226v14.254h-18.226zm64.883 0h19.652v14.254h-19.652zm-204.592-125.024c7.835-11.012 14.602-21.67 20.657-32.682 13.533 10.302 27.798 22.38 38.505 32.682zm39.533 173.005v-12.079l24.62 8.881z"/></g></g></svg>