<?xml version="1.0"?>
<svg xmlns="http://www.w3.org/2000/svg" xmlns:xlink="http://www.w3.org/1999/xlink" xmlns:svgjs="http://svgjs.com/svgjs" version="1.1" width="512" height="512" x="0" y="0" viewBox="0 0 486.3 486.3" style="enable-background:new 0 0 512 512" xml:space="preserve" class=""><g>
<g xmlns="http://www.w3.org/2000/svg">
	<path style="" d="M243.15,0v104.4c44.11,0,80,35.88,80,80c0,44.11-35.89,80-80,80v221.9l146.43-184.1   c26.29-33.25,40.19-73.21,40.19-115.58C429.77,83.72,346.05,0,243.15,0z" fill="#77c1d3" data-original="#cd2a00" class=""/>
	<path style="" d="M323.15,184.4c0-44.12-35.89-80-80-80v160C287.26,264.4,323.15,228.51,323.15,184.4z" fill="#e6faff" data-original="#d8d7da" class=""/>
	<path style="" d="M163.15,184.4c0-44.12,35.89-80,80-80V0C140.25,0,56.53,83.72,56.53,186.62   c0,42.37,13.9,82.33,40.23,115.62L243.15,486.3V264.4C199.04,264.4,163.15,228.51,163.15,184.4z" fill="#95cbda" data-original="#ff3501" class=""/>
	<path style="" d="M163.15,184.4c0,44.11,35.89,80,80,80v-160C199.04,104.4,163.15,140.28,163.15,184.4z" fill="#f6fdff" data-original="#ffffff" class=""/>
</g>
<g xmlns="http://www.w3.org/2000/svg">
</g>
<g xmlns="http://www.w3.org/2000/svg">
</g>
<g xmlns="http://www.w3.org/2000/svg">
</g>
<g xmlns="http://www.w3.org/2000/svg">
</g>
<g xmlns="http://www.w3.org/2000/svg">
</g>
<g xmlns="http://www.w3.org/2000/svg">
</g>
<g xmlns="http://www.w3.org/2000/svg">
</g>
<g xmlns="http://www.w3.org/2000/svg">
</g>
<g xmlns="http://www.w3.org/2000/svg">
</g>
<g xmlns="http://www.w3.org/2000/svg">
</g>
<g xmlns="http://www.w3.org/2000/svg">
</g>
<g xmlns="http://www.w3.org/2000/svg">
</g>
<g xmlns="http://www.w3.org/2000/svg">
</g>
<g xmlns="http://www.w3.org/2000/svg">
</g>
<g xmlns="http://www.w3.org/2000/svg">
</g>
</g></svg>
