<svg xmlns="http://www.w3.org/2000/svg" width="1440" viewBox="0 0 1440 810" height="810" version="1.0"><defs><clipPath id="a"><path d="M 826.238281 28 L 1308 28 L 1308 810 L 826.238281 810 Z M 826.238281 28"/></clipPath><clipPath id="b"><path d="M 848 42 L 1335.488281 42 L 1335.488281 810 L 848 810 Z M 848 42"/></clipPath><clipPath id="c"><path d="M 92.539062 260.1875 L 720.289062 260.1875 L 720.289062 809.9375 L 92.539062 809.9375 Z M 92.539062 260.1875"/></clipPath><clipPath id="d"><path d="M 956.160156 349.015625 L 1205.160156 349.015625 L 1205.160156 599.515625 L 956.160156 599.515625 Z M 956.160156 349.015625"/></clipPath></defs><g clip-path="url(#a)"><path fill="#77C1D3" d="M 1304.660156 927.734375 L 1304.660156 883.664062 L 826.238281 883.664062 L 826.238281 931.050781 C 826.238281 970.632812 858.433594 1002.808594 898.042969 1002.808594 L 1229.347656 1002.808594 C 1270.90625 1002.808594 1304.664062 969.269531 1304.664062 927.734375 Z M 1234.027344 28.199219 L 912.089844 28.199219 C 866.238281 28.199219 828.964844 65.449219 828.964844 111.273438 L 828.96875 136.625 L 1307.390625 136.625 L 1307.390625 101.523438 C 1307.390625 60.960938 1274.414062 28.199219 1234.027344 28.199219 Z M 1304.660156 861.824219 L 828.96875 861.824219 L 828.96875 155.730469 L 1304.460938 155.726562 L 1304.460938 861.820312 L 1304.65625 861.820312"/></g><path fill="#FFF" d="M 1091.789062 908.429688 C 1076.960938 908.429688 1064.863281 920.324219 1064.863281 934.753906 C 1064.863281 949.183594 1076.960938 961.078125 1091.789062 961.078125 C 1106.617188 961.078125 1118.714844 949.183594 1118.714844 934.753906 C 1118.714844 920.324219 1106.617188 908.429688 1091.789062 908.429688 Z M 1176.664062 91.769531 L 1176.664062 85.132812 C 1176.664062 83.574219 1175.496094 82.40625 1173.933594 82.40625 L 1017.453125 82.40625 C 1015.890625 82.40625 1014.722656 83.574219 1014.722656 85.132812 L 1014.722656 91.769531 C 1014.722656 93.324219 1015.890625 94.496094 1017.453125 94.496094 L 1173.933594 94.496094 C 1175.300781 94.496094 1176.664062 93.324219 1176.664062 91.769531 Z M 1289.441406 838.425781 L 848.871094 838.425781 L 848.875 172.890625 L 1289.445312 172.886719 L 1289.445312 838.421875"/><g clip-path="url(#b)"><path fill="#005F89" d="M 938.042969 51.210938 C 893.355469 51.210938 857.070312 87.476562 857.070312 132.136719 L 857.070312 913.695312 C 857.070312 958.351562 893.355469 994.621094 938.042969 994.621094 L 1245.738281 994.621094 C 1290.417969 994.621094 1326.710938 958.351562 1326.710938 913.695312 L 1326.710938 132.136719 C 1326.710938 87.476562 1290.417969 51.214844 1245.738281 51.214844 Z M 1245.738281 1003.199219 L 938.042969 1003.199219 C 888.675781 1003.199219 848.480469 963.03125 848.480469 913.695312 L 848.480469 132.136719 C 848.480469 82.800781 888.675781 42.628906 938.042969 42.628906 L 1245.738281 42.628906 C 1295.300781 42.628906 1335.492188 82.804688 1335.492188 132.140625 L 1335.492188 913.699219 C 1335.492188 963.035156 1295.300781 1003.203125 1245.738281 1003.203125"/></g><g clip-path="url(#c)"><path fill="#77C1D3" d="M 92.734375 293.042969 L 92.734375 621.460938 C 92.734375 639.644531 107.417969 654.316406 125.609375 654.316406 L 218.082031 654.316406 L 166.890625 809.9375 L 377.429688 654.316406 L 687.21875 654.316406 C 705.410156 654.316406 720.09375 639.644531 720.09375 621.460938 L 720.09375 293.042969 C 720.09375 274.859375 705.410156 260.1875 687.21875 260.1875 L 125.609375 260.1875 C 107.417969 260.1875 92.734375 274.859375 92.734375 293.042969 Z M 92.734375 293.042969"/></g><path fill="#FFF" d="M 1080.660156 363.988281 C 1020.238281 363.988281 971.433594 412.777344 971.433594 473.1875 C 971.433594 494.429688 977.574219 514.175781 988.03125 530.9375 L 975.914062 578.734375 L 1026.046875 567.613281 C 1042.148438 576.90625 1060.742188 582.21875 1080.660156 582.21875 C 1141.085938 582.21875 1189.890625 533.261719 1189.890625 473.019531 C 1189.890625 412.777344 1141.085938 363.988281 1080.660156 363.988281 Z M 1080.660156 363.988281" fill-rule="evenodd"/><g clip-path="url(#d)"><path fill="#77C1D3" d="M 1168.808594 385.5625 C 1145.402344 362.160156 1114.359375 349.21875 1081.160156 349.21875 C 1012.765625 349.21875 957.15625 404.8125 957.15625 473.1875 C 957.15625 495.089844 962.800781 516.332031 973.757812 535.085938 L 956.160156 599.3125 L 1021.898438 582.050781 C 1039.992188 592.007812 1060.410156 597.152344 1081.160156 597.152344 C 1149.550781 597.152344 1205.160156 541.558594 1205.160156 473.1875 C 1205.160156 440.160156 1192.210938 408.960938 1168.808594 385.5625 Z M 1081.160156 576.242188 C 1062.566406 576.242188 1044.472656 571.265625 1028.703125 561.804688 L 1024.886719 559.648438 L 985.875 569.9375 L 996.332031 531.933594 L 993.84375 528.117188 C 983.550781 511.6875 978.074219 492.769531 978.074219 473.351562 C 978.074219 416.59375 1024.386719 370.292969 1081.160156 370.292969 C 1108.714844 370.292969 1134.609375 381.082031 1154.03125 400.496094 C 1173.453125 419.914062 1184.246094 445.804688 1184.246094 473.351562 C 1184.246094 529.941406 1137.929688 576.242188 1081.160156 576.242188 Z M 1137.765625 499.074219 C 1134.609375 497.582031 1119.503906 490.113281 1116.515625 488.953125 C 1113.695312 487.957031 1111.535156 487.457031 1109.542969 490.445312 C 1107.554688 493.597656 1101.578125 500.566406 1099.75 502.558594 C 1097.925781 504.550781 1096.097656 504.882812 1093.109375 503.390625 C 1089.957031 501.894531 1079.996094 498.578125 1068.210938 487.957031 C 1059.082031 479.824219 1052.773438 469.535156 1050.945312 466.546875 C 1049.121094 463.394531 1050.78125 461.734375 1052.273438 460.242188 C 1053.601562 458.914062 1055.429688 456.589844 1056.921875 454.765625 C 1058.417969 452.9375 1058.914062 451.613281 1060.078125 449.621094 C 1061.074219 447.628906 1060.574219 445.804688 1059.746094 444.144531 C 1058.914062 442.648438 1052.773438 427.382812 1050.117188 421.074219 C 1047.625 415.101562 1044.972656 415.929688 1043.144531 415.765625 C 1041.320312 415.597656 1039.328125 415.597656 1037.167969 415.597656 C 1035.175781 415.597656 1031.691406 416.429688 1028.867188 419.417969 C 1026.046875 422.570312 1018.078125 430.039062 1018.078125 445.304688 C 1018.078125 460.574219 1029.199219 475.34375 1030.695312 477.335938 C 1032.1875 479.324219 1052.605469 510.691406 1083.648438 524.132812 C 1091.117188 527.285156 1096.761719 529.277344 1101.246094 530.605469 C 1108.714844 532.929688 1115.355469 532.597656 1120.832031 531.769531 C 1126.808594 530.9375 1139.09375 524.300781 1141.75 516.996094 C 1144.40625 509.695312 1144.40625 503.554688 1143.574219 502.226562 C 1142.910156 501.398438 1140.753906 500.566406 1137.765625 499.074219 Z M 1137.765625 499.074219" fill-rule="evenodd"/></g><g fill="#FFF"><g><g><path d="M 5.078125 -68.046875 L 140.296875 -68.046875 L 140.296875 -44.96875 L 5.078125 -44.96875 Z M 5.078125 -68.046875" transform="translate(116.147 567.865)"/></g></g></g><g fill="#FFF"><g><g><path d="M 119.109375 -100.25 L 113.734375 -100.25 L 113.734375 -95.171875 L 119.109375 -95.171875 Z M 119.109375 -74.859375 L 119.109375 -80.234375 L 113.734375 -80.234375 L 113.734375 -74.859375 Z M 98.078125 -95.171875 L 98.078125 -100.25 L 86.171875 -100.25 L 86.171875 -114.171875 L 98.078125 -114.171875 L 98.078125 -122.875 L 113.734375 -122.875 L 113.734375 -114.171875 L 123.75 -114.171875 L 133.1875 -104.75 L 133.1875 -95.171875 L 140.875 -95.171875 L 140.875 -80.234375 L 133.1875 -80.234375 L 133.1875 -70.515625 L 123.75 -61.078125 L 113.734375 -61.078125 L 113.734375 -56 L 134.484375 -56 L 134.484375 -40.625 L 113.734375 -40.625 L 113.734375 -35.40625 L 136.953125 -35.40625 L 136.953125 -20.015625 L 113.734375 -20.015625 L 113.734375 -9.28125 L 98.078125 -9.28125 L 98.078125 -20.015625 L 82.109375 -20.015625 L 82.109375 -35.40625 L 98.078125 -35.40625 L 98.078125 -40.625 L 85.59375 -40.625 L 85.59375 -56 L 98.078125 -56 L 98.078125 -61.078125 L 86.171875 -61.078125 L 86.171875 -74.859375 L 98.078125 -74.859375 L 98.078125 -80.234375 L 80.078125 -80.234375 L 80.078125 -95.171875 Z M 51.21875 -40.046875 L 45.125 -16.828125 L 36.125 -20.171875 L 36.125 -14.65625 L 52.515625 -17.84375 L 53.09375 -7.109375 L 59.765625 -18.71875 C 56.097656 -25.675781 53.050781 -34.28125 50.625 -44.53125 L 63.984375 -49.328125 L 66.015625 -41.78125 L 68.046875 -58.75 L 58.171875 -58.75 C 56.722656 -57.59375 56 -56.578125 56 -55.703125 L 47.875 -68.625 C 49.320312 -69.101562 51.015625 -70.40625 52.953125 -72.53125 C 54.890625 -74.664062 56.582031 -77.328125 58.03125 -80.515625 L 64.125 -98.9375 L 56 -98.9375 L 48.59375 -82.265625 L 48.59375 -70.515625 L 36.125 -70.515625 L 36.125 -63.25 L 51.359375 -63.25 L 51.359375 -45.546875 L 36.125 -45.546875 L 36.125 -23.359375 L 39.03125 -43.671875 Z M 23.0625 -87.34375 L 43.671875 -87.34375 C 39.992188 -91.007812 35.59375 -94.679688 30.46875 -98.359375 C 28.238281 -94.679688 25.769531 -91.007812 23.0625 -87.34375 Z M 40.765625 -117.65625 L 38.59375 -113.015625 C 44.101562 -109.335938 48.789062 -105.710938 52.65625 -102.140625 L 52.65625 -108.65625 L 62.09375 -118.09375 L 68.765625 -118.09375 L 74.28125 -120.265625 L 85.015625 -113.3125 C 82.304688 -101.695312 78.242188 -89.117188 72.828125 -75.578125 L 83.859375 -75 C 83.078125 -52.082031 80.707031 -33.851562 76.75 -20.3125 C 81.195312 -14.894531 86.46875 -11.070312 92.5625 -8.84375 C 98.65625 -6.71875 105.765625 -5.609375 113.890625 -5.515625 C 128.679688 -5.515625 138.207031 -5.609375 142.46875 -5.796875 L 137.25 11.03125 L 112.71875 11.03125 C 93.863281 11.03125 79.648438 6.046875 70.078125 -3.921875 C 65.722656 3.816406 62.578125 8.023438 60.640625 8.703125 L 48.59375 5.953125 C 45.695312 -0.140625 44.34375 -1.832031 44.53125 0.875 C 31.769531 4.0625 19.394531 7.109375 7.40625 10.015625 L 4.203125 -8.84375 L 21.90625 -11.890625 L 21.90625 -17.984375 L 10.734375 -13.921875 L 7.25 -38.296875 L 18.28125 -42.078125 L 21.90625 -22.625 L 21.90625 -45.546875 L 7.40625 -45.546875 L 7.40625 -63.25 L 21.90625 -63.25 L 21.90625 -70.515625 L 14.359375 -70.515625 L 14.359375 -76.75 L 8.265625 -70.65625 L 2.609375 -92.421875 C 7.546875 -96.285156 12.332031 -101.117188 16.96875 -106.921875 C 21.613281 -112.722656 25.390625 -118.769531 28.296875 -125.0625 Z M 40.765625 -117.65625" transform="translate(261.206 567.865)"/></g></g></g><g fill="#FFF"><g><g><path d="M 45.84375 -81.96875 L 52.375 -76.75 C 50.726562 -71.132812 48.550781 -65.8125 45.84375 -60.78125 C 48.457031 -57.113281 51.648438 -54.457031 55.421875 -52.8125 L 55.421875 -86.46875 L 64.84375 -95.890625 L 81.25 -95.890625 L 81.828125 -99.09375 L 48.890625 -99.09375 L 34.390625 -81.390625 Z M 109.671875 -84 L 109.671875 -87.1875 L 72.6875 -87.1875 L 72.6875 -84 Z M 109.671875 -72.390625 L 109.671875 -75.734375 L 72.6875 -75.734375 L 72.6875 -72.390625 Z M 109.671875 -60.640625 L 109.671875 -64.125 L 72.6875 -64.125 L 72.6875 -60.640625 Z M 108.953125 -32.640625 L 108.953125 -29.3125 L 139.28125 -29.3125 L 139.28125 -13.640625 L 108.953125 -13.640625 L 108.953125 -5.375 C 108.953125 -0.632812 108.367188 2.941406 107.203125 5.359375 C 106.046875 7.785156 103.535156 9.820312 99.671875 11.46875 C 95.898438 13.101562 88.066406 13.921875 76.171875 13.921875 L 69.78125 -4.203125 C 73.644531 -4.015625 79.015625 -3.921875 85.890625 -3.921875 C 87.722656 -3.921875 88.640625 -4.597656 88.640625 -5.953125 L 88.640625 -13.640625 L 51.796875 -13.640625 L 63.828125 -2.90625 L 48.453125 9.859375 L 30.328125 -7.25 L 38.15625 -13.640625 L 5.953125 -13.640625 L 5.953125 -29.3125 L 88.640625 -29.3125 L 87.765625 -32.359375 C 74.421875 -32.359375 64.023438 -33.46875 56.578125 -35.6875 C 49.128906 -37.914062 43.035156 -42.363281 38.296875 -49.03125 C 32.203125 -41.195312 24.945312 -35.007812 16.53125 -30.46875 L 6.234375 -44.828125 C 16.097656 -49.367188 23.882812 -56.1875 29.59375 -65.28125 L 23.796875 -65.28125 C 19.242188 -65.28125 16.195312 -64.507812 14.65625 -62.96875 L 8.84375 -77.90625 C 11.550781 -78.675781 13.875 -79.929688 15.8125 -81.671875 L 22.921875 -89.375 L 10.59375 -89.375 L 10.59375 -105.46875 L 22.484375 -105.46875 L 17.125 -119.984375 L 34.671875 -123.3125 L 37.140625 -117.515625 L 31.625 -106.625 L 26.984375 -105.46875 L 36.265625 -105.46875 L 39.46875 -106.625 L 45.703125 -103.578125 L 45.703125 -112.875 L 64.84375 -112.875 L 60.9375 -121.4375 L 77.609375 -125.5 L 84 -112.875 L 99.53125 -112.875 L 104.75 -124.765625 L 124.625 -121.859375 L 118.8125 -112.875 L 138.546875 -112.875 L 138.546875 -99.09375 L 100.828125 -99.09375 L 99.234375 -95.890625 L 118.390625 -95.890625 L 127.8125 -86.46875 L 127.8125 -61.515625 L 118.390625 -52.078125 L 57.015625 -52.078125 C 63.015625 -49.753906 74.8125 -48.59375 92.40625 -48.59375 C 110.007812 -48.59375 127.035156 -49.46875 143.484375 -51.21875 L 137.53125 -33.65625 C 126.21875 -33.070312 116.691406 -32.734375 108.953125 -32.640625 Z M 108.953125 -32.640625" transform="translate(406.264 567.865)"/></g></g></g><g fill="#FFF"><g><g><path d="M 137.828125 -102.71875 L 137.828125 -84.4375 L 68.484375 -84.4375 L 68.484375 -102.71875 L 92.84375 -102.71875 L 86.609375 -119.109375 L 105.609375 -124.046875 L 114.328125 -102.71875 Z M 30.609375 -40.90625 L 40.046875 -44.828125 L 46.421875 -30.46875 L 46.421875 -48.453125 L 30.75 -45.84375 Z M 30.75 -78.34375 L 30.75 -62.53125 L 46.421875 -64.703125 L 46.421875 -69.640625 L 34.8125 -64.703125 Z M 46.421875 -74.5625 L 46.421875 -90.671875 L 30.75 -90.671875 L 30.75 -85.3125 L 40.765625 -89.21875 Z M 2.609375 -58.75 L 12.625 -60.0625 L 12.625 -97.34375 L 22.046875 -106.78125 L 26.6875 -106.78125 L 29.3125 -124.328125 L 50.34375 -121.140625 L 45.265625 -106.78125 L 55.125 -106.78125 L 64.5625 -97.34375 L 64.5625 -67.3125 L 70.078125 -68.1875 L 71.375 -52.65625 L 64.5625 -51.5 L 64.5625 0.875 C 69.207031 -4.738281 72.253906 -11.125 73.703125 -18.28125 C 75.242188 -25.4375 76.015625 -33.5625 76.015625 -42.65625 L 76.015625 -66.015625 L 85.453125 -75.4375 L 115.921875 -75.4375 L 125.34375 -66.015625 L 126.078125 -6.671875 C 127.046875 -6.671875 127.578125 -8.363281 127.671875 -11.75 C 127.859375 -15.226562 127.953125 -20.453125 127.953125 -27.421875 L 141.734375 -19.875 C 141.546875 -10.78125 141.015625 -4.253906 140.140625 -0.296875 C 138.398438 7.148438 133.90625 10.875 126.65625 10.875 L 119.546875 10.875 C 115.191406 10.875 111.707031 9.425781 109.09375 6.53125 C 107.738281 4.976562 106.773438 2.945312 106.203125 0.4375 C 105.710938 -2.082031 105.46875 -6.050781 105.46875 -11.46875 L 105.46875 -57.3125 L 95.609375 -57.3125 L 95.609375 -42.21875 C 95.609375 -15.8125 91.785156 0.921875 84.140625 7.984375 L 72.25 8.265625 C 67.988281 4.203125 65.132812 2.414062 63.6875 2.90625 C 62.820312 5.90625 61.128906 8.273438 58.609375 10.015625 C 54.929688 12.335938 48.597656 13.5 39.609375 13.5 L 34.390625 -4.203125 L 44.390625 -4.203125 C 45.742188 -4.109375 46.421875 -4.785156 46.421875 -6.234375 L 46.421875 -23.5 L 35.6875 -18.71875 C 34.625 -23.070312 32.835938 -28.242188 30.328125 -34.234375 C 29.066406 -11.890625 25.097656 4.644531 18.421875 15.375 L 2.609375 5.21875 C 8.796875 -4.9375 12.085938 -20.988281 12.484375 -42.9375 L 4.9375 -41.640625 Z M 2.609375 -58.75" transform="translate(551.323 567.865)"/></g></g></g><g fill="#005F89"><g><g><path d="M 80.90625 -26.640625 L 80.90625 -9.203125 C 90.632812 -7.691406 109.851562 -7.363281 138.5625 -8.21875 L 131.484375 11.625 L 100.3125 11.625 C 85.382812 11.625 72.675781 9.875 62.1875 6.375 C 51.707031 2.882812 42.832031 -3.488281 35.5625 -12.75 C 30.550781 -1.320312 24.503906 7.363281 17.421875 13.3125 L 1.984375 0.140625 C 8.972656 -5.429688 14.351562 -13.175781 18.125 -23.09375 C 21.90625 -33.007812 24.410156 -43.632812 25.640625 -54.96875 L 46.90625 -52.421875 C 45.582031 -45.242188 44.257812 -39.101562 42.9375 -34 C 46.894531 -26.257812 52.46875 -20.3125 59.65625 -16.15625 L 59.65625 -59.359375 L 7.078125 -59.359375 L 7.078125 -78.359375 L 59.65625 -78.359375 L 59.65625 -88.984375 L 19.84375 -88.984375 L 19.84375 -107.828125 L 59.65625 -107.828125 L 59.65625 -121.140625 L 80.90625 -121.140625 L 80.90625 -107.828125 L 123.265625 -107.828125 L 123.265625 -88.984375 L 80.90625 -88.984375 L 80.90625 -78.359375 L 134.75 -78.359375 L 134.75 -59.359375 L 80.90625 -59.359375 L 80.90625 -44.921875 L 125.109375 -44.921875 L 125.109375 -26.640625 Z M 80.90625 -26.640625" transform="translate(118.728 219.081)"/></g></g></g><g fill="#005F89"><g><g><path d="M 27.90625 -32.59375 L 59.796875 -32.59375 L 59.796875 -38.828125 L 76.375 -38.828125 C 71.644531 -41.660156 67.394531 -43.878906 63.625 -45.484375 L 69 -51.859375 L 56.8125 -51.859375 L 56.8125 -55.265625 L 47.609375 -55.265625 C 44.492188 -45.148438 37.925781 -37.59375 27.90625 -32.59375 Z M 113.640625 -100.171875 L 98.1875 -100.171875 L 98.1875 -95.640625 L 113.640625 -95.640625 Z M 96.765625 -75.9375 L 113.640625 -75.9375 L 113.640625 -81.046875 L 97.484375 -81.046875 Z M 81.046875 -8.640625 L 135.59375 -8.640625 L 135.59375 9.0625 L 6.09375 9.0625 L 6.09375 -8.640625 L 59.796875 -8.640625 L 59.796875 -15.4375 L 20.265625 -15.4375 L 20.265625 -32.59375 L 23.375 -32.59375 C 19.3125 -37.875 17.472656 -39.953125 17.859375 -38.828125 L 20.828125 -49.171875 C 22.054688 -48.972656 24.226562 -51.003906 27.34375 -55.265625 L 17.703125 -55.265625 L 8.5 -64.46875 L 8.5 -83.734375 L 24.65625 -83.734375 L 24.65625 -71.265625 L 31.453125 -71.265625 L 31.453125 -88.125 L 5.53125 -88.125 L 5.53125 -104.140625 L 20.125 -104.140625 L 13.609375 -114.0625 L 27.484375 -120.71875 L 37.265625 -106.40625 L 32.734375 -104.140625 L 43.921875 -104.140625 L 51.15625 -120.296875 L 68.296875 -115.46875 L 61.5 -104.140625 L 75.796875 -104.140625 L 75.796875 -88.125 L 49.59375 -88.125 L 49.59375 -71.265625 L 56.8125 -71.265625 L 56.8125 -83.734375 L 73.25 -83.734375 L 73.25 -58.9375 C 77.875 -68.476562 80.1875 -80.992188 80.1875 -96.484375 L 80.1875 -106.96875 L 89.40625 -116.1875 L 123.6875 -116.1875 L 132.765625 -106.96875 L 131.484375 -43.359375 C 130.535156 -40.804688 128.789062 -38.820312 126.25 -37.40625 C 122.46875 -35.320312 115.523438 -34.28125 105.421875 -34.28125 L 100.03125 -52.28125 L 111.359375 -52.28125 C 112.878906 -52.09375 113.640625 -52.707031 113.640625 -54.125 L 113.640625 -61.0625 L 93.65625 -61.0625 C 90.632812 -51.519531 86.429688 -43.726562 81.046875 -37.6875 L 81.046875 -32.59375 L 121.703125 -32.59375 L 121.703125 -15.4375 L 81.046875 -15.4375 Z M 81.046875 -8.640625" transform="translate(260.408 219.081)"/></g></g></g><g fill="#005F89"><g><g><path d="M 59.65625 1.984375 C 44.445312 1.984375 31.929688 -2.738281 22.109375 -12.1875 C 12.285156 -21.632812 7.375 -34.90625 7.375 -52 C 7.375 -69.09375 12.332031 -82.597656 22.25 -92.515625 C 32.257812 -102.441406 44.253906 -107.40625 58.234375 -107.40625 C 72.210938 -107.40625 83.785156 -102.820312 92.953125 -93.65625 L 79.625 -77.5 C 73.488281 -82.976562 66.6875 -85.71875 59.21875 -85.71875 C 51.851562 -85.71875 45.671875 -82.789062 40.671875 -76.9375 C 35.753906 -71.082031 33.296875 -62.957031 33.296875 -52.5625 C 33.296875 -42.175781 35.703125 -34.101562 40.515625 -28.34375 C 45.335938 -22.675781 52.613281 -19.84375 62.34375 -19.84375 C 66.59375 -19.84375 69.898438 -20.738281 72.265625 -22.53125 L 72.265625 -39.53125 L 55.546875 -39.53125 L 55.546875 -60.21875 L 85.578125 -60.21875 L 94.78125 -51 L 94.78125 -10.90625 C 90.914062 -7.132812 85.863281 -4.019531 79.625 -1.5625 C 73.394531 0.800781 66.738281 1.984375 59.65625 1.984375 Z M 59.65625 1.984375" transform="translate(402.087 219.081)"/></g></g></g><g fill="#005F89"><g><g><path d="M 12.1875 0 L 12.1875 -96.34375 L 21.390625 -105.5625 L 49.3125 -105.5625 C 61.488281 -105.5625 71.40625 -103.101562 79.0625 -98.1875 C 87.375 -92.800781 91.53125 -83.96875 91.53125 -71.6875 C 91.53125 -59.414062 87.5625 -50.207031 79.625 -44.0625 C 71.789062 -38.019531 61.875 -35 49.875 -35 L 37.546875 -35 L 37.546875 0 Z M 37.546875 -54.96875 L 48.59375 -54.96875 C 60.78125 -54.96875 66.875 -60.351562 66.875 -71.125 C 66.875 -76.226562 65.269531 -79.863281 62.0625 -82.03125 C 58.945312 -84.300781 54.222656 -85.4375 47.890625 -85.4375 L 37.546875 -85.4375 Z M 37.546875 -54.96875" transform="translate(505.939 219.081)"/></g></g></g><g fill="#005F89"><g><g><path d="M 44.921875 1.984375 C 37.828125 1.984375 30.785156 0.707031 23.796875 -1.84375 C 16.898438 -4.488281 10.8125 -8.265625 5.53125 -13.171875 L 19.984375 -30.609375 C 28.296875 -23.429688 36.890625 -19.84375 45.765625 -19.84375 C 54.734375 -19.84375 59.21875 -22.910156 59.21875 -29.046875 C 59.21875 -31.597656 58.226562 -33.582031 56.25 -35 C 54.269531 -36.507812 51.863281 -37.832031 49.03125 -38.96875 C 46.289062 -40.101562 44.726562 -40.765625 44.34375 -40.953125 L 30.890625 -46.609375 C 24.648438 -49.066406 19.5 -52.707031 15.4375 -57.53125 C 11.476562 -62.4375 9.5 -68.429688 9.5 -75.515625 C 9.5 -84.492188 13.085938 -92.050781 20.265625 -98.1875 C 27.535156 -104.332031 36.695312 -107.40625 47.75 -107.40625 C 53.976562 -107.40625 60.113281 -106.222656 66.15625 -103.859375 C 72.207031 -101.492188 77.5 -98.046875 82.03125 -93.515625 L 69.421875 -77.640625 C 62.335938 -83.023438 55.113281 -85.71875 47.75 -85.71875 C 43.875 -85.71875 40.800781 -84.960938 38.53125 -83.453125 C 36.363281 -81.941406 35.28125 -80.003906 35.28125 -77.640625 C 35.28125 -75.378906 36.082031 -73.488281 37.6875 -71.96875 C 39.289062 -70.457031 40.847656 -69.375 42.359375 -68.71875 C 43.960938 -68.0625 46.894531 -66.878906 51.15625 -65.171875 L 64.328125 -59.9375 C 78.210938 -54.363281 85.15625 -44.726562 85.15625 -31.03125 C 85.15625 -21.863281 81.515625 -14.066406 74.234375 -7.640625 C 66.960938 -1.222656 57.191406 1.984375 44.921875 1.984375 Z M 44.921875 1.984375" transform="translate(603.273 219.081)"/></g></g></g><g fill="#FFF"><g><g><path d="M 15.578125 -30 L 45.515625 -30 C 39.890625 -33.976562 34.960938 -38.472656 30.734375 -43.484375 C 26.671875 -38.722656 21.617188 -34.226562 15.578125 -30 Z M 34.4375 -10.15625 L 34.4375 -2.703125 L 57.21875 -2.703125 L 57.21875 3.8125 L 4.796875 3.8125 L 4.796875 -2.703125 L 26.796875 -2.703125 L 26.796875 -10.15625 L 10.84375 -10.15625 L 10.84375 -16.5 L 26.796875 -16.5 L 26.796875 -23.53125 L 17.546875 -23.53125 L 13.859375 -27.21875 L 13.859375 -28.828125 C 11.347656 -27.140625 8.738281 -25.597656 6.03125 -24.203125 L 1.546875 -30.125 C 4.910156 -31.476562 8.398438 -33.34375 12.015625 -35.71875 C 15.628906 -38.144531 18.890625 -40.734375 21.796875 -43.484375 L 13.609375 -43.484375 L 13.609375 -50.265625 L 30.984375 -50.265625 L 36.703125 -47.484375 L 45.640625 -39.046875 C 50.273438 -35.515625 55.160156 -32.804688 60.296875 -30.921875 L 55.375 -24.203125 C 52.820312 -25.398438 50.234375 -26.859375 47.609375 -28.578125 L 47.609375 -23.53125 L 34.4375 -23.53125 L 34.4375 -16.5 L 50.5625 -16.5 L 50.5625 -10.15625 Z M 34.4375 -10.15625" transform="translate(108.152 391.947)"/></g></g></g><g fill="#FFF"><g><g><path d="M 43.171875 -28.03125 L 33.8125 -28.03125 L 31.34375 -23.15625 L 45.640625 -23.15625 Z M 34.125 -39.296875 L 34.125 -34.609375 L 42.6875 -34.609375 L 42.6875 -39.296875 Z M 42.8125 -13.734375 L 42.8125 -17.671875 L 32.953125 -17.671875 L 32.953125 -13.734375 Z M 49.390625 -11.953125 L 45.703125 -8.25 L 32.953125 -8.25 L 32.953125 -4 C 32.953125 -2.851562 33.175781 -2.113281 33.625 -1.78125 L 47.671875 -1.359375 C 49.109375 -1.359375 50.03125 -1.726562 50.4375 -2.46875 C 50.894531 -3.207031 51.226562 -4.929688 51.4375 -7.640625 L 57.65625 -5.109375 C 57.195312 -1.128906 56.332031 1.535156 55.0625 2.890625 C 53.789062 4.242188 51.515625 4.921875 48.234375 4.921875 L 36.34375 4.921875 C 32.394531 4.921875 29.703125 4.304688 28.265625 3.078125 C 26.867188 1.847656 26.171875 -0.488281 26.171875 -3.9375 L 26.171875 -15.828125 C 24.492188 -13.859375 22.671875 -12.132812 20.703125 -10.65625 L 18.421875 -13.546875 C 15.703125 -7.097656 12.867188 -1.039062 9.921875 4.625 L 3.390625 0.3125 C 6.960938 -5.769531 10.25 -12.34375 13.25 -19.40625 L 16.625 -16.875 C 20.613281 -19.664062 23.878906 -23.382812 26.421875 -28.03125 L 17.0625 -28.03125 L 17.0625 -34.609375 L 27.09375 -34.609375 L 27.09375 -39.296875 L 23.15625 -39.296875 L 19.46875 -43 L 19.640625 -45.828125 L 27.09375 -45.828125 L 27.09375 -52.109375 L 34.125 -52.109375 L 34.125 -45.828125 L 42.6875 -45.828125 L 42.6875 -52.109375 L 49.890625 -52.109375 L 49.890625 -45.828125 L 57.84375 -45.828125 L 57.84375 -39.296875 L 49.890625 -39.296875 L 49.890625 -34.609375 L 59.625 -34.609375 L 59.625 -28.03125 L 50.4375 -28.03125 C 53.195312 -23.34375 56.648438 -19.769531 60.796875 -17.3125 L 55.6875 -11.515625 C 53.425781 -13.160156 51.328125 -15.191406 49.390625 -17.609375 Z M 16.453125 -29.8125 L 12.203125 -23.71875 C 9.984375 -25.8125 6.53125 -27.882812 1.84375 -29.9375 L 5.796875 -35.421875 C 10.347656 -33.816406 13.898438 -31.945312 16.453125 -29.8125 Z M 19.765625 -46.015625 L 15.453125 -39.96875 C 14.390625 -41 12.851562 -42.128906 10.84375 -43.359375 C 8.832031 -44.585938 6.878906 -45.613281 4.984375 -46.4375 L 9.109375 -51.984375 C 13.921875 -50.015625 17.472656 -48.023438 19.765625 -46.015625 Z M 19.765625 -46.015625" transform="translate(169.739 391.947)"/></g></g></g><g fill="#FFF"><g><g><path d="M 5.046875 0 L 5.046875 -7.328125 L 14.84375 -7.328125 L 14.84375 -36.15625 L 6.59375 -36.15625 L 6.59375 -41.765625 C 10.863281 -42.585938 14.394531 -43.878906 17.1875 -45.640625 L 20.203125 -45.640625 L 23.890625 -42 L 23.890625 -7.328125 L 32.453125 -7.328125 L 32.453125 0 Z M 5.046875 0" transform="translate(231.326 391.947)"/></g></g></g><g fill="#FFF"><g><g><path d="M 5.171875 13.125 L 3.265625 8.1875 C 5.648438 7.332031 7.476562 6.144531 8.75 4.625 C 10.0625 3.144531 10.507812 1.519531 10.09375 -0.25 C 8.539062 -0.25 7.207031 -0.71875 6.09375 -1.65625 C 4.988281 -2.644531 4.4375 -3.941406 4.4375 -5.546875 C 4.4375 -7.179688 4.988281 -8.492188 6.09375 -9.484375 C 7.25 -10.472656 8.75 -10.96875 10.59375 -10.96875 C 12.476562 -10.96875 13.976562 -10.1875 15.09375 -8.625 C 16.238281 -7.0625 16.8125 -4.660156 16.8125 -1.421875 C 16.8125 1.785156 15.804688 4.703125 13.796875 7.328125 C 11.785156 9.953125 8.910156 11.882812 5.171875 13.125 Z M 5.171875 13.125" transform="translate(267.6 391.947)"/></g></g></g><g fill="#FFF"><g><g><path d="M 29.4375 -5.296875 C 26.6875 -1.191406 22.929688 0.859375 18.171875 0.859375 C 13.410156 0.859375 9.640625 -1.191406 6.859375 -5.296875 C 4.085938 -9.398438 2.703125 -15.289062 2.703125 -22.96875 C 2.703125 -30.65625 4.078125 -36.488281 6.828125 -40.46875 C 9.585938 -44.445312 13.359375 -46.4375 18.140625 -46.4375 C 22.921875 -46.4375 26.6875 -44.445312 29.4375 -40.46875 C 32.1875 -36.488281 33.5625 -30.65625 33.5625 -22.96875 C 33.5625 -15.289062 32.1875 -9.398438 29.4375 -5.296875 Z M 11.265625 -22.8125 C 11.265625 -11.75 13.550781 -6.21875 18.125 -6.21875 C 22.707031 -6.21875 25 -11.75 25 -22.8125 C 25 -33.882812 22.707031 -39.421875 18.125 -39.421875 C 13.550781 -39.421875 11.265625 -33.882812 11.265625 -22.8125 Z M 11.265625 -22.8125" transform="translate(323.89 391.947)"/></g></g></g><g fill="#FFF"><g><g><path d="M 21.75 -44.53125 L 12.25 -44.53125 L 12.25 -41.265625 L 21.75 -41.265625 Z M 12.25 -32.828125 L 21.75 -32.828125 L 21.75 -36.34375 L 12.25 -36.34375 Z M 28.578125 -31.296875 L 24.890625 -27.59375 L 12.25 -27.59375 L 12.25 5.359375 L 4.984375 5.359375 L 4.984375 -46.140625 L 8.6875 -49.828125 L 24.890625 -49.828125 L 28.578125 -46.140625 Z M 39.796875 -32.703125 L 49.578125 -32.703125 L 49.578125 -36.34375 L 39.796875 -36.34375 Z M 49.578125 -44.53125 L 39.796875 -44.53125 L 39.796875 -41.265625 L 49.578125 -41.265625 Z M 25.5625 -5.734375 L 35.71875 -5.734375 L 35.71875 -9.546875 L 25.5625 -9.546875 Z M 35.71875 -14.78125 L 35.71875 -18.484375 L 25.5625 -18.484375 L 25.5625 -14.78125 Z M 53.28125 -49.828125 L 56.96875 -46.140625 L 56.96875 -3.328125 C 56.96875 -1.316406 56.722656 0.242188 56.234375 1.359375 C 55.742188 2.503906 54.898438 3.363281 53.703125 3.9375 C 51.859375 4.882812 49.742188 5.296875 47.359375 5.171875 L 41.640625 2.03125 C 41.472656 0.507812 41.207031 -0.289062 40.84375 -0.375 L 25.5625 -0.375 L 25.5625 2.765625 L 18.90625 2.765625 L 18.90625 -20.140625 L 22.609375 -23.84375 L 38.921875 -23.84375 L 42.625 -20.140625 L 42.625 -2.03125 L 48.109375 -2.03125 C 49.085938 -2.03125 49.578125 -2.484375 49.578125 -3.390625 L 49.578125 -27.46875 L 36.53125 -27.46875 L 32.828125 -31.171875 L 32.828125 -46.140625 L 36.53125 -49.828125 Z M 53.28125 -49.828125" transform="translate(396.44 391.947)"/></g></g></g><g fill="#FFF"><g><g><path d="M 34.375 -12.3125 L 34.375 -3.203125 C 37.125 -2.710938 40.40625 -2.46875 44.21875 -2.46875 C 47.707031 -2.382812 52.90625 -2.40625 59.8125 -2.53125 L 57.21875 4.5625 L 43.796875 4.5625 C 37.054688 4.5625 31.390625 3.738281 26.796875 2.09375 C 22.234375 0.488281 18.4375 -2.488281 15.40625 -6.84375 C 13.144531 -1.414062 10.328125 2.648438 6.953125 5.359375 L 1.484375 0.671875 C 4.640625 -1.828125 7.082031 -5.273438 8.8125 -9.671875 C 10.53125 -14.109375 11.640625 -18.8125 12.140625 -23.78125 L 19.703125 -22.90625 C 19.210938 -19.914062 18.640625 -17.207031 17.984375 -14.78125 C 19.992188 -10.59375 22.953125 -7.515625 26.859375 -5.546875 L 26.859375 -26.296875 L 3.578125 -26.296875 L 3.578125 -33.140625 L 26.859375 -33.140625 L 26.859375 -39.109375 L 9 -39.109375 L 9 -45.828125 L 26.859375 -45.828125 L 26.859375 -52.109375 L 34.375 -52.109375 L 34.375 -45.828125 L 53.34375 -45.828125 L 53.34375 -39.109375 L 34.375 -39.109375 L 34.375 -33.140625 L 58.140625 -33.140625 L 58.140625 -26.296875 L 34.375 -26.296875 L 34.375 -18.84375 L 54.015625 -18.84375 L 54.015625 -12.3125 Z M 34.375 -12.3125" transform="translate(458.027 391.947)"/></g></g></g><g fill="#FFF"><g><g><path d="M 50.203125 -44.09375 L 41.578125 -44.09375 L 41.578125 -40.890625 L 50.203125 -40.890625 Z M 41.015625 -32.21875 L 50.203125 -32.21875 L 50.203125 -35.59375 L 41.390625 -35.59375 Z M 34.4375 -2.953125 L 58.765625 -2.953125 L 58.765625 3.390625 L 2.828125 3.390625 L 2.828125 -2.953125 L 26.859375 -2.953125 L 26.859375 -7.328125 L 9.046875 -7.328125 L 9.046875 -13.484375 L 26.859375 -13.484375 L 26.859375 -16.5625 L 33.015625 -16.5625 C 31.328125 -17.675781 29.6875 -18.582031 28.09375 -19.28125 L 30.984375 -22.796875 L 25.4375 -22.796875 L 25.4375 -24.390625 L 20.078125 -24.390625 C 18.597656 -19.628906 15.128906 -16.097656 9.671875 -13.796875 L 5.109375 -18.65625 C 8.929688 -20.175781 11.519531 -22.085938 12.875 -24.390625 L 8.125 -24.390625 L 4.4375 -28.09375 L 4.4375 -36.46875 L 10.21875 -36.46875 L 10.21875 -30.125 L 14.53125 -30.125 L 14.53125 -38.6875 L 2.703125 -38.6875 L 2.703125 -44.40625 L 9.921875 -44.40625 L 6.71875 -49.453125 L 11.765625 -51.921875 L 16.015625 -45.515625 L 13.796875 -44.40625 L 19.53125 -44.40625 L 23.09375 -51.796875 L 29.203125 -49.953125 L 25.875 -44.40625 L 32.890625 -44.40625 L 32.890625 -38.6875 L 21.0625 -38.6875 L 21.0625 -30.125 L 25.4375 -30.125 L 25.4375 -36.40625 L 31.34375 -36.40625 L 31.34375 -23.34375 C 33.894531 -27.613281 35.171875 -33.34375 35.171875 -40.53125 L 35.171875 -46.203125 L 38.859375 -49.828125 L 53.40625 -49.828125 L 57.03125 -46.140625 L 56.546875 -18.296875 C 56.171875 -17.390625 55.492188 -16.691406 54.515625 -16.203125 C 53.078125 -15.421875 50.160156 -15.03125 45.765625 -15.03125 L 43.796875 -21.5 L 49.21875 -21.5 C 49.875 -21.414062 50.203125 -21.703125 50.203125 -22.359375 L 50.203125 -26.859375 L 39.84375 -26.859375 C 38.695312 -22.785156 36.894531 -19.332031 34.4375 -16.5 L 34.4375 -13.484375 L 52.546875 -13.484375 L 52.546875 -7.328125 L 34.4375 -7.328125 Z M 34.4375 -2.953125" transform="translate(519.614 391.947)"/></g></g></g><g fill="#FFF"><g><g><path d="M 46.875 -4.25 L 46.875 -11.765625 L 25.25 -11.765625 L 25.25 -4.25 Z M 38.4375 -36.46875 L 38.4375 -30.734375 L 57.28125 -30.734375 L 57.28125 -24.140625 L 38.4375 -24.140625 L 38.4375 -18.484375 L 50.6875 -18.484375 L 54.390625 -14.78125 L 54.390625 4.625 L 46.875 4.625 L 46.875 2.21875 L 25.25 2.21875 L 25.25 4.625 L 18.046875 4.625 L 18.046875 -14.78125 L 21.6875 -18.484375 L 30.859375 -18.484375 L 30.859375 -36.46875 Z M 38.375 -45.265625 L 58.765625 -45.265625 L 58.765625 -38.3125 L 14.59375 -38.3125 L 14.59375 -29.6875 C 14.59375 -13.789062 12.378906 -2.109375 7.953125 5.359375 L 1.484375 1.109375 C 5.210938 -5.296875 7.078125 -15.582031 7.078125 -29.75 L 7.078125 -41.578125 L 10.78125 -45.265625 L 30.125 -45.265625 L 27.96875 -50.625 L 35.296875 -52.171875 Z M 38.375 -45.265625" transform="translate(581.2 391.947)"/></g></g></g><g fill="#FFF"><g><g><path d="M 50.9375 -24.328125 L 50.9375 -28.515625 L 45.765625 -28.515625 L 45.765625 -24.328125 Z M 45.765625 -13.984375 L 50.9375 -13.984375 L 50.9375 -18.421875 L 45.765625 -18.421875 Z M 34.3125 -13.984375 L 39.359375 -13.984375 L 39.359375 -18.421875 L 34.3125 -18.421875 Z M 39.359375 -28.515625 L 34.3125 -28.515625 L 34.3125 -24.328125 L 39.359375 -24.328125 Z M 10.46875 -36.703125 L 22.609375 -36.703125 C 20.347656 -38.765625 17.757812 -40.71875 14.84375 -42.5625 C 13.40625 -40.425781 11.945312 -38.472656 10.46875 -36.703125 Z M 3.015625 -3.015625 L 11.890625 -4.5 L 11.890625 -19.890625 L 3.875 -19.890625 L 3.875 -26.109375 L 11.890625 -26.109375 L 11.890625 -30.609375 L 7.328125 -30.609375 L 7.328125 -33.328125 L 4.4375 -30.734375 L 1.90625 -38.25 C 4.25 -39.976562 6.507812 -42.113281 8.6875 -44.65625 C 10.863281 -47.238281 12.609375 -49.882812 13.921875 -52.59375 L 19.15625 -50.078125 L 18.046875 -47.859375 L 26.109375 -42.125 L 26.109375 -44.65625 L 38.921875 -44.65625 L 38.921875 -52.171875 L 46.203125 -52.171875 L 46.203125 -44.65625 L 53.21875 -44.65625 L 47.609375 -49.28125 L 52.171875 -52.65625 L 59.1875 -47.125 L 55.859375 -44.65625 L 59.3125 -44.65625 L 59.3125 -38.5 L 46.203125 -38.5 L 46.203125 -34.671875 L 54.203125 -34.671875 L 57.890625 -30.984375 L 57.890625 -1.65625 C 57.890625 -0.1875 57.742188 0.976562 57.453125 1.84375 C 57.171875 2.707031 56.492188 3.46875 55.421875 4.125 C 54.359375 4.78125 52.125 5.109375 48.71875 5.109375 L 46.875 -1.109375 L 50.203125 -1.109375 C 50.691406 -1.066406 50.9375 -1.289062 50.9375 -1.78125 L 50.9375 -8 L 45.765625 -8 L 45.765625 4.859375 L 39.359375 4.859375 L 39.359375 -8 L 34.3125 -8 L 34.3125 5.171875 L 27.53125 5.171875 L 27.53125 -30.984375 L 31.234375 -34.671875 L 38.921875 -34.671875 L 38.921875 -38.5 L 26.171875 -38.5 L 24.453125 -34.984375 L 23.03125 -36.34375 L 23.03125 -34.3125 L 19.34375 -30.609375 L 17.734375 -30.609375 L 17.734375 -26.109375 L 25.0625 -26.109375 L 25.0625 -19.890625 L 17.734375 -19.890625 L 17.734375 -5.546875 L 25.0625 -6.90625 L 25.4375 -1.109375 L 4.4375 3.578125 Z M 25.4375 -16.8125 L 22.359375 -6.53125 L 18.296875 -7.890625 L 20.390625 -18.234375 Z M 4.3125 -16.390625 L 8.6875 -17.609375 L 10.96875 -7.140625 L 6.28125 -5.734375 Z M 4.3125 -16.390625" transform="translate(642.788 391.947)"/></g></g></g></svg>