<svg xmlns="http://www.w3.org/2000/svg" width="810" viewBox="0 0 810 810" height="810" version="1.0"><defs><clipPath id="a"><path d="M 137.375 43.199219 L 644 43.199219 L 644 810 L 137.375 810 Z M 137.375 43.199219"/></clipPath><clipPath id="b"><path d="M 160 58 L 672.875 58 L 672.875 810 L 160 810 Z M 160 58"/></clipPath><clipPath id="c"><path d="M 273.960938 381 L 535.710938 381 L 535.710938 644.859375 L 273.960938 644.859375 Z M 273.960938 381"/></clipPath></defs><g clip-path="url(#a)"><path fill="#77C1D3" d="M 640.457031 989.453125 L 640.457031 943.113281 L 137.375 943.113281 L 137.375 992.9375 C 137.375 1034.558594 171.230469 1068.390625 212.882812 1068.390625 L 561.265625 1068.390625 C 604.964844 1068.390625 640.460938 1033.125 640.460938 989.453125 Z M 566.1875 43.597656 L 227.652344 43.597656 C 179.4375 43.597656 140.246094 82.765625 140.246094 130.949219 L 140.246094 157.605469 L 643.328125 157.605469 L 643.328125 120.699219 C 643.328125 78.046875 608.652344 43.597656 566.183594 43.597656 Z M 640.457031 920.148438 L 140.25 920.148438 L 140.246094 177.695312 L 640.25 177.691406 L 640.25 920.144531 L 640.457031 920.144531"/></g><path fill="#FFF" d="M 416.617188 969.152344 C 401.023438 969.152344 388.300781 981.660156 388.300781 996.832031 C 388.300781 1012.003906 401.023438 1024.511719 416.617188 1024.511719 C 432.207031 1024.511719 444.929688 1012.003906 444.929688 996.832031 C 444.929688 981.660156 432.207031 969.152344 416.617188 969.152344 Z M 505.867188 110.441406 L 505.867188 103.464844 C 505.867188 101.820312 504.632812 100.597656 502.992188 100.597656 L 338.445312 100.597656 C 336.800781 100.597656 335.578125 101.820312 335.578125 103.464844 L 335.578125 110.441406 C 335.578125 112.074219 336.800781 113.308594 338.445312 113.308594 L 502.992188 113.308594 C 504.429688 113.308594 505.867188 112.074219 505.867188 110.441406 Z M 624.457031 895.542969 L 161.175781 895.542969 L 161.179688 195.738281 L 624.460938 195.734375 L 624.460938 895.539062"/><g clip-path="url(#b)"><path fill="#005F89" d="M 254.941406 67.792969 C 207.953125 67.792969 169.796875 105.925781 169.796875 152.886719 L 169.796875 974.691406 C 169.796875 1021.644531 207.953125 1059.78125 254.941406 1059.78125 L 578.5 1059.78125 C 625.484375 1059.78125 663.644531 1021.644531 663.644531 974.691406 L 663.644531 152.886719 C 663.644531 105.929688 625.484375 67.796875 578.5 67.796875 Z M 578.5 1068.804688 L 254.941406 1068.804688 C 203.035156 1068.804688 160.761719 1026.566406 160.761719 974.691406 L 160.761719 152.886719 C 160.761719 101.011719 203.035156 58.769531 254.945312 58.769531 L 578.5 58.769531 C 630.613281 58.769531 672.878906 101.011719 672.878906 152.890625 L 672.878906 974.695312 C 672.878906 1026.570312 630.613281 1068.808594 578.5 1068.808594"/></g><path fill="#FFF" d="M 404.835938 396.636719 C 341.316406 396.636719 290.015625 448.058594 290.015625 511.722656 C 290.015625 534.109375 296.472656 554.925781 307.464844 572.589844 L 294.726562 622.960938 L 347.425781 611.246094 C 364.351562 621.039062 383.894531 626.636719 404.835938 626.636719 C 468.351562 626.636719 519.65625 575.039062 519.65625 511.546875 C 519.65625 448.058594 468.351562 396.636719 404.835938 396.636719 Z M 404.835938 396.636719" fill-rule="evenodd"/><g clip-path="url(#c)"><path fill="#77C1D3" d="M 497.496094 419.375 C 472.890625 394.710938 440.257812 381.070312 405.359375 381.070312 C 333.464844 381.070312 275.007812 439.664062 275.007812 511.722656 C 275.007812 534.8125 280.941406 557.199219 292.457031 576.960938 L 273.960938 644.652344 L 343.0625 626.460938 C 362.082031 636.957031 383.546875 642.378906 405.359375 642.378906 C 477.253906 642.378906 535.710938 583.785156 535.710938 511.722656 C 535.710938 476.917969 522.097656 444.035156 497.496094 419.375 Z M 405.359375 620.339844 C 385.816406 620.339844 366.792969 615.09375 350.214844 605.121094 L 346.203125 602.847656 L 305.195312 613.691406 L 316.1875 573.640625 L 313.570312 569.617188 C 302.753906 552.300781 296.996094 532.363281 296.996094 511.898438 C 296.996094 452.082031 345.679688 403.28125 405.359375 403.28125 C 434.324219 403.28125 461.546875 414.652344 481.964844 435.113281 C 502.378906 455.578125 513.722656 482.863281 513.722656 511.898438 C 513.722656 571.539062 465.039062 620.339844 405.359375 620.339844 Z M 464.863281 539.007812 C 461.546875 537.433594 445.667969 529.5625 442.527344 528.339844 C 439.5625 527.289062 437.292969 526.765625 435.199219 529.914062 C 433.105469 533.238281 426.820312 540.582031 424.902344 542.679688 C 422.984375 544.78125 421.0625 545.128906 417.921875 543.554688 C 414.605469 541.980469 404.136719 538.484375 391.746094 527.289062 C 382.148438 518.71875 375.519531 507.875 373.601562 504.726562 C 371.679688 501.402344 373.425781 499.65625 374.996094 498.082031 C 376.390625 496.679688 378.3125 494.234375 379.882812 492.308594 C 381.453125 490.382812 381.976562 488.984375 383.195312 486.886719 C 384.246094 484.789062 383.722656 482.863281 382.847656 481.113281 C 381.976562 479.539062 375.519531 463.449219 372.726562 456.804688 C 370.109375 450.507812 367.316406 451.382812 365.398438 451.207031 C 363.480469 451.03125 361.382812 451.03125 359.117188 451.03125 C 357.023438 451.03125 353.359375 451.90625 350.390625 455.054688 C 347.425781 458.378906 339.046875 466.246094 339.046875 482.339844 C 339.046875 498.429688 350.742188 513.996094 352.3125 516.097656 C 353.882812 518.195312 375.34375 551.25 407.976562 565.417969 C 415.828125 568.742188 421.761719 570.839844 426.472656 572.242188 C 434.324219 574.6875 441.304688 574.339844 447.0625 573.464844 C 453.347656 572.589844 466.257812 565.59375 469.050781 557.898438 C 471.84375 550.203125 471.84375 543.730469 470.972656 542.332031 C 470.273438 541.457031 468.003906 540.582031 464.863281 539.007812 Z M 464.863281 539.007812" fill-rule="evenodd"/></g></svg>