<?xml version="1.0" encoding="UTF-8"?>
<svg width="533px" height="767px" viewBox="0 0 533 767" version="1.1" xmlns="http://www.w3.org/2000/svg" xmlns:xlink="http://www.w3.org/1999/xlink">
    <!-- Generator: Sketch 54.1 (76490) - https://sketchapp.com -->
    <title>Plastic-free_GPS</title>
    <desc>Created with Sketch.</desc>
    <defs>
        <polygon id="path-1" points="0.375 0.199219 507 0.199219 507 767 0.375 767"></polygon>
        <polygon id="path-3" points="0 0 512.875 0 512.875 752 0 752"></polygon>
        <polygon id="path-5" points="0.960938 0 262.710938 0 262.710938 263.859375 0.960938 263.859375"></polygon>
    </defs>
    <g id="Page-1" stroke="none" stroke-width="1" fill="none" fill-rule="evenodd">
        <g id="Plastic-free_GPS" transform="translate(-3.000000, 0.000000)">
            <g id="Clipped">
                <mask id="mask-2" fill="white">
                    <use xlink:href="#path-1"></use>
                </mask>
                <g id="Path"></g>
                <path d="M503.457031,946.453125 L503.460938,900.113281 L0.375,900.113281 L0.375,949.9375 C0.375,991.558594 34.230469,1025.39062 75.882812,1025.39062 L424.265625,1025.39062 C467.964844,1025.39062 503.460938,990.125 503.460938,946.453125 L503.457031,946.453125 Z M429.1875,0.597656 L90.652344,0.597656 C42.4375,0.597656 3.246094,39.765625 3.246094,87.949219 L3.246094,114.605469 L506.328125,114.605469 L506.328125,77.699219 C506.328125,35.046875 471.652344,0.597656 429.183594,0.597656 L429.1875,0.597656 Z M503.457031,877.148438 L3.246094,877.148438 L3.246094,134.691406 L503.25,134.691406 L503.25,877.144531 L503.457031,877.148438 L503.457031,877.148438 Z" id="Shape" fill="#77C1D3" fill-rule="nonzero" mask="url(#mask-2)"></path>
            </g>
            <path d="M369,66.5187458 L369,60.4812542 C369,59.0580821 367.767719,58 366.12988,58 L201.86232,58 C200.220581,58 199,59.0580821 199,60.4812542 L199,66.5187458 C199,67.9317763 200.220581,69 201.86232,69 L366.12988,69 C367.56494,69 369,67.9317763 369,66.5187458 Z M487,767 L24,767 L24,143 L487,143 L487,767 L487,767 Z" id="Shape" fill="#FFFFFF" fill-rule="nonzero"></path>
            <g id="Clipped" transform="translate(23.000000, 15.000000)">
                <mask id="mask-4" fill="white">
                    <use xlink:href="#path-3"></use>
                </mask>
                <g id="Path"></g>
                <path d="M94.941406,9.792969 C47.953125,9.792969 9.796875,47.925781 9.796875,94.886719 L9.796875,916.691406 C9.796875,963.644531 47.953125,1001.78125 94.941406,1001.78125 L418.5,1001.78125 C465.484375,1001.78125 503.644531,963.644531 503.644531,916.691406 L503.644531,94.886719 C503.644531,47.929688 465.484375,9.796875 418.5,9.796875 L94.941406,9.792969 Z M418.5,1010.80469 L94.941406,1010.80469 C43.035156,1010.80469 0.761719,968.566406 0.761719,916.691406 L0.761719,94.886719 C0.761719,43.011719 43.035156,0.769531 94.945312,0.769531 L418.5,0.769531 C470.613281,0.769531 512.878906,43.011719 512.878906,94.890625 L512.878906,916.695312 C512.878906,968.570312 470.613281,1010.80859 418.5,1010.80859 L418.5,1010.80469 Z" id="Shape" fill="#005F89" fill-rule="nonzero" mask="url(#mask-4)"></path>
            </g>
            <path d="M267.835938,353.636719 C204.316406,353.636719 153.015625,405.058594 153.015625,468.722656 C153.015625,491.109375 159.472656,511.925781 170.464844,529.589844 L157.726562,579.960938 L210.425781,568.246094 C227.351562,578.039062 246.894531,583.636719 267.835938,583.636719 C331.351562,583.636719 382.65625,532.039062 382.65625,468.546875 C382.65625,405.058594 331.351562,353.636719 267.835938,353.636719 Z" id="Path" fill="#FFFFFF"></path>
            <g id="Clipped" transform="translate(136.000000, 338.000000)">
                <mask id="mask-6" fill="white">
                    <use xlink:href="#path-5"></use>
                </mask>
                <g id="Path"></g>
                <path d="M224.496094,38.375 C199.890625,13.710938 167.257812,0.070312 132.359375,0.070312 C60.464844,0.070312 2.007812,58.664062 2.007812,130.722656 C2.007812,153.8125 7.941406,176.199219 19.457031,195.960938 L0.960938,263.652344 L70.0625,245.460938 C89.082031,255.957031 110.546875,261.378906 132.359375,261.378906 C204.253906,261.378906 262.710938,202.785156 262.710938,130.722656 C262.710938,95.917969 249.097656,63.035156 224.496094,38.375 Z M132.359375,239.339844 C112.816406,239.339844 93.792969,234.09375 77.214844,224.121094 L73.203125,221.847656 L32.195312,232.691406 L43.1875,192.640625 L40.570312,188.617188 C29.753906,171.300781 23.996094,151.363281 23.996094,130.898438 C23.996094,71.082031 72.679688,22.28125 132.359375,22.28125 C161.324219,22.28125 188.546875,33.652344 208.964844,54.113281 C229.378906,74.578125 240.722656,101.863281 240.722656,130.898438 C240.722656,190.539062 192.039062,239.339844 132.359375,239.339844 Z M191.863281,158.007812 C188.546875,156.433594 172.667969,148.5625 169.527344,147.339844 C166.5625,146.289062 164.292969,145.765625 162.199219,148.914062 C160.105469,152.238281 153.820312,159.582031 151.902344,161.679688 C149.984375,163.78125 148.0625,164.128906 144.921875,162.554688 C141.605469,160.980469 131.136719,157.484375 118.746094,146.289062 C109.148438,137.71875 102.519531,126.875 100.601562,123.726562 C98.679688,120.402344 100.425781,118.65625 101.996094,117.082031 C103.390625,115.679688 105.3125,113.234375 106.882812,111.308594 C108.453125,109.382812 108.976562,107.984375 110.195312,105.886719 C111.246094,103.789062 110.722656,101.863281 109.847656,100.113281 C108.976562,98.539062 102.519531,82.449219 99.726562,75.804688 C97.109375,69.507812 94.316406,70.382812 92.398438,70.207031 C90.480469,70.03125 88.382812,70.03125 86.117188,70.03125 C84.023438,70.03125 80.359375,70.90625 77.390625,74.054688 C74.425781,77.378906 66.046875,85.246094 66.046875,101.339844 C66.046875,117.429688 77.742188,132.996094 79.3125,135.097656 C80.882812,137.195312 102.34375,170.25 134.976562,184.417969 C142.828125,187.742188 148.761719,189.839844 153.472656,191.242188 C161.324219,193.6875 168.304688,193.339844 174.0625,192.464844 C180.347656,191.589844 193.257812,184.59375 196.050781,176.898438 C198.84375,169.203125 198.84375,162.730469 197.972656,161.332031 C197.273438,160.457031 195.003906,159.582031 191.863281,158.007812 Z" id="Shape" fill="#77C1D3" mask="url(#mask-6)"></path>
            </g>
        </g>
    </g>
</svg>