<?xml version="1.0"?>
<svg xmlns="http://www.w3.org/2000/svg" xmlns:xlink="http://www.w3.org/1999/xlink" xmlns:svgjs="http://svgjs.com/svgjs" version="1.1" width="512" height="512" x="0" y="0" viewBox="0 0 512 512" style="enable-background:new 0 0 512 512" xml:space="preserve" class=""><g><g xmlns="http://www.w3.org/2000/svg"><path d="m406 286-181 135 31.601 91c2.999-.3 5.999-2.201 8.399-4.001l230.4-172.798c2.401-1.802 4.2-4.501 5.101-7.202z" fill="#dfe7f4" data-original="#dfe7f4" class=""/><g id="Sticker_5_"><g><path d="m500.501 327.999c6.901-23.101 11.499-47.699 11.499-71.999 0-140.7-115.3-256-256-256s-256 115.3-256 256 115.3 256 256 256c.3 0 .3-1 .601-1-1.8-20.7.3-41.1 5.4-60l26.296-183.043 153.103 48.043c20.7.599 40.799 4.799 59.101 11.999" fill="#f6fdff" data-original="#fed843" class=""/></g></g><path d="m256.601 511c-1.8-20.7.3-41.1 5.4-60l26.296-183.043 153.103 48.043c20.7.599 40.8 4.799 59.101 11.999 6.901-23.101 11.499-47.699 11.499-71.999 0-140.7-115.3-256-256-256v512c.3 0 .3-1 .601-1z" fill="#e6faff" data-original="#fabe2c" class=""/><g><path d="m451 256c0 20.7-3.3 41.1-9.6 60h-5.4c-83.699 0-154.2 57.299-174 135h-6c-107.401 0-195-87.601-195-195 0-107.401 87.599-195 195-195s195 87.599 195 195z" fill="#95cbda" data-original="#ff6c6c" class=""/></g><path d="m262 451c19.799-77.701 90.3-135 174-135h5.4c6.301-18.9 9.6-39.3 9.6-60 0-107.401-87.599-195-195-195v390z" fill="#77c1d3" data-original="#e63950" class=""/><g><path d="m299.652 338.939-43.652-22.675-43.652 22.676c-5.01 2.593-11.162 2.168-15.732-1.172-4.6-3.34-6.914-8.994-5.977-14.59l8.027-48.56-35.039-34.526c-4.043-3.999-5.508-9.932-3.75-15.322 1.758-5.405 6.416-9.36 12.041-10.21l48.662-7.31 22.002-44.019c5.098-10.166 21.738-10.166 26.836 0l22.002 44.019 48.662 7.31c5.625.85 10.283 4.805 12.041 10.21 1.758 5.391.293 11.323-3.75 15.322l-35.039 34.526 8.027 48.56c.938 5.596-1.377 11.25-5.977 14.59-4.568 3.311-10.68 3.799-15.732 1.171z" fill="#f6fdff" data-original="#fed843" class=""/></g><path d="m299.652 338.939c5.052 2.628 11.164 2.139 15.732-1.172 4.6-3.34 6.914-8.994 5.977-14.59l-8.027-48.56 35.039-34.526c4.043-3.999 5.508-9.932 3.75-15.322-1.758-5.405-6.416-9.36-12.041-10.21l-48.662-7.31-22.002-44.019c-2.549-5.083-7.983-7.625-13.418-7.625v160.657z" fill="#e6faff" data-original="#fabe2c" class=""/></g></g></svg>
