<svg enable-background="new 0 0 512 512" viewBox="0 0 512 512" xmlns="http://www.w3.org/2000/svg"><path d="m0 512 35.31-128c-22.951-39.724-35.31-83.862-35.31-129.766 0-139.475 114.759-254.234 255.117-254.234s256.883 114.759 256.883 254.234-116.524 257.766-256.883 257.766c-44.138 0-86.51-14.124-124.469-35.31z" fill="#ededed"/><path d="m137.71 430.786 7.945 4.414c32.662 20.303 70.621 32.662 110.345 32.662 115.641 0 211.862-96.221 211.862-213.628s-96.221-210.096-212.745-210.096-210.979 93.572-210.979 210.096c0 40.607 11.476 80.331 32.662 113.876l5.297 7.945-20.303 74.152z" fill="#55cd6c"/><path d="m187.145 135.945-16.772-.883c-5.297 0-10.593 1.766-14.124 5.297-7.945 7.062-21.186 20.303-24.717 37.959-6.179 26.483 3.531 58.262 26.483 90.041s67.09 82.979 144.772 105.048c24.717 7.062 44.138 2.648 60.028-7.062 12.359-7.945 20.303-20.303 22.952-33.545l2.648-12.359c.883-3.531-.883-7.945-4.414-9.71l-55.614-25.6c-3.531-1.766-7.945-.883-10.593 2.648l-22.069 28.248c-1.766 1.766-4.414 2.648-7.062 1.766-15.007-5.297-65.324-26.483-92.69-79.448-.883-2.648-.883-5.297.883-7.062l21.186-23.834c1.766-2.648 2.648-6.179 1.766-8.828l-25.6-57.379c-.884-2.649-3.532-5.297-7.063-5.297" fill="#fefefe"/></svg>