<svg xmlns="http://www.w3.org/2000/svg" width="1080" viewBox="0 0 810 810" height="1080" version="1"><defs><clipPath id="a"><path d="M191 23.902h428v510H191zm0 0"/></clipPath></defs><path fill="#FFF" d="M-81 -81H891V891H-81z"/><path fill="#FFF" d="M-81 -81H891V891H-81z"/><path fill="#FFF" d="M-81 -81H891V891H-81z"/><path fill="#FFF" d="M-81 -81H891V891H-81z"/><path fill="#4DD171" d="M404.887 151.402c-1.39 0-2.782.036-4.172.102a86.173 86.173 0 0 0-12.41 1.531 90.247 90.247 0 0 0-4.075.914c-1.347.34-2.687.711-4.02 1.113a86.98 86.98 0 0 0-3.96 1.31 82.405 82.405 0 0 0-3.89 1.503 85.094 85.094 0 0 0-3.817 1.688 87.465 87.465 0 0 0-7.356 3.933 86.399 86.399 0 0 0-6.937 4.633 90.67 90.67 0 0 0-3.29 2.57 84.09 84.09 0 0 0-6.18 5.602 80.723 80.723 0 0 0-2.874 3.02 83.594 83.594 0 0 0-2.726 3.16 86.319 86.319 0 0 0-4.969 6.7 84.866 84.866 0 0 0-6.164 10.881 85.014 85.014 0 0 0-1.692 3.813 85.202 85.202 0 0 0-2.808 7.855 79.475 79.475 0 0 0-1.113 4.02 80.551 80.551 0 0 0-.914 4.07 81.372 81.372 0 0 0-.715 4.11 87.415 87.415 0 0 0-.512 4.14 87.374 87.374 0 0 0-.305 4.164 82.332 82.332 0 0 0-.101 4.168c0 1.391.031 2.782.101 4.172.067 1.39.172 2.778.309 4.16.133 1.387.305 2.766.508 4.141s.441 2.746.715 4.11c.27 1.367.574 2.722.914 4.074a80.626 80.626 0 0 0 1.113 4.02c.402 1.331.84 2.651 1.308 3.96a85.16 85.16 0 0 0 5.066 11.434 80.927 80.927 0 0 0 2.06 3.629 82.347 82.347 0 0 0 2.23 3.523 83.653 83.653 0 0 0 4.969 6.703 80.52 80.52 0 0 0 2.726 3.156 83.98 83.98 0 0 0 2.875 3.024 83.98 83.98 0 0 0 3.024 2.875 80.52 80.52 0 0 0 3.156 2.726 83.654 83.654 0 0 0 6.703 4.969 82.35 82.35 0 0 0 3.524 2.23 83.03 83.03 0 0 0 7.355 3.934 85.16 85.16 0 0 0 15.687 5.613 86.014 86.014 0 0 0 8.184 1.629c1.375.204 2.754.375 4.14.508 1.384.137 2.77.242 4.16.309 1.391.07 2.782.101 4.173.101 1.39 0 2.781-.03 4.168-.101a82.554 82.554 0 0 0 4.164-.309 82.57 82.57 0 0 0 8.25-1.222 80.552 80.552 0 0 0 4.07-.915 79.475 79.475 0 0 0 4.02-1.113 85.202 85.202 0 0 0 7.855-2.809 85.013 85.013 0 0 0 7.54-3.566 84.868 84.868 0 0 0 22.914-17.883 80.422 80.422 0 0 0 2.722-3.156 90.672 90.672 0 0 0 2.57-3.289 79.892 79.892 0 0 0 2.399-3.414 82.43 82.43 0 0 0 2.234-3.523 87.464 87.464 0 0 0 3.934-7.355 85.095 85.095 0 0 0 1.687-3.817 82.404 82.404 0 0 0 1.504-3.89 86.98 86.98 0 0 0 1.309-3.962 90.05 90.05 0 0 0 1.113-4.02c.336-1.351.64-2.706.914-4.074a85.987 85.987 0 0 0 1.531-12.41c.067-1.39.102-2.781.102-4.172 0-1.39-.035-2.78-.102-4.168a87.386 87.386 0 0 0-.308-4.164 85.987 85.987 0 0 0-1.223-8.25 90.083 90.083 0 0 0-.914-4.07 88.615 88.615 0 0 0-1.113-4.02 86.98 86.98 0 0 0-1.309-3.96 80.93 80.93 0 0 0-1.504-3.895 84.949 84.949 0 0 0-1.687-3.813 87.464 87.464 0 0 0-3.934-7.359 84.954 84.954 0 0 0-2.234-3.523 82.315 82.315 0 0 0-4.97-6.7 83.49 83.49 0 0 0-5.6-6.18 83.49 83.49 0 0 0-6.18-5.602 87.392 87.392 0 0 0-3.29-2.57 86.319 86.319 0 0 0-3.41-2.401 89.175 89.175 0 0 0-3.523-2.23 87.476 87.476 0 0 0-7.36-3.935 84.948 84.948 0 0 0-3.812-1.687 80.93 80.93 0 0 0-3.894-1.504 86.98 86.98 0 0 0-3.961-1.309 88.614 88.614 0 0 0-4.02-1.113 90.083 90.083 0 0 0-4.07-.914 85.988 85.988 0 0 0-12.414-1.531 87.166 87.166 0 0 0-4.168-.102zm0 127.5a42.413 42.413 0 0 1-16.266-3.234 42.47 42.47 0 0 1-16.59-12.305 42.398 42.398 0 0 1-8.828-18.668 42.178 42.178 0 0 1-.816-8.293 42.334 42.334 0 0 1 1.828-12.336c.406-1.332.875-2.64 1.406-3.925a42.067 42.067 0 0 1 3.926-7.348 42.461 42.461 0 0 1 5.285-6.441 42.029 42.029 0 0 1 3.094-2.801 42.398 42.398 0 0 1 14.62-7.817 42.561 42.561 0 0 1 4.048-1.015 43.383 43.383 0 0 1 4.125-.61 42.417 42.417 0 0 1 4.168-.207 43.016 43.016 0 0 1 8.29.816c1.366.274 2.714.61 4.046 1.016a42.259 42.259 0 0 1 11.273 5.332 42.462 42.462 0 0 1 17.059 23 42.267 42.267 0 0 1 1.625 8.172c.136 1.383.207 2.774.207 4.164 0 1.395-.07 2.782-.207 4.168a43.383 43.383 0 0 1-.61 4.125 42.561 42.561 0 0 1-1.015 4.047 42.259 42.259 0 0 1-5.332 11.274 42.397 42.397 0 0 1-2.485 3.347 42.028 42.028 0 0 1-2.8 3.094 42.462 42.462 0 0 1-6.441 5.285 42.068 42.068 0 0 1-7.348 3.926 42.249 42.249 0 0 1-7.973 2.418 42.334 42.334 0 0 1-8.29.816zm0 0"/><g clip-path="url(#a)"><path fill="#4DD171" d="M404.887 533.902a111.809 111.809 0 0 1-26.477-3.035 111.917 111.917 0 0 1-25.012-9.203 112.472 112.472 0 0 1-11.507-6.766c-3.7-2.484-7.243-5.18-10.621-8.086a111.496 111.496 0 0 1-9.582-9.292 111.509 111.509 0 0 1-8.41-10.368c-80.985-111.71-122.06-195.691-122.06-249.62 0-3.497.087-6.993.262-10.485a212.616 212.616 0 0 1 3.86-31.188 212.42 212.42 0 0 1 2.3-10.226 213.394 213.394 0 0 1 9.871-29.84 220.423 220.423 0 0 1 4.25-9.582 214.08 214.08 0 0 1 21.54-35.91 213.604 213.604 0 0 1 20.535-23.79 213.927 213.927 0 0 1 7.594-7.23 213.518 213.518 0 0 1 7.941-6.844 212.216 212.216 0 0 1 16.84-12.484 212.795 212.795 0 0 1 27.348-15.484c3.16-1.496 6.355-2.91 9.582-4.25a213.231 213.231 0 0 1 9.785-3.77 211.83 211.83 0 0 1 9.953-3.289 216.141 216.141 0 0 1 10.105-2.797c3.391-.847 6.801-1.613 10.23-2.297 3.427-.68 6.872-1.277 10.329-1.789a211.314 211.314 0 0 1 20.863-2.054 213.01 213.01 0 0 1 20.961 0 211.743 211.743 0 0 1 20.86 2.055c3.46.511 6.902 1.109 10.332 1.788a213.518 213.518 0 0 1 30.29 8.383c3.288 1.176 6.55 2.434 9.78 3.77a213.94 213.94 0 0 1 18.95 8.96 218.007 218.007 0 0 1 9.124 5.165 213.954 213.954 0 0 1 48.465 39.758 213.502 213.502 0 0 1 6.848 7.937 212.19 212.19 0 0 1 12.492 16.832 215.359 215.359 0 0 1 5.613 8.856 216.051 216.051 0 0 1 9.887 18.484 215.855 215.855 0 0 1 4.254 9.582 214.898 214.898 0 0 1 9.867 29.84 212.42 212.42 0 0 1 2.3 10.226c.684 3.43 1.286 6.871 1.798 10.328.515 3.458.945 6.926 1.289 10.407.343 3.476.601 6.965.777 10.453.172 3.492.258 6.988.262 10.484 0 53.93-41.078 137.91-122.059 249.621a112.146 112.146 0 0 1-8.41 10.368 112.114 112.114 0 0 1-31.715 24.144 111.438 111.438 0 0 1-12.23 5.348 111.854 111.854 0 0 1-25.926 6.164c-4.43.508-8.871.75-13.328.726zm0-463.652c-2.739.004-5.473.074-8.207.21-2.735.138-5.465.34-8.188.614a166.54 166.54 0 0 0-16.234 2.422 164.805 164.805 0 0 0-8.012 1.805 168.147 168.147 0 0 0-7.91 2.195 163.881 163.881 0 0 0-7.793 2.582c-2.578.922-5.129 1.91-7.66 2.961a166.589 166.589 0 0 0-21.977 11.074 161.96 161.96 0 0 0-6.933 4.395 164.371 164.371 0 0 0-6.711 4.726 168.285 168.285 0 0 0-18.637 16.079 173.006 173.006 0 0 0-5.66 5.945 168.997 168.997 0 0 0-10.414 12.687 170.06 170.06 0 0 0-4.73 6.711 172.92 172.92 0 0 0-4.395 6.938 171.13 171.13 0 0 0-4.051 7.14c-1.29 2.414-2.52 4.86-3.691 7.332a168.287 168.287 0 0 0-6.293 15.16 165.463 165.463 0 0 0-2.578 7.797 166.884 166.884 0 0 0-2.2 7.91 175.562 175.562 0 0 0-1.804 8.008 167.923 167.923 0 0 0-3.246 32.629c0 42.715 40.226 121.7 113.242 222.407a66.08 66.08 0 0 0 2.406 3.113 66.752 66.752 0 0 0 5.34 5.785c.949.91 1.922 1.79 2.918 2.645 1 .851 2.02 1.675 3.066 2.468a67.269 67.269 0 0 0 10 6.266 68.838 68.838 0 0 0 3.559 1.684 68.54 68.54 0 0 0 3.652 1.472c1.23.453 2.477.871 3.734 1.254 1.254.379 2.52.723 3.797 1.031a68.189 68.189 0 0 0 7.75 1.383c1.305.156 2.614.27 3.922.348a66.253 66.253 0 0 0 11.793-.348 68.188 68.188 0 0 0 7.75-1.383 70.858 70.858 0 0 0 3.801-1.03 67.24 67.24 0 0 0 14.398-6.3 67.156 67.156 0 0 0 3.336-2.095 66.682 66.682 0 0 0 9.191-7.395 66.89 66.89 0 0 0 2.759-2.813c.89-.964 1.75-1.957 2.586-2.972a68.802 68.802 0 0 0 2.406-3.113C531.98 359.27 572.207 280.285 572.207 237.57a168.931 168.931 0 0 0-.82-16.395c-.274-2.722-.61-5.437-1.016-8.144a166.697 166.697 0 0 0-3.215-16.097 166.845 166.845 0 0 0-4.777-15.707 168.229 168.229 0 0 0-2.957-7.657 167.09 167.09 0 0 0-11.078-21.977 164.569 164.569 0 0 0-4.395-6.937 169.964 169.964 0 0 0-4.726-6.71 168.158 168.158 0 0 0-5.055-6.47 165.322 165.322 0 0 0-5.363-6.218 165.784 165.784 0 0 0-5.66-5.945 168.875 168.875 0 0 0-12.16-11.023 168.284 168.284 0 0 0-6.473-5.056 169.965 169.965 0 0 0-6.711-4.726 164.568 164.568 0 0 0-6.938-4.395 166.816 166.816 0 0 0-21.976-11.074 163.818 163.818 0 0 0-7.657-2.96 166.844 166.844 0 0 0-23.715-6.582 165.871 165.871 0 0 0-8.09-1.411 163.194 163.194 0 0 0-8.144-1.012 164.137 164.137 0 0 0-8.187-.613 169.113 169.113 0 0 0-8.207-.211zm0 0"/></g><path d="M175.861 770.653c-4.531 0-8.45-1.39-11.75-4.172-.45-.406-.672-.926-.672-1.563 0-.476.145-.925.438-1.343.3-.407.71-.625 1.234-.657.52-.039.961.125 1.328.5 2.645 2.262 5.656 3.391 9.031 3.391 2.602 0 4.786-.941 6.547-2.828 1.77-1.895 2.657-4.375 2.657-7.438 0-3.07-.813-5.488-2.438-7.25-1.617-1.77-3.797-2.656-6.547-2.656-1.969 0-3.902.578-5.797 1.735-.437.261-.87.39-1.297.39-.43 0-.851-.129-1.265-.39-.856-.52-1.242-1.282-1.156-2.282l1-14.656c.03-.937.39-1.719 1.078-2.344.687-.633 1.492-.953 2.422-.953h14.656c.562 0 1.035.2 1.422.594.394.387.593.86.593 1.422 0 .554-.199 1.027-.593 1.422a1.93 1.93 0 0 1-1.422.578h-13.422c-.305 0-.453.152-.453.453l-1.047 11.812c-.043.075-.027.137.047.188.07.055.144.062.219.031 1.968-1.039 4.03-1.562 6.187-1.562 3.676 0 6.676 1.125 9 3.375 2.32 2.25 3.484 5.562 3.484 9.937 0 2.938-.652 5.516-1.953 7.735-1.293 2.21-2.953 3.851-4.984 4.921-2.024 1.07-4.203 1.61-6.547 1.61zm0 0" fill="#4DD171"/><path d="M214.583 728.137c0-.289-.133-.437-.39-.437h-12.25c-.262 0-.391.148-.391.437v4.297c0 .262.129.39.39.39h12.25c.258 0 .391-.128.391-.39zm-13.031 12.485c0 .304.129.453.39.453h12.25c.258 0 .391-.149.391-.453v-4.516c0-.258-.133-.39-.39-.39h-12.25c-.262 0-.391.132-.391.39zm16.656.109c0 .93-.328 1.71-.984 2.344-.649.636-1.414.953-2.297.953h-12.984c-.262 0-.391.148-.391.437v27.969c0 .488-.188.914-.563 1.281a1.774 1.774 0 0 1-1.312.563c-.5 0-.938-.188-1.313-.563-.367-.367-.546-.793-.546-1.281v-44.406c0-.895.32-1.664.968-2.313.657-.644 1.426-.968 2.313-.968h13.828c.883 0 1.648.324 2.297.968.656.649.984 1.418.984 2.313zm9.64 11.14c0-.289-.148-.437-.437-.437h-13.156c-.293 0-.437.148-.437.438v4.75c0 .292.144.437.437.437h13.156c.29 0 .438-.145.438-.437zm-14.03 13.61c0 .262.144.39.437.39h13.156c.29 0 .438-.128.438-.39v-5.078c0-.258-.149-.39-.438-.39h-13.156c-.293 0-.437.132-.437.39zm17.546.156c0 .899-.32 1.672-.953 2.328-.625.649-1.402.969-2.328.969h-13.937c-.219 0-.328.094-.328.281v.89c0 .438-.172.833-.516 1.188a1.628 1.628 0 0 1-1.219.532c-.48 0-.89-.18-1.234-.532-.336-.355-.5-.75-.5-1.187v-18.344c0-.883.316-1.648.953-2.297.633-.656 1.414-.984 2.344-.984h14.437c.926 0 1.703.328 2.328.984.633.649.953 1.414.953 2.297zm-4.187-24.953c0 .293.129.438.39.438h12.657c.258 0 .39-.145.39-.438v-4.578c0-.258-.132-.39-.39-.39h-12.656c-.262 0-.391.132-.391.39zm13.437-12.547c0-.289-.132-.437-.39-.437h-12.656c-.262 0-.391.148-.391.437v4.297c0 .262.129.39.39.39h12.657c.258 0 .39-.128.39-.39zm.5-3.39c.895 0 1.665.324 2.313.968.645.649.969 1.418.969 2.313v41.015c0 1.258-.188 2.235-.563 2.922-.367.688-.976 1.219-1.828 1.594-1.23.445-3.719.672-7.469.672-.554 0-1.062-.188-1.53-.563a2.98 2.98 0 0 1-.97-1.453c-.156-.449-.105-.867.157-1.25.257-.386.613-.562 1.062-.531h3.234a68.1 68.1 0 0 0 2.782-.047c.52-.043.875-.156 1.062-.344.188-.187.281-.52.281-1v-24.515c0-.301-.132-.453-.39-.453h-13.438c-.886 0-1.656-.313-2.312-.938-.649-.633-.969-1.414-.969-2.344v-12.765c0-.895.32-1.664.969-2.313.656-.644 1.426-.968 2.312-.968zm0 0" fill="#4DD171"/><path d="M292.377 731.09c.258 0 .39-.144.39-.437V727.2c0-.258-.132-.391-.39-.391h-28.531c-.262 0-.39.133-.39.39v3.454c0 .293.128.437.39.437zm0 6.969c.258 0 .39-.148.39-.453v-3.453c0-.258-.132-.39-.39-.39h-28.531c-.262 0-.39.132-.39.39v3.453c0 .305.128.453.39.453zm.844-13.984c.883 0 1.648.32 2.297.953.656.625.984 1.402.984 2.328v10.203c0 .898-.328 1.668-.984 2.313-.649.648-1.414.968-2.297.968h-30.156c-.887 0-1.656-.32-2.313-.968-.648-.645-.968-1.415-.968-2.313v-10.203c0-.926.32-1.703.968-2.328.657-.633 1.426-.953 2.313-.953zm-21.297 27.468c.3 0 .453-.129.453-.39v-3.344c0-.258-.152-.39-.453-.39h-9.969c-.304 0-.453.132-.453.39v3.344c0 .261.149.39.453.39zm-10.422 14.594c0 .305.149.434.453.39l9.97-1.109c.3-.03.452-.175.452-.437v-2.906c0-.258-.152-.391-.453-.391h-9.969c-.304 0-.453.133-.453.39zm.453-11.687c-.304 0-.453.148-.453.437v3.453c0 .262.149.39.453.39h9.97c.3 0 .452-.128.452-.39v-3.453c0-.289-.152-.437-.453-.437zm40.454-9.782c.3.313.453.696.453 1.141 0 .45-.153.828-.453 1.14a1.458 1.458 0 0 1-1.11.47h-24.86c-.292 0-.437.132-.437.39v24.578c0 .52-.18.957-.531 1.313a1.758 1.758 0 0 1-1.281.53c-.5 0-.93-.179-1.281-.53a1.782 1.782 0 0 1-.532-1.313v-3.515c0-.29-.152-.422-.453-.391-8.168 1.086-13.945 1.828-17.328 2.234a2.008 2.008 0 0 1-1.281-.328 1.834 1.834 0 0 1-.61-1.406c0-.363.11-.695.329-1 .3-.363.69-.567 1.171-.61l3.407-.328c.289-.039.437-.21.437-.515v-18.719c0-.258-.148-.39-.437-.39h-3.016a1.55 1.55 0 0 1-1.14-.47 1.55 1.55 0 0 1-.47-1.14c0-.445.157-.828.47-1.14.312-.32.69-.485 1.14-.485h46.703c.445 0 .817.164 1.11.484zm-6.125 10c.03-.07.019-.156-.032-.25a.269.269 0 0 0-.25-.14h-11.64a.298.298 0 0 0-.266.14c-.055.094-.059.18-.016.25 1.301 3.043 3.118 5.793 5.454 8.25.187.18.375.18.562 0 2.633-2.457 4.695-5.207 6.188-8.25zm1.28-3.453c1 0 1.782.11 2.345.328.332.149.57.383.718.704.145.312.164.62.063.921-1.719 4.563-4.375 8.575-7.969 12.032-.23.187-.23.375 0 .562 2.82 2.149 6.035 3.777 9.64 4.89.407.157.68.438.829.845.039.113.062.242.062.39 0 .258-.093.5-.281.719a3.133 3.133 0 0 1-1.344.953 1.962 1.962 0 0 1-.781.172c-.262 0-.523-.059-.781-.172-3.75-1.305-7.074-3.164-9.969-5.578-.219-.188-.445-.188-.672 0-2.898 2.113-6.11 3.86-9.64 5.234-.481.188-.965.188-1.454 0a2.673 2.673 0 0 1-1.218-.937 1.332 1.332 0 0 1-.22-.735c0-.148.017-.293.048-.437.113-.406.375-.688.781-.844a35.512 35.512 0 0 0 9.203-4.734c.219-.145.235-.313.047-.5-2.23-2.489-4.031-5.18-5.406-8.078-.219-.52-.211-1.04.031-1.563.238-.52.64-.851 1.203-1 .031 0 .047-.015.047-.047 0-.039-.016-.062-.047-.062h-3.187a1.53 1.53 0 0 1-1.11-.438 1.506 1.506 0 0 1-.437-1.093c0-.426.144-.786.437-1.079.301-.3.672-.453 1.11-.453zm0 0" fill="#4DD171"/><path d="M359.468 731.762c.219.45.254.906.11 1.375a1.66 1.66 0 0 1-.891 1.016c-.45.23-.899.273-1.344.125-.437-.156-.773-.457-1-.906-1.187-2.227-2.781-4.438-4.781-6.625a1.095 1.095 0 0 1-.344-1.047c.07-.414.297-.72.672-.907a2.459 2.459 0 0 1 1.11-.28c.519 0 1.023.226 1.515.671 1.969 2.117 3.617 4.309 4.953 6.578zm-24.578-2.125c.488 0 .906.172 1.25.516.352.336.531.742.531 1.219 0 .48-.18.898-.531 1.25a1.675 1.675 0 0 1-1.25.53h-23.281c-.492 0-.914-.175-1.266-.53a1.7 1.7 0 0 1-.531-1.25c0-.477.176-.883.531-1.22a1.746 1.746 0 0 1 1.266-.515h9.515c.258 0 .391-.125.391-.375v-5.14c0-.52.188-.961.563-1.329a1.83 1.83 0 0 1 1.343-.562c.52 0 .961.187 1.328.562.375.368.563.809.563 1.329v5.14c0 .25.129.375.39.375zm-21.219 27.766c.145-.489.43-.864.86-1.125a1.857 1.857 0 0 1 1.359-.25c.488.094.86.355 1.11.781.257.43.316.883.171 1.36-1.117 3.867-2.601 7.265-4.453 10.203-.262.406-.64.64-1.14.703-.5.054-.938-.067-1.313-.36-.406-.3-.648-.691-.719-1.172a.955.955 0 0 1-.062-.343c0-.332.11-.645.328-.938 1.562-2.344 2.848-5.297 3.86-8.86zm3.219-16.328c-.293 0-.437.132-.437.39v7.344c0 .262.144.39.437.39h13.047c.258 0 .39-.128.39-.39v-7.344c0-.258-.132-.39-.39-.39zM334 749.2c0 .898-.329 1.672-.985 2.328-.648.648-1.414.969-2.297.969h-5.015c-.262 0-.391.132-.391.39v16.938c0 1-.121 1.77-.36 2.312-.242.54-.714.957-1.421 1.25-.93.406-2.715.61-5.36.61-.523 0-.996-.168-1.422-.5a2.679 2.679 0 0 1-.906-1.282 1.284 1.284 0 0 1 .156-1.11c.227-.335.547-.5.954-.5h3.843c.594-.042.89-.323.89-.843v-16.875c0-.258-.132-.39-.39-.39h-5.062c-.938 0-1.727-.32-2.36-.97a3.258 3.258 0 0 1-.937-2.327v-8.125c0-.895.312-1.664.937-2.313.633-.656 1.422-.984 2.36-.984h14.484c.883 0 1.649.328 2.297.984.656.649.984 1.418.984 2.313zm1.28 13.937c.157.45.13.887-.077 1.313a1.86 1.86 0 0 1-.97.922c-.448.148-.882.12-1.296-.079a1.615 1.615 0 0 1-.828-.984 42.315 42.315 0 0 0-2.781-6.578 1.398 1.398 0 0 1-.172-.672c0-.145.035-.312.109-.5.145-.406.406-.664.781-.781a1.74 1.74 0 0 1 1.328-.031c.446.167.786.46 1.016.875a39.823 39.823 0 0 1 2.89 6.515zm17.673 7.188h2.562a9.43 9.43 0 0 0 1.172-.063c.52-.105.926-.363 1.219-.781.226-.25.379-.582.453-1 .144-1 .219-2.766.219-5.297 0-.332.156-.582.468-.75.32-.164.63-.156.922.031 1.04.524 1.563 1.266 1.563 2.235 0 2.636-.168 4.656-.5 6.062-.336 1.156-.965 1.992-1.891 2.516-.824.445-1.937.672-3.344.672h-3.734c-1.45 0-2.637-.32-3.563-.953-.523-.407-.87-.907-1.046-1.5-.168-.594-.25-1.579-.25-2.954V750.59s-.012-.004-.032-.015c-.011-.02-.015-.016-.015.015-1.825 9.149-5.559 16.617-11.203 22.407-.375.375-.844.566-1.407.578a2.25 2.25 0 0 1-1.484-.47c-.492-.292-.734-.718-.734-1.28 0-.368.148-.7.453-1 7.02-7.094 10.957-16.899 11.812-29.422 0-.258-.133-.39-.39-.39h-6.125c-.524 0-.954-.177-1.297-.532a1.787 1.787 0 0 1-.5-1.281c0-.5.164-.926.5-1.282.343-.351.773-.53 1.297-.53h6.296c.258 0 .391-.13.391-.391.031-.739.047-1.833.047-3.282v-9.64c0-.52.18-.957.547-1.313a1.863 1.863 0 0 1 1.312-.531c.508 0 .946.18 1.313.531.375.356.562.793.562 1.313v9.578c0 1.449-.015 2.562-.047 3.344 0 .261.125.39.375.39h10.157c.476 0 .894.18 1.25.531.351.356.53.782.53 1.282s-.179.93-.53 1.28a1.712 1.712 0 0 1-1.25.532h-10.313c-.262 0-.414.133-.453.39-.031.93-.086 1.673-.156 2.235 0 .18.086.266.265.266a2.23 2.23 0 0 1 1.625.672c.446.449.672.992.672 1.625v22.672c0 .523.203.898.61 1.125.406.218.96.328 1.672.328zm0 0" fill="#4DD171"/><path d="M403.215 743.137c0-.258-.152-.39-.453-.39H391.45c-.262 0-.407.132-.438.39-.45 8.574-2.68 15.387-6.687 20.438-.305.375-.7.558-1.188.547-.48-.02-.906-.208-1.281-.563a2.055 2.055 0 0 1-.64-1.25 1.83 1.83 0 0 1 .374-1.344 25.292 25.292 0 0 0 3.063-5.156 26.678 26.678 0 0 0 1.812-5.719c.383-1.968.64-3.758.766-5.375.133-1.613.203-3.383.203-5.312v-10.531c0-.708.281-1.266.844-1.672.375-.344.8-.516 1.281-.516.145 0 .313.023.5.063.219.074.441.093.672.062 7.613-1.039 13.723-2.25 18.328-3.625a5.217 5.217 0 0 1 1.281-.172c.895 0 1.711.297 2.453.89.332.305.454.688.36 1.157-.094.461-.36.762-.797.906-5.43 1.524-12.375 2.84-20.844 3.953-.262.043-.39.211-.39.5v8.36c0 .261.128.39.39.39h24.406c.477 0 .895.18 1.25.532.352.355.532.777.532 1.265 0 .48-.18.899-.532 1.25a1.712 1.712 0 0 1-1.25.532h-8.53c-.294 0-.438.132-.438.39V764.7c0 .523-.188.968-.563 1.343a1.852 1.852 0 0 1-1.344.547c-.523 0-.96-.18-1.312-.547a1.916 1.916 0 0 1-.516-1.343zm-24.36-12.156c.376.406.532.883.47 1.422-.055.543-.305.996-.75 1.36-.407.335-.86.464-1.36.39-.5-.07-.918-.313-1.25-.719-1.824-2.156-4.218-4.312-7.187-6.469-.375-.258-.574-.61-.594-1.047-.023-.445.156-.82.531-1.125a2.366 2.366 0 0 1 1.39-.546h.11c.52 0 .989.148 1.407.437 2.968 2.086 5.378 4.184 7.234 6.297zm-3.733 13.656c.925 0 1.707.328 2.343.985.633.648.953 1.414.953 2.296v14.61c0 .261.07.5.22.719 2.706 3.937 7.5 6.015 14.374 6.234 2.04.086 4.602.125 7.688.125h3.453c4.644-.04 8.71-.156 12.203-.344.445-.031.8.137 1.062.5.188.258.282.52.282.781 0 .145-.04.297-.11.454a2.979 2.979 0 0 1-.953 1.437c-.45.375-.969.582-1.562.625-4.68.145-9.024.219-13.032.219-3.199 0-6.187-.059-8.968-.172-3.72-.106-6.883-.688-9.485-1.75a17.22 17.22 0 0 1-6.625-4.766c-.187-.187-.375-.207-.562-.062a157.588 157.588 0 0 1-6.735 5.797c-.449.375-.945.504-1.484.39-.531-.105-.95-.402-1.25-.89a2.605 2.605 0 0 1-.203-1.703c.133-.57.46-1.04.984-1.407 2.04-1.488 4.285-3.273 6.735-5.36.226-.187.343-.41.343-.671v-14.031c0-.258-.152-.39-.453-.39h-5.906c-.523 0-.96-.177-1.312-.532a1.769 1.769 0 0 1-.516-1.281 1.785 1.785 0 0 1 1.828-1.813zm0 0" fill="#4DD171"/><path d="M451.416 755.997c-.262 0-.391.152-.391.453v10.812c0 .262.129.43.39.5 2.82.555 6.313.828 10.47.828 5.35 0 9.179-.015 11.484-.047.445 0 .78.204 1 .61.144.219.218.445.218.672 0 .187-.039.351-.109.5a2.984 2.984 0 0 1-.984 1.39c-.461.375-.965.563-1.516.563h-10.266c-6.761 0-12.312-.89-16.656-2.672-4.273-1.707-7.71-4.867-10.312-9.484-.032-.032-.094-.047-.188-.047s-.164.039-.203.109c-1.93 5.055-4.34 8.953-7.234 11.703-.375.332-.805.5-1.282.5h-.109a2.383 2.383 0 0 1-1.406-.61 1.673 1.673 0 0 1-.5-1.234c0-.449.164-.836.5-1.171 4.758-4.344 7.734-11.196 8.922-20.563.07-.55.32-1.004.75-1.36.425-.35.91-.492 1.453-.421.539.074.976.324 1.312.75.332.43.461.902.39 1.422-.304 1.71-.694 3.57-1.17 5.578a1.17 1.17 0 0 0 .046.781c2.27 5.2 5.86 8.805 10.766 10.813.101.03.191.023.265-.032.082-.05.125-.117.125-.203v-22.5c0-.3-.152-.453-.453-.453h-20.5c-.492 0-.914-.176-1.266-.531a1.73 1.73 0 0 1-.515-1.25c0-.477.172-.895.515-1.25a1.73 1.73 0 0 1 1.266-.531h20.5c.258 0 .39-.149.39-.454v-7.343c0-.301-.132-.453-.39-.453h-15.61c-.511 0-.937-.165-1.28-.5-.337-.333-.5-.75-.5-1.25s.163-.915.5-1.25c.343-.344.769-.516 1.28-.516h15.61c.258 0 .39-.129.39-.39v-4.454c0-.52.192-.973.579-1.36.394-.394.851-.593 1.375-.593.52 0 .972.2 1.36.594.394.386.593.84.593 1.36v4.452c0 .262.129.39.39.39h16.594c.489 0 .899.173 1.235.517.332.335.5.75.5 1.25s-.168.917-.5 1.25c-.336.335-.746.5-1.235.5h-16.593c-.262 0-.391.152-.391.453v7.343c0 .305.129.454.39.454h20.672c.477 0 .895.18 1.25.53.352.356.532.774.532 1.25 0 .481-.18.9-.532 1.25a1.712 1.712 0 0 1-1.25.532h-20.671c-.262 0-.391.152-.391.453v8.469c0 .262.129.39.39.39h16.938c.52 0 .945.168 1.281.5.332.336.5.75.5 1.25s-.168.918-.5 1.25c-.336.336-.761.5-1.28.5zm0 0" fill="#4DD171"/><path d="M500.053 723.965a2.213 2.213 0 0 1 1-1c.301-.156.582-.234.844-.234.188 0 .367.039.547.11.445.116.766.386.953.812.188.43.172.828-.047 1.203-.898 1.562-1.64 2.808-2.234 3.734a2.218 2.218 0 0 1-1.031.797c-.43.168-.868.18-1.313.031a1.075 1.075 0 0 1-.766-.718 1.264 1.264 0 0 1 .094-1.063 72.366 72.366 0 0 0 1.953-3.672zm-9.687 3.39c.176.45.16.872-.047 1.267-.2.386-.523.652-.969.796a1.533 1.533 0 0 1-2-.937 38.378 38.378 0 0 0-1.781-3.734 1.18 1.18 0 0 1-.063-1.063c.157-.375.415-.613.782-.719.187-.039.39-.062.61-.062.226 0 .452.039.67.11a1.7 1.7 0 0 1 1 .843c.75 1.219 1.349 2.387 1.798 3.5zm1.89 15.782c.258 0 .391-.148.391-.453v-8.922c0-.258-.133-.39-.39-.39h-10.094c-.407 0-.774-.157-1.094-.47a1.512 1.512 0 0 1-.469-1.109c0-.425.156-.796.469-1.109.32-.32.687-.484 1.094-.484h24.297c.406 0 .765.164 1.078.484.32.313.484.684.484 1.11 0 .43-.164.796-.484 1.109-.313.312-.672.469-1.078.469h-9.97c-.26 0-.39.132-.39.39v8.922c0 .305.13.453.39.453h5.626c.258 0 .39-.148.39-.453v-5.234a1.5 1.5 0 0 1 .5-1.141c.332-.32.723-.484 1.172-.484.446 0 .828.164 1.14.484.313.313.47.695.47 1.14v9.032c0 .437-.157.82-.47 1.14a1.557 1.557 0 0 1-1.14.47c-.449 0-.84-.157-1.172-.47-.335-.32-.5-.703-.5-1.14v-.063c0-.144-.058-.218-.171-.218h-6.016c-.262 0-.406.132-.438.39-.75 4.867-3.855 8.43-9.312 10.688-.293.117-.59.172-.89.172-.637 0-1.25-.332-1.844-1a1.095 1.095 0 0 1-.25-1.032c.093-.382.328-.656.703-.812 2.593-1 4.504-2.156 5.734-3.469 1.227-1.32 2.031-2.836 2.406-4.547.032-.258-.086-.39-.343-.39h-5.688c-.18 0-.266.093-.266.28v.767c0 .449-.164.835-.484 1.156a1.557 1.557 0 0 1-1.14.469 1.55 1.55 0 0 1-1.141-.47 1.598 1.598 0 0 1-.469-1.155v-9.86c0-.445.156-.816.469-1.11.312-.3.691-.452 1.14-.452.446 0 .829.152 1.141.453.32.293.484.664.484 1.11v5.296c0 .305.125.453.375.453zm33.657-14.781c0-.29-.133-.438-.39-.438H514.71c-.293 0-.438.149-.438.438v4.297c0 .261.145.39.438.39h10.812c.258 0 .39-.129.39-.39zM514.1 740.903c-.043.293.086.437.39.437h11.032c.258 0 .39-.144.39-.437v-4.453c0-.258-.132-.391-.39-.391H514.71c-.293 0-.438.133-.438.39v.72a38.34 38.34 0 0 1-.172 3.734zm11.813 3.906c0-.3-.133-.453-.39-.453h-11.485c-.293 0-.477.133-.547.39-.856 3.825-2.477 6.907-4.86 9.25-.335.336-.761.5-1.28.5-.524 0-1-.144-1.438-.437-.336-.227-.524-.555-.563-.984a1.248 1.248 0 0 1 .39-1.078c2.04-1.97 3.407-4.188 4.095-6.657.687-2.476 1.03-5.222 1.03-8.234v-9.078c0-.895.321-1.664.97-2.313.656-.644 1.425-.968 2.312-.968h12.094c.894 0 1.664.324 2.312.968.657.649.985 1.418.985 2.313v23.469c0 1.03-.133 1.82-.39 2.359-.263.543-.747.96-1.454 1.25-.969.418-2.828.64-5.578.672-.524 0-.996-.164-1.422-.5a2.684 2.684 0 0 1-.906-1.219 1.354 1.354 0 0 1 .156-1.14c.227-.352.547-.516.953-.485h4.063c.375-.031.625-.117.75-.266.132-.156.203-.398.203-.734zm-17.89 23.844c0 .304.128.453.39.453h21.843c.477 0 .883.168 1.22.5.343.332.515.726.515 1.187 0 .47-.172.868-.516 1.204-.336.332-.742.5-1.219.5h-48.03c-.481 0-.891-.168-1.235-.5a1.634 1.634 0 0 1-.5-1.204c0-.46.164-.855.5-1.187.344-.332.754-.5 1.234-.5h21.563c.258 0 .39-.149.39-.453v-5.906c0-.258-.132-.391-.39-.391h-15.72c-.437 0-.82-.164-1.14-.5a1.654 1.654 0 0 1-.468-1.172c0-.445.156-.836.468-1.172.32-.332.703-.5 1.14-.5h15.72c.258 0 .39-.129.39-.39v-1.563c0-.52.18-.96.547-1.328a1.868 1.868 0 0 1 1.375-.563c.54 0 .992.188 1.36.563.375.367.562.808.562 1.328v1.563c0 .261.129.39.39.39h16c.438 0 .813.168 1.126.5.32.336.484.727.484 1.172 0 .45-.164.84-.484 1.172-.313.336-.688.5-1.125.5h-16c-.262 0-.39.133-.39.39zm0 0" fill="#4DD171"/><path d="M561.566 723.793c0-.52.191-.972.578-1.359a1.923 1.923 0 0 1 1.406-.594c.54 0 1.004.2 1.391.594.395.387.594.84.594 1.36v43.75c0 1.406-.211 2.468-.625 3.187-.406.726-1.094 1.258-2.063 1.594-1.367.375-4.242.597-8.625.672a2.627 2.627 0 0 1-1.672-.563 3.044 3.044 0 0 1-1.125-1.437c-.148-.493-.101-.93.141-1.313.238-.383.602-.578 1.094-.578 1.82.031 3.363.047 4.625.047 1.113 0 2.004-.016 2.672-.047.633-.04 1.062-.16 1.281-.36.219-.207.328-.609.328-1.203zm14.656 13.938a1.425 1.425 0 0 1-.14-1.313c.175-.468.484-.796.922-.984.257-.102.539-.156.843-.156.22 0 .457.039.72.11.519.187.929.523 1.233 1a112.162 112.162 0 0 1 6.063 11.484c1.707 3.75 2.953 7.074 3.734 9.968.07.219.11.422.11.61 0 .375-.09.75-.266 1.125-.305.523-.73.914-1.281 1.172-.23.105-.477.156-.735.156-.261 0-.523-.07-.78-.219a1.833 1.833 0 0 1-.938-1.172c-.825-2.894-2.055-6.273-3.688-10.14-1.781-4.157-3.715-8.036-5.797-11.641zm-30.03-.5a2.26 2.26 0 0 1 .952-1.344 1.99 1.99 0 0 1 1.172-.39h.39c.594.117 1.036.414 1.329.89a1.868 1.868 0 0 1 .281 1.563c-2.187 9.03-5.086 16.074-8.687 21.125a1.93 1.93 0 0 1-1.344.765 1.123 1.123 0 0 1-.39.063c-.407 0-.798-.11-1.173-.328-.48-.258-.757-.649-.828-1.172a1.505 1.505 0 0 1-.062-.39c0-.333.113-.665.343-1 1.813-2.49 3.391-5.462 4.735-8.923a67.974 67.974 0 0 0 3.281-10.86zm0 0" fill="#4DD171"/><path d="M637.016 768.59c.258 0 .391-.129.391-.39v-10.75c0-.258-.133-.391-.39-.391h-24.688c-.293 0-.438.133-.438.39v10.75c0 .262.145.391.438.391zm-14.515-33.422c.351-.375.789-.562 1.312-.562.52 0 .961.187 1.328.562.375.368.563.809.563 1.329v4.796c0 .262.148.391.453.391h17.266c.445 0 .836.168 1.171.5.333.336.5.746.5 1.234 0 .48-.167.887-.5 1.22-.335.335-.726.5-1.171.5h-17.266c-.305 0-.453.132-.453.39v7.75c0 .261.148.39.453.39h11.812c.895 0 1.665.325 2.313.97.645.648.969 1.417.969 2.312v15.265c0 .563-.188 1.024-.563 1.39-.367.376-.824.563-1.375.563a1.83 1.83 0 0 1-1.344-.562 1.79 1.79 0 0 1-.562-1.328c0-.149-.074-.219-.219-.219h-25.015c-.188 0-.282.086-.282.266v.172c0 .476-.18.906-.53 1.28a1.737 1.737 0 0 1-1.313.563c-.524 0-.961-.187-1.313-.562-.344-.375-.516-.805-.516-1.281V756.95c0-.895.313-1.664.938-2.313.633-.644 1.414-.969 2.344-.969h10.031c.289 0 .437-.129.437-.39v-16.781c0-.52.176-.961.532-1.329zm1.375-5.796c0 .261.144.39.437.39h19.781c.52 0 .958.18 1.313.531.352.344.531.774.531 1.282 0 .5-.18.93-.531 1.28-.355.345-.793.517-1.313.517H603.08c-.262 0-.39.132-.39.39v10.766c0 12.18-1.56 21.523-4.673 28.031-.187.438-.543.711-1.062.828h-.39c-.376 0-.712-.094-1-.281-.45-.293-.747-.7-.891-1.219a2.014 2.014 0 0 1-.11-.61c0-.304.07-.6.219-.89 2.789-5.832 4.187-14.453 4.187-25.86v-11.484c0-.894.32-1.664.97-2.312.644-.645 1.413-.969 2.312-.969h17.328c.3 0 .453-.129.453-.39v-5.125c0-.563.18-1.024.547-1.391a1.852 1.852 0 0 1 1.36-.563c.538 0 1 .188 1.374.563.375.367.563.828.563 1.39zm0 0" fill="#4DD171"/><path d="M242.61 607.49c0-.657-.328-.985-.984-.985h-14.782c-.648 0-.968.328-.968.984v6.157c0 .656.32.984.968.984h14.782c.656 0 .984-.328.984-.984zm-16.734 25.156c0 .648.32.968.968.968h14.782c.656 0 .984-.32.984-.968v-6.563c0-.656-.328-.984-.984-.984h-14.782c-.648 0-.968.328-.968.984zm9.39 22.906c-.46-.852-.687-1.703-.687-2.547 0-.457.035-.883.109-1.281.383-1.364 1.195-2.344 2.438-2.938.914-.457 1.832-.687 2.75-.687.519 0 1.039.07 1.562.203 1.5.398 2.672 1.215 3.516 2.453 4.375 6.523 7.77 12.492 10.187 17.906.383.844.578 1.664.578 2.453 0 .72-.164 1.47-.484 2.25-.586 1.5-1.625 2.641-3.125 3.422-.793.395-1.543.594-2.25.594a4.377 4.377 0 0 1-1.86-.406c-1.437-.524-2.453-1.496-3.046-2.922a63.277 63.277 0 0 0-1.172-2.656c-.262-.582-.684-.805-1.266-.672a4855.615 4855.615 0 0 1-24.969 6.843 7.951 7.951 0 0 1-1.765.204c-1.043 0-2.086-.266-3.125-.797-1.5-.844-2.512-2.114-3.031-3.813v-.187a4.634 4.634 0 0 1-.297-1.672c0-.977.289-1.926.875-2.844.851-1.426 2.062-2.336 3.625-2.734.457-.063.687-.352.687-.875v-60.89c0-2.345.828-4.349 2.485-6.017 1.664-1.664 3.675-2.5 6.03-2.5h22.126c2.344 0 4.347.836 6.015 2.5 1.664 1.668 2.5 3.672 2.5 6.016v32.11c0 2.343-.836 4.351-2.5 6.015-1.668 1.668-3.671 2.5-6.015 2.5h-18.313c-.648 0-.968.328-.968.984v16.438c0 .262.093.477.28.64a.763.763 0 0 0 .688.141l10.188-2.547c.258-.062.437-.207.531-.437a.628.628 0 0 0-.047-.64 66.842 66.842 0 0 0-2.25-3.61zm53.938-60.297c2.343 0 4.347.836 6.015 2.5 1.664 1.656 2.5 3.664 2.5 6.016v51.671c0 3.137-.328 5.637-.984 7.5-.649 1.856-1.852 3.305-3.61 4.344-2.03 1.18-4.648 1.93-7.843 2.25-.262.074-.524.11-.781.11-1.563 0-3.032-.555-4.407-1.672-1.5-1.239-2.574-2.867-3.218-4.89-.2-.52-.297-1.009-.297-1.47 0-.976.289-1.89.875-2.734.914-1.238 2.125-1.86 3.625-1.86h2.64c.657-.07 1.098-.238 1.328-.5.227-.257.344-.718.344-1.374V608.27c0-.657-.328-.985-.984-.985h-12.328c-.657 0-.985.328-.985.985v69.593c0 1.625-.59 3.024-1.765 4.203-1.18 1.176-2.602 1.766-4.266 1.766-1.656 0-3.074-.59-4.25-1.766-1.18-1.18-1.766-2.578-1.766-4.203v-74.093c0-2.352.832-4.36 2.5-6.016 1.664-1.664 3.672-2.5 6.016-2.5zm0 0" fill="#4DD171"/><path d="M331.483 608.067c0-.644-.324-.968-.969-.968h-7.25c-.656 0-.984.324-.984.968v15.672c0 .649.328.97.984.97h7.25c.645 0 .969-.321.969-.97zm-9.203 44.829c0 .656.328.984.984.984h7.25c.645 0 .969-.328.969-.984v-16.829c0-.656-.324-.984-.969-.984h-7.25c-.656 0-.984.328-.984.984zm11.843-56.47c2.352 0 4.36.837 6.016 2.5 1.664 1.657 2.5 3.665 2.5 6.016v51c0 2.344-.836 4.352-2.5 6.016-1.656 1.668-3.664 2.5-6.016 2.5H323.17c-.593 0-.89.324-.89.969v2.25c0 1.574-.54 2.883-1.61 3.922-1.074 1.043-2.367 1.562-3.875 1.562-1.5 0-2.789-.52-3.86-1.562-1.073-1.04-1.608-2.348-1.608-3.922v-62.735c0-2.351.828-4.359 2.484-6.015 1.664-1.664 3.676-2.5 6.031-2.5zm17.829 63.923c-.72-.914-1.079-1.895-1.079-2.938 0-.258.032-.554.094-.89.258-1.364.977-2.407 2.156-3.125 1.102-.657 2.243-.985 3.422-.985h.985c1.625.262 2.925.98 3.906 2.156 2.156 2.48 4.016 4.86 5.578 7.141.594.918.89 1.899.89 2.938 0 .523-.07 1.043-.202 1.562-.387 1.574-1.336 2.813-2.844 3.719-.844.531-1.727.797-2.64.797a4.328 4.328 0 0 1-1.563-.297c-1.5-.395-2.641-1.274-3.422-2.64-1.5-2.415-3.262-4.895-5.281-7.438zm43.937-29.86h-3.812c-.657 0-.985.325-.985.97v6.655c0 .657.328.985.985.985h3.53c1.427 0 2.645.527 3.657 1.578 1.02 1.043 1.531 2.281 1.531 3.719 0 1.43-.511 2.648-1.531 3.656-1.012 1.012-2.23 1.515-3.656 1.515h-3.531c-.657 0-.985.329-.985.985v21.14c0 3-.36 5.282-1.078 6.844-.71 1.57-2.043 2.817-4 3.735-2.355 1.039-5.945 1.629-10.766 1.765h-.296c-1.575 0-3.012-.492-4.313-1.469-1.305-1.054-2.25-2.43-2.844-4.125a3.502 3.502 0 0 1-.281-1.359c0-.781.223-1.531.672-2.25.789-1.113 1.836-1.672 3.14-1.672H377.39c.852 0 1.426-.113 1.719-.344.289-.226.437-.703.437-1.421v-20.844c0-.656-.324-.985-.968-.985h-28.891c-1.43 0-2.652-.503-3.672-1.515-1.012-1.008-1.516-2.227-1.516-3.656 0-1.438.504-2.676 1.516-3.72 1.02-1.05 2.242-1.577 3.672-1.577h28.89c.645 0 .97-.328.97-.985v-6.656c0-.644-.325-.969-.97-.969h-29.078c-1.437 0-2.664-.504-3.671-1.515-1.012-1.008-1.516-2.219-1.516-3.625 0-1.407.504-2.614 1.516-3.625 1.007-1.008 2.234-1.516 3.671-1.516h16.438c.656 0 .984-.328.984-.984v-6.938c0-.656-.328-.984-.984-.984h-13.203c-1.375 0-2.57-.504-3.578-1.516-1.012-1.008-1.516-2.219-1.516-3.625 0-1.406.504-2.613 1.516-3.625 1.007-1.008 2.203-1.515 3.578-1.515h13.203c.656 0 .984-.329.984-.985v-3.812c0-1.625.567-3.008 1.703-4.157 1.145-1.144 2.536-1.718 4.172-1.718 1.633 0 3.02.574 4.157 1.718 1.144 1.149 1.718 2.532 1.718 4.157v3.812c0 .656.32.985.969.985h13.906c1.438 0 2.645.507 3.625 1.515.977 1.012 1.469 2.219 1.469 3.625 0 1.406-.492 2.617-1.469 3.625-.98 1.012-2.187 1.516-3.625 1.516H379.64c-.648 0-.969.328-.969.984v6.938c0 .656.32.984.969.984h16.25c1.438 0 2.66.508 3.672 1.516 1.008 1.011 1.516 2.218 1.516 3.625 0 1.406-.508 2.617-1.516 3.625-1.012 1.011-2.234 1.515-3.672 1.515zm0 0" fill="#4DD171"/><path d="M424.965 611.786c-.656 0-.984.328-.984.985v7.046c0 1.637-.59 3.028-1.766 4.172-1.168 1.137-2.555 1.703-4.156 1.703-1.594 0-2.965-.566-4.11-1.703-1.136-1.144-1.703-2.535-1.703-4.172v-10.765c0-2.352.828-4.36 2.485-6.016 1.664-1.664 3.675-2.5 6.03-2.5h26.72c.656 0 .984-.328.984-.984v-2.735c0-1.757.617-3.242 1.86-4.453 1.238-1.207 2.738-1.812 4.5-1.812 1.757 0 3.242.605 4.453 1.812 1.207 1.211 1.812 2.696 1.812 4.453v2.735c0 .656.32.984.969.984h27.312c2.352 0 4.36.836 6.016 2.5 1.664 1.656 2.5 3.664 2.5 6.016v10.469c0 1.699-.606 3.152-1.813 4.359-1.21 1.21-2.664 1.812-4.359 1.812-1.687 0-3.137-.601-4.344-1.812-1.21-1.207-1.812-2.66-1.812-4.36v-6.75c0-.656-.328-.984-.985-.984zm37.094 43.86c-.649 0-.969.324-.969.968v13.125c0 .657.32 1.016.969 1.078 2.613.325 6.039.485 10.281.485 2.875.062 5.973.094 9.297.094 3.977 0 8.285-.032 12.922-.094h.094c1.375 0 2.484.59 3.328 1.765.53.782.797 1.602.797 2.454 0 .52-.102 1.039-.297 1.562a9.253 9.253 0 0 1-3.14 4.5c-1.5 1.176-3.165 1.766-4.985 1.766h-18.703c-9.98 0-18.184-1.18-24.61-3.532-6.43-2.343-11.73-6.75-15.906-13.218a.543.543 0 0 0-.547-.235c-.23.032-.375.149-.437.344-2.48 5.48-5.387 10.145-8.72 14-1.241 1.3-2.702 1.953-4.39 1.953h-.11c-1.76-.062-3.359-.683-4.796-1.86-1.242-1.116-1.86-2.484-1.86-4.109 0-1.57.555-2.94 1.672-4.109 6.133-6.531 10.211-16.156 12.235-28.875.258-1.695 1.039-3.101 2.344-4.219 1.175-.914 2.453-1.375 3.828-1.375.258 0 .52.04.78.11 1.696.125 3.067.875 4.11 2.25.782 1.043 1.172 2.183 1.172 3.422 0 .324-.031.683-.094 1.078a91.172 91.172 0 0 1-1.078 5.39c-.136.711-.074 1.36.188 1.953 2.738 6.782 6.914 11.68 12.531 14.688a.625.625 0 0 0 .531-.047c.164-.101.25-.285.25-.547v-33.484c0-.645-.324-.969-.968-.969H433.09c-1.562 0-2.902-.55-4.016-1.656-1.105-1.113-1.656-2.453-1.656-4.016 0-1.57.551-2.91 1.656-4.015 1.114-1.114 2.454-1.672 4.016-1.672h43.656c1.563 0 2.895.558 4 1.672 1.114 1.105 1.672 2.445 1.672 4.015 0 1.563-.558 2.903-1.672 4.016-1.105 1.105-2.437 1.656-4 1.656H462.06c-.649 0-.969.324-.969.969v10.578c0 .656.32.984.969.984h21.344c1.562 0 2.878.54 3.953 1.61 1.082 1.074 1.625 2.398 1.625 3.968 0 1.563-.543 2.887-1.625 3.97-1.075 1.073-2.39 1.609-3.953 1.609zm0 0" fill="#4DD171"/><path d="M545.463 608.458h16.828c.656 0 .984-.32.984-.969v-9.797c0-1.625.583-3.023 1.75-4.203 1.176-1.175 2.598-1.765 4.266-1.765 1.664 0 3.082.59 4.25 1.765 1.176 1.18 1.766 2.578 1.766 4.203v9.797c0 .649.328.97.984.97h18.11c1.562 0 2.894.558 4 1.671 1.113 1.105 1.671 2.43 1.671 3.969 0 1.531-.558 2.855-1.672 3.968-1.105 1.106-2.437 1.657-4 1.657h-48.937c-1.574 0-2.918-.551-4.031-1.657-1.106-1.113-1.657-2.437-1.657-3.968 0-1.54.551-2.864 1.657-3.969 1.113-1.113 2.457-1.672 4.031-1.672zm18.297 48.75c.07.262.11.555.11.875 0 1.375-.43 2.617-1.282 3.719-1.043 1.437-2.414 2.355-4.11 2.75-.398.062-.788.094-1.171.094-1.043 0-2.024-.32-2.938-.97-1.242-.976-1.93-2.253-2.062-3.827-.782-8.938-2.282-18.43-4.5-28.485a7.261 7.261 0 0 1-.094-1.172c0-.976.289-1.925.875-2.843.781-1.239 1.89-1.989 3.328-2.25a7.48 7.48 0 0 1 1.172-.094c1.05 0 2.066.293 3.047.875 1.3.855 2.113 2 2.437 3.437 2.414 9.918 4.145 19.215 5.188 27.891zm-35.235-61.281c.657-1.5 1.735-2.61 3.235-3.328.906-.383 1.816-.578 2.734-.578.594 0 1.211.101 1.86.296 1.57.524 2.68 1.5 3.328 2.938.32.71.484 1.422.484 2.14 0 .72-.164 1.438-.484 2.157a171.11 171.11 0 0 1-6.563 12.922 3.775 3.775 0 0 0-.484 1.86v63.327c0 1.57-.559 2.91-1.672 4.016-1.105 1.113-2.445 1.672-4.016 1.672-1.562 0-2.902-.559-4.015-1.672-1.106-1.106-1.657-2.445-1.657-4.016v-46.39c0-.133-.085-.235-.25-.297-.156-.063-.265-.032-.328.093a77.62 77.62 0 0 1-3.14 3.72c-.844 1.054-1.918 1.577-3.219 1.577-.262 0-.527-.035-.797-.109-1.625-.258-2.828-1.102-3.61-2.531-.718-1.438-1.077-2.907-1.077-4.407 0-.394.03-.789.093-1.187.196-2.02.946-3.75 2.25-5.188 6.914-7.695 12.692-16.703 17.328-27.015zm53.438 71.562c-.063.2-.012.399.156.594.164.188.344.281.531.281h13.813c1.562 0 2.879.559 3.953 1.672 1.082 1.106 1.625 2.43 1.625 3.969 0 1.531-.543 2.848-1.625 3.953-1.074 1.113-2.39 1.672-3.953 1.672h-53.156c-1.563 0-2.887-.559-3.969-1.672-1.074-1.105-1.61-2.422-1.61-3.953 0-1.54.536-2.863 1.61-3.969 1.082-1.113 2.406-1.672 3.969-1.672h26.14c.645 0 1.067-.289 1.266-.875 3.594-11.351 6.46-23.816 8.61-37.39.257-1.758 1.109-3.164 2.546-4.219 1.114-.844 2.29-1.266 3.531-1.266.383 0 .774.032 1.172.094 1.758.324 3.16 1.242 4.203 2.75.657 1.043.985 2.152.985 3.328 0 .524-.031 1.012-.094 1.469-2.937 12.918-6.172 24.664-9.703 35.234zm0 0" fill="#4DD171"/></svg>