<svg xmlns="http://www.w3.org/2000/svg" xmlns:xlink="http://www.w3.org/1999/xlink" width="1080" zoomAndPan="magnify" viewBox="0 0 810 809.999993" height="1080" preserveAspectRatio="xMidYMid meet" version="1.0"><defs><g><g id="id1"/><g id="id2"/></g><clipPath id="id3"><path d="M 191 23.902344 L 619 23.902344 L 619 533.902344 L 191 533.902344 Z M 191 23.902344 " clip-rule="nonzero"/></clipPath></defs><rect x="-81" width="972" fill="rgb(100%, 100%, 100%)" y="-80.999999" height="971.999992" fill-opacity="1"/><rect x="-81" width="972" fill="rgb(100%, 100%, 100%)" y="-80.999999" height="971.999992" fill-opacity="1"/><rect x="-81" width="972" fill="rgb(100%, 100%, 100%)" y="-80.999999" height="971.999992" fill-opacity="1"/><rect x="-81" width="972" fill="rgb(100%, 100%, 100%)" y="-80.999999" height="971.999992" fill-opacity="1"/><path fill="rgb(30.198669%, 81.959534%, 44.309998%)" d="M 404.886719 151.402344 C 403.496094 151.402344 402.105469 151.4375 400.714844 151.503906 C 399.324219 151.574219 397.9375 151.675781 396.554688 151.8125 C 395.167969 151.949219 393.789062 152.121094 392.414062 152.324219 C 391.039062 152.527344 389.667969 152.765625 388.304688 153.035156 C 386.9375 153.308594 385.582031 153.613281 384.230469 153.949219 C 382.882812 154.289062 381.542969 154.660156 380.210938 155.0625 C 378.878906 155.46875 377.558594 155.902344 376.25 156.371094 C 374.941406 156.839844 373.644531 157.339844 372.359375 157.875 C 371.074219 158.40625 369.800781 158.96875 368.542969 159.5625 C 367.285156 160.160156 366.042969 160.785156 364.816406 161.441406 C 363.589844 162.097656 362.378906 162.78125 361.1875 163.496094 C 359.992188 164.210938 358.820312 164.957031 357.664062 165.726562 C 356.503906 166.5 355.367188 167.300781 354.25 168.128906 C 353.132812 168.960938 352.039062 169.816406 350.960938 170.699219 C 349.886719 171.578125 348.832031 172.488281 347.804688 173.421875 C 346.773438 174.355469 345.765625 175.316406 344.78125 176.300781 C 343.796875 177.28125 342.839844 178.289062 341.90625 179.320312 C 340.96875 180.351562 340.0625 181.40625 339.179688 182.480469 C 338.296875 183.554688 337.441406 184.652344 336.613281 185.769531 C 335.785156 186.886719 334.984375 188.023438 334.210938 189.179688 C 333.4375 190.335938 332.695312 191.511719 331.980469 192.703125 C 331.261719 193.898438 330.578125 195.109375 329.921875 196.335938 C 329.265625 197.5625 328.640625 198.804688 328.046875 200.0625 C 327.453125 201.320312 326.886719 202.589844 326.355469 203.875 C 325.824219 205.160156 325.324219 206.457031 324.855469 207.769531 C 324.386719 209.078125 323.949219 210.398438 323.546875 211.730469 C 323.140625 213.058594 322.769531 214.402344 322.433594 215.75 C 322.09375 217.097656 321.789062 218.457031 321.519531 219.820312 C 321.246094 221.183594 321.007812 222.554688 320.804688 223.929688 C 320.601562 225.308594 320.429688 226.6875 320.292969 228.070312 C 320.160156 229.457031 320.054688 230.84375 319.988281 232.234375 C 319.917969 233.621094 319.886719 235.011719 319.886719 236.402344 C 319.886719 237.792969 319.917969 239.183594 319.988281 240.574219 C 320.054688 241.964844 320.160156 243.351562 320.296875 244.734375 C 320.429688 246.121094 320.601562 247.5 320.804688 248.875 C 321.007812 250.25 321.246094 251.621094 321.519531 252.984375 C 321.789062 254.351562 322.09375 255.707031 322.433594 257.058594 C 322.769531 258.40625 323.140625 259.746094 323.546875 261.078125 C 323.949219 262.410156 324.386719 263.730469 324.855469 265.039062 C 325.324219 266.347656 325.824219 267.644531 326.355469 268.929688 C 326.886719 270.214844 327.453125 271.488281 328.046875 272.746094 C 328.640625 274.003906 329.265625 275.246094 329.921875 276.472656 C 330.578125 277.699219 331.261719 278.910156 331.980469 280.101562 C 332.695312 281.296875 333.4375 282.46875 334.210938 283.625 C 334.984375 284.785156 335.785156 285.921875 336.613281 287.039062 C 337.441406 288.15625 338.296875 289.25 339.179688 290.328125 C 340.0625 291.402344 340.96875 292.457031 341.90625 293.484375 C 342.839844 294.515625 343.796875 295.523438 344.78125 296.507812 C 345.765625 297.492188 346.773438 298.449219 347.804688 299.382812 C 348.832031 300.320312 349.886719 301.226562 350.960938 302.109375 C 352.039062 302.992188 353.132812 303.847656 354.25 304.675781 C 355.367188 305.503906 356.503906 306.304688 357.664062 307.078125 C 358.820312 307.851562 359.992188 308.59375 361.1875 309.308594 C 362.378906 310.027344 363.589844 310.710938 364.816406 311.367188 C 366.042969 312.023438 367.285156 312.648438 368.542969 313.242188 C 369.800781 313.835938 371.074219 314.402344 372.359375 314.933594 C 373.644531 315.464844 374.941406 315.964844 376.25 316.433594 C 377.558594 316.902344 378.878906 317.339844 380.210938 317.742188 C 381.542969 318.148438 382.882812 318.519531 384.230469 318.855469 C 385.582031 319.195312 386.9375 319.5 388.304688 319.769531 C 389.667969 320.042969 391.039062 320.277344 392.414062 320.484375 C 393.789062 320.6875 395.167969 320.859375 396.554688 320.992188 C 397.9375 321.128906 399.324219 321.234375 400.714844 321.300781 C 402.105469 321.371094 403.496094 321.402344 404.886719 321.402344 C 406.277344 321.402344 407.667969 321.371094 409.054688 321.300781 C 410.445312 321.234375 411.832031 321.128906 413.21875 320.992188 C 414.601562 320.859375 415.980469 320.6875 417.359375 320.484375 C 418.734375 320.277344 420.105469 320.042969 421.46875 319.769531 C 422.832031 319.5 424.191406 319.195312 425.539062 318.855469 C 426.886719 318.519531 428.230469 318.148438 429.558594 317.742188 C 430.890625 317.339844 432.210938 316.902344 433.519531 316.433594 C 434.832031 315.964844 436.128906 315.464844 437.414062 314.933594 C 438.699219 314.402344 439.96875 313.835938 441.226562 313.242188 C 442.484375 312.648438 443.726562 312.023438 444.953125 311.367188 C 446.179688 310.710938 447.390625 310.027344 448.585938 309.308594 C 449.777344 308.59375 450.953125 307.851562 452.109375 307.078125 C 453.265625 306.304688 454.402344 305.503906 455.519531 304.675781 C 456.636719 303.847656 457.734375 302.992188 458.808594 302.109375 C 459.882812 301.226562 460.9375 300.320312 461.96875 299.382812 C 463 298.449219 464.007812 297.492188 464.988281 296.507812 C 465.972656 295.523438 466.933594 294.515625 467.867188 293.484375 C 468.800781 292.457031 469.710938 291.402344 470.589844 290.328125 C 471.472656 289.25 472.328125 288.15625 473.160156 287.039062 C 473.988281 285.921875 474.789062 284.785156 475.558594 283.625 C 476.332031 282.46875 477.078125 281.296875 477.792969 280.101562 C 478.507812 278.910156 479.191406 277.699219 479.847656 276.472656 C 480.503906 275.246094 481.128906 274.003906 481.726562 272.746094 C 482.320312 271.488281 482.882812 270.214844 483.414062 268.929688 C 483.949219 267.644531 484.449219 266.347656 484.917969 265.039062 C 485.386719 263.730469 485.820312 262.410156 486.226562 261.078125 C 486.628906 259.746094 487 258.40625 487.339844 257.058594 C 487.675781 255.707031 487.980469 254.351562 488.253906 252.984375 C 488.523438 251.621094 488.761719 250.25 488.964844 248.875 C 489.167969 247.5 489.339844 246.121094 489.476562 244.734375 C 489.613281 243.351562 489.714844 241.964844 489.785156 240.574219 C 489.851562 239.183594 489.886719 237.792969 489.886719 236.402344 C 489.886719 235.011719 489.851562 233.621094 489.785156 232.234375 C 489.714844 230.84375 489.613281 229.457031 489.476562 228.070312 C 489.339844 226.6875 489.167969 225.308594 488.964844 223.929688 C 488.761719 222.554688 488.523438 221.183594 488.253906 219.820312 C 487.980469 218.457031 487.675781 217.097656 487.339844 215.75 C 487 214.402344 486.628906 213.058594 486.226562 211.730469 C 485.820312 210.398438 485.386719 209.078125 484.917969 207.769531 C 484.449219 206.457031 483.949219 205.160156 483.414062 203.875 C 482.882812 202.589844 482.320312 201.320312 481.726562 200.0625 C 481.128906 198.804688 480.503906 197.5625 479.847656 196.335938 C 479.191406 195.109375 478.507812 193.898438 477.792969 192.703125 C 477.078125 191.511719 476.332031 190.335938 475.558594 189.179688 C 474.789062 188.023438 473.988281 186.886719 473.160156 185.769531 C 472.328125 184.652344 471.472656 183.554688 470.589844 182.480469 C 469.710938 181.40625 468.800781 180.351562 467.867188 179.320312 C 466.933594 178.289062 465.972656 177.28125 464.988281 176.300781 C 464.007812 175.316406 463 174.355469 461.96875 173.421875 C 460.9375 172.488281 459.882812 171.578125 458.808594 170.699219 C 457.734375 169.816406 456.636719 168.960938 455.519531 168.128906 C 454.402344 167.300781 453.265625 166.5 452.109375 165.726562 C 450.953125 164.957031 449.777344 164.210938 448.585938 163.496094 C 447.390625 162.78125 446.179688 162.097656 444.953125 161.441406 C 443.726562 160.785156 442.484375 160.160156 441.226562 159.5625 C 439.96875 158.96875 438.699219 158.40625 437.414062 157.875 C 436.128906 157.339844 434.832031 156.839844 433.519531 156.371094 C 432.210938 155.902344 430.890625 155.46875 429.558594 155.0625 C 428.230469 154.660156 426.886719 154.289062 425.539062 153.949219 C 424.191406 153.613281 422.832031 153.308594 421.46875 153.035156 C 420.105469 152.765625 418.734375 152.527344 417.359375 152.324219 C 415.980469 152.121094 414.601562 151.949219 413.21875 151.8125 C 411.832031 151.675781 410.445312 151.574219 409.054688 151.503906 C 407.667969 151.4375 406.277344 151.402344 404.886719 151.402344 Z M 404.886719 278.902344 C 403.492188 278.902344 402.105469 278.835938 400.71875 278.699219 C 399.335938 278.5625 397.960938 278.359375 396.59375 278.085938 C 395.230469 277.816406 393.878906 277.476562 392.546875 277.074219 C 391.214844 276.667969 389.90625 276.199219 388.621094 275.667969 C 387.335938 275.136719 386.078125 274.542969 384.851562 273.886719 C 383.625 273.230469 382.429688 272.515625 381.273438 271.742188 C 380.117188 270.96875 379 270.140625 377.925781 269.257812 C 376.847656 268.375 375.816406 267.441406 374.832031 266.457031 C 373.847656 265.472656 372.914062 264.441406 372.03125 263.363281 C 371.148438 262.289062 370.320312 261.171875 369.546875 260.015625 C 368.773438 258.859375 368.058594 257.664062 367.402344 256.4375 C 366.746094 255.210938 366.152344 253.953125 365.621094 252.667969 C 365.089844 251.382812 364.621094 250.074219 364.214844 248.742188 C 363.8125 247.410156 363.472656 246.058594 363.203125 244.695312 C 362.929688 243.328125 362.726562 241.953125 362.589844 240.570312 C 362.453125 239.183594 362.386719 237.796875 362.386719 236.402344 C 362.386719 235.011719 362.453125 233.621094 362.589844 232.238281 C 362.726562 230.851562 362.929688 229.476562 363.203125 228.113281 C 363.472656 226.746094 363.8125 225.398438 364.214844 224.066406 C 364.621094 222.734375 365.089844 221.425781 365.621094 220.140625 C 366.152344 218.851562 366.746094 217.597656 367.402344 216.367188 C 368.058594 215.140625 368.773438 213.949219 369.546875 212.792969 C 370.320312 211.632812 371.148438 210.519531 372.03125 209.441406 C 372.914062 208.367188 373.847656 207.335938 374.832031 206.351562 C 375.816406 205.367188 376.847656 204.433594 377.925781 203.550781 C 379 202.667969 380.117188 201.839844 381.273438 201.066406 C 382.429688 200.292969 383.625 199.578125 384.851562 198.921875 C 386.078125 198.265625 387.335938 197.671875 388.621094 197.136719 C 389.90625 196.605469 391.214844 196.136719 392.546875 195.734375 C 393.878906 195.328125 395.230469 194.992188 396.59375 194.71875 C 397.960938 194.449219 399.335938 194.246094 400.71875 194.109375 C 402.105469 193.972656 403.492188 193.902344 404.886719 193.902344 C 406.277344 193.902344 407.667969 193.972656 409.050781 194.109375 C 410.4375 194.246094 411.8125 194.449219 413.175781 194.71875 C 414.542969 194.992188 415.890625 195.328125 417.222656 195.734375 C 418.554688 196.136719 419.863281 196.605469 421.148438 197.136719 C 422.4375 197.671875 423.691406 198.265625 424.921875 198.921875 C 426.148438 199.578125 427.339844 200.292969 428.496094 201.066406 C 429.65625 201.839844 430.769531 202.667969 431.847656 203.550781 C 432.921875 204.433594 433.953125 205.367188 434.9375 206.351562 C 435.921875 207.335938 436.855469 208.367188 437.738281 209.441406 C 438.621094 210.519531 439.449219 211.632812 440.222656 212.792969 C 440.996094 213.949219 441.710938 215.140625 442.367188 216.367188 C 443.023438 217.597656 443.617188 218.851562 444.152344 220.140625 C 444.683594 221.425781 445.152344 222.734375 445.554688 224.066406 C 445.960938 225.398438 446.296875 226.746094 446.570312 228.113281 C 446.839844 229.476562 447.042969 230.851562 447.179688 232.238281 C 447.316406 233.621094 447.386719 235.011719 447.386719 236.402344 C 447.386719 237.796875 447.316406 239.183594 447.179688 240.570312 C 447.042969 241.953125 446.839844 243.328125 446.570312 244.695312 C 446.296875 246.058594 445.960938 247.410156 445.554688 248.742188 C 445.152344 250.074219 444.683594 251.382812 444.152344 252.667969 C 443.617188 253.953125 443.023438 255.210938 442.367188 256.4375 C 441.710938 257.664062 440.996094 258.859375 440.222656 260.015625 C 439.449219 261.171875 438.621094 262.289062 437.738281 263.363281 C 436.855469 264.441406 435.921875 265.472656 434.9375 266.457031 C 433.953125 267.441406 432.921875 268.375 431.847656 269.257812 C 430.769531 270.140625 429.65625 270.96875 428.496094 271.742188 C 427.339844 272.515625 426.148438 273.230469 424.921875 273.886719 C 423.691406 274.542969 422.4375 275.136719 421.148438 275.667969 C 419.863281 276.199219 418.554688 276.667969 417.222656 277.074219 C 415.890625 277.476562 414.542969 277.816406 413.175781 278.085938 C 411.8125 278.359375 410.4375 278.5625 409.050781 278.699219 C 407.667969 278.835938 406.277344 278.902344 404.886719 278.902344 Z M 404.886719 278.902344 " fill-opacity="1" fill-rule="nonzero"/><g clip-path="url(#id3)"><path fill="rgb(30.198669%, 81.959534%, 44.309998%)" d="M 404.886719 533.902344 C 400.429688 533.925781 395.984375 533.683594 391.554688 533.175781 C 387.128906 532.667969 382.746094 531.898438 378.410156 530.867188 C 374.070312 529.835938 369.8125 528.550781 365.628906 527.011719 C 361.445312 525.472656 357.367188 523.691406 353.398438 521.664062 C 349.429688 519.636719 345.59375 517.382812 341.890625 514.898438 C 338.191406 512.414062 334.648438 509.71875 331.269531 506.8125 C 327.890625 503.90625 324.695312 500.808594 321.6875 497.519531 C 318.675781 494.230469 315.875 490.777344 313.277344 487.152344 C 232.292969 375.441406 191.21875 291.460938 191.21875 237.53125 C 191.21875 234.035156 191.304688 230.539062 191.480469 227.046875 C 191.652344 223.558594 191.910156 220.070312 192.253906 216.59375 C 192.597656 213.113281 193.027344 209.644531 193.542969 206.1875 C 194.058594 202.730469 194.65625 199.289062 195.339844 195.859375 C 196.023438 192.429688 196.789062 189.023438 197.640625 185.632812 C 198.492188 182.242188 199.425781 178.871094 200.441406 175.527344 C 201.457031 172.183594 202.554688 168.867188 203.734375 165.574219 C 204.914062 162.285156 206.171875 159.023438 207.511719 155.792969 C 208.851562 152.566406 210.269531 149.371094 211.761719 146.210938 C 213.257812 143.050781 214.832031 139.929688 216.480469 136.847656 C 218.128906 133.765625 219.851562 130.726562 221.652344 127.726562 C 223.449219 124.730469 225.320312 121.777344 227.261719 118.871094 C 229.207031 115.964844 231.21875 113.109375 233.300781 110.300781 C 235.386719 107.496094 237.535156 104.738281 239.753906 102.039062 C 241.972656 99.335938 244.257812 96.691406 246.605469 94.101562 C 248.953125 91.511719 251.363281 88.980469 253.835938 86.511719 C 256.308594 84.039062 258.839844 81.628906 261.429688 79.28125 C 264.019531 76.9375 266.667969 74.652344 269.371094 72.4375 C 272.074219 70.21875 274.828125 68.070312 277.636719 65.988281 C 280.445312 63.90625 283.304688 61.894531 286.210938 59.953125 C 289.117188 58.011719 292.070312 56.140625 295.070312 54.34375 C 298.066406 52.550781 301.109375 50.828125 304.191406 49.179688 C 307.273438 47.53125 310.398438 45.960938 313.558594 44.46875 C 316.71875 42.972656 319.914062 41.558594 323.140625 40.21875 C 326.371094 38.882812 329.632812 37.625 332.925781 36.449219 C 336.214844 35.269531 339.535156 34.175781 342.878906 33.160156 C 346.226562 32.144531 349.59375 31.214844 352.984375 30.363281 C 356.375 29.515625 359.785156 28.75 363.214844 28.066406 C 366.640625 27.386719 370.085938 26.789062 373.542969 26.277344 C 377 25.761719 380.46875 25.335938 383.949219 24.992188 C 387.429688 24.652344 390.914062 24.394531 394.40625 24.222656 C 397.894531 24.050781 401.390625 23.964844 404.886719 23.964844 C 408.382812 23.964844 411.875 24.050781 415.367188 24.222656 C 418.859375 24.394531 422.34375 24.652344 425.824219 24.992188 C 429.300781 25.335938 432.769531 25.761719 436.226562 26.277344 C 439.6875 26.789062 443.128906 27.386719 446.558594 28.066406 C 449.984375 28.75 453.394531 29.515625 456.785156 30.363281 C 460.179688 31.214844 463.546875 32.144531 466.890625 33.160156 C 470.238281 34.175781 473.554688 35.269531 476.847656 36.449219 C 480.136719 37.625 483.398438 38.882812 486.628906 40.21875 C 489.859375 41.558594 493.054688 42.972656 496.214844 44.46875 C 499.375 45.960938 502.496094 47.53125 505.578125 49.179688 C 508.664062 50.828125 511.703125 52.550781 514.703125 54.34375 C 517.703125 56.140625 520.652344 58.011719 523.5625 59.953125 C 526.46875 61.894531 529.324219 63.90625 532.132812 65.988281 C 534.941406 68.070312 537.699219 70.21875 540.398438 72.4375 C 543.101562 74.652344 545.75 76.9375 548.339844 79.28125 C 550.929688 81.628906 553.464844 84.039062 555.933594 86.511719 C 558.40625 88.980469 560.816406 91.511719 563.167969 94.101562 C 565.515625 96.691406 567.796875 99.335938 570.015625 102.039062 C 572.234375 104.738281 574.386719 107.496094 576.46875 110.300781 C 578.550781 113.109375 580.566406 115.964844 582.507812 118.871094 C 584.453125 121.777344 586.320312 124.730469 588.121094 127.726562 C 589.917969 130.726562 591.640625 133.765625 593.289062 136.847656 C 594.941406 139.929688 596.511719 143.050781 598.007812 146.210938 C 599.503906 149.371094 600.921875 152.566406 602.261719 155.792969 C 603.597656 159.023438 604.859375 162.285156 606.035156 165.574219 C 607.214844 168.867188 608.3125 172.183594 609.328125 175.527344 C 610.34375 178.871094 611.277344 182.242188 612.128906 185.632812 C 612.980469 189.023438 613.746094 192.429688 614.429688 195.859375 C 615.113281 199.289062 615.714844 202.730469 616.226562 206.1875 C 616.742188 209.644531 617.171875 213.113281 617.515625 216.59375 C 617.859375 220.070312 618.117188 223.558594 618.292969 227.046875 C 618.464844 230.539062 618.550781 234.035156 618.554688 237.53125 C 618.554688 291.460938 577.476562 375.441406 496.496094 487.152344 C 493.898438 490.777344 491.09375 494.230469 488.085938 497.519531 C 485.074219 500.808594 481.878906 503.90625 478.5 506.8125 C 475.121094 509.71875 471.582031 512.414062 467.878906 514.898438 C 464.179688 517.382812 460.34375 519.636719 456.371094 521.664062 C 452.402344 523.691406 448.324219 525.472656 444.140625 527.011719 C 439.960938 528.550781 435.699219 529.835938 431.363281 530.867188 C 427.027344 531.898438 422.644531 532.667969 418.214844 533.175781 C 413.785156 533.683594 409.34375 533.925781 404.886719 533.902344 Z M 404.886719 70.25 C 402.148438 70.253906 399.414062 70.324219 396.679688 70.460938 C 393.945312 70.597656 391.214844 70.800781 388.492188 71.074219 C 385.765625 71.34375 383.050781 71.679688 380.34375 72.085938 C 377.636719 72.488281 374.941406 72.960938 372.257812 73.496094 C 369.570312 74.03125 366.902344 74.632812 364.246094 75.300781 C 361.59375 75.96875 358.953125 76.699219 356.335938 77.496094 C 353.714844 78.292969 351.117188 79.152344 348.542969 80.078125 C 345.964844 81 343.414062 81.988281 340.882812 83.039062 C 338.355469 84.085938 335.855469 85.195312 333.378906 86.367188 C 330.90625 87.539062 328.460938 88.773438 326.046875 90.0625 C 323.632812 91.355469 321.253906 92.703125 318.90625 94.113281 C 316.558594 95.519531 314.246094 96.984375 311.972656 98.507812 C 309.695312 100.027344 307.457031 101.605469 305.261719 103.234375 C 303.0625 104.867188 300.90625 106.550781 298.789062 108.289062 C 296.671875 110.027344 294.601562 111.8125 292.574219 113.652344 C 290.542969 115.492188 288.5625 117.378906 286.625 119.3125 C 284.691406 121.25 282.804688 123.230469 280.964844 125.257812 C 279.125 127.289062 277.339844 129.359375 275.601562 131.476562 C 273.863281 133.589844 272.179688 135.75 270.550781 137.945312 C 268.917969 140.144531 267.34375 142.382812 265.820312 144.65625 C 264.300781 146.933594 262.835938 149.246094 261.425781 151.59375 C 260.019531 153.941406 258.667969 156.320312 257.375 158.734375 C 256.085938 161.148438 254.855469 163.59375 253.683594 166.066406 C 252.511719 168.539062 251.398438 171.042969 250.351562 173.570312 C 249.300781 176.097656 248.316406 178.652344 247.390625 181.226562 C 246.46875 183.804688 245.605469 186.402344 244.8125 189.023438 C 244.015625 191.640625 243.28125 194.277344 242.613281 196.933594 C 241.949219 199.589844 241.347656 202.257812 240.808594 204.941406 C 240.273438 207.625 239.804688 210.324219 239.398438 213.03125 C 238.996094 215.738281 238.65625 218.453125 238.386719 221.175781 C 238.113281 223.902344 237.910156 226.628906 237.773438 229.363281 C 237.636719 232.097656 237.566406 234.835938 237.5625 237.570312 C 237.5625 280.285156 277.789062 359.269531 350.804688 459.976562 C 351.574219 461.039062 352.378906 462.074219 353.210938 463.089844 C 354.042969 464.105469 354.90625 465.097656 355.796875 466.0625 C 356.6875 467.027344 357.605469 467.964844 358.550781 468.875 C 359.5 469.785156 360.472656 470.664062 361.46875 471.519531 C 362.46875 472.371094 363.488281 473.195312 364.535156 473.988281 C 365.582031 474.78125 366.652344 475.542969 367.742188 476.269531 C 368.835938 477 369.949219 477.699219 371.082031 478.363281 C 372.214844 479.027344 373.363281 479.65625 374.535156 480.253906 C 375.703125 480.847656 376.890625 481.410156 378.09375 481.9375 C 379.296875 482.464844 380.515625 482.953125 381.746094 483.410156 C 382.976562 483.863281 384.222656 484.28125 385.480469 484.664062 C 386.734375 485.042969 388 485.386719 389.277344 485.695312 C 390.554688 486 391.839844 486.269531 393.132812 486.5 C 394.425781 486.730469 395.722656 486.925781 397.027344 487.078125 C 398.332031 487.234375 399.640625 487.347656 400.949219 487.425781 C 402.261719 487.503906 403.574219 487.542969 404.886719 487.542969 C 406.199219 487.542969 407.511719 487.503906 408.820312 487.425781 C 410.132812 487.347656 411.441406 487.234375 412.742188 487.078125 C 414.046875 486.925781 415.347656 486.730469 416.636719 486.5 C 417.929688 486.269531 419.214844 486 420.492188 485.695312 C 421.769531 485.386719 423.035156 485.042969 424.292969 484.664062 C 425.550781 484.28125 426.792969 483.863281 428.023438 483.410156 C 429.257812 482.953125 430.472656 482.464844 431.675781 481.9375 C 432.878906 481.410156 434.066406 480.847656 435.238281 480.253906 C 436.40625 479.65625 437.558594 479.027344 438.691406 478.363281 C 439.824219 477.699219 440.933594 477 442.027344 476.269531 C 443.117188 475.542969 444.1875 474.78125 445.234375 473.988281 C 446.28125 473.195312 447.304688 472.371094 448.300781 471.519531 C 449.300781 470.664062 450.273438 469.785156 451.21875 468.875 C 452.164062 467.964844 453.085938 467.027344 453.976562 466.0625 C 454.867188 465.097656 455.726562 464.105469 456.5625 463.089844 C 457.394531 462.074219 458.195312 461.039062 458.96875 459.976562 C 531.980469 359.269531 572.207031 280.285156 572.207031 237.570312 C 572.203125 234.835938 572.136719 232.097656 571.996094 229.363281 C 571.859375 226.628906 571.65625 223.902344 571.386719 221.175781 C 571.113281 218.453125 570.777344 215.738281 570.371094 213.03125 C 569.96875 210.324219 569.496094 207.625 568.960938 204.941406 C 568.425781 202.257812 567.824219 199.589844 567.15625 196.933594 C 566.488281 194.277344 565.757812 191.640625 564.960938 189.023438 C 564.164062 186.402344 563.304688 183.804688 562.378906 181.226562 C 561.457031 178.652344 560.46875 176.097656 559.421875 173.570312 C 558.371094 171.042969 557.261719 168.539062 556.089844 166.066406 C 554.917969 163.59375 553.6875 161.148438 552.394531 158.734375 C 551.101562 156.320312 549.753906 153.941406 548.34375 151.59375 C 546.9375 149.246094 545.472656 146.933594 543.949219 144.65625 C 542.429688 142.382812 540.851562 140.144531 539.222656 137.945312 C 537.589844 135.75 535.90625 133.589844 534.167969 131.476562 C 532.433594 129.359375 530.644531 127.289062 528.804688 125.257812 C 526.96875 123.230469 525.082031 121.25 523.144531 119.3125 C 521.207031 117.378906 519.226562 115.492188 517.199219 113.652344 C 515.171875 111.8125 513.097656 110.027344 510.984375 108.289062 C 508.867188 106.550781 506.710938 104.867188 504.511719 103.234375 C 502.3125 101.605469 500.074219 100.027344 497.800781 98.507812 C 495.523438 96.984375 493.210938 95.519531 490.863281 94.113281 C 488.515625 92.703125 486.136719 91.355469 483.722656 90.0625 C 481.308594 88.773438 478.867188 87.539062 476.390625 86.367188 C 473.917969 85.195312 471.417969 84.085938 468.886719 83.039062 C 466.359375 81.988281 463.804688 81 461.230469 80.078125 C 458.652344 79.152344 456.054688 78.292969 453.433594 77.496094 C 450.816406 76.699219 448.179688 75.96875 445.523438 75.300781 C 442.871094 74.632812 440.199219 74.03125 437.515625 73.496094 C 434.832031 72.960938 432.136719 72.488281 429.425781 72.085938 C 426.71875 71.679688 424.003906 71.34375 421.28125 71.074219 C 418.554688 70.800781 415.828125 70.597656 413.09375 70.460938 C 410.359375 70.324219 407.625 70.253906 404.886719 70.25 Z M 404.886719 70.25 " fill-opacity="1" fill-rule="nonzero"/></g><g fill="rgb(30.198669%, 81.959534%, 44.309998%)" fill-opacity="1"><g transform="translate(161.095429, 769.934028)"><g><path d="M 14.765625 0.71875 C 10.234375 0.71875 6.316406 -0.671875 3.015625 -3.453125 C 2.566406 -3.859375 2.34375 -4.378906 2.34375 -5.015625 C 2.34375 -5.492188 2.488281 -5.941406 2.78125 -6.359375 C 3.082031 -6.765625 3.492188 -6.984375 4.015625 -7.015625 C 4.535156 -7.054688 4.976562 -6.890625 5.34375 -6.515625 C 7.988281 -4.253906 11 -3.125 14.375 -3.125 C 16.976562 -3.125 19.160156 -4.066406 20.921875 -5.953125 C 22.691406 -7.847656 23.578125 -10.328125 23.578125 -13.390625 C 23.578125 -16.460938 22.765625 -18.878906 21.140625 -20.640625 C 19.523438 -22.410156 17.34375 -23.296875 14.59375 -23.296875 C 12.625 -23.296875 10.691406 -22.71875 8.796875 -21.5625 C 8.359375 -21.300781 7.925781 -21.171875 7.5 -21.171875 C 7.070312 -21.171875 6.648438 -21.300781 6.234375 -21.5625 C 5.378906 -22.082031 4.992188 -22.84375 5.078125 -23.84375 L 6.078125 -38.5 C 6.109375 -39.4375 6.46875 -40.21875 7.15625 -40.84375 C 7.84375 -41.476562 8.648438 -41.796875 9.578125 -41.796875 L 24.234375 -41.796875 C 24.796875 -41.796875 25.269531 -41.597656 25.65625 -41.203125 C 26.050781 -40.816406 26.25 -40.34375 26.25 -39.78125 C 26.25 -39.226562 26.050781 -38.753906 25.65625 -38.359375 C 25.269531 -37.972656 24.796875 -37.78125 24.234375 -37.78125 L 10.8125 -37.78125 C 10.507812 -37.78125 10.359375 -37.628906 10.359375 -37.328125 L 9.3125 -25.515625 C 9.269531 -25.441406 9.285156 -25.378906 9.359375 -25.328125 C 9.429688 -25.273438 9.503906 -25.265625 9.578125 -25.296875 C 11.546875 -26.335938 13.609375 -26.859375 15.765625 -26.859375 C 19.441406 -26.859375 22.441406 -25.734375 24.765625 -23.484375 C 27.085938 -21.234375 28.25 -17.921875 28.25 -13.546875 C 28.25 -10.609375 27.597656 -8.03125 26.296875 -5.8125 C 25.003906 -3.601562 23.34375 -1.960938 21.3125 -0.890625 C 19.289062 0.179688 17.109375 0.71875 14.765625 0.71875 Z M 14.765625 0.71875 "/></g></g></g><g fill="rgb(30.198669%, 81.959534%, 44.309998%)" fill-opacity="1"><g transform="translate(192.411365, 769.934028)"><g><path d="M 22.171875 -41.796875 C 22.171875 -42.085938 22.039062 -42.234375 21.78125 -42.234375 L 9.53125 -42.234375 C 9.269531 -42.234375 9.140625 -42.085938 9.140625 -41.796875 L 9.140625 -37.5 C 9.140625 -37.238281 9.269531 -37.109375 9.53125 -37.109375 L 21.78125 -37.109375 C 22.039062 -37.109375 22.171875 -37.238281 22.171875 -37.5 Z M 9.140625 -29.3125 C 9.140625 -29.007812 9.269531 -28.859375 9.53125 -28.859375 L 21.78125 -28.859375 C 22.039062 -28.859375 22.171875 -29.007812 22.171875 -29.3125 L 22.171875 -33.828125 C 22.171875 -34.085938 22.039062 -34.21875 21.78125 -34.21875 L 9.53125 -34.21875 C 9.269531 -34.21875 9.140625 -34.085938 9.140625 -33.828125 Z M 25.796875 -29.203125 C 25.796875 -28.273438 25.46875 -27.492188 24.8125 -26.859375 C 24.164062 -26.222656 23.398438 -25.90625 22.515625 -25.90625 L 9.53125 -25.90625 C 9.269531 -25.90625 9.140625 -25.757812 9.140625 -25.46875 L 9.140625 2.5 C 9.140625 2.988281 8.953125 3.414062 8.578125 3.78125 C 8.210938 4.15625 7.773438 4.34375 7.265625 4.34375 C 6.765625 4.34375 6.328125 4.15625 5.953125 3.78125 C 5.585938 3.414062 5.40625 2.988281 5.40625 2.5 L 5.40625 -41.90625 C 5.40625 -42.800781 5.726562 -43.570312 6.375 -44.21875 C 7.03125 -44.863281 7.800781 -45.1875 8.6875 -45.1875 L 22.515625 -45.1875 C 23.398438 -45.1875 24.164062 -44.863281 24.8125 -44.21875 C 25.46875 -43.570312 25.796875 -42.800781 25.796875 -41.90625 Z M 35.4375 -18.0625 C 35.4375 -18.351562 35.289062 -18.5 35 -18.5 L 21.84375 -18.5 C 21.550781 -18.5 21.40625 -18.351562 21.40625 -18.0625 L 21.40625 -13.3125 C 21.40625 -13.019531 21.550781 -12.875 21.84375 -12.875 L 35 -12.875 C 35.289062 -12.875 35.4375 -13.019531 35.4375 -13.3125 Z M 21.40625 -4.453125 C 21.40625 -4.191406 21.550781 -4.0625 21.84375 -4.0625 L 35 -4.0625 C 35.289062 -4.0625 35.4375 -4.191406 35.4375 -4.453125 L 35.4375 -9.53125 C 35.4375 -9.789062 35.289062 -9.921875 35 -9.921875 L 21.84375 -9.921875 C 21.550781 -9.921875 21.40625 -9.789062 21.40625 -9.53125 Z M 38.953125 -4.296875 C 38.953125 -3.398438 38.632812 -2.625 38 -1.96875 C 37.375 -1.320312 36.597656 -1 35.671875 -1 L 21.734375 -1 C 21.515625 -1 21.40625 -0.90625 21.40625 -0.71875 L 21.40625 0.171875 C 21.40625 0.609375 21.234375 1.003906 20.890625 1.359375 C 20.554688 1.710938 20.148438 1.890625 19.671875 1.890625 C 19.191406 1.890625 18.78125 1.710938 18.4375 1.359375 C 18.101562 1.003906 17.9375 0.609375 17.9375 0.171875 L 17.9375 -18.171875 C 17.9375 -19.054688 18.253906 -19.820312 18.890625 -20.46875 C 19.523438 -21.125 20.304688 -21.453125 21.234375 -21.453125 L 35.671875 -21.453125 C 36.597656 -21.453125 37.375 -21.125 38 -20.46875 C 38.632812 -19.820312 38.953125 -19.054688 38.953125 -18.171875 Z M 34.765625 -29.25 C 34.765625 -28.957031 34.894531 -28.8125 35.15625 -28.8125 L 47.8125 -28.8125 C 48.070312 -28.8125 48.203125 -28.957031 48.203125 -29.25 L 48.203125 -33.828125 C 48.203125 -34.085938 48.070312 -34.21875 47.8125 -34.21875 L 35.15625 -34.21875 C 34.894531 -34.21875 34.765625 -34.085938 34.765625 -33.828125 Z M 48.203125 -41.796875 C 48.203125 -42.085938 48.070312 -42.234375 47.8125 -42.234375 L 35.15625 -42.234375 C 34.894531 -42.234375 34.765625 -42.085938 34.765625 -41.796875 L 34.765625 -37.5 C 34.765625 -37.238281 34.894531 -37.109375 35.15625 -37.109375 L 47.8125 -37.109375 C 48.070312 -37.109375 48.203125 -37.238281 48.203125 -37.5 Z M 48.703125 -45.1875 C 49.597656 -45.1875 50.367188 -44.863281 51.015625 -44.21875 C 51.660156 -43.570312 51.984375 -42.800781 51.984375 -41.90625 L 51.984375 -0.890625 C 51.984375 0.367188 51.796875 1.34375 51.421875 2.03125 C 51.054688 2.71875 50.445312 3.25 49.59375 3.625 C 48.363281 4.070312 45.875 4.296875 42.125 4.296875 C 41.570312 4.296875 41.0625 4.109375 40.59375 3.734375 C 40.132812 3.359375 39.8125 2.875 39.625 2.28125 C 39.46875 1.832031 39.519531 1.414062 39.78125 1.03125 C 40.039062 0.644531 40.394531 0.46875 40.84375 0.5 C 42.03125 0.5 43.109375 0.5 44.078125 0.5 C 45.191406 0.5 46.117188 0.484375 46.859375 0.453125 C 47.378906 0.410156 47.734375 0.296875 47.921875 0.109375 C 48.109375 -0.078125 48.203125 -0.410156 48.203125 -0.890625 L 48.203125 -25.40625 C 48.203125 -25.707031 48.070312 -25.859375 47.8125 -25.859375 L 34.375 -25.859375 C 33.488281 -25.859375 32.71875 -26.171875 32.0625 -26.796875 C 31.414062 -27.429688 31.09375 -28.210938 31.09375 -29.140625 L 31.09375 -41.90625 C 31.09375 -42.800781 31.414062 -43.570312 32.0625 -44.21875 C 32.71875 -44.863281 33.488281 -45.1875 34.375 -45.1875 Z M 48.703125 -45.1875 "/></g></g></g><g fill="rgb(30.198669%, 81.959534%, 44.309998%)" fill-opacity="1"><g transform="translate(249.471007, 769.934028)"><g><path d="M 42.90625 -38.84375 C 43.164062 -38.84375 43.296875 -38.988281 43.296875 -39.28125 L 43.296875 -42.734375 C 43.296875 -42.992188 43.164062 -43.125 42.90625 -43.125 L 14.375 -43.125 C 14.113281 -43.125 13.984375 -42.992188 13.984375 -42.734375 L 13.984375 -39.28125 C 13.984375 -38.988281 14.113281 -38.84375 14.375 -38.84375 Z M 42.90625 -31.875 C 43.164062 -31.875 43.296875 -32.023438 43.296875 -32.328125 L 43.296875 -35.78125 C 43.296875 -36.039062 43.164062 -36.171875 42.90625 -36.171875 L 14.375 -36.171875 C 14.113281 -36.171875 13.984375 -36.039062 13.984375 -35.78125 L 13.984375 -32.328125 C 13.984375 -32.023438 14.113281 -31.875 14.375 -31.875 Z M 43.75 -45.859375 C 44.632812 -45.859375 45.398438 -45.539062 46.046875 -44.90625 C 46.703125 -44.28125 47.03125 -43.503906 47.03125 -42.578125 L 47.03125 -32.375 C 47.03125 -31.476562 46.703125 -30.707031 46.046875 -30.0625 C 45.398438 -29.414062 44.632812 -29.09375 43.75 -29.09375 L 13.59375 -29.09375 C 12.707031 -29.09375 11.9375 -29.414062 11.28125 -30.0625 C 10.632812 -30.707031 10.3125 -31.476562 10.3125 -32.375 L 10.3125 -42.578125 C 10.3125 -43.503906 10.632812 -44.28125 11.28125 -44.90625 C 11.9375 -45.539062 12.707031 -45.859375 13.59375 -45.859375 Z M 22.453125 -18.390625 C 22.753906 -18.390625 22.90625 -18.519531 22.90625 -18.78125 L 22.90625 -22.125 C 22.90625 -22.382812 22.753906 -22.515625 22.453125 -22.515625 L 12.484375 -22.515625 C 12.179688 -22.515625 12.03125 -22.382812 12.03125 -22.125 L 12.03125 -18.78125 C 12.03125 -18.519531 12.179688 -18.390625 12.484375 -18.390625 Z M 12.03125 -3.796875 C 12.03125 -3.492188 12.179688 -3.363281 12.484375 -3.40625 L 22.453125 -4.515625 C 22.753906 -4.546875 22.90625 -4.691406 22.90625 -4.953125 L 22.90625 -7.859375 C 22.90625 -8.117188 22.753906 -8.25 22.453125 -8.25 L 12.484375 -8.25 C 12.179688 -8.25 12.03125 -8.117188 12.03125 -7.859375 Z M 12.484375 -15.484375 C 12.179688 -15.484375 12.03125 -15.335938 12.03125 -15.046875 L 12.03125 -11.59375 C 12.03125 -11.332031 12.179688 -11.203125 12.484375 -11.203125 L 22.453125 -11.203125 C 22.753906 -11.203125 22.90625 -11.332031 22.90625 -11.59375 L 22.90625 -15.046875 C 22.90625 -15.335938 22.753906 -15.484375 22.453125 -15.484375 Z M 52.9375 -25.265625 C 53.238281 -24.953125 53.390625 -24.570312 53.390625 -24.125 C 53.390625 -23.675781 53.238281 -23.296875 52.9375 -22.984375 C 52.644531 -22.671875 52.273438 -22.515625 51.828125 -22.515625 L 26.96875 -22.515625 C 26.675781 -22.515625 26.53125 -22.382812 26.53125 -22.125 L 26.53125 2.453125 C 26.53125 2.972656 26.351562 3.410156 26 3.765625 C 25.644531 4.117188 25.21875 4.296875 24.71875 4.296875 C 24.21875 4.296875 23.789062 4.117188 23.4375 3.765625 C 23.082031 3.410156 22.90625 2.972656 22.90625 2.453125 L 22.90625 -1.0625 C 22.90625 -1.351562 22.753906 -1.484375 22.453125 -1.453125 C 14.285156 -0.367188 8.507812 0.375 5.125 0.78125 C 4.644531 0.8125 4.21875 0.703125 3.84375 0.453125 C 3.4375 0.078125 3.234375 -0.390625 3.234375 -0.953125 C 3.234375 -1.316406 3.34375 -1.648438 3.5625 -1.953125 C 3.863281 -2.316406 4.253906 -2.519531 4.734375 -2.5625 L 8.140625 -2.890625 C 8.429688 -2.929688 8.578125 -3.101562 8.578125 -3.40625 L 8.578125 -22.125 C 8.578125 -22.382812 8.429688 -22.515625 8.140625 -22.515625 L 5.125 -22.515625 C 4.675781 -22.515625 4.296875 -22.671875 3.984375 -22.984375 C 3.671875 -23.296875 3.515625 -23.675781 3.515625 -24.125 C 3.515625 -24.570312 3.671875 -24.953125 3.984375 -25.265625 C 4.296875 -25.585938 4.675781 -25.75 5.125 -25.75 L 51.828125 -25.75 C 52.273438 -25.75 52.644531 -25.585938 52.9375 -25.265625 Z M 46.8125 -15.265625 C 46.84375 -15.335938 46.832031 -15.421875 46.78125 -15.515625 C 46.726562 -15.609375 46.644531 -15.65625 46.53125 -15.65625 L 34.890625 -15.65625 C 34.773438 -15.65625 34.6875 -15.609375 34.625 -15.515625 C 34.570312 -15.421875 34.566406 -15.335938 34.609375 -15.265625 C 35.910156 -12.222656 37.726562 -9.472656 40.0625 -7.015625 C 40.25 -6.835938 40.4375 -6.835938 40.625 -7.015625 C 43.257812 -9.472656 45.320312 -12.222656 46.8125 -15.265625 Z M 48.09375 -18.71875 C 49.09375 -18.71875 49.875 -18.609375 50.4375 -18.390625 C 50.769531 -18.242188 51.007812 -18.007812 51.15625 -17.6875 C 51.300781 -17.375 51.320312 -17.066406 51.21875 -16.765625 C 49.5 -12.203125 46.84375 -8.191406 43.25 -4.734375 C 43.019531 -4.546875 43.019531 -4.359375 43.25 -4.171875 C 46.070312 -2.023438 49.285156 -0.394531 52.890625 0.71875 C 53.296875 0.875 53.570312 1.15625 53.71875 1.5625 C 53.757812 1.675781 53.78125 1.804688 53.78125 1.953125 C 53.78125 2.210938 53.6875 2.453125 53.5 2.671875 C 53.125 3.117188 52.675781 3.4375 52.15625 3.625 C 51.894531 3.738281 51.632812 3.796875 51.375 3.796875 C 51.113281 3.796875 50.851562 3.738281 50.59375 3.625 C 46.84375 2.320312 43.519531 0.460938 40.625 -1.953125 C 40.40625 -2.140625 40.179688 -2.140625 39.953125 -1.953125 C 37.054688 0.160156 33.84375 1.90625 30.3125 3.28125 C 29.832031 3.46875 29.347656 3.46875 28.859375 3.28125 C 28.378906 3.101562 27.972656 2.789062 27.640625 2.34375 C 27.492188 2.113281 27.421875 1.867188 27.421875 1.609375 C 27.421875 1.460938 27.4375 1.316406 27.46875 1.171875 C 27.582031 0.765625 27.84375 0.484375 28.25 0.328125 C 31.519531 -0.785156 34.585938 -2.363281 37.453125 -4.40625 C 37.671875 -4.550781 37.6875 -4.71875 37.5 -4.90625 C 35.269531 -7.394531 33.46875 -10.085938 32.09375 -12.984375 C 31.875 -13.503906 31.882812 -14.023438 32.125 -14.546875 C 32.363281 -15.066406 32.765625 -15.398438 33.328125 -15.546875 C 33.359375 -15.546875 33.375 -15.5625 33.375 -15.59375 C 33.375 -15.632812 33.359375 -15.65625 33.328125 -15.65625 L 30.140625 -15.65625 C 29.703125 -15.65625 29.332031 -15.800781 29.03125 -16.09375 C 28.738281 -16.394531 28.59375 -16.757812 28.59375 -17.1875 C 28.59375 -17.613281 28.738281 -17.972656 29.03125 -18.265625 C 29.332031 -18.566406 29.703125 -18.71875 30.140625 -18.71875 Z M 48.09375 -18.71875 "/></g></g></g><g fill="rgb(30.198669%, 81.959534%, 44.309998%)" fill-opacity="1"><g transform="translate(306.530649, 769.934028)"><g><path d="M 52.9375 -38.171875 C 53.15625 -37.722656 53.191406 -37.265625 53.046875 -36.796875 C 52.898438 -36.335938 52.601562 -36 52.15625 -35.78125 C 51.707031 -35.550781 51.257812 -35.507812 50.8125 -35.65625 C 50.375 -35.8125 50.039062 -36.113281 49.8125 -36.5625 C 48.625 -38.789062 47.03125 -41 45.03125 -43.1875 C 44.726562 -43.476562 44.613281 -43.828125 44.6875 -44.234375 C 44.757812 -44.648438 44.984375 -44.953125 45.359375 -45.140625 C 45.734375 -45.328125 46.101562 -45.421875 46.46875 -45.421875 C 46.988281 -45.421875 47.492188 -45.195312 47.984375 -44.75 C 49.953125 -42.632812 51.601562 -40.441406 52.9375 -38.171875 Z M 28.359375 -40.296875 C 28.847656 -40.296875 29.265625 -40.125 29.609375 -39.78125 C 29.960938 -39.445312 30.140625 -39.039062 30.140625 -38.5625 C 30.140625 -38.082031 29.960938 -37.664062 29.609375 -37.3125 C 29.265625 -36.957031 28.847656 -36.78125 28.359375 -36.78125 L 5.078125 -36.78125 C 4.585938 -36.78125 4.164062 -36.957031 3.8125 -37.3125 C 3.457031 -37.664062 3.28125 -38.082031 3.28125 -38.5625 C 3.28125 -39.039062 3.457031 -39.445312 3.8125 -39.78125 C 4.164062 -40.125 4.585938 -40.296875 5.078125 -40.296875 L 14.59375 -40.296875 C 14.851562 -40.296875 14.984375 -40.421875 14.984375 -40.671875 L 14.984375 -45.8125 C 14.984375 -46.332031 15.171875 -46.773438 15.546875 -47.140625 C 15.921875 -47.515625 16.367188 -47.703125 16.890625 -47.703125 C 17.410156 -47.703125 17.851562 -47.515625 18.21875 -47.140625 C 18.59375 -46.773438 18.78125 -46.332031 18.78125 -45.8125 L 18.78125 -40.671875 C 18.78125 -40.421875 18.910156 -40.296875 19.171875 -40.296875 Z M 7.140625 -12.53125 C 7.285156 -13.019531 7.570312 -13.394531 8 -13.65625 C 8.425781 -13.914062 8.878906 -14 9.359375 -13.90625 C 9.847656 -13.8125 10.21875 -13.550781 10.46875 -13.125 C 10.726562 -12.695312 10.785156 -12.242188 10.640625 -11.765625 C 9.523438 -7.898438 8.039062 -4.5 6.1875 -1.5625 C 5.925781 -1.15625 5.546875 -0.921875 5.046875 -0.859375 C 4.546875 -0.804688 4.109375 -0.925781 3.734375 -1.21875 C 3.328125 -1.519531 3.085938 -1.910156 3.015625 -2.390625 C 2.972656 -2.503906 2.953125 -2.617188 2.953125 -2.734375 C 2.953125 -3.066406 3.0625 -3.378906 3.28125 -3.671875 C 4.84375 -6.015625 6.128906 -8.96875 7.140625 -12.53125 Z M 10.359375 -28.859375 C 10.066406 -28.859375 9.921875 -28.726562 9.921875 -28.46875 L 9.921875 -21.125 C 9.921875 -20.863281 10.066406 -20.734375 10.359375 -20.734375 L 23.40625 -20.734375 C 23.664062 -20.734375 23.796875 -20.863281 23.796875 -21.125 L 23.796875 -28.46875 C 23.796875 -28.726562 23.664062 -28.859375 23.40625 -28.859375 Z M 27.46875 -20.734375 C 27.46875 -19.835938 27.140625 -19.0625 26.484375 -18.40625 C 25.835938 -17.757812 25.070312 -17.4375 24.1875 -17.4375 L 19.171875 -17.4375 C 18.910156 -17.4375 18.78125 -17.304688 18.78125 -17.046875 L 18.78125 -0.109375 C 18.78125 0.890625 18.660156 1.660156 18.421875 2.203125 C 18.179688 2.742188 17.707031 3.160156 17 3.453125 C 16.070312 3.859375 14.285156 4.0625 11.640625 4.0625 C 11.117188 4.0625 10.644531 3.894531 10.21875 3.5625 C 9.789062 3.226562 9.488281 2.800781 9.3125 2.28125 C 9.195312 1.875 9.25 1.503906 9.46875 1.171875 C 9.695312 0.835938 10.015625 0.671875 10.421875 0.671875 C 11.648438 0.671875 12.929688 0.671875 14.265625 0.671875 C 14.859375 0.628906 15.15625 0.347656 15.15625 -0.171875 L 15.15625 -17.046875 C 15.15625 -17.304688 15.023438 -17.4375 14.765625 -17.4375 L 9.703125 -17.4375 C 8.765625 -17.4375 7.976562 -17.757812 7.34375 -18.40625 C 6.71875 -19.0625 6.40625 -19.835938 6.40625 -20.734375 L 6.40625 -28.859375 C 6.40625 -29.753906 6.71875 -30.523438 7.34375 -31.171875 C 7.976562 -31.828125 8.765625 -32.15625 9.703125 -32.15625 L 24.1875 -32.15625 C 25.070312 -32.15625 25.835938 -31.828125 26.484375 -31.171875 C 27.140625 -30.523438 27.46875 -29.753906 27.46875 -28.859375 Z M 28.75 -6.796875 C 28.90625 -6.347656 28.878906 -5.910156 28.671875 -5.484375 C 28.460938 -5.054688 28.140625 -4.75 27.703125 -4.5625 C 27.253906 -4.414062 26.820312 -4.441406 26.40625 -4.640625 C 26 -4.847656 25.722656 -5.175781 25.578125 -5.625 C 24.867188 -7.820312 23.941406 -10.015625 22.796875 -12.203125 C 22.679688 -12.421875 22.625 -12.644531 22.625 -12.875 C 22.625 -13.019531 22.660156 -13.1875 22.734375 -13.375 C 22.878906 -13.78125 23.140625 -14.039062 23.515625 -14.15625 C 23.960938 -14.34375 24.40625 -14.351562 24.84375 -14.1875 C 25.289062 -14.019531 25.628906 -13.726562 25.859375 -13.3125 C 27.046875 -11.164062 28.007812 -8.992188 28.75 -6.796875 Z M 46.421875 0.390625 L 48.984375 0.390625 C 49.460938 0.390625 49.851562 0.367188 50.15625 0.328125 C 50.675781 0.222656 51.082031 -0.0351562 51.375 -0.453125 C 51.601562 -0.703125 51.753906 -1.035156 51.828125 -1.453125 C 51.972656 -2.453125 52.046875 -4.21875 52.046875 -6.75 C 52.046875 -7.082031 52.203125 -7.332031 52.515625 -7.5 C 52.835938 -7.664062 53.144531 -7.65625 53.4375 -7.46875 C 54.476562 -6.945312 55 -6.203125 55 -5.234375 C 55 -2.597656 54.832031 -0.578125 54.5 0.828125 C 54.164062 1.984375 53.535156 2.820312 52.609375 3.34375 C 51.785156 3.789062 50.671875 4.015625 49.265625 4.015625 L 45.53125 4.015625 C 44.082031 4.015625 42.894531 3.695312 41.96875 3.0625 C 41.445312 2.65625 41.097656 2.15625 40.921875 1.5625 C 40.753906 0.96875 40.671875 -0.015625 40.671875 -1.390625 L 40.671875 -19.34375 C 40.671875 -19.34375 40.660156 -19.347656 40.640625 -19.359375 C 40.628906 -19.378906 40.625 -19.375 40.625 -19.34375 C 38.800781 -10.195312 35.066406 -2.726562 29.421875 3.0625 C 29.046875 3.4375 28.578125 3.628906 28.015625 3.640625 C 27.460938 3.660156 26.96875 3.503906 26.53125 3.171875 C 26.039062 2.878906 25.796875 2.453125 25.796875 1.890625 C 25.796875 1.523438 25.945312 1.191406 26.25 0.890625 C 33.269531 -6.203125 37.207031 -16.007812 38.0625 -28.53125 C 38.0625 -28.789062 37.929688 -28.921875 37.671875 -28.921875 L 31.546875 -28.921875 C 31.023438 -28.921875 30.59375 -29.097656 30.25 -29.453125 C 29.914062 -29.804688 29.75 -30.234375 29.75 -30.734375 C 29.75 -31.234375 29.914062 -31.660156 30.25 -32.015625 C 30.59375 -32.367188 31.023438 -32.546875 31.546875 -32.546875 L 37.84375 -32.546875 C 38.101562 -32.546875 38.234375 -32.675781 38.234375 -32.9375 C 38.265625 -33.675781 38.28125 -34.769531 38.28125 -36.21875 L 38.28125 -45.859375 C 38.28125 -46.378906 38.460938 -46.816406 38.828125 -47.171875 C 39.203125 -47.523438 39.640625 -47.703125 40.140625 -47.703125 C 40.648438 -47.703125 41.085938 -47.523438 41.453125 -47.171875 C 41.828125 -46.816406 42.015625 -46.378906 42.015625 -45.859375 L 42.015625 -36.28125 C 42.015625 -34.832031 42 -33.71875 41.96875 -32.9375 C 41.96875 -32.675781 42.09375 -32.546875 42.34375 -32.546875 L 52.5 -32.546875 C 52.976562 -32.546875 53.394531 -32.367188 53.75 -32.015625 C 54.101562 -31.660156 54.28125 -31.234375 54.28125 -30.734375 C 54.28125 -30.234375 54.101562 -29.804688 53.75 -29.453125 C 53.394531 -29.097656 52.976562 -28.921875 52.5 -28.921875 L 42.1875 -28.921875 C 41.925781 -28.921875 41.773438 -28.789062 41.734375 -28.53125 C 41.703125 -27.601562 41.648438 -26.859375 41.578125 -26.296875 C 41.578125 -26.117188 41.664062 -26.03125 41.84375 -26.03125 C 42.476562 -26.03125 43.019531 -25.804688 43.46875 -25.359375 C 43.914062 -24.910156 44.140625 -24.367188 44.140625 -23.734375 L 44.140625 -1.0625 C 44.140625 -0.539062 44.34375 -0.164062 44.75 0.0625 C 45.15625 0.28125 45.710938 0.390625 46.421875 0.390625 Z M 46.421875 0.390625 "/></g></g></g><g fill="rgb(30.198669%, 81.959534%, 44.309998%)" fill-opacity="1"><g transform="translate(363.59029, 769.934028)"><g><path d="M 39.625 -26.796875 C 39.625 -27.054688 39.472656 -27.1875 39.171875 -27.1875 L 27.859375 -27.1875 C 27.597656 -27.1875 27.453125 -27.054688 27.421875 -26.796875 C 26.972656 -18.222656 24.742188 -11.410156 20.734375 -6.359375 C 20.429688 -5.984375 20.035156 -5.800781 19.546875 -5.8125 C 19.066406 -5.832031 18.640625 -6.019531 18.265625 -6.375 C 17.898438 -6.726562 17.6875 -7.144531 17.625 -7.625 C 17.570312 -8.113281 17.695312 -8.5625 18 -8.96875 C 19.226562 -10.570312 20.25 -12.289062 21.0625 -14.125 C 21.882812 -15.96875 22.488281 -17.875 22.875 -19.84375 C 23.257812 -21.8125 23.515625 -23.601562 23.640625 -25.21875 C 23.773438 -26.832031 23.84375 -28.601562 23.84375 -30.53125 L 23.84375 -41.0625 C 23.84375 -41.769531 24.125 -42.328125 24.6875 -42.734375 C 25.0625 -43.078125 25.488281 -43.25 25.96875 -43.25 C 26.113281 -43.25 26.28125 -43.226562 26.46875 -43.1875 C 26.6875 -43.113281 26.910156 -43.09375 27.140625 -43.125 C 34.753906 -44.164062 40.863281 -45.375 45.46875 -46.75 C 45.914062 -46.863281 46.34375 -46.921875 46.75 -46.921875 C 47.644531 -46.921875 48.460938 -46.625 49.203125 -46.03125 C 49.535156 -45.726562 49.65625 -45.34375 49.5625 -44.875 C 49.46875 -44.414062 49.203125 -44.113281 48.765625 -43.96875 C 43.335938 -42.445312 36.390625 -41.128906 27.921875 -40.015625 C 27.660156 -39.972656 27.53125 -39.804688 27.53125 -39.515625 L 27.53125 -31.15625 C 27.53125 -30.894531 27.660156 -30.765625 27.921875 -30.765625 L 52.328125 -30.765625 C 52.804688 -30.765625 53.222656 -30.585938 53.578125 -30.234375 C 53.929688 -29.878906 54.109375 -29.457031 54.109375 -28.96875 C 54.109375 -28.488281 53.929688 -28.070312 53.578125 -27.71875 C 53.222656 -27.363281 52.804688 -27.1875 52.328125 -27.1875 L 43.796875 -27.1875 C 43.503906 -27.1875 43.359375 -27.054688 43.359375 -26.796875 L 43.359375 -5.234375 C 43.359375 -4.710938 43.171875 -4.265625 42.796875 -3.890625 C 42.421875 -3.523438 41.972656 -3.34375 41.453125 -3.34375 C 40.929688 -3.34375 40.492188 -3.523438 40.140625 -3.890625 C 39.796875 -4.265625 39.625 -4.710938 39.625 -5.234375 Z M 15.265625 -38.953125 C 15.640625 -38.546875 15.796875 -38.070312 15.734375 -37.53125 C 15.679688 -36.988281 15.429688 -36.535156 14.984375 -36.171875 C 14.578125 -35.835938 14.125 -35.707031 13.625 -35.78125 C 13.125 -35.851562 12.707031 -36.09375 12.375 -36.5 C 10.550781 -38.65625 8.15625 -40.8125 5.1875 -42.96875 C 4.8125 -43.226562 4.613281 -43.578125 4.59375 -44.015625 C 4.570312 -44.460938 4.75 -44.835938 5.125 -45.140625 C 5.53125 -45.472656 5.992188 -45.65625 6.515625 -45.6875 C 6.554688 -45.6875 6.59375 -45.6875 6.625 -45.6875 C 7.144531 -45.6875 7.613281 -45.539062 8.03125 -45.25 C 11 -43.164062 13.410156 -41.066406 15.265625 -38.953125 Z M 11.53125 -25.296875 C 12.457031 -25.296875 13.238281 -24.96875 13.875 -24.3125 C 14.507812 -23.664062 14.828125 -22.898438 14.828125 -22.015625 L 14.828125 -7.40625 C 14.828125 -7.144531 14.898438 -6.90625 15.046875 -6.6875 C 17.753906 -2.75 22.546875 -0.671875 29.421875 -0.453125 C 31.460938 -0.367188 34.023438 -0.328125 37.109375 -0.328125 C 38.191406 -0.328125 39.34375 -0.328125 40.5625 -0.328125 C 45.207031 -0.367188 49.273438 -0.484375 52.765625 -0.671875 C 53.210938 -0.703125 53.566406 -0.535156 53.828125 -0.171875 C 54.015625 0.0859375 54.109375 0.347656 54.109375 0.609375 C 54.109375 0.753906 54.070312 0.90625 54 1.0625 C 53.8125 1.65625 53.492188 2.132812 53.046875 2.5 C 52.597656 2.875 52.078125 3.082031 51.484375 3.125 C 46.804688 3.269531 42.460938 3.34375 38.453125 3.34375 C 35.253906 3.34375 32.265625 3.285156 29.484375 3.171875 C 25.765625 3.066406 22.601562 2.484375 20 1.421875 C 17.40625 0.359375 15.195312 -1.226562 13.375 -3.34375 C 13.1875 -3.53125 13 -3.550781 12.8125 -3.40625 C 10.4375 -1.25 8.191406 0.679688 6.078125 2.390625 C 5.628906 2.765625 5.132812 2.894531 4.59375 2.78125 C 4.0625 2.675781 3.644531 2.378906 3.34375 1.890625 C 3.082031 1.335938 3.015625 0.769531 3.140625 0.1875 C 3.273438 -0.382812 3.601562 -0.851562 4.125 -1.21875 C 6.164062 -2.707031 8.410156 -4.492188 10.859375 -6.578125 C 11.085938 -6.765625 11.203125 -6.988281 11.203125 -7.25 L 11.203125 -21.28125 C 11.203125 -21.539062 11.050781 -21.671875 10.75 -21.671875 L 4.84375 -21.671875 C 4.320312 -21.671875 3.882812 -21.847656 3.53125 -22.203125 C 3.1875 -22.554688 3.015625 -22.984375 3.015625 -23.484375 C 3.015625 -23.984375 3.1875 -24.410156 3.53125 -24.765625 C 3.882812 -25.117188 4.320312 -25.296875 4.84375 -25.296875 Z M 11.53125 -25.296875 "/></g></g></g><g fill="rgb(30.198669%, 81.959534%, 44.309998%)" fill-opacity="1"><g transform="translate(420.649932, 769.934028)"><g><path d="M 30.765625 -13.9375 C 30.503906 -13.9375 30.375 -13.785156 30.375 -13.484375 L 30.375 -2.671875 C 30.375 -2.410156 30.503906 -2.242188 30.765625 -2.171875 C 33.585938 -1.617188 37.078125 -1.34375 41.234375 -1.34375 C 46.585938 -1.34375 50.414062 -1.359375 52.71875 -1.390625 C 53.164062 -1.390625 53.5 -1.1875 53.71875 -0.78125 C 53.863281 -0.5625 53.9375 -0.335938 53.9375 -0.109375 C 53.9375 0.078125 53.898438 0.242188 53.828125 0.390625 C 53.640625 0.941406 53.3125 1.40625 52.84375 1.78125 C 52.382812 2.15625 51.878906 2.34375 51.328125 2.34375 L 41.0625 2.34375 C 34.300781 2.34375 28.75 1.453125 24.40625 -0.328125 C 20.132812 -2.035156 16.695312 -5.195312 14.09375 -9.8125 C 14.0625 -9.84375 14 -9.859375 13.90625 -9.859375 C 13.8125 -9.859375 13.742188 -9.820312 13.703125 -9.75 C 11.773438 -4.695312 9.363281 -0.796875 6.46875 1.953125 C 6.09375 2.285156 5.664062 2.453125 5.1875 2.453125 C 5.144531 2.453125 5.109375 2.453125 5.078125 2.453125 C 4.554688 2.410156 4.085938 2.207031 3.671875 1.84375 C 3.335938 1.507812 3.171875 1.097656 3.171875 0.609375 C 3.171875 0.160156 3.335938 -0.226562 3.671875 -0.5625 C 8.429688 -4.90625 11.40625 -11.757812 12.59375 -21.125 C 12.664062 -21.675781 12.914062 -22.128906 13.34375 -22.484375 C 13.769531 -22.835938 14.253906 -22.976562 14.796875 -22.90625 C 15.335938 -22.832031 15.773438 -22.582031 16.109375 -22.15625 C 16.441406 -21.726562 16.570312 -21.253906 16.5 -20.734375 C 16.195312 -19.023438 15.804688 -17.164062 15.328125 -15.15625 C 15.253906 -14.894531 15.269531 -14.632812 15.375 -14.375 C 17.644531 -9.175781 21.234375 -5.570312 26.140625 -3.5625 C 26.242188 -3.53125 26.332031 -3.539062 26.40625 -3.59375 C 26.488281 -3.644531 26.53125 -3.710938 26.53125 -3.796875 L 26.53125 -26.296875 C 26.53125 -26.597656 26.378906 -26.75 26.078125 -26.75 L 5.578125 -26.75 C 5.085938 -26.75 4.664062 -26.925781 4.3125 -27.28125 C 3.96875 -27.632812 3.796875 -28.050781 3.796875 -28.53125 C 3.796875 -29.007812 3.96875 -29.425781 4.3125 -29.78125 C 4.664062 -30.132812 5.085938 -30.3125 5.578125 -30.3125 L 26.078125 -30.3125 C 26.335938 -30.3125 26.46875 -30.460938 26.46875 -30.765625 L 26.46875 -38.109375 C 26.46875 -38.410156 26.335938 -38.5625 26.078125 -38.5625 L 10.46875 -38.5625 C 9.957031 -38.5625 9.53125 -38.726562 9.1875 -39.0625 C 8.851562 -39.394531 8.6875 -39.8125 8.6875 -40.3125 C 8.6875 -40.8125 8.851562 -41.226562 9.1875 -41.5625 C 9.53125 -41.90625 9.957031 -42.078125 10.46875 -42.078125 L 26.078125 -42.078125 C 26.335938 -42.078125 26.46875 -42.207031 26.46875 -42.46875 L 26.46875 -46.921875 C 26.46875 -47.441406 26.660156 -47.894531 27.046875 -48.28125 C 27.441406 -48.675781 27.898438 -48.875 28.421875 -48.875 C 28.941406 -48.875 29.394531 -48.675781 29.78125 -48.28125 C 30.175781 -47.894531 30.375 -47.441406 30.375 -46.921875 L 30.375 -42.46875 C 30.375 -42.207031 30.503906 -42.078125 30.765625 -42.078125 L 47.359375 -42.078125 C 47.847656 -42.078125 48.257812 -41.90625 48.59375 -41.5625 C 48.925781 -41.226562 49.09375 -40.8125 49.09375 -40.3125 C 49.09375 -39.8125 48.925781 -39.394531 48.59375 -39.0625 C 48.257812 -38.726562 47.847656 -38.5625 47.359375 -38.5625 L 30.765625 -38.5625 C 30.503906 -38.5625 30.375 -38.410156 30.375 -38.109375 L 30.375 -30.765625 C 30.375 -30.460938 30.503906 -30.3125 30.765625 -30.3125 L 51.4375 -30.3125 C 51.914062 -30.3125 52.332031 -30.132812 52.6875 -29.78125 C 53.039062 -29.425781 53.21875 -29.007812 53.21875 -28.53125 C 53.21875 -28.050781 53.039062 -27.632812 52.6875 -27.28125 C 52.332031 -26.925781 51.914062 -26.75 51.4375 -26.75 L 30.765625 -26.75 C 30.503906 -26.75 30.375 -26.597656 30.375 -26.296875 L 30.375 -17.828125 C 30.375 -17.566406 30.503906 -17.4375 30.765625 -17.4375 L 47.703125 -17.4375 C 48.222656 -17.4375 48.648438 -17.269531 48.984375 -16.9375 C 49.316406 -16.601562 49.484375 -16.1875 49.484375 -15.6875 C 49.484375 -15.1875 49.316406 -14.769531 48.984375 -14.4375 C 48.648438 -14.101562 48.222656 -13.9375 47.703125 -13.9375 Z M 30.765625 -13.9375 "/></g></g></g><g fill="rgb(30.198669%, 81.959534%, 44.309998%)" fill-opacity="1"><g transform="translate(477.709574, 769.934028)"><g><path d="M 22.34375 -45.96875 C 22.570312 -46.414062 22.90625 -46.75 23.34375 -46.96875 C 23.644531 -47.125 23.925781 -47.203125 24.1875 -47.203125 C 24.375 -47.203125 24.554688 -47.164062 24.734375 -47.09375 C 25.179688 -46.976562 25.5 -46.707031 25.6875 -46.28125 C 25.875 -45.851562 25.859375 -45.453125 25.640625 -45.078125 C 24.742188 -43.515625 24 -42.269531 23.40625 -41.34375 C 23.144531 -40.976562 22.800781 -40.710938 22.375 -40.546875 C 21.945312 -40.378906 21.507812 -40.367188 21.0625 -40.515625 C 20.6875 -40.617188 20.429688 -40.859375 20.296875 -41.234375 C 20.171875 -41.609375 20.203125 -41.960938 20.390625 -42.296875 C 21.066406 -43.484375 21.71875 -44.707031 22.34375 -45.96875 Z M 12.65625 -42.578125 C 12.832031 -42.128906 12.816406 -41.707031 12.609375 -41.3125 C 12.410156 -40.925781 12.085938 -40.660156 11.640625 -40.515625 C 11.234375 -40.367188 10.832031 -40.382812 10.4375 -40.5625 C 10.050781 -40.75 9.785156 -41.046875 9.640625 -41.453125 C 9.117188 -42.722656 8.523438 -43.96875 7.859375 -45.1875 C 7.671875 -45.519531 7.648438 -45.875 7.796875 -46.25 C 7.953125 -46.625 8.210938 -46.863281 8.578125 -46.96875 C 8.765625 -47.007812 8.96875 -47.03125 9.1875 -47.03125 C 9.414062 -47.03125 9.640625 -46.992188 9.859375 -46.921875 C 10.304688 -46.773438 10.640625 -46.492188 10.859375 -46.078125 C 11.609375 -44.859375 12.207031 -43.691406 12.65625 -42.578125 Z M 14.546875 -26.796875 C 14.804688 -26.796875 14.9375 -26.945312 14.9375 -27.25 L 14.9375 -36.171875 C 14.9375 -36.429688 14.804688 -36.5625 14.546875 -36.5625 L 4.453125 -36.5625 C 4.046875 -36.5625 3.679688 -36.71875 3.359375 -37.03125 C 3.046875 -37.34375 2.890625 -37.710938 2.890625 -38.140625 C 2.890625 -38.566406 3.046875 -38.9375 3.359375 -39.25 C 3.679688 -39.570312 4.046875 -39.734375 4.453125 -39.734375 L 28.75 -39.734375 C 29.15625 -39.734375 29.515625 -39.570312 29.828125 -39.25 C 30.148438 -38.9375 30.3125 -38.566406 30.3125 -38.140625 C 30.3125 -37.710938 30.148438 -37.34375 29.828125 -37.03125 C 29.515625 -36.71875 29.15625 -36.5625 28.75 -36.5625 L 18.78125 -36.5625 C 18.519531 -36.5625 18.390625 -36.429688 18.390625 -36.171875 L 18.390625 -27.25 C 18.390625 -26.945312 18.519531 -26.796875 18.78125 -26.796875 L 24.40625 -26.796875 C 24.664062 -26.796875 24.796875 -26.945312 24.796875 -27.25 L 24.796875 -32.484375 C 24.796875 -32.929688 24.960938 -33.3125 25.296875 -33.625 C 25.628906 -33.945312 26.019531 -34.109375 26.46875 -34.109375 C 26.914062 -34.109375 27.296875 -33.945312 27.609375 -33.625 C 27.921875 -33.3125 28.078125 -32.929688 28.078125 -32.484375 L 28.078125 -23.453125 C 28.078125 -23.015625 27.921875 -22.632812 27.609375 -22.3125 C 27.296875 -22 26.914062 -21.84375 26.46875 -21.84375 C 26.019531 -21.84375 25.628906 -22 25.296875 -22.3125 C 24.960938 -22.632812 24.796875 -23.015625 24.796875 -23.453125 L 24.796875 -23.515625 C 24.796875 -23.660156 24.738281 -23.734375 24.625 -23.734375 L 18.609375 -23.734375 C 18.347656 -23.734375 18.203125 -23.601562 18.171875 -23.34375 C 17.421875 -18.476562 14.316406 -14.914062 8.859375 -12.65625 C 8.566406 -12.539062 8.269531 -12.484375 7.96875 -12.484375 C 7.332031 -12.484375 6.71875 -12.816406 6.125 -13.484375 C 5.863281 -13.785156 5.78125 -14.128906 5.875 -14.515625 C 5.96875 -14.898438 6.203125 -15.171875 6.578125 -15.328125 C 9.171875 -16.328125 11.082031 -17.484375 12.3125 -18.796875 C 13.539062 -20.117188 14.34375 -21.632812 14.71875 -23.34375 C 14.75 -23.601562 14.632812 -23.734375 14.375 -23.734375 L 8.6875 -23.734375 C 8.507812 -23.734375 8.421875 -23.640625 8.421875 -23.453125 L 8.421875 -22.6875 C 8.421875 -22.238281 8.257812 -21.851562 7.9375 -21.53125 C 7.625 -21.21875 7.242188 -21.0625 6.796875 -21.0625 C 6.347656 -21.0625 5.96875 -21.21875 5.65625 -21.53125 C 5.34375 -21.851562 5.1875 -22.238281 5.1875 -22.6875 L 5.1875 -32.546875 C 5.1875 -32.992188 5.34375 -33.363281 5.65625 -33.65625 C 5.96875 -33.957031 6.347656 -34.109375 6.796875 -34.109375 C 7.242188 -34.109375 7.625 -33.957031 7.9375 -33.65625 C 8.257812 -33.363281 8.421875 -32.992188 8.421875 -32.546875 L 8.421875 -27.25 C 8.421875 -26.945312 8.546875 -26.796875 8.796875 -26.796875 Z M 48.203125 -41.578125 C 48.203125 -41.867188 48.070312 -42.015625 47.8125 -42.015625 L 37 -42.015625 C 36.707031 -42.015625 36.5625 -41.867188 36.5625 -41.578125 L 36.5625 -37.28125 C 36.5625 -37.019531 36.707031 -36.890625 37 -36.890625 L 47.8125 -36.890625 C 48.070312 -36.890625 48.203125 -37.019531 48.203125 -37.28125 Z M 36.390625 -29.03125 C 36.347656 -28.738281 36.476562 -28.59375 36.78125 -28.59375 L 47.8125 -28.59375 C 48.070312 -28.59375 48.203125 -28.738281 48.203125 -29.03125 L 48.203125 -33.484375 C 48.203125 -33.742188 48.070312 -33.875 47.8125 -33.875 L 37 -33.875 C 36.707031 -33.875 36.5625 -33.742188 36.5625 -33.484375 L 36.5625 -32.765625 C 36.5625 -31.429688 36.503906 -30.1875 36.390625 -29.03125 Z M 48.203125 -25.125 C 48.203125 -25.425781 48.070312 -25.578125 47.8125 -25.578125 L 36.328125 -25.578125 C 36.035156 -25.578125 35.851562 -25.445312 35.78125 -25.1875 C 34.925781 -21.363281 33.304688 -18.28125 30.921875 -15.9375 C 30.585938 -15.601562 30.160156 -15.4375 29.640625 -15.4375 C 29.117188 -15.4375 28.640625 -15.582031 28.203125 -15.875 C 27.867188 -16.101562 27.679688 -16.429688 27.640625 -16.859375 C 27.597656 -17.285156 27.726562 -17.644531 28.03125 -17.9375 C 30.070312 -19.90625 31.4375 -22.125 32.125 -24.59375 C 32.8125 -27.070312 33.15625 -29.816406 33.15625 -32.828125 L 33.15625 -41.90625 C 33.15625 -42.800781 33.476562 -43.570312 34.125 -44.21875 C 34.78125 -44.863281 35.550781 -45.1875 36.4375 -45.1875 L 48.53125 -45.1875 C 49.425781 -45.1875 50.195312 -44.863281 50.84375 -44.21875 C 51.5 -43.570312 51.828125 -42.800781 51.828125 -41.90625 L 51.828125 -18.4375 C 51.828125 -17.40625 51.695312 -16.617188 51.4375 -16.078125 C 51.175781 -15.535156 50.691406 -15.117188 49.984375 -14.828125 C 49.015625 -14.410156 47.15625 -14.1875 44.40625 -14.15625 C 43.882812 -14.15625 43.410156 -14.320312 42.984375 -14.65625 C 42.554688 -14.988281 42.253906 -15.394531 42.078125 -15.875 C 41.960938 -16.289062 42.015625 -16.671875 42.234375 -17.015625 C 42.460938 -17.367188 42.78125 -17.53125 43.1875 -17.5 C 43.300781 -17.5 44.65625 -17.5 47.25 -17.5 C 47.625 -17.53125 47.875 -17.617188 48 -17.765625 C 48.132812 -17.921875 48.203125 -18.164062 48.203125 -18.5 Z M 30.3125 -1.28125 C 30.3125 -0.976562 30.441406 -0.828125 30.703125 -0.828125 L 52.546875 -0.828125 C 53.023438 -0.828125 53.429688 -0.660156 53.765625 -0.328125 C 54.109375 0.00390625 54.28125 0.398438 54.28125 0.859375 C 54.28125 1.328125 54.109375 1.726562 53.765625 2.0625 C 53.429688 2.394531 53.023438 2.5625 52.546875 2.5625 L 4.515625 2.5625 C 4.035156 2.5625 3.625 2.394531 3.28125 2.0625 C 2.945312 1.726562 2.78125 1.328125 2.78125 0.859375 C 2.78125 0.398438 2.945312 0.00390625 3.28125 -0.328125 C 3.625 -0.660156 4.035156 -0.828125 4.515625 -0.828125 L 26.078125 -0.828125 C 26.335938 -0.828125 26.46875 -0.976562 26.46875 -1.28125 L 26.46875 -7.1875 C 26.46875 -7.445312 26.335938 -7.578125 26.078125 -7.578125 L 10.359375 -7.578125 C 9.921875 -7.578125 9.539062 -7.742188 9.21875 -8.078125 C 8.90625 -8.410156 8.75 -8.800781 8.75 -9.25 C 8.75 -9.695312 8.90625 -10.085938 9.21875 -10.421875 C 9.539062 -10.753906 9.921875 -10.921875 10.359375 -10.921875 L 26.078125 -10.921875 C 26.335938 -10.921875 26.46875 -11.050781 26.46875 -11.3125 L 26.46875 -12.875 C 26.46875 -13.394531 26.648438 -13.835938 27.015625 -14.203125 C 27.390625 -14.578125 27.847656 -14.765625 28.390625 -14.765625 C 28.929688 -14.765625 29.382812 -14.578125 29.75 -14.203125 C 30.125 -13.835938 30.3125 -13.394531 30.3125 -12.875 L 30.3125 -11.3125 C 30.3125 -11.050781 30.441406 -10.921875 30.703125 -10.921875 L 46.703125 -10.921875 C 47.140625 -10.921875 47.515625 -10.753906 47.828125 -10.421875 C 48.148438 -10.085938 48.3125 -9.695312 48.3125 -9.25 C 48.3125 -8.800781 48.148438 -8.410156 47.828125 -8.078125 C 47.515625 -7.742188 47.140625 -7.578125 46.703125 -7.578125 L 30.703125 -7.578125 C 30.441406 -7.578125 30.3125 -7.445312 30.3125 -7.1875 Z M 30.3125 -1.28125 "/></g></g></g><g fill="rgb(30.198669%, 81.959534%, 44.309998%)" fill-opacity="1"><g transform="translate(534.769216, 769.934028)"><g><path d="M 26.796875 -46.140625 C 26.796875 -46.660156 26.988281 -47.113281 27.375 -47.5 C 27.769531 -47.894531 28.238281 -48.09375 28.78125 -48.09375 C 29.320312 -48.09375 29.785156 -47.894531 30.171875 -47.5 C 30.566406 -47.113281 30.765625 -46.660156 30.765625 -46.140625 L 30.765625 -2.390625 C 30.765625 -0.984375 30.554688 0.078125 30.140625 0.796875 C 29.734375 1.523438 29.046875 2.054688 28.078125 2.390625 C 26.710938 2.765625 23.835938 2.988281 19.453125 3.0625 C 18.816406 3.0625 18.257812 2.875 17.78125 2.5 C 17.257812 2.132812 16.882812 1.65625 16.65625 1.0625 C 16.507812 0.570312 16.554688 0.132812 16.796875 -0.25 C 17.035156 -0.632812 17.398438 -0.828125 17.890625 -0.828125 C 19.710938 -0.796875 21.253906 -0.78125 22.515625 -0.78125 C 23.628906 -0.78125 24.519531 -0.796875 25.1875 -0.828125 C 25.820312 -0.867188 26.25 -0.988281 26.46875 -1.1875 C 26.6875 -1.394531 26.796875 -1.796875 26.796875 -2.390625 Z M 41.453125 -32.203125 C 41.191406 -32.617188 41.144531 -33.054688 41.3125 -33.515625 C 41.488281 -33.984375 41.796875 -34.3125 42.234375 -34.5 C 42.492188 -34.601562 42.773438 -34.65625 43.078125 -34.65625 C 43.296875 -34.65625 43.535156 -34.617188 43.796875 -34.546875 C 44.316406 -34.359375 44.726562 -34.023438 45.03125 -33.546875 C 47.21875 -29.941406 49.238281 -26.113281 51.09375 -22.0625 C 52.800781 -18.3125 54.046875 -14.988281 54.828125 -12.09375 C 54.898438 -11.875 54.9375 -11.671875 54.9375 -11.484375 C 54.9375 -11.109375 54.847656 -10.734375 54.671875 -10.359375 C 54.367188 -9.835938 53.941406 -9.445312 53.390625 -9.1875 C 53.160156 -9.082031 52.914062 -9.03125 52.65625 -9.03125 C 52.394531 -9.03125 52.132812 -9.101562 51.875 -9.25 C 51.394531 -9.507812 51.082031 -9.898438 50.9375 -10.421875 C 50.113281 -13.316406 48.882812 -16.695312 47.25 -20.5625 C 45.46875 -24.71875 43.535156 -28.597656 41.453125 -32.203125 Z M 11.421875 -32.703125 C 11.566406 -33.265625 11.882812 -33.710938 12.375 -34.046875 C 12.738281 -34.304688 13.128906 -34.4375 13.546875 -34.4375 C 13.691406 -34.4375 13.820312 -34.4375 13.9375 -34.4375 C 14.53125 -34.320312 14.972656 -34.023438 15.265625 -33.546875 C 15.492188 -33.210938 15.609375 -32.859375 15.609375 -32.484375 C 15.609375 -32.296875 15.585938 -32.128906 15.546875 -31.984375 C 13.359375 -22.953125 10.460938 -15.910156 6.859375 -10.859375 C 6.523438 -10.421875 6.078125 -10.164062 5.515625 -10.09375 C 5.398438 -10.050781 5.269531 -10.03125 5.125 -10.03125 C 4.71875 -10.03125 4.328125 -10.140625 3.953125 -10.359375 C 3.472656 -10.617188 3.195312 -11.007812 3.125 -11.53125 C 3.082031 -11.6875 3.0625 -11.816406 3.0625 -11.921875 C 3.0625 -12.253906 3.175781 -12.585938 3.40625 -12.921875 C 5.21875 -15.410156 6.796875 -18.382812 8.140625 -21.84375 C 9.546875 -25.40625 10.640625 -29.023438 11.421875 -32.703125 Z M 11.421875 -32.703125 "/></g></g></g><g fill="rgb(30.198669%, 81.959534%, 44.309998%)" fill-opacity="1"><g transform="translate(591.828858, 769.934028)"><g><path d="M 45.1875 -1.34375 C 45.445312 -1.34375 45.578125 -1.472656 45.578125 -1.734375 L 45.578125 -12.484375 C 45.578125 -12.742188 45.445312 -12.875 45.1875 -12.875 L 20.5 -12.875 C 20.207031 -12.875 20.0625 -12.742188 20.0625 -12.484375 L 20.0625 -1.734375 C 20.0625 -1.472656 20.207031 -1.34375 20.5 -1.34375 Z M 30.671875 -34.765625 C 31.023438 -35.140625 31.460938 -35.328125 31.984375 -35.328125 C 32.503906 -35.328125 32.945312 -35.140625 33.3125 -34.765625 C 33.6875 -34.398438 33.875 -33.957031 33.875 -33.4375 L 33.875 -28.640625 C 33.875 -28.378906 34.023438 -28.25 34.328125 -28.25 L 51.59375 -28.25 C 52.039062 -28.25 52.429688 -28.082031 52.765625 -27.75 C 53.097656 -27.414062 53.265625 -27.003906 53.265625 -26.515625 C 53.265625 -26.035156 53.097656 -25.628906 52.765625 -25.296875 C 52.429688 -24.960938 52.039062 -24.796875 51.59375 -24.796875 L 34.328125 -24.796875 C 34.023438 -24.796875 33.875 -24.664062 33.875 -24.40625 L 33.875 -16.65625 C 33.875 -16.394531 34.023438 -16.265625 34.328125 -16.265625 L 46.140625 -16.265625 C 47.035156 -16.265625 47.804688 -15.941406 48.453125 -15.296875 C 49.097656 -14.648438 49.421875 -13.878906 49.421875 -12.984375 L 49.421875 2.28125 C 49.421875 2.84375 49.234375 3.304688 48.859375 3.671875 C 48.492188 4.046875 48.035156 4.234375 47.484375 4.234375 C 46.960938 4.234375 46.515625 4.046875 46.140625 3.671875 C 45.765625 3.304688 45.578125 2.863281 45.578125 2.34375 C 45.578125 2.195312 45.503906 2.125 45.359375 2.125 L 20.34375 2.125 C 20.15625 2.125 20.0625 2.210938 20.0625 2.390625 L 20.0625 2.5625 C 20.0625 3.039062 19.882812 3.46875 19.53125 3.84375 C 19.175781 4.21875 18.738281 4.40625 18.21875 4.40625 C 17.695312 4.40625 17.257812 4.21875 16.90625 3.84375 C 16.5625 3.46875 16.390625 3.039062 16.390625 2.5625 L 16.390625 -12.984375 C 16.390625 -13.878906 16.703125 -14.648438 17.328125 -15.296875 C 17.960938 -15.941406 18.742188 -16.265625 19.671875 -16.265625 L 29.703125 -16.265625 C 29.992188 -16.265625 30.140625 -16.394531 30.140625 -16.65625 L 30.140625 -33.4375 C 30.140625 -33.957031 30.316406 -34.398438 30.671875 -34.765625 Z M 32.046875 -40.5625 C 32.046875 -40.300781 32.191406 -40.171875 32.484375 -40.171875 L 52.265625 -40.171875 C 52.785156 -40.171875 53.222656 -39.992188 53.578125 -39.640625 C 53.929688 -39.296875 54.109375 -38.867188 54.109375 -38.359375 C 54.109375 -37.859375 53.929688 -37.429688 53.578125 -37.078125 C 53.222656 -36.734375 52.785156 -36.5625 52.265625 -36.5625 L 11.25 -36.5625 C 10.988281 -36.5625 10.859375 -36.429688 10.859375 -36.171875 L 10.859375 -25.40625 C 10.859375 -13.226562 9.300781 -3.882812 6.1875 2.625 C 6 3.0625 5.644531 3.335938 5.125 3.453125 C 4.976562 3.453125 4.847656 3.453125 4.734375 3.453125 C 4.359375 3.453125 4.023438 3.359375 3.734375 3.171875 C 3.285156 2.878906 2.988281 2.472656 2.84375 1.953125 C 2.769531 1.722656 2.734375 1.519531 2.734375 1.34375 C 2.734375 1.039062 2.804688 0.742188 2.953125 0.453125 C 5.742188 -5.378906 7.140625 -14 7.140625 -25.40625 L 7.140625 -36.890625 C 7.140625 -37.785156 7.460938 -38.554688 8.109375 -39.203125 C 8.753906 -39.847656 9.523438 -40.171875 10.421875 -40.171875 L 27.75 -40.171875 C 28.050781 -40.171875 28.203125 -40.300781 28.203125 -40.5625 L 28.203125 -45.6875 C 28.203125 -46.25 28.382812 -46.710938 28.75 -47.078125 C 29.125 -47.453125 29.578125 -47.640625 30.109375 -47.640625 C 30.648438 -47.640625 31.109375 -47.453125 31.484375 -47.078125 C 31.859375 -46.710938 32.046875 -46.25 32.046875 -45.6875 Z M 32.046875 -40.5625 "/></g></g></g><g fill="rgb(30.198669%, 81.959534%, 44.309998%)" fill-opacity="1"><g transform="translate(204.531767, 675.317474)"><g><path d="M 38.078125 -67.828125 C 38.078125 -68.484375 37.75 -68.8125 37.09375 -68.8125 L 22.3125 -68.8125 C 21.664062 -68.8125 21.34375 -68.484375 21.34375 -67.828125 L 21.34375 -61.671875 C 21.34375 -61.015625 21.664062 -60.6875 22.3125 -60.6875 L 37.09375 -60.6875 C 37.75 -60.6875 38.078125 -61.015625 38.078125 -61.671875 Z M 21.34375 -42.671875 C 21.34375 -42.023438 21.664062 -41.703125 22.3125 -41.703125 L 37.09375 -41.703125 C 37.75 -41.703125 38.078125 -42.023438 38.078125 -42.671875 L 38.078125 -49.234375 C 38.078125 -49.890625 37.75 -50.21875 37.09375 -50.21875 L 22.3125 -50.21875 C 21.664062 -50.21875 21.34375 -49.890625 21.34375 -49.234375 Z M 30.734375 -19.765625 C 30.273438 -20.617188 30.046875 -21.46875 30.046875 -22.3125 C 30.046875 -22.769531 30.082031 -23.195312 30.15625 -23.59375 C 30.539062 -24.957031 31.351562 -25.9375 32.59375 -26.53125 C 33.507812 -26.988281 34.425781 -27.21875 35.34375 -27.21875 C 35.863281 -27.21875 36.382812 -27.148438 36.90625 -27.015625 C 38.40625 -26.617188 39.578125 -25.800781 40.421875 -24.5625 C 44.796875 -18.039062 48.191406 -12.070312 50.609375 -6.65625 C 50.992188 -5.8125 51.1875 -4.992188 51.1875 -4.203125 C 51.1875 -3.484375 51.023438 -2.734375 50.703125 -1.953125 C 50.117188 -0.453125 49.078125 0.6875 47.578125 1.46875 C 46.785156 1.863281 46.035156 2.0625 45.328125 2.0625 C 44.671875 2.0625 44.050781 1.925781 43.46875 1.65625 C 42.03125 1.132812 41.015625 0.160156 40.421875 -1.265625 C 40.097656 -2.054688 39.707031 -2.941406 39.25 -3.921875 C 38.988281 -4.503906 38.566406 -4.726562 37.984375 -4.59375 C 32.367188 -3.03125 24.046875 -0.75 13.015625 2.25 C 12.429688 2.382812 11.84375 2.453125 11.25 2.453125 C 10.207031 2.453125 9.164062 2.1875 8.125 1.65625 C 6.625 0.8125 5.613281 -0.457031 5.09375 -2.15625 L 5.09375 -2.34375 C 4.894531 -2.863281 4.796875 -3.421875 4.796875 -4.015625 C 4.796875 -4.992188 5.085938 -5.941406 5.671875 -6.859375 C 6.523438 -8.285156 7.734375 -9.195312 9.296875 -9.59375 C 9.753906 -9.65625 9.984375 -9.945312 9.984375 -10.46875 L 9.984375 -71.359375 C 9.984375 -73.703125 10.8125 -75.707031 12.46875 -77.375 C 14.132812 -79.039062 16.144531 -79.875 18.5 -79.875 L 40.625 -79.875 C 42.96875 -79.875 44.972656 -79.039062 46.640625 -77.375 C 48.304688 -75.707031 49.140625 -73.703125 49.140625 -71.359375 L 49.140625 -39.25 C 49.140625 -36.90625 48.304688 -34.898438 46.640625 -33.234375 C 44.972656 -31.566406 42.96875 -30.734375 40.625 -30.734375 L 22.3125 -30.734375 C 21.664062 -30.734375 21.34375 -30.40625 21.34375 -29.75 L 21.34375 -13.3125 C 21.34375 -13.050781 21.4375 -12.835938 21.625 -12.671875 C 21.820312 -12.515625 22.050781 -12.46875 22.3125 -12.53125 L 32.5 -15.078125 C 32.757812 -15.140625 32.9375 -15.285156 33.03125 -15.515625 C 33.132812 -15.742188 33.117188 -15.957031 32.984375 -16.15625 C 32.265625 -17.394531 31.515625 -18.597656 30.734375 -19.765625 Z M 84.671875 -80.0625 C 87.015625 -80.0625 89.019531 -79.226562 90.6875 -77.5625 C 92.351562 -75.90625 93.1875 -73.898438 93.1875 -71.546875 L 93.1875 -19.875 C 93.1875 -16.738281 92.859375 -14.238281 92.203125 -12.375 C 91.554688 -10.519531 90.351562 -9.070312 88.59375 -8.03125 C 86.5625 -6.851562 83.945312 -6.101562 80.75 -5.78125 C 80.488281 -5.707031 80.226562 -5.671875 79.96875 -5.671875 C 78.40625 -5.671875 76.9375 -6.226562 75.5625 -7.34375 C 74.0625 -8.582031 72.988281 -10.210938 72.34375 -12.234375 C 72.144531 -12.753906 72.046875 -13.242188 72.046875 -13.703125 C 72.046875 -14.679688 72.335938 -15.59375 72.921875 -16.4375 C 73.835938 -17.675781 75.046875 -18.296875 76.546875 -18.296875 C 76.609375 -18.296875 76.640625 -18.296875 76.640625 -18.296875 C 77.359375 -18.296875 78.207031 -18.296875 79.1875 -18.296875 C 79.84375 -18.367188 80.285156 -18.535156 80.515625 -18.796875 C 80.742188 -19.054688 80.859375 -19.515625 80.859375 -20.171875 L 80.859375 -67.046875 C 80.859375 -67.703125 80.53125 -68.03125 79.875 -68.03125 L 67.546875 -68.03125 C 66.890625 -68.03125 66.5625 -67.703125 66.5625 -67.046875 L 66.5625 2.546875 C 66.5625 4.171875 65.972656 5.570312 64.796875 6.75 C 63.617188 7.925781 62.195312 8.515625 60.53125 8.515625 C 58.875 8.515625 57.457031 7.925781 56.28125 6.75 C 55.101562 5.570312 54.515625 4.171875 54.515625 2.546875 L 54.515625 -71.546875 C 54.515625 -73.898438 55.347656 -75.90625 57.015625 -77.5625 C 58.679688 -79.226562 60.6875 -80.0625 63.03125 -80.0625 Z M 84.671875 -80.0625 "/></g></g></g><g fill="rgb(30.198669%, 81.959534%, 44.309998%)" fill-opacity="1"><g transform="translate(304.764043, 675.317474)"><g><path d="M 26.71875 -67.25 C 26.71875 -67.894531 26.394531 -68.21875 25.75 -68.21875 L 18.5 -68.21875 C 17.84375 -68.21875 17.515625 -67.894531 17.515625 -67.25 L 17.515625 -51.578125 C 17.515625 -50.929688 17.84375 -50.609375 18.5 -50.609375 L 25.75 -50.609375 C 26.394531 -50.609375 26.71875 -50.929688 26.71875 -51.578125 Z M 17.515625 -22.421875 C 17.515625 -21.765625 17.84375 -21.4375 18.5 -21.4375 L 25.75 -21.4375 C 26.394531 -21.4375 26.71875 -21.765625 26.71875 -22.421875 L 26.71875 -39.25 C 26.71875 -39.90625 26.394531 -40.234375 25.75 -40.234375 L 18.5 -40.234375 C 17.84375 -40.234375 17.515625 -39.90625 17.515625 -39.25 Z M 29.359375 -78.890625 C 31.710938 -78.890625 33.71875 -78.054688 35.375 -76.390625 C 37.039062 -74.734375 37.875 -72.726562 37.875 -70.375 L 37.875 -19.375 C 37.875 -17.03125 37.039062 -15.023438 35.375 -13.359375 C 33.71875 -11.691406 31.710938 -10.859375 29.359375 -10.859375 L 18.40625 -10.859375 C 17.8125 -10.859375 17.515625 -10.535156 17.515625 -9.890625 L 17.515625 -7.640625 C 17.515625 -6.066406 16.976562 -4.757812 15.90625 -3.71875 C 14.832031 -2.675781 13.539062 -2.15625 12.03125 -2.15625 C 10.53125 -2.15625 9.242188 -2.675781 8.171875 -3.71875 C 7.097656 -4.757812 6.5625 -6.066406 6.5625 -7.640625 L 6.5625 -70.375 C 6.5625 -72.726562 7.390625 -74.734375 9.046875 -76.390625 C 10.710938 -78.054688 12.722656 -78.890625 15.078125 -78.890625 Z M 47.1875 -14.96875 C 46.46875 -15.882812 46.109375 -16.863281 46.109375 -17.90625 C 46.109375 -18.164062 46.140625 -18.460938 46.203125 -18.796875 C 46.460938 -20.160156 47.179688 -21.203125 48.359375 -21.921875 C 49.460938 -22.578125 50.601562 -22.90625 51.78125 -22.90625 C 52.101562 -22.90625 52.429688 -22.90625 52.765625 -22.90625 C 54.390625 -22.644531 55.691406 -21.925781 56.671875 -20.75 C 58.828125 -18.269531 60.6875 -15.890625 62.25 -13.609375 C 62.84375 -12.691406 63.140625 -11.710938 63.140625 -10.671875 C 63.140625 -10.148438 63.070312 -9.628906 62.9375 -9.109375 C 62.550781 -7.535156 61.601562 -6.296875 60.09375 -5.390625 C 59.25 -4.859375 58.367188 -4.59375 57.453125 -4.59375 C 56.929688 -4.59375 56.410156 -4.691406 55.890625 -4.890625 C 54.390625 -5.285156 53.25 -6.164062 52.46875 -7.53125 C 50.96875 -9.945312 49.207031 -12.425781 47.1875 -14.96875 Z M 91.125 -44.828125 L 87.3125 -44.828125 C 86.65625 -44.828125 86.328125 -44.503906 86.328125 -43.859375 L 86.328125 -37.203125 C 86.328125 -36.546875 86.65625 -36.21875 87.3125 -36.21875 L 90.84375 -36.21875 C 92.269531 -36.21875 93.488281 -35.691406 94.5 -34.640625 C 95.519531 -33.597656 96.03125 -32.359375 96.03125 -30.921875 C 96.03125 -29.492188 95.519531 -28.273438 94.5 -27.265625 C 93.488281 -26.253906 92.269531 -25.75 90.84375 -25.75 L 87.3125 -25.75 C 86.65625 -25.75 86.328125 -25.421875 86.328125 -24.765625 L 86.328125 -3.625 C 86.328125 -0.625 85.96875 1.65625 85.25 3.21875 C 84.539062 4.789062 83.207031 6.035156 81.25 6.953125 C 78.894531 7.992188 75.304688 8.582031 70.484375 8.71875 C 70.347656 8.71875 70.25 8.71875 70.1875 8.71875 C 68.613281 8.71875 67.175781 8.226562 65.875 7.25 C 64.570312 6.195312 63.625 4.820312 63.03125 3.125 C 62.84375 2.675781 62.75 2.222656 62.75 1.765625 C 62.75 0.984375 62.972656 0.234375 63.421875 -0.484375 C 64.210938 -1.597656 65.257812 -2.15625 66.5625 -2.15625 C 66.5625 -2.15625 66.59375 -2.15625 66.65625 -2.15625 C 68.488281 -2.15625 70.476562 -2.15625 72.625 -2.15625 C 73.476562 -2.15625 74.050781 -2.269531 74.34375 -2.5 C 74.632812 -2.726562 74.78125 -3.203125 74.78125 -3.921875 L 74.78125 -24.765625 C 74.78125 -25.421875 74.457031 -25.75 73.8125 -25.75 L 44.921875 -25.75 C 43.492188 -25.75 42.269531 -26.253906 41.25 -27.265625 C 40.238281 -28.273438 39.734375 -29.492188 39.734375 -30.921875 C 39.734375 -32.359375 40.238281 -33.597656 41.25 -34.640625 C 42.269531 -35.691406 43.492188 -36.21875 44.921875 -36.21875 L 73.8125 -36.21875 C 74.457031 -36.21875 74.78125 -36.546875 74.78125 -37.203125 L 74.78125 -43.859375 C 74.78125 -44.503906 74.457031 -44.828125 73.8125 -44.828125 L 44.734375 -44.828125 C 43.296875 -44.828125 42.070312 -45.332031 41.0625 -46.34375 C 40.050781 -47.351562 39.546875 -48.5625 39.546875 -49.96875 C 39.546875 -51.375 40.050781 -52.582031 41.0625 -53.59375 C 42.070312 -54.601562 43.296875 -55.109375 44.734375 -55.109375 L 61.171875 -55.109375 C 61.828125 -55.109375 62.15625 -55.4375 62.15625 -56.09375 L 62.15625 -63.03125 C 62.15625 -63.6875 61.828125 -64.015625 61.171875 -64.015625 L 47.96875 -64.015625 C 46.59375 -64.015625 45.398438 -64.519531 44.390625 -65.53125 C 43.378906 -66.539062 42.875 -67.75 42.875 -69.15625 C 42.875 -70.5625 43.378906 -71.769531 44.390625 -72.78125 C 45.398438 -73.789062 46.59375 -74.296875 47.96875 -74.296875 L 61.171875 -74.296875 C 61.828125 -74.296875 62.15625 -74.625 62.15625 -75.28125 L 62.15625 -79.09375 C 62.15625 -80.71875 62.722656 -82.101562 63.859375 -83.25 C 65.003906 -84.394531 66.394531 -84.96875 68.03125 -84.96875 C 69.664062 -84.96875 71.050781 -84.394531 72.1875 -83.25 C 73.332031 -82.101562 73.90625 -80.71875 73.90625 -79.09375 L 73.90625 -75.28125 C 73.90625 -74.625 74.226562 -74.296875 74.875 -74.296875 L 88.78125 -74.296875 C 90.21875 -74.296875 91.425781 -73.789062 92.40625 -72.78125 C 93.382812 -71.769531 93.875 -70.5625 93.875 -69.15625 C 93.875 -67.75 93.382812 -66.539062 92.40625 -65.53125 C 91.425781 -64.519531 90.21875 -64.015625 88.78125 -64.015625 L 74.875 -64.015625 C 74.226562 -64.015625 73.90625 -63.6875 73.90625 -63.03125 L 73.90625 -56.09375 C 73.90625 -55.4375 74.226562 -55.109375 74.875 -55.109375 L 91.125 -55.109375 C 92.5625 -55.109375 93.785156 -54.601562 94.796875 -53.59375 C 95.804688 -52.582031 96.3125 -51.375 96.3125 -49.96875 C 96.3125 -48.5625 95.804688 -47.351562 94.796875 -46.34375 C 93.785156 -45.332031 92.5625 -44.828125 91.125 -44.828125 Z M 91.125 -44.828125 "/></g></g></g><g fill="rgb(30.198669%, 81.959534%, 44.309998%)" fill-opacity="1"><g transform="translate(404.99632, 675.317474)"><g><path d="M 19.96875 -63.53125 C 19.3125 -63.53125 18.984375 -63.203125 18.984375 -62.546875 L 18.984375 -55.5 C 18.984375 -53.863281 18.394531 -52.472656 17.21875 -51.328125 C 16.050781 -50.191406 14.664062 -49.625 13.0625 -49.625 C 11.46875 -49.625 10.097656 -50.191406 8.953125 -51.328125 C 7.816406 -52.472656 7.25 -53.863281 7.25 -55.5 L 7.25 -66.265625 C 7.25 -68.617188 8.078125 -70.625 9.734375 -72.28125 C 11.398438 -73.945312 13.410156 -74.78125 15.765625 -74.78125 L 42.484375 -74.78125 C 43.140625 -74.78125 43.46875 -75.109375 43.46875 -75.765625 L 43.46875 -78.5 C 43.46875 -80.257812 44.085938 -81.742188 45.328125 -82.953125 C 46.566406 -84.160156 48.066406 -84.765625 49.828125 -84.765625 C 51.585938 -84.765625 53.070312 -84.160156 54.28125 -82.953125 C 55.488281 -81.742188 56.09375 -80.257812 56.09375 -78.5 L 56.09375 -75.765625 C 56.09375 -75.109375 56.414062 -74.78125 57.0625 -74.78125 L 84.375 -74.78125 C 86.726562 -74.78125 88.734375 -73.945312 90.390625 -72.28125 C 92.054688 -70.625 92.890625 -68.617188 92.890625 -66.265625 L 92.890625 -55.796875 C 92.890625 -54.097656 92.285156 -52.644531 91.078125 -51.4375 C 89.867188 -50.226562 88.414062 -49.625 86.71875 -49.625 C 85.03125 -49.625 83.582031 -50.226562 82.375 -51.4375 C 81.164062 -52.644531 80.5625 -54.097656 80.5625 -55.796875 L 80.5625 -62.546875 C 80.5625 -63.203125 80.234375 -63.53125 79.578125 -63.53125 Z M 57.0625 -19.671875 C 56.414062 -19.671875 56.09375 -19.347656 56.09375 -18.703125 L 56.09375 -5.578125 C 56.09375 -4.921875 56.414062 -4.5625 57.0625 -4.5 C 59.675781 -4.175781 63.101562 -4.015625 67.34375 -4.015625 C 70.21875 -3.953125 73.316406 -3.921875 76.640625 -3.921875 C 80.617188 -3.921875 84.925781 -3.953125 89.5625 -4.015625 C 89.5625 -4.015625 89.59375 -4.015625 89.65625 -4.015625 C 91.03125 -4.015625 92.140625 -3.425781 92.984375 -2.25 C 93.515625 -1.46875 93.78125 -0.648438 93.78125 0.203125 C 93.78125 0.722656 93.679688 1.242188 93.484375 1.765625 C 92.890625 3.585938 91.84375 5.085938 90.34375 6.265625 C 88.84375 7.441406 87.179688 8.03125 85.359375 8.03125 L 66.65625 8.03125 C 56.675781 8.03125 48.472656 6.851562 42.046875 4.5 C 35.617188 2.15625 30.316406 -2.25 26.140625 -8.71875 C 26.003906 -8.90625 25.820312 -8.984375 25.59375 -8.953125 C 25.363281 -8.921875 25.21875 -8.804688 25.15625 -8.609375 C 22.675781 -3.128906 19.769531 1.535156 16.4375 5.390625 C 15.195312 6.691406 13.734375 7.34375 12.046875 7.34375 C 11.972656 7.34375 11.9375 7.34375 11.9375 7.34375 C 10.175781 7.28125 8.578125 6.660156 7.140625 5.484375 C 5.898438 4.367188 5.28125 3 5.28125 1.375 C 5.28125 -0.195312 5.835938 -1.566406 6.953125 -2.734375 C 13.085938 -9.265625 17.164062 -18.890625 19.1875 -31.609375 C 19.445312 -33.304688 20.226562 -34.710938 21.53125 -35.828125 C 22.707031 -36.742188 23.984375 -37.203125 25.359375 -37.203125 C 25.617188 -37.203125 25.878906 -37.164062 26.140625 -37.09375 C 27.835938 -36.96875 29.207031 -36.21875 30.25 -34.84375 C 31.03125 -33.800781 31.421875 -32.660156 31.421875 -31.421875 C 31.421875 -31.097656 31.390625 -30.738281 31.328125 -30.34375 C 30.992188 -28.382812 30.632812 -26.585938 30.25 -24.953125 C 30.113281 -24.242188 30.175781 -23.59375 30.4375 -23 C 33.175781 -16.21875 37.351562 -11.320312 42.96875 -8.3125 C 43.164062 -8.25 43.34375 -8.265625 43.5 -8.359375 C 43.664062 -8.460938 43.75 -8.644531 43.75 -8.90625 L 43.75 -42.390625 C 43.75 -43.035156 43.425781 -43.359375 42.78125 -43.359375 L 28.09375 -43.359375 C 26.53125 -43.359375 25.191406 -43.910156 24.078125 -45.015625 C 22.972656 -46.128906 22.421875 -47.46875 22.421875 -49.03125 C 22.421875 -50.601562 22.972656 -51.941406 24.078125 -53.046875 C 25.191406 -54.160156 26.53125 -54.71875 28.09375 -54.71875 L 71.75 -54.71875 C 73.3125 -54.71875 74.644531 -54.160156 75.75 -53.046875 C 76.863281 -51.941406 77.421875 -50.601562 77.421875 -49.03125 C 77.421875 -47.46875 76.863281 -46.128906 75.75 -45.015625 C 74.644531 -43.910156 73.3125 -43.359375 71.75 -43.359375 L 57.0625 -43.359375 C 56.414062 -43.359375 56.09375 -43.035156 56.09375 -42.390625 L 56.09375 -31.8125 C 56.09375 -31.15625 56.414062 -30.828125 57.0625 -30.828125 L 78.40625 -30.828125 C 79.96875 -30.828125 81.285156 -30.289062 82.359375 -29.21875 C 83.441406 -28.144531 83.984375 -26.820312 83.984375 -25.25 C 83.984375 -23.6875 83.441406 -22.363281 82.359375 -21.28125 C 81.285156 -20.207031 79.96875 -19.671875 78.40625 -19.671875 Z M 57.0625 -19.671875 "/></g></g></g><g fill="rgb(30.198669%, 81.959534%, 44.309998%)" fill-opacity="1"><g transform="translate(505.228597, 675.317474)"><g><path d="M 40.234375 -66.859375 L 57.0625 -66.859375 C 57.71875 -66.859375 58.046875 -67.179688 58.046875 -67.828125 L 58.046875 -77.625 C 58.046875 -79.25 58.628906 -80.648438 59.796875 -81.828125 C 60.972656 -83.003906 62.394531 -83.59375 64.0625 -83.59375 C 65.726562 -83.59375 67.144531 -83.003906 68.3125 -81.828125 C 69.488281 -80.648438 70.078125 -79.25 70.078125 -77.625 L 70.078125 -67.828125 C 70.078125 -67.179688 70.40625 -66.859375 71.0625 -66.859375 L 89.171875 -66.859375 C 90.734375 -66.859375 92.066406 -66.300781 93.171875 -65.1875 C 94.285156 -64.082031 94.84375 -62.757812 94.84375 -61.21875 C 94.84375 -59.6875 94.285156 -58.363281 93.171875 -57.25 C 92.066406 -56.144531 90.734375 -55.59375 89.171875 -55.59375 L 40.234375 -55.59375 C 38.660156 -55.59375 37.316406 -56.144531 36.203125 -57.25 C 35.097656 -58.363281 34.546875 -59.6875 34.546875 -61.21875 C 34.546875 -62.757812 35.097656 -64.082031 36.203125 -65.1875 C 37.316406 -66.300781 38.660156 -66.859375 40.234375 -66.859375 Z M 58.53125 -18.109375 C 58.601562 -17.847656 58.640625 -17.554688 58.640625 -17.234375 C 58.640625 -15.859375 58.210938 -14.617188 57.359375 -13.515625 C 56.316406 -12.078125 54.945312 -11.160156 53.25 -10.765625 C 52.851562 -10.703125 52.460938 -10.671875 52.078125 -10.671875 C 51.035156 -10.671875 50.054688 -10.992188 49.140625 -11.640625 C 47.898438 -12.617188 47.210938 -13.894531 47.078125 -15.46875 C 46.296875 -24.40625 44.796875 -33.898438 42.578125 -43.953125 C 42.515625 -44.335938 42.484375 -44.726562 42.484375 -45.125 C 42.484375 -46.101562 42.773438 -47.050781 43.359375 -47.96875 C 44.140625 -49.207031 45.25 -49.957031 46.6875 -50.21875 C 47.082031 -50.28125 47.472656 -50.3125 47.859375 -50.3125 C 48.910156 -50.3125 49.925781 -50.019531 50.90625 -49.4375 C 52.207031 -48.582031 53.019531 -47.4375 53.34375 -46 C 55.757812 -36.082031 57.488281 -26.785156 58.53125 -18.109375 Z M 23.296875 -79.390625 C 23.953125 -80.890625 25.03125 -82 26.53125 -82.71875 C 27.4375 -83.101562 28.347656 -83.296875 29.265625 -83.296875 C 29.859375 -83.296875 30.476562 -83.195312 31.125 -83 C 32.695312 -82.476562 33.804688 -81.5 34.453125 -80.0625 C 34.773438 -79.351562 34.9375 -78.640625 34.9375 -77.921875 C 34.9375 -77.203125 34.773438 -76.484375 34.453125 -75.765625 C 32.492188 -71.453125 30.304688 -67.144531 27.890625 -62.84375 C 27.566406 -62.257812 27.40625 -61.640625 27.40625 -60.984375 L 27.40625 2.34375 C 27.40625 3.914062 26.847656 5.253906 25.734375 6.359375 C 24.628906 7.472656 23.289062 8.03125 21.71875 8.03125 C 20.15625 8.03125 18.816406 7.472656 17.703125 6.359375 C 16.597656 5.253906 16.046875 3.914062 16.046875 2.34375 L 16.046875 -44.046875 C 16.046875 -44.179688 15.960938 -44.28125 15.796875 -44.34375 C 15.640625 -44.40625 15.53125 -44.375 15.46875 -44.25 C 14.425781 -42.9375 13.378906 -41.695312 12.328125 -40.53125 C 11.484375 -39.476562 10.410156 -38.953125 9.109375 -38.953125 C 8.847656 -38.953125 8.582031 -38.988281 8.3125 -39.0625 C 6.6875 -39.320312 5.484375 -40.164062 4.703125 -41.59375 C 3.984375 -43.03125 3.625 -44.5 3.625 -46 C 3.625 -46.394531 3.65625 -46.789062 3.71875 -47.1875 C 3.914062 -49.207031 4.664062 -50.9375 5.96875 -52.375 C 12.882812 -60.070312 18.660156 -69.078125 23.296875 -79.390625 Z M 76.734375 -7.828125 C 76.671875 -7.628906 76.722656 -7.429688 76.890625 -7.234375 C 77.054688 -7.046875 77.234375 -6.953125 77.421875 -6.953125 L 91.234375 -6.953125 C 92.796875 -6.953125 94.113281 -6.394531 95.1875 -5.28125 C 96.269531 -4.175781 96.8125 -2.851562 96.8125 -1.3125 C 96.8125 0.21875 96.269531 1.535156 95.1875 2.640625 C 94.113281 3.753906 92.796875 4.3125 91.234375 4.3125 L 38.078125 4.3125 C 36.515625 4.3125 35.191406 3.753906 34.109375 2.640625 C 33.035156 1.535156 32.5 0.21875 32.5 -1.3125 C 32.5 -2.851562 33.035156 -4.175781 34.109375 -5.28125 C 35.191406 -6.394531 36.515625 -6.953125 38.078125 -6.953125 L 64.21875 -6.953125 C 64.863281 -6.953125 65.285156 -7.242188 65.484375 -7.828125 C 69.078125 -19.179688 71.945312 -31.644531 74.09375 -45.21875 C 74.351562 -46.976562 75.203125 -48.382812 76.640625 -49.4375 C 77.753906 -50.28125 78.929688 -50.703125 80.171875 -50.703125 C 80.554688 -50.703125 80.945312 -50.671875 81.34375 -50.609375 C 83.101562 -50.285156 84.503906 -49.367188 85.546875 -47.859375 C 86.203125 -46.816406 86.53125 -45.707031 86.53125 -44.53125 C 86.53125 -44.007812 86.5 -43.519531 86.4375 -43.0625 C 83.5 -30.144531 80.265625 -18.398438 76.734375 -7.828125 Z M 76.734375 -7.828125 "/></g></g></g></svg>