<svg xmlns="http://www.w3.org/2000/svg" xmlns:xlink="http://www.w3.org/1999/xlink" width="1080" zoomAndPan="magnify" viewBox="0 0 810 809.999993" height="1080" preserveAspectRatio="xMidYMid meet" version="1.0"><defs><g><g id="id1"/><g id="id2"/></g><clipPath id="id3"><path d="M 149.886719 64 L 659.886719 64 L 659.886719 513 L 149.886719 513 Z M 149.886719 64 " clip-rule="nonzero"/></clipPath></defs><rect x="-81" width="972" fill="rgb(100%, 100%, 100%)" y="-80.999999" height="971.999992" fill-opacity="1"/><rect x="-81" width="972" fill="rgb(100%, 100%, 100%)" y="-80.999999" height="971.999992" fill-opacity="1"/><rect x="-81" width="972" fill="rgb(100%, 100%, 100%)" y="-80.999999" height="971.999992" fill-opacity="1"/><g clip-path="url(#id3)"><path fill="rgb(30.198669%, 81.959534%, 44.309998%)" d="M 521.761719 64.640625 C 518.785156 64.6875 515.816406 64.828125 512.851562 65.070312 C 509.882812 65.3125 506.929688 65.648438 503.988281 66.085938 C 501.042969 66.519531 498.117188 67.050781 495.210938 67.679688 C 492.300781 68.304688 489.414062 69.027344 486.554688 69.84375 C 483.695312 70.660156 480.863281 71.570312 478.0625 72.574219 C 475.257812 73.574219 472.492188 74.667969 469.765625 75.851562 C 467.035156 77.035156 464.347656 78.308594 461.699219 79.667969 C 459.054688 81.027344 456.457031 82.472656 453.90625 84.003906 C 451.351562 85.535156 448.855469 87.148438 446.410156 88.84375 C 443.964844 90.539062 441.578125 92.308594 439.246094 94.160156 C 436.917969 96.011719 434.652344 97.9375 432.449219 99.9375 C 430.246094 101.9375 428.113281 104.007812 426.046875 106.148438 C 423.980469 108.289062 421.984375 110.496094 420.0625 112.765625 C 418.140625 115.039062 416.292969 117.371094 414.527344 119.761719 C 412.757812 122.15625 411.066406 124.601562 409.460938 127.105469 C 407.851562 129.609375 406.328125 132.160156 404.886719 134.765625 C 403.445312 132.160156 401.921875 129.609375 400.3125 127.105469 C 398.703125 124.601562 397.015625 122.15625 395.246094 119.761719 C 393.476562 117.371094 391.632812 115.039062 389.710938 112.765625 C 387.785156 110.496094 385.792969 108.289062 383.726562 106.148438 C 381.660156 104.007812 379.523438 101.9375 377.320312 99.9375 C 375.117188 97.9375 372.851562 96.011719 370.523438 94.160156 C 368.195312 92.308594 365.808594 90.539062 363.363281 88.84375 C 360.917969 87.148438 358.417969 85.535156 355.867188 84.003906 C 353.316406 82.472656 350.71875 81.027344 348.070312 79.667969 C 345.425781 78.308594 342.738281 77.035156 340.007812 75.851562 C 337.277344 74.667969 334.511719 73.574219 331.710938 72.574219 C 328.910156 71.570312 326.078125 70.660156 323.214844 69.84375 C 320.355469 69.027344 317.472656 68.304688 314.5625 67.679688 C 311.652344 67.050781 308.726562 66.519531 305.785156 66.085938 C 302.839844 65.648438 299.886719 65.3125 296.921875 65.070312 C 293.957031 64.828125 290.984375 64.6875 288.011719 64.640625 C 285.65625 64.742188 283.304688 64.902344 280.960938 65.117188 C 278.613281 65.335938 276.273438 65.609375 273.941406 65.941406 C 271.609375 66.273438 269.285156 66.664062 266.972656 67.109375 C 264.65625 67.554688 262.355469 68.054688 260.066406 68.613281 C 257.777344 69.171875 255.503906 69.785156 253.246094 70.453125 C 250.984375 71.121094 248.742188 71.847656 246.519531 72.625 C 244.296875 73.40625 242.09375 74.238281 239.910156 75.125 C 237.726562 76.011719 235.566406 76.949219 233.429688 77.941406 C 231.292969 78.933594 229.179688 79.976562 227.09375 81.074219 C 225.007812 82.167969 222.949219 83.316406 220.921875 84.511719 C 218.890625 85.707031 216.890625 86.953125 214.921875 88.246094 C 212.953125 89.542969 211.015625 90.882812 209.113281 92.273438 C 207.210938 93.660156 205.339844 95.09375 203.507812 96.574219 C 201.675781 98.054688 199.878906 99.578125 198.121094 101.148438 C 196.359375 102.714844 194.640625 104.324219 192.960938 105.976562 C 191.28125 107.628906 189.644531 109.324219 188.046875 111.054688 C 186.449219 112.785156 184.894531 114.558594 183.382812 116.367188 C 181.875 118.175781 180.410156 120.019531 178.988281 121.898438 C 177.566406 123.777344 176.195312 125.691406 174.867188 127.640625 C 173.539062 129.585938 172.261719 131.566406 171.03125 133.574219 C 169.800781 135.585938 168.621094 137.621094 167.492188 139.691406 C 166.363281 141.757812 165.28125 143.851562 164.253906 145.972656 C 163.226562 148.09375 162.25 150.238281 161.328125 152.40625 C 160.40625 154.574219 159.535156 156.761719 158.71875 158.972656 C 157.90625 161.183594 157.144531 163.410156 156.4375 165.660156 C 155.730469 167.90625 155.078125 170.171875 154.484375 172.449219 C 153.886719 174.730469 153.347656 177.023438 152.863281 179.328125 C 152.378906 181.636719 151.953125 183.953125 151.582031 186.277344 C 151.210938 188.605469 150.898438 190.941406 150.640625 193.28125 C 150.382812 195.625 150.183594 197.972656 150.042969 200.324219 C 149.902344 202.675781 149.816406 205.03125 149.792969 207.386719 C 149.765625 209.742188 149.796875 212.097656 149.886719 214.453125 C 149.886719 311.074219 251.589844 416.601562 336.886719 488.152344 C 339.242188 490.132812 341.683594 492.007812 344.203125 493.777344 C 346.726562 495.542969 349.320312 497.199219 351.988281 498.742188 C 354.652344 500.28125 357.382812 501.703125 360.171875 503.007812 C 362.964844 504.308594 365.804688 505.488281 368.699219 506.542969 C 371.59375 507.597656 374.527344 508.523438 377.5 509.320312 C 380.476562 510.117188 383.480469 510.785156 386.511719 511.320312 C 389.546875 511.855469 392.597656 512.257812 395.664062 512.527344 C 398.730469 512.796875 401.804688 512.929688 404.886719 512.929688 C 407.964844 512.929688 411.039062 512.796875 414.105469 512.527344 C 417.175781 512.257812 420.226562 511.855469 423.257812 511.320312 C 426.292969 510.785156 429.296875 510.117188 432.269531 509.320312 C 435.246094 508.523438 438.179688 507.597656 441.074219 506.542969 C 443.964844 505.488281 446.808594 504.308594 449.597656 503.007812 C 452.390625 501.703125 455.117188 500.28125 457.785156 498.742188 C 460.449219 497.199219 463.042969 495.542969 465.566406 493.777344 C 468.089844 492.007812 470.527344 490.132812 472.886719 488.152344 C 558.183594 416.601562 659.886719 311.074219 659.886719 214.453125 C 659.972656 212.097656 660.003906 209.742188 659.980469 207.386719 C 659.953125 205.03125 659.867188 202.675781 659.726562 200.324219 C 659.585938 197.972656 659.386719 195.625 659.128906 193.28125 C 658.875 190.941406 658.5625 188.605469 658.191406 186.277344 C 657.820312 183.953125 657.390625 181.636719 656.910156 179.328125 C 656.425781 177.023438 655.886719 174.730469 655.289062 172.449219 C 654.691406 170.171875 654.042969 167.90625 653.335938 165.660156 C 652.628906 163.410156 651.867188 161.183594 651.050781 158.972656 C 650.234375 156.761719 649.367188 154.574219 648.441406 152.40625 C 647.519531 150.238281 646.542969 148.09375 645.515625 145.972656 C 644.488281 143.851562 643.410156 141.757812 642.28125 139.691406 C 641.148438 137.621094 639.96875 135.585938 638.738281 133.574219 C 637.507812 131.566406 636.230469 129.585938 634.902344 127.640625 C 633.578125 125.691406 632.203125 123.777344 630.785156 121.898438 C 629.363281 120.019531 627.898438 118.175781 626.386719 116.367188 C 624.875 114.558594 623.324219 112.785156 621.726562 111.054688 C 620.128906 109.324219 618.488281 107.628906 616.808594 105.976562 C 615.128906 104.324219 613.410156 102.714844 611.652344 101.148438 C 609.894531 99.578125 608.097656 98.054688 606.261719 96.574219 C 604.429688 95.09375 602.5625 93.660156 600.660156 92.273438 C 598.753906 90.882812 596.820312 89.542969 594.847656 88.246094 C 592.878906 86.953125 590.878906 85.707031 588.851562 84.511719 C 586.820312 83.316406 584.761719 82.167969 582.675781 81.074219 C 580.589844 79.976562 578.480469 78.933594 576.34375 77.941406 C 574.203125 76.949219 572.042969 76.011719 569.863281 75.125 C 567.679688 74.238281 565.476562 73.40625 563.25 72.625 C 561.027344 71.847656 558.785156 71.121094 556.527344 70.453125 C 554.265625 69.785156 551.992188 69.171875 549.703125 68.613281 C 547.414062 68.054688 545.113281 67.554688 542.800781 67.109375 C 540.484375 66.664062 538.164062 66.273438 535.828125 65.941406 C 533.496094 65.609375 531.15625 65.335938 528.8125 65.117188 C 526.464844 64.902344 524.113281 64.742188 521.761719 64.640625 Z M 445.578125 455.640625 C 444.167969 456.828125 442.710938 457.949219 441.203125 459.011719 C 439.691406 460.070312 438.140625 461.0625 436.546875 461.984375 C 434.949219 462.910156 433.316406 463.761719 431.648438 464.542969 C 429.976562 465.324219 428.277344 466.03125 426.546875 466.664062 C 424.8125 467.292969 423.058594 467.851562 421.277344 468.328125 C 419.496094 468.804688 417.699219 469.207031 415.882812 469.527344 C 414.066406 469.847656 412.242188 470.089844 410.40625 470.25 C 408.570312 470.410156 406.730469 470.492188 404.886719 470.492188 C 403.042969 470.492188 401.203125 470.410156 399.367188 470.25 C 397.527344 470.089844 395.703125 469.847656 393.886719 469.527344 C 392.074219 469.207031 390.273438 468.804688 388.496094 468.328125 C 386.714844 467.851562 384.957031 467.292969 383.226562 466.664062 C 381.496094 466.03125 379.792969 465.324219 378.125 464.542969 C 376.453125 463.761719 374.820312 462.910156 373.226562 461.984375 C 371.628906 461.0625 370.078125 460.070312 368.570312 459.011719 C 367.0625 457.949219 365.601562 456.828125 364.191406 455.640625 C 255.007812 364.03125 192.386719 276.140625 192.386719 214.453125 C 192.296875 212.792969 192.246094 211.132812 192.238281 209.46875 C 192.230469 207.808594 192.261719 206.148438 192.335938 204.488281 C 192.40625 202.828125 192.519531 201.171875 192.675781 199.515625 C 192.828125 197.859375 193.023438 196.210938 193.257812 194.566406 C 193.492188 192.921875 193.765625 191.28125 194.078125 189.652344 C 194.394531 188.019531 194.746094 186.394531 195.140625 184.78125 C 195.535156 183.167969 195.96875 181.5625 196.441406 179.96875 C 196.914062 178.375 197.421875 176.796875 197.972656 175.226562 C 198.523438 173.660156 199.109375 172.105469 199.734375 170.566406 C 200.359375 169.027344 201.023438 167.503906 201.722656 165.996094 C 202.421875 164.488281 203.160156 163 203.929688 161.527344 C 204.703125 160.054688 205.511719 158.605469 206.355469 157.171875 C 207.199219 155.742188 208.078125 154.332031 208.988281 152.941406 C 209.902344 151.554688 210.847656 150.1875 211.828125 148.84375 C 212.804688 147.503906 213.816406 146.183594 214.859375 144.890625 C 215.90625 143.597656 216.980469 142.332031 218.085938 141.089844 C 219.191406 139.851562 220.324219 138.636719 221.488281 137.453125 C 222.65625 136.265625 223.847656 135.109375 225.070312 133.984375 C 226.289062 132.855469 227.539062 131.761719 228.8125 130.695312 C 230.089844 129.628906 231.386719 128.59375 232.714844 127.59375 C 234.039062 126.589844 235.386719 125.621094 236.761719 124.683594 C 238.132812 123.75 239.527344 122.847656 240.945312 121.976562 C 242.363281 121.109375 243.800781 120.277344 245.257812 119.480469 C 246.714844 118.679688 248.191406 117.917969 249.6875 117.191406 C 251.179688 116.46875 252.691406 115.777344 254.222656 115.125 C 255.75 114.472656 257.292969 113.859375 258.851562 113.285156 C 260.410156 112.707031 261.984375 112.167969 263.566406 111.667969 C 265.152344 111.171875 266.75 110.710938 268.355469 110.289062 C 269.964844 109.867188 271.578125 109.484375 273.207031 109.140625 C 274.832031 108.796875 276.464844 108.496094 278.105469 108.234375 C 279.746094 107.96875 281.394531 107.746094 283.046875 107.566406 C 284.695312 107.382812 286.351562 107.242188 288.011719 107.140625 C 289.667969 107.242188 291.324219 107.382812 292.976562 107.566406 C 294.628906 107.746094 296.273438 107.96875 297.914062 108.234375 C 299.554688 108.496094 301.1875 108.796875 302.816406 109.140625 C 304.441406 109.484375 306.058594 109.867188 307.664062 110.289062 C 309.273438 110.710938 310.867188 111.171875 312.453125 111.667969 C 314.039062 112.167969 315.609375 112.707031 317.167969 113.285156 C 318.726562 113.859375 320.269531 114.472656 321.800781 115.125 C 323.328125 115.777344 324.839844 116.46875 326.335938 117.191406 C 327.828125 117.917969 329.304688 118.679688 330.761719 119.480469 C 332.222656 120.277344 333.660156 121.109375 335.074219 121.976562 C 336.492188 122.847656 337.886719 123.75 339.257812 124.683594 C 340.632812 125.621094 341.980469 126.589844 343.308594 127.59375 C 344.632812 128.59375 345.933594 129.628906 347.207031 130.695312 C 348.484375 131.761719 349.730469 132.855469 350.953125 133.984375 C 352.171875 135.109375 353.367188 136.265625 354.53125 137.453125 C 355.695312 138.636719 356.832031 139.851562 357.9375 141.089844 C 359.042969 142.332031 360.117188 143.597656 361.160156 144.890625 C 362.203125 146.183594 363.214844 147.503906 364.195312 148.84375 C 365.171875 150.1875 366.121094 151.554688 367.03125 152.941406 C 367.945312 154.332031 368.824219 155.742188 369.664062 157.171875 C 370.507812 158.605469 371.316406 160.054688 372.089844 161.527344 C 372.863281 163 373.597656 164.488281 374.296875 165.996094 C 375 167.503906 375.660156 169.027344 376.285156 170.566406 C 376.910156 172.105469 377.5 173.660156 378.046875 175.226562 C 378.597656 176.796875 379.109375 178.375 379.582031 179.96875 C 380.054688 181.5625 380.484375 183.167969 380.878906 184.78125 C 381.273438 186.394531 381.628906 188.019531 381.941406 189.652344 C 382.257812 191.28125 382.53125 192.921875 382.765625 194.566406 C 383 196.210938 383.191406 197.859375 383.347656 199.515625 C 383.5 201.171875 383.613281 202.828125 383.6875 204.488281 C 383.757812 206.148438 383.792969 207.808594 383.78125 209.46875 C 383.773438 211.132812 383.726562 212.792969 383.636719 214.453125 C 383.636719 215.148438 383.667969 215.84375 383.738281 216.535156 C 383.804688 217.226562 383.90625 217.914062 384.042969 218.597656 C 384.179688 219.28125 384.347656 219.953125 384.550781 220.621094 C 384.753906 221.285156 384.988281 221.941406 385.253906 222.585938 C 385.519531 223.226562 385.816406 223.855469 386.144531 224.46875 C 386.472656 225.082031 386.832031 225.679688 387.21875 226.257812 C 387.605469 226.835938 388.019531 227.394531 388.460938 227.933594 C 388.902344 228.472656 389.367188 228.984375 389.859375 229.476562 C 390.351562 229.96875 390.867188 230.4375 391.40625 230.878906 C 391.941406 231.320312 392.5 231.734375 393.078125 232.121094 C 393.660156 232.507812 394.253906 232.863281 394.867188 233.191406 C 395.480469 233.519531 396.109375 233.816406 396.753906 234.085938 C 397.398438 234.351562 398.050781 234.585938 398.71875 234.789062 C 399.382812 234.988281 400.058594 235.15625 400.738281 235.292969 C 401.421875 235.429688 402.109375 235.53125 402.804688 235.601562 C 403.496094 235.667969 404.191406 235.703125 404.886719 235.703125 C 405.582031 235.703125 406.277344 235.667969 406.96875 235.601562 C 407.660156 235.53125 408.347656 235.429688 409.03125 235.292969 C 409.714844 235.15625 410.386719 234.988281 411.054688 234.789062 C 411.71875 234.585938 412.375 234.351562 413.019531 234.085938 C 413.660156 233.816406 414.289062 233.519531 414.902344 233.191406 C 415.515625 232.863281 416.113281 232.507812 416.691406 232.121094 C 417.269531 231.734375 417.828125 231.320312 418.367188 230.878906 C 418.90625 230.4375 419.417969 229.96875 419.910156 229.476562 C 420.402344 228.984375 420.871094 228.472656 421.3125 227.933594 C 421.753906 227.394531 422.167969 226.835938 422.554688 226.257812 C 422.941406 225.679688 423.296875 225.082031 423.625 224.46875 C 423.953125 223.855469 424.25 223.226562 424.519531 222.585938 C 424.785156 221.941406 425.019531 221.285156 425.21875 220.621094 C 425.421875 219.953125 425.589844 219.28125 425.726562 218.597656 C 425.863281 217.914062 425.964844 217.226562 426.035156 216.535156 C 426.101562 215.84375 426.136719 215.148438 426.136719 214.453125 C 426.046875 212.792969 425.996094 211.132812 425.988281 209.46875 C 425.980469 207.808594 426.011719 206.148438 426.085938 204.488281 C 426.15625 202.828125 426.269531 201.171875 426.425781 199.515625 C 426.578125 197.859375 426.773438 196.210938 427.007812 194.566406 C 427.242188 192.921875 427.515625 191.28125 427.828125 189.652344 C 428.144531 188.019531 428.496094 186.394531 428.890625 184.78125 C 429.285156 183.167969 429.71875 181.5625 430.191406 179.96875 C 430.664062 178.375 431.171875 176.796875 431.722656 175.226562 C 432.273438 173.660156 432.859375 172.105469 433.484375 170.566406 C 434.109375 169.027344 434.773438 167.503906 435.472656 165.996094 C 436.171875 164.488281 436.910156 163 437.679688 161.527344 C 438.453125 160.054688 439.261719 158.605469 440.105469 157.171875 C 440.949219 155.742188 441.828125 154.332031 442.738281 152.941406 C 443.652344 151.554688 444.597656 150.1875 445.578125 148.84375 C 446.554688 147.503906 447.566406 146.183594 448.609375 144.890625 C 449.65625 143.597656 450.730469 142.332031 451.835938 141.089844 C 452.941406 139.851562 454.074219 138.636719 455.238281 137.453125 C 456.40625 136.265625 457.597656 135.109375 458.820312 133.984375 C 460.039062 132.855469 461.289062 131.761719 462.5625 130.695312 C 463.839844 129.628906 465.136719 128.59375 466.464844 127.59375 C 467.789062 126.589844 469.136719 125.621094 470.511719 124.683594 C 471.882812 123.75 473.277344 122.847656 474.695312 121.976562 C 476.113281 121.109375 477.550781 120.277344 479.007812 119.480469 C 480.464844 118.679688 481.941406 117.917969 483.4375 117.191406 C 484.929688 116.46875 486.441406 115.777344 487.972656 115.125 C 489.5 114.472656 491.042969 113.859375 492.601562 113.285156 C 494.160156 112.707031 495.734375 112.167969 497.316406 111.667969 C 498.902344 111.171875 500.5 110.710938 502.105469 110.289062 C 503.714844 109.867188 505.328125 109.484375 506.957031 109.140625 C 508.582031 108.796875 510.214844 108.496094 511.855469 108.234375 C 513.496094 107.96875 515.144531 107.746094 516.796875 107.566406 C 518.445312 107.382812 520.101562 107.242188 521.761719 107.140625 C 523.417969 107.242188 525.074219 107.382812 526.726562 107.566406 C 528.378906 107.746094 530.023438 107.96875 531.664062 108.234375 C 533.304688 108.496094 534.9375 108.796875 536.566406 109.140625 C 538.191406 109.484375 539.808594 109.867188 541.414062 110.289062 C 543.023438 110.710938 544.617188 111.171875 546.203125 111.667969 C 547.789062 112.167969 549.359375 112.707031 550.917969 113.285156 C 552.476562 113.859375 554.019531 114.472656 555.550781 115.125 C 557.078125 115.777344 558.589844 116.46875 560.085938 117.191406 C 561.578125 117.917969 563.054688 118.679688 564.511719 119.480469 C 565.972656 120.277344 567.410156 121.109375 568.824219 121.976562 C 570.242188 122.847656 571.636719 123.75 573.007812 124.683594 C 574.382812 125.621094 575.730469 126.589844 577.058594 127.59375 C 578.382812 128.59375 579.683594 129.628906 580.957031 130.695312 C 582.234375 131.761719 583.480469 132.855469 584.703125 133.984375 C 585.921875 135.109375 587.117188 136.265625 588.28125 137.453125 C 589.445312 138.636719 590.582031 139.851562 591.6875 141.089844 C 592.792969 142.332031 593.867188 143.597656 594.910156 144.890625 C 595.953125 146.183594 596.964844 147.503906 597.945312 148.84375 C 598.921875 150.1875 599.871094 151.554688 600.78125 152.941406 C 601.695312 154.332031 602.574219 155.742188 603.417969 157.171875 C 604.257812 158.605469 605.066406 160.054688 605.839844 161.527344 C 606.613281 163 607.347656 164.488281 608.046875 165.996094 C 608.75 167.503906 609.410156 169.027344 610.035156 170.566406 C 610.660156 172.105469 611.25 173.660156 611.796875 175.226562 C 612.347656 176.796875 612.859375 178.375 613.332031 179.96875 C 613.804688 181.5625 614.234375 183.167969 614.628906 184.78125 C 615.023438 186.394531 615.378906 188.019531 615.691406 189.652344 C 616.007812 191.28125 616.28125 192.921875 616.515625 194.566406 C 616.75 196.210938 616.941406 197.859375 617.097656 199.515625 C 617.25 201.171875 617.363281 202.828125 617.4375 204.488281 C 617.507812 206.148438 617.542969 207.808594 617.53125 209.46875 C 617.523438 211.132812 617.476562 212.792969 617.386719 214.453125 C 617.386719 276.140625 554.761719 364.03125 445.578125 455.554688 Z M 445.578125 455.640625 " fill-opacity="1" fill-rule="nonzero"/></g><g fill="rgb(30.198669%, 81.959534%, 44.309998%)" fill-opacity="1"><g transform="translate(233.811042, 769.934148)"><g><path d="M 52.5 -43.6875 C 52.90625 -43.6875 53.253906 -43.535156 53.546875 -43.234375 C 53.847656 -42.941406 54 -42.59375 54 -42.1875 C 54 -41.78125 53.847656 -41.425781 53.546875 -41.125 C 53.253906 -40.820312 52.90625 -40.671875 52.5 -40.671875 L 22.953125 -40.671875 C 22.546875 -40.671875 22.191406 -40.820312 21.890625 -41.125 C 21.597656 -41.425781 21.453125 -41.78125 21.453125 -42.1875 C 21.453125 -42.59375 21.597656 -42.941406 21.890625 -43.234375 C 22.191406 -43.535156 22.546875 -43.6875 22.953125 -43.6875 L 35.046875 -43.6875 C 35.347656 -43.6875 35.5 -43.835938 35.5 -44.140625 L 35.5 -45.75 C 35.5 -46.269531 35.679688 -46.710938 36.046875 -47.078125 C 36.421875 -47.453125 36.867188 -47.640625 37.390625 -47.640625 C 37.910156 -47.640625 38.363281 -47.453125 38.75 -47.078125 C 39.144531 -46.710938 39.34375 -46.269531 39.34375 -45.75 L 39.34375 -44.140625 C 39.34375 -43.835938 39.472656 -43.6875 39.734375 -43.6875 Z M 17.546875 -45.640625 C 17.992188 -45.640625 18.363281 -45.488281 18.65625 -45.1875 C 18.957031 -44.894531 19.109375 -44.535156 19.109375 -44.109375 C 19.109375 -43.679688 18.957031 -43.316406 18.65625 -43.015625 C 18.363281 -42.722656 17.992188 -42.578125 17.546875 -42.578125 L 6.6875 -42.578125 C 6.238281 -42.578125 5.863281 -42.722656 5.5625 -43.015625 C 5.269531 -43.316406 5.125 -43.679688 5.125 -44.109375 C 5.125 -44.535156 5.269531 -44.894531 5.5625 -45.1875 C 5.863281 -45.488281 6.238281 -45.640625 6.6875 -45.640625 Z M 19.171875 -38.171875 C 19.617188 -38.171875 19.988281 -38.019531 20.28125 -37.71875 C 20.582031 -37.425781 20.734375 -37.066406 20.734375 -36.640625 C 20.734375 -36.210938 20.582031 -35.847656 20.28125 -35.546875 C 19.988281 -35.253906 19.617188 -35.109375 19.171875 -35.109375 L 4.015625 -35.109375 C 3.566406 -35.109375 3.191406 -35.253906 2.890625 -35.546875 C 2.597656 -35.847656 2.453125 -36.210938 2.453125 -36.640625 C 2.453125 -37.066406 2.597656 -37.425781 2.890625 -37.71875 C 3.191406 -38.019531 3.566406 -38.171875 4.015625 -38.171875 Z M 16 -11.875 C 16 -12.132812 15.847656 -12.265625 15.546875 -12.265625 L 8.25 -12.265625 C 7.945312 -12.265625 7.796875 -12.132812 7.796875 -11.875 L 7.796875 -2.5625 C 7.796875 -2.300781 7.945312 -2.171875 8.25 -2.171875 L 15.546875 -2.171875 C 15.847656 -2.171875 16 -2.300781 16 -2.5625 Z M 15.875 -15.375 C 16.8125 -15.375 17.59375 -15.054688 18.21875 -14.421875 C 18.851562 -13.796875 19.171875 -13.019531 19.171875 -12.09375 L 19.171875 -2.34375 C 19.171875 -1.414062 18.851562 -0.632812 18.21875 0 C 17.59375 0.632812 16.8125 0.953125 15.875 0.953125 L 8.140625 0.953125 C 7.910156 0.953125 7.796875 1.0625 7.796875 1.28125 L 7.796875 2.171875 C 7.796875 2.578125 7.644531 2.9375 7.34375 3.25 C 7.050781 3.570312 6.691406 3.734375 6.265625 3.734375 C 5.835938 3.734375 5.472656 3.570312 5.171875 3.25 C 4.878906 2.9375 4.734375 2.578125 4.734375 2.171875 L 4.734375 -12.09375 C 4.734375 -13.019531 5.054688 -13.796875 5.703125 -14.421875 C 6.359375 -15.054688 7.132812 -15.375 8.03125 -15.375 Z M 6.296875 -19.890625 C 5.847656 -19.890625 5.472656 -20.046875 5.171875 -20.359375 C 4.878906 -20.679688 4.734375 -21.046875 4.734375 -21.453125 C 4.734375 -21.859375 4.878906 -22.21875 5.171875 -22.53125 C 5.472656 -22.851562 5.847656 -23.015625 6.296875 -23.015625 L 17.671875 -23.015625 C 18.109375 -23.015625 18.472656 -22.851562 18.765625 -22.53125 C 19.066406 -22.21875 19.21875 -21.859375 19.21875 -21.453125 C 19.21875 -21.046875 19.066406 -20.679688 18.765625 -20.359375 C 18.472656 -20.046875 18.109375 -19.890625 17.671875 -19.890625 Z M 6.296875 -27.53125 C 5.847656 -27.53125 5.472656 -27.675781 5.171875 -27.96875 C 4.878906 -28.269531 4.734375 -28.632812 4.734375 -29.0625 C 4.734375 -29.488281 4.878906 -29.847656 5.171875 -30.140625 C 5.472656 -30.441406 5.847656 -30.59375 6.296875 -30.59375 L 17.671875 -30.59375 C 18.109375 -30.59375 18.472656 -30.441406 18.765625 -30.140625 C 19.066406 -29.847656 19.21875 -29.488281 19.21875 -29.0625 C 19.21875 -28.632812 19.066406 -28.269531 18.765625 -27.96875 C 18.472656 -27.675781 18.109375 -27.53125 17.671875 -27.53125 Z M 33.375 -17.046875 C 33.113281 -17.046875 32.984375 -16.914062 32.984375 -16.65625 L 32.984375 -14.046875 C 32.984375 -13.785156 33.113281 -13.65625 33.375 -13.65625 L 41.578125 -13.65625 C 41.867188 -13.65625 42.015625 -13.785156 42.015625 -14.046875 L 42.015625 -16.65625 C 42.015625 -16.914062 41.867188 -17.046875 41.578125 -17.046875 Z M 33.375 -22.90625 C 33.113281 -22.90625 32.984375 -22.753906 32.984375 -22.453125 L 32.984375 -20.109375 C 32.984375 -19.816406 33.113281 -19.671875 33.375 -19.671875 L 41.578125 -19.671875 C 41.867188 -19.671875 42.015625 -19.816406 42.015625 -20.109375 L 42.015625 -22.453125 C 42.015625 -22.753906 41.867188 -22.90625 41.578125 -22.90625 Z M 27.078125 -35.78125 C 26.785156 -35.78125 26.640625 -35.648438 26.640625 -35.390625 L 26.640625 -31.546875 C 26.640625 -31.242188 26.785156 -31.09375 27.078125 -31.09375 L 32.65625 -31.09375 C 32.945312 -31.09375 33.09375 -31.242188 33.09375 -31.546875 L 33.09375 -35.390625 C 33.09375 -35.648438 32.945312 -35.78125 32.65625 -35.78125 Z M 42.734375 -35.78125 C 42.472656 -35.78125 42.34375 -35.648438 42.34375 -35.390625 L 42.34375 -31.546875 C 42.34375 -31.242188 42.472656 -31.09375 42.734375 -31.09375 L 48.53125 -31.09375 C 48.832031 -31.09375 48.984375 -31.242188 48.984375 -31.546875 L 48.984375 -35.390625 C 48.984375 -35.648438 48.832031 -35.78125 48.53125 -35.78125 Z M 50.046875 -8.859375 C 50.410156 -9.117188 50.757812 -9.25 51.09375 -9.25 C 51.507812 -9.25 51.898438 -9.0625 52.265625 -8.6875 C 52.566406 -8.425781 52.695312 -8.109375 52.65625 -7.734375 C 52.625 -7.367188 52.457031 -7.078125 52.15625 -6.859375 C 50.675781 -5.929688 48.742188 -4.890625 46.359375 -3.734375 C 46.097656 -3.585938 46.082031 -3.421875 46.3125 -3.234375 C 48.3125 -1.378906 50.671875 0.0507812 53.390625 1.0625 C 53.753906 1.164062 53.992188 1.421875 54.109375 1.828125 C 54.222656 2.242188 54.148438 2.597656 53.890625 2.890625 C 53.554688 3.335938 53.144531 3.640625 52.65625 3.796875 C 52.4375 3.867188 52.210938 3.90625 51.984375 3.90625 C 51.722656 3.90625 51.46875 3.867188 51.21875 3.796875 C 48.09375 2.453125 45.382812 0.570312 43.09375 -1.84375 C 40.8125 -4.257812 39.039062 -7.117188 37.78125 -10.421875 C 37.707031 -10.679688 37.539062 -10.8125 37.28125 -10.8125 C 37.019531 -10.8125 36.78125 -10.71875 36.5625 -10.53125 C 35.332031 -9.488281 33.921875 -8.503906 32.328125 -7.578125 C 32.066406 -7.429688 31.9375 -7.226562 31.9375 -6.96875 L 31.9375 -1.0625 C 31.9375 -0.757812 32.082031 -0.628906 32.375 -0.671875 C 37.3125 -1.484375 39.96875 -1.925781 40.34375 -2 C 40.71875 -2.082031 41.0625 -2 41.375 -1.75 C 41.6875 -1.507812 41.863281 -1.1875 41.90625 -0.78125 C 41.90625 -0.375 41.785156 -0.015625 41.546875 0.296875 C 41.304688 0.617188 40.976562 0.816406 40.5625 0.890625 C 32.945312 2.265625 28.007812 3.140625 25.75 3.515625 C 25.300781 3.585938 24.878906 3.5 24.484375 3.25 C 24.097656 3.007812 23.832031 2.671875 23.6875 2.234375 C 23.570312 1.859375 23.625 1.492188 23.84375 1.140625 C 24.070312 0.785156 24.390625 0.570312 24.796875 0.5 C 25.910156 0.351562 27.0625 0.164062 28.25 -0.0625 C 28.507812 -0.09375 28.640625 -0.257812 28.640625 -0.5625 L 28.640625 -5.296875 C 28.640625 -5.410156 28.601562 -5.484375 28.53125 -5.515625 C 28.457031 -5.554688 28.363281 -5.554688 28.25 -5.515625 C 26.613281 -4.773438 25 -4.125 23.40625 -3.5625 C 23.144531 -3.488281 22.882812 -3.453125 22.625 -3.453125 C 21.988281 -3.453125 21.429688 -3.769531 20.953125 -4.40625 C 20.734375 -4.695312 20.675781 -5.03125 20.78125 -5.40625 C 20.894531 -5.78125 21.117188 -6.003906 21.453125 -6.078125 C 25.867188 -7.410156 29.398438 -8.914062 32.046875 -10.59375 C 32.117188 -10.59375 32.144531 -10.628906 32.125 -10.703125 C 32.101562 -10.773438 32.054688 -10.8125 31.984375 -10.8125 L 22.125 -10.8125 C 21.75 -10.8125 21.421875 -10.945312 21.140625 -11.21875 C 20.867188 -11.5 20.734375 -11.832031 20.734375 -12.21875 C 20.734375 -12.613281 20.867188 -12.953125 21.140625 -13.234375 C 21.421875 -13.515625 21.75 -13.65625 22.125 -13.65625 L 29.140625 -13.65625 C 29.398438 -13.65625 29.53125 -13.785156 29.53125 -14.046875 L 29.53125 -16.65625 C 29.53125 -16.914062 29.398438 -17.046875 29.140625 -17.046875 L 24.859375 -17.046875 C 24.523438 -17.046875 24.226562 -17.175781 23.96875 -17.4375 C 23.707031 -17.695312 23.578125 -18.003906 23.578125 -18.359375 C 23.578125 -18.710938 23.707031 -19.019531 23.96875 -19.28125 C 24.226562 -19.539062 24.523438 -19.671875 24.859375 -19.671875 L 29.140625 -19.671875 C 29.398438 -19.671875 29.53125 -19.816406 29.53125 -20.109375 L 29.53125 -22.453125 C 29.53125 -22.753906 29.398438 -22.90625 29.140625 -22.90625 L 23.796875 -22.90625 C 23.421875 -22.90625 23.101562 -23.023438 22.84375 -23.265625 C 22.582031 -23.503906 22.453125 -23.804688 22.453125 -24.171875 C 22.453125 -24.546875 22.582031 -24.863281 22.84375 -25.125 C 23.101562 -25.382812 23.421875 -25.515625 23.796875 -25.515625 L 29.140625 -25.515625 C 29.398438 -25.515625 29.53125 -25.644531 29.53125 -25.90625 L 29.53125 -28.3125 C 29.53125 -28.570312 29.398438 -28.703125 29.140625 -28.703125 L 26.96875 -28.703125 C 26.082031 -28.703125 25.3125 -29.023438 24.65625 -29.671875 C 24.007812 -30.328125 23.6875 -31.097656 23.6875 -31.984375 L 23.6875 -34.890625 C 23.6875 -35.773438 24.007812 -36.539062 24.65625 -37.1875 C 25.3125 -37.84375 26.082031 -38.171875 26.96875 -38.171875 L 32.875 -38.171875 C 33.800781 -38.171875 34.582031 -37.84375 35.21875 -37.1875 C 35.851562 -36.539062 36.171875 -35.773438 36.171875 -34.890625 L 36.171875 -31.546875 C 36.171875 -30.765625 35.890625 -30.09375 35.328125 -29.53125 C 34.773438 -28.976562 34.109375 -28.703125 33.328125 -28.703125 C 33.097656 -28.703125 32.984375 -28.585938 32.984375 -28.359375 L 32.984375 -25.90625 C 32.984375 -25.644531 33.113281 -25.515625 33.375 -25.515625 L 41.578125 -25.515625 C 41.867188 -25.515625 42.015625 -25.644531 42.015625 -25.90625 L 42.015625 -28.421875 C 42.015625 -28.609375 41.90625 -28.703125 41.6875 -28.703125 C 41.050781 -28.703125 40.507812 -28.929688 40.0625 -29.390625 C 39.613281 -29.859375 39.390625 -30.40625 39.390625 -31.03125 L 39.390625 -34.890625 C 39.390625 -35.773438 39.707031 -36.539062 40.34375 -37.1875 C 40.976562 -37.84375 41.757812 -38.171875 42.6875 -38.171875 L 48.765625 -38.171875 C 49.648438 -38.171875 50.414062 -37.84375 51.0625 -37.1875 C 51.71875 -36.539062 52.046875 -35.773438 52.046875 -34.890625 L 52.046875 -31.984375 C 52.046875 -31.097656 51.71875 -30.328125 51.0625 -29.671875 C 50.414062 -29.023438 49.648438 -28.703125 48.765625 -28.703125 L 45.921875 -28.703125 C 45.617188 -28.703125 45.46875 -28.570312 45.46875 -28.3125 L 45.46875 -25.90625 C 45.46875 -25.644531 45.617188 -25.515625 45.921875 -25.515625 L 51.9375 -25.515625 C 52.3125 -25.515625 52.617188 -25.382812 52.859375 -25.125 C 53.097656 -24.863281 53.21875 -24.546875 53.21875 -24.171875 C 53.21875 -23.804688 53.097656 -23.503906 52.859375 -23.265625 C 52.617188 -23.023438 52.3125 -22.90625 51.9375 -22.90625 L 45.921875 -22.90625 C 45.617188 -22.90625 45.46875 -22.753906 45.46875 -22.453125 L 45.46875 -20.109375 C 45.46875 -19.816406 45.617188 -19.671875 45.921875 -19.671875 L 50.765625 -19.671875 C 51.140625 -19.671875 51.457031 -19.539062 51.71875 -19.28125 C 51.976562 -19.019531 52.109375 -18.710938 52.109375 -18.359375 C 52.109375 -18.003906 51.976562 -17.695312 51.71875 -17.4375 C 51.457031 -17.175781 51.140625 -17.046875 50.765625 -17.046875 L 45.921875 -17.046875 C 45.617188 -17.046875 45.46875 -16.914062 45.46875 -16.65625 L 45.46875 -14.046875 C 45.46875 -13.785156 45.617188 -13.65625 45.921875 -13.65625 L 52.890625 -13.65625 C 53.296875 -13.65625 53.632812 -13.515625 53.90625 -13.234375 C 54.1875 -12.953125 54.328125 -12.613281 54.328125 -12.21875 C 54.328125 -11.832031 54.1875 -11.5 53.90625 -11.21875 C 53.632812 -10.945312 53.296875 -10.8125 52.890625 -10.8125 L 41.296875 -10.8125 C 41.179688 -10.8125 41.09375 -10.765625 41.03125 -10.671875 C 40.976562 -10.578125 40.972656 -10.492188 41.015625 -10.421875 C 41.753906 -8.828125 42.71875 -7.285156 43.90625 -5.796875 C 44.09375 -5.578125 44.300781 -5.539062 44.53125 -5.6875 C 46.53125 -6.757812 48.367188 -7.816406 50.046875 -8.859375 Z M 50.046875 -8.859375 "/></g></g></g><g fill="rgb(30.198669%, 81.959534%, 44.309998%)" fill-opacity="1"><g transform="translate(290.870684, 769.934148)"><g><path d="M 14.765625 -45.75 C 14.984375 -46.226562 15.316406 -46.582031 15.765625 -46.8125 C 16.066406 -46.957031 16.363281 -47.03125 16.65625 -47.03125 C 16.84375 -47.03125 17.050781 -46.992188 17.28125 -46.921875 C 17.757812 -46.773438 18.109375 -46.476562 18.328125 -46.03125 C 18.554688 -45.582031 18.554688 -45.117188 18.328125 -44.640625 C 16.804688 -40.992188 15.132812 -37.613281 13.3125 -34.5 C 13.207031 -34.238281 13.15625 -33.976562 13.15625 -33.71875 L 13.15625 2.390625 C 13.15625 2.910156 12.96875 3.347656 12.59375 3.703125 C 12.21875 4.054688 11.78125 4.234375 11.28125 4.234375 C 10.78125 4.234375 10.351562 4.054688 10 3.703125 C 9.644531 3.347656 9.46875 2.910156 9.46875 2.390625 L 9.46875 -28.03125 C 9.46875 -28.101562 9.441406 -28.148438 9.390625 -28.171875 C 9.335938 -28.191406 9.289062 -28.179688 9.25 -28.140625 C 7.875 -26.210938 6.390625 -24.335938 4.796875 -22.515625 C 4.460938 -22.109375 4.039062 -21.941406 3.53125 -22.015625 C 3.03125 -22.085938 2.632812 -22.347656 2.34375 -22.796875 C 2.082031 -23.234375 1.953125 -23.734375 1.953125 -24.296875 C 1.953125 -25.003906 2.191406 -25.617188 2.671875 -26.140625 C 7.648438 -31.484375 11.679688 -38.019531 14.765625 -45.75 Z M 25.46875 -21.78125 C 25.582031 -22.269531 25.859375 -22.648438 26.296875 -22.921875 C 26.742188 -23.203125 27.226562 -23.289062 27.75 -23.1875 C 28.226562 -23.101562 28.609375 -22.835938 28.890625 -22.390625 C 29.171875 -21.953125 29.238281 -21.492188 29.09375 -21.015625 C 27.382812 -14.765625 25.117188 -9.410156 22.296875 -4.953125 C 21.992188 -4.515625 21.570312 -4.25 21.03125 -4.15625 C 20.5 -4.0625 20.007812 -4.160156 19.5625 -4.453125 C 19.15625 -4.710938 18.90625 -5.101562 18.8125 -5.625 C 18.71875 -6.144531 18.800781 -6.609375 19.0625 -7.015625 C 21.695312 -10.773438 23.832031 -15.695312 25.46875 -21.78125 Z M 50.15625 -32.65625 C 50.1875 -32.914062 50.070312 -33.046875 49.8125 -33.046875 L 39.234375 -33.046875 C 38.929688 -33.046875 38.78125 -32.894531 38.78125 -32.59375 L 38.78125 -0.390625 C 38.78125 0.722656 38.640625 1.585938 38.359375 2.203125 C 38.085938 2.816406 37.617188 3.289062 36.953125 3.625 C 35.867188 4.070312 34.066406 4.332031 31.546875 4.40625 C 31.546875 4.40625 31.523438 4.40625 31.484375 4.40625 C 30.929688 4.40625 30.429688 4.21875 29.984375 3.84375 C 29.492188 3.46875 29.140625 2.984375 28.921875 2.390625 C 28.773438 1.953125 28.832031 1.535156 29.09375 1.140625 C 29.351562 0.753906 29.722656 0.5625 30.203125 0.5625 C 30.941406 0.59375 31.515625 0.597656 31.921875 0.578125 C 32.335938 0.566406 32.796875 0.5625 33.296875 0.5625 C 33.796875 0.5625 34.066406 0.5625 34.109375 0.5625 C 34.472656 0.5625 34.726562 0.492188 34.875 0.359375 C 35.03125 0.234375 35.109375 -0.015625 35.109375 -0.390625 L 35.109375 -32.59375 C 35.109375 -32.894531 34.957031 -33.046875 34.65625 -33.046875 L 26.40625 -33.046875 C 26.15625 -33.046875 25.972656 -32.914062 25.859375 -32.65625 C 24.597656 -29.71875 23.164062 -27.039062 21.5625 -24.625 C 21.300781 -24.1875 20.910156 -23.925781 20.390625 -23.84375 C 19.867188 -23.769531 19.394531 -23.898438 18.96875 -24.234375 C 18.539062 -24.566406 18.289062 -24.992188 18.21875 -25.515625 C 18.21875 -25.628906 18.21875 -25.742188 18.21875 -25.859375 C 18.21875 -26.222656 18.332031 -26.59375 18.5625 -26.96875 C 21.789062 -31.613281 24.351562 -37.816406 26.25 -45.578125 C 26.394531 -46.066406 26.691406 -46.457031 27.140625 -46.75 C 27.429688 -46.9375 27.765625 -47.03125 28.140625 -47.03125 C 28.253906 -47.03125 28.40625 -47.007812 28.59375 -46.96875 C 29.070312 -46.863281 29.445312 -46.585938 29.71875 -46.140625 C 30 -45.691406 30.066406 -45.226562 29.921875 -44.75 C 29.140625 -41.78125 28.34375 -39.179688 27.53125 -36.953125 C 27.488281 -36.867188 27.492188 -36.78125 27.546875 -36.6875 C 27.609375 -36.601562 27.695312 -36.5625 27.8125 -36.5625 L 51.15625 -36.5625 C 51.226562 -36.5625 51.285156 -36.578125 51.328125 -36.609375 C 51.691406 -36.679688 52.0625 -36.679688 52.4375 -36.609375 L 53.109375 -36.4375 C 53.472656 -36.332031 53.75 -36.128906 53.9375 -35.828125 C 54.09375 -35.609375 54.171875 -35.367188 54.171875 -35.109375 C 54.171875 -34.109375 53.535156 -30.988281 52.265625 -25.75 C 52.160156 -25.300781 51.910156 -24.957031 51.515625 -24.71875 C 51.128906 -24.476562 50.710938 -24.410156 50.265625 -24.515625 C 49.816406 -24.585938 49.472656 -24.8125 49.234375 -25.1875 C 48.992188 -25.5625 48.910156 -25.96875 48.984375 -26.40625 C 49.316406 -28.039062 49.707031 -30.125 50.15625 -32.65625 Z M 44.140625 -21.28125 C 44.023438 -21.507812 43.96875 -21.734375 43.96875 -21.953125 C 43.96875 -22.179688 44.003906 -22.382812 44.078125 -22.5625 C 44.265625 -23.007812 44.5625 -23.289062 44.96875 -23.40625 C 45.1875 -23.476562 45.410156 -23.515625 45.640625 -23.515625 C 45.898438 -23.515625 46.160156 -23.457031 46.421875 -23.34375 C 46.898438 -23.15625 47.253906 -22.84375 47.484375 -22.40625 C 50.335938 -16.863281 52.378906 -11.601562 53.609375 -6.625 C 53.640625 -6.476562 53.65625 -6.3125 53.65625 -6.125 C 53.65625 -5.789062 53.566406 -5.476562 53.390625 -5.1875 C 53.085938 -4.695312 52.675781 -4.359375 52.15625 -4.171875 C 52.007812 -4.140625 51.84375 -4.125 51.65625 -4.125 C 51.363281 -4.125 51.085938 -4.195312 50.828125 -4.34375 C 50.378906 -4.601562 50.097656 -4.976562 49.984375 -5.46875 C 48.753906 -10.59375 46.804688 -15.863281 44.140625 -21.28125 Z M 44.140625 -21.28125 "/></g></g></g><g fill="rgb(30.198669%, 81.959534%, 44.309998%)" fill-opacity="1"><g transform="translate(347.930326, 769.934148)"><g><path d="M 13.265625 -27.359375 C 13.265625 -27.066406 13.394531 -26.921875 13.65625 -26.921875 L 21.953125 -26.921875 C 22.847656 -26.921875 23.609375 -26.601562 24.234375 -25.96875 C 24.828125 -25.332031 25.125 -24.585938 25.125 -23.734375 C 25.125 -16.898438 24.882812 -10.457031 24.40625 -4.40625 C 24.113281 -0.875 23.628906 1.351562 22.953125 2.28125 C 22.515625 2.875 22.039062 3.289062 21.53125 3.53125 C 21.03125 3.78125 20.390625 3.957031 19.609375 4.0625 C 18.984375 4.0625 18.28125 4.0625 17.5 4.0625 C 16.832031 4.0625 16.085938 4.0625 15.265625 4.0625 C 14.785156 4.0625 14.335938 3.882812 13.921875 3.53125 C 13.515625 3.1875 13.238281 2.753906 13.09375 2.234375 C 13.019531 1.816406 13.09375 1.441406 13.3125 1.109375 C 13.539062 0.773438 13.859375 0.628906 14.265625 0.671875 C 15.378906 0.703125 16.644531 0.71875 18.0625 0.71875 C 18.09375 0.71875 18.144531 0.71875 18.21875 0.71875 C 18.882812 0.71875 19.390625 0.476562 19.734375 0 C 20.242188 -0.664062 20.628906 -2.671875 20.890625 -6.015625 C 21.148438 -9.359375 21.375 -15.023438 21.5625 -23.015625 C 21.5625 -23.304688 21.429688 -23.453125 21.171875 -23.453125 L 13.65625 -23.453125 C 13.394531 -23.453125 13.265625 -23.304688 13.265625 -23.015625 L 13.265625 -22.90625 C 13.265625 -20.375 13.171875 -18.097656 12.984375 -16.078125 C 12.796875 -14.054688 12.453125 -11.898438 11.953125 -9.609375 C 11.453125 -7.328125 10.679688 -5.132812 9.640625 -3.03125 C 8.597656 -0.9375 7.296875 1.035156 5.734375 2.890625 C 5.398438 3.265625 4.984375 3.460938 4.484375 3.484375 C 3.984375 3.503906 3.546875 3.347656 3.171875 3.015625 C 2.765625 2.640625 2.5625 2.15625 2.5625 1.5625 C 2.5625 1.15625 2.710938 0.785156 3.015625 0.453125 C 4.421875 -1.265625 5.585938 -3.097656 6.515625 -5.046875 C 7.441406 -6.992188 8.117188 -9.015625 8.546875 -11.109375 C 8.972656 -13.210938 9.257812 -15.144531 9.40625 -16.90625 C 9.5625 -18.675781 9.640625 -20.675781 9.640625 -22.90625 L 9.640625 -34.4375 C 9.640625 -34.738281 9.507812 -34.890625 9.25 -34.890625 L 4.453125 -34.890625 C 3.972656 -34.890625 3.566406 -35.054688 3.234375 -35.390625 C 2.898438 -35.722656 2.734375 -36.128906 2.734375 -36.609375 C 2.734375 -37.085938 2.898438 -37.492188 3.234375 -37.828125 C 3.566406 -38.171875 3.972656 -38.34375 4.453125 -38.34375 L 12.921875 -38.34375 C 13.222656 -38.34375 13.375 -38.488281 13.375 -38.78125 L 13.375 -45.6875 C 13.375 -46.175781 13.550781 -46.601562 13.90625 -46.96875 C 14.257812 -47.34375 14.695312 -47.53125 15.21875 -47.53125 C 15.738281 -47.53125 16.171875 -47.34375 16.515625 -46.96875 C 16.867188 -46.601562 17.046875 -46.175781 17.046875 -45.6875 L 17.046875 -38.78125 C 17.046875 -38.488281 17.195312 -38.34375 17.5 -38.34375 L 26.25 -38.34375 C 26.695312 -38.34375 27.09375 -38.171875 27.4375 -37.828125 C 27.789062 -37.492188 27.96875 -37.085938 27.96875 -36.609375 C 27.96875 -36.128906 27.789062 -35.722656 27.4375 -35.390625 C 27.09375 -35.054688 26.695312 -34.890625 26.25 -34.890625 L 13.65625 -34.890625 C 13.394531 -34.890625 13.265625 -34.738281 13.265625 -34.4375 Z M 46.53125 -33.09375 C 46.601562 -33.351562 46.492188 -33.484375 46.203125 -33.484375 L 35.546875 -33.484375 C 35.285156 -33.484375 35.101562 -33.351562 35 -33.09375 C 35 -33.019531 34.976562 -32.96875 34.9375 -32.9375 C 34.863281 -32.632812 34.847656 -32.351562 34.890625 -32.09375 C 36.179688 -25.257812 38.035156 -19.390625 40.453125 -14.484375 C 40.492188 -14.378906 40.5625 -14.328125 40.65625 -14.328125 C 40.75 -14.328125 40.8125 -14.378906 40.84375 -14.484375 C 43.445312 -19.347656 45.34375 -25.550781 46.53125 -33.09375 Z M 54.140625 -36.53125 C 54.492188 -36.175781 54.671875 -35.753906 54.671875 -35.265625 C 54.671875 -34.785156 54.492188 -34.367188 54.140625 -34.015625 C 53.785156 -33.660156 53.367188 -33.484375 52.890625 -33.484375 L 50.875 -33.484375 C 50.582031 -33.484375 50.414062 -33.351562 50.375 -33.09375 C 48.8125 -23.882812 46.34375 -16.4375 42.96875 -10.75 C 42.8125 -10.488281 42.8125 -10.25 42.96875 -10.03125 C 45.789062 -5.644531 49.1875 -2.300781 53.15625 0 C 53.601562 0.257812 53.863281 0.640625 53.9375 1.140625 C 54.007812 1.640625 53.878906 2.078125 53.546875 2.453125 C 53.140625 2.929688 52.65625 3.234375 52.09375 3.359375 C 51.539062 3.492188 51.003906 3.414062 50.484375 3.125 C 46.734375 0.78125 43.445312 -2.488281 40.625 -6.6875 C 40.476562 -6.90625 40.3125 -6.90625 40.125 -6.6875 C 37 -2.632812 32.929688 0.742188 27.921875 3.453125 C 27.617188 3.640625 27.300781 3.734375 26.96875 3.734375 C 26.78125 3.734375 26.578125 3.695312 26.359375 3.625 C 25.835938 3.476562 25.410156 3.160156 25.078125 2.671875 C 24.890625 2.378906 24.796875 2.066406 24.796875 1.734375 C 24.796875 1.617188 24.816406 1.488281 24.859375 1.34375 C 24.960938 0.820312 25.238281 0.445312 25.6875 0.21875 C 30.8125 -2.34375 34.972656 -5.796875 38.171875 -10.140625 C 38.316406 -10.359375 38.335938 -10.597656 38.234375 -10.859375 C 36.003906 -15.171875 34.144531 -20.351562 32.65625 -26.40625 C 32.65625 -26.488281 32.617188 -26.53125 32.546875 -26.53125 C 32.472656 -26.53125 32.4375 -26.488281 32.4375 -26.40625 C 31.65625 -24.695312 30.816406 -23.117188 29.921875 -21.671875 C 29.660156 -21.234375 29.257812 -20.972656 28.71875 -20.890625 C 28.1875 -20.816406 27.695312 -20.945312 27.25 -21.28125 C 26.800781 -21.613281 26.519531 -22.050781 26.40625 -22.59375 C 26.300781 -23.132812 26.394531 -23.644531 26.6875 -24.125 C 30 -29.332031 32.546875 -36.5625 34.328125 -45.8125 C 34.441406 -46.332031 34.71875 -46.757812 35.15625 -47.09375 C 35.5 -47.3125 35.875 -47.421875 36.28125 -47.421875 C 36.382812 -47.421875 36.492188 -47.421875 36.609375 -47.421875 C 37.128906 -47.347656 37.546875 -47.097656 37.859375 -46.671875 C 38.179688 -46.242188 38.285156 -45.769531 38.171875 -45.25 C 37.648438 -42.6875 37.019531 -40.085938 36.28125 -37.453125 C 36.238281 -37.335938 36.253906 -37.242188 36.328125 -37.171875 C 36.398438 -37.097656 36.492188 -37.0625 36.609375 -37.0625 L 52.890625 -37.0625 C 53.367188 -37.0625 53.785156 -36.882812 54.140625 -36.53125 Z M 54.140625 -36.53125 "/></g></g></g><g fill="rgb(30.198669%, 81.959534%, 44.309998%)" fill-opacity="1"><g transform="translate(404.989968, 769.934148)"><g><path d="M 42.40625 -27.1875 C 42.113281 -27.5625 42.03125 -27.988281 42.15625 -28.46875 C 42.28125 -28.957031 42.566406 -29.3125 43.015625 -29.53125 C 43.503906 -29.757812 44.015625 -29.804688 44.546875 -29.671875 C 45.085938 -29.546875 45.507812 -29.257812 45.8125 -28.8125 C 47.851562 -26.019531 49.707031 -22.953125 51.375 -19.609375 C 52.976562 -16.492188 54.164062 -13.632812 54.9375 -11.03125 C 55.019531 -10.8125 55.0625 -10.585938 55.0625 -10.359375 C 55.0625 -10.023438 54.984375 -9.710938 54.828125 -9.421875 C 54.566406 -8.898438 54.175781 -8.507812 53.65625 -8.25 C 53.175781 -8.019531 52.703125 -8.015625 52.234375 -8.234375 C 51.773438 -8.460938 51.472656 -8.835938 51.328125 -9.359375 C 50.546875 -11.921875 49.375 -14.78125 47.8125 -17.9375 C 46.175781 -21.28125 44.375 -24.363281 42.40625 -27.1875 Z M 7.90625 -26.640625 C 7.988281 -27.117188 8.234375 -27.503906 8.640625 -27.796875 C 9.046875 -28.097656 9.488281 -28.191406 9.96875 -28.078125 C 10.488281 -28.003906 10.90625 -27.753906 11.21875 -27.328125 C 11.539062 -26.898438 11.664062 -26.425781 11.59375 -25.90625 C 10.476562 -17.695312 8.640625 -11.515625 6.078125 -7.359375 C 5.773438 -6.910156 5.351562 -6.628906 4.8125 -6.515625 C 4.28125 -6.410156 3.769531 -6.503906 3.28125 -6.796875 C 2.84375 -7.054688 2.566406 -7.445312 2.453125 -7.96875 C 2.453125 -8.113281 2.453125 -8.242188 2.453125 -8.359375 C 2.453125 -8.734375 2.546875 -9.085938 2.734375 -9.421875 C 5.296875 -13.429688 7.019531 -19.171875 7.90625 -26.640625 Z M 19.78125 -45.1875 C 19.375 -45.34375 19.101562 -45.632812 18.96875 -46.0625 C 18.84375 -46.488281 18.925781 -46.882812 19.21875 -47.25 C 19.5625 -47.695312 20.007812 -47.992188 20.5625 -48.140625 C 20.78125 -48.222656 21.019531 -48.265625 21.28125 -48.265625 C 21.582031 -48.265625 21.863281 -48.207031 22.125 -48.09375 C 24.90625 -47.050781 27.820312 -45.804688 30.875 -44.359375 C 33.726562 -42.941406 36.195312 -41.625 38.28125 -40.40625 C 38.757812 -40.101562 39.054688 -39.679688 39.171875 -39.140625 C 39.285156 -38.609375 39.175781 -38.117188 38.84375 -37.671875 C 38.507812 -37.222656 38.070312 -36.953125 37.53125 -36.859375 C 36.988281 -36.765625 36.476562 -36.867188 36 -37.171875 C 33.988281 -38.429688 31.554688 -39.785156 28.703125 -41.234375 C 25.617188 -42.753906 22.644531 -44.070312 19.78125 -45.1875 Z M 17.546875 -31.203125 C 17.546875 -31.722656 17.738281 -32.175781 18.125 -32.5625 C 18.519531 -32.957031 18.976562 -33.15625 19.5 -33.15625 C 20.019531 -33.15625 20.472656 -32.957031 20.859375 -32.5625 C 21.253906 -32.175781 21.453125 -31.722656 21.453125 -31.203125 L 21.453125 -4.40625 C 21.453125 -3.101562 21.691406 -2.253906 22.171875 -1.859375 C 22.660156 -1.472656 23.703125 -1.28125 25.296875 -1.28125 L 36.28125 -1.28125 C 37.988281 -1.28125 39.117188 -2.023438 39.671875 -3.515625 C 40.117188 -4.773438 40.4375 -7.394531 40.625 -11.375 C 40.65625 -11.8125 40.863281 -12.125 41.25 -12.3125 C 41.644531 -12.5 42.050781 -12.5 42.46875 -12.3125 C 42.988281 -12.050781 43.414062 -11.679688 43.75 -11.203125 C 44.039062 -10.753906 44.1875 -10.269531 44.1875 -9.75 C 44.1875 -5.851562 43.59375 -2.789062 42.40625 -0.5625 C 41.40625 1.300781 39.398438 2.234375 36.390625 2.234375 L 25.015625 2.234375 C 22.117188 2.234375 20.148438 1.765625 19.109375 0.828125 C 18.066406 -0.0976562 17.546875 -1.859375 17.546875 -4.453125 Z M 17.546875 -31.203125 "/></g></g></g><g fill="rgb(30.198669%, 81.959534%, 44.309998%)" fill-opacity="1"><g transform="translate(462.049609, 769.934148)"><g><path d="M 30.765625 -13.9375 C 30.503906 -13.9375 30.375 -13.785156 30.375 -13.484375 L 30.375 -2.671875 C 30.375 -2.410156 30.503906 -2.242188 30.765625 -2.171875 C 33.585938 -1.617188 37.078125 -1.34375 41.234375 -1.34375 C 46.585938 -1.34375 50.414062 -1.359375 52.71875 -1.390625 C 53.164062 -1.390625 53.5 -1.1875 53.71875 -0.78125 C 53.863281 -0.5625 53.9375 -0.335938 53.9375 -0.109375 C 53.9375 0.078125 53.898438 0.242188 53.828125 0.390625 C 53.640625 0.941406 53.3125 1.40625 52.84375 1.78125 C 52.382812 2.15625 51.878906 2.34375 51.328125 2.34375 L 41.0625 2.34375 C 34.300781 2.34375 28.75 1.453125 24.40625 -0.328125 C 20.132812 -2.035156 16.695312 -5.195312 14.09375 -9.8125 C 14.0625 -9.84375 14 -9.859375 13.90625 -9.859375 C 13.8125 -9.859375 13.742188 -9.820312 13.703125 -9.75 C 11.773438 -4.695312 9.363281 -0.796875 6.46875 1.953125 C 6.09375 2.285156 5.664062 2.453125 5.1875 2.453125 C 5.144531 2.453125 5.109375 2.453125 5.078125 2.453125 C 4.554688 2.410156 4.085938 2.207031 3.671875 1.84375 C 3.335938 1.507812 3.171875 1.097656 3.171875 0.609375 C 3.171875 0.160156 3.335938 -0.226562 3.671875 -0.5625 C 8.429688 -4.90625 11.40625 -11.757812 12.59375 -21.125 C 12.664062 -21.675781 12.914062 -22.128906 13.34375 -22.484375 C 13.769531 -22.835938 14.253906 -22.976562 14.796875 -22.90625 C 15.335938 -22.832031 15.773438 -22.582031 16.109375 -22.15625 C 16.441406 -21.726562 16.570312 -21.253906 16.5 -20.734375 C 16.195312 -19.023438 15.804688 -17.164062 15.328125 -15.15625 C 15.253906 -14.894531 15.269531 -14.632812 15.375 -14.375 C 17.644531 -9.175781 21.234375 -5.570312 26.140625 -3.5625 C 26.242188 -3.53125 26.332031 -3.539062 26.40625 -3.59375 C 26.488281 -3.644531 26.53125 -3.710938 26.53125 -3.796875 L 26.53125 -26.296875 C 26.53125 -26.597656 26.378906 -26.75 26.078125 -26.75 L 5.578125 -26.75 C 5.085938 -26.75 4.664062 -26.925781 4.3125 -27.28125 C 3.96875 -27.632812 3.796875 -28.050781 3.796875 -28.53125 C 3.796875 -29.007812 3.96875 -29.425781 4.3125 -29.78125 C 4.664062 -30.132812 5.085938 -30.3125 5.578125 -30.3125 L 26.078125 -30.3125 C 26.335938 -30.3125 26.46875 -30.460938 26.46875 -30.765625 L 26.46875 -38.109375 C 26.46875 -38.410156 26.335938 -38.5625 26.078125 -38.5625 L 10.46875 -38.5625 C 9.957031 -38.5625 9.53125 -38.726562 9.1875 -39.0625 C 8.851562 -39.394531 8.6875 -39.8125 8.6875 -40.3125 C 8.6875 -40.8125 8.851562 -41.226562 9.1875 -41.5625 C 9.53125 -41.90625 9.957031 -42.078125 10.46875 -42.078125 L 26.078125 -42.078125 C 26.335938 -42.078125 26.46875 -42.207031 26.46875 -42.46875 L 26.46875 -46.921875 C 26.46875 -47.441406 26.660156 -47.894531 27.046875 -48.28125 C 27.441406 -48.675781 27.898438 -48.875 28.421875 -48.875 C 28.941406 -48.875 29.394531 -48.675781 29.78125 -48.28125 C 30.175781 -47.894531 30.375 -47.441406 30.375 -46.921875 L 30.375 -42.46875 C 30.375 -42.207031 30.503906 -42.078125 30.765625 -42.078125 L 47.359375 -42.078125 C 47.847656 -42.078125 48.257812 -41.90625 48.59375 -41.5625 C 48.925781 -41.226562 49.09375 -40.8125 49.09375 -40.3125 C 49.09375 -39.8125 48.925781 -39.394531 48.59375 -39.0625 C 48.257812 -38.726562 47.847656 -38.5625 47.359375 -38.5625 L 30.765625 -38.5625 C 30.503906 -38.5625 30.375 -38.410156 30.375 -38.109375 L 30.375 -30.765625 C 30.375 -30.460938 30.503906 -30.3125 30.765625 -30.3125 L 51.4375 -30.3125 C 51.914062 -30.3125 52.332031 -30.132812 52.6875 -29.78125 C 53.039062 -29.425781 53.21875 -29.007812 53.21875 -28.53125 C 53.21875 -28.050781 53.039062 -27.632812 52.6875 -27.28125 C 52.332031 -26.925781 51.914062 -26.75 51.4375 -26.75 L 30.765625 -26.75 C 30.503906 -26.75 30.375 -26.597656 30.375 -26.296875 L 30.375 -17.828125 C 30.375 -17.566406 30.503906 -17.4375 30.765625 -17.4375 L 47.703125 -17.4375 C 48.222656 -17.4375 48.648438 -17.269531 48.984375 -16.9375 C 49.316406 -16.601562 49.484375 -16.1875 49.484375 -15.6875 C 49.484375 -15.1875 49.316406 -14.769531 48.984375 -14.4375 C 48.648438 -14.101562 48.222656 -13.9375 47.703125 -13.9375 Z M 30.765625 -13.9375 "/></g></g></g><g fill="rgb(30.198669%, 81.959534%, 44.309998%)" fill-opacity="1"><g transform="translate(519.109251, 769.934148)"><g><path d="M 22.34375 -45.96875 C 22.570312 -46.414062 22.90625 -46.75 23.34375 -46.96875 C 23.644531 -47.125 23.925781 -47.203125 24.1875 -47.203125 C 24.375 -47.203125 24.554688 -47.164062 24.734375 -47.09375 C 25.179688 -46.976562 25.5 -46.707031 25.6875 -46.28125 C 25.875 -45.851562 25.859375 -45.453125 25.640625 -45.078125 C 24.742188 -43.515625 24 -42.269531 23.40625 -41.34375 C 23.144531 -40.976562 22.800781 -40.710938 22.375 -40.546875 C 21.945312 -40.378906 21.507812 -40.367188 21.0625 -40.515625 C 20.6875 -40.617188 20.429688 -40.859375 20.296875 -41.234375 C 20.171875 -41.609375 20.203125 -41.960938 20.390625 -42.296875 C 21.066406 -43.484375 21.71875 -44.707031 22.34375 -45.96875 Z M 12.65625 -42.578125 C 12.832031 -42.128906 12.816406 -41.707031 12.609375 -41.3125 C 12.410156 -40.925781 12.085938 -40.660156 11.640625 -40.515625 C 11.234375 -40.367188 10.832031 -40.382812 10.4375 -40.5625 C 10.050781 -40.75 9.785156 -41.046875 9.640625 -41.453125 C 9.117188 -42.722656 8.523438 -43.96875 7.859375 -45.1875 C 7.671875 -45.519531 7.648438 -45.875 7.796875 -46.25 C 7.953125 -46.625 8.210938 -46.863281 8.578125 -46.96875 C 8.765625 -47.007812 8.96875 -47.03125 9.1875 -47.03125 C 9.414062 -47.03125 9.640625 -46.992188 9.859375 -46.921875 C 10.304688 -46.773438 10.640625 -46.492188 10.859375 -46.078125 C 11.609375 -44.859375 12.207031 -43.691406 12.65625 -42.578125 Z M 14.546875 -26.796875 C 14.804688 -26.796875 14.9375 -26.945312 14.9375 -27.25 L 14.9375 -36.171875 C 14.9375 -36.429688 14.804688 -36.5625 14.546875 -36.5625 L 4.453125 -36.5625 C 4.046875 -36.5625 3.679688 -36.71875 3.359375 -37.03125 C 3.046875 -37.34375 2.890625 -37.710938 2.890625 -38.140625 C 2.890625 -38.566406 3.046875 -38.9375 3.359375 -39.25 C 3.679688 -39.570312 4.046875 -39.734375 4.453125 -39.734375 L 28.75 -39.734375 C 29.15625 -39.734375 29.515625 -39.570312 29.828125 -39.25 C 30.148438 -38.9375 30.3125 -38.566406 30.3125 -38.140625 C 30.3125 -37.710938 30.148438 -37.34375 29.828125 -37.03125 C 29.515625 -36.71875 29.15625 -36.5625 28.75 -36.5625 L 18.78125 -36.5625 C 18.519531 -36.5625 18.390625 -36.429688 18.390625 -36.171875 L 18.390625 -27.25 C 18.390625 -26.945312 18.519531 -26.796875 18.78125 -26.796875 L 24.40625 -26.796875 C 24.664062 -26.796875 24.796875 -26.945312 24.796875 -27.25 L 24.796875 -32.484375 C 24.796875 -32.929688 24.960938 -33.3125 25.296875 -33.625 C 25.628906 -33.945312 26.019531 -34.109375 26.46875 -34.109375 C 26.914062 -34.109375 27.296875 -33.945312 27.609375 -33.625 C 27.921875 -33.3125 28.078125 -32.929688 28.078125 -32.484375 L 28.078125 -23.453125 C 28.078125 -23.015625 27.921875 -22.632812 27.609375 -22.3125 C 27.296875 -22 26.914062 -21.84375 26.46875 -21.84375 C 26.019531 -21.84375 25.628906 -22 25.296875 -22.3125 C 24.960938 -22.632812 24.796875 -23.015625 24.796875 -23.453125 L 24.796875 -23.515625 C 24.796875 -23.660156 24.738281 -23.734375 24.625 -23.734375 L 18.609375 -23.734375 C 18.347656 -23.734375 18.203125 -23.601562 18.171875 -23.34375 C 17.421875 -18.476562 14.316406 -14.914062 8.859375 -12.65625 C 8.566406 -12.539062 8.269531 -12.484375 7.96875 -12.484375 C 7.332031 -12.484375 6.71875 -12.816406 6.125 -13.484375 C 5.863281 -13.785156 5.78125 -14.128906 5.875 -14.515625 C 5.96875 -14.898438 6.203125 -15.171875 6.578125 -15.328125 C 9.171875 -16.328125 11.082031 -17.484375 12.3125 -18.796875 C 13.539062 -20.117188 14.34375 -21.632812 14.71875 -23.34375 C 14.75 -23.601562 14.632812 -23.734375 14.375 -23.734375 L 8.6875 -23.734375 C 8.507812 -23.734375 8.421875 -23.640625 8.421875 -23.453125 L 8.421875 -22.6875 C 8.421875 -22.238281 8.257812 -21.851562 7.9375 -21.53125 C 7.625 -21.21875 7.242188 -21.0625 6.796875 -21.0625 C 6.347656 -21.0625 5.96875 -21.21875 5.65625 -21.53125 C 5.34375 -21.851562 5.1875 -22.238281 5.1875 -22.6875 L 5.1875 -32.546875 C 5.1875 -32.992188 5.34375 -33.363281 5.65625 -33.65625 C 5.96875 -33.957031 6.347656 -34.109375 6.796875 -34.109375 C 7.242188 -34.109375 7.625 -33.957031 7.9375 -33.65625 C 8.257812 -33.363281 8.421875 -32.992188 8.421875 -32.546875 L 8.421875 -27.25 C 8.421875 -26.945312 8.546875 -26.796875 8.796875 -26.796875 Z M 48.203125 -41.578125 C 48.203125 -41.867188 48.070312 -42.015625 47.8125 -42.015625 L 37 -42.015625 C 36.707031 -42.015625 36.5625 -41.867188 36.5625 -41.578125 L 36.5625 -37.28125 C 36.5625 -37.019531 36.707031 -36.890625 37 -36.890625 L 47.8125 -36.890625 C 48.070312 -36.890625 48.203125 -37.019531 48.203125 -37.28125 Z M 36.390625 -29.03125 C 36.347656 -28.738281 36.476562 -28.59375 36.78125 -28.59375 L 47.8125 -28.59375 C 48.070312 -28.59375 48.203125 -28.738281 48.203125 -29.03125 L 48.203125 -33.484375 C 48.203125 -33.742188 48.070312 -33.875 47.8125 -33.875 L 37 -33.875 C 36.707031 -33.875 36.5625 -33.742188 36.5625 -33.484375 L 36.5625 -32.765625 C 36.5625 -31.429688 36.503906 -30.1875 36.390625 -29.03125 Z M 48.203125 -25.125 C 48.203125 -25.425781 48.070312 -25.578125 47.8125 -25.578125 L 36.328125 -25.578125 C 36.035156 -25.578125 35.851562 -25.445312 35.78125 -25.1875 C 34.925781 -21.363281 33.304688 -18.28125 30.921875 -15.9375 C 30.585938 -15.601562 30.160156 -15.4375 29.640625 -15.4375 C 29.117188 -15.4375 28.640625 -15.582031 28.203125 -15.875 C 27.867188 -16.101562 27.679688 -16.429688 27.640625 -16.859375 C 27.597656 -17.285156 27.726562 -17.644531 28.03125 -17.9375 C 30.070312 -19.90625 31.4375 -22.125 32.125 -24.59375 C 32.8125 -27.070312 33.15625 -29.816406 33.15625 -32.828125 L 33.15625 -41.90625 C 33.15625 -42.800781 33.476562 -43.570312 34.125 -44.21875 C 34.78125 -44.863281 35.550781 -45.1875 36.4375 -45.1875 L 48.53125 -45.1875 C 49.425781 -45.1875 50.195312 -44.863281 50.84375 -44.21875 C 51.5 -43.570312 51.828125 -42.800781 51.828125 -41.90625 L 51.828125 -18.4375 C 51.828125 -17.40625 51.695312 -16.617188 51.4375 -16.078125 C 51.175781 -15.535156 50.691406 -15.117188 49.984375 -14.828125 C 49.015625 -14.410156 47.15625 -14.1875 44.40625 -14.15625 C 43.882812 -14.15625 43.410156 -14.320312 42.984375 -14.65625 C 42.554688 -14.988281 42.253906 -15.394531 42.078125 -15.875 C 41.960938 -16.289062 42.015625 -16.671875 42.234375 -17.015625 C 42.460938 -17.367188 42.78125 -17.53125 43.1875 -17.5 C 43.300781 -17.5 44.65625 -17.5 47.25 -17.5 C 47.625 -17.53125 47.875 -17.617188 48 -17.765625 C 48.132812 -17.921875 48.203125 -18.164062 48.203125 -18.5 Z M 30.3125 -1.28125 C 30.3125 -0.976562 30.441406 -0.828125 30.703125 -0.828125 L 52.546875 -0.828125 C 53.023438 -0.828125 53.429688 -0.660156 53.765625 -0.328125 C 54.109375 0.00390625 54.28125 0.398438 54.28125 0.859375 C 54.28125 1.328125 54.109375 1.726562 53.765625 2.0625 C 53.429688 2.394531 53.023438 2.5625 52.546875 2.5625 L 4.515625 2.5625 C 4.035156 2.5625 3.625 2.394531 3.28125 2.0625 C 2.945312 1.726562 2.78125 1.328125 2.78125 0.859375 C 2.78125 0.398438 2.945312 0.00390625 3.28125 -0.328125 C 3.625 -0.660156 4.035156 -0.828125 4.515625 -0.828125 L 26.078125 -0.828125 C 26.335938 -0.828125 26.46875 -0.976562 26.46875 -1.28125 L 26.46875 -7.1875 C 26.46875 -7.445312 26.335938 -7.578125 26.078125 -7.578125 L 10.359375 -7.578125 C 9.921875 -7.578125 9.539062 -7.742188 9.21875 -8.078125 C 8.90625 -8.410156 8.75 -8.800781 8.75 -9.25 C 8.75 -9.695312 8.90625 -10.085938 9.21875 -10.421875 C 9.539062 -10.753906 9.921875 -10.921875 10.359375 -10.921875 L 26.078125 -10.921875 C 26.335938 -10.921875 26.46875 -11.050781 26.46875 -11.3125 L 26.46875 -12.875 C 26.46875 -13.394531 26.648438 -13.835938 27.015625 -14.203125 C 27.390625 -14.578125 27.847656 -14.765625 28.390625 -14.765625 C 28.929688 -14.765625 29.382812 -14.578125 29.75 -14.203125 C 30.125 -13.835938 30.3125 -13.394531 30.3125 -12.875 L 30.3125 -11.3125 C 30.3125 -11.050781 30.441406 -10.921875 30.703125 -10.921875 L 46.703125 -10.921875 C 47.140625 -10.921875 47.515625 -10.753906 47.828125 -10.421875 C 48.148438 -10.085938 48.3125 -9.695312 48.3125 -9.25 C 48.3125 -8.800781 48.148438 -8.410156 47.828125 -8.078125 C 47.515625 -7.742188 47.140625 -7.578125 46.703125 -7.578125 L 30.703125 -7.578125 C 30.441406 -7.578125 30.3125 -7.445312 30.3125 -7.1875 Z M 30.3125 -1.28125 "/></g></g></g><g fill="rgb(30.198669%, 81.959534%, 44.309998%)" fill-opacity="1"><g transform="translate(204.531767, 675.317474)"><g><path d="M 29.859375 -17.328125 C 29.203125 -17.328125 28.875 -17 28.875 -16.34375 L 28.875 -14.1875 C 28.875 -13.539062 29.203125 -13.21875 29.859375 -13.21875 L 71.0625 -13.21875 C 71.71875 -13.21875 72.046875 -13.539062 72.046875 -14.1875 L 72.046875 -16.34375 C 72.046875 -17 71.71875 -17.328125 71.0625 -17.328125 Z M 55.40625 -50.609375 C 55.40625 -51.253906 55.078125 -51.578125 54.421875 -51.578125 L 43.171875 -51.578125 C 42.515625 -51.578125 42.054688 -51.285156 41.796875 -50.703125 C 40.816406 -48.804688 39.578125 -47.144531 38.078125 -45.71875 C 37.941406 -45.582031 37.90625 -45.429688 37.96875 -45.265625 C 38.039062 -45.109375 38.175781 -45.03125 38.375 -45.03125 L 54.421875 -45.03125 C 55.078125 -45.03125 55.40625 -45.351562 55.40625 -46 Z M 24.28125 -62.453125 C 23.625 -62.453125 23.164062 -62.125 22.90625 -61.46875 L 22.21875 -59.609375 C 22.15625 -59.347656 22.203125 -59.117188 22.359375 -58.921875 C 22.523438 -58.734375 22.707031 -58.640625 22.90625 -58.640625 L 32.015625 -58.640625 C 32.660156 -58.640625 33.050781 -58.960938 33.1875 -59.609375 C 33.3125 -60.203125 33.410156 -60.820312 33.484375 -61.46875 C 33.546875 -61.726562 33.476562 -61.957031 33.28125 -62.15625 C 33.082031 -62.351562 32.851562 -62.453125 32.59375 -62.453125 Z M 45.328125 -73.515625 C 44.671875 -73.515625 44.34375 -73.1875 44.34375 -72.53125 L 44.34375 -70.484375 C 44.34375 -69.828125 44.671875 -69.5 45.328125 -69.5 L 54.421875 -69.5 C 55.078125 -69.5 55.40625 -69.828125 55.40625 -70.484375 L 55.40625 -72.53125 C 55.40625 -73.1875 55.078125 -73.515625 54.421875 -73.515625 Z M 77.03125 -72.53125 C 77.03125 -73.1875 76.707031 -73.515625 76.0625 -73.515625 L 67.640625 -73.515625 C 66.984375 -73.515625 66.65625 -73.1875 66.65625 -72.53125 L 66.65625 -70.484375 C 66.65625 -69.828125 66.984375 -69.5 67.640625 -69.5 L 76.0625 -69.5 C 76.707031 -69.5 77.03125 -69.828125 77.03125 -70.484375 Z M 54.421875 -58.640625 C 55.078125 -58.640625 55.40625 -58.960938 55.40625 -59.609375 L 55.40625 -61.46875 C 55.40625 -62.125 55.078125 -62.453125 54.421875 -62.453125 L 45.328125 -62.453125 C 44.671875 -62.453125 44.3125 -62.125 44.25 -61.46875 C 44.175781 -60.550781 44.140625 -59.929688 44.140625 -59.609375 C 44.078125 -59.347656 44.144531 -59.117188 44.34375 -58.921875 C 44.539062 -58.734375 44.769531 -58.640625 45.03125 -58.640625 Z M 82.609375 -50.609375 C 82.679688 -50.867188 82.632812 -51.09375 82.46875 -51.28125 C 82.300781 -51.476562 82.085938 -51.578125 81.828125 -51.578125 L 67.640625 -51.578125 C 66.984375 -51.578125 66.65625 -51.253906 66.65625 -50.609375 L 66.65625 -46 C 66.65625 -45.351562 66.984375 -45.03125 67.640625 -45.03125 L 74.78125 -45.03125 C 75.039062 -45.03125 75.140625 -45.128906 75.078125 -45.328125 C 74.816406 -45.972656 74.878906 -46.554688 75.265625 -47.078125 C 75.660156 -47.597656 76.1875 -47.859375 76.84375 -47.859375 C 77.945312 -47.734375 78.859375 -47.671875 79.578125 -47.671875 C 80.554688 -47.671875 81.304688 -47.929688 81.828125 -48.453125 C 82.160156 -48.910156 82.421875 -49.628906 82.609375 -50.609375 Z M 71.0625 -34.15625 C 71.71875 -34.15625 72.046875 -34.484375 72.046875 -35.140625 L 72.046875 -37.203125 C 72.046875 -37.847656 71.71875 -38.171875 71.0625 -38.171875 L 29.859375 -38.171875 C 29.203125 -38.171875 28.875 -37.847656 28.875 -37.203125 L 28.875 -35.140625 C 28.875 -34.484375 29.203125 -34.15625 29.859375 -34.15625 Z M 71.0625 -23.78125 C 71.71875 -23.78125 72.046875 -24.109375 72.046875 -24.765625 L 72.046875 -26.828125 C 72.046875 -27.472656 71.71875 -27.796875 71.0625 -27.796875 L 29.859375 -27.796875 C 29.203125 -27.796875 28.875 -27.472656 28.875 -26.828125 L 28.875 -24.765625 C 28.875 -24.109375 29.203125 -23.78125 29.859375 -23.78125 Z M 84.1875 -14.96875 C 84.1875 -12.5625 83.351562 -10.539062 81.6875 -8.90625 C 80.019531 -7.269531 78.015625 -6.453125 75.671875 -6.453125 L 70.578125 -6.453125 C 70.441406 -6.453125 70.375 -6.40625 70.375 -6.3125 C 70.375 -6.21875 70.410156 -6.132812 70.484375 -6.0625 C 76.867188 -3.914062 82.90625 -1.734375 88.59375 0.484375 C 89.832031 0.941406 90.453125 1.890625 90.453125 3.328125 C 90.453125 4.628906 89.863281 5.539062 88.6875 6.0625 C 86.664062 7.039062 84.609375 7.53125 82.515625 7.53125 C 80.429688 7.53125 78.28125 7.039062 76.0625 6.0625 C 72.070312 4.300781 67.632812 2.507812 62.75 0.6875 C 61.25 0.164062 60.429688 -0.84375 60.296875 -2.34375 C 60.234375 -2.539062 60.203125 -2.738281 60.203125 -2.9375 C 60.203125 -4.175781 60.789062 -5.1875 61.96875 -5.96875 C 62.03125 -5.96875 62.023438 -6.046875 61.953125 -6.203125 C 61.890625 -6.367188 61.828125 -6.453125 61.765625 -6.453125 L 37.203125 -6.453125 C 37.066406 -6.453125 37 -6.382812 37 -6.25 C 37 -6.125 37.03125 -6.0625 37.09375 -6.0625 C 38.664062 -5.34375 39.453125 -4.140625 39.453125 -2.453125 C 39.453125 -0.953125 38.734375 0.125 37.296875 0.78125 C 31.742188 3.394531 25.410156 5.742188 18.296875 7.828125 C 17.453125 8.085938 16.609375 8.21875 15.765625 8.21875 C 14.847656 8.21875 13.929688 8.054688 13.015625 7.734375 C 11.253906 7.210938 9.722656 6.265625 8.421875 4.890625 C 7.828125 4.242188 7.53125 3.523438 7.53125 2.734375 C 7.53125 2.410156 7.566406 2.050781 7.640625 1.65625 C 8.023438 0.488281 8.835938 -0.222656 10.078125 -0.484375 C 17.847656 -2.054688 24.503906 -3.914062 30.046875 -6.0625 C 30.179688 -6.0625 30.234375 -6.125 30.203125 -6.25 C 30.171875 -6.382812 30.085938 -6.453125 29.953125 -6.453125 L 25.84375 -6.453125 C 23.488281 -6.453125 21.476562 -7.269531 19.8125 -8.90625 C 18.15625 -10.539062 17.328125 -12.5625 17.328125 -14.96875 L 17.328125 -35.34375 C 17.328125 -35.863281 17.097656 -36.054688 16.640625 -35.921875 C 16.179688 -35.859375 15.722656 -35.757812 15.265625 -35.625 C 14.804688 -35.5625 14.382812 -35.53125 14 -35.53125 C 12.957031 -35.53125 11.910156 -35.789062 10.859375 -36.3125 C 9.492188 -37.03125 8.382812 -38.078125 7.53125 -39.453125 C 7.144531 -40.035156 6.953125 -40.617188 6.953125 -41.203125 C 6.953125 -41.660156 7.082031 -42.148438 7.34375 -42.671875 C 7.800781 -43.722656 8.613281 -44.34375 9.78125 -44.53125 C 18.070312 -45.96875 24.109375 -48.125 27.890625 -51 C 28.023438 -51.125 28.054688 -51.25 27.984375 -51.375 C 27.921875 -51.507812 27.828125 -51.578125 27.703125 -51.578125 L 19.484375 -51.578125 C 19.410156 -51.578125 19.34375 -51.546875 19.28125 -51.484375 C 19.019531 -50.765625 18.5 -50.441406 17.71875 -50.515625 L 13.40625 -50.796875 C 12.101562 -50.867188 11.09375 -51.457031 10.375 -52.5625 C 9.976562 -53.28125 9.78125 -54 9.78125 -54.71875 C 9.78125 -55.175781 9.878906 -55.664062 10.078125 -56.1875 C 10.671875 -57.820312 11.289062 -59.550781 11.9375 -61.375 C 12.71875 -63.789062 14.132812 -65.75 16.1875 -67.25 C 18.25 -68.75 20.519531 -69.5 23 -69.5 L 32.59375 -69.5 C 33.25 -69.5 33.578125 -69.828125 33.578125 -70.484375 L 33.578125 -72.53125 C 33.578125 -73.1875 33.25 -73.515625 32.59375 -73.515625 L 14.296875 -73.515625 C 13.378906 -73.515625 12.578125 -73.851562 11.890625 -74.53125 C 11.203125 -75.21875 10.859375 -76.035156 10.859375 -76.984375 C 10.859375 -77.929688 11.203125 -78.75 11.890625 -79.4375 C 12.578125 -80.125 13.378906 -80.46875 14.296875 -80.46875 L 33.078125 -80.46875 C 33.410156 -80.46875 33.578125 -80.628906 33.578125 -80.953125 C 33.578125 -81.992188 33.953125 -82.890625 34.703125 -83.640625 C 35.453125 -84.390625 36.378906 -84.765625 37.484375 -84.765625 L 40.421875 -84.765625 C 41.472656 -84.765625 42.390625 -84.390625 43.171875 -83.640625 C 43.953125 -82.890625 44.34375 -81.992188 44.34375 -80.953125 C 44.34375 -80.628906 44.472656 -80.46875 44.734375 -80.46875 L 55.015625 -80.46875 C 55.273438 -80.46875 55.40625 -80.628906 55.40625 -80.953125 C 55.40625 -81.992188 55.78125 -82.890625 56.53125 -83.640625 C 57.28125 -84.390625 58.207031 -84.765625 59.3125 -84.765625 L 62.75 -84.765625 C 63.851562 -84.765625 64.78125 -84.390625 65.53125 -83.640625 C 66.28125 -82.890625 66.65625 -81.992188 66.65625 -80.953125 C 66.65625 -80.628906 66.785156 -80.46875 67.046875 -80.46875 L 79.28125 -80.46875 C 81.632812 -80.46875 83.640625 -79.632812 85.296875 -77.96875 C 86.960938 -76.300781 87.796875 -74.296875 87.796875 -71.953125 L 87.796875 -70.96875 C 87.796875 -68.613281 86.960938 -66.601562 85.296875 -64.9375 C 83.640625 -63.28125 81.632812 -62.453125 79.28125 -62.453125 L 67.640625 -62.453125 C 66.984375 -62.453125 66.65625 -62.125 66.65625 -61.46875 L 66.65625 -59.609375 C 66.65625 -58.960938 66.984375 -58.640625 67.640625 -58.640625 L 86.046875 -58.640625 C 88.390625 -58.640625 90.347656 -57.789062 91.921875 -56.09375 C 93.222656 -54.65625 93.875 -53.054688 93.875 -51.296875 C 93.875 -50.898438 93.84375 -50.507812 93.78125 -50.125 C 93.320312 -46.65625 92.503906 -44.300781 91.328125 -43.0625 C 89.953125 -41.695312 87.894531 -40.914062 85.15625 -40.71875 C 84.507812 -40.65625 84.1875 -40.296875 84.1875 -39.640625 Z M 84.1875 -14.96875 "/></g></g></g><g fill="rgb(30.198669%, 81.959534%, 44.309998%)" fill-opacity="1"><g transform="translate(304.764043, 675.317474)"><g><path d="M 57.171875 -35.046875 C 57.171875 -34.390625 57.492188 -34.0625 58.140625 -34.0625 L 77.328125 -34.0625 C 77.984375 -34.0625 78.3125 -34.390625 78.3125 -35.046875 L 78.3125 -45.421875 C 78.3125 -46.066406 77.984375 -46.390625 77.328125 -46.390625 L 58.140625 -46.390625 C 57.492188 -46.390625 57.171875 -46.066406 57.171875 -45.421875 Z M 26.03125 -35.046875 C 25.96875 -34.785156 26.035156 -34.554688 26.234375 -34.359375 C 26.429688 -34.160156 26.660156 -34.0625 26.921875 -34.0625 L 44.140625 -34.0625 C 44.796875 -34.0625 45.125 -34.390625 45.125 -35.046875 L 45.125 -45.421875 C 45.125 -46.066406 44.796875 -46.390625 44.140625 -46.390625 L 27.21875 -46.390625 C 26.5625 -46.390625 26.234375 -46.066406 26.234375 -45.421875 L 26.234375 -44.53125 C 26.234375 -41.53125 26.164062 -38.367188 26.03125 -35.046875 Z M 45.125 -68.125 C 45.125 -68.78125 44.796875 -69.109375 44.140625 -69.109375 L 27.21875 -69.109375 C 26.5625 -69.109375 26.234375 -68.78125 26.234375 -68.125 L 26.234375 -58.4375 C 26.234375 -57.78125 26.5625 -57.453125 27.21875 -57.453125 L 44.140625 -57.453125 C 44.796875 -57.453125 45.125 -57.78125 45.125 -58.4375 Z M 77.328125 -57.453125 C 77.984375 -57.453125 78.3125 -57.78125 78.3125 -58.4375 L 78.3125 -68.125 C 78.3125 -68.78125 77.984375 -69.109375 77.328125 -69.109375 L 58.140625 -69.109375 C 57.492188 -69.109375 57.171875 -68.78125 57.171875 -68.125 L 57.171875 -58.4375 C 57.171875 -57.78125 57.492188 -57.453125 58.140625 -57.453125 Z M 81.640625 -80.46875 C 83.984375 -80.46875 85.988281 -79.632812 87.65625 -77.96875 C 89.320312 -76.300781 90.15625 -74.296875 90.15625 -71.953125 L 90.15625 -7.640625 C 90.15625 -4.367188 89.742188 -1.867188 88.921875 -0.140625 C 88.109375 1.585938 86.691406 2.875 84.671875 3.71875 C 82.128906 4.894531 77.753906 5.613281 71.546875 5.875 C 71.484375 5.875 71.421875 5.875 71.359375 5.875 C 69.722656 5.875 68.253906 5.316406 66.953125 4.203125 C 65.578125 3.160156 64.597656 1.757812 64.015625 0 C 63.816406 -0.457031 63.71875 -0.945312 63.71875 -1.46875 C 63.71875 -2.25 63.945312 -3 64.40625 -3.71875 C 65.1875 -4.832031 66.265625 -5.390625 67.640625 -5.390625 C 67.703125 -5.390625 67.734375 -5.390625 67.734375 -5.390625 C 69.953125 -5.390625 72.597656 -5.390625 75.671875 -5.390625 C 77.429688 -5.390625 78.3125 -6.171875 78.3125 -7.734375 L 78.3125 -21.828125 C 78.3125 -22.484375 77.984375 -22.8125 77.328125 -22.8125 L 58.140625 -22.8125 C 57.492188 -22.8125 57.171875 -22.484375 57.171875 -21.828125 L 57.171875 -0.78125 C 57.171875 0.84375 56.582031 2.242188 55.40625 3.421875 C 54.226562 4.597656 52.804688 5.1875 51.140625 5.1875 C 49.484375 5.1875 48.066406 4.597656 46.890625 3.421875 C 45.710938 2.242188 45.125 0.84375 45.125 -0.78125 L 45.125 -21.828125 C 45.125 -22.484375 44.796875 -22.8125 44.140625 -22.8125 L 25.640625 -22.8125 C 24.992188 -22.8125 24.601562 -22.484375 24.46875 -21.828125 C 22.84375 -12.035156 19.941406 -4.039062 15.765625 2.15625 C 14.910156 3.457031 13.632812 4.140625 11.9375 4.203125 C 11.875 4.273438 11.773438 4.3125 11.640625 4.3125 C 10.140625 4.3125 8.804688 3.785156 7.640625 2.734375 C 6.398438 1.691406 5.648438 0.390625 5.390625 -1.171875 C 5.390625 -1.566406 5.390625 -1.925781 5.390625 -2.25 C 5.390625 -3.425781 5.710938 -4.535156 6.359375 -5.578125 C 7.335938 -7.140625 8.21875 -8.804688 9 -10.578125 C 10.695312 -14.160156 11.90625 -18.039062 12.625 -22.21875 C 13.34375 -26.394531 13.816406 -30.097656 14.046875 -33.328125 C 14.273438 -36.554688 14.390625 -40.328125 14.390625 -44.640625 L 14.390625 -71.953125 C 14.390625 -74.296875 15.21875 -76.300781 16.875 -77.96875 C 18.539062 -79.632812 20.550781 -80.46875 22.90625 -80.46875 Z M 81.640625 -80.46875 "/></g></g></g><g fill="rgb(30.198669%, 81.959534%, 44.309998%)" fill-opacity="1"><g transform="translate(404.99632, 675.317474)"><g><path d="M 25.25 -49.328125 C 25.125 -49.203125 25.078125 -49.070312 25.109375 -48.9375 C 25.140625 -48.8125 25.253906 -48.75 25.453125 -48.75 L 74.875 -48.75 C 75.070312 -48.75 75.1875 -48.8125 75.21875 -48.9375 C 75.257812 -49.070312 75.210938 -49.203125 75.078125 -49.328125 C 64.503906 -57.035156 56.25 -64.867188 50.3125 -72.828125 C 50.1875 -72.953125 49.988281 -73.03125 49.71875 -73.0625 C 49.457031 -73.101562 49.265625 -73.023438 49.140625 -72.828125 C 43.265625 -64.734375 35.300781 -56.898438 25.25 -49.328125 Z M 56.875 -16.4375 C 56.21875 -16.4375 55.890625 -16.113281 55.890625 -15.46875 L 55.890625 -5.28125 C 55.890625 -4.632812 56.21875 -4.3125 56.875 -4.3125 L 87.515625 -4.3125 C 88.941406 -4.3125 90.175781 -3.785156 91.21875 -2.734375 C 92.269531 -1.691406 92.796875 -0.4375 92.796875 1.03125 C 92.796875 2.5 92.269531 3.753906 91.21875 4.796875 C 90.175781 5.835938 88.941406 6.359375 87.515625 6.359375 L 13.109375 6.359375 C 11.679688 6.359375 10.441406 5.835938 9.390625 4.796875 C 8.347656 3.753906 7.828125 2.5 7.828125 1.03125 C 7.828125 -0.4375 8.347656 -1.691406 9.390625 -2.734375 C 10.441406 -3.785156 11.679688 -4.3125 13.109375 -4.3125 L 42.484375 -4.3125 C 43.140625 -4.3125 43.46875 -4.632812 43.46875 -5.28125 L 43.46875 -15.46875 C 43.46875 -16.113281 43.140625 -16.4375 42.484375 -16.4375 L 21.046875 -16.4375 C 19.609375 -16.4375 18.398438 -16.941406 17.421875 -17.953125 C 16.441406 -18.972656 15.953125 -20.179688 15.953125 -21.578125 C 15.953125 -22.984375 16.441406 -24.175781 17.421875 -25.15625 C 18.398438 -26.132812 19.609375 -26.625 21.046875 -26.625 L 42.484375 -26.625 C 43.140625 -26.625 43.46875 -26.953125 43.46875 -27.609375 L 43.46875 -37.296875 C 43.46875 -37.941406 43.140625 -38.265625 42.484375 -38.265625 L 28.09375 -38.265625 C 26.132812 -38.265625 24.453125 -38.96875 23.046875 -40.375 C 21.648438 -41.78125 20.953125 -43.460938 20.953125 -45.421875 C 20.953125 -45.546875 20.867188 -45.65625 20.703125 -45.75 C 20.535156 -45.851562 20.390625 -45.84375 20.265625 -45.71875 C 18.566406 -44.601562 16.867188 -43.523438 15.171875 -42.484375 C 14.191406 -41.890625 13.148438 -41.59375 12.046875 -41.59375 C 11.585938 -41.59375 11.097656 -41.660156 10.578125 -41.796875 C 8.941406 -42.191406 7.601562 -43.070312 6.5625 -44.4375 C 5.78125 -45.414062 5.390625 -46.492188 5.390625 -47.671875 C 5.390625 -47.929688 5.421875 -48.222656 5.484375 -48.546875 C 5.679688 -50.046875 6.429688 -51.191406 7.734375 -51.984375 C 13.992188 -55.703125 19.929688 -60.085938 25.546875 -65.140625 C 31.160156 -70.203125 35.859375 -75.273438 39.640625 -80.359375 C 42.191406 -83.691406 45.359375 -85.359375 49.140625 -85.359375 C 53.054688 -85.359375 56.316406 -83.757812 58.921875 -80.5625 C 63.429688 -74.882812 68.570312 -69.660156 74.34375 -64.890625 C 80.113281 -60.128906 86.035156 -56.179688 92.109375 -53.046875 C 93.546875 -52.265625 94.457031 -51.09375 94.84375 -49.53125 C 94.914062 -49.070312 94.953125 -48.644531 94.953125 -48.25 C 94.953125 -47.144531 94.59375 -46.101562 93.875 -45.125 C 92.832031 -43.625 91.425781 -42.644531 89.65625 -42.1875 C 89.070312 -41.988281 88.488281 -41.890625 87.90625 -41.890625 C 86.789062 -41.890625 85.679688 -42.21875 84.578125 -42.875 C 82.941406 -43.851562 81.34375 -44.863281 79.78125 -45.90625 C 79.644531 -46.039062 79.492188 -46.054688 79.328125 -45.953125 C 79.171875 -45.859375 79.09375 -45.742188 79.09375 -45.609375 C 79.09375 -43.585938 78.375 -41.859375 76.9375 -40.421875 C 75.5 -38.984375 73.800781 -38.265625 71.84375 -38.265625 L 56.875 -38.265625 C 56.21875 -38.265625 55.890625 -37.941406 55.890625 -37.296875 L 55.890625 -27.609375 C 55.890625 -26.953125 56.21875 -26.625 56.875 -26.625 L 78.890625 -26.625 C 80.328125 -26.625 81.535156 -26.132812 82.515625 -25.15625 C 83.492188 -24.175781 83.984375 -22.984375 83.984375 -21.578125 C 83.984375 -20.179688 83.492188 -18.972656 82.515625 -17.953125 C 81.535156 -16.941406 80.328125 -16.4375 78.890625 -16.4375 Z M 56.875 -16.4375 "/></g></g></g><g fill="rgb(30.198669%, 81.959534%, 44.309998%)" fill-opacity="1"><g transform="translate(505.228597, 675.317474)"><g><path d="M 26.53125 -50.015625 C 25.875 -50.015625 25.546875 -49.691406 25.546875 -49.046875 L 25.546875 -37.78125 C 25.546875 -37.132812 25.875 -36.8125 26.53125 -36.8125 L 43.171875 -36.8125 C 43.816406 -36.8125 44.140625 -37.132812 44.140625 -37.78125 L 44.140625 -49.046875 C 44.140625 -49.691406 43.816406 -50.015625 43.171875 -50.015625 Z M 53.15625 -67.640625 C 53.28125 -67.835938 53.289062 -68.015625 53.1875 -68.171875 C 53.09375 -68.335938 52.953125 -68.421875 52.765625 -68.421875 L 34.453125 -68.421875 C 33.804688 -68.421875 33.253906 -68.191406 32.796875 -67.734375 C 30.640625 -65.253906 28.582031 -63.066406 26.625 -61.171875 C 26.488281 -61.046875 26.453125 -60.898438 26.515625 -60.734375 C 26.585938 -60.578125 26.691406 -60.5 26.828125 -60.5 L 47.1875 -60.5 C 47.832031 -60.5 48.351562 -60.757812 48.75 -61.28125 C 50.3125 -63.300781 51.78125 -65.421875 53.15625 -67.640625 Z M 74.6875 -36.8125 C 75.34375 -36.8125 75.671875 -37.132812 75.671875 -37.78125 L 75.671875 -49.046875 C 75.671875 -49.691406 75.34375 -50.015625 74.6875 -50.015625 L 56.484375 -50.015625 C 55.828125 -50.015625 55.5 -49.691406 55.5 -49.046875 L 55.5 -37.78125 C 55.5 -37.132812 55.828125 -36.8125 56.484375 -36.8125 Z M 71.65625 -2.453125 L 81.140625 -2.453125 C 82.515625 -2.453125 83.460938 -2.875 83.984375 -3.71875 C 84.503906 -4.5625 84.863281 -6.421875 85.0625 -9.296875 C 85.195312 -10.671875 85.847656 -11.679688 87.015625 -12.328125 C 87.671875 -12.660156 88.359375 -12.828125 89.078125 -12.828125 C 89.597656 -12.828125 90.148438 -12.726562 90.734375 -12.53125 C 92.367188 -11.8125 93.675781 -10.734375 94.65625 -9.296875 C 95.4375 -8.117188 95.828125 -6.910156 95.828125 -5.671875 C 95.828125 -5.347656 95.796875 -4.988281 95.734375 -4.59375 C 94.953125 0.488281 93.566406 3.976562 91.578125 5.875 C 89.585938 7.769531 86.503906 8.71875 82.328125 8.71875 L 69.890625 8.71875 C 64.078125 8.71875 60.160156 7.6875 58.140625 5.625 C 56.117188 3.570312 55.109375 -0.257812 55.109375 -5.875 L 55.109375 -25.25 C 55.109375 -25.90625 54.78125 -26.234375 54.125 -26.234375 L 44.921875 -26.234375 C 44.273438 -26.234375 43.882812 -25.90625 43.75 -25.25 C 43.164062 -21.144531 42.347656 -17.609375 41.296875 -14.640625 C 40.253906 -11.671875 38.707031 -8.71875 36.65625 -5.78125 C 34.601562 -2.84375 31.8125 -0.28125 28.28125 1.90625 C 24.757812 4.09375 20.421875 6.003906 15.265625 7.640625 C 14.617188 7.828125 13.9375 7.921875 13.21875 7.921875 C 12.238281 7.921875 11.257812 7.695312 10.28125 7.25 C 8.582031 6.457031 7.242188 5.25 6.265625 3.625 C 5.804688 2.90625 5.578125 2.085938 5.578125 1.171875 C 5.578125 0.648438 5.644531 0.160156 5.78125 -0.296875 C 6.039062 -0.878906 6.414062 -1.414062 6.90625 -1.90625 C 7.394531 -2.394531 7.960938 -2.738281 8.609375 -2.9375 C 12.722656 -4.039062 16.179688 -5.34375 18.984375 -6.84375 C 21.796875 -8.351562 24 -10.101562 25.59375 -12.09375 C 27.195312 -14.082031 28.375 -16.070312 29.125 -18.0625 C 29.875 -20.050781 30.476562 -22.445312 30.9375 -25.25 C 31 -25.507812 30.929688 -25.738281 30.734375 -25.9375 C 30.535156 -26.132812 30.304688 -26.234375 30.046875 -26.234375 L 22.21875 -26.234375 C 19.875 -26.234375 17.867188 -27.0625 16.203125 -28.71875 C 14.535156 -30.382812 13.703125 -32.394531 13.703125 -34.75 L 13.703125 -50.515625 C 13.703125 -50.773438 13.601562 -50.835938 13.40625 -50.703125 C 12.6875 -50.179688 11.882812 -50.019531 11 -50.21875 C 10.125 -50.414062 9.425781 -50.867188 8.90625 -51.578125 C 8.320312 -52.367188 7.703125 -53.125 7.046875 -53.84375 C 6.203125 -54.820312 5.78125 -55.929688 5.78125 -57.171875 C 5.78125 -57.359375 5.78125 -57.550781 5.78125 -57.75 C 5.90625 -59.25 6.585938 -60.390625 7.828125 -61.171875 C 15.597656 -66.265625 22.023438 -72.398438 27.109375 -79.578125 C 28.285156 -81.210938 29.785156 -82.453125 31.609375 -83.296875 C 32.859375 -83.816406 34.132812 -84.078125 35.4375 -84.078125 C 36.019531 -84.078125 36.609375 -84.046875 37.203125 -83.984375 L 38.953125 -83.59375 C 40.128906 -83.394531 40.945312 -82.742188 41.40625 -81.640625 C 41.601562 -81.242188 41.703125 -80.816406 41.703125 -80.359375 C 41.703125 -79.773438 41.503906 -79.191406 41.109375 -78.609375 C 41.046875 -78.535156 41.046875 -78.445312 41.109375 -78.34375 C 41.171875 -78.25 41.238281 -78.203125 41.3125 -78.203125 L 60.390625 -78.203125 C 60.585938 -78.203125 60.753906 -78.203125 60.890625 -78.203125 C 61.210938 -78.335938 61.535156 -78.40625 61.859375 -78.40625 C 62.640625 -78.40625 63.359375 -78.175781 64.015625 -77.71875 L 66.65625 -76.0625 C 67.832031 -75.269531 68.582031 -74.222656 68.90625 -72.921875 C 69.039062 -72.460938 69.109375 -72.039062 69.109375 -71.65625 C 69.109375 -70.800781 68.847656 -69.953125 68.328125 -69.109375 C 66.753906 -66.691406 64.925781 -64.113281 62.84375 -61.375 C 62.707031 -61.175781 62.6875 -60.976562 62.78125 -60.78125 C 62.882812 -60.59375 63.035156 -60.5 63.234375 -60.5 L 79.875 -60.5 C 82.21875 -60.5 84.222656 -59.679688 85.890625 -58.046875 C 87.554688 -56.410156 88.390625 -54.390625 88.390625 -51.984375 L 88.390625 -34.75 C 88.390625 -32.394531 87.554688 -30.382812 85.890625 -28.71875 C 84.222656 -27.0625 82.21875 -26.234375 79.875 -26.234375 L 68.421875 -26.234375 C 67.765625 -26.234375 67.4375 -25.90625 67.4375 -25.25 L 67.4375 -5.96875 C 67.4375 -4.40625 67.679688 -3.425781 68.171875 -3.03125 C 68.660156 -2.644531 69.820312 -2.453125 71.65625 -2.453125 Z M 71.65625 -2.453125 "/></g></g></g></svg>