<svg xmlns="http://www.w3.org/2000/svg" width="1080" viewBox="0 0 810 810" height="1080" version="1"><defs><clipPath id="a"><path d="M149.887 64h510v449h-510zm0 0"/></clipPath></defs><path fill="#FFF" d="M-81 -81H891V891H-81z"/><path fill="#FFF" d="M-81 -81H891V891H-81z"/><path fill="#FFF" d="M-81 -81H891V891H-81z"/><g clip-path="url(#a)"><path fill="#4DD171" d="M521.762 64.64a135.611 135.611 0 0 0-26.551 3.04 135.064 135.064 0 0 0-17.148 4.895c-2.805 1-5.57 2.093-8.297 3.277a135.45 135.45 0 0 0-15.86 8.152 137.507 137.507 0 0 0-14.66 10.156 135.262 135.262 0 0 0-13.2 11.988 135.904 135.904 0 0 0-11.52 13.613c-1.768 2.395-3.46 4.84-5.065 7.344a135.217 135.217 0 0 0-4.574 7.66 135.218 135.218 0 0 0-4.575-7.66 136.848 136.848 0 0 0-10.601-14.34 139.126 139.126 0 0 0-5.984-6.617 136.724 136.724 0 0 0-13.203-11.988 136.105 136.105 0 0 0-22.453-14.492 135.601 135.601 0 0 0-16.36-7.094 134.36 134.36 0 0 0-8.496-2.73c-2.86-.817-5.742-1.54-8.652-2.164a134.18 134.18 0 0 0-8.778-1.594 135.21 135.21 0 0 0-17.773-1.445c-2.356.101-4.707.261-7.051.476-2.348.219-4.688.492-7.02.824a144.8 144.8 0 0 0-6.968 1.168c-2.317.446-4.618.946-6.907 1.504-2.289.559-4.562 1.172-6.82 1.84a143.489 143.489 0 0 0-13.336 4.672 144.226 144.226 0 0 0-12.816 5.95 141.92 141.92 0 0 0-6.172 3.437 143.623 143.623 0 0 0-11.809 7.761 142.02 142.02 0 0 0-10.992 8.875 140.142 140.142 0 0 0-5.16 4.829 146.961 146.961 0 0 0-4.914 5.078 143.478 143.478 0 0 0-9.059 10.843 142.15 142.15 0 0 0-4.12 5.743 143.546 143.546 0 0 0-7.376 12.05 144.36 144.36 0 0 0-8.773 19.282 148.041 148.041 0 0 0-2.281 6.687 141.593 141.593 0 0 0-1.954 6.79 144 144 0 0 0-3.843 20.831 141.84 141.84 0 0 0-.598 7.043c-.14 2.352-.227 4.707-.25 7.063-.027 2.355.004 4.71.094 7.066 0 96.621 101.703 202.149 187 273.7a106.292 106.292 0 0 0 7.316 5.624 107.113 107.113 0 0 0 7.785 4.965 106.93 106.93 0 0 0 8.184 4.266 105.44 105.44 0 0 0 26.34 8.313c3.035.534 6.086.937 9.152 1.206 3.066.27 6.14.403 9.223.403a105.254 105.254 0 0 0 18.37-1.61 105.623 105.623 0 0 0 17.817-4.777 106.658 106.658 0 0 0 8.524-3.535 107.01 107.01 0 0 0 8.187-4.266 107.89 107.89 0 0 0 7.781-4.965c2.524-1.77 4.961-3.644 7.32-5.625 85.298-71.55 187-177.078 187-273.699.087-2.355.118-4.71.094-7.066-.027-2.356-.113-4.711-.253-7.063-.141-2.351-.34-4.699-.598-7.043-.254-2.34-.567-4.676-.938-7.004a143.998 143.998 0 0 0-2.902-13.828 143.38 143.38 0 0 0-6.848-20.043 144.29 144.29 0 0 0-13.539-24.765 142.06 142.06 0 0 0-8.515-11.274 143.374 143.374 0 0 0-9.578-10.39 143.249 143.249 0 0 0-5.157-4.829 139.968 139.968 0 0 0-5.39-4.574 145.113 145.113 0 0 0-17.41-12.063 144.397 144.397 0 0 0-6.176-3.437 142.151 142.151 0 0 0-12.813-5.949 144.835 144.835 0 0 0-20.16-6.512 144.959 144.959 0 0 0-20.89-3.496c-2.348-.215-4.7-.375-7.051-.476zm-76.184 391a64.134 64.134 0 0 1-4.375 3.372 63.856 63.856 0 0 1-9.555 5.531 63.8 63.8 0 0 1-5.101 2.121 63.591 63.591 0 0 1-10.664 2.863 63.077 63.077 0 0 1-16.516.723 62.966 62.966 0 0 1-10.87-1.922 63.425 63.425 0 0 1-5.27-1.664 63.206 63.206 0 0 1-10-4.68 62.216 62.216 0 0 1-4.657-2.972 64.206 64.206 0 0 1-4.379-3.371c-109.183-91.61-171.804-179.5-171.804-241.188a100.96 100.96 0 0 1-.051-9.965c.07-1.66.184-3.316.34-4.972a103.915 103.915 0 0 1 1.402-9.863 102.95 102.95 0 0 1 1.063-4.872 102.904 102.904 0 0 1 4.593-14.215 102.847 102.847 0 0 1 4.196-9.039 103.016 103.016 0 0 1 5.058-8.586c.914-1.386 1.86-2.754 2.84-4.097a101.86 101.86 0 0 1 3.031-3.953 103.162 103.162 0 0 1 6.629-7.438 99.938 99.938 0 0 1 3.582-3.469 99.645 99.645 0 0 1 3.743-3.289 99.111 99.111 0 0 1 3.902-3.101 99.13 99.13 0 0 1 4.047-2.91 106.212 106.212 0 0 1 4.183-2.707c1.418-.868 2.856-1.7 4.313-2.497a98.83 98.83 0 0 1 4.43-2.289 103.274 103.274 0 0 1 4.535-2.066 98.308 98.308 0 0 1 4.629-1.84 101.627 101.627 0 0 1 4.714-1.617c1.586-.496 3.184-.957 4.79-1.379 1.609-.422 3.222-.805 4.851-1.148a99.076 99.076 0 0 1 4.898-.907c1.641-.265 3.29-.488 4.942-.668a100.06 100.06 0 0 1 4.965-.425c1.656.101 3.312.242 4.965.425 1.652.18 3.296.403 4.937.668a100.08 100.08 0 0 1 9.75 2.055c1.61.422 3.203.883 4.79 1.379 1.585.5 3.155 1.039 4.714 1.617a100.167 100.167 0 0 1 13.594 6.195 98.149 98.149 0 0 1 4.312 2.497 102.04 102.04 0 0 1 26.086 22.914 106.002 106.002 0 0 1 3.035 3.953 104.72 104.72 0 0 1 2.836 4.097 103.017 103.017 0 0 1 5.059 8.586c.773 1.473 1.508 2.961 2.207 4.47a98.467 98.467 0 0 1 1.988 4.57c.625 1.538 1.215 3.093 1.762 4.66.55 1.57 1.062 3.148 1.535 4.742a102.86 102.86 0 0 1 3.184 14.597c.234 1.645.425 3.293.582 4.95a100.864 100.864 0 0 1 .434 9.953 100.957 100.957 0 0 1-.145 4.984c0 .695.031 1.39.101 2.082a21.28 21.28 0 0 0 9.34 15.586 21.856 21.856 0 0 0 3.676 1.965c.644.266 1.297.5 1.965.703a21.598 21.598 0 0 0 4.086.813c.691.066 1.386.101 2.082.101.695 0 1.39-.035 2.082-.101a21.704 21.704 0 0 0 4.086-.813 22.2 22.2 0 0 0 1.965-.703c.64-.27 1.27-.566 1.882-.895a21.215 21.215 0 0 0 3.465-2.312c.54-.441 1.051-.91 1.543-1.402a20.982 20.982 0 0 0 3.715-5.008c.328-.614.625-1.242.895-1.883.265-.645.5-1.3.699-1.965a21.28 21.28 0 0 0 .918-6.168 100.96 100.96 0 0 1-.051-9.965c.07-1.66.184-3.316.34-4.972a103.915 103.915 0 0 1 1.402-9.863 102.95 102.95 0 0 1 1.063-4.872 102.904 102.904 0 0 1 4.593-14.215 102.847 102.847 0 0 1 4.196-9.039 103.016 103.016 0 0 1 5.058-8.586c.914-1.386 1.86-2.754 2.84-4.097a101.86 101.86 0 0 1 3.031-3.953 103.162 103.162 0 0 1 6.629-7.438 99.938 99.938 0 0 1 3.582-3.469 99.645 99.645 0 0 1 3.743-3.289 99.111 99.111 0 0 1 3.902-3.101 99.13 99.13 0 0 1 4.047-2.91 106.212 106.212 0 0 1 4.183-2.707c1.418-.868 2.856-1.7 4.313-2.497a98.83 98.83 0 0 1 4.43-2.289 103.274 103.274 0 0 1 4.535-2.066 98.308 98.308 0 0 1 4.629-1.84 101.627 101.627 0 0 1 4.714-1.617c1.586-.496 3.184-.957 4.79-1.379 1.609-.422 3.222-.805 4.851-1.148a99.076 99.076 0 0 1 4.898-.907c1.641-.265 3.29-.488 4.942-.668a100.06 100.06 0 0 1 4.965-.425c1.656.101 3.312.242 4.965.425 1.652.18 3.296.403 4.937.668a100.08 100.08 0 0 1 9.75 2.055c1.61.422 3.203.883 4.79 1.379 1.585.5 3.155 1.039 4.714 1.617a100.167 100.167 0 0 1 13.594 6.195 98.149 98.149 0 0 1 4.312 2.497 102.04 102.04 0 0 1 26.086 22.914 106.002 106.002 0 0 1 3.035 3.953 104.72 104.72 0 0 1 5.473 8.328 107.5 107.5 0 0 1 2.422 4.355c.773 1.473 1.508 2.961 2.207 4.47a98.467 98.467 0 0 1 1.988 4.57c.625 1.538 1.215 3.093 1.762 4.66.55 1.57 1.062 3.148 1.535 4.742a102.86 102.86 0 0 1 3.184 14.597c.234 1.645.425 3.293.582 4.95a100.864 100.864 0 0 1 .434 9.953 100.957 100.957 0 0 1-.145 4.984c0 61.688-62.625 149.578-171.809 241.102zm0 0"/></g><path d="M286.311 726.247c.406 0 .754.152 1.047.453.3.293.453.64.453 1.047 0 .406-.152.761-.453 1.062-.293.305-.64.453-1.047.453h-29.547c-.406 0-.762-.148-1.062-.453a1.473 1.473 0 0 1-.438-1.062c0-.407.145-.754.438-1.047.3-.301.656-.453 1.062-.453h12.094c.3 0 .453-.149.453-.453v-1.61c0-.52.18-.96.547-1.328a1.83 1.83 0 0 1 1.344-.562c.52 0 .972.187 1.359.562.395.367.594.809.594 1.328v1.61c0 .304.129.453.39.453zm-34.953-1.953c.445 0 .816.152 1.11.453.3.293.452.652.452 1.078 0 .43-.152.793-.453 1.094-.293.292-.664.437-1.11.437H240.5c-.45 0-.825-.145-1.125-.437a1.506 1.506 0 0 1-.438-1.094c0-.426.145-.785.438-1.078.3-.301.675-.453 1.125-.453zm1.625 7.468c.445 0 .816.153 1.11.453.3.293.452.653.452 1.079 0 .43-.152.792-.453 1.093-.293.293-.664.438-1.11.438h-15.155c-.45 0-.825-.145-1.125-.438a1.506 1.506 0 0 1-.438-1.093c0-.426.145-.786.438-1.079.3-.3.675-.453 1.125-.453zm-3.172 26.297c0-.258-.152-.39-.453-.39h-7.297c-.305 0-.453.132-.453.39v9.313c0 .261.148.39.453.39h7.297c.3 0 .453-.129.453-.39zm-.125-3.5c.938 0 1.719.32 2.344.953.633.625.953 1.403.953 2.328v9.75c0 .93-.32 1.711-.953 2.344-.625.633-1.406.953-2.344.953h-7.734c-.23 0-.344.11-.344.328v.891c0 .406-.152.766-.453 1.078-.293.32-.653.485-1.078.485-.43 0-.793-.165-1.094-.485a1.528 1.528 0 0 1-.438-1.078V757.84c0-.925.32-1.703.97-2.328.655-.633 1.429-.953 2.327-.953zm-9.578-4.515c-.45 0-.824-.157-1.125-.47a1.578 1.578 0 0 1-.438-1.093c0-.406.145-.766.438-1.078.3-.32.676-.484 1.125-.484h11.375c.437 0 .8.164 1.094.484.3.312.453.672.453 1.078s-.153.773-.453 1.094a1.436 1.436 0 0 1-1.094.469zm0-7.641c-.45 0-.824-.145-1.125-.438a1.506 1.506 0 0 1-.438-1.093c0-.426.145-.786.438-1.078.3-.301.676-.454 1.125-.454h11.375c.437 0 .8.153 1.094.454.3.292.453.652.453 1.078 0 .43-.153.793-.453 1.093-.293.293-.657.438-1.094.438zm27.078 10.484c-.262 0-.39.133-.39.39v2.61c0 .262.128.39.39.39h8.203c.29 0 .438-.128.438-.39v-2.61c0-.257-.149-.39-.438-.39zm0-5.86c-.262 0-.39.153-.39.454v2.344c0 .293.128.437.39.437h8.203c.29 0 .438-.144.438-.437v-2.344c0-.3-.149-.453-.438-.453zm-6.297-12.874c-.293 0-.437.133-.437.39v3.844c0 .305.144.453.437.453h5.578c.29 0 .438-.148.438-.453v-3.843c0-.258-.149-.391-.438-.391zm15.656 0c-.261 0-.39.133-.39.39v3.844c0 .305.129.453.39.453h5.797c.301 0 .453-.148.453-.453v-3.843c0-.258-.152-.391-.453-.391zm7.313 26.922c.363-.258.71-.39 1.047-.39.414 0 .804.187 1.172.562.3.261.43.578.39.953-.031.367-.199.656-.5.875-1.48.93-3.414 1.969-5.797 3.125-.261.148-.277.312-.046.5 2 1.855 4.359 3.285 7.078 4.297.363.101.601.359.718.765.114.414.04.77-.218 1.063-.336.445-.746.75-1.235.906a2.2 2.2 0 0 1-.672.11c-.261 0-.515-.04-.765-.11-3.125-1.344-5.836-3.227-8.125-5.64-2.281-2.415-4.055-5.274-5.313-8.579-.074-.258-.242-.39-.5-.39-.261 0-.5.093-.718.28-1.23 1.044-2.641 2.028-4.235 2.954-.262.148-.39.352-.39.61v5.906c0 .304.144.433.437.39 4.938-.812 7.594-1.254 7.969-1.328.375-.082.719 0 1.031.25.313.242.488.563.531.969 0 .406-.12.766-.36 1.078-.241.32-.57.52-.983.594-7.618 1.375-12.555 2.25-14.813 2.625-.45.07-.871-.016-1.266-.266a1.844 1.844 0 0 1-.796-1.015c-.118-.375-.063-.743.156-1.094.226-.356.547-.57.953-.64a62.594 62.594 0 0 0 3.453-.563c.258-.032.39-.196.39-.5v-4.735c0-.113-.038-.187-.109-.218-.074-.04-.168-.04-.281 0a60.395 60.395 0 0 1-4.844 1.953c-.261.074-.523.109-.781.109-.637 0-1.195-.316-1.672-.953-.219-.29-.277-.625-.172-1 .114-.375.336-.598.672-.672 4.414-1.332 7.945-2.836 10.594-4.516.07 0 .098-.035.078-.109-.023-.07-.07-.11-.14-.11h-9.86c-.375 0-.703-.132-.984-.406a1.38 1.38 0 0 1-.407-1c0-.394.133-.734.407-1.015a1.35 1.35 0 0 1 .984-.422h7.016c.257 0 .39-.129.39-.39v-2.61c0-.258-.133-.39-.39-.39h-4.282c-.336 0-.632-.13-.89-.391a1.25 1.25 0 0 1-.39-.922c0-.352.128-.66.39-.922.258-.258.554-.39.89-.39h4.282c.257 0 .39-.145.39-.438v-2.344c0-.3-.133-.453-.39-.453h-5.344a1.34 1.34 0 0 1-.953-.36 1.169 1.169 0 0 1-.39-.906c0-.375.128-.691.39-.953.258-.258.578-.39.953-.39h5.344c.257 0 .39-.13.39-.391v-2.406c0-.258-.133-.391-.39-.391h-2.172c-.887 0-1.656-.32-2.313-.969-.648-.656-.968-1.426-.968-2.312v-2.906c0-.883.32-1.649.968-2.297.657-.657 1.426-.985 2.313-.985h5.906c.926 0 1.707.328 2.344.985.633.648.953 1.414.953 2.297v3.343c0 .782-.281 1.453-.844 2.016a2.72 2.72 0 0 1-2 .828c-.23 0-.344.117-.344.344v2.453c0 .262.13.39.391.39h8.203c.29 0 .438-.128.438-.39v-2.516c0-.187-.11-.281-.328-.281-.637 0-1.18-.227-1.625-.687-.45-.47-.672-1.016-.672-1.641v-3.86c0-.882.316-1.648.953-2.296.633-.657 1.414-.985 2.344-.985h6.078c.882 0 1.648.328 2.297.985.656.648.984 1.414.984 2.297v2.906c0 .886-.328 1.656-.984 2.312-.649.649-1.415.969-2.297.969h-2.844c-.305 0-.453.133-.453.39v2.407c0 .262.148.39.453.39h6.016c.375 0 .68.133.921.391.239.262.36.578.36.953 0 .367-.121.668-.36.907-.242.242-.546.359-.921.359h-6.016c-.305 0-.453.152-.453.453v2.344c0 .293.148.437.453.437h4.844c.375 0 .691.133.953.39.258.263.39.571.39.923 0 .355-.132.664-.39.922-.262.261-.578.39-.953.39h-4.844c-.305 0-.453.133-.453.39v2.61c0 .262.148.39.453.39h6.969c.406 0 .742.142 1.015.423.282.281.422.62.422 1.015 0 .387-.14.72-.422 1-.273.274-.61.407-1.015.407h-11.594a.298.298 0 0 0-.266.14c-.054.094-.058.18-.015.25.738 1.594 1.703 3.137 2.89 4.625.188.219.395.258.625.11 2-1.07 3.836-2.13 5.516-3.172zm0 0" fill="#4DD171"/><path d="M305.636 724.184c.22-.476.551-.832 1-1.062.301-.145.598-.22.89-.22.188 0 .395.04.626.11.476.149.828.446 1.047.89.226.45.226.915 0 1.392-1.524 3.648-3.196 7.027-5.016 10.14a2.08 2.08 0 0 0-.156.781v36.11c0 .52-.188.957-.563 1.312a1.863 1.863 0 0 1-1.312.532c-.5 0-.93-.18-1.281-.532a1.782 1.782 0 0 1-.532-1.312v-30.422c0-.07-.027-.117-.078-.14a.126.126 0 0 0-.14.03 71.71 71.71 0 0 1-4.453 5.626c-.336.406-.758.574-1.266.5-.5-.07-.899-.333-1.188-.782-.261-.437-.39-.937-.39-1.5 0-.707.238-1.32.719-1.843 4.976-5.344 9.007-11.88 12.093-19.61zm10.703 23.969c.114-.488.391-.867.829-1.14.445-.282.93-.368 1.453-.266.476.086.86.351 1.14.797.282.437.348.898.203 1.375-1.71 6.25-3.976 11.605-6.796 16.062a1.871 1.871 0 0 1-1.266.797 1.964 1.964 0 0 1-1.469-.297c-.406-.258-.656-.648-.75-1.172-.094-.52-.012-.984.25-1.39 2.633-3.758 4.77-8.68 6.406-14.766zm24.688-10.875c.031-.258-.086-.39-.344-.39h-10.578c-.305 0-.453.152-.453.452v32.204c0 1.113-.14 1.976-.422 2.593-.273.614-.742 1.086-1.406 1.422-1.086.445-2.887.707-5.406.781h-.063a2.269 2.269 0 0 1-1.5-.562 3.153 3.153 0 0 1-1.062-1.453c-.149-.438-.09-.856.171-1.25.258-.387.63-.578 1.11-.578.738.03 1.312.035 1.719.015.414-.011.875-.015 1.375-.015h.812c.363 0 .617-.07.766-.203.156-.125.234-.375.234-.75V737.34c0-.3-.152-.453-.453-.453h-8.25c-.25 0-.434.133-.547.39-1.262 2.938-2.695 5.618-4.297 8.032-.262.438-.652.7-1.172.781a1.799 1.799 0 0 1-1.422-.39 1.882 1.882 0 0 1-.75-1.281v-.344c0-.364.114-.735.344-1.11 3.227-4.644 5.79-10.847 7.688-18.609.144-.488.441-.879.89-1.172.29-.187.625-.281 1-.281.114 0 .266.023.453.062.477.106.852.383 1.125.829.282.449.348.914.204 1.39-.782 2.969-1.579 5.57-2.391 7.797-.043.086-.04.172.016.266.062.086.148.125.265.125h23.344c.07 0 .129-.016.172-.047.363-.07.734-.07 1.11 0l.671.172c.363.105.64.308.828.609.156.219.235.461.235.719 0 1-.637 4.12-1.907 9.36-.105.448-.355.792-.75 1.03a1.582 1.582 0 0 1-1.25.204 1.433 1.433 0 0 1-1.03-.672 1.66 1.66 0 0 1-.25-1.22c.331-1.632.722-3.718 1.17-6.25zm-6.016 11.375a1.455 1.455 0 0 1-.172-.672c0-.227.036-.43.11-.61.187-.445.484-.726.89-.843.22-.07.442-.11.672-.11.258 0 .52.06.782.172.476.188.832.5 1.062.938 2.852 5.543 4.895 10.805 6.125 15.781.031.149.047.313.047.5 0 .336-.09.649-.266.938a2.36 2.36 0 0 1-1.234 1.015 2.418 2.418 0 0 1-.5.047c-.293 0-.57-.07-.828-.219a1.687 1.687 0 0 1-.844-1.125c-1.23-5.125-3.18-10.394-5.844-15.812zm0 0" fill="#4DD171"/><path d="M361.196 742.575c0 .293.129.437.39.437h8.297c.895 0 1.657.32 2.282.953.593.637.89 1.383.89 2.235 0 6.836-.242 13.277-.718 19.328-.293 3.531-.778 5.758-1.454 6.687-.437.594-.914 1.008-1.421 1.25-.5.25-1.141.426-1.922.532H363.196c-.48 0-.93-.18-1.344-.532a2.563 2.563 0 0 1-.828-1.296c-.074-.418 0-.793.219-1.125.226-.336.547-.48.953-.438 1.113.031 2.379.047 3.797.047h.156c.664 0 1.172-.242 1.516-.719.508-.664.894-2.672 1.156-6.015.258-3.344.484-9.008.672-17 0-.29-.133-.438-.39-.438h-7.516c-.262 0-.391.148-.391.438v.109c0 2.531-.094 4.808-.281 6.828-.188 2.023-.532 4.18-1.032 6.469a28.632 28.632 0 0 1-2.312 6.578 29.801 29.801 0 0 1-3.906 5.922c-.336.375-.75.57-1.25.594-.5.02-.938-.137-1.313-.47-.406-.374-.61-.859-.61-1.452 0-.407.15-.778.454-1.11a27.04 27.04 0 0 0 3.5-5.5 26.426 26.426 0 0 0 2.031-6.062c.426-2.102.711-4.035.86-5.797.156-1.77.234-3.77.234-6v-11.531c0-.301-.133-.453-.39-.453h-4.798c-.48 0-.886-.165-1.218-.5a1.644 1.644 0 0 1-.5-1.22c0-.476.164-.882.5-1.218a1.63 1.63 0 0 1 1.218-.516h8.47c.3 0 .452-.144.452-.437v-6.906c0-.489.176-.914.532-1.282.351-.375.789-.562 1.312-.562.52 0 .953.187 1.297.562.352.368.531.793.531 1.282v6.906c0 .293.149.437.453.437h8.75c.446 0 .844.172 1.188.516.351.336.531.742.531 1.219 0 .48-.18.886-.531 1.219a1.65 1.65 0 0 1-1.188.5h-12.593c-.262 0-.391.152-.391.453zm33.266-5.735c.07-.257-.04-.39-.329-.39h-10.656c-.262 0-.445.133-.547.39 0 .075-.023.125-.062.157-.074.304-.09.586-.047.843 1.289 6.836 3.144 12.704 5.562 17.61.04.105.11.156.204.156.093 0 .156-.05.187-.156 2.602-4.864 4.5-11.067 5.688-18.61zm7.609-3.437c.352.355.531.777.531 1.266 0 .48-.18.898-.531 1.25a1.712 1.712 0 0 1-1.25.53h-2.016c-.293 0-.46.134-.5.391-1.562 9.211-4.03 16.657-7.406 22.344-.156.262-.156.5 0 .719 2.82 4.387 6.219 7.73 10.188 10.031.445.258.707.64.78 1.14.071.5-.058.938-.39 1.313-.406.477-.89.782-1.453.907-.555.132-1.09.054-1.61-.235-3.75-2.344-7.038-5.613-9.859-9.812-.148-.22-.312-.22-.5 0-3.125 4.054-7.195 7.43-12.203 10.14a1.79 1.79 0 0 1-.953.282c-.187 0-.39-.04-.61-.11-.523-.148-.949-.465-1.28-.953a1.709 1.709 0 0 1-.282-.937c0-.118.02-.247.063-.391.101-.524.379-.899.828-1.125 5.125-2.563 9.285-6.016 12.484-10.36.145-.218.164-.457.063-.718-2.23-4.313-4.09-9.492-5.578-15.547 0-.082-.04-.125-.11-.125-.074 0-.11.043-.11.125a42.658 42.658 0 0 1-2.515 4.734c-.262.438-.664.7-1.203.782a1.918 1.918 0 0 1-1.469-.391 2.12 2.12 0 0 1-.843-1.313 2.083 2.083 0 0 1 .28-1.53c3.313-5.208 5.86-12.438 7.641-21.688.114-.52.391-.946.829-1.282a2.055 2.055 0 0 1 1.125-.328h.328c.52.074.937.324 1.25.75.32.43.425.903.312 1.422a111.638 111.638 0 0 1-1.89 7.797c-.043.117-.028.211.046.281.07.074.165.11.282.11h16.281c.477 0 .894.18 1.25.53zm0 0" fill="#4DD171"/><path d="M447.396 742.747c-.293-.375-.375-.801-.25-1.282.125-.488.41-.843.86-1.062.488-.227 1-.274 1.53-.14.54.124.962.413 1.266.859 2.04 2.793 3.895 5.859 5.563 9.203 1.602 3.117 2.789 5.976 3.562 8.578a1.94 1.94 0 0 1-.11 1.61 2.543 2.543 0 0 1-1.17 1.171c-.481.23-.954.235-1.423.016-.46-.227-.761-.602-.906-1.125-.781-2.563-1.953-5.422-3.516-8.578-1.636-3.344-3.437-6.426-5.406-9.25zm-34.5.547a1.75 1.75 0 0 1 .735-1.157 1.54 1.54 0 0 1 1.328-.281c.52.074.937.324 1.25.75.32.43.445.902.375 1.422-1.117 8.21-2.953 14.39-5.516 18.547a1.96 1.96 0 0 1-1.266.844 2.096 2.096 0 0 1-1.53-.282c-.438-.258-.716-.648-.829-1.172v-.39c0-.375.094-.727.281-1.063 2.563-4.008 4.285-9.75 5.172-17.218zm11.875-18.547a1.302 1.302 0 0 1-.812-.875c-.125-.426-.043-.82.25-1.188.343-.445.789-.742 1.343-.89.22-.083.457-.125.72-.125.3 0 .581.058.843.171 2.781 1.043 5.695 2.29 8.75 3.735 2.852 1.418 5.32 2.734 7.406 3.953.477.305.774.726.89 1.266a1.75 1.75 0 0 1-.327 1.468c-.336.45-.774.719-1.313.813a2.092 2.092 0 0 1-1.531-.313c-2.012-1.258-4.445-2.613-7.297-4.062a114.285 114.285 0 0 0-8.922-3.953zm-2.234 13.984c0-.52.191-.973.578-1.36.394-.394.852-.593 1.375-.593.52 0 .973.2 1.36.594.394.386.593.84.593 1.359v26.797c0 1.305.238 2.152.719 2.547.488.386 1.531.578 3.125.578h10.984c1.707 0 2.836-.742 3.39-2.234.446-1.258.766-3.88.954-7.86.031-.437.238-.75.625-.937.394-.188.8-.188 1.219 0 .52.261.945.632 1.281 1.109.289.45.437.934.437 1.453 0 3.899-.593 6.961-1.78 9.188-1 1.863-3.009 2.797-6.016 2.797h-11.375c-2.899 0-4.868-.47-5.907-1.407-1.043-.926-1.562-2.687-1.562-5.281zm0 0" fill="#4DD171"/><path d="M492.815 755.997c-.261 0-.39.152-.39.453v10.812c0 .262.129.43.39.5 2.82.555 6.313.828 10.469.828 5.352 0 9.18-.015 11.484-.046.446 0 .782.203 1 .609.145.219.22.445.22.672 0 .187-.04.351-.11.5a2.984 2.984 0 0 1-.985 1.39c-.46.375-.964.563-1.515.563h-10.266c-6.762 0-12.312-.89-16.656-2.672-4.274-1.707-7.711-4.867-10.313-9.484-.03-.032-.093-.047-.187-.047s-.164.039-.203.11c-1.93 5.054-4.34 8.952-7.235 11.702-.375.332-.804.5-1.28.5h-.11a2.383 2.383 0 0 1-1.407-.61 1.673 1.673 0 0 1-.5-1.233c0-.45.165-.836.5-1.172 4.758-4.344 7.735-11.196 8.922-20.563.07-.55.32-1.004.75-1.36.426-.35.91-.491 1.453-.421.54.074.977.324 1.313.75.332.43.46.902.39 1.422-.304 1.71-.695 3.57-1.171 5.578a1.17 1.17 0 0 0 .047.781c2.27 5.2 5.859 8.805 10.765 10.813.102.03.192.023.266-.032.082-.05.125-.117.125-.203v-22.5c0-.3-.152-.453-.453-.453h-20.5c-.492 0-.914-.176-1.266-.531a1.73 1.73 0 0 1-.516-1.25c0-.477.172-.895.516-1.25a1.73 1.73 0 0 1 1.266-.531h20.5c.258 0 .39-.149.39-.453v-7.344c0-.301-.132-.453-.39-.453h-15.61c-.511 0-.937-.164-1.28-.5-.337-.332-.5-.75-.5-1.25s.163-.914.5-1.25c.343-.344.769-.516 1.28-.516h15.61c.258 0 .39-.129.39-.39v-4.454c0-.52.192-.972.578-1.36.395-.394.852-.593 1.375-.593.52 0 .973.2 1.36.594.394.387.594.84.594 1.36v4.452c0 .262.129.391.39.391h16.594c.488 0 .898.172 1.234.516.332.336.5.75.5 1.25s-.168.918-.5 1.25c-.336.336-.746.5-1.234.5h-16.594c-.261 0-.39.152-.39.453v7.344c0 .304.129.453.39.453h20.672c.477 0 .895.18 1.25.53.352.356.531.774.531 1.25 0 .481-.18.9-.53 1.25a1.712 1.712 0 0 1-1.25.532h-20.673c-.261 0-.39.152-.39.453v8.469c0 .262.129.39.39.39h16.938c.52 0 .945.169 1.281.5.332.337.5.75.5 1.25s-.168.919-.5 1.25c-.336.337-.762.5-1.281.5zm0 0" fill="#4DD171"/><path d="M541.453 723.965a2.213 2.213 0 0 1 1-1c.3-.156.582-.234.844-.234.187 0 .367.04.547.11.445.117.765.386.953.812.187.43.172.828-.047 1.203-.899 1.563-1.64 2.809-2.234 3.734a2.218 2.218 0 0 1-1.032.797c-.43.168-.867.18-1.312.032a1.075 1.075 0 0 1-.766-.72 1.264 1.264 0 0 1 .094-1.062 72.366 72.366 0 0 0 1.953-3.672zm-9.687 3.391c.175.45.16.871-.047 1.266-.2.386-.524.652-.97.797a1.533 1.533 0 0 1-2-.938 38.378 38.378 0 0 0-1.78-3.734 1.18 1.18 0 0 1-.063-1.063c.156-.375.414-.613.781-.719.188-.039.391-.062.61-.062.226 0 .453.039.672.11a1.7 1.7 0 0 1 1 .843c.75 1.219 1.347 2.387 1.797 3.5zm1.89 15.781c.258 0 .39-.148.39-.453v-8.922c0-.258-.132-.39-.39-.39h-10.094c-.406 0-.773-.157-1.093-.47a1.512 1.512 0 0 1-.47-1.108c0-.426.157-.797.47-1.11.32-.32.687-.484 1.093-.484h24.297c.407 0 .766.164 1.078.484.32.313.485.684.485 1.11 0 .43-.164.796-.485 1.109-.312.312-.671.469-1.078.469h-9.968c-.262 0-.391.132-.391.39v8.922c0 .305.129.453.39.453h5.626c.257 0 .39-.148.39-.453v-5.234a1.5 1.5 0 0 1 .5-1.14c.332-.321.723-.485 1.172-.485.445 0 .828.164 1.14.484.313.313.47.695.47 1.14v9.032c0 .438-.157.82-.47 1.14a1.557 1.557 0 0 1-1.14.47c-.45 0-.84-.157-1.172-.47-.336-.32-.5-.702-.5-1.14v-.062c0-.145-.058-.22-.172-.22h-6.015c-.262 0-.407.134-.438.391-.75 4.868-3.855 8.43-9.312 10.688-.293.117-.59.172-.891.172-.637 0-1.25-.332-1.844-1a1.095 1.095 0 0 1-.25-1.031c.094-.383.328-.657.703-.813 2.594-1 4.504-2.156 5.735-3.469 1.226-1.32 2.031-2.836 2.406-4.547.031-.257-.086-.39-.344-.39h-5.687c-.18 0-.266.094-.266.281v.766c0 .449-.164.836-.484 1.156a1.557 1.557 0 0 1-1.14.469 1.55 1.55 0 0 1-1.141-.47 1.598 1.598 0 0 1-.47-1.155v-9.86c0-.445.157-.816.47-1.11.312-.3.69-.452 1.14-.452.445 0 .828.152 1.14.453.321.293.485.664.485 1.11v5.296c0 .305.125.453.375.453zm33.656-14.781c0-.289-.132-.437-.39-.437h-10.813c-.293 0-.437.148-.437.437v4.297c0 .262.144.39.437.39h10.813c.258 0 .39-.128.39-.39zM555.5 740.903c-.043.293.086.437.39.437h11.032c.258 0 .39-.144.39-.437v-4.453c0-.258-.132-.39-.39-.39h-10.813c-.293 0-.437.132-.437.39v.719a38.34 38.34 0 0 1-.172 3.734zm11.812 3.906c0-.3-.132-.453-.39-.453h-11.485c-.293 0-.476.133-.546.39-.856 3.825-2.477 6.907-4.86 9.25-.336.337-.762.5-1.281.5-.524 0-1-.144-1.438-.437-.336-.226-.523-.555-.562-.984a1.248 1.248 0 0 1 .39-1.078c2.04-1.97 3.407-4.188 4.094-6.657.688-2.476 1.032-5.222 1.032-8.234v-9.078c0-.895.32-1.664.968-2.313.657-.644 1.426-.968 2.313-.968h12.094c.894 0 1.664.324 2.312.968.656.649.984 1.418.984 2.313v23.469c0 1.03-.132 1.82-.39 2.359-.262.543-.746.961-1.453 1.25-.97.418-2.828.64-5.578.672-.524 0-.997-.164-1.422-.5a2.684 2.684 0 0 1-.907-1.219 1.354 1.354 0 0 1 .157-1.14c.226-.352.547-.516.953-.485h4.062c.375-.031.625-.117.75-.265.133-.157.203-.399.203-.735zm-17.89 23.844c0 .305.129.453.39.453h21.844c.477 0 .883.168 1.219.5.344.332.516.727.516 1.188 0 .468-.172.867-.516 1.203-.336.332-.742.5-1.219.5h-48.031c-.48 0-.89-.168-1.234-.5a1.634 1.634 0 0 1-.5-1.203c0-.461.164-.856.5-1.188.343-.332.753-.5 1.234-.5h21.562c.258 0 .391-.148.391-.453v-5.906c0-.258-.133-.391-.39-.391h-15.72c-.437 0-.82-.164-1.14-.5a1.654 1.654 0 0 1-.469-1.172c0-.445.157-.836.469-1.172.32-.332.703-.5 1.14-.5h15.72c.257 0 .39-.129.39-.39v-1.563c0-.52.18-.96.547-1.328a1.868 1.868 0 0 1 1.375-.562c.539 0 .992.187 1.36.562.374.367.562.809.562 1.328v1.563c0 .261.129.39.39.39h16c.438 0 .813.168 1.125.5.32.336.485.727.485 1.172 0 .45-.164.84-.485 1.172-.312.336-.687.5-1.125.5h-16c-.261 0-.39.133-.39.39zm0 0" fill="#4DD171"/><path d="M234.391 657.99c-.656 0-.984.327-.984.984v2.156c0 .648.328.969.984.969h41.203c.657 0 .985-.32.985-.969v-2.156c0-.657-.328-.985-.985-.985zm25.547-33.282c0-.644-.328-.969-.984-.969h-11.25c-.657 0-1.118.293-1.375.875a18.57 18.57 0 0 1-3.72 4.985c-.136.136-.171.289-.108.453.07.156.207.234.406.234h16.047c.656 0 .984-.32.984-.969zm-31.125-11.844c-.656 0-1.117.328-1.375.985l-.687 1.86a.763.763 0 0 0 .14.687c.164.187.348.28.547.28h9.11c.644 0 1.035-.32 1.171-.968.125-.594.223-1.21.297-1.86.063-.257-.008-.488-.203-.687a.96.96 0 0 0-.687-.297zm21.047-11.062c-.656 0-.984.328-.984.984v2.047c0 .656.328.984.984.984h9.094c.656 0 .984-.328.984-.984v-2.047c0-.656-.328-.984-.984-.984zm31.703.984c0-.656-.324-.984-.969-.984h-8.422c-.656 0-.984.328-.984.984v2.047c0 .656.328.984.984.984h8.422c.645 0 .969-.328.969-.984zm-22.61 13.89c.657 0 .985-.32.985-.968v-1.86c0-.656-.328-.984-.984-.984h-9.094c-.656 0-1.016.328-1.078.985-.074.918-.11 1.539-.11 1.86a.685.685 0 0 0 .204.687.963.963 0 0 0 .687.28zm28.188 8.032c.07-.258.024-.484-.14-.672a.813.813 0 0 0-.641-.297h-14.188c-.656 0-.984.325-.984.97v4.608c0 .649.328.97.984.97h7.141c.258 0 .36-.098.297-.298-.262-.644-.2-1.226.187-1.75.395-.52.922-.78 1.579-.78 1.101.124 2.015.187 2.734.187.976 0 1.726-.258 2.25-.782.332-.457.594-1.175.781-2.156zm-11.547 16.453c.657 0 .985-.328.985-.984v-2.063c0-.644-.328-.968-.985-.968h-41.203c-.656 0-.984.324-.984.968v2.063c0 .656.328.984.984.984zm0 10.375c.657 0 .985-.328.985-.984v-2.063c0-.644-.328-.968-.985-.968h-41.203c-.656 0-.984.324-.984.968v2.063c0 .656.328.984.984.984zm13.125 8.813c0 2.406-.836 4.43-2.5 6.062-1.668 1.637-3.672 2.453-6.015 2.453h-5.094c-.137 0-.203.047-.203.141 0 .094.035.18.11.25 6.382 2.148 12.421 4.328 18.109 6.547 1.238.457 1.859 1.406 1.859 2.844 0 1.3-.59 2.21-1.766 2.734-2.023.977-4.078 1.469-6.172 1.469-2.086 0-4.234-.492-6.453-1.469-3.992-1.762-8.43-3.555-13.312-5.375-1.5-.523-2.32-1.531-2.453-3.031a1.943 1.943 0 0 1-.094-.594c0-1.238.586-2.25 1.766-3.031.062 0 .054-.078-.016-.235-.063-.164-.125-.25-.188-.25h-24.562c-.137 0-.203.07-.203.203 0 .125.031.188.094.188 1.57.719 2.359 1.922 2.359 3.61 0 1.5-.719 2.577-2.156 3.234-5.555 2.613-11.887 4.96-19 7.047a8.628 8.628 0 0 1-2.532.39 8.279 8.279 0 0 1-2.75-.484c-1.761-.524-3.293-1.469-4.593-2.844-.594-.648-.891-1.367-.891-2.156 0-.324.035-.684.11-1.078.382-1.168 1.195-1.88 2.437-2.14 7.77-1.571 14.426-3.43 19.969-5.579.132 0 .187-.063.156-.188-.031-.132-.117-.203-.25-.203h-4.11c-2.355 0-4.367-.816-6.03-2.453-1.657-1.633-2.485-3.656-2.485-6.062v-20.375c0-.52-.23-.711-.688-.578-.46.062-.918.164-1.375.296a9.48 9.48 0 0 1-1.265.094c-1.043 0-2.09-.258-3.14-.781-1.368-.719-2.477-1.766-3.329-3.14-.387-.583-.578-1.165-.578-1.75 0-.458.129-.946.39-1.47.458-1.05 1.27-1.671 2.438-1.859 8.29-1.437 14.328-3.594 18.11-6.469.132-.125.163-.25.093-.375-.062-.132-.156-.203-.281-.203h-8.219a.281.281 0 0 0-.203.094c-.262.719-.781 1.043-1.562.969l-4.313-.281c-1.305-.07-2.312-.66-3.031-1.766-.399-.719-.594-1.438-.594-2.156 0-.457.098-.946.297-1.469a772 772 0 0 0 1.86-5.188c.78-2.414 2.195-4.375 4.25-5.875 2.062-1.5 4.331-2.25 6.812-2.25h9.594c.656 0 .984-.328.984-.984v-2.047c0-.656-.328-.984-.984-.984h-18.297c-.918 0-1.72-.336-2.407-1.016-.687-.687-1.03-1.504-1.03-2.453 0-.945.343-1.766 1.03-2.453.688-.688 1.489-1.031 2.407-1.031h18.78c.333 0 .5-.16.5-.485 0-1.039.376-1.937 1.126-2.687.75-.75 1.676-1.125 2.781-1.125h2.938c1.05 0 1.968.375 2.75 1.125.78.75 1.172 1.648 1.172 2.687 0 .325.128.485.39.485h10.281c.258 0 .391-.16.391-.485 0-1.039.375-1.937 1.125-2.687.75-.75 1.676-1.125 2.781-1.125h3.438c1.101 0 2.031.375 2.781 1.125s1.125 1.648 1.125 2.687c0 .325.129.485.39.485h12.235c2.352 0 4.36.836 6.016 2.5 1.664 1.668 2.5 3.672 2.5 6.015v.985c0 2.355-.836 4.367-2.5 6.031-1.657 1.656-3.664 2.484-6.016 2.484h-11.64c-.657 0-.985.328-.985.985v1.86c0 .648.328.968.984.968h18.407c2.343 0 4.3.851 5.875 2.547 1.3 1.437 1.953 3.039 1.953 4.797 0 .398-.031.789-.094 1.171-.46 3.47-1.277 5.825-2.453 7.063-1.375 1.367-3.434 2.148-6.172 2.344-.648.062-.969.422-.969 1.078zm0 0" fill="#4DD171"/><path d="M361.936 640.27c0 .657.32.985.969.985h19.187c.656 0 .985-.328.985-.984v-10.375c0-.645-.329-.97-.985-.97h-19.187c-.649 0-.97.325-.97.97zm-31.14 0a.685.685 0 0 0 .202.688c.196.2.426.297.688.297h17.219c.656 0 .984-.328.984-.984v-10.375c0-.645-.328-.97-.984-.97h-16.922c-.656 0-.985.325-.985.97v.89c0 3-.07 6.164-.203 9.485zm19.093-33.078c0-.656-.328-.984-.984-.984h-16.922c-.656 0-.985.328-.985.984v9.688c0 .656.329.984.985.984h16.922c.656 0 .984-.328.984-.984zm32.203 10.672c.656 0 .985-.328.985-.984v-9.688c0-.656-.329-.984-.985-.984h-19.187c-.649 0-.97.328-.97.984v9.688c0 .656.321.984.97.984zm4.313-23.015c2.343 0 4.347.836 6.015 2.5 1.664 1.668 2.5 3.672 2.5 6.015v64.313c0 3.273-.414 5.773-1.234 7.5-.813 1.726-2.23 3.015-4.25 3.86-2.543 1.175-6.918 1.894-13.125 2.155h-.188c-1.636 0-3.105-.558-4.406-1.671-1.375-1.043-2.355-2.446-2.937-4.204a3.63 3.63 0 0 1-.297-1.468c0-.782.226-1.532.687-2.25.782-1.114 1.86-1.672 3.235-1.672h8.031c1.758 0 2.64-.781 2.64-2.344V653.49c0-.656-.328-.984-.984-.984h-19.187c-.649 0-.97.328-.97.984v21.047c0 1.625-.589 3.024-1.765 4.203-1.18 1.176-2.601 1.766-4.265 1.766-1.657 0-3.075-.59-4.25-1.766-1.18-1.18-1.766-2.578-1.766-4.203V653.49c0-.656-.328-.984-.984-.984h-18.5c-.649 0-1.04.328-1.172.984-1.625 9.793-4.528 17.79-8.703 23.985-.856 1.3-2.133 1.984-3.828 2.047-.063.07-.165.109-.297.109-1.5 0-2.836-.527-4-1.578-1.243-1.043-1.993-2.344-2.25-3.906v-1.079c0-1.175.32-2.285.968-3.328a39.34 39.34 0 0 0 2.641-5c1.695-3.582 2.906-7.46 3.625-11.64.719-4.176 1.191-7.88 1.422-11.11.226-3.226.344-7 .344-11.312v-27.313c0-2.343.828-4.347 2.484-6.015 1.664-1.664 3.676-2.5 6.031-2.5zm0 0" fill="#4DD171"/><path d="M430.246 625.99c-.125.124-.172.257-.14.39.03.125.144.187.343.187h49.422c.196 0 .313-.062.344-.187.04-.133-.008-.266-.14-.39-10.575-7.708-18.829-15.54-24.766-23.5-.125-.126-.324-.204-.594-.235-.262-.04-.453.039-.578.234-5.875 8.094-13.84 15.93-23.89 23.5zm31.625 32.89c-.656 0-.984.324-.984.969v10.187c0 .649.328.969.984.969h30.64c1.427 0 2.661.527 3.704 1.578 1.05 1.043 1.578 2.297 1.578 3.766 0 1.468-.527 2.722-1.578 3.765-1.043 1.04-2.277 1.563-3.703 1.563h-74.406c-1.43 0-2.668-.524-3.72-1.563-1.042-1.043-1.562-2.297-1.562-3.765 0-1.469.52-2.723 1.563-3.766 1.05-1.05 2.289-1.578 3.719-1.578h29.375c.656 0 .984-.32.984-.969V659.85c0-.645-.328-.969-.984-.969h-21.438c-1.437 0-2.648-.504-3.625-1.516-.98-1.02-1.469-2.226-1.469-3.625 0-1.406.489-2.597 1.47-3.578.976-.976 2.187-1.469 3.624-1.469h21.438c.656 0 .984-.328.984-.984v-9.687c0-.645-.328-.97-.984-.97h-14.39c-1.962 0-3.642-.702-5.048-2.109-1.398-1.406-2.094-3.085-2.094-5.046 0-.125-.085-.235-.25-.329-.168-.101-.312-.093-.437.032a190.047 190.047 0 0 1-5.094 3.234c-.98.594-2.023.89-3.125.89-.46 0-.949-.066-1.469-.202-1.636-.395-2.976-1.274-4.015-2.641-.781-.977-1.172-2.055-1.172-3.234 0-.258.031-.551.094-.875.195-1.5.945-2.645 2.25-3.438 6.258-3.719 12.195-8.101 17.812-13.156 5.613-5.063 10.313-10.133 14.094-15.219 2.55-3.332 5.719-5 9.5-5 3.914 0 7.176 1.602 9.781 4.797 4.508 5.68 9.649 10.902 15.422 15.672 5.77 4.762 11.691 8.71 17.766 11.844 1.437.78 2.347 1.953 2.734 3.515.07.461.11.887.11 1.281 0 1.106-.36 2.149-1.079 3.125-1.043 1.5-2.449 2.48-4.218 2.938a5.4 5.4 0 0 1-1.75.297c-1.118 0-2.227-.328-3.329-.985a112.067 112.067 0 0 1-4.796-3.03c-.137-.134-.29-.15-.454-.048-.156.094-.234.211-.234.344 0 2.024-.719 3.75-2.156 5.188-1.438 1.437-3.137 2.156-5.094 2.156h-14.969c-.656 0-.984.324-.984.969v9.687c0 .656.328.984.984.984h22.016c1.437 0 2.644.493 3.625 1.47.977.98 1.469 2.171 1.469 3.577 0 1.399-.492 2.606-1.47 3.625-.98 1.012-2.187 1.516-3.624 1.516zm0 0" fill="#4DD171"/><path d="M531.76 625.302c-.656 0-.985.324-.985.969v11.265c0 .649.329.969.985.969h16.64c.645 0 .97-.32.97-.969v-11.265c0-.645-.325-.97-.97-.97zm26.625-17.625c.125-.195.133-.375.031-.531a.46.46 0 0 0-.422-.25h-18.312c-.649 0-1.2.23-1.657.687-2.156 2.48-4.214 4.668-6.171 6.563-.137.125-.172.273-.11.437.07.156.176.234.313.234h20.36c.644 0 1.163-.257 1.562-.78a74.613 74.613 0 0 0 4.406-6.36zm21.531 30.828c.656 0 .984-.32.984-.969v-11.265c0-.645-.328-.97-.984-.97h-18.203c-.656 0-.984.325-.984.97v11.265c0 .649.328.969.984.969zm-3.031 34.36h9.484c1.375 0 2.32-.423 2.844-1.266.52-.844.879-2.703 1.078-5.578.133-1.375.785-2.383 1.953-3.032a4.513 4.513 0 0 1 2.063-.5c.52 0 1.07.102 1.656.297 1.633.719 2.941 1.797 3.922 3.235.781 1.18 1.172 2.386 1.172 3.625 0 .324-.032.683-.094 1.078-.781 5.082-2.168 8.57-4.156 10.468-1.992 1.895-5.074 2.844-9.25 2.844h-12.438c-5.812 0-9.73-1.031-11.75-3.094-2.023-2.054-3.031-5.882-3.031-11.5v-19.375c0-.656-.328-.984-.984-.984h-9.204c-.648 0-1.039.328-1.171.984-.586 4.106-1.403 7.641-2.454 10.61-1.042 2.969-2.59 5.922-4.64 8.86-2.055 2.937-4.844 5.5-8.375 7.687-3.524 2.187-7.86 4.097-13.016 5.734a7.32 7.32 0 0 1-2.047.281c-.98 0-1.96-.226-2.937-.672a9.06 9.06 0 0 1-4.016-3.625c-.46-.718-.687-1.539-.687-2.453 0-.523.066-1.011.203-1.468a5.32 5.32 0 0 1 1.125-1.61 4.063 4.063 0 0 1 1.703-1.031c4.113-1.102 7.57-2.406 10.375-3.906 2.812-1.508 5.016-3.258 6.61-5.25 1.6-1.989 2.78-3.977 3.53-5.969.75-1.988 1.352-4.383 1.813-7.188.063-.257-.008-.488-.203-.687a.96.96 0 0 0-.688-.297h-7.828c-2.343 0-4.351-.828-6.015-2.484-1.668-1.664-2.5-3.676-2.5-6.032v-15.765c0-.258-.102-.32-.297-.188-.719.524-1.524.684-2.406.485a3.435 3.435 0 0 1-2.094-1.36 28.954 28.954 0 0 0-1.86-2.265c-.843-.977-1.265-2.086-1.265-3.328v-.579c.125-1.5.805-2.64 2.047-3.421 7.77-5.094 14.195-11.227 19.281-18.407a11.314 11.314 0 0 1 4.5-3.718 9.882 9.882 0 0 1 3.828-.782c.582 0 1.172.032 1.766.094l1.75.39c1.176.2 1.992.852 2.453 1.954.195.398.297.824.297 1.281 0 .586-.2 1.168-.594 1.75-.063.074-.063.164 0 .266.062.093.129.14.203.14h19.578a2.52 2.52 0 0 1 .969-.203c.781 0 1.5.23 2.156.688l2.64 1.656c1.177.793 1.927 1.84 2.25 3.14.134.462.204.883.204 1.266 0 .856-.262 1.703-.781 2.547-1.574 2.418-3.403 4.996-5.485 7.734-.136.2-.156.399-.062.594a.49.49 0 0 0 .453.281h16.64c2.344 0 4.348.82 6.016 2.454 1.664 1.636 2.5 3.656 2.5 6.062v17.234c0 2.356-.836 4.368-2.5 6.032-1.668 1.656-3.672 2.484-6.015 2.484H573.65c-.656 0-.984.328-.984.984v19.282c0 1.562.242 2.543.734 2.937.489.387 1.649.578 3.485.578zm0 0" fill="#4DD171"/></svg>