<svg xmlns="http://www.w3.org/2000/svg" xmlns:xlink="http://www.w3.org/1999/xlink" width="1080" zoomAndPan="magnify" viewBox="0 0 810 809.999993" height="1080" preserveAspectRatio="xMidYMid meet" version="1.0"><defs><g><g id="id1"/><g id="id2"/></g><clipPath id="id3"><path d="M 149.886719 23.902344 L 629 23.902344 L 629 533.902344 L 149.886719 533.902344 Z M 149.886719 23.902344 " clip-rule="nonzero"/></clipPath></defs><rect x="-81" width="972" fill="rgb(100%, 100%, 100%)" y="-80.999999" height="971.999992" fill-opacity="1"/><rect x="-81" width="972" fill="rgb(100%, 100%, 100%)" y="-80.999999" height="971.999992" fill-opacity="1"/><rect x="-81" width="972" fill="rgb(100%, 100%, 100%)" y="-80.999999" height="971.999992" fill-opacity="1"/><path fill="rgb(30.198669%, 81.959534%, 44.309998%)" d="M 137.265625 581.398438 C 96.464844 581.398438 63.390625 614.476562 63.390625 655.273438 C 63.390625 696.074219 96.464844 729.148438 137.265625 729.148438 C 178.066406 729.148438 211.140625 696.074219 211.140625 655.273438 C 211.140625 614.476562 178.066406 581.398438 137.265625 581.398438 " fill-opacity="1" fill-rule="nonzero"/><path fill="rgb(30.198669%, 81.959534%, 44.309998%)" d="M 398.910156 189.253906 C 393.410156 189.253906 388.949219 193.71875 388.949219 199.214844 C 388.949219 204.714844 393.410156 209.175781 398.910156 209.175781 C 404.40625 209.175781 408.871094 204.714844 408.871094 199.214844 C 408.871094 193.71875 404.40625 189.253906 398.910156 189.253906 Z M 398.910156 189.253906 " fill-opacity="1" fill-rule="nonzero"/><path fill="rgb(30.198669%, 81.959534%, 44.309998%)" d="M 398.910156 249.019531 C 393.410156 249.019531 388.949219 253.484375 388.949219 258.980469 C 388.949219 264.480469 393.410156 268.941406 398.910156 268.941406 C 404.40625 268.941406 408.871094 264.480469 408.871094 258.980469 C 408.871094 253.484375 404.40625 249.019531 398.910156 249.019531 Z M 398.910156 249.019531 " fill-opacity="1" fill-rule="nonzero"/><path fill="rgb(30.198669%, 81.959534%, 44.309998%)" d="M 259.457031 474.136719 C 253.957031 474.136719 249.496094 478.601562 249.496094 484.097656 C 249.496094 489.597656 253.957031 494.058594 259.457031 494.058594 C 264.953125 494.058594 269.417969 489.597656 269.417969 484.097656 C 269.417969 478.601562 264.953125 474.136719 259.457031 474.136719 Z M 259.457031 474.136719 " fill-opacity="1" fill-rule="nonzero"/><path fill="rgb(30.198669%, 81.959534%, 44.309998%)" d="M 428.792969 199.214844 C 428.792969 204.71875 433.25 209.175781 438.753906 209.175781 L 558.285156 209.175781 C 563.785156 209.175781 568.246094 204.71875 568.246094 199.214844 C 568.246094 193.714844 563.785156 189.253906 558.285156 189.253906 L 438.753906 189.253906 C 433.25 189.253906 428.792969 193.714844 428.792969 199.214844 Z M 428.792969 199.214844 " fill-opacity="1" fill-rule="nonzero"/><path fill="rgb(30.198669%, 81.959534%, 44.309998%)" d="M 558.285156 249.019531 L 438.753906 249.019531 C 433.25 249.019531 428.792969 253.480469 428.792969 258.980469 C 428.792969 264.484375 433.25 268.941406 438.753906 268.941406 L 558.285156 268.941406 C 563.785156 268.941406 568.246094 264.484375 568.246094 258.980469 C 568.246094 253.480469 563.785156 249.019531 558.285156 249.019531 Z M 558.285156 249.019531 " fill-opacity="1" fill-rule="nonzero"/><g clip-path="url(#id3)"><path fill="rgb(30.198669%, 81.959534%, 44.309998%)" d="M 398.910156 23.902344 L 199.691406 23.902344 C 172.226562 23.902344 149.886719 46.246094 149.886719 73.707031 L 149.886719 484.097656 C 149.886719 511.5625 172.226562 533.902344 199.691406 533.902344 L 398.910156 533.902344 C 426.371094 533.902344 448.714844 511.5625 448.714844 484.097656 L 448.714844 353.609375 L 481.914062 328.707031 L 598.128906 328.707031 C 614.605469 328.707031 628.011719 315.304688 628.011719 298.824219 L 628.011719 159.371094 C 628.011719 142.894531 614.605469 129.488281 598.128906 129.488281 L 448.714844 129.488281 L 448.714844 73.707031 C 448.714844 46.246094 426.371094 23.902344 398.910156 23.902344 Z M 199.691406 43.824219 L 398.910156 43.824219 C 411.894531 43.824219 422.96875 52.152344 427.078125 63.746094 L 171.519531 63.746094 C 175.632812 52.152344 186.707031 43.824219 199.691406 43.824219 Z M 398.910156 513.980469 L 199.691406 513.980469 C 183.210938 513.980469 169.808594 500.578125 169.808594 484.097656 L 169.808594 454.214844 L 428.792969 454.214844 L 428.792969 484.097656 C 428.792969 500.578125 415.386719 513.980469 398.910156 513.980469 Z M 608.089844 159.371094 L 608.089844 298.824219 C 608.089844 304.320312 603.621094 308.785156 598.128906 308.785156 L 478.597656 308.785156 C 476.441406 308.785156 474.34375 309.488281 472.621094 310.777344 L 408.871094 358.589844 L 408.871094 318.746094 C 408.871094 313.246094 404.410156 308.785156 398.910156 308.785156 L 359.066406 308.785156 C 353.570312 308.785156 349.105469 304.320312 349.105469 298.824219 L 349.105469 159.371094 C 349.105469 153.878906 353.570312 149.410156 359.066406 149.410156 L 598.128906 149.410156 C 603.621094 149.410156 608.089844 153.878906 608.089844 159.371094 Z M 359.066406 129.488281 C 342.585938 129.488281 329.183594 142.894531 329.183594 159.371094 L 329.183594 298.824219 C 329.183594 315.304688 342.585938 328.707031 359.066406 328.707031 L 388.949219 328.707031 L 388.949219 378.511719 C 388.949219 382.285156 391.082031 385.734375 394.453125 387.421875 C 397.820312 389.105469 401.863281 388.75 404.886719 386.480469 L 428.792969 368.550781 L 428.792969 434.292969 L 169.808594 434.292969 L 169.808594 83.667969 L 428.792969 83.667969 L 428.792969 129.488281 Z M 359.066406 129.488281 " fill-opacity="1" fill-rule="nonzero"/></g><path fill="rgb(30.198669%, 81.959534%, 44.309998%)" d="M 339.144531 474.136719 L 299.300781 474.136719 C 293.796875 474.136719 289.339844 478.597656 289.339844 484.097656 C 289.339844 489.601562 293.796875 494.058594 299.300781 494.058594 L 339.144531 494.058594 C 344.644531 494.058594 349.105469 489.601562 349.105469 484.097656 C 349.105469 478.597656 344.644531 474.136719 339.144531 474.136719 Z M 339.144531 474.136719 " fill-opacity="1" fill-rule="nonzero"/><g fill="rgb(30.198669%, 81.959534%, 44.309998%)" fill-opacity="1"><g transform="translate(242.516768, 637.199988)"><g><path d="M 16.421875 -6.296875 C 17.128906 -6.804688 17.925781 -7.082031 18.8125 -7.125 C 18.851562 -7.125 18.890625 -7.125 18.921875 -7.125 C 19.742188 -7.125 20.488281 -6.898438 21.15625 -6.453125 C 21.75 -6.046875 22.046875 -5.488281 22.046875 -4.78125 C 22.046875 -4.082031 21.765625 -3.53125 21.203125 -3.125 C 17.492188 -0.707031 13.632812 1.460938 9.625 3.390625 C 9.101562 3.648438 8.566406 3.78125 8.015625 3.78125 C 7.753906 3.78125 7.515625 3.765625 7.296875 3.734375 C 6.472656 3.578125 5.75 3.203125 5.125 2.609375 C 4.675781 2.203125 4.5 1.691406 4.59375 1.078125 C 4.6875 0.472656 5.007812 0.0390625 5.5625 -0.21875 C 9.644531 -2.070312 13.265625 -4.097656 16.421875 -6.296875 Z M 35.515625 -3.5 C 34.921875 -3.800781 34.585938 -4.257812 34.515625 -4.875 C 34.441406 -5.488281 34.625 -6.015625 35.0625 -6.453125 C 35.65625 -6.972656 36.363281 -7.289062 37.1875 -7.40625 C 37.375 -7.4375 37.554688 -7.453125 37.734375 -7.453125 C 38.328125 -7.453125 38.90625 -7.320312 39.46875 -7.0625 C 43.738281 -4.988281 47.765625 -2.859375 51.546875 -0.671875 C 52.210938 -0.265625 52.546875 0.328125 52.546875 1.109375 C 52.546875 1.816406 52.25 2.375 51.65625 2.78125 C 50.914062 3.34375 50.082031 3.625 49.15625 3.625 C 49.113281 3.625 49.09375 3.625 49.09375 3.625 C 48.164062 3.625 47.3125 3.378906 46.53125 2.890625 C 43.039062 0.628906 39.367188 -1.5 35.515625 -3.5 Z M 48.765625 -13.640625 C 48.765625 -13.378906 48.894531 -13.25 49.15625 -13.25 L 51.984375 -13.25 C 52.660156 -13.25 53.238281 -13.003906 53.71875 -12.515625 C 54.195312 -12.035156 54.4375 -11.453125 54.4375 -10.765625 C 54.4375 -10.078125 54.195312 -9.5 53.71875 -9.03125 C 53.238281 -8.570312 52.660156 -8.34375 51.984375 -8.34375 L 5.125 -8.34375 C 4.457031 -8.34375 3.878906 -8.570312 3.390625 -9.03125 C 2.910156 -9.5 2.671875 -10.078125 2.671875 -10.765625 C 2.671875 -11.453125 2.910156 -12.035156 3.390625 -12.515625 C 3.878906 -13.003906 4.457031 -13.25 5.125 -13.25 L 7.90625 -13.25 C 8.195312 -13.25 8.328125 -13.378906 8.296875 -13.640625 L 7.40625 -41.03125 C 7.363281 -41.726562 7.640625 -42.300781 8.234375 -42.75 C 8.609375 -43.082031 9.035156 -43.25 9.515625 -43.25 C 9.703125 -43.25 9.90625 -43.210938 10.125 -43.140625 C 10.351562 -43.066406 10.578125 -43.085938 10.796875 -43.203125 C 12.546875 -44.085938 14.085938 -44.9375 15.421875 -45.75 C 16.015625 -46.125 16.664062 -46.3125 17.375 -46.3125 C 17.445312 -46.3125 17.535156 -46.3125 17.640625 -46.3125 C 18.460938 -46.238281 19.171875 -45.941406 19.765625 -45.421875 C 20.171875 -45.015625 20.375 -44.550781 20.375 -44.03125 C 20.375 -43.914062 20.375 -43.804688 20.375 -43.703125 C 20.257812 -43.023438 19.890625 -42.539062 19.265625 -42.25 C 17.179688 -41.25 14.953125 -40.265625 12.578125 -39.296875 C 12.316406 -39.179688 12.1875 -39 12.1875 -38.75 L 12.359375 -34.453125 C 12.359375 -34.160156 12.503906 -34.015625 12.796875 -34.015625 L 17.375 -34.015625 C 17.96875 -34.015625 18.472656 -33.800781 18.890625 -33.375 C 19.316406 -32.945312 19.53125 -32.4375 19.53125 -31.84375 C 19.53125 -31.25 19.316406 -30.726562 18.890625 -30.28125 C 18.472656 -29.832031 17.96875 -29.609375 17.375 -29.609375 L 12.96875 -29.609375 C 12.675781 -29.609375 12.53125 -29.476562 12.53125 -29.21875 L 12.6875 -23.984375 C 12.6875 -23.734375 12.835938 -23.609375 13.140625 -23.609375 L 17.3125 -23.609375 C 17.945312 -23.609375 18.472656 -23.394531 18.890625 -22.96875 C 19.316406 -22.539062 19.53125 -22.007812 19.53125 -21.375 C 19.53125 -20.738281 19.316406 -20.207031 18.890625 -19.78125 C 18.472656 -19.363281 17.945312 -19.15625 17.3125 -19.15625 L 13.25 -19.15625 C 12.945312 -19.15625 12.816406 -19.023438 12.859375 -18.765625 L 13.03125 -13.640625 C 13.03125 -13.378906 13.175781 -13.25 13.46875 -13.25 L 21.59375 -13.25 C 21.851562 -13.25 21.984375 -13.378906 21.984375 -13.640625 L 21.984375 -23.71875 C 21.984375 -24.3125 22.195312 -24.820312 22.625 -25.25 C 23.050781 -25.675781 23.5625 -25.890625 24.15625 -25.890625 C 24.75 -25.890625 25.257812 -25.675781 25.6875 -25.25 C 26.113281 -24.820312 26.328125 -24.3125 26.328125 -23.71875 L 26.328125 -13.640625 C 26.328125 -13.378906 26.476562 -13.25 26.78125 -13.25 L 30.34375 -13.25 C 30.632812 -13.25 30.78125 -13.378906 30.78125 -13.640625 L 30.78125 -27.71875 C 30.78125 -28.019531 30.632812 -28.171875 30.34375 -28.171875 L 25.328125 -28.171875 C 24.429688 -28.171875 23.660156 -28.484375 23.015625 -29.109375 C 22.367188 -29.742188 22.046875 -30.523438 22.046875 -31.453125 L 22.046875 -44.921875 C 22.046875 -45.585938 22.273438 -46.144531 22.734375 -46.59375 C 23.203125 -47.039062 23.75 -47.265625 24.375 -47.265625 C 25.007812 -47.265625 25.546875 -47.039062 25.984375 -46.59375 C 26.429688 -46.144531 26.65625 -45.585938 26.65625 -44.921875 L 26.65625 -42.1875 C 26.65625 -41.925781 26.804688 -41.796875 27.109375 -41.796875 L 33.84375 -41.796875 C 34.4375 -41.796875 34.945312 -41.570312 35.375 -41.125 C 35.800781 -40.6875 36.015625 -40.171875 36.015625 -39.578125 C 36.015625 -38.984375 35.800781 -38.472656 35.375 -38.046875 C 34.945312 -37.617188 34.4375 -37.40625 33.84375 -37.40625 L 27.109375 -37.40625 C 26.804688 -37.40625 26.65625 -37.257812 26.65625 -36.96875 L 26.65625 -32.78125 C 26.65625 -32.519531 26.804688 -32.390625 27.109375 -32.390625 L 32.0625 -32.390625 C 32.957031 -32.390625 33.726562 -32.066406 34.375 -31.421875 C 35.019531 -30.773438 35.34375 -30.003906 35.34375 -29.109375 L 35.34375 -13.640625 C 35.34375 -13.378906 35.472656 -13.25 35.734375 -13.25 L 43.359375 -13.25 C 43.617188 -13.25 43.769531 -13.378906 43.8125 -13.640625 C 43.882812 -15.046875 43.976562 -16.710938 44.09375 -18.640625 C 44.125 -18.941406 43.992188 -19.09375 43.703125 -19.09375 L 39.96875 -19.09375 C 39.375 -19.09375 38.851562 -19.3125 38.40625 -19.75 C 37.957031 -20.195312 37.734375 -20.726562 37.734375 -21.34375 C 37.734375 -21.957031 37.957031 -22.488281 38.40625 -22.9375 C 38.851562 -23.382812 39.375 -23.609375 39.96875 -23.609375 L 43.859375 -23.609375 C 44.160156 -23.609375 44.3125 -23.734375 44.3125 -23.984375 C 44.3125 -24.578125 44.335938 -25.445312 44.390625 -26.59375 C 44.441406 -27.75 44.488281 -28.625 44.53125 -29.21875 C 44.53125 -29.476562 44.382812 -29.609375 44.09375 -29.609375 L 40.015625 -29.609375 C 39.421875 -29.609375 38.910156 -29.832031 38.484375 -30.28125 C 38.066406 -30.726562 37.859375 -31.25 37.859375 -31.84375 C 37.859375 -32.4375 38.066406 -32.945312 38.484375 -33.375 C 38.910156 -33.800781 39.421875 -34.015625 40.015625 -34.015625 L 44.140625 -34.015625 C 44.441406 -34.015625 44.59375 -34.160156 44.59375 -34.453125 C 44.664062 -36.566406 44.703125 -38.203125 44.703125 -39.359375 C 44.703125 -39.648438 44.550781 -39.796875 44.25 -39.796875 L 39.46875 -39.796875 C 38.832031 -39.796875 38.289062 -40.019531 37.84375 -40.46875 C 37.40625 -40.914062 37.1875 -41.453125 37.1875 -42.078125 C 37.1875 -42.710938 37.40625 -43.25 37.84375 -43.6875 C 38.289062 -44.132812 38.832031 -44.359375 39.46875 -44.359375 L 46.25 -44.359375 C 47.144531 -44.359375 47.910156 -44.023438 48.546875 -43.359375 C 49.171875 -42.734375 49.484375 -41.972656 49.484375 -41.078125 C 49.484375 -31.242188 49.242188 -22.097656 48.765625 -13.640625 Z M 48.765625 -13.640625 "/></g></g><g transform="translate(299.516765, 637.199988)"><g><path d="M 41.359375 -12.46875 C 40.835938 -11.945312 40.207031 -11.6875 39.46875 -11.6875 C 38.726562 -11.6875 38.101562 -11.945312 37.59375 -12.46875 C 37.09375 -12.988281 36.84375 -13.617188 36.84375 -14.359375 L 36.84375 -45.03125 C 36.84375 -45.957031 37.160156 -46.734375 37.796875 -47.359375 C 38.429688 -47.992188 39.210938 -48.3125 40.140625 -48.3125 L 52.71875 -48.3125 C 53.382812 -48.3125 53.957031 -48.078125 54.4375 -47.609375 C 54.914062 -47.148438 55.15625 -46.578125 55.15625 -45.890625 C 55.15625 -45.203125 54.914062 -44.617188 54.4375 -44.140625 C 53.957031 -43.660156 53.382812 -43.421875 52.71875 -43.421875 L 42.53125 -43.421875 C 42.269531 -43.421875 42.140625 -43.289062 42.140625 -43.03125 L 42.140625 -14.359375 C 42.140625 -13.617188 41.878906 -12.988281 41.359375 -12.46875 Z M 41.359375 -12.46875 "/></g></g><g transform="translate(356.516762, 637.199988)"><g><path d="M 31.5 -13.359375 C 31.207031 -13.359375 31.0625 -13.210938 31.0625 -12.921875 L 31.0625 -3.78125 C 31.0625 -3.519531 31.191406 -3.375 31.453125 -3.34375 C 34.015625 -2.851562 37.1875 -2.609375 40.96875 -2.609375 C 42.269531 -2.578125 43.789062 -2.5625 45.53125 -2.5625 C 47.425781 -2.5625 49.597656 -2.578125 52.046875 -2.609375 C 52.679688 -2.609375 53.164062 -2.351562 53.5 -1.84375 C 53.71875 -1.539062 53.828125 -1.203125 53.828125 -0.828125 C 53.828125 -0.609375 53.769531 -0.390625 53.65625 -0.171875 C 53.394531 0.609375 52.941406 1.25 52.296875 1.75 C 51.648438 2.25 50.9375 2.5 50.15625 2.5 L 40.75 2.5 C 34.25 2.5 28.867188 1.703125 24.609375 0.109375 C 20.410156 -1.453125 16.976562 -4.3125 14.3125 -8.46875 C 14.269531 -8.539062 14.203125 -8.566406 14.109375 -8.546875 C 14.015625 -8.523438 13.953125 -8.476562 13.921875 -8.40625 C 12.316406 -4.25 10.273438 -0.925781 7.796875 1.5625 C 7.304688 2.039062 6.726562 2.28125 6.0625 2.28125 C 6.03125 2.28125 5.976562 2.28125 5.90625 2.28125 C 5.195312 2.25 4.566406 1.972656 4.015625 1.453125 C 3.492188 1.003906 3.234375 0.425781 3.234375 -0.28125 C 3.234375 -0.90625 3.453125 -1.441406 3.890625 -1.890625 C 7.898438 -6.015625 10.519531 -12.210938 11.75 -20.484375 C 11.851562 -21.222656 12.203125 -21.835938 12.796875 -22.328125 C 13.316406 -22.691406 13.875 -22.875 14.46875 -22.875 C 14.582031 -22.875 14.695312 -22.875 14.8125 -22.875 C 15.582031 -22.800781 16.191406 -22.453125 16.640625 -21.828125 C 17.015625 -21.378906 17.203125 -20.875 17.203125 -20.3125 C 17.203125 -20.164062 17.179688 -20 17.140625 -19.8125 C 16.847656 -18.257812 16.515625 -16.757812 16.140625 -15.3125 C 16.066406 -15.050781 16.085938 -14.789062 16.203125 -14.53125 C 18.273438 -10.144531 21.296875 -7.023438 25.265625 -5.171875 C 25.378906 -5.140625 25.472656 -5.148438 25.546875 -5.203125 C 25.617188 -5.253906 25.65625 -5.335938 25.65625 -5.453125 L 25.65625 -25.71875 C 25.65625 -26.007812 25.523438 -26.15625 25.265625 -26.15625 L 6.125 -26.15625 C 5.457031 -26.15625 4.878906 -26.394531 4.390625 -26.875 C 3.910156 -27.363281 3.671875 -27.953125 3.671875 -28.640625 C 3.671875 -29.328125 3.910156 -29.910156 4.390625 -30.390625 C 4.878906 -30.867188 5.457031 -31.109375 6.125 -31.109375 L 25.15625 -31.109375 C 25.457031 -31.109375 25.609375 -31.238281 25.609375 -31.5 L 25.609375 -37.515625 C 25.609375 -37.773438 25.457031 -37.90625 25.15625 -37.90625 L 11.078125 -37.90625 C 10.410156 -37.90625 9.832031 -38.144531 9.34375 -38.625 C 8.863281 -39.113281 8.625 -39.691406 8.625 -40.359375 C 8.625 -41.023438 8.863281 -41.597656 9.34375 -42.078125 C 9.832031 -42.566406 10.410156 -42.8125 11.078125 -42.8125 L 25.15625 -42.8125 C 25.457031 -42.8125 25.609375 -42.941406 25.609375 -43.203125 L 25.609375 -46.3125 C 25.609375 -47.09375 25.867188 -47.742188 26.390625 -48.265625 C 26.910156 -48.785156 27.550781 -49.046875 28.3125 -49.046875 C 29.070312 -49.046875 29.707031 -48.785156 30.21875 -48.265625 C 30.738281 -47.742188 31 -47.09375 31 -46.3125 L 31 -43.203125 C 31 -42.941406 31.128906 -42.8125 31.390625 -42.8125 L 46.640625 -42.8125 C 47.316406 -42.8125 47.894531 -42.566406 48.375 -42.078125 C 48.851562 -41.597656 49.09375 -41.023438 49.09375 -40.359375 C 49.09375 -39.691406 48.851562 -39.113281 48.375 -38.625 C 47.894531 -38.144531 47.316406 -37.90625 46.640625 -37.90625 L 31.390625 -37.90625 C 31.128906 -37.90625 31 -37.773438 31 -37.515625 L 31 -31.5 C 31 -31.238281 31.128906 -31.109375 31.390625 -31.109375 L 50.765625 -31.109375 C 51.472656 -31.109375 52.066406 -30.867188 52.546875 -30.390625 C 53.023438 -29.910156 53.265625 -29.328125 53.265625 -28.640625 C 53.265625 -27.953125 53.023438 -27.363281 52.546875 -26.875 C 52.066406 -26.394531 51.472656 -26.15625 50.765625 -26.15625 L 31.5 -26.15625 C 31.207031 -26.15625 31.0625 -26.007812 31.0625 -25.71875 L 31.0625 -18.59375 C 31.0625 -18.289062 31.207031 -18.140625 31.5 -18.140625 L 47.140625 -18.140625 C 47.816406 -18.140625 48.382812 -17.90625 48.84375 -17.4375 C 49.3125 -16.976562 49.546875 -16.414062 49.546875 -15.75 C 49.546875 -15.082031 49.3125 -14.515625 48.84375 -14.046875 C 48.382812 -13.585938 47.816406 -13.359375 47.140625 -13.359375 Z M 31.5 -13.359375 "/></g></g><g transform="translate(413.516759, 637.199988)"><g><path d="M 13.75 -27.5 C 14.039062 -27.5 14.1875 -27.628906 14.1875 -27.890625 L 14.1875 -35.625 C 14.1875 -35.882812 14.039062 -36.015625 13.75 -36.015625 L 5.015625 -36.015625 C 4.421875 -36.015625 3.910156 -36.226562 3.484375 -36.65625 C 3.054688 -37.082031 2.84375 -37.59375 2.84375 -38.1875 C 2.84375 -38.78125 3.054688 -39.289062 3.484375 -39.71875 C 3.910156 -40.144531 4.421875 -40.359375 5.015625 -40.359375 L 8.84375 -40.359375 C 8.957031 -40.359375 9.050781 -40.40625 9.125 -40.5 C 9.195312 -40.59375 9.21875 -40.675781 9.1875 -40.75 C 8.851562 -41.863281 8.351562 -43.085938 7.6875 -44.421875 C 7.425781 -44.898438 7.394531 -45.390625 7.59375 -45.890625 C 7.800781 -46.390625 8.164062 -46.734375 8.6875 -46.921875 C 8.976562 -46.992188 9.253906 -47.03125 9.515625 -47.03125 C 9.847656 -47.03125 10.164062 -46.976562 10.46875 -46.875 C 11.0625 -46.644531 11.503906 -46.253906 11.796875 -45.703125 C 12.097656 -45.140625 12.378906 -44.582031 12.640625 -44.03125 C 12.785156 -43.695312 12.859375 -43.363281 12.859375 -43.03125 C 12.859375 -42.65625 12.765625 -42.285156 12.578125 -41.921875 C 12.242188 -41.210938 11.707031 -40.726562 10.96875 -40.46875 C 10.925781 -40.46875 10.90625 -40.445312 10.90625 -40.40625 C 10.90625 -40.375 10.925781 -40.359375 10.96875 -40.359375 L 22.328125 -40.359375 C 22.359375 -40.359375 22.375 -40.375 22.375 -40.40625 C 22.375 -40.445312 22.375 -40.46875 22.375 -40.46875 C 21.59375 -40.65625 21.035156 -41.117188 20.703125 -41.859375 C 20.554688 -42.234375 20.484375 -42.601562 20.484375 -42.96875 C 20.484375 -43.34375 20.578125 -43.71875 20.765625 -44.09375 C 20.953125 -44.53125 21.15625 -44.992188 21.375 -45.484375 C 21.675781 -46.109375 22.125 -46.585938 22.71875 -46.921875 C 23.125 -47.148438 23.546875 -47.265625 23.984375 -47.265625 C 24.210938 -47.265625 24.421875 -47.222656 24.609375 -47.140625 C 25.203125 -47.035156 25.628906 -46.703125 25.890625 -46.140625 C 26.148438 -45.585938 26.148438 -45.03125 25.890625 -44.46875 C 25.140625 -43.132812 24.414062 -41.875 23.71875 -40.6875 C 23.675781 -40.613281 23.671875 -40.539062 23.703125 -40.46875 C 23.742188 -40.394531 23.800781 -40.359375 23.875 -40.359375 L 28.171875 -40.359375 C 28.765625 -40.359375 29.273438 -40.144531 29.703125 -39.71875 C 30.128906 -39.289062 30.34375 -38.78125 30.34375 -38.1875 C 30.34375 -37.59375 30.128906 -37.082031 29.703125 -36.65625 C 29.273438 -36.226562 28.765625 -36.015625 28.171875 -36.015625 L 19.3125 -36.015625 C 19.050781 -36.015625 18.921875 -35.882812 18.921875 -35.625 L 18.921875 -27.890625 C 18.921875 -27.628906 19.050781 -27.5 19.3125 -27.5 L 23.71875 -27.5 C 23.976562 -27.5 24.109375 -27.628906 24.109375 -27.890625 L 24.109375 -31.890625 C 24.109375 -32.523438 24.320312 -33.046875 24.75 -33.453125 C 25.175781 -33.859375 25.6875 -34.0625 26.28125 -34.0625 C 26.875 -34.0625 27.378906 -33.859375 27.796875 -33.453125 C 28.222656 -33.046875 28.4375 -32.523438 28.4375 -31.890625 L 28.4375 -23.875 C 28.4375 -23.28125 28.222656 -22.769531 27.796875 -22.34375 C 27.378906 -21.914062 26.875 -21.703125 26.28125 -21.703125 L 25.609375 -21.703125 C 25.203125 -21.703125 24.847656 -21.847656 24.546875 -22.140625 C 24.253906 -22.441406 24.109375 -22.800781 24.109375 -23.21875 C 24.109375 -23.363281 24.050781 -23.4375 23.9375 -23.4375 L 19.203125 -23.4375 C 18.941406 -23.4375 18.796875 -23.285156 18.765625 -22.984375 C 18.460938 -20.835938 17.679688 -18.921875 16.421875 -17.234375 C 15.160156 -15.546875 13.15625 -14.125 10.40625 -12.96875 C 10.039062 -12.820312 9.671875 -12.75 9.296875 -12.75 C 8.992188 -12.75 8.695312 -12.804688 8.40625 -12.921875 C 7.738281 -13.140625 7.164062 -13.546875 6.6875 -14.140625 C 6.3125 -14.546875 6.1875 -15.015625 6.3125 -15.546875 C 6.445312 -16.085938 6.753906 -16.453125 7.234375 -16.640625 C 9.347656 -17.492188 10.914062 -18.441406 11.9375 -19.484375 C 12.957031 -20.523438 13.617188 -21.691406 13.921875 -22.984375 C 13.953125 -23.097656 13.929688 -23.203125 13.859375 -23.296875 C 13.785156 -23.390625 13.691406 -23.4375 13.578125 -23.4375 L 9.359375 -23.4375 C 9.171875 -23.4375 9.078125 -23.34375 9.078125 -23.15625 C 9.078125 -22.5625 8.863281 -22.0625 8.4375 -21.65625 C 8.007812 -21.25 7.515625 -21.046875 6.953125 -21.046875 L 6.90625 -21.046875 C 6.3125 -21.046875 5.800781 -21.257812 5.375 -21.6875 C 4.945312 -22.113281 4.734375 -22.625 4.734375 -23.21875 L 4.734375 -31.890625 C 4.734375 -32.523438 4.945312 -33.046875 5.375 -33.453125 C 5.800781 -33.859375 6.3125 -34.0625 6.90625 -34.0625 C 7.5 -34.0625 8.007812 -33.859375 8.4375 -33.453125 C 8.863281 -33.046875 9.078125 -32.523438 9.078125 -31.890625 L 9.078125 -27.890625 C 9.078125 -27.628906 9.207031 -27.5 9.46875 -27.5 Z M 47.203125 -40.796875 C 47.203125 -41.054688 47.054688 -41.1875 46.765625 -41.1875 L 37.90625 -41.1875 C 37.644531 -41.1875 37.515625 -41.054688 37.515625 -40.796875 L 37.515625 -37.734375 C 37.515625 -37.472656 37.644531 -37.34375 37.90625 -37.34375 L 46.765625 -37.34375 C 47.054688 -37.34375 47.203125 -37.472656 47.203125 -37.734375 Z M 37.34375 -29.609375 C 37.34375 -29.316406 37.472656 -29.171875 37.734375 -29.171875 L 46.765625 -29.171875 C 47.054688 -29.171875 47.203125 -29.316406 47.203125 -29.609375 L 47.203125 -32.953125 C 47.203125 -33.210938 47.054688 -33.34375 46.765625 -33.34375 L 37.90625 -33.34375 C 37.644531 -33.34375 37.515625 -33.210938 37.515625 -32.953125 C 37.484375 -31.835938 37.425781 -30.722656 37.34375 -29.609375 Z M 31.0625 -2.0625 C 31.0625 -1.800781 31.207031 -1.671875 31.5 -1.671875 L 51.828125 -1.671875 C 52.453125 -1.671875 52.992188 -1.4375 53.453125 -0.96875 C 53.921875 -0.507812 54.15625 0.0390625 54.15625 0.6875 C 54.15625 1.34375 53.921875 1.890625 53.453125 2.328125 C 52.992188 2.773438 52.453125 3 51.828125 3 L 5.171875 3 C 4.546875 3 4 2.773438 3.53125 2.328125 C 3.070312 1.890625 2.84375 1.34375 2.84375 0.6875 C 2.84375 0.0390625 3.070312 -0.507812 3.53125 -0.96875 C 4 -1.4375 4.546875 -1.671875 5.171875 -1.671875 L 25.21875 -1.671875 C 25.507812 -1.671875 25.65625 -1.800781 25.65625 -2.0625 L 25.65625 -6.5625 C 25.65625 -6.863281 25.507812 -7.015625 25.21875 -7.015625 L 10.90625 -7.015625 C 10.28125 -7.015625 9.753906 -7.234375 9.328125 -7.671875 C 8.898438 -8.117188 8.6875 -8.648438 8.6875 -9.265625 C 8.6875 -9.878906 8.898438 -10.40625 9.328125 -10.84375 C 9.753906 -11.289062 10.28125 -11.515625 10.90625 -11.515625 L 25.21875 -11.515625 C 25.507812 -11.515625 25.65625 -11.644531 25.65625 -11.90625 C 25.65625 -12.800781 25.96875 -13.5625 26.59375 -14.1875 C 27.226562 -14.820312 27.992188 -15.140625 28.890625 -15.140625 L 29.328125 -15.140625 C 29.410156 -15.140625 29.457031 -15.175781 29.46875 -15.25 C 29.488281 -15.320312 29.460938 -15.378906 29.390625 -15.421875 C 29.316406 -15.492188 29.222656 -15.550781 29.109375 -15.59375 C 28.484375 -16.070312 28.132812 -16.703125 28.0625 -17.484375 C 28.0625 -17.585938 28.0625 -17.675781 28.0625 -17.75 C 28.0625 -18.457031 28.28125 -19.070312 28.71875 -19.59375 C 30.351562 -21.488281 31.4375 -23.578125 31.96875 -25.859375 C 32.507812 -28.140625 32.78125 -30.671875 32.78125 -33.453125 L 32.78125 -42.25 C 32.78125 -43.175781 33.09375 -43.953125 33.71875 -44.578125 C 34.351562 -45.210938 35.140625 -45.53125 36.078125 -45.53125 L 48.921875 -45.53125 C 49.816406 -45.53125 50.585938 -45.210938 51.234375 -44.578125 C 51.890625 -43.953125 52.21875 -43.175781 52.21875 -42.25 L 52.21875 -19.53125 C 52.21875 -18.269531 52.054688 -17.285156 51.734375 -16.578125 C 51.421875 -15.878906 50.859375 -15.328125 50.046875 -14.921875 C 49.003906 -14.429688 47.257812 -14.148438 44.8125 -14.078125 C 44.8125 -14.078125 44.789062 -14.078125 44.75 -14.078125 C 44.082031 -14.078125 43.488281 -14.300781 42.96875 -14.75 C 42.414062 -15.195312 42.023438 -15.773438 41.796875 -16.484375 C 41.617188 -17.035156 41.695312 -17.550781 42.03125 -18.03125 C 42.363281 -18.519531 42.828125 -18.742188 43.421875 -18.703125 C 44.304688 -18.703125 45.25 -18.703125 46.25 -18.703125 C 46.625 -18.703125 46.875 -18.765625 47 -18.890625 C 47.132812 -19.023438 47.203125 -19.257812 47.203125 -19.59375 L 47.203125 -24.71875 C 47.203125 -25.007812 47.054688 -25.15625 46.765625 -25.15625 L 37.078125 -25.15625 C 36.773438 -25.15625 36.609375 -25.007812 36.578125 -24.71875 C 35.535156 -20.707031 33.675781 -17.535156 31 -15.203125 L 31 -15.140625 C 31.039062 -15.140625 31.0625 -15.117188 31.0625 -15.078125 L 31.0625 -11.90625 C 31.0625 -11.644531 31.191406 -11.515625 31.453125 -11.515625 L 46.09375 -11.515625 C 46.71875 -11.515625 47.242188 -11.289062 47.671875 -10.84375 C 48.097656 -10.40625 48.3125 -9.878906 48.3125 -9.265625 C 48.3125 -8.648438 48.097656 -8.117188 47.671875 -7.671875 C 47.242188 -7.234375 46.71875 -7.015625 46.09375 -7.015625 L 31.5 -7.015625 C 31.207031 -7.015625 31.0625 -6.863281 31.0625 -6.5625 Z M 31.0625 -2.0625 "/></g></g><g transform="translate(470.516757, 637.199988)"><g><path d="M 22.65625 0.71875 C 16.90625 0.71875 12.226562 -1.195312 8.625 -5.03125 C 5.03125 -8.875 3.234375 -14.15625 3.234375 -20.875 C 3.234375 -27.550781 5.066406 -32.863281 8.734375 -36.8125 C 12.410156 -40.769531 17.109375 -42.75 22.828125 -42.75 C 26.753906 -42.75 30.222656 -41.597656 33.234375 -39.296875 C 33.898438 -38.773438 34.234375 -38.085938 34.234375 -37.234375 C 34.234375 -36.535156 33.992188 -35.90625 33.515625 -35.34375 C 33.023438 -34.789062 32.394531 -34.492188 31.625 -34.453125 C 31.582031 -34.453125 31.523438 -34.453125 31.453125 -34.453125 C 30.742188 -34.453125 30.128906 -34.640625 29.609375 -35.015625 C 27.722656 -36.347656 25.535156 -37.015625 23.046875 -37.015625 C 19.109375 -37.015625 15.953125 -35.582031 13.578125 -32.71875 C 11.203125 -29.863281 10.015625 -25.988281 10.015625 -21.09375 C 10.015625 -16.050781 11.15625 -12.109375 13.4375 -9.265625 C 15.71875 -6.429688 19.015625 -5.015625 23.328125 -5.015625 C 25.921875 -5.015625 28.015625 -5.609375 29.609375 -6.796875 C 29.835938 -6.972656 29.953125 -7.191406 29.953125 -7.453125 L 29.953125 -16.53125 C 29.953125 -16.789062 29.800781 -16.921875 29.5 -16.921875 L 24.328125 -16.921875 C 23.585938 -16.921875 22.945312 -17.1875 22.40625 -17.71875 C 21.863281 -18.257812 21.59375 -18.898438 21.59375 -19.640625 C 21.59375 -20.390625 21.863281 -21.023438 22.40625 -21.546875 C 22.945312 -22.066406 23.585938 -22.328125 24.328125 -22.328125 L 32.625 -22.328125 C 33.550781 -22.328125 34.328125 -22.007812 34.953125 -21.375 C 35.585938 -20.738281 35.90625 -19.957031 35.90625 -19.03125 L 35.90625 -7.453125 C 35.90625 -4.972656 35.050781 -3.191406 33.34375 -2.109375 C 30.257812 -0.222656 26.695312 0.71875 22.65625 0.71875 Z M 22.65625 0.71875 "/></g></g><g transform="translate(510.427887, 637.199988)"><g><path d="M 8.796875 0 C 7.898438 0 7.128906 -0.320312 6.484375 -0.96875 C 5.835938 -1.625 5.515625 -2.394531 5.515625 -3.28125 L 5.515625 -38.6875 C 5.515625 -39.570312 5.835938 -40.335938 6.484375 -40.984375 C 7.128906 -41.640625 7.898438 -41.96875 8.796875 -41.96875 L 18.265625 -41.96875 C 28.910156 -41.96875 34.234375 -37.738281 34.234375 -29.28125 C 34.234375 -24.863281 32.796875 -21.53125 29.921875 -19.28125 C 27.046875 -17.039062 23.234375 -15.921875 18.484375 -15.921875 L 12.578125 -15.921875 C 12.285156 -15.921875 12.140625 -15.769531 12.140625 -15.46875 L 12.140625 -3.28125 C 12.140625 -2.394531 11.820312 -1.625 11.1875 -0.96875 C 10.5625 -0.320312 9.78125 0 8.84375 0 Z M 12.140625 -21.59375 C 12.140625 -21.332031 12.285156 -21.203125 12.578125 -21.203125 L 17.875 -21.203125 C 21.207031 -21.203125 23.691406 -21.859375 25.328125 -23.171875 C 26.960938 -24.492188 27.78125 -26.53125 27.78125 -29.28125 C 27.78125 -31.988281 26.953125 -33.890625 25.296875 -34.984375 C 23.648438 -36.078125 21.082031 -36.625 17.59375 -36.625 L 12.578125 -36.625 C 12.285156 -36.625 12.140625 -36.492188 12.140625 -36.234375 Z M 12.140625 -21.59375 "/></g></g><g transform="translate(547.277495, 637.199988)"><g><path d="M 17.484375 0.71875 C 12.765625 0.71875 8.550781 -0.671875 4.84375 -3.453125 C 4.101562 -3.972656 3.734375 -4.710938 3.734375 -5.671875 C 3.734375 -6.453125 3.992188 -7.125 4.515625 -7.6875 C 5.023438 -8.3125 5.691406 -8.644531 6.515625 -8.6875 C 6.585938 -8.6875 6.660156 -8.6875 6.734375 -8.6875 C 7.472656 -8.6875 8.140625 -8.484375 8.734375 -8.078125 C 11.554688 -6.035156 14.507812 -5.015625 17.59375 -5.015625 C 20.113281 -5.015625 22.066406 -5.550781 23.453125 -6.625 C 24.847656 -7.695312 25.546875 -9.144531 25.546875 -10.96875 C 25.546875 -11.707031 25.414062 -12.375 25.15625 -12.96875 C 24.894531 -13.5625 24.613281 -14.050781 24.3125 -14.4375 C 24.019531 -14.832031 23.507812 -15.25 22.78125 -15.6875 C 22.0625 -16.132812 21.476562 -16.460938 21.03125 -16.671875 C 20.59375 -16.878906 19.851562 -17.203125 18.8125 -17.640625 L 12.96875 -20.15625 C 7.289062 -22.5625 4.453125 -26.234375 4.453125 -31.171875 C 4.453125 -34.472656 5.75 -37.226562 8.34375 -39.4375 C 10.945312 -41.644531 14.253906 -42.75 18.265625 -42.75 C 22.160156 -42.75 25.703125 -41.582031 28.890625 -39.25 C 29.554688 -38.757812 29.890625 -38.070312 29.890625 -37.1875 C 29.890625 -36.476562 29.664062 -35.863281 29.21875 -35.34375 C 28.738281 -34.789062 28.128906 -34.476562 27.390625 -34.40625 C 27.273438 -34.363281 27.160156 -34.34375 27.046875 -34.34375 C 26.421875 -34.34375 25.847656 -34.53125 25.328125 -34.90625 C 23.140625 -36.3125 20.785156 -37.015625 18.265625 -37.015625 C 16.109375 -37.015625 14.390625 -36.519531 13.109375 -35.53125 C 11.828125 -34.550781 11.1875 -33.226562 11.1875 -31.5625 C 11.1875 -30.894531 11.328125 -30.265625 11.609375 -29.671875 C 11.890625 -29.078125 12.203125 -28.582031 12.546875 -28.1875 C 12.898438 -27.800781 13.429688 -27.410156 14.140625 -27.015625 C 14.847656 -26.628906 15.429688 -26.320312 15.890625 -26.09375 C 16.359375 -25.875 17.054688 -25.597656 17.984375 -25.265625 L 23.71875 -22.828125 C 26.457031 -21.640625 28.566406 -20.160156 30.046875 -18.390625 C 31.535156 -16.628906 32.28125 -14.320312 32.28125 -11.46875 C 32.28125 -7.976562 30.9375 -5.070312 28.25 -2.75 C 25.5625 -0.4375 21.972656 0.71875 17.484375 0.71875 Z M 17.484375 0.71875 "/></g></g><g transform="translate(581.900541, 637.199988)"><g><path d="M 15.640625 -30.84375 C 16.160156 -31.363281 16.789062 -31.625 17.53125 -31.625 C 18.269531 -31.625 18.890625 -31.363281 19.390625 -30.84375 C 19.898438 -30.320312 20.15625 -29.707031 20.15625 -29 L 20.15625 1.71875 C 20.15625 2.65625 19.835938 3.4375 19.203125 4.0625 C 18.578125 4.695312 17.796875 5.015625 16.859375 5.015625 L 4.28125 5.015625 C 3.613281 5.015625 3.039062 4.769531 2.5625 4.28125 C 2.082031 3.800781 1.84375 3.226562 1.84375 2.5625 C 1.84375 1.894531 2.082031 1.316406 2.5625 0.828125 C 3.039062 0.347656 3.613281 0.109375 4.28125 0.109375 L 14.46875 0.109375 C 14.726562 0.109375 14.859375 -0.0195312 14.859375 -0.28125 L 14.859375 -29 C 14.859375 -29.707031 15.117188 -30.320312 15.640625 -30.84375 Z M 15.640625 -30.84375 "/></g></g></g><g fill="rgb(30.198669%, 81.959534%, 44.309998%)" fill-opacity="1"><g transform="translate(242.516768, 716.699984)"><g><path d="M 47.03125 -11.96875 C 47.101562 -12.039062 47.117188 -12.101562 47.078125 -12.15625 C 47.046875 -12.21875 46.992188 -12.25 46.921875 -12.25 L 36.234375 -12.25 C 36.128906 -12.25 36.054688 -12.210938 36.015625 -12.140625 C 35.972656 -12.066406 35.972656 -11.988281 36.015625 -11.90625 C 36.984375 -10.238281 38.132812 -8.71875 39.46875 -7.34375 C 39.6875 -7.15625 39.910156 -7.140625 40.140625 -7.296875 C 42.847656 -8.890625 45.144531 -10.445312 47.03125 -11.96875 Z M 28.0625 -21.65625 C 27.800781 -21.65625 27.671875 -21.523438 27.671875 -21.265625 L 27.671875 -17.140625 C 27.671875 -16.847656 27.800781 -16.703125 28.0625 -16.703125 L 37.34375 -16.703125 C 37.644531 -16.703125 37.796875 -16.847656 37.796875 -17.140625 L 37.796875 -21.265625 C 37.796875 -21.523438 37.644531 -21.65625 37.34375 -21.65625 Z M 28.0625 -30.734375 C 27.800781 -30.734375 27.671875 -30.582031 27.671875 -30.28125 L 27.671875 -26.609375 C 27.671875 -26.304688 27.800781 -26.15625 28.0625 -26.15625 L 37.34375 -26.15625 C 37.644531 -26.15625 37.796875 -26.304688 37.796875 -26.609375 L 37.796875 -30.28125 C 37.796875 -30.582031 37.644531 -30.734375 37.34375 -30.734375 Z M 13.6875 -40.6875 C 13.425781 -40.6875 13.296875 -40.554688 13.296875 -40.296875 L 13.296875 -35.6875 C 13.296875 -35.425781 13.425781 -35.296875 13.6875 -35.296875 L 45.140625 -35.296875 C 45.398438 -35.296875 45.53125 -35.425781 45.53125 -35.6875 L 45.53125 -40.296875 C 45.53125 -40.554688 45.398438 -40.6875 45.140625 -40.6875 Z M 48.09375 -12.25 C 48.019531 -12.25 47.972656 -12.21875 47.953125 -12.15625 C 47.929688 -12.101562 47.941406 -12.0625 47.984375 -12.03125 L 48.765625 -11.46875 C 49.429688 -11.019531 49.765625 -10.390625 49.765625 -9.578125 C 49.765625 -8.796875 49.429688 -8.179688 48.765625 -7.734375 C 47.273438 -6.773438 45.507812 -5.71875 43.46875 -4.5625 C 43.363281 -4.53125 43.3125 -4.46875 43.3125 -4.375 C 43.3125 -4.28125 43.347656 -4.210938 43.421875 -4.171875 C 45.984375 -2.535156 48.859375 -1.273438 52.046875 -0.390625 C 52.597656 -0.242188 52.96875 0.113281 53.15625 0.6875 C 53.34375 1.269531 53.269531 1.800781 52.9375 2.28125 C 52.457031 2.945312 51.863281 3.429688 51.15625 3.734375 C 50.75 3.878906 50.320312 3.953125 49.875 3.953125 C 49.582031 3.953125 49.265625 3.914062 48.921875 3.84375 C 40.609375 1.132812 34.617188 -4.097656 30.953125 -11.859375 C 30.835938 -12.117188 30.632812 -12.25 30.34375 -12.25 L 25.15625 -12.25 C 24.863281 -12.25 24.71875 -12.117188 24.71875 -11.859375 L 24.71875 -3.125 C 24.71875 -2.820312 24.863281 -2.691406 25.15625 -2.734375 C 25.75 -2.835938 28.535156 -3.28125 33.515625 -4.0625 C 34.109375 -4.132812 34.644531 -3.988281 35.125 -3.625 C 35.644531 -3.175781 35.90625 -2.617188 35.90625 -1.953125 C 35.90625 -1.359375 35.703125 -0.816406 35.296875 -0.328125 C 34.878906 0.191406 34.335938 0.503906 33.671875 0.609375 C 26.773438 1.722656 21.171875 2.632812 16.859375 3.34375 C 16.710938 3.34375 16.566406 3.34375 16.421875 3.34375 C 15.898438 3.34375 15.4375 3.191406 15.03125 2.890625 C 14.46875 2.484375 14.132812 1.945312 14.03125 1.28125 C 13.988281 1.132812 13.96875 1.003906 13.96875 0.890625 C 13.96875 0.367188 14.132812 -0.09375 14.46875 -0.5 C 14.875 -1.0625 15.414062 -1.378906 16.09375 -1.453125 C 17.195312 -1.597656 18.304688 -1.765625 19.421875 -1.953125 C 19.679688 -1.984375 19.8125 -2.128906 19.8125 -2.390625 L 19.8125 -11.859375 C 19.8125 -12.117188 19.679688 -12.25 19.421875 -12.25 L 15.46875 -12.25 C 14.84375 -12.25 14.316406 -12.46875 13.890625 -12.90625 C 13.460938 -13.351562 13.25 -13.882812 13.25 -14.5 C 13.25 -15.113281 13.460938 -15.632812 13.890625 -16.0625 C 14.316406 -16.488281 14.84375 -16.703125 15.46875 -16.703125 L 22.375 -16.703125 C 22.675781 -16.703125 22.828125 -16.847656 22.828125 -17.140625 L 22.828125 -21.265625 C 22.828125 -21.523438 22.675781 -21.65625 22.375 -21.65625 L 17.140625 -21.65625 C 16.515625 -21.65625 15.976562 -21.875 15.53125 -22.3125 C 15.082031 -22.757812 14.859375 -23.289062 14.859375 -23.90625 C 14.859375 -24.519531 15.082031 -25.046875 15.53125 -25.484375 C 15.976562 -25.929688 16.515625 -26.15625 17.140625 -26.15625 L 22.375 -26.15625 C 22.675781 -26.15625 22.828125 -26.304688 22.828125 -26.609375 L 22.828125 -30.28125 C 22.828125 -30.582031 22.675781 -30.734375 22.375 -30.734375 L 13.6875 -30.734375 C 13.425781 -30.734375 13.296875 -30.582031 13.296875 -30.28125 L 13.296875 -28.609375 C 13.296875 -15.066406 11.5 -4.785156 7.90625 2.234375 C 7.570312 2.859375 7.050781 3.242188 6.34375 3.390625 C 6.125 3.429688 5.921875 3.453125 5.734375 3.453125 C 5.210938 3.453125 4.726562 3.320312 4.28125 3.0625 C 3.65625 2.6875 3.25 2.148438 3.0625 1.453125 C 2.988281 1.191406 2.953125 0.929688 2.953125 0.671875 C 2.953125 0.265625 3.046875 -0.144531 3.234375 -0.5625 C 4.265625 -2.5625 5.125 -4.785156 5.8125 -7.234375 C 6.5 -9.679688 6.984375 -12.210938 7.265625 -14.828125 C 7.546875 -17.453125 7.726562 -19.773438 7.8125 -21.796875 C 7.90625 -23.816406 7.953125 -26.085938 7.953125 -28.609375 L 7.953125 -41.96875 C 7.953125 -42.863281 8.273438 -43.632812 8.921875 -44.28125 C 9.578125 -44.925781 10.351562 -45.25 11.25 -45.25 L 47.53125 -45.25 C 48.457031 -45.25 49.238281 -44.925781 49.875 -44.28125 C 50.507812 -43.632812 50.828125 -42.863281 50.828125 -41.96875 L 50.828125 -34.015625 C 50.828125 -33.085938 50.507812 -32.304688 49.875 -31.671875 C 49.238281 -31.046875 48.457031 -30.734375 47.53125 -30.734375 L 43.203125 -30.734375 C 42.898438 -30.734375 42.75 -30.582031 42.75 -30.28125 L 42.75 -26.609375 C 42.75 -26.304688 42.898438 -26.15625 43.203125 -26.15625 L 49.4375 -26.15625 C 50.0625 -26.15625 50.597656 -25.929688 51.046875 -25.484375 C 51.492188 -25.046875 51.71875 -24.519531 51.71875 -23.90625 C 51.71875 -23.289062 51.492188 -22.757812 51.046875 -22.3125 C 50.597656 -21.875 50.0625 -21.65625 49.4375 -21.65625 L 43.203125 -21.65625 C 42.898438 -21.65625 42.75 -21.523438 42.75 -21.265625 L 42.75 -17.140625 C 42.75 -16.847656 42.898438 -16.703125 43.203125 -16.703125 L 51.828125 -16.703125 C 52.421875 -16.703125 52.9375 -16.488281 53.375 -16.0625 C 53.820312 -15.632812 54.046875 -15.113281 54.046875 -14.5 C 54.046875 -13.882812 53.820312 -13.351562 53.375 -12.90625 C 52.9375 -12.46875 52.421875 -12.25 51.828125 -12.25 Z M 48.09375 -12.25 "/></g></g><g transform="translate(299.516765, 716.699984)"><g><path d="M 21.265625 -41.1875 C 21.265625 -41.488281 21.113281 -41.640625 20.8125 -41.640625 L 10.75 -41.640625 C 10.445312 -41.640625 10.296875 -41.488281 10.296875 -41.1875 L 10.296875 -38.1875 C 10.296875 -37.925781 10.445312 -37.796875 10.75 -37.796875 L 20.8125 -37.796875 C 21.113281 -37.796875 21.265625 -37.925781 21.265625 -38.1875 Z M 10.296875 -30.390625 C 10.296875 -30.128906 10.445312 -30 10.75 -30 L 20.8125 -30 C 21.113281 -30 21.265625 -30.128906 21.265625 -30.390625 L 21.265625 -33.734375 C 21.265625 -33.992188 21.113281 -34.125 20.8125 -34.125 L 10.75 -34.125 C 10.445312 -34.125 10.296875 -33.992188 10.296875 -33.734375 Z M 26.21875 -29.390625 C 26.21875 -28.503906 25.890625 -27.734375 25.234375 -27.078125 C 24.585938 -26.429688 23.820312 -26.109375 22.9375 -26.109375 L 10.75 -26.109375 C 10.445312 -26.109375 10.296875 -25.957031 10.296875 -25.65625 L 10.296875 1.890625 C 10.296875 2.597656 10.046875 3.210938 9.546875 3.734375 C 9.046875 4.253906 8.429688 4.515625 7.703125 4.515625 C 6.984375 4.515625 6.363281 4.253906 5.84375 3.734375 C 5.320312 3.210938 5.0625 2.597656 5.0625 1.890625 L 5.0625 -42.25 C 5.0625 -43.175781 5.382812 -43.953125 6.03125 -44.578125 C 6.6875 -45.210938 7.457031 -45.53125 8.34375 -45.53125 L 22.9375 -45.53125 C 23.820312 -45.53125 24.585938 -45.210938 25.234375 -44.578125 C 25.890625 -43.953125 26.21875 -43.175781 26.21875 -42.25 Z M 24.828125 -13.578125 C 24.828125 -13.316406 24.972656 -13.1875 25.265625 -13.1875 L 31.234375 -13.1875 C 31.492188 -13.1875 31.625 -13.316406 31.625 -13.578125 L 31.625 -18.140625 C 31.625 -18.441406 31.492188 -18.59375 31.234375 -18.59375 L 25.265625 -18.59375 C 24.972656 -18.59375 24.828125 -18.441406 24.828125 -18.140625 Z M 42.78125 -12.515625 C 43.207031 -12.078125 43.421875 -11.5625 43.421875 -10.96875 C 43.421875 -10.375 43.207031 -9.863281 42.78125 -9.4375 C 42.351562 -9.007812 41.84375 -8.796875 41.25 -8.796875 L 36.796875 -8.796875 C 36.492188 -8.796875 36.34375 -8.644531 36.34375 -8.34375 L 36.34375 1.109375 C 36.34375 1.773438 36.109375 2.332031 35.640625 2.78125 C 35.179688 3.226562 34.628906 3.453125 33.984375 3.453125 C 33.335938 3.453125 32.78125 3.226562 32.3125 2.78125 C 31.851562 2.332031 31.625 1.773438 31.625 1.109375 L 31.625 -8.34375 C 31.625 -8.644531 31.492188 -8.796875 31.234375 -8.796875 L 25.15625 -8.796875 C 24.863281 -8.796875 24.695312 -8.644531 24.65625 -8.34375 C 24.03125 -3.675781 22.175781 0.0664062 19.09375 2.890625 C 18.644531 3.265625 18.160156 3.453125 17.640625 3.453125 C 17.535156 3.453125 17.445312 3.453125 17.375 3.453125 C 16.738281 3.378906 16.160156 3.117188 15.640625 2.671875 C 15.234375 2.265625 15.035156 1.78125 15.046875 1.21875 C 15.066406 0.664062 15.285156 0.203125 15.703125 -0.171875 C 18.035156 -2.242188 19.484375 -4.96875 20.046875 -8.34375 C 20.117188 -8.644531 20.003906 -8.796875 19.703125 -8.796875 L 15.8125 -8.796875 C 15.21875 -8.796875 14.707031 -9.007812 14.28125 -9.4375 C 13.851562 -9.863281 13.640625 -10.375 13.640625 -10.96875 C 13.640625 -11.5625 13.851562 -12.078125 14.28125 -12.515625 C 14.707031 -12.960938 15.21875 -13.1875 15.8125 -13.1875 L 19.875 -13.1875 C 20.164062 -13.1875 20.3125 -13.316406 20.3125 -13.578125 L 20.3125 -18.140625 C 20.3125 -18.441406 20.164062 -18.59375 19.875 -18.59375 L 16.75 -18.59375 C 16.15625 -18.59375 15.65625 -18.796875 15.25 -19.203125 C 14.84375 -19.609375 14.640625 -20.097656 14.640625 -20.671875 C 14.640625 -21.253906 14.84375 -21.757812 15.25 -22.1875 C 15.65625 -22.613281 16.15625 -22.828125 16.75 -22.828125 L 40.1875 -22.828125 C 40.78125 -22.828125 41.28125 -22.613281 41.6875 -22.1875 C 42.101562 -21.757812 42.3125 -21.253906 42.3125 -20.671875 C 42.3125 -20.097656 42.101562 -19.609375 41.6875 -19.203125 C 41.28125 -18.796875 40.78125 -18.59375 40.1875 -18.59375 L 36.796875 -18.59375 C 36.492188 -18.59375 36.34375 -18.441406 36.34375 -18.140625 L 36.34375 -13.578125 C 36.34375 -13.316406 36.492188 -13.1875 36.796875 -13.1875 L 41.25 -13.1875 C 41.84375 -13.1875 42.351562 -12.960938 42.78125 -12.515625 Z M 35.6875 -30.28125 C 35.6875 -30.019531 35.832031 -29.890625 36.125 -29.890625 L 46.53125 -29.890625 C 46.832031 -29.890625 46.984375 -30.019531 46.984375 -30.28125 L 46.984375 -33.734375 C 46.984375 -33.992188 46.832031 -34.125 46.53125 -34.125 L 36.125 -34.125 C 35.832031 -34.125 35.6875 -33.992188 35.6875 -33.734375 Z M 46.984375 -41.1875 C 46.984375 -41.488281 46.832031 -41.640625 46.53125 -41.640625 L 36.125 -41.640625 C 35.832031 -41.640625 35.6875 -41.488281 35.6875 -41.1875 L 35.6875 -38.1875 C 35.6875 -37.925781 35.832031 -37.796875 36.125 -37.796875 L 46.53125 -37.796875 C 46.832031 -37.796875 46.984375 -37.925781 46.984375 -38.1875 Z M 48.921875 -45.53125 C 49.816406 -45.53125 50.585938 -45.210938 51.234375 -44.578125 C 51.890625 -43.953125 52.21875 -43.175781 52.21875 -42.25 L 52.21875 -2 C 52.21875 -0.519531 52.039062 0.625 51.6875 1.4375 C 51.332031 2.257812 50.691406 2.894531 49.765625 3.34375 C 48.503906 3.9375 46.441406 4.269531 43.578125 4.34375 C 43.546875 4.34375 43.53125 4.34375 43.53125 4.34375 C 42.789062 4.34375 42.101562 4.082031 41.46875 3.5625 C 40.875 3.082031 40.445312 2.453125 40.1875 1.671875 C 40.113281 1.453125 40.078125 1.226562 40.078125 1 C 40.078125 0.632812 40.1875 0.28125 40.40625 -0.0625 C 40.738281 -0.613281 41.222656 -0.890625 41.859375 -0.890625 C 43.085938 -0.847656 44.40625 -0.828125 45.8125 -0.828125 C 46.257812 -0.867188 46.566406 -0.972656 46.734375 -1.140625 C 46.898438 -1.304688 46.984375 -1.613281 46.984375 -2.0625 L 46.984375 -25.546875 C 46.984375 -25.847656 46.832031 -26 46.53125 -26 L 33.90625 -26 C 32.976562 -26 32.195312 -26.320312 31.5625 -26.96875 C 30.925781 -27.613281 30.609375 -28.382812 30.609375 -29.28125 L 30.609375 -42.25 C 30.609375 -43.175781 30.925781 -43.953125 31.5625 -44.578125 C 32.195312 -45.210938 32.976562 -45.53125 33.90625 -45.53125 Z M 48.921875 -45.53125 "/></g></g><g transform="translate(356.516762, 716.699984)"><g><path d="M 13.140625 0 C 12.171875 0 11.316406 -0.304688 10.578125 -0.921875 C 9.835938 -1.535156 9.375 -2.304688 9.1875 -3.234375 L 1.890625 -38.75 C 1.859375 -38.925781 1.84375 -39.109375 1.84375 -39.296875 C 1.84375 -39.929688 2.046875 -40.488281 2.453125 -40.96875 C 3.003906 -41.632812 3.707031 -41.96875 4.5625 -41.96875 L 4.78125 -41.96875 C 5.75 -41.96875 6.59375 -41.660156 7.3125 -41.046875 C 8.039062 -40.441406 8.5 -39.675781 8.6875 -38.75 L 12.03125 -20.09375 L 14.25 -6.796875 C 14.25 -6.722656 14.285156 -6.6875 14.359375 -6.6875 C 14.429688 -6.6875 14.488281 -6.722656 14.53125 -6.796875 C 15.238281 -10.285156 16.164062 -14.71875 17.3125 -20.09375 L 22.046875 -39.125 C 22.265625 -39.945312 22.707031 -40.625 23.375 -41.15625 C 24.039062 -41.695312 24.800781 -41.96875 25.65625 -41.96875 C 26.507812 -41.96875 27.269531 -41.695312 27.9375 -41.15625 C 28.613281 -40.625 29.0625 -39.945312 29.28125 -39.125 L 34.015625 -20.09375 C 34.421875 -18.382812 34.972656 -15.84375 35.671875 -12.46875 C 36.378906 -9.09375 36.769531 -7.203125 36.84375 -6.796875 C 36.882812 -6.722656 36.953125 -6.6875 37.046875 -6.6875 C 37.140625 -6.6875 37.1875 -6.722656 37.1875 -6.796875 C 37.445312 -8.578125 37.832031 -11.0625 38.34375 -14.25 C 38.863281 -17.4375 39.179688 -19.382812 39.296875 -20.09375 L 42.6875 -38.859375 C 42.84375 -39.742188 43.269531 -40.484375 43.96875 -41.078125 C 44.675781 -41.671875 45.492188 -41.96875 46.421875 -41.96875 C 47.242188 -41.96875 47.910156 -41.65625 48.421875 -41.03125 C 48.835938 -40.539062 49.046875 -40 49.046875 -39.40625 C 49.046875 -39.21875 49.023438 -39.035156 48.984375 -38.859375 L 41.96875 -3.234375 C 41.78125 -2.304688 41.316406 -1.535156 40.578125 -0.921875 C 39.835938 -0.304688 38.984375 0 38.015625 0 L 36.453125 0 C 35.492188 0 34.632812 -0.296875 33.875 -0.890625 C 33.113281 -1.484375 32.617188 -2.242188 32.390625 -3.171875 L 27.546875 -23.328125 C 26.847656 -26.484375 26.203125 -29.632812 25.609375 -32.78125 C 25.609375 -32.894531 25.5625 -32.953125 25.46875 -32.953125 C 25.375 -32.953125 25.304688 -32.894531 25.265625 -32.78125 C 25.046875 -31.5625 24.414062 -28.410156 23.375 -23.328125 L 18.59375 -3.171875 C 18.375 -2.242188 17.878906 -1.484375 17.109375 -0.890625 C 16.347656 -0.296875 15.503906 0 14.578125 0 Z M 13.140625 0 "/></g></g><g transform="translate(407.449377, 716.699984)"><g><path d="M 10.515625 -0.9375 C 9.890625 -0.3125 9.117188 0 8.203125 0 C 7.296875 0 6.523438 -0.3125 5.890625 -0.9375 C 5.265625 -1.570312 4.953125 -2.335938 4.953125 -3.234375 L 4.953125 -42.1875 C 4.953125 -43.082031 5.265625 -43.84375 5.890625 -44.46875 C 6.523438 -45.101562 7.296875 -45.421875 8.203125 -45.421875 C 9.117188 -45.421875 9.890625 -45.101562 10.515625 -44.46875 C 11.148438 -43.84375 11.46875 -43.082031 11.46875 -42.1875 L 11.46875 -33.40625 L 11.25 -27.609375 C 11.25 -27.535156 11.285156 -27.476562 11.359375 -27.4375 C 11.429688 -27.40625 11.484375 -27.425781 11.515625 -27.5 C 13.078125 -28.945312 14.632812 -30.085938 16.1875 -30.921875 C 17.75 -31.753906 19.476562 -32.171875 21.375 -32.171875 C 27.789062 -32.171875 31 -28.015625 31 -19.703125 L 31 -3.28125 C 31 -2.351562 30.679688 -1.570312 30.046875 -0.9375 C 29.421875 -0.3125 28.65625 0 27.75 0 C 26.84375 0 26.0625 -0.3125 25.40625 -0.9375 C 24.757812 -1.570312 24.4375 -2.351562 24.4375 -3.28125 L 24.4375 -18.921875 C 24.4375 -21.628906 24.019531 -23.566406 23.1875 -24.734375 C 22.351562 -25.910156 21.007812 -26.5 19.15625 -26.5 C 17.8125 -26.5 16.601562 -26.191406 15.53125 -25.578125 C 14.457031 -24.960938 13.195312 -23.953125 11.75 -22.546875 C 11.5625 -22.316406 11.46875 -22.078125 11.46875 -21.828125 L 11.46875 -3.234375 C 11.46875 -2.335938 11.148438 -1.570312 10.515625 -0.9375 Z M 10.515625 -0.9375 "/></g></g><g transform="translate(442.796055, 716.699984)"><g><path d="M 12.359375 0.71875 C 9.648438 0.71875 7.429688 -0.101562 5.703125 -1.75 C 3.984375 -3.40625 3.125 -5.601562 3.125 -8.34375 C 3.125 -11.644531 4.578125 -14.210938 7.484375 -16.046875 C 10.398438 -17.890625 15.066406 -19.179688 21.484375 -19.921875 C 21.742188 -19.921875 21.875 -20.070312 21.875 -20.375 C 21.6875 -24.644531 19.703125 -26.78125 15.921875 -26.78125 C 13.765625 -26.78125 11.460938 -26.144531 9.015625 -24.875 C 8.648438 -24.65625 8.242188 -24.546875 7.796875 -24.546875 C 7.566406 -24.546875 7.34375 -24.582031 7.125 -24.65625 C 6.457031 -24.84375 5.957031 -25.234375 5.625 -25.828125 C 5.394531 -26.234375 5.28125 -26.640625 5.28125 -27.046875 C 5.28125 -27.304688 5.300781 -27.550781 5.34375 -27.78125 C 5.53125 -28.476562 5.9375 -28.992188 6.5625 -29.328125 C 10.125 -31.222656 13.613281 -32.171875 17.03125 -32.171875 C 20.851562 -32.171875 23.707031 -31.019531 25.59375 -28.71875 C 27.488281 -26.414062 28.4375 -23.132812 28.4375 -18.875 L 28.4375 -2.671875 C 28.4375 -1.929688 28.175781 -1.300781 27.65625 -0.78125 C 27.144531 -0.257812 26.515625 0 25.765625 0 C 24.992188 0 24.3125 -0.25 23.71875 -0.75 C 23.125 -1.25 22.769531 -1.890625 22.65625 -2.671875 L 22.546875 -3.5 C 22.503906 -3.582031 22.457031 -3.625 22.40625 -3.625 C 22.351562 -3.625 22.304688 -3.582031 22.265625 -3.5 C 18.921875 -0.6875 15.617188 0.71875 12.359375 0.71875 Z M 14.359375 -4.453125 C 16.617188 -4.453125 19.03125 -5.566406 21.59375 -7.796875 C 21.78125 -7.984375 21.875 -8.222656 21.875 -8.515625 L 21.875 -15.359375 C 21.875 -15.617188 21.765625 -15.75 21.546875 -15.75 C 21.546875 -15.75 21.523438 -15.75 21.484375 -15.75 C 17.140625 -15.195312 14.050781 -14.351562 12.21875 -13.21875 C 10.382812 -12.082031 9.46875 -10.609375 9.46875 -8.796875 C 9.46875 -7.304688 9.910156 -6.207031 10.796875 -5.5 C 11.691406 -4.800781 12.878906 -4.453125 14.359375 -4.453125 Z M 14.359375 -4.453125 "/></g></g><g transform="translate(475.526522, 716.699984)"><g><path d="M 15.53125 0.71875 C 12.15625 0.71875 9.722656 -0.234375 8.234375 -2.140625 C 6.753906 -4.054688 6.015625 -6.757812 6.015625 -10.25 L 6.015625 -25.65625 C 6.015625 -25.957031 5.863281 -26.109375 5.5625 -26.109375 L 3.890625 -26.109375 C 3.191406 -26.109375 2.609375 -26.347656 2.140625 -26.828125 C 1.679688 -27.304688 1.453125 -27.882812 1.453125 -28.5625 C 1.453125 -29.257812 1.679688 -29.859375 2.140625 -30.359375 C 2.609375 -30.859375 3.191406 -31.128906 3.890625 -31.171875 L 5.84375 -31.34375 C 6.144531 -31.34375 6.296875 -31.488281 6.296875 -31.78125 L 6.796875 -37.234375 C 6.867188 -38.015625 7.191406 -38.671875 7.765625 -39.203125 C 8.335938 -39.742188 9.015625 -40.015625 9.796875 -40.015625 C 10.535156 -40.015625 11.175781 -39.742188 11.71875 -39.203125 C 12.257812 -38.671875 12.53125 -38.015625 12.53125 -37.234375 L 12.53125 -31.78125 C 12.53125 -31.488281 12.675781 -31.34375 12.96875 -31.34375 L 18.09375 -31.34375 C 18.800781 -31.34375 19.410156 -31.09375 19.921875 -30.59375 C 20.441406 -30.09375 20.703125 -29.476562 20.703125 -28.75 C 20.703125 -28.03125 20.441406 -27.410156 19.921875 -26.890625 C 19.410156 -26.367188 18.800781 -26.109375 18.09375 -26.109375 L 12.96875 -26.109375 C 12.675781 -26.109375 12.53125 -25.957031 12.53125 -25.65625 L 12.53125 -10.1875 C 12.53125 -8.289062 12.890625 -6.867188 13.609375 -5.921875 C 14.335938 -4.984375 15.5 -4.515625 17.09375 -4.515625 C 17.382812 -4.515625 17.71875 -4.53125 18.09375 -4.5625 C 18.238281 -4.601562 18.382812 -4.625 18.53125 -4.625 C 19.050781 -4.625 19.535156 -4.492188 19.984375 -4.234375 C 20.535156 -3.929688 20.890625 -3.46875 21.046875 -2.84375 C 21.117188 -2.613281 21.15625 -2.390625 21.15625 -2.171875 C 21.15625 -1.722656 21.039062 -1.296875 20.8125 -0.890625 C 20.445312 -0.253906 19.929688 0.132812 19.265625 0.28125 C 17.921875 0.570312 16.675781 0.71875 15.53125 0.71875 Z M 15.53125 0.71875 "/></g></g><g transform="translate(498.070466, 716.699984)"><g><path d="M 13.46875 0.71875 C 10.09375 0.71875 6.863281 -0.207031 3.78125 -2.0625 C 3.15625 -2.425781 2.785156 -2.984375 2.671875 -3.734375 C 2.671875 -3.878906 2.671875 -4.023438 2.671875 -4.171875 C 2.671875 -4.734375 2.835938 -5.234375 3.171875 -5.671875 C 3.617188 -6.265625 4.195312 -6.617188 4.90625 -6.734375 C 5.050781 -6.734375 5.195312 -6.734375 5.34375 -6.734375 C 5.894531 -6.734375 6.394531 -6.585938 6.84375 -6.296875 C 9.070312 -4.921875 11.335938 -4.234375 13.640625 -4.234375 C 15.421875 -4.234375 16.785156 -4.617188 17.734375 -5.390625 C 18.679688 -6.171875 19.15625 -7.195312 19.15625 -8.46875 C 19.15625 -8.90625 19.078125 -9.316406 18.921875 -9.703125 C 18.773438 -10.097656 18.488281 -10.472656 18.0625 -10.828125 C 17.632812 -11.179688 17.28125 -11.46875 17 -11.6875 C 16.726562 -11.914062 16.21875 -12.195312 15.46875 -12.53125 C 14.726562 -12.863281 14.21875 -13.082031 13.9375 -13.1875 C 13.664062 -13.300781 13.082031 -13.523438 12.1875 -13.859375 C 10.925781 -14.335938 9.859375 -14.800781 8.984375 -15.25 C 8.117188 -15.695312 7.191406 -16.28125 6.203125 -17 C 5.222656 -17.726562 4.484375 -18.59375 3.984375 -19.59375 C 3.484375 -20.59375 3.234375 -21.722656 3.234375 -22.984375 C 3.234375 -25.660156 4.242188 -27.859375 6.265625 -29.578125 C 8.285156 -31.304688 10.984375 -32.171875 14.359375 -32.171875 C 17.179688 -32.171875 19.890625 -31.410156 22.484375 -29.890625 C 23.078125 -29.515625 23.429688 -28.976562 23.546875 -28.28125 C 23.546875 -28.164062 23.546875 -28.035156 23.546875 -27.890625 C 23.546875 -27.367188 23.378906 -26.882812 23.046875 -26.4375 C 22.597656 -25.882812 22.019531 -25.550781 21.3125 -25.4375 C 21.164062 -25.40625 21 -25.390625 20.8125 -25.390625 C 20.300781 -25.390625 19.820312 -25.515625 19.375 -25.765625 C 17.695312 -26.660156 16.0625 -27.109375 14.46875 -27.109375 C 12.84375 -27.109375 11.601562 -26.753906 10.75 -26.046875 C 9.894531 -25.347656 9.46875 -24.421875 9.46875 -23.265625 C 9.46875 -22.785156 9.585938 -22.332031 9.828125 -21.90625 C 10.066406 -21.476562 10.34375 -21.125 10.65625 -20.84375 C 10.976562 -20.5625 11.453125 -20.265625 12.078125 -19.953125 C 12.710938 -19.640625 13.242188 -19.398438 13.671875 -19.234375 C 14.097656 -19.066406 14.738281 -18.816406 15.59375 -18.484375 C 15.8125 -18.410156 15.992188 -18.351562 16.140625 -18.3125 C 17.253906 -17.863281 18.144531 -17.5 18.8125 -17.21875 C 19.476562 -16.945312 20.285156 -16.519531 21.234375 -15.9375 C 22.179688 -15.363281 22.914062 -14.78125 23.4375 -14.1875 C 23.957031 -13.59375 24.410156 -12.820312 24.796875 -11.875 C 25.191406 -10.9375 25.390625 -9.910156 25.390625 -8.796875 C 25.390625 -6.046875 24.328125 -3.769531 22.203125 -1.96875 C 20.085938 -0.175781 17.175781 0.71875 13.46875 0.71875 Z M 13.46875 0.71875 "/></g></g><g transform="translate(525.40152, 716.699984)"><g><path d="M 11.96875 -17.53125 C 11.925781 -17.457031 11.941406 -17.375 12.015625 -17.28125 C 12.097656 -17.1875 12.175781 -17.140625 12.25 -17.140625 L 22.875 -17.140625 C 22.988281 -17.140625 23.070312 -17.1875 23.125 -17.28125 C 23.1875 -17.375 23.21875 -17.457031 23.21875 -17.53125 L 21.65625 -22.828125 C 20.945312 -25.085938 19.628906 -29.6875 17.703125 -36.625 C 17.660156 -36.695312 17.601562 -36.734375 17.53125 -36.734375 C 17.457031 -36.734375 17.421875 -36.695312 17.421875 -36.625 C 16.378906 -32.507812 15.097656 -27.910156 13.578125 -22.828125 Z M 31.734375 0 C 30.765625 0 29.890625 -0.285156 29.109375 -0.859375 C 28.328125 -1.429688 27.789062 -2.203125 27.5 -3.171875 L 25.046875 -11.578125 C 24.929688 -11.835938 24.75 -11.96875 24.5 -11.96875 L 10.75 -11.96875 C 10.445312 -11.96875 10.257812 -11.835938 10.1875 -11.578125 L 7.6875 -3.171875 C 7.382812 -2.203125 6.84375 -1.429688 6.0625 -0.859375 C 5.289062 -0.285156 4.421875 0 3.453125 0 L 3.28125 0 C 2.46875 0 1.820312 -0.332031 1.34375 -1 C 1.039062 -1.40625 0.890625 -1.851562 0.890625 -2.34375 C 0.890625 -2.601562 0.945312 -2.863281 1.0625 -3.125 L 12.859375 -38.859375 C 13.191406 -39.785156 13.75 -40.535156 14.53125 -41.109375 C 15.3125 -41.679688 16.203125 -41.96875 17.203125 -41.96875 L 18.265625 -41.96875 C 19.222656 -41.96875 20.097656 -41.679688 20.890625 -41.109375 C 21.691406 -40.535156 22.257812 -39.785156 22.59375 -38.859375 L 34.40625 -3.125 C 34.507812 -2.863281 34.5625 -2.601562 34.5625 -2.34375 C 34.5625 -1.851562 34.394531 -1.40625 34.0625 -1 C 33.625 -0.332031 32.992188 0 32.171875 0 Z M 31.734375 0 "/></g></g><g transform="translate(560.803862, 716.699984)"><g><path d="M 10.515625 11.90625 C 9.890625 12.539062 9.117188 12.859375 8.203125 12.859375 C 7.296875 12.859375 6.523438 12.539062 5.890625 11.90625 C 5.265625 11.28125 4.953125 10.503906 4.953125 9.578125 L 4.953125 -28.5625 C 4.953125 -29.300781 5.210938 -29.929688 5.734375 -30.453125 C 6.253906 -30.972656 6.882812 -31.234375 7.625 -31.234375 C 8.40625 -31.234375 9.082031 -30.976562 9.65625 -30.46875 C 10.226562 -29.96875 10.570312 -29.332031 10.6875 -28.5625 L 10.796875 -27.890625 C 10.835938 -27.816406 10.882812 -27.78125 10.9375 -27.78125 C 10.988281 -27.78125 11.035156 -27.796875 11.078125 -27.828125 C 14.421875 -30.609375 17.613281 -32 20.65625 -32 C 24.582031 -32 27.628906 -30.5625 29.796875 -27.6875 C 31.972656 -24.8125 33.0625 -20.925781 33.0625 -16.03125 C 33.0625 -13.4375 32.691406 -11.050781 31.953125 -8.875 C 31.210938 -6.707031 30.207031 -4.925781 28.9375 -3.53125 C 27.675781 -2.144531 26.238281 -1.0625 24.625 -0.28125 C 23.007812 0.5 21.3125 0.890625 19.53125 0.890625 C 16.90625 0.890625 14.273438 -0.203125 11.640625 -2.390625 C 11.554688 -2.429688 11.476562 -2.429688 11.40625 -2.390625 C 11.332031 -2.359375 11.296875 -2.304688 11.296875 -2.234375 L 11.46875 2.734375 L 11.46875 9.578125 C 11.46875 10.503906 11.148438 11.28125 10.515625 11.90625 Z M 18.3125 -4.515625 C 20.65625 -4.515625 22.566406 -5.523438 24.046875 -7.546875 C 25.535156 -9.566406 26.28125 -12.359375 26.28125 -15.921875 C 26.28125 -23.003906 23.828125 -26.546875 18.921875 -26.546875 C 16.703125 -26.546875 14.3125 -25.359375 11.75 -22.984375 C 11.5625 -22.804688 11.46875 -22.585938 11.46875 -22.328125 L 11.46875 -7.796875 C 11.46875 -7.535156 11.5625 -7.3125 11.75 -7.125 C 13.894531 -5.382812 16.082031 -4.515625 18.3125 -4.515625 Z M 18.3125 -4.515625 "/></g></g><g transform="translate(596.70718, 716.699984)"><g><path d="M 10.515625 11.90625 C 9.890625 12.539062 9.117188 12.859375 8.203125 12.859375 C 7.296875 12.859375 6.523438 12.539062 5.890625 11.90625 C 5.265625 11.28125 4.953125 10.503906 4.953125 9.578125 L 4.953125 -28.5625 C 4.953125 -29.300781 5.210938 -29.929688 5.734375 -30.453125 C 6.253906 -30.972656 6.882812 -31.234375 7.625 -31.234375 C 8.40625 -31.234375 9.082031 -30.976562 9.65625 -30.46875 C 10.226562 -29.96875 10.570312 -29.332031 10.6875 -28.5625 L 10.796875 -27.890625 C 10.835938 -27.816406 10.882812 -27.78125 10.9375 -27.78125 C 10.988281 -27.78125 11.035156 -27.796875 11.078125 -27.828125 C 14.421875 -30.609375 17.613281 -32 20.65625 -32 C 24.582031 -32 27.628906 -30.5625 29.796875 -27.6875 C 31.972656 -24.8125 33.0625 -20.925781 33.0625 -16.03125 C 33.0625 -13.4375 32.691406 -11.050781 31.953125 -8.875 C 31.210938 -6.707031 30.207031 -4.925781 28.9375 -3.53125 C 27.675781 -2.144531 26.238281 -1.0625 24.625 -0.28125 C 23.007812 0.5 21.3125 0.890625 19.53125 0.890625 C 16.90625 0.890625 14.273438 -0.203125 11.640625 -2.390625 C 11.554688 -2.429688 11.476562 -2.429688 11.40625 -2.390625 C 11.332031 -2.359375 11.296875 -2.304688 11.296875 -2.234375 L 11.46875 2.734375 L 11.46875 9.578125 C 11.46875 10.503906 11.148438 11.28125 10.515625 11.90625 Z M 18.3125 -4.515625 C 20.65625 -4.515625 22.566406 -5.523438 24.046875 -7.546875 C 25.535156 -9.566406 26.28125 -12.359375 26.28125 -15.921875 C 26.28125 -23.003906 23.828125 -26.546875 18.921875 -26.546875 C 16.703125 -26.546875 14.3125 -25.359375 11.75 -22.984375 C 11.5625 -22.804688 11.46875 -22.585938 11.46875 -22.328125 L 11.46875 -7.796875 C 11.46875 -7.535156 11.5625 -7.3125 11.75 -7.125 C 13.894531 -5.382812 16.082031 -4.515625 18.3125 -4.515625 Z M 18.3125 -4.515625 "/></g></g><g transform="translate(632.610498, 716.699984)"><g><path d="M 26.828125 -44.25 C 27.128906 -44.882812 27.59375 -45.347656 28.21875 -45.640625 C 28.550781 -45.796875 28.882812 -45.875 29.21875 -45.875 C 29.519531 -45.875 29.816406 -45.816406 30.109375 -45.703125 C 30.703125 -45.472656 31.113281 -45.0625 31.34375 -44.46875 C 31.414062 -44.21875 31.453125 -43.976562 31.453125 -43.75 C 31.453125 -43.382812 31.359375 -43.03125 31.171875 -42.6875 C 29.867188 -40.46875 28.882812 -38.816406 28.21875 -37.734375 C 27.925781 -37.296875 27.5 -36.992188 26.9375 -36.828125 C 26.382812 -36.660156 25.847656 -36.6875 25.328125 -36.90625 C 24.847656 -37.125 24.523438 -37.472656 24.359375 -37.953125 C 24.191406 -38.441406 24.238281 -38.910156 24.5 -39.359375 C 25.382812 -41.023438 26.160156 -42.65625 26.828125 -44.25 Z M 9.859375 -40.078125 C 10.078125 -39.484375 10.054688 -38.90625 9.796875 -38.34375 C 9.535156 -37.789062 9.128906 -37.367188 8.578125 -37.078125 C 8.054688 -36.847656 7.546875 -36.84375 7.046875 -37.0625 C 6.546875 -37.289062 6.203125 -37.664062 6.015625 -38.1875 C 5.453125 -39.707031 4.726562 -41.265625 3.84375 -42.859375 C 3.582031 -43.335938 3.535156 -43.835938 3.703125 -44.359375 C 3.867188 -44.878906 4.191406 -45.253906 4.671875 -45.484375 C 5.234375 -45.703125 5.789062 -45.726562 6.34375 -45.5625 C 6.90625 -45.394531 7.332031 -45.070312 7.625 -44.59375 C 8.59375 -43.03125 9.335938 -41.523438 9.859375 -40.078125 Z M 22.59375 -23.4375 C 22.632812 -23.4375 22.65625 -23.441406 22.65625 -23.453125 C 22.65625 -23.472656 22.632812 -23.484375 22.59375 -23.484375 C 21.894531 -23.671875 21.394531 -24.097656 21.09375 -24.765625 C 20.90625 -25.140625 20.8125 -25.515625 20.8125 -25.890625 C 20.8125 -26.179688 20.867188 -26.492188 20.984375 -26.828125 C 21.691406 -28.460938 22.210938 -29.890625 22.546875 -31.109375 C 22.578125 -31.222656 22.566406 -31.316406 22.515625 -31.390625 C 22.460938 -31.460938 22.378906 -31.5 22.265625 -31.5 L 11.640625 -31.5 C 11.554688 -31.5 11.488281 -31.460938 11.4375 -31.390625 C 11.382812 -31.316406 11.375 -31.242188 11.40625 -31.171875 C 12.1875 -29.835938 12.835938 -28.460938 13.359375 -27.046875 C 13.472656 -26.753906 13.53125 -26.457031 13.53125 -26.15625 C 13.53125 -25.75 13.414062 -25.363281 13.1875 -25 C 12.820312 -24.289062 12.265625 -23.804688 11.515625 -23.546875 C 11.484375 -23.546875 11.46875 -23.523438 11.46875 -23.484375 C 11.46875 -23.453125 11.484375 -23.4375 11.515625 -23.4375 Z M 52.21875 -33.015625 C 52.914062 -33.015625 53.503906 -32.769531 53.984375 -32.28125 C 54.472656 -31.800781 54.71875 -31.21875 54.71875 -30.53125 C 54.71875 -29.84375 54.472656 -29.257812 53.984375 -28.78125 C 53.503906 -28.300781 52.914062 -28.0625 52.21875 -28.0625 L 49.375 -28.0625 C 49.113281 -28.0625 48.984375 -27.910156 48.984375 -27.609375 L 48.984375 -1.71875 C 48.984375 -0.269531 48.785156 0.859375 48.390625 1.671875 C 48.003906 2.484375 47.367188 3.132812 46.484375 3.625 C 45.066406 4.132812 42.859375 4.429688 39.859375 4.515625 C 39.816406 4.515625 39.78125 4.515625 39.75 4.515625 C 39 4.515625 38.328125 4.269531 37.734375 3.78125 C 37.109375 3.300781 36.664062 2.691406 36.40625 1.953125 C 36.1875 1.359375 36.242188 0.804688 36.578125 0.296875 C 36.910156 -0.203125 37.390625 -0.453125 38.015625 -0.453125 C 38.984375 -0.410156 39.820312 -0.390625 40.53125 -0.390625 C 41.375 -0.390625 42.019531 -0.410156 42.46875 -0.453125 C 42.988281 -0.453125 43.34375 -0.539062 43.53125 -0.71875 C 43.71875 -0.90625 43.8125 -1.238281 43.8125 -1.71875 L 43.8125 -27.609375 C 43.8125 -27.910156 43.679688 -28.0625 43.421875 -28.0625 L 34.234375 -28.0625 C 33.378906 -28.0625 32.644531 -28.359375 32.03125 -28.953125 C 31.414062 -29.546875 31.109375 -30.265625 31.109375 -31.109375 C 31.109375 -31.367188 30.984375 -31.5 30.734375 -31.5 L 24.5 -31.5 C 24.457031 -31.5 24.425781 -31.488281 24.40625 -31.46875 C 24.382812 -31.457031 24.394531 -31.429688 24.4375 -31.390625 C 25.289062 -31.171875 25.90625 -30.671875 26.28125 -29.890625 C 26.457031 -29.515625 26.546875 -29.132812 26.546875 -28.75 C 26.546875 -28.363281 26.457031 -27.960938 26.28125 -27.546875 C 25.6875 -26.328125 25.070312 -25.085938 24.4375 -23.828125 C 24.363281 -23.710938 24.351562 -23.617188 24.40625 -23.546875 C 24.46875 -23.472656 24.550781 -23.4375 24.65625 -23.4375 L 27.28125 -23.4375 C 27.90625 -23.4375 28.429688 -23.210938 28.859375 -22.765625 C 29.285156 -22.316406 29.5 -21.785156 29.5 -21.171875 C 29.5 -20.566406 29.285156 -20.050781 28.859375 -19.625 C 28.429688 -19.195312 27.90625 -18.984375 27.28125 -18.984375 L 19.984375 -18.984375 C 19.679688 -18.984375 19.53125 -18.832031 19.53125 -18.53125 L 19.53125 -14.53125 C 19.53125 -14.269531 19.679688 -14.140625 19.984375 -14.140625 L 26.328125 -14.140625 C 26.921875 -14.140625 27.429688 -13.925781 27.859375 -13.5 C 28.285156 -13.070312 28.5 -12.5625 28.5 -11.96875 C 28.5 -11.375 28.285156 -10.863281 27.859375 -10.4375 C 27.429688 -10.007812 26.921875 -9.796875 26.328125 -9.796875 L 19.984375 -9.796875 C 19.679688 -9.796875 19.53125 -9.664062 19.53125 -9.40625 L 19.53125 -5.0625 C 19.53125 -4.800781 19.679688 -4.691406 19.984375 -4.734375 C 24.847656 -5.328125 27.757812 -5.679688 28.71875 -5.796875 C 29.351562 -5.867188 29.910156 -5.695312 30.390625 -5.28125 C 30.867188 -4.875 31.109375 -4.335938 31.109375 -3.671875 C 31.109375 -3.046875 30.90625 -2.488281 30.5 -2 C 30.0625 -1.476562 29.523438 -1.179688 28.890625 -1.109375 C 25.660156 -0.671875 21.128906 -0.0820312 15.296875 0.65625 C 9.472656 1.40625 6.34375 1.800781 5.90625 1.84375 C 5.789062 1.84375 5.675781 1.84375 5.5625 1.84375 C 5.007812 1.84375 4.507812 1.675781 4.0625 1.34375 C 3.507812 0.925781 3.175781 0.367188 3.0625 -0.328125 C 3.019531 -0.441406 3 -0.570312 3 -0.71875 C 3 -1.238281 3.164062 -1.703125 3.5 -2.109375 C 3.945312 -2.671875 4.503906 -2.988281 5.171875 -3.0625 C 7.878906 -3.351562 10.90625 -3.6875 14.25 -4.0625 C 14.507812 -4.101562 14.640625 -4.253906 14.640625 -4.515625 L 14.640625 -9.40625 C 14.640625 -9.664062 14.507812 -9.796875 14.25 -9.796875 L 8.015625 -9.796875 C 7.421875 -9.796875 6.910156 -10.007812 6.484375 -10.4375 C 6.054688 -10.863281 5.84375 -11.375 5.84375 -11.96875 C 5.84375 -12.5625 6.054688 -13.070312 6.484375 -13.5 C 6.910156 -13.925781 7.421875 -14.140625 8.015625 -14.140625 L 14.25 -14.140625 C 14.507812 -14.140625 14.640625 -14.269531 14.640625 -14.53125 L 14.640625 -18.53125 C 14.640625 -18.832031 14.507812 -18.984375 14.25 -18.984375 L 6.84375 -18.984375 C 6.21875 -18.984375 5.691406 -19.195312 5.265625 -19.625 C 4.835938 -20.050781 4.625 -20.566406 4.625 -21.171875 C 4.625 -21.785156 4.835938 -22.316406 5.265625 -22.765625 C 5.691406 -23.210938 6.21875 -23.4375 6.84375 -23.4375 L 9.234375 -23.4375 C 9.316406 -23.4375 9.394531 -23.472656 9.46875 -23.546875 C 9.539062 -23.617188 9.554688 -23.710938 9.515625 -23.828125 C 9.253906 -24.898438 8.863281 -26.101562 8.34375 -27.4375 C 8.164062 -27.8125 8.078125 -28.203125 8.078125 -28.609375 C 8.078125 -29.015625 8.148438 -29.40625 8.296875 -29.78125 C 8.628906 -30.5625 9.1875 -31.097656 9.96875 -31.390625 C 10 -31.390625 10.015625 -31.40625 10.015625 -31.4375 C 10.015625 -31.476562 10 -31.5 9.96875 -31.5 L 4.671875 -31.5 C 4.078125 -31.5 3.566406 -31.710938 3.140625 -32.140625 C 2.710938 -32.566406 2.5 -33.085938 2.5 -33.703125 C 2.5 -34.316406 2.710938 -34.835938 3.140625 -35.265625 C 3.566406 -35.691406 4.078125 -35.90625 4.671875 -35.90625 L 10.578125 -35.90625 C 10.867188 -35.90625 11.015625 -36.050781 11.015625 -36.34375 L 11.015625 -45.359375 C 11.015625 -45.921875 11.21875 -46.414062 11.625 -46.84375 C 12.039062 -47.269531 12.546875 -47.484375 13.140625 -47.484375 C 13.734375 -47.484375 14.234375 -47.269531 14.640625 -46.84375 C 15.046875 -46.414062 15.25 -45.921875 15.25 -45.359375 L 15.25 -36.34375 C 15.25 -36.050781 15.398438 -35.90625 15.703125 -35.90625 L 18.375 -35.90625 C 18.664062 -35.90625 18.8125 -36.050781 18.8125 -36.34375 L 18.8125 -45.3125 C 18.8125 -45.90625 19.023438 -46.414062 19.453125 -46.84375 C 19.878906 -47.269531 20.390625 -47.484375 20.984375 -47.484375 C 21.578125 -47.484375 22.085938 -47.269531 22.515625 -46.84375 C 22.941406 -46.414062 23.15625 -45.90625 23.15625 -45.3125 L 23.15625 -36.34375 C 23.15625 -36.050781 23.285156 -35.90625 23.546875 -35.90625 L 29.0625 -35.90625 C 29.757812 -35.90625 30.359375 -35.65625 30.859375 -35.15625 C 31.367188 -34.65625 31.625 -34.050781 31.625 -33.34375 C 31.625 -33.125 31.734375 -33.015625 31.953125 -33.015625 L 43.421875 -33.015625 C 43.679688 -33.015625 43.8125 -33.144531 43.8125 -33.40625 L 43.8125 -44.921875 C 43.8125 -45.628906 44.0625 -46.234375 44.5625 -46.734375 C 45.0625 -47.234375 45.671875 -47.484375 46.390625 -47.484375 C 47.117188 -47.484375 47.734375 -47.234375 48.234375 -46.734375 C 48.734375 -46.234375 48.984375 -45.628906 48.984375 -44.921875 L 48.984375 -33.40625 C 48.984375 -33.144531 49.113281 -33.015625 49.375 -33.015625 Z M 41.359375 -13.921875 C 41.398438 -13.660156 41.421875 -13.414062 41.421875 -13.1875 C 41.421875 -12.75 41.304688 -12.320312 41.078125 -11.90625 C 40.742188 -11.28125 40.222656 -10.851562 39.515625 -10.625 C 39.296875 -10.550781 39.054688 -10.515625 38.796875 -10.515625 C 38.460938 -10.515625 38.109375 -10.609375 37.734375 -10.796875 C 37.179688 -11.128906 36.832031 -11.613281 36.6875 -12.25 C 35.976562 -14.882812 34.957031 -17.648438 33.625 -20.546875 C 33.476562 -20.835938 33.40625 -21.132812 33.40625 -21.4375 C 33.40625 -21.695312 33.457031 -21.953125 33.5625 -22.203125 C 33.820312 -22.796875 34.234375 -23.1875 34.796875 -23.375 C 35.085938 -23.488281 35.398438 -23.546875 35.734375 -23.546875 C 36.035156 -23.546875 36.351562 -23.488281 36.6875 -23.375 C 37.3125 -23.113281 37.773438 -22.6875 38.078125 -22.09375 C 39.523438 -19.238281 40.617188 -16.515625 41.359375 -13.921875 Z M 41.359375 -13.921875 "/></g></g><g transform="translate(689.610496, 716.699984)"><g><path d="M 19.53125 -45.921875 C 20.09375 -45.921875 20.578125 -45.71875 20.984375 -45.3125 C 21.390625 -44.90625 21.59375 -44.410156 21.59375 -43.828125 C 21.59375 -43.253906 21.390625 -42.769531 20.984375 -42.375 C 20.578125 -41.988281 20.09375 -41.796875 19.53125 -41.796875 L 7.40625 -41.796875 C 6.8125 -41.796875 6.304688 -41.988281 5.890625 -42.375 C 5.484375 -42.769531 5.28125 -43.253906 5.28125 -43.828125 C 5.28125 -44.410156 5.484375 -44.90625 5.890625 -45.3125 C 6.304688 -45.71875 6.8125 -45.921875 7.40625 -45.921875 Z M 17.3125 -10.015625 C 17.3125 -10.273438 17.179688 -10.40625 16.921875 -10.40625 L 9.796875 -10.40625 C 9.535156 -10.40625 9.40625 -10.273438 9.40625 -10.015625 L 9.40625 -2.609375 C 9.40625 -2.359375 9.535156 -2.234375 9.796875 -2.234375 L 16.921875 -2.234375 C 17.179688 -2.234375 17.3125 -2.359375 17.3125 -2.609375 Z M 18.59375 -14.703125 C 19.519531 -14.703125 20.296875 -14.382812 20.921875 -13.75 C 21.554688 -13.113281 21.875 -12.332031 21.875 -11.40625 L 21.875 -1.28125 C 21.875 -0.382812 21.554688 0.382812 20.921875 1.03125 C 20.296875 1.675781 19.519531 2 18.59375 2 L 9.6875 2 C 9.5 2 9.40625 2.09375 9.40625 2.28125 C 9.40625 2.875 9.191406 3.382812 8.765625 3.8125 C 8.335938 4.238281 7.828125 4.453125 7.234375 4.453125 L 7.125 4.453125 C 6.488281 4.453125 5.945312 4.226562 5.5 3.78125 C 5.0625 3.34375 4.84375 2.804688 4.84375 2.171875 L 4.84375 -11.40625 C 4.84375 -12.332031 5.164062 -13.113281 5.8125 -13.75 C 6.46875 -14.382812 7.238281 -14.703125 8.125 -14.703125 Z M 7.015625 -18.484375 C 6.453125 -18.484375 5.96875 -18.675781 5.5625 -19.0625 C 5.15625 -19.457031 4.953125 -19.941406 4.953125 -20.515625 C 4.953125 -21.085938 5.15625 -21.578125 5.5625 -21.984375 C 5.96875 -22.390625 6.453125 -22.59375 7.015625 -22.59375 L 19.59375 -22.59375 C 20.1875 -22.59375 20.675781 -22.390625 21.0625 -21.984375 C 21.457031 -21.578125 21.65625 -21.085938 21.65625 -20.515625 C 21.65625 -19.941406 21.457031 -19.457031 21.0625 -19.0625 C 20.675781 -18.675781 20.1875 -18.484375 19.59375 -18.484375 Z M 19.59375 -30.34375 C 20.1875 -30.34375 20.675781 -30.132812 21.0625 -29.71875 C 21.457031 -29.3125 21.65625 -28.828125 21.65625 -28.265625 C 21.65625 -27.710938 21.457031 -27.234375 21.0625 -26.828125 C 20.675781 -26.421875 20.1875 -26.21875 19.59375 -26.21875 L 7.015625 -26.21875 C 6.453125 -26.21875 5.96875 -26.421875 5.5625 -26.828125 C 5.15625 -27.234375 4.953125 -27.710938 4.953125 -28.265625 C 4.953125 -28.828125 5.15625 -29.3125 5.5625 -29.71875 C 5.96875 -30.132812 6.453125 -30.34375 7.015625 -30.34375 Z M 4.390625 -34.015625 C 3.796875 -34.015625 3.296875 -34.226562 2.890625 -34.65625 C 2.484375 -35.082031 2.28125 -35.582031 2.28125 -36.15625 C 2.28125 -36.726562 2.484375 -37.21875 2.890625 -37.625 C 3.296875 -38.03125 3.796875 -38.234375 4.390625 -38.234375 L 21.4375 -38.234375 C 22.03125 -38.234375 22.53125 -38.03125 22.9375 -37.625 C 23.34375 -37.21875 23.546875 -36.726562 23.546875 -36.15625 C 23.546875 -35.582031 23.34375 -35.082031 22.9375 -34.65625 C 22.53125 -34.226562 22.03125 -34.015625 21.4375 -34.015625 Z M 46.703125 -3.0625 C 46.992188 -3.0625 47.140625 -3.207031 47.140625 -3.5 L 47.140625 -12.578125 C 47.140625 -12.835938 46.992188 -12.96875 46.703125 -12.96875 L 32.5625 -12.96875 C 32.300781 -12.96875 32.171875 -12.835938 32.171875 -12.578125 L 32.171875 -3.5 C 32.171875 -3.207031 32.300781 -3.0625 32.5625 -3.0625 Z M 54.21875 -30.71875 C 54.695312 -30.238281 54.9375 -29.65625 54.9375 -28.96875 C 54.9375 -28.28125 54.695312 -27.6875 54.21875 -27.1875 C 53.738281 -26.6875 53.144531 -26.4375 52.4375 -26.4375 L 42.53125 -26.4375 C 42.269531 -26.4375 42.140625 -26.304688 42.140625 -26.046875 L 42.140625 -18.203125 C 42.140625 -17.898438 42.269531 -17.75 42.53125 -17.75 L 49.09375 -17.75 C 49.988281 -17.75 50.757812 -17.429688 51.40625 -16.796875 C 52.050781 -16.171875 52.375 -15.394531 52.375 -14.46875 L 52.375 1.609375 C 52.375 2.316406 52.113281 2.929688 51.59375 3.453125 C 51.082031 3.972656 50.472656 4.234375 49.765625 4.234375 L 49.375 4.234375 C 48.738281 4.234375 48.207031 4.007812 47.78125 3.5625 C 47.351562 3.113281 47.140625 2.59375 47.140625 2 C 47.140625 1.8125 47.050781 1.71875 46.875 1.71875 L 32.453125 1.71875 C 32.265625 1.71875 32.171875 1.8125 32.171875 2 C 32.171875 2.707031 31.921875 3.300781 31.421875 3.78125 C 30.921875 4.269531 30.335938 4.515625 29.671875 4.515625 L 29.609375 4.515625 C 28.910156 4.515625 28.304688 4.257812 27.796875 3.75 C 27.296875 3.25 27.046875 2.648438 27.046875 1.953125 L 27.046875 -14.46875 C 27.046875 -15.394531 27.367188 -16.171875 28.015625 -16.796875 C 28.671875 -17.429688 29.445312 -17.75 30.34375 -17.75 L 36.296875 -17.75 C 36.554688 -17.75 36.6875 -17.898438 36.6875 -18.203125 L 36.6875 -26.046875 C 36.6875 -26.304688 36.554688 -26.4375 36.296875 -26.4375 L 26.4375 -26.4375 C 25.738281 -26.4375 25.144531 -26.6875 24.65625 -27.1875 C 24.175781 -27.6875 23.9375 -28.28125 23.9375 -28.96875 C 23.9375 -29.65625 24.175781 -30.238281 24.65625 -30.71875 C 25.144531 -31.207031 25.738281 -31.453125 26.4375 -31.453125 L 36.296875 -31.453125 C 36.554688 -31.453125 36.6875 -31.597656 36.6875 -31.890625 L 36.6875 -39.078125 C 36.6875 -39.367188 36.554688 -39.5 36.296875 -39.46875 C 33.097656 -39.09375 30.664062 -38.832031 29 -38.6875 C 28.925781 -38.644531 28.851562 -38.625 28.78125 -38.625 C 28.1875 -38.625 27.648438 -38.8125 27.171875 -39.1875 C 26.648438 -39.59375 26.257812 -40.128906 26 -40.796875 C 25.8125 -41.359375 25.863281 -41.890625 26.15625 -42.390625 C 26.457031 -42.890625 26.882812 -43.160156 27.4375 -43.203125 C 35.125 -43.972656 41.507812 -44.988281 46.59375 -46.25 C 47 -46.363281 47.390625 -46.421875 47.765625 -46.421875 C 48.242188 -46.421875 48.707031 -46.347656 49.15625 -46.203125 C 49.96875 -45.941406 50.65625 -45.492188 51.21875 -44.859375 C 51.507812 -44.523438 51.65625 -44.140625 51.65625 -43.703125 C 51.65625 -43.515625 51.617188 -43.328125 51.546875 -43.140625 C 51.359375 -42.503906 50.953125 -42.113281 50.328125 -41.96875 C 48.054688 -41.414062 45.457031 -40.878906 42.53125 -40.359375 C 42.269531 -40.316406 42.140625 -40.148438 42.140625 -39.859375 L 42.140625 -31.890625 C 42.140625 -31.597656 42.269531 -31.453125 42.53125 -31.453125 L 52.4375 -31.453125 C 53.144531 -31.453125 53.738281 -31.207031 54.21875 -30.71875 Z M 54.21875 -30.71875 "/></g></g></g><g fill="rgb(100%, 100%, 100%)" fill-opacity="1"><g transform="translate(119.860353, 687.125145)"><g><path d="M 21.390625 0 C 22.765625 0 23.941406 -0.488281 24.921875 -1.46875 C 25.898438 -2.445312 26.390625 -3.625 26.390625 -5 L 26.390625 -60.8125 L 26.34375 -60.8125 C 26.34375 -61.269531 26.28125 -61.726562 26.15625 -62.1875 C 25.757812 -63.539062 24.984375 -64.535156 23.828125 -65.171875 C 23.054688 -65.597656 22.242188 -65.8125 21.390625 -65.8125 C 20.929688 -65.8125 20.472656 -65.753906 20.015625 -65.640625 L 3.625 -60.953125 C 2.25 -60.523438 1.238281 -59.726562 0.59375 -58.5625 C 0.195312 -57.832031 0 -57.050781 0 -56.21875 C 0 -55.726562 0.0625 -55.238281 0.1875 -54.75 C 0.582031 -53.40625 1.363281 -52.414062 2.53125 -51.78125 C 3.289062 -51.34375 4.097656 -51.125 4.953125 -51.125 C 5.410156 -51.125 5.867188 -51.1875 6.328125 -51.3125 L 16.390625 -54.203125 L 16.390625 -5 C 16.390625 -3.625 16.878906 -2.445312 17.859375 -1.46875 C 18.835938 -0.488281 20.015625 0 21.390625 0 Z M 21.390625 0 "/></g></g></g></svg>