<svg xmlns="http://www.w3.org/2000/svg" width="1080" viewBox="0 0 810 810" height="1080" version="1"><defs><clipPath id="a"><path d="M149.887 23.902H629v510H149.887zm0 0"/></clipPath></defs><path fill="#FFF" d="M-81 -81H891V891H-81z"/><path fill="#FFF" d="M-81 -81H891V891H-81z"/><path fill="#FFF" d="M-81 -81H891V891H-81z"/><path fill="#4DD171" d="M137.266 581.398c-40.801 0-73.875 33.079-73.875 73.875 0 40.801 33.074 73.875 73.875 73.875 40.8 0 73.875-33.074 73.875-73.875 0-40.796-33.075-73.875-73.875-73.875M398.91 189.254c-5.5 0-9.96 4.465-9.96 9.96 0 5.5 4.46 9.962 9.96 9.962 5.496 0 9.961-4.461 9.961-9.961 0-5.496-4.465-9.961-9.96-9.961zm0 119.532C393.41 249.02 388.95 253.484 388.95 258.98c0 5.5 4.46 9.961 9.96 9.961 5.496 0 9.961-4.46 9.961-9.96 0-5.497-4.465-9.961-9.96-9.961zm518.914 828.74c-5.5 59.767-9.96 64.232-9.96 69.728 0 5.5 4.46 9.96 9.96 9.96 5.496 0 9.961-4.46 9.961-9.96 0-5.496-4.465-9.961-9.961-9.961zm338.672-430.31c259.457 419.874 263.914 424.33 269.418 424.33h119.531c5.5 0 9.961-4.456 9.961-9.96 0-5.5-4.46-9.961-9.96-9.961H438.753c-5.504 0-9.961 4.46-9.961 9.96zm777.9 928.35l49.804-215.155c-5.504 0-9.961 4.46-9.961 9.96a9.958 9.958 0 0 0 9.96 9.961h119.532c5.5 0 9.961-4.457 9.961-9.96 0-5.5-4.46-9.961-9.96-9.961zM558.284 249.02"/><g clip-path="url(#a)"><path fill="#4DD171" d="M398.91 23.902H199.691c-27.464 0-49.804 22.344-49.804 49.805v410.39c0 27.466 22.34 49.805 49.804 49.805h199.22c27.46 0 49.804-22.34 49.804-49.804V353.609l33.2-24.902h116.214c16.476 0 29.883-13.402 29.883-29.883V159.371c0-16.476-13.407-29.883-29.883-29.883H448.715V73.707c0-27.46-22.344-49.805-49.805-49.805zM199.691 43.824h199.22c12.984 0 24.058 8.328 28.167 19.922H171.52c4.113-11.594 15.187-19.922 28.171-19.922zm199.22 470.156H199.69c-16.48 0-29.882-13.402-29.882-29.882v-29.883h258.984v29.883c0 16.48-13.406 29.882-29.883 29.882zM608.09 159.371v139.453c0 5.496-4.469 9.961-9.961 9.961H478.598a9.982 9.982 0 0 0-5.977 1.992l-63.75 47.813v-39.844c0-5.5-4.46-9.96-9.96-9.96h-39.845c-5.496 0-9.96-4.466-9.96-9.962V159.371c0-5.492 4.464-9.96 9.96-9.96H598.13c5.492 0 9.96 4.468 9.96 9.96zm-249.024-29.883c-16.48 0-29.882 13.407-29.882 29.883v139.453c0 16.48 13.402 29.883 29.882 29.883h29.883v49.805a9.966 9.966 0 0 0 5.504 8.91 9.963 9.963 0 0 0 10.434-.942l23.906-17.93v65.743H169.809V83.668h258.984v45.82zm0 0"/></g><path fill="#4DD171" d="M339.145 474.137H299.3c-5.504 0-9.961 4.46-9.961 9.96a9.958 9.958 0 0 0 9.96 9.962h39.845c5.5 0 9.96-4.457 9.96-9.961 0-5.5-4.46-9.961-9.96-9.961zm0 0"/><g fill="#4DD171"><path d="M258.939 630.903a4.377 4.377 0 0 1 2.39-.828h.11c.82 0 1.566.227 2.234.672.594.406.89.965.89 1.672 0 .699-.28 1.25-.843 1.656a103.124 103.124 0 0 1-11.578 6.516 3.605 3.605 0 0 1-1.61.39c-.261 0-.5-.015-.718-.047a4.244 4.244 0 0 1-2.172-1.125c-.45-.406-.625-.918-.531-1.53.093-.606.414-1.04.968-1.298 4.082-1.851 7.703-3.879 10.86-6.078zm19.093 2.797c-.593-.3-.93-.758-1-1.375a1.82 1.82 0 0 1 .547-1.578c.594-.52 1.301-.836 2.125-.953.188-.032.367-.047.547-.047.594 0 1.172.133 1.735.39a189.456 189.456 0 0 1 12.078 6.391c.664.406 1 1 1 1.781 0 .707-.297 1.266-.891 1.672a4.033 4.033 0 0 1-2.5.844h-.062c-.93 0-1.782-.246-2.563-.734a132.982 132.982 0 0 0-11.016-6.391zm13.25-10.14c0 .261.13.39.391.39h2.828c.676 0 1.254.246 1.735.734.476.48.718 1.063.718 1.75a2.34 2.34 0 0 1-.718 1.735c-.481.46-1.06.687-1.735.687h-46.86a2.438 2.438 0 0 1-1.734-.687c-.48-.469-.718-1.047-.718-1.735 0-.687.238-1.27.718-1.75.489-.488 1.067-.734 1.735-.734h2.781c.29 0 .422-.129.39-.39l-.89-27.391c-.043-.696.234-1.27.828-1.719.375-.332.8-.5 1.281-.5.188 0 .391.039.61.11a.83.83 0 0 0 .672-.063 67.08 67.08 0 0 0 4.625-2.547 3.58 3.58 0 0 1 1.953-.563h.265c.82.075 1.532.372 2.125.891.407.406.61.871.61 1.39v.329c-.117.68-.485 1.164-1.11 1.453-2.086 1-4.312 1.984-6.687 2.953-.262.117-.39.297-.39.547l.171 4.297c0 .293.145.437.438.437h4.578c.594 0 1.097.215 1.515.641.426.43.641.937.641 1.531 0 .594-.215 1.117-.64 1.563-.419.449-.922.672-1.516.672h-4.406c-.293 0-.438.132-.438.39l.156 5.235c0 .25.149.375.453.375h4.172c.633 0 1.16.214 1.578.64.426.43.641.961.641 1.594 0 .637-.215 1.168-.64 1.594-.419.418-.946.625-1.579.625h-4.062c-.305 0-.434.133-.39.39l.171 5.125c0 .262.145.391.438.391h8.125c.257 0 .39-.129.39-.39V613.48c0-.594.211-1.101.64-1.531.427-.426.938-.64 1.532-.64.594 0 1.102.214 1.531.64.426.43.64.937.64 1.531v10.078c0 .262.15.391.454.391h3.563c.289 0 .437-.129.437-.39V609.48c0-.3-.148-.453-.437-.453h-5.016a3.203 3.203 0 0 1-2.313-.937c-.648-.633-.968-1.414-.968-2.344v-13.469c0-.664.226-1.223.687-1.672.469-.445 1.016-.672 1.64-.672.634 0 1.173.227 1.61.672.445.45.672 1.008.672 1.672v2.734c0 .262.148.391.453.391h6.735c.593 0 1.101.227 1.53.672.427.437.641.953.641 1.547s-.214 1.105-.64 1.531c-.43.43-.938.64-1.531.64h-6.735c-.305 0-.453.15-.453.438v4.188c0 .261.148.39.453.39h4.953c.895 0 1.664.325 2.313.97.644.648.969 1.417.969 2.312v15.468c0 .262.128.391.39.391h7.625c.258 0 .41-.129.453-.39.07-1.407.164-3.07.282-5 .03-.301-.102-.454-.391-.454h-3.734c-.594 0-1.118-.219-1.563-.656a2.164 2.164 0 0 1-.672-1.594c0-.613.223-1.144.672-1.594.445-.445.969-.671 1.563-.671h3.89c.3 0 .453-.125.453-.375 0-.594.024-1.461.078-2.61.051-1.156.098-2.031.141-2.625 0-.258-.148-.39-.437-.39h-4.079c-.593 0-1.105-.223-1.53-.672a2.213 2.213 0 0 1-.626-1.563c0-.594.207-1.101.625-1.531.426-.426.938-.64 1.531-.64h4.125c.301 0 .454-.145.454-.438.07-2.113.109-3.75.109-4.906 0-.29-.152-.438-.453-.438h-4.781c-.637 0-1.18-.223-1.625-.672a2.218 2.218 0 0 1-.657-1.61c0-.632.219-1.171.657-1.609a2.217 2.217 0 0 1 1.625-.671h6.78c.895 0 1.66.336 2.298 1 .625.625.937 1.386.937 2.28 0 9.837-.242 18.981-.719 27.438zm0 0"/><path d="M340.876 624.731a2.571 2.571 0 0 1-1.89.781c-.743 0-1.368-.257-1.875-.78-.5-.52-.75-1.15-.75-1.891v-30.672c0-.926.316-1.703.953-2.328.632-.633 1.414-.954 2.343-.954h12.579c.664 0 1.238.235 1.718.704.477.46.719 1.03.719 1.718s-.242 1.274-.719 1.75c-.48.48-1.054.72-1.718.72h-10.188c-.262 0-.39.132-.39.39v28.672c0 .742-.262 1.37-.782 1.89zm0 0"/><path d="M388.017 623.84c-.293 0-.438.149-.438.438v9.14c0 .262.13.407.39.438 2.563.492 5.735.735 9.517.735 1.3.03 2.82.046 4.562.046 1.895 0 4.066-.015 6.516-.046.632 0 1.117.257 1.453.765.219.305.328.64.328 1.016 0 .219-.059.437-.172.656a3.978 3.978 0 0 1-1.36 1.922c-.648.5-1.359.75-2.14.75h-9.406c-6.5 0-11.883-.797-16.14-2.39-4.2-1.563-7.634-4.423-10.298-8.579-.043-.07-.11-.097-.203-.078-.094.024-.156.07-.187.14-1.606 4.157-3.649 7.481-6.125 9.97-.493.476-1.07.718-1.735.718h-.156c-.71-.031-1.34-.308-1.89-.828-.524-.45-.782-1.027-.782-1.734 0-.625.219-1.16.656-1.61 4.008-4.125 6.63-10.32 7.86-18.593.101-.739.453-1.352 1.047-1.844.52-.363 1.078-.547 1.672-.547h.343c.77.074 1.38.422 1.828 1.047.375.45.563.953.563 1.515 0 .149-.024.313-.063.5a68.242 68.242 0 0 1-1 4.5c-.074.262-.054.524.063.782 2.07 4.386 5.094 7.508 9.062 9.36.114.03.207.023.282-.032.07-.05.109-.133.109-.25V611.48c0-.289-.133-.437-.39-.437h-19.141a2.388 2.388 0 0 1-1.735-.719 2.426 2.426 0 0 1-.718-1.766c0-.687.238-1.27.718-1.75.489-.476 1.067-.718 1.735-.718h19.031c.3 0 .453-.13.453-.391v-6.016c0-.257-.152-.39-.453-.39h-14.078a2.388 2.388 0 0 1-1.734-.719 2.388 2.388 0 0 1-.72-1.734c0-.664.239-1.239.72-1.72.488-.487 1.066-.734 1.734-.734h14.078c.3 0 .453-.128.453-.39v-3.11c0-.78.258-1.43.781-1.953.52-.52 1.16-.78 1.922-.78.758 0 1.395.26 1.907.78.519.524.78 1.172.78 1.953v3.11c0 .262.13.39.391.39h15.25c.676 0 1.254.247 1.735.735.476.48.719 1.055.719 1.719 0 .668-.243 1.246-.72 1.734-.48.48-1.058.719-1.734.719h-15.25c-.261 0-.39.133-.39.39v6.016c0 .262.129.39.39.39h19.375c.707 0 1.301.243 1.782.72.476.48.718 1.062.718 1.75 0 .687-.242 1.277-.718 1.765-.48.48-1.075.719-1.782.719h-19.265c-.293 0-.438.148-.438.437v7.125c0 .305.145.453.438.453h15.64c.676 0 1.243.235 1.704.703.468.461.703 1.024.703 1.688 0 .668-.235 1.234-.703 1.703-.461.461-1.028.688-1.704.688zm0 0"/><path d="M427.267 609.7c.289 0 .437-.129.437-.39v-7.735c0-.258-.148-.39-.437-.39h-8.735c-.593 0-1.105-.212-1.53-.641a2.078 2.078 0 0 1-.641-1.532c0-.593.21-1.101.64-1.53.426-.427.938-.641 1.531-.641h3.829a.344.344 0 0 0 .28-.141c.071-.094.095-.176.063-.25-.336-1.113-.836-2.336-1.5-3.672a1.651 1.651 0 0 1-.093-1.469c.207-.5.57-.843 1.093-1.03.29-.071.567-.11.828-.11.332 0 .649.054.954.156.593.23 1.035.621 1.328 1.172.3.562.582 1.121.843 1.672.145.336.22.668.22 1 0 .375-.095.746-.282 1.11a2.7 2.7 0 0 1-1.61 1.452c-.042 0-.062.024-.062.063 0 .031.02.047.063.047h11.359c.031 0 .047-.016.047-.047v-.063c-.781-.187-1.34-.648-1.672-1.39a2.982 2.982 0 0 1-.219-1.11c0-.375.094-.75.281-1.125.188-.437.391-.898.61-1.39.3-.625.75-1.102 1.344-1.438a2.57 2.57 0 0 1 1.265-.344c.227 0 .438.043.625.125.594.106 1.02.438 1.281 1 .258.555.258 1.11 0 1.672a238.924 238.924 0 0 1-2.171 3.781.231.231 0 0 0-.016.22c.039.073.098.109.172.109h4.297c.593 0 1.101.214 1.53.64.427.43.642.938.642 1.531 0 .594-.215 1.106-.641 1.532-.43.43-.938.64-1.531.64h-8.86c-.261 0-.39.133-.39.391v7.734c0 .262.129.391.39.391h4.407c.257 0 .39-.129.39-.39v-4c0-.633.211-1.157.64-1.563.427-.406.938-.61 1.532-.61.594 0 1.098.204 1.516.61.425.406.64.93.64 1.562v8.016c0 .594-.215 1.105-.64 1.531-.418.43-.922.64-1.516.64h-.672c-.406 0-.762-.144-1.062-.437a1.49 1.49 0 0 1-.438-1.078c0-.144-.058-.219-.172-.219h-4.734c-.262 0-.406.153-.438.454-.304 2.148-1.086 4.062-2.343 5.75-1.262 1.687-3.266 3.109-6.016 4.265a2.923 2.923 0 0 1-1.11.219c-.304 0-.6-.055-.89-.172-.668-.219-1.242-.625-1.719-1.219-.375-.406-.5-.875-.375-1.406.133-.539.442-.906.922-1.094 2.113-.851 3.68-1.8 4.703-2.843 1.02-1.04 1.68-2.207 1.985-3.5a.347.347 0 0 0-.063-.313.344.344 0 0 0-.281-.14h-4.219c-.187 0-.281.093-.281.28 0 .594-.215 1.094-.64 1.5-.43.407-.923.61-1.485.61h-.047c-.594 0-1.105-.21-1.531-.64a2.078 2.078 0 0 1-.64-1.532v-8.672c0-.632.21-1.156.64-1.562.426-.406.937-.61 1.531-.61.594 0 1.102.204 1.531.61.426.406.64.93.64 1.562v4c0 .262.13.391.392.391zm33.453-13.297c0-.258-.149-.39-.438-.39h-8.859c-.262 0-.39.132-.39.39v3.063c0 .261.128.39.39.39h8.86c.288 0 .437-.129.437-.39zm-9.86 11.188c0 .293.13.437.391.437h9.031c.29 0 .438-.144.438-.437v-3.344c0-.258-.149-.39-.438-.39h-8.859c-.262 0-.39.132-.39.39a73.402 73.402 0 0 1-.172 3.344zm-6.28 27.546c0 .262.144.391.437.391h20.328c.625 0 1.164.234 1.625.703.469.461.703 1.008.703 1.656 0 .657-.234 1.204-.703 1.641-.461.445-1 .672-1.625.672h-46.656c-.625 0-1.172-.227-1.641-.672-.46-.437-.687-.984-.687-1.64 0-.649.226-1.196.687-1.657.469-.469 1.016-.703 1.64-.703h20.048c.289 0 .437-.129.437-.39v-4.5c0-.301-.148-.454-.437-.454h-14.313a2.117 2.117 0 0 1-1.578-.656 2.212 2.212 0 0 1-.64-1.594c0-.613.21-1.14.64-1.578a2.102 2.102 0 0 1 1.578-.672h14.313c.289 0 .437-.129.437-.39 0-.895.313-1.657.938-2.282a3.132 3.132 0 0 1 2.296-.953h.438c.082 0 .129-.035.14-.109.02-.07-.007-.129-.078-.172a.835.835 0 0 0-.28-.172 2.579 2.579 0 0 1-1.048-1.89v-.266c0-.707.219-1.32.657-1.844 1.632-1.894 2.718-3.984 3.25-6.265.539-2.282.812-4.813.812-7.594v-8.797c0-.926.313-1.703.938-2.328.632-.633 1.421-.953 2.359-.953h12.844c.894 0 1.664.32 2.312.953.656.625.985 1.402.985 2.328v22.719c0 1.261-.165 2.246-.485 2.953-.312.7-.875 1.25-1.687 1.656-1.043.492-2.79.774-5.235.844h-.062a2.644 2.644 0 0 1-1.781-.672 3.55 3.55 0 0 1-1.172-1.734c-.18-.551-.102-1.067.234-1.547.332-.489.797-.711 1.39-.672h2.829c.375 0 .625-.063.75-.188.133-.132.203-.367.203-.703v-5.125c0-.289-.149-.437-.438-.437h-9.687c-.305 0-.469.148-.5.437-1.043 4.012-2.902 7.184-5.578 9.516v.062c.039 0 .062.024.062.063v3.172c0 .261.13.39.39.39h14.642c.625 0 1.148.227 1.578.672.425.438.64.965.64 1.578 0 .618-.215 1.149-.64 1.594-.43.438-.953.656-1.578.656h-14.594c-.293 0-.438.153-.438.453zm0 0"/><path d="M493.173 637.919c-5.75 0-10.43-1.914-14.031-5.75-3.594-3.844-5.39-9.125-5.39-15.844 0-6.676 1.831-11.988 5.5-15.938 3.675-3.957 8.374-5.937 14.093-5.937 3.926 0 7.394 1.152 10.406 3.453.664.524 1 1.211 1 2.063 0 .699-.242 1.328-.719 1.89-.492.555-1.12.852-1.89.89h-.172c-.711 0-1.324-.187-1.844-.562-1.887-1.332-4.074-2-6.562-2-3.938 0-7.094 1.434-9.47 4.297-2.374 2.856-3.562 6.73-3.562 11.625 0 5.043 1.141 8.985 3.422 11.828 2.282 2.836 5.578 4.25 9.89 4.25 2.595 0 4.688-.593 6.282-1.78.227-.177.344-.395.344-.657v-9.078c0-.258-.152-.39-.453-.39h-5.172a2.644 2.644 0 0 1-1.922-.798c-.543-.539-.812-1.18-.812-1.922 0-.75.269-1.382.812-1.906.54-.52 1.18-.781 1.922-.781h8.297c.926 0 1.703.32 2.328.953.633.637.953 1.418.953 2.344v11.578c0 2.48-.855 4.262-2.562 5.344-3.086 1.886-6.649 2.828-10.688 2.828zm0 0"/><path d="M519.225 637.2c-.899 0-1.668-.32-2.313-.969-.648-.656-.968-1.426-.968-2.312v-35.407c0-.882.32-1.648.968-2.296.645-.657 1.414-.985 2.313-.985h9.469c10.644 0 15.968 4.23 15.968 12.688 0 4.418-1.437 7.75-4.312 10-2.875 2.242-6.688 3.36-11.438 3.36h-5.906c-.293 0-.437.151-.437.452v12.188c0 .886-.32 1.656-.954 2.312-.625.649-1.406.969-2.343.969zm3.344-21.594c0 .262.144.39.437.39h5.297c3.332 0 5.816-.655 7.453-1.968 1.633-1.32 2.453-3.36 2.453-6.11 0-2.706-.828-4.609-2.484-5.702-1.649-1.094-4.215-1.641-7.703-1.641h-5.016c-.293 0-.437.133-.437.39zm0 0"/><path d="M564.762 637.919c-4.719 0-8.934-1.39-12.64-4.172-.743-.52-1.11-1.258-1.11-2.219 0-.781.258-1.453.781-2.016.508-.625 1.176-.957 2-1h.219c.738 0 1.406.204 2 .61 2.82 2.043 5.773 3.062 8.86 3.062 2.519 0 4.472-.535 5.859-1.609 1.394-1.07 2.093-2.52 2.093-4.344 0-.738-.132-1.406-.39-2-.262-.594-.543-1.082-.844-1.469-.293-.394-.805-.812-1.531-1.25-.719-.445-1.305-.773-1.75-.984a63.612 63.612 0 0 0-2.219-.969l-5.844-2.515c-5.68-2.407-8.515-6.078-8.515-11.016 0-3.3 1.296-6.055 3.89-8.266 2.602-2.207 5.91-3.312 9.922-3.312 3.895 0 7.438 1.168 10.625 3.5.664.492 1 1.18 1 2.062 0 .711-.226 1.325-.672 1.844-.48.555-1.09.867-1.828.938a.986.986 0 0 1-.344.062c-.625 0-1.199-.187-1.718-.562-2.188-1.407-4.543-2.11-7.063-2.11-2.156 0-3.875.496-5.156 1.485-1.281.98-1.922 2.304-1.922 3.968 0 .668.14 1.297.422 1.891.281.594.594 1.09.937 1.484.352.387.883.778 1.594 1.172.707.387 1.29.696 1.75.922.469.219 1.164.496 2.094.828l5.734 2.438c2.739 1.187 4.848 2.668 6.328 4.437 1.489 1.762 2.235 4.07 2.235 6.922 0 3.492-1.344 6.399-4.032 8.719-2.687 2.312-6.277 3.469-10.765 3.469zm0 0"/><path d="M597.541 606.356a2.574 2.574 0 0 1 1.89-.781c.74 0 1.36.262 1.86.781.508.524.766 1.137.766 1.844v30.719c0 .937-.32 1.718-.953 2.343-.625.633-1.407.954-2.344.954h-12.578c-.668 0-1.242-.246-1.719-.735a2.347 2.347 0 0 1-.719-1.719c0-.667.239-1.246.719-1.734a2.334 2.334 0 0 1 1.719-.719h10.187c.258 0 .39-.129.39-.39V608.2c0-.707.259-1.32.782-1.844zm0 0"/></g><g fill="#4DD171"><path d="M289.548 704.731c.07-.07.086-.133.047-.187a.164.164 0 0 0-.156-.094H278.75c-.105 0-.18.039-.219.11a.23.23 0 0 0 0 .234 23.329 23.329 0 0 0 3.454 4.562c.218.188.44.203.671.047 2.707-1.594 5.004-3.148 6.891-4.672zm-18.969-9.687c-.261 0-.39.133-.39.39v4.125c0 .293.129.438.39.438h9.282c.3 0 .453-.145.453-.438v-4.125c0-.257-.153-.39-.453-.39zm0-9.078c-.261 0-.39.152-.39.453v3.672c0 .304.129.453.39.453h9.282c.3 0 .453-.149.453-.453v-3.672c0-.301-.153-.453-.453-.453zm-14.375-9.954c-.261 0-.39.133-.39.391v4.61c0 .261.129.39.39.39h31.453c.258 0 .391-.129.391-.39v-4.61c0-.258-.133-.39-.39-.39zm34.407 28.438c-.075 0-.122.031-.141.094-.024.054-.012.093.031.125l.781.562c.664.45 1 1.078 1 1.89 0 .782-.336 1.4-1 1.845-1.492.96-3.257 2.015-5.296 3.171-.106.032-.157.094-.157.188s.035.164.11.203c2.562 1.637 5.437 2.899 8.625 3.781.55.149.922.504 1.109 1.078.188.583.113 1.114-.219 1.594-.48.664-1.074 1.149-1.781 1.453a3.806 3.806 0 0 1-1.281.22c-.293 0-.61-.04-.953-.11-8.313-2.711-14.305-7.942-17.97-15.703a.622.622 0 0 0-.608-.391h-5.188c-.293 0-.437.133-.437.39v8.735c0 .305.144.434.437.39.594-.101 3.379-.546 8.36-1.328a2.153 2.153 0 0 1 1.609.438c.52.45.781 1.008.781 1.672 0 .594-.203 1.137-.61 1.625-.417.52-.96.832-1.624.937-6.899 1.114-12.5 2.024-16.813 2.735h-.437c-.524 0-.985-.153-1.391-.453-.562-.407-.898-.946-1-1.61a1.413 1.413 0 0 1-.062-.39c0-.524.164-.985.5-1.391.406-.563.945-.879 1.625-.953a93.99 93.99 0 0 0 3.328-.5c.257-.031.39-.176.39-.438v-9.468c0-.258-.133-.391-.39-.391h-3.953a2.117 2.117 0 0 1-1.579-.656 2.212 2.212 0 0 1-.64-1.594c0-.613.21-1.133.64-1.563.426-.425.954-.64 1.579-.64h6.906c.3 0 .453-.145.453-.438v-4.125c0-.257-.152-.39-.453-.39h-5.235a2.218 2.218 0 0 1-1.609-.657 2.164 2.164 0 0 1-.672-1.593c0-.614.223-1.14.672-1.578a2.201 2.201 0 0 1 1.61-.672h5.234c.3 0 .453-.149.453-.453v-3.672c0-.301-.152-.453-.453-.453h-8.688c-.261 0-.39.152-.39.453v1.672c0 13.543-1.797 23.824-5.391 30.843-.336.625-.855 1.008-1.562 1.157-.22.039-.422.062-.61.062a2.853 2.853 0 0 1-1.453-.39 2.607 2.607 0 0 1-1.219-1.61 2.856 2.856 0 0 1-.11-.781c0-.406.095-.817.282-1.235 1.031-2 1.89-4.222 2.578-6.671a46.275 46.275 0 0 0 1.453-7.594c.282-2.625.461-4.945.547-6.969.094-2.02.14-4.289.14-6.812v-13.36c0-.894.321-1.664.97-2.312.656-.645 1.43-.969 2.328-.969h36.281c.926 0 1.707.324 2.344.969.633.648.953 1.418.953 2.312v7.953c0 .93-.32 1.711-.953 2.344-.637.625-1.418.938-2.344.938h-4.328c-.305 0-.453.152-.453.453v3.672c0 .304.148.453.453.453h6.234c.625 0 1.16.226 1.61.672.445.437.672.964.672 1.578a2.18 2.18 0 0 1-.672 1.593c-.45.438-.985.657-1.61.657h-6.234c-.305 0-.453.133-.453.39v4.125c0 .293.148.438.453.438h8.625c.594 0 1.11.215 1.547.64.445.43.672.95.672 1.563a2.18 2.18 0 0 1-.672 1.594c-.438.437-.953.656-1.547.656zm0 0"/><path d="M320.782 675.512c0-.3-.152-.453-.453-.453h-10.062c-.305 0-.453.153-.453.453v3c0 .262.148.391.453.391h10.062c.301 0 .453-.129.453-.39zm-10.968 10.797c0 .262.148.391.453.391h10.062c.301 0 .453-.129.453-.39v-3.344c0-.258-.152-.391-.453-.391h-10.062c-.305 0-.453.133-.453.39zm15.922 1c0 .887-.329 1.657-.985 2.313-.648.648-1.414.969-2.297.969h-12.187c-.305 0-.453.152-.453.453v27.547c0 .707-.25 1.32-.75 1.843-.5.52-1.118.782-1.844.782-.719 0-1.34-.262-1.86-.782-.523-.523-.78-1.136-.78-1.843V674.45c0-.926.32-1.703.968-2.328.656-.633 1.426-.953 2.313-.953h14.593c.883 0 1.649.32 2.297.953.656.625.985 1.402.985 2.328zm-1.391 15.813c0 .262.144.39.437.39h5.97c.257 0 .39-.128.39-.39v-4.563c0-.3-.133-.453-.39-.453h-5.97c-.293 0-.437.153-.437.453zm17.953 1.062c.426.438.64.953.64 1.547s-.214 1.106-.64 1.531c-.43.43-.937.641-1.531.641h-4.453c-.305 0-.453.152-.453.453v9.453c0 .664-.235 1.223-.704 1.672a2.301 2.301 0 0 1-1.656.672 2.344 2.344 0 0 1-1.672-.672c-.46-.449-.687-1.008-.687-1.672v-9.453c0-.3-.133-.453-.39-.453h-6.079c-.293 0-.46.152-.5.453-.625 4.668-2.48 8.41-5.562 11.235-.45.375-.934.562-1.454.562h-.265c-.637-.074-1.215-.336-1.735-.781a1.925 1.925 0 0 1-.593-1.453c.02-.555.238-1.016.656-1.39 2.332-2.071 3.781-4.798 4.344-8.173.07-.3-.043-.453-.344-.453h-3.89c-.594 0-1.106-.21-1.532-.64a2.078 2.078 0 0 1-.64-1.532c0-.594.21-1.11.64-1.547.426-.445.938-.672 1.531-.672h4.063c.289 0 .437-.128.437-.39v-4.563c0-.3-.148-.453-.437-.453h-3.125a2.039 2.039 0 0 1-1.5-.61 2 2 0 0 1-.61-1.468c0-.582.204-1.086.61-1.516.406-.425.906-.64 1.5-.64h23.437c.594 0 1.094.215 1.5.64.414.43.625.934.625 1.516 0 .574-.21 1.063-.625 1.469-.406.406-.906.61-1.5.61h-3.39c-.305 0-.453.152-.453.452v4.563c0 .262.148.39.453.39h4.453c.594 0 1.101.227 1.531.672zm-7.094-17.765c0 .261.145.39.438.39h10.406c.3 0 .453-.129.453-.39v-3.453c0-.258-.152-.391-.453-.391h-10.406c-.293 0-.438.133-.438.39zm11.297-10.907c0-.3-.152-.453-.453-.453h-10.406c-.293 0-.438.153-.438.453v3c0 .262.145.391.438.391h10.406c.3 0 .453-.129.453-.39zm1.938-4.343c.894 0 1.664.32 2.312.953.656.625.985 1.402.985 2.328v40.25c0 1.48-.18 2.625-.532 3.437-.355.82-.996 1.458-1.922 1.907-1.261.593-3.324.926-6.187 1h-.047c-.742 0-1.43-.262-2.062-.782-.594-.48-1.024-1.109-1.282-1.89a2.087 2.087 0 0 1-.11-.672c0-.367.11-.719.329-1.063.332-.55.816-.828 1.453-.828 1.227.043 2.547.063 3.953.063.446-.04.754-.145.922-.313.164-.164.25-.472.25-.922v-23.484c0-.3-.152-.453-.453-.453h-12.625c-.93 0-1.71-.32-2.344-.969a3.17 3.17 0 0 1-.953-2.312V674.45c0-.926.317-1.703.953-2.328.633-.633 1.414-.953 2.344-.953zm0 0"/><path d="M369.657 716.7a3.876 3.876 0 0 1-2.562-.922 3.922 3.922 0 0 1-1.39-2.312l-7.298-35.516a3.13 3.13 0 0 1-.046-.547c0-.633.203-1.191.609-1.672.55-.664 1.254-1 2.11-1h.218c.969 0 1.813.309 2.531.922a3.927 3.927 0 0 1 1.375 2.297l3.344 18.656 2.219 13.297c0 .074.035.11.11.11.07 0 .128-.036.171-.11.707-3.488 1.633-7.922 2.781-13.297l4.735-19.031c.218-.82.66-1.5 1.328-2.031a3.524 3.524 0 0 1 2.281-.813 3.54 3.54 0 0 1 2.281.813 3.758 3.758 0 0 1 1.344 2.031l4.734 19.031c.407 1.711.957 4.25 1.657 7.625.707 3.375 1.097 5.266 1.172 5.672.039.074.109.11.203.11.093 0 .14-.036.14-.11.258-1.781.645-4.266 1.157-7.453.519-3.188.835-5.133.953-5.844l3.39-18.765a3.675 3.675 0 0 1 1.282-2.22 3.7 3.7 0 0 1 2.453-.89c.82 0 1.488.313 2 .938.414.492.625 1.031.625 1.625 0 .187-.024.37-.063.547l-7.015 35.625a3.94 3.94 0 0 1-1.391 2.312 3.883 3.883 0 0 1-2.563.922h-1.562a4.07 4.07 0 0 1-2.578-.89 4.027 4.027 0 0 1-1.485-2.282l-4.843-20.156c-.7-3.156-1.344-6.305-1.938-9.453 0-.114-.047-.172-.14-.172-.094 0-.165.058-.204.172-.218 1.218-.851 4.37-1.89 9.453l-4.781 20.156c-.22.93-.715 1.688-1.485 2.281-.762.594-1.605.891-2.531.891zm0 0"/><path d="M417.965 715.762c-.625.625-1.398.938-2.312.938-.907 0-1.68-.313-2.313-.938a3.149 3.149 0 0 1-.937-2.296v-38.954c0-.894.312-1.656.937-2.28a3.155 3.155 0 0 1 2.313-.954c.914 0 1.687.32 2.312.953.633.625.953 1.387.953 2.281v8.782l-.219 5.797c0 .074.036.132.11.171.07.032.125.012.156-.062 1.563-1.445 3.117-2.586 4.672-3.422 1.562-.832 3.289-1.25 5.187-1.25 6.414 0 9.625 4.156 9.625 12.469v16.422c0 .93-.32 1.71-.953 2.343-.625.625-1.39.938-2.297.938a3.282 3.282 0 0 1-2.343-.938c-.649-.632-.97-1.414-.97-2.343v-15.64c0-2.708-.417-4.645-1.25-5.813-.835-1.176-2.179-1.766-4.03-1.766-1.344 0-2.555.309-3.625.922-1.075.617-2.336 1.625-3.782 3.031-.187.23-.28.469-.28.719v18.594c0 .898-.321 1.664-.954 2.296zm0 0"/><path d="M455.155 717.419c-2.71 0-4.93-.82-6.656-2.469-1.719-1.656-2.578-3.852-2.578-6.594 0-3.3 1.453-5.867 4.36-7.703 2.913-1.844 7.581-3.133 14-3.875.257 0 .39-.148.39-.453-.187-4.27-2.172-6.406-5.953-6.406-2.156 0-4.461.636-6.906 1.906a2.337 2.337 0 0 1-1.22.328 2.07 2.07 0 0 1-.67-.11 2.39 2.39 0 0 1-1.5-1.171 2.448 2.448 0 0 1-.345-1.219c0-.258.02-.504.063-.734a2.39 2.39 0 0 1 1.219-1.547c3.562-1.895 7.05-2.844 10.468-2.844 3.82 0 6.676 1.152 8.563 3.453 1.894 2.305 2.844 5.586 2.844 9.844v16.203c0 .742-.262 1.371-.782 1.89-.511.524-1.14.782-1.89.782-.774 0-1.453-.25-2.047-.75-.594-.5-.95-1.14-1.063-1.922l-.11-.828c-.042-.082-.089-.125-.14-.125-.054 0-.101.043-.14.125-3.344 2.812-6.649 4.219-9.907 4.219zm2-5.172c2.258 0 4.672-1.113 7.235-3.344a.971.971 0 0 0 .281-.719v-6.843c0-.258-.11-.391-.328-.391h-.063c-4.343.555-7.433 1.398-9.265 2.531-1.836 1.137-2.75 2.61-2.75 4.422 0 1.492.441 2.59 1.328 3.297.894.7 2.082 1.047 3.562 1.047zm0 0"/><path d="M491.058 717.419c-3.375 0-5.809-.953-7.297-2.86-1.48-1.914-2.219-4.617-2.219-8.109v-15.406c0-.301-.152-.453-.453-.453h-1.672c-.7 0-1.281-.239-1.75-.72-.46-.476-.687-1.054-.687-1.734 0-.695.226-1.296.687-1.796.469-.5 1.05-.77 1.75-.813l1.953-.172c.301 0 .453-.144.453-.437l.5-5.453c.07-.782.395-1.438.97-1.97.57-.538 1.25-.812 2.03-.812.739 0 1.38.274 1.922.813.54.531.813 1.187.813 1.969v5.453c0 .293.144.437.437.437h5.125c.707 0 1.317.25 1.828.75.52.5.782 1.117.782 1.844 0 .719-.262 1.34-.782 1.86-.511.523-1.12.78-1.828.78h-5.125c-.293 0-.437.153-.437.454v15.468c0 1.899.36 3.32 1.078 4.266.726.938 1.89 1.406 3.484 1.406.29 0 .625-.015 1-.047.145-.039.29-.062.438-.062.52 0 1.004.133 1.453.39.55.305.906.766 1.062 1.391.07.23.11.453.11.672 0 .45-.117.875-.344 1.281-.367.637-.883 1.024-1.547 1.172-1.344.29-2.59.438-3.734.438zm0 0"/><path d="M511.54 717.419c-3.376 0-6.606-.926-9.688-2.782-.625-.363-.996-.921-1.11-1.671v-.438c0-.562.164-1.062.5-1.5a2.632 2.632 0 0 1 1.735-1.062h.437c.551 0 1.051.148 1.5.437 2.227 1.375 4.492 2.063 6.797 2.063 1.781 0 3.145-.383 4.094-1.157.945-.78 1.422-1.804 1.422-3.078 0-.437-.078-.847-.235-1.234-.148-.395-.433-.77-.859-1.125-.43-.352-.781-.64-1.063-.86-.273-.226-.78-.507-1.53-.843-.743-.332-1.25-.551-1.532-.657a73.884 73.884 0 0 0-1.75-.671c-1.262-.477-2.328-.942-3.203-1.391-.867-.445-1.793-1.031-2.781-1.75-.98-.727-1.72-1.594-2.22-2.594-.5-1-.75-2.129-.75-3.39 0-2.676 1.009-4.875 3.032-6.594 2.02-1.727 4.719-2.594 8.094-2.594 2.82 0 5.531.762 8.125 2.281.594.375.945.914 1.062 1.61v.39c0 .524-.168 1.008-.5 1.453a2.71 2.71 0 0 1-1.734 1 2.893 2.893 0 0 1-1.938-.328c-1.68-.894-3.312-1.343-4.906-1.343-1.625 0-2.867.355-3.719 1.062-.855.7-1.28 1.625-1.28 2.781 0 .48.116.934.359 1.36.238.43.515.781.828 1.062.32.281.797.578 1.422.89.632.313 1.164.556 1.593.72.426.168 1.067.418 1.922.75.219.074.399.132.547.171 1.113.45 2.004.813 2.672 1.094.664.274 1.473.7 2.422 1.281.945.575 1.68 1.157 2.203 1.75.52.594.973 1.368 1.36 2.313.394.937.593 1.965.593 3.078 0 2.75-1.062 5.027-3.187 6.828-2.118 1.793-5.028 2.688-8.735 2.688zm0 0"/><path d="M537.37 699.169c-.043.074-.027.156.047.25.082.093.16.14.235.14h10.625a.269.269 0 0 0 .25-.14.464.464 0 0 0 .093-.25l-1.562-5.297c-.711-2.258-2.028-6.86-3.953-13.797-.043-.07-.102-.11-.172-.11-.074 0-.11.04-.11.11-1.043 4.117-2.324 8.715-3.843 13.797zm19.766 17.531a4.323 4.323 0 0 1-2.625-.86c-.781-.57-1.32-1.343-1.61-2.312l-2.453-8.406c-.117-.258-.296-.39-.546-.39h-13.75c-.305 0-.493.132-.563.39l-2.5 8.406c-.305.969-.844 1.742-1.625 2.313-.773.574-1.64.859-2.61.859h-.171c-.813 0-1.461-.332-1.938-1a2.18 2.18 0 0 1-.453-1.344c0-.258.055-.52.172-.781l11.797-35.734a4.7 4.7 0 0 1 1.672-2.25 4.42 4.42 0 0 1 2.672-.86h1.062a4.4 4.4 0 0 1 2.625.86 4.664 4.664 0 0 1 1.703 2.25l11.813 35.734c.101.262.156.523.156.781 0 .492-.168.938-.5 1.344-.437.668-1.07 1-1.89 1zm0 0"/><path d="M571.32 728.606c-.626.633-1.399.953-2.313.953-.906 0-1.68-.32-2.313-.953-.625-.625-.937-1.402-.937-2.328v-38.14c0-.739.258-1.368.781-1.891a2.574 2.574 0 0 1 1.89-.781c.782 0 1.458.257 2.032.765.57.5.914 1.137 1.031 1.906l.11.672c.039.075.086.11.14.11.051 0 .098-.016.141-.047 3.344-2.781 6.535-4.172 9.578-4.172 3.926 0 6.973 1.437 9.14 4.312 2.177 2.875 3.266 6.762 3.266 11.657 0 2.593-.37 4.98-1.109 7.156-.742 2.168-1.746 3.95-3.016 5.344-1.261 1.386-2.699 2.468-4.312 3.25a11.56 11.56 0 0 1-5.094 1.172c-2.625 0-5.258-1.094-7.89-3.282-.086-.039-.165-.039-.235 0-.074.032-.11.086-.11.157l.173 4.968v6.844c0 .926-.32 1.703-.954 2.328zm7.796-16.422c2.344 0 4.254-1.007 5.735-3.03 1.488-2.02 2.234-4.813 2.234-8.376 0-7.082-2.453-10.625-7.36-10.625-2.218 0-4.609 1.188-7.171 3.563a.875.875 0 0 0-.281.656v14.531c0 .262.093.484.28.672 2.145 1.742 4.333 2.61 6.563 2.61zm0 0"/><path d="M607.223 728.606c-.625.633-1.399.953-2.313.953-.906 0-1.68-.32-2.312-.953-.625-.625-.938-1.402-.938-2.328v-38.14c0-.739.258-1.368.782-1.891a2.574 2.574 0 0 1 1.89-.781c.781 0 1.457.257 2.031.765.57.5.914 1.137 1.032 1.906l.11.672c.038.075.085.11.14.11.05 0 .097-.016.14-.047 3.344-2.781 6.535-4.172 9.578-4.172 3.926 0 6.973 1.437 9.141 4.312 2.176 2.875 3.266 6.762 3.266 11.657 0 2.593-.371 4.98-1.11 7.156-.742 2.168-1.746 3.95-3.015 5.344-1.262 1.386-2.7 2.468-4.313 3.25a11.56 11.56 0 0 1-5.094 1.172c-2.625 0-5.257-1.094-7.89-3.282-.086-.039-.164-.039-.235 0-.074.032-.109.086-.109.157l.172 4.968v6.844c0 .926-.32 1.703-.953 2.328zm7.797-16.422c2.343 0 4.254-1.007 5.734-3.03 1.488-2.02 2.234-4.813 2.234-8.376 0-7.082-2.453-10.625-7.359-10.625-2.219 0-4.61 1.188-7.172 3.563a.875.875 0 0 0-.281.656v14.531c0 .262.094.484.281.672 2.145 1.742 4.332 2.61 6.563 2.61zm0 0"/><path d="M659.439 672.45c.3-.633.765-1.098 1.39-1.39a2.326 2.326 0 0 1 1-.235c.301 0 .598.059.89.172.595.23 1.005.64 1.235 1.234.07.25.11.492.11.719 0 .367-.094.719-.282 1.062a337.82 337.82 0 0 1-2.953 4.954c-.293.437-.719.742-1.281.906-.555.168-1.09.14-1.61-.078-.48-.219-.804-.567-.968-1.047a1.624 1.624 0 0 1 .14-1.406 59.72 59.72 0 0 0 2.329-4.891zm-16.97 4.172a2.193 2.193 0 0 1-.062 1.734 2.696 2.696 0 0 1-1.218 1.266c-.524.23-1.032.234-1.532.015a1.882 1.882 0 0 1-1.03-1.125 34.158 34.158 0 0 0-2.173-4.671 1.832 1.832 0 0 1-.14-1.5c.164-.52.488-.895.968-1.125a2.516 2.516 0 0 1 1.672-.079 2.18 2.18 0 0 1 1.281.97c.97 1.562 1.711 3.07 2.235 4.515zm12.735 16.64c.04 0 .063-.003.063-.015 0-.02-.024-.031-.063-.031-.699-.188-1.199-.614-1.5-1.282a2.496 2.496 0 0 1-.281-1.125c0-.289.055-.601.172-.937.707-1.633 1.226-3.063 1.562-4.281.032-.114.02-.207-.03-.282-.056-.07-.138-.109-.25-.109H644.25a.24.24 0 0 0-.203.11c-.055.074-.063.148-.031.218a26.108 26.108 0 0 1 1.953 4.125c.113.293.172.59.172.89 0 .407-.117.794-.344 1.157a2.869 2.869 0 0 1-1.672 1.453c-.031 0-.047.024-.047.063 0 .03.016.046.047.046zm29.625-9.578c.696 0 1.285.246 1.766.735.488.48.734 1.062.734 1.75 0 .687-.246 1.273-.734 1.75-.48.48-1.07.718-1.766.718h-2.844c-.261 0-.39.153-.39.454v25.89c0 1.45-.2 2.578-.594 3.39-.387.813-1.023 1.462-1.906 1.954-1.418.508-3.625.805-6.625.89h-.11a3.09 3.09 0 0 1-2.015-.734 3.878 3.878 0 0 1-1.328-1.828c-.219-.594-.164-1.148.172-1.656.332-.5.812-.75 1.437-.75a57.41 57.41 0 0 0 2.516.062c.843 0 1.488-.02 1.937-.062.52 0 .875-.086 1.063-.266.187-.187.281-.52.281-1v-25.89c0-.301-.133-.454-.39-.454h-9.188c-.856 0-1.59-.296-2.203-.89a2.878 2.878 0 0 1-.922-2.156c0-.258-.125-.391-.375-.391h-6.235c-.042 0-.074.012-.093.031-.024.012-.012.04.031.078.852.22 1.469.72 1.844 1.5.176.375.265.758.265 1.141 0 .387-.09.789-.265 1.203a325.44 325.44 0 0 1-1.844 3.719c-.074.117-.086.21-.031.281.062.074.144.11.25.11h2.625c.625 0 1.148.226 1.578.671.426.45.64.98.64 1.594 0 .606-.214 1.121-.64 1.547-.43.43-.953.64-1.578.64h-7.297c-.305 0-.453.153-.453.454v4c0 .261.148.39.453.39h6.344c.593 0 1.101.215 1.53.641.427.43.641.937.641 1.531 0 .594-.214 1.106-.64 1.531-.43.43-.938.641-1.531.641h-6.344c-.305 0-.453.133-.453.39v4.344c0 .262.148.372.453.329 4.863-.594 7.773-.946 8.734-1.063a2.105 2.105 0 0 1 1.672.516c.477.406.719.945.719 1.61 0 .624-.203 1.183-.61 1.671-.437.523-.976.82-1.609.89-3.23.438-7.762 1.028-13.594 1.766-5.824.75-8.953 1.145-9.39 1.188h-.344a2.45 2.45 0 0 1-1.5-.5 2.525 2.525 0 0 1-1-1.672 1.093 1.093 0 0 1-.063-.39c0-.52.165-.985.5-1.391.446-.563 1.004-.88 1.672-.954 2.707-.289 5.735-.625 9.078-1 .258-.039.391-.19.391-.453v-4.89c0-.258-.133-.39-.39-.39h-6.235c-.594 0-1.105-.212-1.531-.642a2.078 2.078 0 0 1-.64-1.53c0-.595.21-1.102.64-1.532.426-.426.937-.64 1.531-.64h6.234c.258 0 .391-.13.391-.391v-4c0-.301-.133-.453-.39-.453h-7.407c-.625 0-1.152-.211-1.578-.641a2.094 2.094 0 0 1-.64-1.547c0-.613.21-1.144.64-1.594a2.102 2.102 0 0 1 1.578-.672h2.39c.083 0 .161-.035.235-.109.07-.07.086-.164.047-.281-.262-1.07-.652-2.274-1.172-3.61a2.676 2.676 0 0 1-.265-1.171c0-.407.07-.797.218-1.172.332-.782.891-1.317 1.672-1.61.031 0 .047-.015.047-.047 0-.039-.016-.062-.047-.062h-5.297c-.593 0-1.105-.211-1.53-.64-.43-.426-.642-.946-.642-1.563 0-.613.211-1.133.641-1.563.426-.425.938-.64 1.531-.64h5.907c.289 0 .437-.145.437-.438v-9.015c0-.563.203-1.055.61-1.485a2.04 2.04 0 0 1 1.515-.64c.594 0 1.094.214 1.5.64.406.43.61.922.61 1.485v9.015c0 .293.148.438.453.438h2.671c.29 0 .438-.145.438-.438v-8.969c0-.593.21-1.101.64-1.53.426-.427.938-.641 1.532-.641.594 0 1.101.214 1.531.64.426.43.64.938.64 1.531v8.97c0 .292.13.437.391.437h5.516c.695 0 1.297.25 1.797.75.508.5.765 1.105.765 1.812 0 .219.11.328.329.328h11.468c.258 0 .391-.129.391-.39v-11.516c0-.707.25-1.312.75-1.812s1.11-.75 1.828-.75c.727 0 1.344.25 1.844.75s.75 1.105.75 1.812v11.516c0 .261.129.39.39.39zm-10.86 19.094c.04.262.063.508.063.734 0 .438-.117.868-.343 1.282-.336.625-.856 1.054-1.563 1.281-.219.074-.46.11-.719.11-.336 0-.687-.094-1.062-.282a2.189 2.189 0 0 1-1.047-1.453c-.71-2.633-1.73-5.398-3.063-8.297a1.923 1.923 0 0 1-.062-1.656c.258-.594.672-.985 1.234-1.172.29-.113.602-.172.938-.172.3 0 .617.059.953.172a2.67 2.67 0 0 1 1.39 1.281c1.446 2.856 2.54 5.578 3.282 8.172zm0 0"/><path d="M709.142 670.778c.562 0 1.047.203 1.453.61.406.406.61.902.61 1.484 0 .574-.204 1.058-.61 1.453-.406.387-.89.578-1.453.578h-12.125c-.594 0-1.102-.191-1.516-.578a1.947 1.947 0 0 1-.61-1.453c0-.582.204-1.078.61-1.485.414-.406.922-.609 1.516-.609zm-2.219 35.906c0-.257-.133-.39-.39-.39h-7.126c-.261 0-.39.133-.39.39v7.407c0 .25.129.375.39.375h7.125c.258 0 .391-.125.391-.375zm1.281-4.687c.926 0 1.703.32 2.328.953.633.637.953 1.418.953 2.344v10.125c0 .898-.32 1.664-.953 2.312-.625.645-1.402.969-2.328.969h-8.906c-.188 0-.281.094-.281.281 0 .594-.215 1.102-.64 1.531-.43.426-.938.641-1.532.641h-.11c-.636 0-1.18-.226-1.625-.672a2.192 2.192 0 0 1-.656-1.61v-13.577c0-.926.32-1.707.969-2.344.656-.633 1.426-.953 2.312-.953zm-11.578-3.781a2.033 2.033 0 0 1-1.453-.579 1.947 1.947 0 0 1-.61-1.453c0-.57.204-1.062.61-1.468.406-.407.89-.61 1.453-.61h12.578c.594 0 1.082.203 1.469.61.395.406.594.898.594 1.468 0 .575-.2 1.059-.594 1.453-.387.387-.875.579-1.469.579zm12.578-11.86c.594 0 1.082.211 1.469.625.395.406.594.89.594 1.453 0 .555-.2 1.032-.594 1.438-.387.406-.875.61-1.469.61h-12.578a1.984 1.984 0 0 1-1.453-.61c-.406-.406-.61-.883-.61-1.438 0-.562.204-1.047.61-1.453.406-.414.89-.625 1.453-.625zm-15.203-3.672a1.98 1.98 0 0 1-1.5-.64 2.102 2.102 0 0 1-.61-1.5c0-.57.204-1.063.61-1.469.406-.406.906-.61 1.5-.61h17.047c.594 0 1.094.204 1.5.61.406.406.61.898.61 1.469 0 .574-.204 1.074-.61 1.5a1.98 1.98 0 0 1-1.5.64zm42.313 30.953c.289 0 .437-.144.437-.437v-9.078c0-.258-.148-.39-.437-.39h-14.141c-.262 0-.39.132-.39.39v9.078c0 .293.128.437.39.437zm7.515-27.656c.477.48.719 1.063.719 1.75 0 .688-.242 1.281-.719 1.781-.48.5-1.074.75-1.781.75h-9.906c-.262 0-.39.133-.39.391v7.844c0 .305.128.453.39.453h6.562c.895 0 1.664.32 2.313.953.644.625.968 1.402.968 2.328v16.078c0 .707-.261 1.32-.78 1.844-.512.52-1.122.781-1.829.781h-.39a2.118 2.118 0 0 1-1.594-.672c-.43-.449-.64-.968-.64-1.562 0-.188-.09-.281-.267-.281h-14.421c-.188 0-.282.093-.282.281 0 .707-.25 1.3-.75 1.781-.5.489-1.086.735-1.75.735h-.062c-.7 0-1.305-.258-1.813-.766-.5-.5-.75-1.102-.75-1.797v-16.422c0-.926.32-1.703.97-2.328.655-.633 1.429-.953 2.327-.953h5.953c.258 0 .391-.148.391-.453v-7.844c0-.258-.133-.39-.39-.39h-9.86c-.7 0-1.293-.25-1.781-.75a2.481 2.481 0 0 1-.719-1.782c0-.687.238-1.27.719-1.75a2.426 2.426 0 0 1 1.781-.734h9.86c.257 0 .39-.145.39-.438v-7.187c0-.29-.133-.422-.39-.39-3.2.374-5.633.636-7.298.78a.435.435 0 0 1-.218.063 2.54 2.54 0 0 1-1.61-.563c-.523-.406-.914-.94-1.172-1.609-.187-.562-.136-1.094.157-1.594.3-.5.726-.77 1.281-.812 7.687-.77 14.07-1.785 19.156-3.047a4.364 4.364 0 0 1 1.172-.172c.477 0 .942.074 1.39.219.813.262 1.5.71 2.063 1.344.29.336.438.718.438 1.156 0 .187-.04.375-.11.562-.187.637-.593 1.028-1.218 1.172-2.274.555-4.871 1.09-7.797 1.61-.262.043-.39.21-.39.5v7.968c0 .293.128.438.39.438h9.906c.707 0 1.3.246 1.781.734zm0 0"/></g><path d="M141.251 687.125c1.375 0 2.55-.488 3.531-1.469.977-.976 1.469-2.156 1.469-3.53v-55.813h-.047c0-.457-.062-.914-.187-1.375-.399-1.352-1.172-2.348-2.329-2.985a4.985 4.985 0 0 0-2.437-.64c-.461 0-.918.058-1.375.172l-16.39 4.687c-1.376.43-2.387 1.227-3.032 2.39a4.816 4.816 0 0 0-.594 2.344c0 .493.063.98.188 1.47.394 1.343 1.176 2.335 2.344 2.968a4.77 4.77 0 0 0 2.421.656c.458 0 .915-.062 1.375-.187l10.063-2.891v49.203c0 1.375.488 2.555 1.469 3.531.976.98 2.156 1.47 3.531 1.47zm0 0" fill="#FFF"/></svg>