<svg xmlns="http://www.w3.org/2000/svg" width="1080" viewBox="0 0 810 810" height="1080" version="1"><defs><clipPath id="a"><path d="M202 23.902h405v510H202zm0 0"/></clipPath></defs><path fill="#FFF" d="M-81 -81H891V891H-81z"/><path fill="#FFF" d="M-81 -81H891V891H-81z"/><path fill="#FFF" d="M-81 -81H891V891H-81z"/><path fill="#4DD171" d="M137.266 581.402c-40.801 0-73.875 33.075-73.875 73.875 0 40.797 33.074 73.875 73.875 73.875 40.8 0 73.875-33.078 73.875-73.875 0-40.8-33.075-73.875-73.875-73.875M546.82 66.336h-98.293a7.47 7.47 0 0 0-7.468 7.473 7.469 7.469 0 0 0 7.468 7.468h98.293a7.469 7.469 0 0 0 7.47-7.468 7.47 7.47 0 0 0-7.47-7.473zm0 66.5l448.527 66.336a7.469 7.469 0 0 0-7.468 7.469 7.47 7.47 0 0 0 7.468 7.472h98.293a7.47 7.47 0 0 0 7.47-7.472 7.469 7.469 0 0 0-7.47-7.47zm1093.64 199.164l-98.293 33.25a7.47 7.47 0 0 0-7.468 7.473 7.469 7.469 0 0 0 7.468 7.468h98.293a7.469 7.469 0 0 0 7.47-7.468 7.47 7.47 0 0 0-7.47-7.473zm0 33.25"/><g clip-path="url(#a)"><path fill="#4DD171" d="M590.785 23.902H512.61a7.47 7.47 0 0 0-7.468 7.473 7.469 7.469 0 0 0 7.468 7.469h78.176c.653 0 1.184.531 1.184 1.183v128.828c0 .653-.532 1.184-1.184 1.184H452.113a16.122 16.122 0 0 0-10.843 4.188l-3.782 3.437c-.008.008-.02.016-.027.024l-32.102 29.164c-.152.144-.57.52-1.273.207-.707-.313-.707-.871-.707-1.082V40.027c0-.652.531-1.183 1.183-1.183h78.176a7.472 7.472 0 1 0 0-14.942h-78.175c-8.891 0-16.125 7.235-16.125 16.125V70.18c-.583-.008-1.18-.032-1.758-.032-77.192 0-139.993 62.801-139.993 139.993 0 5.902.368 12.214 1.102 18.77a7.471 7.471 0 0 0 14.848-1.661c-.672-6.004-1.012-11.758-1.012-17.11 0-68.952 56.098-125.05 125.055-125.05.574 0 1.172.023 1.757.031v55.516c-.585-.016-1.171-.035-1.757-.035-38.344 0-69.54 31.195-69.54 69.539 0 38.347 31.196 69.539 69.54 69.539 38.343 0 69.539-31.192 69.539-69.54a69.009 69.009 0 0 0-4.66-25.003c.566-.305-3.356-.086 57.62-.157a125.905 125.905 0 0 1 2.551 25.16c0 71.883-58.445 190.798-125.05 190.798-17.114 0-43.602-8.004-72.606-46.141-21.289-27.992-37.683-64.649-46.133-98.649-.996-4.003-5.05-6.445-9.05-5.449a7.467 7.467 0 0 0-5.45 9.051c4.473 18.008 10.871 36.043 18.664 53.078h-48.558c-11.406 0-20.684 9.277-20.684 20.684v179.707c0 11.406 9.278 20.683 20.684 20.683h207.277a7.469 7.469 0 0 0 7.469-7.468 7.47 7.47 0 0 0-7.469-7.473h-58.539l-25.348-16.824 208.618-108.719v119.8a5.746 5.746 0 0 1-5.742 5.743H460.69a7.47 7.47 0 0 0-7.468 7.473 7.469 7.469 0 0 0 7.468 7.468h89.122c11.406 0 20.683-9.277 20.683-20.683V333.512c0-11.407-9.277-20.684-20.683-20.684H501.25c15.813-34.652 25.422-72.594 25.422-102.687 0-8.457-.77-16.883-2.27-25.16h66.383c8.89 0 16.125-7.235 16.125-16.126V40.027c0-8.89-7.234-16.125-16.125-16.125zM386.68 264.742c-30.106 0-54.598-24.492-54.598-54.597 0-30.106 24.492-54.598 54.598-54.598.586 0 1.172.012 1.761.031v50.402c0 6.473 3.676 12.125 9.598 14.747a16.324 16.324 0 0 0 6.594 1.41c3.902 0 7.719-1.446 10.777-4.223l24.027-21.832a54.514 54.514 0 0 1 1.844 14.063c-.004 30.105-24.496 54.597-54.601 54.597zM217.805 513.22v-48.977l82.433 54.719h-76.691a5.746 5.746 0 0 1-5.742-5.742zm111.004-18.485a7.464 7.464 0 0 0-4.008 6.235 7.466 7.466 0 0 0 3.328 6.617l17.137 11.375h-18.012l-109.45-72.652v-11.957l86.626 57.503a7.465 7.465 0 0 0 7.586.403l243.543-126.922v11.234zM549.812 327.77a5.752 5.752 0 0 1 5.747 5.742v14.976l-246.54 128.48-91.214-60.55v-82.906a5.752 5.752 0 0 1 5.742-5.742h55.883c6.863 13.05 14.527 25.257 22.754 36.074 25.89 34.043 55.109 52.039 84.496 52.039 35.742 0 71.304-26.758 100.132-75.348a282.985 282.985 0 0 0 7.118-12.765zm0 0"/></g><path fill="#4DD171" d="M420.305 476.621l-12.043 6.277a7.467 7.467 0 0 0-3.172 10.075 7.466 7.466 0 0 0 10.078 3.175l12.043-6.277a7.471 7.471 0 0 0-6.906-13.25zm83.25-5.984l432.348 470.347a7.472 7.472 0 0 0-6.907-13.253l-12.043 6.277a7.47 7.47 0 0 0-3.171 10.078 7.47 7.47 0 0 0 10.078 3.172zm927.234 909.906c42.79-2.992 43.969-3.265 45.07-3.84l12.043-6.277a7.471 7.471 0 0 0 3.176-10.078c-1.91-3.66-6.426-5.078-10.078-3.172l-12.043 6.273c-3.66 1.91-5.082 6.422-3.176 10.079a7.472 7.472 0 0 0 6.633 4.023zm41.625-2.992"/><g fill="#4DD171"><path d="M262.892 605.247a1.136 1.136 0 0 1-.625.656 1.063 1.063 0 0 1-.86.016 1.294 1.294 0 0 1-.64-.578c-.149-.281-.164-.586-.047-.922a59.949 59.949 0 0 0 1.672-6.125c.07-.375.285-.66.64-.86.352-.206.735-.238 1.141-.093.363.148.64.418.828.812.188.387.207.782.063 1.188-1.336 3.719-2.059 5.687-2.172 5.906zm-11.14-6.453a1.267 1.267 0 0 1 .14-.938c.164-.3.398-.488.703-.562.332-.113.656-.086.969.078.312.168.523.418.64.75.633 2.086 1.063 4.031 1.282 5.844.07.375-.008.73-.235 1.062a1.582 1.582 0 0 1-.937.672c-.293.074-.59.016-.891-.172a1.03 1.03 0 0 1-.5-.78 29.314 29.314 0 0 0-1.172-5.954zm-.391-3.844c-.25 0-.375.153-.375.453v12.235c0 .304.125.453.375.453h4.687c.29 0 .438-.149.438-.453v-12.235c0-.3-.149-.453-.438-.453zm13.921 13.14c.301 0 .454-.148.454-.452v-12.235c0-.3-.153-.453-.454-.453h-4.953c-.293 0-.437.153-.437.453v12.235c0 .304.144.453.437.453zm-17.359 19.595h-.125a2.039 2.039 0 0 1-1.5-.61c-.523-.445-.781-1.004-.781-1.672 0-.593.207-1.093.625-1.5.406-.488.922-.734 1.547-.734 3.718-.145 6.3-.254 7.75-.328.289 0 .437-.149.437-.453v-2.828c0-.301-.148-.454-.437-.454h-6.625c-.594 0-1.09-.19-1.485-.578-.386-.394-.578-.879-.578-1.453 0-.57.192-1.05.578-1.437.395-.395.89-.594 1.485-.594h6.625c.289 0 .437-.145.437-.438V612.2c0-.289-.148-.437-.437-.437h-5.188c-.93 0-1.71-.313-2.344-.938-.625-.633-.937-1.414-.937-2.344V594.56c0-.926.312-1.704.937-2.329.633-.632 1.414-.953 2.344-.953h16.375c.883 0 1.649.32 2.297.953.656.625.984 1.403.984 2.329v13.921c0 .93-.328 1.711-.984 2.344-.648.625-1.414.938-2.297.938h-5.625c-.262 0-.39.148-.39.437v2.406c0 .293.128.438.39.438h7.016a2 2 0 0 1 1.437.594c.407.386.61.867.61 1.437 0 .574-.203 1.059-.61 1.453a2.016 2.016 0 0 1-1.437.578H261c-.262 0-.39.153-.39.454v2.609c0 .305.128.434.39.39 1.219-.038 3.852-.171 7.906-.39a2 2 0 0 1 1.438.594c.406.386.594.875.562 1.468 0 .594-.214 1.106-.64 1.532-.43.43-.938.656-1.531.687-1.524.117-8.461.528-20.813 1.235zm1.11 12.468c-.262.477-.684.774-1.266.891a2.24 2.24 0 0 1-1.625-.281c-.45-.219-.73-.59-.844-1.11v-.39c0-.375.094-.711.281-1 1.04-1.707 1.82-3.953 2.344-6.735.07-.488.32-.867.75-1.14a1.548 1.548 0 0 1 1.36-.203c.519.117.925.406 1.218.875.3.46.395.949.281 1.468-.593 3.305-1.43 5.844-2.5 7.625zm4.343-8.687v-.281c0-.332.094-.63.281-.891.25-.363.598-.566 1.047-.61.489-.07.926.032 1.313.313.383.274.633.652.75 1.14.476 2.15.797 4.278.953 6.391.031.489-.121.926-.453 1.313-.336.394-.742.629-1.219.703-.492.07-.914-.055-1.266-.375a1.746 1.746 0 0 1-.578-1.188 64.665 64.665 0 0 0-.828-6.515zm5.735-.281a2.237 2.237 0 0 1-.063-.5c0-.258.055-.485.172-.672.219-.407.531-.645.937-.719a2.2 2.2 0 0 1 1.375.234c.426.22.711.547.86.985a39.436 39.436 0 0 1 1.828 5.86c.113.48.039.929-.219 1.358a1.747 1.747 0 0 1-1.11.813c-.48.07-.917-.023-1.312-.281a1.53 1.53 0 0 1-.687-1.063c-.375-1.851-.969-3.86-1.781-6.015zm5.843-.782a1.207 1.207 0 0 1-.234-.718c0-.145.02-.29.062-.438a1.47 1.47 0 0 1 .829-.89c.445-.188.921-.208 1.421-.063.5.148.88.422 1.141.828 1.227 1.824 2.25 3.649 3.063 5.469.226.48.226.96 0 1.437-.22.48-.57.836-1.047 1.063-.45.187-.907.176-1.375-.031a2.041 2.041 0 0 1-1.032-1.032c-.742-1.812-1.683-3.687-2.828-5.625zm24.703 3.953c.258 0 .391-.144.391-.437v-12.531c0-.29-.133-.438-.39-.438h-11.844c-.262 0-.391.149-.391.438v12.531c0 .293.129.437.39.437zm6.844-32.171c.488.48.735 1.058.735 1.734 0 .668-.247 1.242-.735 1.719-.48.48-1.055.718-1.719.718h-8.734c-.305 0-.453.153-.453.454v8.906c0 .262.148.39.453.39h5.734c.926 0 1.704.325 2.329.97.632.648.953 1.417.953 2.312v19.531c0 .676-.246 1.266-.735 1.766-.48.5-1.07.75-1.765.75H292c-.523 0-.98-.2-1.375-.594a1.913 1.913 0 0 1-.578-1.406c0-.157-.074-.235-.219-.235h-12.125c-.187 0-.281.094-.281.281 0 .594-.215 1.102-.64 1.532-.43.426-.938.64-1.532.64h-.281a2.274 2.274 0 0 1-1.703-.734 2.395 2.395 0 0 1-.688-1.719v-19.812c0-.895.313-1.664.938-2.313.633-.644 1.414-.969 2.344-.969h4.171c.301 0 .454-.128.454-.39v-23.719c0-.695.25-1.297.75-1.797.5-.508 1.097-.765 1.796-.765.707 0 1.313.257 1.813.765.5.5.75 1.102.75 1.797v9.016c0 .304.148.453.453.453h8.734c.664 0 1.239.242 1.72.719zm0 0"/><path d="M308.595 603.794c0 .262.129.39.39.39h3.782c.289 0 .437-.128.437-.39v-.938c0-.3-.148-.453-.437-.453h-3.781c-.262 0-.391.153-.391.453zm.39-5.063c-.261 0-.39.133-.39.391v.844c0 .262.129.39.39.39h3.782c.289 0 .437-.128.437-.39v-.844c0-.258-.148-.39-.437-.39zm13.36.391c0-.258-.152-.39-.453-.39h-4.11c-.261 0-.39.132-.39.39v.844c0 .262.129.39.39.39h4.11c.3 0 .453-.128.453-.39zm-.453 5.063c.3 0 .453-.13.453-.391v-.938c0-.3-.152-.453-.453-.453h-4.11c-.261 0-.39.153-.39.453v.938c0 .262.129.39.39.39zm-9.125 10.03c.289 0 .437-.128.437-.39v-2.734c0-.258-.148-.39-.437-.39h-8.906c-.375 0-.704-.134-.985-.407a1.38 1.38 0 0 1-.406-1c0-.395.133-.723.406-.984.281-.258.61-.391.985-.391h8.906c.289 0 .437-.145.437-.438v-.78c0-.259-.148-.391-.437-.391h-4.563c-.898 0-1.668-.32-2.312-.97-.649-.655-.969-1.425-.969-2.312v-3.172c0-.937.32-1.718.969-2.343.644-.633 1.414-.953 2.312-.953h4.563c.289 0 .437-.145.437-.438v-.719c0-.3-.148-.453-.437-.453h-8.016a1.42 1.42 0 0 1-1.031-.406 1.403 1.403 0 0 1-.422-1.031c0-.414.14-.758.422-1.032a1.403 1.403 0 0 1 1.031-.421h8.125c.219 0 .328-.094.328-.282v-.328c0-.562.203-1.047.61-1.453.414-.406.91-.61 1.484-.61.57 0 1.063.204 1.469.61.414.406.625.89.625 1.453v.328c0 .188.086.282.265.282h8.641c.406 0 .742.14 1.016.421.28.274.422.618.422 1.032 0 .406-.141.75-.422 1.031-.274.273-.61.406-1.016.406h-8.516c-.261 0-.39.153-.39.453v.72c0 .292.129.437.39.437h5c.926 0 1.704.32 2.329.953.632.625.953 1.406.953 2.343v3.172c0 .887-.32 1.657-.953 2.313-.625.648-1.403.969-2.329.969h-5c-.261 0-.39.132-.39.39v.781c0 .293.129.438.39.438h8.782c.375 0 .695.133.968.39.282.262.422.59.422.985 0 .387-.14.719-.422 1a1.317 1.317 0 0 1-.968.406h-8.782c-.261 0-.39.133-.39.39v2.735c0 .262.129.39.39.39h3.672c.219 0 .328-.112.328-.343v-.719c0-.52.192-.972.579-1.359.394-.395.859-.594 1.39-.594.54 0 1.004.2 1.39.594.395.387.595.84.595 1.36v1c0 .812-.29 1.515-.86 2.109a2.806 2.806 0 0 1-2.094.89h-14.53c-.813 0-1.516-.297-2.11-.89-.594-.594-.89-1.297-.89-2.11v-1.062c0-.508.179-.953.546-1.328a1.83 1.83 0 0 1 1.344-.563c.52 0 .96.188 1.328.563.375.375.562.82.562 1.328v.781c0 .23.114.344.344.344zm18.312 13.25c-.304 0-.453.126-.453.376v1.734c0 .293.149.438.453.438h20.266c.52 0 .953.18 1.297.531.351.355.531.781.531 1.281 0 .5-.18.918-.531 1.25-.344.336-.778.5-1.297.5h-20.266c-.304 0-.453.153-.453.453v2.844c0 1.258-.187 2.192-.562 2.797-.368.613-1.028 1.086-1.985 1.422-1.343.414-3.777.625-7.297.625-.636 0-1.214-.2-1.734-.594a3.617 3.617 0 0 1-1.156-1.469c-.188-.449-.153-.875.11-1.28a1.24 1.24 0 0 1 1.109-.61c1.226.031 2.269.047 3.125.047.882 0 1.53-.016 1.937-.047.488-.043.816-.133.984-.266.164-.125.25-.375.25-.75v-2.719c0-.3-.152-.453-.453-.453h-20.093c-.524 0-.961-.164-1.313-.5a1.639 1.639 0 0 1-.531-1.25c0-.5.176-.926.531-1.281.352-.352.79-.531 1.313-.531h20.093c.301 0 .453-.145.453-.438v-1.734c0-.25-.152-.375-.453-.375h-16.64c-.48 0-.883-.164-1.203-.5a1.695 1.695 0 0 1-.47-1.172c0-.445.157-.828.47-1.14.32-.321.722-.485 1.203-.485h16.64c.301 0 .453-.145.453-.438v-1.609c0-.3-.152-.43-.453-.39-4.636.18-9.015.265-13.14.265h-1.11c-.449 0-.851-.144-1.203-.437a2.579 2.579 0 0 1-.75-1.172 1.166 1.166 0 0 1 .172-1.032c.219-.312.516-.468.89-.468 12.801-.04 22.766-.563 29.891-1.563.301-.031.563-.047.782-.047 1.144 0 2.164.371 3.062 1.11.29.261.39.593.297 1-.086.406-.336.648-.75.718-3.563.563-7.57.993-12.016 1.282-.304 0-.453.152-.453.453v1.89c0 .293.149.438.453.438h17.203c.446 0 .829.164 1.141.484.313.313.469.703.469 1.172 0 .461-.156.852-.469 1.172a1.557 1.557 0 0 1-1.14.469zm13.36-20.437c.07-.07.086-.144.047-.218-.032-.07-.086-.11-.157-.11h-8.515c-.118 0-.196.04-.235.11-.031.074-.011.148.063.218 1.07 1.305 2.351 2.453 3.844 3.453.218.149.457.149.718 0 1.707-.968 3.117-2.117 4.235-3.453zm2.453-3.78c1.113 0 1.969.073 2.562.218.332.117.57.328.719.64.145.313.145.637 0 .97a17.904 17.904 0 0 1-6.125 7.359.341.341 0 0 0-.11.25c0 .093.036.156.11.187 2.375.93 5.066 1.672 8.078 2.234.477.075.8.344.969.813.164.46.098.871-.203 1.234-.813 1.086-1.742 1.625-2.781 1.625a4.4 4.4 0 0 1-.72-.062c-3.562-.781-6.808-1.969-9.734-3.563a.922.922 0 0 0-.734 0c-2.219.899-4.742 1.621-7.562 2.172-.524.074-1.032-.023-1.532-.297-.5-.28-.902-.703-1.203-1.265a1.16 1.16 0 0 1-.156-.61c0-.187.035-.39.11-.609.175-.406.488-.645.937-.719 1.969-.3 3.863-.71 5.687-1.234.07-.031.114-.094.125-.188.02-.093-.008-.16-.078-.203a20.886 20.886 0 0 1-2.61-2.781c-.374-.438-.464-.93-.265-1.484a1.776 1.776 0 0 1 1.156-1.125c.032 0 .036-.016.016-.047-.012-.04-.016-.063-.016-.063h-2.843c-.48 0-.899-.164-1.25-.5a1.617 1.617 0 0 1-.532-1.234v-.5c0-.332.13-.617.391-.86.258-.238.555-.359.89-.359.04 0 .067-.016.079-.047.02-.039.015-.082-.016-.125a4.047 4.047 0 0 1-.453-.5 2.334 2.334 0 0 1-.719-1.719c0-.851.313-1.597.938-2.234 1.156-1.113 1.734-2.539 1.734-4.281 0-.926.313-1.703.938-2.328.632-.633 1.414-.953 2.343-.953h8.407c.882 0 1.648.32 2.297.953.656.625.984 1.402.984 2.328v2.11c0 .78.07 1.265.219 1.452.113.149.336.22.672.22h1.343c.332 0 .61-.056.828-.173.258-.07.426-.312.5-.719.07-.144.11-.406.11-.78.039-.364.242-.641.61-.829.374-.187.726-.187 1.062 0 1.039.555 1.562 1.277 1.562 2.172 0 .105-.023.234-.062.39-.106.887-.235 1.497-.391 1.829-.437.742-.977 1.242-1.61 1.5-.523.23-1.355.343-2.5.343h-2.624c-1.407 0-2.446-.316-3.11-.953-.406-.406-.699-.922-.875-1.547-.168-.632-.25-1.617-.25-2.953v-1.234c0-.29-.148-.438-.437-.438h-5.235c-.261 0-.406.149-.437.438-.156 3.418-1.606 6.039-4.344 7.86-.074.03-.105.077-.094.14.02.055.067.078.141.078zm0 0"/></g><g fill="#4DD171"><path d="M283.876 704.231a2.571 2.571 0 0 1-1.89.782c-.743 0-1.368-.258-1.875-.782-.5-.52-.75-1.148-.75-1.89v-30.672c0-.926.316-1.703.953-2.328.632-.633 1.414-.953 2.343-.953h12.579c.664 0 1.238.234 1.718.703.477.46.719 1.031.719 1.719 0 .687-.242 1.273-.719 1.75-.48.48-1.054.718-1.718.718h-10.188c-.262 0-.39.133-.39.391v28.672c0 .742-.262 1.37-.782 1.89zm0 0"/><path d="M334.314 674.231a2.204 2.204 0 0 1-.344-1.171c0-.301.055-.579.172-.829.258-.707.722-1.19 1.39-1.453a3.063 3.063 0 0 1 1.11-.218c.375 0 .726.054 1.062.156.739.305 1.313.789 1.719 1.453 1.633 2.824 3.617 5.648 5.953 8.469 2.344 2.812 4.738 5.277 7.188 7.39.664.594 1 1.34 1 2.235 0 .781-.278 1.468-.828 2.062-.637.668-1.383 1.04-2.235 1.11h-.281c-.742 0-1.406-.282-2-.844a54.722 54.722 0 0 1-2.063-2.172c-.074-.031-.136-.035-.187-.016-.055.012-.102.059-.14.141 0 .887-.024 1.496-.063 1.828-.367 8.762-.793 15.027-1.281 18.797-.481 3.762-1.2 6.195-2.157 7.312-.636.782-1.289 1.317-1.953 1.61-.668.3-1.578.547-2.734.734-.856.07-2.024.11-3.5.11h-2.5a3.257 3.257 0 0 1-2.063-.875c-.593-.532-1.043-1.204-1.343-2.016-.188-.594-.118-1.14.218-1.64.344-.508.828-.743 1.453-.704 1.852.117 3.579.172 5.172.172 1.114 0 1.93-.281 2.453-.844.664-.664 1.192-2.484 1.579-5.453.394-2.969.742-7.66 1.046-14.078 0-.258-.132-.39-.39-.39h-12.36c-.261 0-.414.132-.453.39-.293 2.219-.664 4.219-1.11 6-.448 1.781-1.1 3.633-1.952 5.547-.856 1.906-1.875 3.633-3.063 5.172-1.187 1.543-2.699 3.027-4.531 4.453-1.836 1.426-3.937 2.66-6.312 3.703-.407.188-.82.281-1.235.281-.367 0-.715-.074-1.047-.218a3.619 3.619 0 0 1-1.89-1.454c-.305-.406-.453-.835-.453-1.28 0-.188.019-.372.062-.548.176-.675.582-1.144 1.219-1.406 2.082-.883 3.91-1.91 5.484-3.078 1.57-1.176 2.867-2.383 3.89-3.625a19.275 19.275 0 0 0 2.61-4.188c.727-1.562 1.27-3.054 1.625-4.484.352-1.437.66-3.062.922-4.875.031-.258-.086-.39-.344-.39h-6.953c-.93 0-1.71-.32-2.344-.97-.625-.656-.937-1.425-.937-2.312v-.672c0-.07-.04-.125-.11-.156a.242.242 0 0 0-.218-.016 39.882 39.882 0 0 1-2.516 2.391 3.02 3.02 0 0 1-2.062.781.538.538 0 0 1-.22-.047c-.855-.039-1.616-.359-2.28-.953a2.56 2.56 0 0 1-.782-1.89c0-.813.317-1.477.954-2 5.562-4.414 9.957-9.985 13.187-16.703a3.598 3.598 0 0 1 1.734-1.735 3.686 3.686 0 0 1 1.391-.265c.29 0 .586.039.89.109.77.219 1.305.684 1.61 1.39.188.337.281.688.281 1.063 0 .336-.093.684-.281 1.047-2.781 5.719-6.309 10.86-10.578 15.422a.395.395 0 0 0-.031.219c.02.074.066.109.14.109h33.516c.07 0 .125-.035.156-.11.04-.07.024-.144-.047-.218a86.044 86.044 0 0 1-11.015-15.36zm0 0"/><path d="M407.22 673.45a2.23 2.23 0 0 1 1.625.672c.445.438.672.977.672 1.61 0 .636-.227 1.18-.672 1.624-.45.438-.992.657-1.625.657h-44.531a2.218 2.218 0 0 1-1.61-.657 2.202 2.202 0 0 1-.672-1.625c0-.632.223-1.171.672-1.609a2.201 2.201 0 0 1 1.61-.672h18.937c.29 0 .438-.148.438-.453v-1.39c0-.77.27-1.426.812-1.97a2.667 2.667 0 0 1 1.953-.812c.758 0 1.407.274 1.938.813.539.543.812 1.199.812 1.968v1.391c0 .305.145.453.438.453zm-34.281 11.516c-.262 0-.391.133-.391.39v3.516c0 .262.129.39.39.39h24.22c.257 0 .39-.128.39-.39v-3.516c0-.257-.133-.39-.39-.39zm30.218 4.734c0 .899-.324 1.668-.968 2.313-.649.648-1.418.968-2.313.968h-29.281c-.93 0-1.711-.32-2.344-.968a3.203 3.203 0 0 1-.937-2.313v-5.234c0-.883.312-1.649.937-2.297.633-.656 1.414-.984 2.344-.984h29.281c.895 0 1.664.328 2.313.984.644.648.968 1.414.968 2.297zm4.954 16.375c.632 0 1.175.215 1.625.64.445.419.671.946.671 1.579 0 .637-.226 1.168-.671 1.594-.45.43-.993.64-1.625.64h-19.97c-.304 0-.452.149-.452.438v5.172c0 1.375-.227 2.394-.672 3.062-.438.664-1.235 1.172-2.39 1.516-1.524.406-4.306.61-8.345.61-.71 0-1.343-.212-1.906-.626a3.864 3.864 0 0 1-1.265-1.61c-.231-.523-.2-1.007.093-1.452.301-.438.711-.64 1.235-.61h6.297c.519-.03.878-.125 1.078-.28.207-.145.312-.423.312-.829v-4.953c0-.29-.152-.438-.453-.438h-19.64c-.637 0-1.18-.21-1.626-.64-.437-.426-.656-.957-.656-1.594 0-.633.219-1.16.656-1.578.446-.426.989-.64 1.625-.64h19.75c.227 0 .344-.114.344-.345v-.218c0-.664.227-1.227.688-1.688.468-.469 1.015-.703 1.64-.703.227 0 .438-.02.625-.062 2.219-.664 4.645-1.57 7.282-2.72.07 0 .097-.023.078-.077-.012-.063-.04-.094-.078-.094h-25.094a2.087 2.087 0 0 1-1.516-.61 2.039 2.039 0 0 1-.61-1.5c0-.593.204-1.093.61-1.5a2.07 2.07 0 0 1 1.516-.624h33.109a2.29 2.29 0 0 1 .453-.047c.52 0 1 .183 1.438.547l.89.734c.414.367.602.828.563 1.39-.043.555-.305.962-.781 1.22-4.375 2.417-9.438 4.476-15.188 6.171-.043 0-.062.024-.062.063 0 .043.02.062.062.062zm0 0"/><path d="M423.486 676.903c-.305 0-.454.149-.454.438v2.344c0 .668-.234 1.234-.703 1.703-.46.46-1.023.687-1.687.687a2.334 2.334 0 0 1-1.703-.687 2.334 2.334 0 0 1-.688-1.703v-3.672c0-.895.32-1.664.969-2.313.656-.644 1.426-.969 2.312-.969h17.375c.29 0 .438-.128.438-.39v-.89c0-.708.258-1.321.781-1.845.52-.52 1.14-.78 1.86-.78.726 0 1.347.26 1.859.78.52.524.781 1.137.781 1.844v.89c0 .263.149.391.453.391h17.532c.894 0 1.664.325 2.312.97.645.648.969 1.417.969 2.312v3.562a2.459 2.459 0 0 1-2.5 2.5c-.711 0-1.305-.238-1.781-.719-.481-.488-.72-1.082-.72-1.78v-2.235c0-.29-.152-.438-.452-.438zm16.078 5.625c.039-.3-.09-.453-.391-.453h-7.844c-.293 0-.46.153-.5.453l-.172 1.438c-.03.262.098.39.391.39h7.969c.289 0 .437-.128.437-.39zm13.468 1.828c.301 0 .454-.128.454-.39l.109-1.438c.039-.3-.09-.453-.39-.453h-8.798c-.261 0-.406.153-.437.453l-.11 1.438c0 .262.13.39.391.39zm-9.734 4.954c0 .304.129.453.39.453h8.907c.289 0 .437-.149.437-.453l.125-1.5c.032-.258-.101-.391-.39-.391h-8.86c-.261 0-.406.133-.437.39zm-12.64-1.891c-.294 0-.462.133-.5.39l-.22 1.5c-.042.305.067.454.329.454h8.078c.289 0 .457-.149.5-.453.039-.364.113-.864.219-1.5.039-.258-.09-.391-.391-.391zm-2.563 5.172c-.887 0-1.61-.332-2.172-1a2.604 2.604 0 0 1-.719-1.828v-.453l.172-1.11c.031-.258-.086-.39-.344-.39h-6.062c-.524 0-.98-.18-1.375-.547a1.838 1.838 0 0 1-.578-1.375c0-.54.191-.992.578-1.36a1.932 1.932 0 0 1 1.375-.562h6.578c.25 0 .395-.13.438-.39l.171-1.11a3.516 3.516 0 0 1 1.22-2.328c.706-.633 1.523-.953 2.452-.953h25.719c.883 0 1.625.336 2.219 1 .52.554.781 1.203.781 1.953 0 .105-.016.215-.047.328l-.062 1.11c-.043.26.066.39.328.39h6.406c.52 0 .973.187 1.36.562.394.368.593.82.593 1.36 0 .543-.2 1-.594 1.375-.386.367-.84.547-1.359.547h-6.734c-.262 0-.414.132-.453.39l-.11 1.11a3.452 3.452 0 0 1-1.14 2.343 3.486 3.486 0 0 1-2.422.938zm1.234 15.203c-.304 0-.453.148-.453.437v1.407c0 .25.149.375.453.375h25.547c.29 0 .438-.125.438-.375v-1.407c0-.289-.149-.437-.438-.437zm0-5.063c-.304 0-.453.149-.453.438v1.344c0 .261.149.39.453.39h25.547c.29 0 .438-.129.438-.39v-1.344c0-.29-.149-.438-.438-.438zm0-5.015c-.304 0-.453.152-.453.453v1.219c0 .304.149.453.453.453h25.547c.29 0 .438-.149.438-.453v-1.219c0-.3-.149-.453-.438-.453zm31.328 12.031c0 .93-.324 1.711-.968 2.344a3.216 3.216 0 0 1-2.313.937h-6.515c-.032 0-.047.024-.047.063 0 .031.015.047.047.047 5.05 1.449 9.617 2.84 13.703 4.172.625.187.937.613.937 1.28 0 .477-.203.849-.61 1.11-.929.594-1.89.89-2.89.89-.594 0-1.226-.109-1.89-.327a240.62 240.62 0 0 0-11.797-3.89c-.68-.188-1.09-.634-1.235-1.345a1.857 1.857 0 0 1-.047-.39c0-.52.204-.946.61-1.282l.047-.046c.039-.04.05-.098.03-.172-.023-.07-.07-.11-.14-.11h-11.687c-.074 0-.121.04-.14.11-.024.074.007.133.093.172l.156.109c.594.367.89.902.89 1.61 0 .812-.35 1.37-1.046 1.671-3.938 1.781-8.543 3.172-13.813 4.172-.293.04-.57.063-.828.063-1.156 0-2.18-.5-3.062-1.5-.23-.262-.344-.543-.344-.844 0-.117.02-.246.063-.39.144-.481.457-.759.937-.829 6.05-1.082 10.8-2.457 14.25-4.125.04-.031.05-.07.031-.125-.023-.062-.047-.094-.078-.094h-5.906c-.887 0-1.656-.312-2.313-.937-.648-.633-.968-1.414-.968-2.344v-11.75c0-.926.32-1.703.968-2.328.657-.633 1.426-.953 2.313-.953h30.281c.895 0 1.664.32 2.313.953.644.625.968 1.402.968 2.328zm0 0"/><path d="M486.61 677.685c0-.301-.152-.454-.453-.454h-6.015c-.262 0-.39.153-.39.454v10.625c0 .261.128.39.39.39h6.015c.301 0 .454-.129.454-.39zm-6.859 27.328c0 .261.129.39.39.39h6.016c.301 0 .454-.129.454-.39v-11.188c0-.3-.153-.453-.454-.453h-6.015c-.262 0-.39.152-.39.453zm8.578-32.563c.895 0 1.664.324 2.313.969.644.648.969 1.418.969 2.312v31.11c0 .93-.325 1.71-.97 2.344-.648.636-1.417.953-2.312.953h-8.187c-.262 0-.39.148-.39.437v1.89c0 .669-.243 1.247-.72 1.735-.48.48-1.054.719-1.718.719a2.388 2.388 0 0 1-1.735-.719 2.388 2.388 0 0 1-.718-1.734V675.73c0-.894.312-1.664.937-2.312.633-.645 1.414-.969 2.344-.969zm9.016 34.516a1.86 1.86 0 0 1-.5-1.281c0-.114.02-.243.062-.391.07-.594.383-1.055.938-1.39.488-.258.988-.391 1.5-.391h.5c.75.105 1.344.437 1.781 1 1.707 1.93 3.102 3.71 4.188 5.343.257.407.39.852.39 1.329 0 .23-.023.453-.062.671a2.974 2.974 0 0 1-1.281 1.672 2.55 2.55 0 0 1-1.22.328c-.23 0-.476-.035-.734-.109-.668-.187-1.183-.594-1.546-1.219-1.086-1.75-2.422-3.601-4.016-5.562zm27.25-20.063c.469.461.703 1.012.703 1.657 0 .648-.234 1.195-.703 1.64-.469.45-1.016.672-1.64.672h-3.844c-.293 0-.438.149-.438.438v4.843c0 .305.145.453.438.453h3.343c.625 0 1.164.227 1.625.672.469.438.703.985.703 1.641 0 .648-.234 1.195-.703 1.64-.46.45-1 .672-1.625.672h-3.343c-.293 0-.438.149-.438.438v13.578c0 1.418-.187 2.504-.562 3.266-.375.758-1.028 1.32-1.954 1.687-1.261.52-3.484.817-6.671.89h-.063c-.742 0-1.406-.241-2-.718a4.006 4.006 0 0 1-1.281-1.828c-.219-.563-.156-1.094.187-1.594.352-.5.828-.75 1.422-.75 1.414.031 2.938.047 4.563.047.445-.031.754-.117.922-.266.164-.156.25-.437.25-.843v-13.469c0-.29-.133-.438-.391-.438h-18.031c-.625 0-1.172-.222-1.641-.671a2.175 2.175 0 0 1-.703-1.641c0-.656.234-1.203.703-1.64.469-.446 1.016-.673 1.64-.673h18.032c.258 0 .39-.148.39-.453v-4.843c0-.29-.132-.438-.39-.438h-18.203c-.625 0-1.172-.223-1.64-.672a2.189 2.189 0 0 1-.688-1.64c0-.645.226-1.196.687-1.657.469-.468 1.016-.703 1.64-.703h10.813c.29 0 .438-.129.438-.39v-5.454c0-.257-.149-.39-.438-.39h-8.64c-.668 0-1.227-.227-1.672-.688a2.329 2.329 0 0 1-.656-1.64c0-.633.218-1.176.656-1.625.445-.446 1.004-.672 1.672-.672h8.64c.29 0 .438-.145.438-.438v-3.453c0-.707.258-1.32.781-1.844.52-.52 1.14-.78 1.86-.78.726 0 1.347.26 1.859.78.52.524.781 1.137.781 1.844v3.453c0 .293.148.438.453.438h9.016c.633 0 1.172.226 1.61.672.444.449.671.992.671 1.625 0 .625-.227 1.172-.672 1.64-.437.461-.976.688-1.61.688h-9.015c-.305 0-.453.133-.453.39v5.454c0 .261.148.39.453.39h11.078c.625 0 1.172.235 1.64.703zm0 0"/><path d="M547.439 683.856a2.373 2.373 0 0 1-.72-1.75c0-.687.24-1.28.72-1.78.488-.5 1.082-.75 1.78-.75h11.188c.258 0 .391-.13.391-.391v-6.954c0-.75.258-1.378.781-1.89a2.574 2.574 0 0 1 1.89-.781c.75 0 1.38.261 1.892.78.519.513.78 1.141.78 1.891v6.954c0 .261.15.39.454.39h12.078c.664 0 1.25.25 1.75.75s.75 1.094.75 1.781c0 .688-.25 1.274-.75 1.75-.5.48-1.086.72-1.75.72H549.22c-.7 0-1.293-.24-1.781-.72zm12.468 23.72v.39c0 .625-.183 1.183-.546 1.672a3.06 3.06 0 0 1-1.782 1.218 3.416 3.416 0 0 1-.562.047c-.48 0-.922-.164-1.328-.5-.594-.406-.914-.957-.953-1.656-.594-5.644-1.633-11.531-3.11-17.656a3.164 3.164 0 0 1-.062-.61c0-.406.129-.812.39-1.218.375-.52.875-.836 1.5-.953a2.764 2.764 0 0 1 1.89.328c.595.375.97.898 1.126 1.562 1.625 6.274 2.77 12.063 3.437 17.375zm-17.968-36.188c.289-.664.77-1.149 1.437-1.453a2.732 2.732 0 0 1 1.172-.266c.258 0 .54.039.844.11a2.327 2.327 0 0 1 1.437 1.28c.145.337.219.669.219 1 0 .294-.055.606-.156.938a81.545 81.545 0 0 1-4.406 8.64 1.334 1.334 0 0 0-.22.766v36.141c0 .664-.245 1.25-.734 1.75-.48.5-1.074.75-1.78.75-.7 0-1.294-.25-1.782-.75-.48-.5-.719-1.086-.719-1.75v-28.563c0-.07-.027-.117-.078-.14-.055-.02-.117.008-.187.078a82.017 82.017 0 0 1-3.172 3.906c-.45.45-.953.672-1.516.672h-.39c-.7-.113-1.235-.504-1.61-1.172a4.116 4.116 0 0 1-.5-1.953c0-.187.02-.375.063-.562.101-.883.472-1.66 1.109-2.329 4.445-4.789 8.101-10.488 10.969-17.093zm27.937 41.86c-.031.073-.012.155.063.25.07.093.144.14.218.14h9.797c.707 0 1.301.246 1.782.734.476.48.718 1.063.718 1.75 0 .688-.242 1.281-.718 1.781-.481.5-1.075.75-1.782.75h-31.953c-.71 0-1.305-.25-1.781-.75a2.481 2.481 0 0 1-.719-1.78c0-.688.238-1.27.719-1.75.476-.49 1.07-.735 1.781-.735h16.203c.29 0 .473-.13.547-.39 2.27-6.79 4.18-14.438 5.735-22.938.156-.77.566-1.399 1.234-1.891a2.757 2.757 0 0 1 1.61-.5h.562c.738.148 1.332.559 1.781 1.234.332.438.5.918.5 1.438 0 .23-.04.453-.11.672-2.011 8.687-4.074 16.015-6.187 21.984zm0 0"/><path d="M609.282 674.84c-.293 0-.437.15-.437.438v3.453c0 .262.144.391.437.391h7.235c.3 0 .453-.129.453-.39v-3.454c0-.289-.152-.437-.453-.437zm-5.734 4.282c.258 0 .39-.129.39-.39v-3.454c0-.289-.132-.437-.39-.437h-7c-.262 0-.39.148-.39.437v3.453c0 .262.128.391.39.391zm18.656-4.281c-.261 0-.39.148-.39.437v3.453c0 .262.129.391.39.391h7.407c.257 0 .39-.129.39-.39v-3.454c0-.289-.133-.437-.39-.437zm5.453 23.219c.258 0 .391-.13.391-.391v-1.781c0-.301-.133-.453-.39-.453H607.11c-.293 0-.438.152-.438.453v1.781c0 .262.145.39.438.39zm0 5.5c.258 0 .391-.13.391-.391v-1.828c0-.3-.133-.453-.39-.453H607.11c-.293 0-.438.152-.438.453v1.828c0 .262.145.39.438.39zm0 5.625c.258 0 .391-.145.391-.438v-1.906c0-.258-.133-.39-.39-.39H607.11c-.293 0-.438.132-.438.39v1.906c0 .293.145.438.438.438zm-25.89-13.422c0-.926.32-1.703.969-2.328.656-.633 1.43-.954 2.328-.954h4.172c.289 0 .457-.144.5-.437.144-.781.253-1.445.328-2 .039-.258-.09-.39-.391-.39h-19.14a1.88 1.88 0 0 1-1.422-.61 2.06 2.06 0 0 1-.579-1.453c0-.563.192-1.035.579-1.422.382-.383.859-.578 1.421-.578h19.75c.258 0 .41-.149.454-.453.113-.782.187-1.41.218-1.89 0-.259-.133-.392-.39-.392h-16.188c-.93 0-1.71-.32-2.344-.968-.636-.657-.953-1.426-.953-2.313v-5.125c0-.926.317-1.703.953-2.328.633-.633 1.414-.953 2.344-.953h37.625c.926 0 1.703.32 2.328.953.633.625.953 1.402.953 2.328v5.125c0 .887-.32 1.656-.953 2.313-.625.648-1.402.968-2.328.968h-15.203c-.293 0-.46.133-.5.391-.074.48-.168 1.11-.281 1.89-.031.305.097.454.39.454h19.157c.55 0 1.02.195 1.406.578.394.387.594.86.594 1.422 0 .555-.2 1.039-.594 1.453a1.87 1.87 0 0 1-1.406.61h-19.875c-.262 0-.407.132-.438.39-.156.773-.289 1.437-.39 2-.043.293.066.437.328.437h14.687c.938 0 1.719.32 2.344.954.633.625.953 1.402.953 2.328v13.093c0 .93-.32 1.711-.953 2.344-.625.625-1.406.938-2.344.938h-24.812a3.258 3.258 0 0 1-2.328-.938c-.649-.633-.97-1.414-.97-2.344zm35.125 19.093c.562 0 1.047.211 1.453.625.406.407.61.899.61 1.47 0 .57-.204 1.062-.61 1.468-.406.414-.89.625-1.453.625h-39.735c-.187 0-.28.07-.28.219 0 .55-.188 1.015-.563 1.39a1.79 1.79 0 0 1-1.328.563h-.782a2.574 2.574 0 0 1-1.89-.781 2.571 2.571 0 0 1-.782-1.891v-22.656c0-.75.258-1.38.782-1.89a2.574 2.574 0 0 1 1.89-.782c.739 0 1.367.262 1.89.781.52.512.782 1.14.782 1.89v18.579c0 .262.145.39.438.39zm0 0"/><path d="M657.157 685.856a2.574 2.574 0 0 1 1.891-.78c.738 0 1.36.26 1.86.78.507.524.765 1.137.765 1.844v30.719c0 .937-.32 1.719-.953 2.344-.625.633-1.406.953-2.344.953h-12.578c-.668 0-1.242-.246-1.719-.735a2.347 2.347 0 0 1-.719-1.718c0-.668.239-1.246.72-1.735a2.334 2.334 0 0 1 1.718-.718h10.187c.258 0 .391-.13.391-.391V687.7c0-.707.258-1.32.781-1.844zm0 0"/></g><path d="M153.515 687.125c1.375 0 2.55-.488 3.53-1.468.977-.977 1.47-2.157 1.47-3.532s-.493-2.55-1.47-3.53c-.98-.977-2.155-1.47-3.53-1.47h-24.75l.14-.093a123.917 123.917 0 0 0 19.547-12.5c6.188-4.82 9.281-10.88 9.281-18.172 0-6.875-2.449-12.766-7.343-17.672-4.899-4.914-10.805-7.375-17.72-7.375-6.886 0-12.788 2.46-17.702 7.375-4.906 4.906-7.36 10.797-7.36 17.672 0 1.386.489 2.57 1.47 3.547.976.98 2.155 1.468 3.53 1.468s2.551-.488 3.532-1.468c.976-.977 1.468-2.16 1.468-3.547 0-4.125 1.473-7.66 4.422-10.61 2.957-2.957 6.504-4.437 10.64-4.437 4.126 0 7.661 1.48 10.61 4.437 2.957 2.95 4.438 6.485 4.438 10.61 0 4.386-2.531 8.402-7.594 12.047a135.228 135.228 0 0 1-16.078 9.906c-7.043 3.574-12.168 7.168-15.375 10.781-.68.95-1.016 1.945-1.016 2.985 0 .21.051.703.157 1.484.113.781.718 1.617 1.812 2.5.914.68 1.91 1.016 2.984 1.016v.046zm0 0" fill="#FFF"/></svg>