<svg xmlns="http://www.w3.org/2000/svg" xmlns:xlink="http://www.w3.org/1999/xlink" width="1080" zoomAndPan="magnify" viewBox="0 0 810 809.999993" height="1080" preserveAspectRatio="xMidYMid meet" version="1.0"><defs><g><g id="id1"/><g id="id2"/></g><clipPath id="id3"><path d="M 202 23.902344 L 607 23.902344 L 607 533.902344 L 202 533.902344 Z M 202 23.902344 " clip-rule="nonzero"/></clipPath></defs><rect x="-81" width="972" fill="rgb(100%, 100%, 100%)" y="-80.999999" height="971.999992" fill-opacity="1"/><rect x="-81" width="972" fill="rgb(100%, 100%, 100%)" y="-80.999999" height="971.999992" fill-opacity="1"/><rect x="-81" width="972" fill="rgb(100%, 100%, 100%)" y="-80.999999" height="971.999992" fill-opacity="1"/><path fill="rgb(30.198669%, 81.959534%, 44.309998%)" d="M 137.265625 581.402344 C 96.464844 581.402344 63.390625 614.476562 63.390625 655.277344 C 63.390625 696.074219 96.464844 729.152344 137.265625 729.152344 C 178.066406 729.152344 211.140625 696.074219 211.140625 655.277344 C 211.140625 614.476562 178.066406 581.402344 137.265625 581.402344 " fill-opacity="1" fill-rule="nonzero"/><path fill="rgb(30.198669%, 81.959534%, 44.309998%)" d="M 546.820312 66.335938 L 448.527344 66.335938 C 444.402344 66.335938 441.058594 69.679688 441.058594 73.808594 C 441.058594 77.933594 444.402344 81.277344 448.527344 81.277344 L 546.820312 81.277344 C 550.945312 81.277344 554.289062 77.933594 554.289062 73.808594 C 554.289062 69.679688 550.945312 66.335938 546.820312 66.335938 Z M 546.820312 66.335938 " fill-opacity="1" fill-rule="nonzero"/><path fill="rgb(30.198669%, 81.959534%, 44.309998%)" d="M 546.820312 99.585938 L 448.527344 99.585938 C 444.402344 99.585938 441.058594 102.929688 441.058594 107.054688 C 441.058594 111.183594 444.402344 114.527344 448.527344 114.527344 L 546.820312 114.527344 C 550.945312 114.527344 554.289062 111.183594 554.289062 107.054688 C 554.289062 102.929688 550.945312 99.585938 546.820312 99.585938 Z M 546.820312 99.585938 " fill-opacity="1" fill-rule="nonzero"/><path fill="rgb(30.198669%, 81.959534%, 44.309998%)" d="M 546.820312 132.832031 L 448.527344 132.832031 C 444.402344 132.832031 441.058594 136.175781 441.058594 140.304688 C 441.058594 144.429688 444.402344 147.773438 448.527344 147.773438 L 546.820312 147.773438 C 550.945312 147.773438 554.289062 144.429688 554.289062 140.304688 C 554.289062 136.175781 550.945312 132.832031 546.820312 132.832031 Z M 546.820312 132.832031 " fill-opacity="1" fill-rule="nonzero"/><g clip-path="url(#id3)"><path fill="rgb(30.198669%, 81.959534%, 44.309998%)" d="M 590.785156 23.902344 L 512.609375 23.902344 C 508.484375 23.902344 505.140625 27.246094 505.140625 31.375 C 505.140625 35.5 508.484375 38.84375 512.609375 38.84375 L 590.785156 38.84375 C 591.4375 38.84375 591.96875 39.375 591.96875 40.027344 L 591.96875 168.855469 C 591.96875 169.507812 591.4375 170.039062 590.785156 170.039062 L 452.113281 170.039062 C 448.097656 170.039062 444.25 171.527344 441.269531 174.226562 L 437.488281 177.664062 C 437.480469 177.671875 437.46875 177.679688 437.460938 177.6875 L 405.359375 206.851562 C 405.207031 206.996094 404.789062 207.371094 404.085938 207.058594 C 403.378906 206.746094 403.378906 206.1875 403.378906 205.976562 L 403.378906 40.027344 C 403.378906 39.375 403.910156 38.84375 404.5625 38.84375 L 482.738281 38.84375 C 486.863281 38.84375 490.210938 35.5 490.210938 31.375 C 490.210938 27.246094 486.863281 23.902344 482.738281 23.902344 L 404.5625 23.902344 C 395.671875 23.902344 388.4375 31.136719 388.4375 40.027344 L 388.4375 70.179688 C 387.855469 70.171875 387.257812 70.148438 386.679688 70.148438 C 309.488281 70.148438 246.6875 132.949219 246.6875 210.140625 C 246.6875 216.042969 247.054688 222.355469 247.789062 228.910156 C 248.214844 232.726562 251.449219 235.550781 255.203125 235.550781 C 255.480469 235.550781 255.761719 235.535156 256.042969 235.503906 C 260.140625 235.046875 263.09375 231.351562 262.636719 227.25 C 261.964844 221.246094 261.625 215.492188 261.625 210.140625 C 261.625 141.1875 317.722656 85.089844 386.679688 85.089844 C 387.253906 85.089844 387.851562 85.113281 388.4375 85.121094 L 388.4375 140.636719 C 387.851562 140.621094 387.265625 140.601562 386.679688 140.601562 C 348.335938 140.601562 317.140625 171.796875 317.140625 210.140625 C 317.140625 248.488281 348.335938 279.679688 386.679688 279.679688 C 425.023438 279.679688 456.21875 248.488281 456.21875 210.140625 C 456.21875 201.476562 454.632812 193.09375 451.558594 185.136719 C 452.125 184.832031 448.203125 185.050781 509.179688 184.980469 C 510.863281 193.230469 511.730469 201.667969 511.730469 210.140625 C 511.730469 282.023438 453.285156 400.9375 386.679688 400.9375 C 369.566406 400.9375 343.078125 392.933594 314.074219 354.796875 C 292.785156 326.804688 276.390625 290.148438 267.941406 256.148438 C 266.945312 252.144531 262.890625 249.703125 258.890625 250.699219 C 254.882812 251.695312 252.445312 255.746094 253.441406 259.75 C 257.914062 277.757812 264.3125 295.792969 272.105469 312.828125 L 223.546875 312.828125 C 212.140625 312.828125 202.863281 322.105469 202.863281 333.511719 L 202.863281 513.21875 C 202.863281 524.625 212.140625 533.902344 223.546875 533.902344 L 430.824219 533.902344 C 434.949219 533.902344 438.292969 530.558594 438.292969 526.433594 C 438.292969 522.304688 434.949219 518.960938 430.824219 518.960938 L 372.285156 518.960938 L 346.9375 502.136719 L 555.554688 393.417969 L 555.554688 513.21875 C 555.554688 516.386719 552.980469 518.960938 549.8125 518.960938 L 460.691406 518.960938 C 456.566406 518.960938 453.222656 522.304688 453.222656 526.433594 C 453.222656 530.558594 456.566406 533.902344 460.691406 533.902344 L 549.8125 533.902344 C 561.21875 533.902344 570.496094 524.625 570.496094 513.21875 L 570.496094 333.511719 C 570.496094 322.105469 561.21875 312.828125 549.8125 312.828125 L 501.25 312.828125 C 517.0625 278.175781 526.671875 240.234375 526.671875 210.140625 C 526.671875 201.683594 525.902344 193.257812 524.402344 184.980469 L 590.785156 184.980469 C 599.675781 184.980469 606.910156 177.746094 606.910156 168.855469 L 606.910156 40.027344 C 606.910156 31.136719 599.675781 23.902344 590.785156 23.902344 Z M 386.679688 264.742188 C 356.574219 264.742188 332.082031 240.25 332.082031 210.144531 C 332.082031 180.039062 356.574219 155.546875 386.679688 155.546875 C 387.265625 155.546875 387.851562 155.558594 388.441406 155.578125 L 388.441406 205.980469 C 388.441406 212.453125 392.117188 218.105469 398.039062 220.726562 C 400.183594 221.671875 402.421875 222.136719 404.632812 222.136719 C 408.535156 222.136719 412.351562 220.691406 415.410156 217.914062 L 439.4375 196.082031 C 440.648438 200.632812 441.28125 205.328125 441.28125 210.144531 C 441.277344 240.25 416.785156 264.742188 386.679688 264.742188 Z M 217.804688 513.21875 L 217.804688 464.242188 L 300.238281 518.960938 L 223.546875 518.960938 C 220.378906 518.960938 217.804688 516.386719 217.804688 513.21875 Z M 328.808594 494.734375 C 326.460938 495.957031 324.9375 498.328125 324.800781 500.96875 C 324.660156 503.605469 325.925781 506.125 328.128906 507.585938 L 345.265625 518.960938 L 327.253906 518.960938 L 217.804688 446.308594 L 217.804688 434.351562 L 304.429688 491.855469 C 306.695312 493.363281 309.601562 493.515625 312.015625 492.257812 L 555.558594 365.335938 L 555.558594 376.570312 Z M 549.8125 327.769531 C 552.980469 327.769531 555.558594 330.347656 555.558594 333.511719 L 555.558594 348.488281 L 309.019531 476.96875 L 217.804688 416.417969 L 217.804688 333.511719 C 217.804688 330.347656 220.382812 327.769531 223.546875 327.769531 L 279.429688 327.769531 C 286.292969 340.820312 293.957031 353.027344 302.183594 363.84375 C 328.074219 397.886719 357.292969 415.882812 386.679688 415.882812 C 422.421875 415.882812 457.984375 389.125 486.8125 340.535156 C 489.277344 336.378906 491.648438 332.113281 493.929688 327.769531 Z M 549.8125 327.769531 " fill-opacity="1" fill-rule="nonzero"/></g><path fill="rgb(30.198669%, 81.959534%, 44.309998%)" d="M 420.304688 476.621094 L 408.261719 482.898438 C 404.601562 484.804688 403.183594 489.316406 405.089844 492.972656 C 406.421875 495.53125 409.023438 496.996094 411.71875 496.996094 C 412.882812 496.996094 414.066406 496.722656 415.167969 496.148438 L 427.210938 489.871094 C 430.871094 487.964844 432.289062 483.453125 430.382812 479.792969 C 428.476562 476.132812 423.960938 474.714844 420.304688 476.621094 Z M 420.304688 476.621094 " fill-opacity="1" fill-rule="nonzero"/><path fill="rgb(30.198669%, 81.959534%, 44.309998%)" d="M 461.929688 473.628906 L 473.972656 467.355469 C 477.632812 465.445312 479.050781 460.933594 477.144531 457.277344 C 475.238281 453.617188 470.722656 452.199219 467.066406 454.101562 L 455.023438 460.378906 C 451.363281 462.285156 449.945312 466.796875 451.851562 470.457031 C 453.183594 473.011719 455.785156 474.476562 458.480469 474.476562 C 459.644531 474.476562 460.824219 474.203125 461.929688 473.628906 Z M 461.929688 473.628906 " fill-opacity="1" fill-rule="nonzero"/><path fill="rgb(30.198669%, 81.959534%, 44.309998%)" d="M 505.242188 451.960938 C 506.40625 451.960938 507.585938 451.6875 508.6875 451.113281 L 520.730469 444.835938 C 524.390625 442.929688 525.8125 438.417969 523.90625 434.757812 C 521.996094 431.097656 517.480469 429.679688 513.828125 431.585938 L 501.785156 437.859375 C 498.125 439.769531 496.703125 444.28125 498.609375 447.9375 C 499.941406 450.496094 502.546875 451.960938 505.242188 451.960938 Z M 505.242188 451.960938 " fill-opacity="1" fill-rule="nonzero"/><g fill="rgb(30.198669%, 81.959534%, 44.309998%)" fill-opacity="1"><g transform="translate(242.516768, 637.200228)"><g><path d="M 20.375 -31.953125 C 20.257812 -31.648438 20.050781 -31.429688 19.75 -31.296875 C 19.457031 -31.171875 19.171875 -31.164062 18.890625 -31.28125 C 18.617188 -31.394531 18.40625 -31.585938 18.25 -31.859375 C 18.101562 -32.140625 18.085938 -32.445312 18.203125 -32.78125 C 18.835938 -34.675781 19.394531 -36.71875 19.875 -38.90625 C 19.945312 -39.28125 20.160156 -39.566406 20.515625 -39.765625 C 20.867188 -39.972656 21.25 -40.003906 21.65625 -39.859375 C 22.019531 -39.710938 22.296875 -39.441406 22.484375 -39.046875 C 22.671875 -38.660156 22.691406 -38.265625 22.546875 -37.859375 C 21.210938 -34.140625 20.488281 -32.171875 20.375 -31.953125 Z M 9.234375 -38.40625 C 9.160156 -38.738281 9.207031 -39.050781 9.375 -39.34375 C 9.539062 -39.644531 9.773438 -39.832031 10.078125 -39.90625 C 10.410156 -40.019531 10.734375 -39.992188 11.046875 -39.828125 C 11.359375 -39.660156 11.570312 -39.410156 11.6875 -39.078125 C 12.320312 -36.992188 12.75 -35.046875 12.96875 -33.234375 C 13.039062 -32.859375 12.960938 -32.503906 12.734375 -32.171875 C 12.515625 -31.835938 12.203125 -31.613281 11.796875 -31.5 C 11.503906 -31.425781 11.207031 -31.484375 10.90625 -31.671875 C 10.613281 -31.859375 10.445312 -32.117188 10.40625 -32.453125 C 10.21875 -34.492188 9.828125 -36.476562 9.234375 -38.40625 Z M 8.84375 -42.25 C 8.59375 -42.25 8.46875 -42.097656 8.46875 -41.796875 L 8.46875 -29.5625 C 8.46875 -29.257812 8.59375 -29.109375 8.84375 -29.109375 L 13.53125 -29.109375 C 13.820312 -29.109375 13.96875 -29.257812 13.96875 -29.5625 L 13.96875 -41.796875 C 13.96875 -42.097656 13.820312 -42.25 13.53125 -42.25 Z M 22.765625 -29.109375 C 23.066406 -29.109375 23.21875 -29.257812 23.21875 -29.5625 L 23.21875 -41.796875 C 23.21875 -42.097656 23.066406 -42.25 22.765625 -42.25 L 17.8125 -42.25 C 17.519531 -42.25 17.375 -42.097656 17.375 -41.796875 L 17.375 -29.5625 C 17.375 -29.257812 17.519531 -29.109375 17.8125 -29.109375 Z M 5.40625 -9.515625 C 5.363281 -9.515625 5.320312 -9.515625 5.28125 -9.515625 C 4.6875 -9.515625 4.1875 -9.71875 3.78125 -10.125 C 3.257812 -10.570312 3 -11.128906 3 -11.796875 C 3 -12.390625 3.207031 -12.890625 3.625 -13.296875 C 4.03125 -13.785156 4.546875 -14.03125 5.171875 -14.03125 C 8.890625 -14.175781 11.472656 -14.285156 12.921875 -14.359375 C 13.210938 -14.359375 13.359375 -14.507812 13.359375 -14.8125 L 13.359375 -17.640625 C 13.359375 -17.941406 13.210938 -18.09375 12.921875 -18.09375 L 6.296875 -18.09375 C 5.703125 -18.09375 5.207031 -18.285156 4.8125 -18.671875 C 4.425781 -19.066406 4.234375 -19.550781 4.234375 -20.125 C 4.234375 -20.695312 4.425781 -21.175781 4.8125 -21.5625 C 5.207031 -21.957031 5.703125 -22.15625 6.296875 -22.15625 L 12.921875 -22.15625 C 13.210938 -22.15625 13.359375 -22.300781 13.359375 -22.59375 L 13.359375 -25 C 13.359375 -25.289062 13.210938 -25.4375 12.921875 -25.4375 L 7.734375 -25.4375 C 6.804688 -25.4375 6.023438 -25.75 5.390625 -26.375 C 4.765625 -27.007812 4.453125 -27.789062 4.453125 -28.71875 L 4.453125 -42.640625 C 4.453125 -43.566406 4.765625 -44.34375 5.390625 -44.96875 C 6.023438 -45.601562 6.804688 -45.921875 7.734375 -45.921875 L 24.109375 -45.921875 C 24.992188 -45.921875 25.757812 -45.601562 26.40625 -44.96875 C 27.0625 -44.34375 27.390625 -43.566406 27.390625 -42.640625 L 27.390625 -28.71875 C 27.390625 -27.789062 27.0625 -27.007812 26.40625 -26.375 C 25.757812 -25.75 24.992188 -25.4375 24.109375 -25.4375 L 18.484375 -25.4375 C 18.222656 -25.4375 18.09375 -25.289062 18.09375 -25 L 18.09375 -22.59375 C 18.09375 -22.300781 18.222656 -22.15625 18.484375 -22.15625 L 25.5 -22.15625 C 26.050781 -22.15625 26.53125 -21.957031 26.9375 -21.5625 C 27.34375 -21.175781 27.546875 -20.695312 27.546875 -20.125 C 27.546875 -19.550781 27.34375 -19.066406 26.9375 -18.671875 C 26.53125 -18.285156 26.050781 -18.09375 25.5 -18.09375 L 18.484375 -18.09375 C 18.222656 -18.09375 18.09375 -17.941406 18.09375 -17.640625 L 18.09375 -15.03125 C 18.09375 -14.726562 18.222656 -14.597656 18.484375 -14.640625 C 19.703125 -14.679688 22.335938 -14.8125 26.390625 -15.03125 C 26.941406 -15.03125 27.421875 -14.832031 27.828125 -14.4375 C 28.234375 -14.050781 28.421875 -13.5625 28.390625 -12.96875 C 28.390625 -12.375 28.175781 -11.863281 27.75 -11.4375 C 27.320312 -11.007812 26.8125 -10.78125 26.21875 -10.75 C 24.695312 -10.632812 17.757812 -10.222656 5.40625 -9.515625 Z M 6.515625 2.953125 C 6.253906 3.429688 5.832031 3.726562 5.25 3.84375 C 4.675781 3.957031 4.132812 3.863281 3.625 3.5625 C 3.175781 3.34375 2.894531 2.972656 2.78125 2.453125 C 2.78125 2.304688 2.78125 2.175781 2.78125 2.0625 C 2.78125 1.6875 2.875 1.351562 3.0625 1.0625 C 4.101562 -0.644531 4.882812 -2.890625 5.40625 -5.671875 C 5.476562 -6.160156 5.726562 -6.539062 6.15625 -6.8125 C 6.582031 -7.09375 7.035156 -7.160156 7.515625 -7.015625 C 8.035156 -6.898438 8.441406 -6.609375 8.734375 -6.140625 C 9.035156 -5.679688 9.128906 -5.191406 9.015625 -4.671875 C 8.421875 -1.367188 7.585938 1.171875 6.515625 2.953125 Z M 10.859375 -5.734375 C 10.859375 -5.847656 10.859375 -5.941406 10.859375 -6.015625 C 10.859375 -6.347656 10.953125 -6.644531 11.140625 -6.90625 C 11.390625 -7.269531 11.738281 -7.472656 12.1875 -7.515625 C 12.675781 -7.585938 13.113281 -7.484375 13.5 -7.203125 C 13.882812 -6.929688 14.132812 -6.550781 14.25 -6.0625 C 14.726562 -3.914062 15.046875 -1.785156 15.203125 0.328125 C 15.234375 0.816406 15.082031 1.253906 14.75 1.640625 C 14.414062 2.035156 14.007812 2.269531 13.53125 2.34375 C 13.039062 2.414062 12.617188 2.289062 12.265625 1.96875 C 11.921875 1.65625 11.726562 1.257812 11.6875 0.78125 C 11.539062 -1.257812 11.265625 -3.429688 10.859375 -5.734375 Z M 16.59375 -6.015625 C 16.550781 -6.203125 16.53125 -6.367188 16.53125 -6.515625 C 16.53125 -6.773438 16.585938 -7 16.703125 -7.1875 C 16.921875 -7.59375 17.234375 -7.832031 17.640625 -7.90625 C 18.128906 -7.976562 18.585938 -7.898438 19.015625 -7.671875 C 19.441406 -7.453125 19.726562 -7.125 19.875 -6.6875 C 20.65625 -4.71875 21.265625 -2.765625 21.703125 -0.828125 C 21.816406 -0.347656 21.742188 0.101562 21.484375 0.53125 C 21.222656 0.957031 20.851562 1.226562 20.375 1.34375 C 19.894531 1.414062 19.457031 1.320312 19.0625 1.0625 C 18.675781 0.800781 18.445312 0.445312 18.375 0 C 18 -1.851562 17.40625 -3.859375 16.59375 -6.015625 Z M 22.4375 -6.796875 C 22.28125 -7.015625 22.203125 -7.253906 22.203125 -7.515625 C 22.203125 -7.660156 22.222656 -7.804688 22.265625 -7.953125 C 22.410156 -8.367188 22.6875 -8.664062 23.09375 -8.84375 C 23.539062 -9.03125 24.015625 -9.050781 24.515625 -8.90625 C 25.015625 -8.757812 25.394531 -8.484375 25.65625 -8.078125 C 26.882812 -6.253906 27.90625 -4.429688 28.71875 -2.609375 C 28.945312 -2.128906 28.945312 -1.648438 28.71875 -1.171875 C 28.5 -0.691406 28.148438 -0.335938 27.671875 -0.109375 C 27.222656 0.078125 26.765625 0.0664062 26.296875 -0.140625 C 25.835938 -0.347656 25.492188 -0.691406 25.265625 -1.171875 C 24.523438 -2.984375 23.582031 -4.859375 22.4375 -6.796875 Z M 47.140625 -2.84375 C 47.398438 -2.84375 47.53125 -2.988281 47.53125 -3.28125 L 47.53125 -15.8125 C 47.53125 -16.101562 47.398438 -16.25 47.140625 -16.25 L 35.296875 -16.25 C 35.035156 -16.25 34.90625 -16.101562 34.90625 -15.8125 L 34.90625 -3.28125 C 34.90625 -2.988281 35.035156 -2.84375 35.296875 -2.84375 Z M 53.984375 -35.015625 C 54.472656 -34.535156 54.71875 -33.957031 54.71875 -33.28125 C 54.71875 -32.613281 54.472656 -32.039062 53.984375 -31.5625 C 53.503906 -31.082031 52.929688 -30.84375 52.265625 -30.84375 L 43.53125 -30.84375 C 43.226562 -30.84375 43.078125 -30.691406 43.078125 -30.390625 L 43.078125 -21.484375 C 43.078125 -21.222656 43.226562 -21.09375 43.53125 -21.09375 L 49.265625 -21.09375 C 50.191406 -21.09375 50.96875 -20.769531 51.59375 -20.125 C 52.226562 -19.476562 52.546875 -18.707031 52.546875 -17.8125 L 52.546875 1.71875 C 52.546875 2.394531 52.300781 2.984375 51.8125 3.484375 C 51.332031 3.984375 50.742188 4.234375 50.046875 4.234375 L 49.484375 4.234375 C 48.960938 4.234375 48.503906 4.035156 48.109375 3.640625 C 47.722656 3.253906 47.53125 2.785156 47.53125 2.234375 C 47.53125 2.078125 47.457031 2 47.3125 2 L 35.1875 2 C 35 2 34.90625 2.09375 34.90625 2.28125 C 34.90625 2.875 34.691406 3.382812 34.265625 3.8125 C 33.835938 4.238281 33.328125 4.453125 32.734375 4.453125 L 32.453125 4.453125 C 31.785156 4.453125 31.21875 4.207031 30.75 3.71875 C 30.289062 3.238281 30.0625 2.664062 30.0625 2 L 30.0625 -17.8125 C 30.0625 -18.707031 30.375 -19.476562 31 -20.125 C 31.632812 -20.769531 32.414062 -21.09375 33.34375 -21.09375 L 37.515625 -21.09375 C 37.816406 -21.09375 37.96875 -21.222656 37.96875 -21.484375 L 37.96875 -45.203125 C 37.96875 -45.898438 38.21875 -46.5 38.71875 -47 C 39.21875 -47.507812 39.816406 -47.765625 40.515625 -47.765625 C 41.222656 -47.765625 41.828125 -47.507812 42.328125 -47 C 42.828125 -46.5 43.078125 -45.898438 43.078125 -45.203125 L 43.078125 -36.1875 C 43.078125 -35.882812 43.226562 -35.734375 43.53125 -35.734375 L 52.265625 -35.734375 C 52.929688 -35.734375 53.503906 -35.492188 53.984375 -35.015625 Z M 53.984375 -35.015625 "/></g></g><g transform="translate(299.516765, 637.200228)"><g><path d="M 9.078125 -33.40625 C 9.078125 -33.144531 9.207031 -33.015625 9.46875 -33.015625 L 13.25 -33.015625 C 13.539062 -33.015625 13.6875 -33.144531 13.6875 -33.40625 L 13.6875 -34.34375 C 13.6875 -34.644531 13.539062 -34.796875 13.25 -34.796875 L 9.46875 -34.796875 C 9.207031 -34.796875 9.078125 -34.644531 9.078125 -34.34375 Z M 9.46875 -38.46875 C 9.207031 -38.46875 9.078125 -38.335938 9.078125 -38.078125 L 9.078125 -37.234375 C 9.078125 -36.972656 9.207031 -36.84375 9.46875 -36.84375 L 13.25 -36.84375 C 13.539062 -36.84375 13.6875 -36.972656 13.6875 -37.234375 L 13.6875 -38.078125 C 13.6875 -38.335938 13.539062 -38.46875 13.25 -38.46875 Z M 22.828125 -38.078125 C 22.828125 -38.335938 22.675781 -38.46875 22.375 -38.46875 L 18.265625 -38.46875 C 18.003906 -38.46875 17.875 -38.335938 17.875 -38.078125 L 17.875 -37.234375 C 17.875 -36.972656 18.003906 -36.84375 18.265625 -36.84375 L 22.375 -36.84375 C 22.675781 -36.84375 22.828125 -36.972656 22.828125 -37.234375 Z M 22.375 -33.015625 C 22.675781 -33.015625 22.828125 -33.144531 22.828125 -33.40625 L 22.828125 -34.34375 C 22.828125 -34.644531 22.675781 -34.796875 22.375 -34.796875 L 18.265625 -34.796875 C 18.003906 -34.796875 17.875 -34.644531 17.875 -34.34375 L 17.875 -33.40625 C 17.875 -33.144531 18.003906 -33.015625 18.265625 -33.015625 Z M 13.25 -22.984375 C 13.539062 -22.984375 13.6875 -23.113281 13.6875 -23.375 L 13.6875 -26.109375 C 13.6875 -26.367188 13.539062 -26.5 13.25 -26.5 L 4.34375 -26.5 C 3.96875 -26.5 3.640625 -26.632812 3.359375 -26.90625 C 3.085938 -27.1875 2.953125 -27.519531 2.953125 -27.90625 C 2.953125 -28.300781 3.085938 -28.628906 3.359375 -28.890625 C 3.640625 -29.148438 3.96875 -29.28125 4.34375 -29.28125 L 13.25 -29.28125 C 13.539062 -29.28125 13.6875 -29.425781 13.6875 -29.71875 L 13.6875 -30.5 C 13.6875 -30.757812 13.539062 -30.890625 13.25 -30.890625 L 8.6875 -30.890625 C 7.789062 -30.890625 7.019531 -31.210938 6.375 -31.859375 C 5.726562 -32.515625 5.40625 -33.285156 5.40625 -34.171875 L 5.40625 -37.34375 C 5.40625 -38.28125 5.726562 -39.0625 6.375 -39.6875 C 7.019531 -40.320312 7.789062 -40.640625 8.6875 -40.640625 L 13.25 -40.640625 C 13.539062 -40.640625 13.6875 -40.785156 13.6875 -41.078125 L 13.6875 -41.796875 C 13.6875 -42.097656 13.539062 -42.25 13.25 -42.25 L 5.234375 -42.25 C 4.828125 -42.25 4.484375 -42.382812 4.203125 -42.65625 C 3.921875 -42.9375 3.78125 -43.28125 3.78125 -43.6875 C 3.78125 -44.101562 3.921875 -44.445312 4.203125 -44.71875 C 4.484375 -45 4.828125 -45.140625 5.234375 -45.140625 L 13.359375 -45.140625 C 13.578125 -45.140625 13.6875 -45.234375 13.6875 -45.421875 L 13.6875 -45.75 C 13.6875 -46.3125 13.890625 -46.796875 14.296875 -47.203125 C 14.710938 -47.609375 15.207031 -47.8125 15.78125 -47.8125 C 16.351562 -47.8125 16.84375 -47.609375 17.25 -47.203125 C 17.664062 -46.796875 17.875 -46.3125 17.875 -45.75 L 17.875 -45.421875 C 17.875 -45.234375 17.960938 -45.140625 18.140625 -45.140625 L 26.78125 -45.140625 C 27.1875 -45.140625 27.523438 -45 27.796875 -44.71875 C 28.078125 -44.445312 28.21875 -44.101562 28.21875 -43.6875 C 28.21875 -43.28125 28.078125 -42.9375 27.796875 -42.65625 C 27.523438 -42.382812 27.1875 -42.25 26.78125 -42.25 L 18.265625 -42.25 C 18.003906 -42.25 17.875 -42.097656 17.875 -41.796875 L 17.875 -41.078125 C 17.875 -40.785156 18.003906 -40.640625 18.265625 -40.640625 L 23.265625 -40.640625 C 24.191406 -40.640625 24.96875 -40.320312 25.59375 -39.6875 C 26.226562 -39.0625 26.546875 -38.28125 26.546875 -37.34375 L 26.546875 -34.171875 C 26.546875 -33.285156 26.226562 -32.515625 25.59375 -31.859375 C 24.96875 -31.210938 24.191406 -30.890625 23.265625 -30.890625 L 18.265625 -30.890625 C 18.003906 -30.890625 17.875 -30.757812 17.875 -30.5 L 17.875 -29.71875 C 17.875 -29.425781 18.003906 -29.28125 18.265625 -29.28125 L 27.046875 -29.28125 C 27.421875 -29.28125 27.742188 -29.148438 28.015625 -28.890625 C 28.296875 -28.628906 28.4375 -28.300781 28.4375 -27.90625 C 28.4375 -27.519531 28.296875 -27.1875 28.015625 -26.90625 C 27.742188 -26.632812 27.421875 -26.5 27.046875 -26.5 L 18.265625 -26.5 C 18.003906 -26.5 17.875 -26.367188 17.875 -26.109375 L 17.875 -23.375 C 17.875 -23.113281 18.003906 -22.984375 18.265625 -22.984375 L 21.9375 -22.984375 C 22.15625 -22.984375 22.265625 -23.097656 22.265625 -23.328125 L 22.265625 -24.046875 C 22.265625 -24.566406 22.457031 -25.019531 22.84375 -25.40625 C 23.238281 -25.800781 23.703125 -26 24.234375 -26 C 24.773438 -26 25.238281 -25.800781 25.625 -25.40625 C 26.019531 -25.019531 26.21875 -24.566406 26.21875 -24.046875 L 26.21875 -23.046875 C 26.21875 -22.234375 25.929688 -21.53125 25.359375 -20.9375 C 24.785156 -20.34375 24.085938 -20.046875 23.265625 -20.046875 L 8.734375 -20.046875 C 7.921875 -20.046875 7.21875 -20.34375 6.625 -20.9375 C 6.03125 -21.53125 5.734375 -22.234375 5.734375 -23.046875 L 5.734375 -24.109375 C 5.734375 -24.617188 5.914062 -25.0625 6.28125 -25.4375 C 6.65625 -25.8125 7.101562 -26 7.625 -26 C 8.144531 -26 8.585938 -25.8125 8.953125 -25.4375 C 9.328125 -25.0625 9.515625 -24.617188 9.515625 -24.109375 L 9.515625 -23.328125 C 9.515625 -23.097656 9.628906 -22.984375 9.859375 -22.984375 Z M 31.5625 -9.734375 C 31.257812 -9.734375 31.109375 -9.609375 31.109375 -9.359375 L 31.109375 -7.625 C 31.109375 -7.332031 31.257812 -7.1875 31.5625 -7.1875 L 51.828125 -7.1875 C 52.347656 -7.1875 52.78125 -7.007812 53.125 -6.65625 C 53.476562 -6.300781 53.65625 -5.875 53.65625 -5.375 C 53.65625 -4.875 53.476562 -4.457031 53.125 -4.125 C 52.78125 -3.789062 52.347656 -3.625 51.828125 -3.625 L 31.5625 -3.625 C 31.257812 -3.625 31.109375 -3.472656 31.109375 -3.171875 L 31.109375 -0.328125 C 31.109375 0.929688 30.921875 1.863281 30.546875 2.46875 C 30.179688 3.082031 29.519531 3.554688 28.5625 3.890625 C 27.21875 4.304688 24.785156 4.515625 21.265625 4.515625 C 20.628906 4.515625 20.050781 4.316406 19.53125 3.921875 C 19.019531 3.535156 18.632812 3.046875 18.375 2.453125 C 18.1875 2.003906 18.222656 1.578125 18.484375 1.171875 C 18.742188 0.765625 19.113281 0.5625 19.59375 0.5625 C 20.820312 0.59375 21.863281 0.609375 22.71875 0.609375 C 23.601562 0.609375 24.25 0.59375 24.65625 0.5625 C 25.144531 0.519531 25.472656 0.429688 25.640625 0.296875 C 25.804688 0.171875 25.890625 -0.078125 25.890625 -0.453125 L 25.890625 -3.171875 C 25.890625 -3.472656 25.738281 -3.625 25.4375 -3.625 L 5.34375 -3.625 C 4.820312 -3.625 4.382812 -3.789062 4.03125 -4.125 C 3.675781 -4.457031 3.5 -4.875 3.5 -5.375 C 3.5 -5.875 3.675781 -6.300781 4.03125 -6.65625 C 4.382812 -7.007812 4.820312 -7.1875 5.34375 -7.1875 L 25.4375 -7.1875 C 25.738281 -7.1875 25.890625 -7.332031 25.890625 -7.625 L 25.890625 -9.359375 C 25.890625 -9.609375 25.738281 -9.734375 25.4375 -9.734375 L 8.796875 -9.734375 C 8.316406 -9.734375 7.914062 -9.898438 7.59375 -10.234375 C 7.28125 -10.578125 7.125 -10.96875 7.125 -11.40625 C 7.125 -11.851562 7.28125 -12.234375 7.59375 -12.546875 C 7.914062 -12.867188 8.316406 -13.03125 8.796875 -13.03125 L 25.4375 -13.03125 C 25.738281 -13.03125 25.890625 -13.175781 25.890625 -13.46875 L 25.890625 -15.078125 C 25.890625 -15.378906 25.738281 -15.507812 25.4375 -15.46875 C 20.800781 -15.289062 16.421875 -15.203125 12.296875 -15.203125 C 11.929688 -15.203125 11.5625 -15.203125 11.1875 -15.203125 C 10.738281 -15.203125 10.335938 -15.347656 9.984375 -15.640625 C 9.640625 -15.941406 9.390625 -16.332031 9.234375 -16.8125 C 9.128906 -17.1875 9.1875 -17.53125 9.40625 -17.84375 C 9.625 -18.15625 9.921875 -18.3125 10.296875 -18.3125 C 23.097656 -18.351562 33.0625 -18.875 40.1875 -19.875 C 40.488281 -19.90625 40.75 -19.921875 40.96875 -19.921875 C 42.113281 -19.921875 43.132812 -19.550781 44.03125 -18.8125 C 44.320312 -18.550781 44.421875 -18.21875 44.328125 -17.8125 C 44.242188 -17.40625 43.992188 -17.164062 43.578125 -17.09375 C 40.015625 -16.53125 36.007812 -16.101562 31.5625 -15.8125 C 31.257812 -15.8125 31.109375 -15.660156 31.109375 -15.359375 L 31.109375 -13.46875 C 31.109375 -13.175781 31.257812 -13.03125 31.5625 -13.03125 L 48.765625 -13.03125 C 49.210938 -13.03125 49.59375 -12.867188 49.90625 -12.546875 C 50.21875 -12.234375 50.375 -11.84375 50.375 -11.375 C 50.375 -10.914062 50.21875 -10.523438 49.90625 -10.203125 C 49.59375 -9.890625 49.210938 -9.734375 48.765625 -9.734375 Z M 44.921875 -30.171875 C 44.992188 -30.242188 45.007812 -30.316406 44.96875 -30.390625 C 44.9375 -30.460938 44.882812 -30.5 44.8125 -30.5 L 36.296875 -30.5 C 36.179688 -30.5 36.101562 -30.460938 36.0625 -30.390625 C 36.03125 -30.316406 36.050781 -30.242188 36.125 -30.171875 C 37.195312 -28.867188 38.476562 -27.71875 39.96875 -26.71875 C 40.1875 -26.570312 40.425781 -26.570312 40.6875 -26.71875 C 42.394531 -27.6875 43.804688 -28.835938 44.921875 -30.171875 Z M 47.375 -33.953125 C 48.488281 -33.953125 49.34375 -33.878906 49.9375 -33.734375 C 50.269531 -33.617188 50.507812 -33.40625 50.65625 -33.09375 C 50.800781 -32.78125 50.800781 -32.457031 50.65625 -32.125 C 49.28125 -29.113281 47.238281 -26.660156 44.53125 -24.765625 C 44.457031 -24.691406 44.421875 -24.609375 44.421875 -24.515625 C 44.421875 -24.421875 44.457031 -24.359375 44.53125 -24.328125 C 46.90625 -23.398438 49.597656 -22.65625 52.609375 -22.09375 C 53.085938 -22.019531 53.410156 -21.75 53.578125 -21.28125 C 53.742188 -20.820312 53.675781 -20.410156 53.375 -20.046875 C 52.5625 -18.960938 51.632812 -18.421875 50.59375 -18.421875 C 50.375 -18.421875 50.132812 -18.441406 49.875 -18.484375 C 46.3125 -19.265625 43.066406 -20.453125 40.140625 -22.046875 C 39.910156 -22.148438 39.664062 -22.148438 39.40625 -22.046875 C 37.1875 -21.148438 34.664062 -20.425781 31.84375 -19.875 C 31.320312 -19.800781 30.8125 -19.898438 30.3125 -20.171875 C 29.8125 -20.453125 29.410156 -20.875 29.109375 -21.4375 C 29.003906 -21.613281 28.953125 -21.816406 28.953125 -22.046875 C 28.953125 -22.234375 28.988281 -22.4375 29.0625 -22.65625 C 29.238281 -23.0625 29.550781 -23.300781 30 -23.375 C 31.96875 -23.675781 33.863281 -24.085938 35.6875 -24.609375 C 35.757812 -24.640625 35.800781 -24.703125 35.8125 -24.796875 C 35.832031 -24.890625 35.804688 -24.957031 35.734375 -25 C 34.773438 -25.851562 33.90625 -26.78125 33.125 -27.78125 C 32.75 -28.21875 32.660156 -28.710938 32.859375 -29.265625 C 33.066406 -29.828125 33.453125 -30.203125 34.015625 -30.390625 C 34.046875 -30.390625 34.050781 -30.40625 34.03125 -30.4375 C 34.019531 -30.476562 34.015625 -30.5 34.015625 -30.5 L 31.171875 -30.5 C 30.691406 -30.5 30.273438 -30.664062 29.921875 -31 C 29.566406 -31.332031 29.390625 -31.742188 29.390625 -32.234375 L 29.390625 -32.734375 C 29.390625 -33.066406 29.519531 -33.351562 29.78125 -33.59375 C 30.039062 -33.832031 30.335938 -33.953125 30.671875 -33.953125 C 30.710938 -33.953125 30.738281 -33.96875 30.75 -34 C 30.769531 -34.039062 30.765625 -34.082031 30.734375 -34.125 C 30.578125 -34.269531 30.425781 -34.4375 30.28125 -34.625 C 29.800781 -35.101562 29.5625 -35.675781 29.5625 -36.34375 C 29.5625 -37.195312 29.875 -37.941406 30.5 -38.578125 C 31.65625 -39.691406 32.234375 -41.117188 32.234375 -42.859375 C 32.234375 -43.785156 32.546875 -44.5625 33.171875 -45.1875 C 33.804688 -45.820312 34.585938 -46.140625 35.515625 -46.140625 L 43.921875 -46.140625 C 44.804688 -46.140625 45.570312 -45.820312 46.21875 -45.1875 C 46.875 -44.5625 47.203125 -43.785156 47.203125 -42.859375 L 47.203125 -40.75 C 47.203125 -39.96875 47.273438 -39.484375 47.421875 -39.296875 C 47.535156 -39.148438 47.757812 -39.078125 48.09375 -39.078125 L 49.4375 -39.078125 C 49.769531 -39.078125 50.046875 -39.132812 50.265625 -39.25 C 50.523438 -39.320312 50.691406 -39.5625 50.765625 -39.96875 C 50.835938 -40.113281 50.875 -40.375 50.875 -40.75 C 50.914062 -41.113281 51.117188 -41.390625 51.484375 -41.578125 C 51.859375 -41.765625 52.210938 -41.765625 52.546875 -41.578125 C 53.585938 -41.023438 54.109375 -40.300781 54.109375 -39.40625 C 54.109375 -39.300781 54.085938 -39.171875 54.046875 -39.015625 C 53.941406 -38.128906 53.8125 -37.519531 53.65625 -37.1875 C 53.21875 -36.445312 52.679688 -35.945312 52.046875 -35.6875 C 51.523438 -35.457031 50.691406 -35.34375 49.546875 -35.34375 L 46.921875 -35.34375 C 45.515625 -35.34375 44.476562 -35.660156 43.8125 -36.296875 C 43.40625 -36.703125 43.113281 -37.21875 42.9375 -37.84375 C 42.769531 -38.476562 42.6875 -39.460938 42.6875 -40.796875 L 42.6875 -42.03125 C 42.6875 -42.320312 42.539062 -42.46875 42.25 -42.46875 L 37.015625 -42.46875 C 36.753906 -42.46875 36.609375 -42.320312 36.578125 -42.03125 C 36.421875 -38.613281 34.972656 -35.992188 32.234375 -34.171875 C 32.160156 -34.140625 32.128906 -34.09375 32.140625 -34.03125 C 32.160156 -33.976562 32.207031 -33.953125 32.28125 -33.953125 Z M 47.375 -33.953125 "/></g></g></g><g fill="rgb(30.198669%, 81.959534%, 44.309998%)" fill-opacity="1"><g transform="translate(242.516768, 716.700224)"><g><path d="M 41.359375 -12.46875 C 40.835938 -11.945312 40.207031 -11.6875 39.46875 -11.6875 C 38.726562 -11.6875 38.101562 -11.945312 37.59375 -12.46875 C 37.09375 -12.988281 36.84375 -13.617188 36.84375 -14.359375 L 36.84375 -45.03125 C 36.84375 -45.957031 37.160156 -46.734375 37.796875 -47.359375 C 38.429688 -47.992188 39.210938 -48.3125 40.140625 -48.3125 L 52.71875 -48.3125 C 53.382812 -48.3125 53.957031 -48.078125 54.4375 -47.609375 C 54.914062 -47.148438 55.15625 -46.578125 55.15625 -45.890625 C 55.15625 -45.203125 54.914062 -44.617188 54.4375 -44.140625 C 53.957031 -43.660156 53.382812 -43.421875 52.71875 -43.421875 L 42.53125 -43.421875 C 42.269531 -43.421875 42.140625 -43.289062 42.140625 -43.03125 L 42.140625 -14.359375 C 42.140625 -13.617188 41.878906 -12.988281 41.359375 -12.46875 Z M 41.359375 -12.46875 "/></g></g><g transform="translate(299.516765, 716.700224)"><g><path d="M 34.796875 -42.46875 C 34.566406 -42.84375 34.453125 -43.234375 34.453125 -43.640625 C 34.453125 -43.941406 34.507812 -44.21875 34.625 -44.46875 C 34.882812 -45.175781 35.347656 -45.660156 36.015625 -45.921875 C 36.390625 -46.066406 36.757812 -46.140625 37.125 -46.140625 C 37.5 -46.140625 37.851562 -46.085938 38.1875 -45.984375 C 38.925781 -45.679688 39.5 -45.195312 39.90625 -44.53125 C 41.539062 -41.707031 43.523438 -38.882812 45.859375 -36.0625 C 48.203125 -33.25 50.597656 -30.785156 53.046875 -28.671875 C 53.710938 -28.078125 54.046875 -27.332031 54.046875 -26.4375 C 54.046875 -25.65625 53.769531 -24.96875 53.21875 -24.375 C 52.582031 -23.707031 51.835938 -23.335938 50.984375 -23.265625 C 50.910156 -23.265625 50.816406 -23.265625 50.703125 -23.265625 C 49.960938 -23.265625 49.296875 -23.546875 48.703125 -24.109375 C 48.003906 -24.804688 47.316406 -25.53125 46.640625 -26.28125 C 46.566406 -26.3125 46.503906 -26.316406 46.453125 -26.296875 C 46.398438 -26.285156 46.351562 -26.238281 46.3125 -26.15625 C 46.3125 -25.269531 46.289062 -24.660156 46.25 -24.328125 C 45.882812 -15.566406 45.457031 -9.300781 44.96875 -5.53125 C 44.488281 -1.769531 43.769531 0.664062 42.8125 1.78125 C 42.175781 2.5625 41.523438 3.097656 40.859375 3.390625 C 40.191406 3.691406 39.28125 3.9375 38.125 4.125 C 37.269531 4.195312 36.101562 4.234375 34.625 4.234375 C 33.882812 4.234375 33.050781 4.234375 32.125 4.234375 C 31.34375 4.191406 30.65625 3.898438 30.0625 3.359375 C 29.46875 2.828125 29.019531 2.15625 28.71875 1.34375 C 28.53125 0.75 28.601562 0.203125 28.9375 -0.296875 C 29.28125 -0.804688 29.765625 -1.039062 30.390625 -1 C 32.242188 -0.882812 33.96875 -0.828125 35.5625 -0.828125 C 36.675781 -0.828125 37.492188 -1.109375 38.015625 -1.671875 C 38.679688 -2.335938 39.207031 -4.15625 39.59375 -7.125 C 39.988281 -10.09375 40.335938 -14.785156 40.640625 -21.203125 C 40.640625 -21.460938 40.507812 -21.59375 40.25 -21.59375 L 27.890625 -21.59375 C 27.628906 -21.59375 27.476562 -21.460938 27.4375 -21.203125 C 27.144531 -18.984375 26.773438 -16.984375 26.328125 -15.203125 C 25.878906 -13.421875 25.226562 -11.570312 24.375 -9.65625 C 23.519531 -7.75 22.5 -6.023438 21.3125 -4.484375 C 20.125 -2.941406 18.613281 -1.457031 16.78125 -0.03125 C 14.945312 1.394531 12.84375 2.628906 10.46875 3.671875 C 10.0625 3.859375 9.648438 3.953125 9.234375 3.953125 C 8.867188 3.953125 8.519531 3.878906 8.1875 3.734375 C 7.40625 3.472656 6.773438 2.988281 6.296875 2.28125 C 5.992188 1.875 5.84375 1.445312 5.84375 1 C 5.84375 0.8125 5.863281 0.628906 5.90625 0.453125 C 6.082031 -0.222656 6.488281 -0.691406 7.125 -0.953125 C 9.207031 -1.835938 11.035156 -2.863281 12.609375 -4.03125 C 14.179688 -5.207031 15.476562 -6.414062 16.5 -7.65625 C 17.519531 -8.894531 18.390625 -10.289062 19.109375 -11.84375 C 19.835938 -13.40625 20.378906 -14.898438 20.734375 -16.328125 C 21.085938 -17.765625 21.394531 -19.390625 21.65625 -21.203125 C 21.6875 -21.460938 21.570312 -21.59375 21.3125 -21.59375 L 14.359375 -21.59375 C 13.429688 -21.59375 12.648438 -21.914062 12.015625 -22.5625 C 11.390625 -23.21875 11.078125 -23.988281 11.078125 -24.875 L 11.078125 -25.546875 C 11.078125 -25.617188 11.039062 -25.671875 10.96875 -25.703125 C 10.894531 -25.742188 10.820312 -25.75 10.75 -25.71875 C 9.96875 -24.90625 9.128906 -24.109375 8.234375 -23.328125 C 7.640625 -22.804688 6.953125 -22.546875 6.171875 -22.546875 C 6.097656 -22.546875 6.023438 -22.5625 5.953125 -22.59375 C 5.097656 -22.632812 4.335938 -22.953125 3.671875 -23.546875 C 3.148438 -24.066406 2.890625 -24.695312 2.890625 -25.4375 C 2.890625 -26.25 3.207031 -26.914062 3.84375 -27.4375 C 9.40625 -31.851562 13.800781 -37.421875 17.03125 -44.140625 C 17.40625 -44.921875 17.984375 -45.5 18.765625 -45.875 C 19.203125 -46.050781 19.664062 -46.140625 20.15625 -46.140625 C 20.445312 -46.140625 20.742188 -46.101562 21.046875 -46.03125 C 21.816406 -45.8125 22.351562 -45.347656 22.65625 -44.640625 C 22.84375 -44.304688 22.9375 -43.953125 22.9375 -43.578125 C 22.9375 -43.242188 22.84375 -42.894531 22.65625 -42.53125 C 19.875 -36.8125 16.347656 -31.671875 12.078125 -27.109375 C 12.046875 -27.035156 12.035156 -26.960938 12.046875 -26.890625 C 12.066406 -26.816406 12.113281 -26.78125 12.1875 -26.78125 L 45.703125 -26.78125 C 45.773438 -26.78125 45.828125 -26.816406 45.859375 -26.890625 C 45.898438 -26.960938 45.882812 -27.035156 45.8125 -27.109375 C 41.582031 -31.816406 37.910156 -36.9375 34.796875 -42.46875 Z M 34.796875 -42.46875 "/></g></g><g transform="translate(356.516762, 716.700224)"><g><path d="M 50.703125 -43.25 C 51.335938 -43.25 51.878906 -43.023438 52.328125 -42.578125 C 52.773438 -42.140625 53 -41.601562 53 -40.96875 C 53 -40.332031 52.773438 -39.789062 52.328125 -39.34375 C 51.878906 -38.90625 51.335938 -38.6875 50.703125 -38.6875 L 6.171875 -38.6875 C 5.546875 -38.6875 5.007812 -38.90625 4.5625 -39.34375 C 4.113281 -39.789062 3.890625 -40.332031 3.890625 -40.96875 C 3.890625 -41.601562 4.113281 -42.140625 4.5625 -42.578125 C 5.007812 -43.023438 5.546875 -43.25 6.171875 -43.25 L 25.109375 -43.25 C 25.398438 -43.25 25.546875 -43.398438 25.546875 -43.703125 L 25.546875 -45.09375 C 25.546875 -45.863281 25.816406 -46.519531 26.359375 -47.0625 C 26.898438 -47.601562 27.550781 -47.875 28.3125 -47.875 C 29.070312 -47.875 29.71875 -47.601562 30.25 -47.0625 C 30.789062 -46.519531 31.0625 -45.863281 31.0625 -45.09375 L 31.0625 -43.703125 C 31.0625 -43.398438 31.207031 -43.25 31.5 -43.25 Z M 16.421875 -31.734375 C 16.160156 -31.734375 16.03125 -31.601562 16.03125 -31.34375 L 16.03125 -27.828125 C 16.03125 -27.566406 16.160156 -27.4375 16.421875 -27.4375 L 40.640625 -27.4375 C 40.898438 -27.4375 41.03125 -27.566406 41.03125 -27.828125 L 41.03125 -31.34375 C 41.03125 -31.601562 40.898438 -31.734375 40.640625 -31.734375 Z M 46.640625 -27 C 46.640625 -26.101562 46.316406 -25.332031 45.671875 -24.6875 C 45.023438 -24.039062 44.253906 -23.71875 43.359375 -23.71875 L 14.078125 -23.71875 C 13.148438 -23.71875 12.367188 -24.039062 11.734375 -24.6875 C 11.109375 -25.332031 10.796875 -26.101562 10.796875 -27 L 10.796875 -32.234375 C 10.796875 -33.117188 11.109375 -33.882812 11.734375 -34.53125 C 12.367188 -35.1875 13.148438 -35.515625 14.078125 -35.515625 L 43.359375 -35.515625 C 44.253906 -35.515625 45.023438 -35.1875 45.671875 -34.53125 C 46.316406 -33.882812 46.640625 -33.117188 46.640625 -32.234375 Z M 51.59375 -10.625 C 52.226562 -10.625 52.769531 -10.410156 53.21875 -9.984375 C 53.664062 -9.566406 53.890625 -9.039062 53.890625 -8.40625 C 53.890625 -7.769531 53.664062 -7.238281 53.21875 -6.8125 C 52.769531 -6.382812 52.226562 -6.171875 51.59375 -6.171875 L 31.625 -6.171875 C 31.320312 -6.171875 31.171875 -6.023438 31.171875 -5.734375 L 31.171875 -0.5625 C 31.171875 0.8125 30.945312 1.832031 30.5 2.5 C 30.0625 3.164062 29.265625 3.671875 28.109375 4.015625 C 26.585938 4.421875 23.804688 4.625 19.765625 4.625 C 19.054688 4.625 18.421875 4.414062 17.859375 4 C 17.304688 3.59375 16.882812 3.054688 16.59375 2.390625 C 16.363281 1.867188 16.394531 1.382812 16.6875 0.9375 C 16.988281 0.5 17.398438 0.296875 17.921875 0.328125 C 18.816406 0.328125 20.914062 0.328125 24.21875 0.328125 C 24.738281 0.296875 25.097656 0.203125 25.296875 0.046875 C 25.503906 -0.0976562 25.609375 -0.375 25.609375 -0.78125 L 25.609375 -5.734375 C 25.609375 -6.023438 25.457031 -6.171875 25.15625 -6.171875 L 5.515625 -6.171875 C 4.878906 -6.171875 4.335938 -6.382812 3.890625 -6.8125 C 3.453125 -7.238281 3.234375 -7.769531 3.234375 -8.40625 C 3.234375 -9.039062 3.453125 -9.566406 3.890625 -9.984375 C 4.335938 -10.410156 4.878906 -10.625 5.515625 -10.625 L 25.265625 -10.625 C 25.492188 -10.625 25.609375 -10.738281 25.609375 -10.96875 L 25.609375 -11.1875 C 25.609375 -11.851562 25.835938 -12.414062 26.296875 -12.875 C 26.765625 -13.34375 27.3125 -13.578125 27.9375 -13.578125 C 28.164062 -13.578125 28.375 -13.597656 28.5625 -13.640625 C 30.78125 -14.304688 33.207031 -15.210938 35.84375 -16.359375 C 35.914062 -16.359375 35.941406 -16.382812 35.921875 -16.4375 C 35.910156 -16.5 35.882812 -16.53125 35.84375 -16.53125 L 10.75 -16.53125 C 10.15625 -16.53125 9.648438 -16.734375 9.234375 -17.140625 C 8.828125 -17.546875 8.625 -18.046875 8.625 -18.640625 C 8.625 -19.234375 8.828125 -19.734375 9.234375 -20.140625 C 9.648438 -20.554688 10.15625 -20.765625 10.75 -20.765625 L 43.578125 -20.765625 C 43.660156 -20.765625 43.753906 -20.765625 43.859375 -20.765625 C 44.015625 -20.796875 44.164062 -20.8125 44.3125 -20.8125 C 44.832031 -20.8125 45.3125 -20.628906 45.75 -20.265625 L 46.640625 -19.53125 C 47.054688 -19.164062 47.242188 -18.703125 47.203125 -18.140625 C 47.160156 -17.585938 46.898438 -17.179688 46.421875 -16.921875 C 42.046875 -14.503906 36.984375 -12.445312 31.234375 -10.75 C 31.191406 -10.75 31.171875 -10.726562 31.171875 -10.6875 C 31.171875 -10.644531 31.191406 -10.625 31.234375 -10.625 Z M 51.59375 -10.625 "/></g></g><g transform="translate(413.516759, 716.700224)"><g><path d="M 9.96875 -39.796875 C 9.664062 -39.796875 9.515625 -39.648438 9.515625 -39.359375 L 9.515625 -37.015625 C 9.515625 -36.347656 9.28125 -35.78125 8.8125 -35.3125 C 8.351562 -34.851562 7.789062 -34.625 7.125 -34.625 C 6.457031 -34.625 5.890625 -34.851562 5.421875 -35.3125 C 4.960938 -35.78125 4.734375 -36.347656 4.734375 -37.015625 L 4.734375 -40.6875 C 4.734375 -41.582031 5.054688 -42.351562 5.703125 -43 C 6.359375 -43.644531 7.128906 -43.96875 8.015625 -43.96875 L 25.390625 -43.96875 C 25.679688 -43.96875 25.828125 -44.097656 25.828125 -44.359375 L 25.828125 -45.25 C 25.828125 -45.957031 26.085938 -46.570312 26.609375 -47.09375 C 27.128906 -47.613281 27.75 -47.875 28.46875 -47.875 C 29.195312 -47.875 29.816406 -47.613281 30.328125 -47.09375 C 30.847656 -46.570312 31.109375 -45.957031 31.109375 -45.25 L 31.109375 -44.359375 C 31.109375 -44.097656 31.257812 -43.96875 31.5625 -43.96875 L 49.09375 -43.96875 C 49.988281 -43.96875 50.757812 -43.644531 51.40625 -43 C 52.050781 -42.351562 52.375 -41.582031 52.375 -40.6875 L 52.375 -37.125 C 52.375 -36.425781 52.132812 -35.832031 51.65625 -35.34375 C 51.175781 -34.863281 50.582031 -34.625 49.875 -34.625 C 49.164062 -34.625 48.570312 -34.863281 48.09375 -35.34375 C 47.613281 -35.832031 47.375 -36.425781 47.375 -37.125 L 47.375 -39.359375 C 47.375 -39.648438 47.222656 -39.796875 46.921875 -39.796875 Z M 26.046875 -34.171875 C 26.085938 -34.472656 25.957031 -34.625 25.65625 -34.625 L 17.8125 -34.625 C 17.519531 -34.625 17.351562 -34.472656 17.3125 -34.171875 L 17.140625 -32.734375 C 17.109375 -32.472656 17.238281 -32.34375 17.53125 -32.34375 L 25.5 -32.34375 C 25.789062 -32.34375 25.9375 -32.472656 25.9375 -32.734375 Z M 39.515625 -32.34375 C 39.816406 -32.34375 39.96875 -32.472656 39.96875 -32.734375 L 40.078125 -34.171875 C 40.117188 -34.472656 39.988281 -34.625 39.6875 -34.625 L 30.890625 -34.625 C 30.628906 -34.625 30.484375 -34.472656 30.453125 -34.171875 L 30.34375 -32.734375 C 30.34375 -32.472656 30.472656 -32.34375 30.734375 -32.34375 Z M 29.78125 -27.390625 C 29.78125 -27.085938 29.910156 -26.9375 30.171875 -26.9375 L 39.078125 -26.9375 C 39.367188 -26.9375 39.515625 -27.085938 39.515625 -27.390625 L 39.640625 -28.890625 C 39.671875 -29.148438 39.539062 -29.28125 39.25 -29.28125 L 30.390625 -29.28125 C 30.128906 -29.28125 29.984375 -29.148438 29.953125 -28.890625 Z M 17.140625 -29.28125 C 16.847656 -29.28125 16.679688 -29.148438 16.640625 -28.890625 L 16.421875 -27.390625 C 16.378906 -27.085938 16.488281 -26.9375 16.75 -26.9375 L 24.828125 -26.9375 C 25.117188 -26.9375 25.285156 -27.085938 25.328125 -27.390625 C 25.367188 -27.753906 25.441406 -28.253906 25.546875 -28.890625 C 25.585938 -29.148438 25.457031 -29.28125 25.15625 -29.28125 Z M 14.578125 -24.109375 C 13.691406 -24.109375 12.96875 -24.441406 12.40625 -25.109375 C 11.925781 -25.628906 11.6875 -26.238281 11.6875 -26.9375 C 11.6875 -27.09375 11.6875 -27.242188 11.6875 -27.390625 L 11.859375 -28.5 C 11.890625 -28.757812 11.773438 -28.890625 11.515625 -28.890625 L 5.453125 -28.890625 C 4.929688 -28.890625 4.472656 -29.070312 4.078125 -29.4375 C 3.691406 -29.8125 3.5 -30.269531 3.5 -30.8125 C 3.5 -31.351562 3.691406 -31.804688 4.078125 -32.171875 C 4.472656 -32.546875 4.929688 -32.734375 5.453125 -32.734375 L 12.03125 -32.734375 C 12.28125 -32.734375 12.425781 -32.863281 12.46875 -33.125 L 12.640625 -34.234375 C 12.742188 -35.160156 13.148438 -35.9375 13.859375 -36.5625 C 14.566406 -37.195312 15.382812 -37.515625 16.3125 -37.515625 L 42.03125 -37.515625 C 42.914062 -37.515625 43.65625 -37.179688 44.25 -36.515625 C 44.769531 -35.960938 45.03125 -35.3125 45.03125 -34.5625 C 45.03125 -34.457031 45.015625 -34.347656 44.984375 -34.234375 L 44.921875 -33.125 C 44.878906 -32.863281 44.988281 -32.734375 45.25 -32.734375 L 51.65625 -32.734375 C 52.175781 -32.734375 52.628906 -32.546875 53.015625 -32.171875 C 53.410156 -31.804688 53.609375 -31.351562 53.609375 -30.8125 C 53.609375 -30.269531 53.410156 -29.8125 53.015625 -29.4375 C 52.628906 -29.070312 52.175781 -28.890625 51.65625 -28.890625 L 44.921875 -28.890625 C 44.660156 -28.890625 44.507812 -28.757812 44.46875 -28.5 L 44.359375 -27.390625 C 44.285156 -26.460938 43.90625 -25.679688 43.21875 -25.046875 C 42.53125 -24.421875 41.722656 -24.109375 40.796875 -24.109375 Z M 15.8125 -8.90625 C 15.507812 -8.90625 15.359375 -8.757812 15.359375 -8.46875 L 15.359375 -7.0625 C 15.359375 -6.8125 15.507812 -6.6875 15.8125 -6.6875 L 41.359375 -6.6875 C 41.648438 -6.6875 41.796875 -6.8125 41.796875 -7.0625 L 41.796875 -8.46875 C 41.796875 -8.757812 41.648438 -8.90625 41.359375 -8.90625 Z M 15.8125 -13.96875 C 15.507812 -13.96875 15.359375 -13.820312 15.359375 -13.53125 L 15.359375 -12.1875 C 15.359375 -11.925781 15.507812 -11.796875 15.8125 -11.796875 L 41.359375 -11.796875 C 41.648438 -11.796875 41.796875 -11.925781 41.796875 -12.1875 L 41.796875 -13.53125 C 41.796875 -13.820312 41.648438 -13.96875 41.359375 -13.96875 Z M 15.8125 -18.984375 C 15.507812 -18.984375 15.359375 -18.832031 15.359375 -18.53125 L 15.359375 -17.3125 C 15.359375 -17.007812 15.507812 -16.859375 15.8125 -16.859375 L 41.359375 -16.859375 C 41.648438 -16.859375 41.796875 -17.007812 41.796875 -17.3125 L 41.796875 -18.53125 C 41.796875 -18.832031 41.648438 -18.984375 41.359375 -18.984375 Z M 47.140625 -6.953125 C 47.140625 -6.023438 46.816406 -5.242188 46.171875 -4.609375 C 45.523438 -3.984375 44.753906 -3.671875 43.859375 -3.671875 L 37.34375 -3.671875 C 37.3125 -3.671875 37.296875 -3.648438 37.296875 -3.609375 C 37.296875 -3.578125 37.3125 -3.5625 37.34375 -3.5625 C 42.394531 -2.113281 46.960938 -0.722656 51.046875 0.609375 C 51.671875 0.796875 51.984375 1.222656 51.984375 1.890625 C 51.984375 2.367188 51.78125 2.738281 51.375 3 C 50.445312 3.59375 49.484375 3.890625 48.484375 3.890625 C 47.890625 3.890625 47.257812 3.78125 46.59375 3.5625 C 42.882812 2.226562 38.953125 0.929688 34.796875 -0.328125 C 34.117188 -0.515625 33.707031 -0.960938 33.5625 -1.671875 C 33.53125 -1.816406 33.515625 -1.945312 33.515625 -2.0625 C 33.515625 -2.582031 33.71875 -3.007812 34.125 -3.34375 L 34.171875 -3.390625 C 34.210938 -3.429688 34.222656 -3.488281 34.203125 -3.5625 C 34.179688 -3.632812 34.132812 -3.671875 34.0625 -3.671875 L 22.375 -3.671875 C 22.300781 -3.671875 22.253906 -3.632812 22.234375 -3.5625 C 22.210938 -3.488281 22.242188 -3.429688 22.328125 -3.390625 L 22.484375 -3.28125 C 23.078125 -2.914062 23.375 -2.378906 23.375 -1.671875 C 23.375 -0.859375 23.023438 -0.300781 22.328125 0 C 18.390625 1.78125 13.785156 3.171875 8.515625 4.171875 C 8.222656 4.210938 7.945312 4.234375 7.6875 4.234375 C 6.53125 4.234375 5.507812 3.734375 4.625 2.734375 C 4.394531 2.472656 4.28125 2.191406 4.28125 1.890625 C 4.28125 1.773438 4.300781 1.644531 4.34375 1.5 C 4.488281 1.019531 4.800781 0.742188 5.28125 0.671875 C 11.332031 -0.410156 16.082031 -1.785156 19.53125 -3.453125 C 19.570312 -3.484375 19.582031 -3.523438 19.5625 -3.578125 C 19.539062 -3.640625 19.515625 -3.671875 19.484375 -3.671875 L 13.578125 -3.671875 C 12.691406 -3.671875 11.921875 -3.984375 11.265625 -4.609375 C 10.617188 -5.242188 10.296875 -6.023438 10.296875 -6.953125 L 10.296875 -18.703125 C 10.296875 -19.628906 10.617188 -20.40625 11.265625 -21.03125 C 11.921875 -21.664062 12.691406 -21.984375 13.578125 -21.984375 L 43.859375 -21.984375 C 44.753906 -21.984375 45.523438 -21.664062 46.171875 -21.03125 C 46.816406 -20.40625 47.140625 -19.628906 47.140625 -18.703125 Z M 47.140625 -6.953125 "/></g></g><g transform="translate(470.516757, 716.700224)"><g><path d="M 16.09375 -39.015625 C 16.09375 -39.316406 15.941406 -39.46875 15.640625 -39.46875 L 9.625 -39.46875 C 9.363281 -39.46875 9.234375 -39.316406 9.234375 -39.015625 L 9.234375 -28.390625 C 9.234375 -28.128906 9.363281 -28 9.625 -28 L 15.640625 -28 C 15.941406 -28 16.09375 -28.128906 16.09375 -28.390625 Z M 9.234375 -11.6875 C 9.234375 -11.425781 9.363281 -11.296875 9.625 -11.296875 L 15.640625 -11.296875 C 15.941406 -11.296875 16.09375 -11.425781 16.09375 -11.6875 L 16.09375 -22.875 C 16.09375 -23.175781 15.941406 -23.328125 15.640625 -23.328125 L 9.625 -23.328125 C 9.363281 -23.328125 9.234375 -23.175781 9.234375 -22.875 Z M 17.8125 -44.25 C 18.707031 -44.25 19.476562 -43.925781 20.125 -43.28125 C 20.769531 -42.632812 21.09375 -41.863281 21.09375 -40.96875 L 21.09375 -9.859375 C 21.09375 -8.929688 20.769531 -8.148438 20.125 -7.515625 C 19.476562 -6.878906 18.707031 -6.5625 17.8125 -6.5625 L 9.625 -6.5625 C 9.363281 -6.5625 9.234375 -6.414062 9.234375 -6.125 L 9.234375 -4.234375 C 9.234375 -3.566406 8.992188 -2.988281 8.515625 -2.5 C 8.035156 -2.019531 7.460938 -1.78125 6.796875 -1.78125 C 6.128906 -1.78125 5.550781 -2.019531 5.0625 -2.5 C 4.582031 -2.988281 4.34375 -3.566406 4.34375 -4.234375 L 4.34375 -40.96875 C 4.34375 -41.863281 4.65625 -42.632812 5.28125 -43.28125 C 5.914062 -43.925781 6.695312 -44.25 7.625 -44.25 Z M 26.828125 -9.734375 C 26.492188 -10.109375 26.328125 -10.535156 26.328125 -11.015625 C 26.328125 -11.128906 26.347656 -11.257812 26.390625 -11.40625 C 26.460938 -12 26.773438 -12.460938 27.328125 -12.796875 C 27.816406 -13.054688 28.316406 -13.1875 28.828125 -13.1875 C 29.015625 -13.1875 29.179688 -13.1875 29.328125 -13.1875 C 30.078125 -13.082031 30.671875 -12.75 31.109375 -12.1875 C 32.816406 -10.257812 34.210938 -8.476562 35.296875 -6.84375 C 35.554688 -6.4375 35.6875 -5.992188 35.6875 -5.515625 C 35.6875 -5.285156 35.664062 -5.0625 35.625 -4.84375 C 35.40625 -4.132812 34.976562 -3.578125 34.34375 -3.171875 C 33.9375 -2.953125 33.53125 -2.84375 33.125 -2.84375 C 32.894531 -2.84375 32.648438 -2.878906 32.390625 -2.953125 C 31.722656 -3.140625 31.207031 -3.546875 30.84375 -4.171875 C 29.757812 -5.921875 28.421875 -7.773438 26.828125 -9.734375 Z M 54.078125 -29.796875 C 54.546875 -29.335938 54.78125 -28.785156 54.78125 -28.140625 C 54.78125 -27.492188 54.546875 -26.945312 54.078125 -26.5 C 53.609375 -26.050781 53.0625 -25.828125 52.4375 -25.828125 L 48.59375 -25.828125 C 48.300781 -25.828125 48.15625 -25.679688 48.15625 -25.390625 L 48.15625 -20.546875 C 48.15625 -20.242188 48.300781 -20.09375 48.59375 -20.09375 L 51.9375 -20.09375 C 52.5625 -20.09375 53.101562 -19.867188 53.5625 -19.421875 C 54.03125 -18.984375 54.265625 -18.4375 54.265625 -17.78125 C 54.265625 -17.132812 54.03125 -16.585938 53.5625 -16.140625 C 53.101562 -15.691406 52.5625 -15.46875 51.9375 -15.46875 L 48.59375 -15.46875 C 48.300781 -15.46875 48.15625 -15.320312 48.15625 -15.03125 L 48.15625 -1.453125 C 48.15625 -0.0351562 47.96875 1.050781 47.59375 1.8125 C 47.21875 2.570312 46.566406 3.132812 45.640625 3.5 C 44.378906 4.019531 42.15625 4.316406 38.96875 4.390625 C 38.925781 4.390625 38.90625 4.390625 38.90625 4.390625 C 38.164062 4.390625 37.5 4.148438 36.90625 3.671875 C 36.3125 3.191406 35.882812 2.582031 35.625 1.84375 C 35.40625 1.28125 35.46875 0.75 35.8125 0.25 C 36.164062 -0.25 36.640625 -0.5 37.234375 -0.5 C 38.648438 -0.46875 40.171875 -0.453125 41.796875 -0.453125 C 42.242188 -0.484375 42.550781 -0.570312 42.71875 -0.71875 C 42.882812 -0.875 42.96875 -1.15625 42.96875 -1.5625 L 42.96875 -15.03125 C 42.96875 -15.320312 42.835938 -15.46875 42.578125 -15.46875 L 24.546875 -15.46875 C 23.921875 -15.46875 23.375 -15.691406 22.90625 -16.140625 C 22.4375 -16.585938 22.203125 -17.132812 22.203125 -17.78125 C 22.203125 -18.4375 22.4375 -18.984375 22.90625 -19.421875 C 23.375 -19.867188 23.921875 -20.09375 24.546875 -20.09375 L 42.578125 -20.09375 C 42.835938 -20.09375 42.96875 -20.242188 42.96875 -20.546875 L 42.96875 -25.390625 C 42.96875 -25.679688 42.835938 -25.828125 42.578125 -25.828125 L 24.375 -25.828125 C 23.75 -25.828125 23.203125 -26.050781 22.734375 -26.5 C 22.273438 -26.945312 22.046875 -27.492188 22.046875 -28.140625 C 22.046875 -28.785156 22.273438 -29.335938 22.734375 -29.796875 C 23.203125 -30.265625 23.75 -30.5 24.375 -30.5 L 35.1875 -30.5 C 35.476562 -30.5 35.625 -30.628906 35.625 -30.890625 L 35.625 -36.34375 C 35.625 -36.601562 35.476562 -36.734375 35.1875 -36.734375 L 26.546875 -36.734375 C 25.878906 -36.734375 25.320312 -36.960938 24.875 -37.421875 C 24.4375 -37.890625 24.21875 -38.4375 24.21875 -39.0625 C 24.21875 -39.695312 24.4375 -40.238281 24.875 -40.6875 C 25.320312 -41.132812 25.878906 -41.359375 26.546875 -41.359375 L 35.1875 -41.359375 C 35.476562 -41.359375 35.625 -41.503906 35.625 -41.796875 L 35.625 -45.25 C 35.625 -45.957031 35.882812 -46.570312 36.40625 -47.09375 C 36.925781 -47.613281 37.546875 -47.875 38.265625 -47.875 C 38.992188 -47.875 39.613281 -47.613281 40.125 -47.09375 C 40.644531 -46.570312 40.90625 -45.957031 40.90625 -45.25 L 40.90625 -41.796875 C 40.90625 -41.503906 41.054688 -41.359375 41.359375 -41.359375 L 50.375 -41.359375 C 51.007812 -41.359375 51.546875 -41.132812 51.984375 -40.6875 C 52.429688 -40.238281 52.65625 -39.695312 52.65625 -39.0625 C 52.65625 -38.4375 52.429688 -37.890625 51.984375 -37.421875 C 51.546875 -36.960938 51.007812 -36.734375 50.375 -36.734375 L 41.359375 -36.734375 C 41.054688 -36.734375 40.90625 -36.601562 40.90625 -36.34375 L 40.90625 -30.890625 C 40.90625 -30.628906 41.054688 -30.5 41.359375 -30.5 L 52.4375 -30.5 C 53.0625 -30.5 53.609375 -30.265625 54.078125 -29.796875 Z M 54.078125 -29.796875 "/></g></g><g transform="translate(527.516754, 716.700224)"><g><path d="M 19.921875 -32.84375 C 19.441406 -33.320312 19.203125 -33.90625 19.203125 -34.59375 C 19.203125 -35.28125 19.441406 -35.875 19.921875 -36.375 C 20.410156 -36.875 21.003906 -37.125 21.703125 -37.125 L 32.890625 -37.125 C 33.148438 -37.125 33.28125 -37.253906 33.28125 -37.515625 L 33.28125 -44.46875 C 33.28125 -45.21875 33.539062 -45.847656 34.0625 -46.359375 C 34.582031 -46.878906 35.210938 -47.140625 35.953125 -47.140625 C 36.703125 -47.140625 37.332031 -46.878906 37.84375 -46.359375 C 38.363281 -45.847656 38.625 -45.21875 38.625 -44.46875 L 38.625 -37.515625 C 38.625 -37.253906 38.773438 -37.125 39.078125 -37.125 L 51.15625 -37.125 C 51.820312 -37.125 52.40625 -36.875 52.90625 -36.375 C 53.40625 -35.875 53.65625 -35.28125 53.65625 -34.59375 C 53.65625 -33.90625 53.40625 -33.320312 52.90625 -32.84375 C 52.40625 -32.363281 51.820312 -32.125 51.15625 -32.125 L 21.703125 -32.125 C 21.003906 -32.125 20.410156 -32.363281 19.921875 -32.84375 Z M 32.390625 -9.125 C 32.390625 -8.976562 32.390625 -8.847656 32.390625 -8.734375 C 32.390625 -8.109375 32.207031 -7.550781 31.84375 -7.0625 C 31.394531 -6.4375 30.800781 -6.03125 30.0625 -5.84375 C 29.875 -5.8125 29.6875 -5.796875 29.5 -5.796875 C 29.019531 -5.796875 28.578125 -5.960938 28.171875 -6.296875 C 27.578125 -6.703125 27.257812 -7.253906 27.21875 -7.953125 C 26.625 -13.597656 25.585938 -19.484375 24.109375 -25.609375 C 24.066406 -25.828125 24.046875 -26.03125 24.046875 -26.21875 C 24.046875 -26.625 24.175781 -27.03125 24.4375 -27.4375 C 24.8125 -27.957031 25.3125 -28.273438 25.9375 -28.390625 C 26.082031 -28.421875 26.25 -28.4375 26.4375 -28.4375 C 26.925781 -28.4375 27.390625 -28.3125 27.828125 -28.0625 C 28.421875 -27.6875 28.796875 -27.164062 28.953125 -26.5 C 30.578125 -20.226562 31.722656 -14.4375 32.390625 -9.125 Z M 14.421875 -45.3125 C 14.710938 -45.976562 15.191406 -46.460938 15.859375 -46.765625 C 16.234375 -46.941406 16.625 -47.03125 17.03125 -47.03125 C 17.289062 -47.03125 17.570312 -46.992188 17.875 -46.921875 C 18.539062 -46.703125 19.019531 -46.273438 19.3125 -45.640625 C 19.457031 -45.304688 19.53125 -44.972656 19.53125 -44.640625 C 19.53125 -44.347656 19.476562 -44.035156 19.375 -43.703125 C 18.113281 -40.804688 16.644531 -37.925781 14.96875 -35.0625 C 14.820312 -34.84375 14.75 -34.585938 14.75 -34.296875 L 14.75 1.84375 C 14.75 2.507812 14.503906 3.09375 14.015625 3.59375 C 13.535156 4.09375 12.941406 4.34375 12.234375 4.34375 C 11.535156 4.34375 10.941406 4.09375 10.453125 3.59375 C 9.972656 3.09375 9.734375 2.507812 9.734375 1.84375 L 9.734375 -26.71875 C 9.734375 -26.789062 9.707031 -26.835938 9.65625 -26.859375 C 9.601562 -26.878906 9.539062 -26.851562 9.46875 -26.78125 C 8.382812 -25.363281 7.328125 -24.0625 6.296875 -22.875 C 5.847656 -22.425781 5.34375 -22.203125 4.78125 -22.203125 C 4.675781 -22.203125 4.546875 -22.203125 4.390625 -22.203125 C 3.691406 -22.316406 3.15625 -22.707031 2.78125 -23.375 C 2.445312 -24.007812 2.28125 -24.660156 2.28125 -25.328125 C 2.28125 -25.515625 2.300781 -25.703125 2.34375 -25.890625 C 2.445312 -26.773438 2.816406 -27.550781 3.453125 -28.21875 C 7.898438 -33.007812 11.554688 -38.707031 14.421875 -45.3125 Z M 42.359375 -3.453125 C 42.328125 -3.378906 42.347656 -3.296875 42.421875 -3.203125 C 42.492188 -3.109375 42.566406 -3.0625 42.640625 -3.0625 L 52.4375 -3.0625 C 53.144531 -3.0625 53.738281 -2.816406 54.21875 -2.328125 C 54.695312 -1.847656 54.9375 -1.265625 54.9375 -0.578125 C 54.9375 0.109375 54.695312 0.703125 54.21875 1.203125 C 53.738281 1.703125 53.144531 1.953125 52.4375 1.953125 L 20.484375 1.953125 C 19.773438 1.953125 19.179688 1.703125 18.703125 1.203125 C 18.222656 0.703125 17.984375 0.109375 17.984375 -0.578125 C 17.984375 -1.265625 18.222656 -1.847656 18.703125 -2.328125 C 19.179688 -2.816406 19.773438 -3.0625 20.484375 -3.0625 L 36.6875 -3.0625 C 36.976562 -3.0625 37.160156 -3.191406 37.234375 -3.453125 C 39.503906 -10.242188 41.414062 -17.890625 42.96875 -26.390625 C 43.125 -27.160156 43.535156 -27.789062 44.203125 -28.28125 C 44.679688 -28.613281 45.21875 -28.78125 45.8125 -28.78125 C 46 -28.78125 46.1875 -28.78125 46.375 -28.78125 C 47.113281 -28.632812 47.707031 -28.222656 48.15625 -27.546875 C 48.488281 -27.109375 48.65625 -26.628906 48.65625 -26.109375 C 48.65625 -25.878906 48.617188 -25.65625 48.546875 -25.4375 C 46.535156 -16.75 44.472656 -9.421875 42.359375 -3.453125 Z M 42.359375 -3.453125 "/></g></g><g transform="translate(584.516751, 716.700224)"><g><path d="M 24.765625 -41.859375 C 24.472656 -41.859375 24.328125 -41.710938 24.328125 -41.421875 L 24.328125 -37.96875 C 24.328125 -37.707031 24.472656 -37.578125 24.765625 -37.578125 L 32 -37.578125 C 32.300781 -37.578125 32.453125 -37.707031 32.453125 -37.96875 L 32.453125 -41.421875 C 32.453125 -41.710938 32.300781 -41.859375 32 -41.859375 Z M 19.03125 -37.578125 C 19.289062 -37.578125 19.421875 -37.707031 19.421875 -37.96875 L 19.421875 -41.421875 C 19.421875 -41.710938 19.289062 -41.859375 19.03125 -41.859375 L 12.03125 -41.859375 C 11.769531 -41.859375 11.640625 -41.710938 11.640625 -41.421875 L 11.640625 -37.96875 C 11.640625 -37.707031 11.769531 -37.578125 12.03125 -37.578125 Z M 37.6875 -41.859375 C 37.425781 -41.859375 37.296875 -41.710938 37.296875 -41.421875 L 37.296875 -37.96875 C 37.296875 -37.707031 37.425781 -37.578125 37.6875 -37.578125 L 45.09375 -37.578125 C 45.351562 -37.578125 45.484375 -37.707031 45.484375 -37.96875 L 45.484375 -41.421875 C 45.484375 -41.710938 45.351562 -41.859375 45.09375 -41.859375 Z M 43.140625 -18.640625 C 43.398438 -18.640625 43.53125 -18.769531 43.53125 -19.03125 L 43.53125 -20.8125 C 43.53125 -21.113281 43.398438 -21.265625 43.140625 -21.265625 L 22.59375 -21.265625 C 22.300781 -21.265625 22.15625 -21.113281 22.15625 -20.8125 L 22.15625 -19.03125 C 22.15625 -18.769531 22.300781 -18.640625 22.59375 -18.640625 Z M 43.140625 -13.140625 C 43.398438 -13.140625 43.53125 -13.269531 43.53125 -13.53125 L 43.53125 -15.359375 C 43.53125 -15.660156 43.398438 -15.8125 43.140625 -15.8125 L 22.59375 -15.8125 C 22.300781 -15.8125 22.15625 -15.660156 22.15625 -15.359375 L 22.15625 -13.53125 C 22.15625 -13.269531 22.300781 -13.140625 22.59375 -13.140625 Z M 43.140625 -7.515625 C 43.398438 -7.515625 43.53125 -7.660156 43.53125 -7.953125 L 43.53125 -9.859375 C 43.53125 -10.117188 43.398438 -10.25 43.140625 -10.25 L 22.59375 -10.25 C 22.300781 -10.25 22.15625 -10.117188 22.15625 -9.859375 L 22.15625 -7.953125 C 22.15625 -7.660156 22.300781 -7.515625 22.59375 -7.515625 Z M 17.25 -20.9375 C 17.25 -21.863281 17.570312 -22.640625 18.21875 -23.265625 C 18.875 -23.898438 19.648438 -24.21875 20.546875 -24.21875 L 24.71875 -24.21875 C 25.007812 -24.21875 25.175781 -24.363281 25.21875 -24.65625 C 25.363281 -25.4375 25.472656 -26.101562 25.546875 -26.65625 C 25.585938 -26.914062 25.457031 -27.046875 25.15625 -27.046875 L 6.015625 -27.046875 C 5.453125 -27.046875 4.976562 -27.25 4.59375 -27.65625 C 4.207031 -28.070312 4.015625 -28.554688 4.015625 -29.109375 C 4.015625 -29.671875 4.207031 -30.144531 4.59375 -30.53125 C 4.976562 -30.914062 5.453125 -31.109375 6.015625 -31.109375 L 25.765625 -31.109375 C 26.023438 -31.109375 26.175781 -31.257812 26.21875 -31.5625 C 26.332031 -32.34375 26.40625 -32.972656 26.4375 -33.453125 C 26.4375 -33.710938 26.304688 -33.84375 26.046875 -33.84375 L 9.859375 -33.84375 C 8.929688 -33.84375 8.148438 -34.164062 7.515625 -34.8125 C 6.878906 -35.46875 6.5625 -36.238281 6.5625 -37.125 L 6.5625 -42.25 C 6.5625 -43.175781 6.878906 -43.953125 7.515625 -44.578125 C 8.148438 -45.210938 8.929688 -45.53125 9.859375 -45.53125 L 47.484375 -45.53125 C 48.410156 -45.53125 49.1875 -45.210938 49.8125 -44.578125 C 50.445312 -43.953125 50.765625 -43.175781 50.765625 -42.25 L 50.765625 -37.125 C 50.765625 -36.238281 50.445312 -35.46875 49.8125 -34.8125 C 49.1875 -34.164062 48.410156 -33.84375 47.484375 -33.84375 L 32.28125 -33.84375 C 31.988281 -33.84375 31.820312 -33.710938 31.78125 -33.453125 C 31.707031 -32.972656 31.613281 -32.34375 31.5 -31.5625 C 31.46875 -31.257812 31.597656 -31.109375 31.890625 -31.109375 L 51.046875 -31.109375 C 51.597656 -31.109375 52.066406 -30.914062 52.453125 -30.53125 C 52.847656 -30.144531 53.046875 -29.671875 53.046875 -29.109375 C 53.046875 -28.554688 52.847656 -28.070312 52.453125 -27.65625 C 52.066406 -27.25 51.597656 -27.046875 51.046875 -27.046875 L 31.171875 -27.046875 C 30.910156 -27.046875 30.765625 -26.914062 30.734375 -26.65625 C 30.578125 -25.882812 30.445312 -25.21875 30.34375 -24.65625 C 30.300781 -24.363281 30.410156 -24.21875 30.671875 -24.21875 L 45.359375 -24.21875 C 46.296875 -24.21875 47.078125 -23.898438 47.703125 -23.265625 C 48.335938 -22.640625 48.65625 -21.863281 48.65625 -20.9375 L 48.65625 -7.84375 C 48.65625 -6.914062 48.335938 -6.132812 47.703125 -5.5 C 47.078125 -4.875 46.296875 -4.5625 45.359375 -4.5625 L 20.546875 -4.5625 C 19.648438 -4.5625 18.875 -4.875 18.21875 -5.5 C 17.570312 -6.132812 17.25 -6.914062 17.25 -7.84375 Z M 52.375 -1.84375 C 52.9375 -1.84375 53.421875 -1.632812 53.828125 -1.21875 C 54.234375 -0.8125 54.4375 -0.320312 54.4375 0.25 C 54.4375 0.820312 54.234375 1.3125 53.828125 1.71875 C 53.421875 2.132812 52.9375 2.34375 52.375 2.34375 L 12.640625 2.34375 C 12.453125 2.34375 12.359375 2.414062 12.359375 2.5625 C 12.359375 3.113281 12.171875 3.578125 11.796875 3.953125 C 11.429688 4.328125 10.988281 4.515625 10.46875 4.515625 L 9.6875 4.515625 C 8.945312 4.515625 8.316406 4.253906 7.796875 3.734375 C 7.273438 3.210938 7.015625 2.582031 7.015625 1.84375 L 7.015625 -20.8125 C 7.015625 -21.5625 7.273438 -22.191406 7.796875 -22.703125 C 8.316406 -23.222656 8.945312 -23.484375 9.6875 -23.484375 C 10.425781 -23.484375 11.054688 -23.222656 11.578125 -22.703125 C 12.097656 -22.191406 12.359375 -21.5625 12.359375 -20.8125 L 12.359375 -2.234375 C 12.359375 -1.972656 12.503906 -1.84375 12.796875 -1.84375 Z M 52.375 -1.84375 "/></g></g><g transform="translate(641.516748, 716.700224)"><g><path d="M 15.640625 -30.84375 C 16.160156 -31.363281 16.789062 -31.625 17.53125 -31.625 C 18.269531 -31.625 18.890625 -31.363281 19.390625 -30.84375 C 19.898438 -30.320312 20.15625 -29.707031 20.15625 -29 L 20.15625 1.71875 C 20.15625 2.65625 19.835938 3.4375 19.203125 4.0625 C 18.578125 4.695312 17.796875 5.015625 16.859375 5.015625 L 4.28125 5.015625 C 3.613281 5.015625 3.039062 4.769531 2.5625 4.28125 C 2.082031 3.800781 1.84375 3.226562 1.84375 2.5625 C 1.84375 1.894531 2.082031 1.316406 2.5625 0.828125 C 3.039062 0.347656 3.613281 0.109375 4.28125 0.109375 L 14.46875 0.109375 C 14.726562 0.109375 14.859375 -0.0195312 14.859375 -0.28125 L 14.859375 -29 C 14.859375 -29.707031 15.117188 -30.320312 15.640625 -30.84375 Z M 15.640625 -30.84375 "/></g></g></g><g fill="rgb(100%, 100%, 100%)" fill-opacity="1"><g transform="translate(107.608402, 687.125385)"><g><path d="M 45.90625 0 C 47.28125 0 48.457031 -0.488281 49.4375 -1.46875 C 50.414062 -2.445312 50.90625 -3.625 50.90625 -5 C 50.90625 -6.375 50.414062 -7.550781 49.4375 -8.53125 C 48.457031 -9.507812 47.28125 -10 45.90625 -10 L 21.15625 -10 L 21.296875 -10.09375 C 28.148438 -13.613281 34.664062 -17.78125 40.84375 -22.59375 C 47.03125 -27.414062 50.125 -33.472656 50.125 -40.765625 C 50.125 -47.640625 47.675781 -53.53125 42.78125 -58.4375 C 37.882812 -63.351562 31.976562 -65.8125 25.0625 -65.8125 C 18.175781 -65.8125 12.273438 -63.351562 7.359375 -58.4375 C 2.453125 -53.53125 0 -47.640625 0 -40.765625 C 0 -39.378906 0.488281 -38.195312 1.46875 -37.21875 C 2.445312 -36.238281 3.625 -35.75 5 -35.75 C 6.375 -35.75 7.550781 -36.238281 8.53125 -37.21875 C 9.507812 -38.195312 10 -39.378906 10 -40.765625 C 10 -44.890625 11.472656 -48.425781 14.421875 -51.375 C 17.378906 -54.332031 20.925781 -55.8125 25.0625 -55.8125 C 29.1875 -55.8125 32.722656 -54.332031 35.671875 -51.375 C 38.628906 -48.425781 40.109375 -44.890625 40.109375 -40.765625 C 40.109375 -36.378906 37.578125 -32.363281 32.515625 -28.71875 C 27.453125 -25.082031 22.09375 -21.78125 16.4375 -18.8125 C 9.394531 -15.238281 4.269531 -11.644531 1.0625 -8.03125 C 0.382812 -7.082031 0.046875 -6.085938 0.046875 -5.046875 C 0.046875 -4.835938 0.0976562 -4.34375 0.203125 -3.5625 C 0.316406 -2.78125 0.921875 -1.945312 2.015625 -1.0625 C 2.929688 -0.382812 3.925781 -0.046875 5 -0.046875 L 5 0 Z M 45.90625 0 "/></g></g></g></svg>