<svg xmlns="http://www.w3.org/2000/svg" width="1080" viewBox="0 0 810 810" height="1080" version="1"><defs><clipPath id="a"><path d="M149.887 23.902H554V428H149.887zm0 0"/></clipPath><clipPath id="b"><path d="M472 346h187.887v187.902H472zm0 0"/></clipPath></defs><path fill="#FFF" d="M-81 -81H891V891H-81z"/><path fill="#FFF" d="M-81 -81H891V891H-81z"/><path fill="#FFF" d="M-81 -81H891V891H-81z"/><path fill="#4DD171" d="M137.266 581.398c-40.801 0-73.875 33.079-73.875 73.875 0 40.801 33.074 73.875 73.875 73.875 40.8 0 73.875-33.074 73.875-73.875 0-40.796-33.075-73.875-73.875-73.875m192.757-281.246c-4.25 0-8.332-1.699-11.328-4.714L260.746 237c-6.203-6.25-6.16-16.344.086-22.547 6.27-6.183 16.34-6.14 22.566.106l45.86 46.238 90.164-103.91c5.758-6.653 15.828-7.375 22.48-1.594 6.653 5.758 7.352 15.832 1.594 22.48L342.07 294.648a15.973 15.973 0 0 1-11.515 5.504h-.532zm0 0"/><g clip-path="url(#a)"><path fill="#4DD171" d="M351.762 427.652c-111.309 0-201.875-90.566-201.875-201.875 0-111.304 90.566-201.875 201.875-201.875 111.304 0 201.875 90.57 201.875 201.875 0 111.309-90.57 201.875-201.875 201.875zm0-371.875c-93.735 0-170 76.266-170 170 0 93.735 76.265 170 170 170 93.734 0 170-76.265 170-170 0-93.734-76.266-170-170-170zm0 0"/></g><g clip-path="url(#b)"><path fill="#4DD171" d="M643.95 533.902c-4.083 0-8.16-1.55-11.263-4.675L477.347 373.89c-6.226-6.227-6.226-16.32 0-22.547 6.227-6.227 16.321-6.227 22.548 0l155.335 155.34c6.227 6.226 6.227 16.32 0 22.546a15.897 15.897 0 0 1-11.28 4.672zm0 0"/></g><g fill="#4DD171"><path d="M274.017 623.84c-.293 0-.438.149-.438.438v9.14c0 .262.13.407.39.438 2.563.492 5.735.735 9.517.735 1.3.03 2.82.046 4.562.046 1.895 0 4.066-.015 6.516-.046.632 0 1.117.257 1.453.765.219.305.328.64.328 1.016 0 .219-.059.437-.172.656a3.978 3.978 0 0 1-1.36 1.922c-.648.5-1.359.75-2.14.75h-9.406c-6.5 0-11.883-.797-16.14-2.39-4.2-1.563-7.634-4.423-10.298-8.579-.043-.07-.11-.097-.203-.078-.094.024-.156.07-.187.14-1.606 4.157-3.649 7.481-6.125 9.97-.493.476-1.07.718-1.735.718h-.156c-.71-.031-1.34-.308-1.89-.828-.524-.45-.782-1.027-.782-1.734 0-.625.219-1.16.656-1.61 4.008-4.125 6.63-10.32 7.86-18.593.101-.739.453-1.352 1.047-1.844.52-.363 1.078-.547 1.672-.547h.343c.77.074 1.38.422 1.828 1.047.375.45.563.953.563 1.515 0 .149-.024.313-.063.5a68.242 68.242 0 0 1-1 4.5c-.074.262-.054.524.063.782 2.07 4.386 5.094 7.508 9.062 9.36.114.03.207.023.282-.032.07-.05.109-.133.109-.25V611.48c0-.289-.133-.437-.39-.437h-19.141a2.388 2.388 0 0 1-1.735-.719 2.426 2.426 0 0 1-.718-1.766c0-.687.238-1.27.718-1.75.489-.476 1.067-.718 1.735-.718h19.031c.3 0 .453-.13.453-.391v-6.016c0-.257-.152-.39-.453-.39h-14.078a2.388 2.388 0 0 1-1.734-.719 2.388 2.388 0 0 1-.72-1.734c0-.664.239-1.239.72-1.72.488-.487 1.066-.734 1.734-.734h14.078c.3 0 .453-.128.453-.39v-3.11c0-.78.258-1.43.781-1.953.52-.52 1.16-.78 1.922-.78.758 0 1.395.26 1.907.78.519.524.78 1.172.78 1.953v3.11c0 .262.13.39.391.39h15.25c.676 0 1.254.247 1.735.735.476.48.719 1.055.719 1.719 0 .668-.243 1.246-.72 1.734-.48.48-1.058.719-1.734.719h-15.25c-.261 0-.39.133-.39.39v6.016c0 .262.129.39.39.39h19.375c.707 0 1.301.243 1.782.72.476.48.718 1.062.718 1.75 0 .687-.242 1.277-.718 1.765-.48.48-1.075.719-1.782.719h-19.265c-.293 0-.438.148-.438.437v7.125c0 .305.145.453.438.453h15.64c.676 0 1.243.235 1.704.703.468.461.703 1.024.703 1.688 0 .668-.235 1.234-.703 1.703-.461.461-1.028.688-1.704.688zm0 0"/><path d="M313.267 609.7c.289 0 .437-.129.437-.39v-7.735c0-.258-.148-.39-.437-.39h-8.735c-.593 0-1.105-.212-1.53-.641a2.078 2.078 0 0 1-.641-1.532c0-.593.21-1.101.64-1.53.426-.427.938-.641 1.531-.641h3.829a.344.344 0 0 0 .28-.141c.071-.094.095-.176.063-.25-.336-1.113-.836-2.336-1.5-3.672a1.651 1.651 0 0 1-.093-1.469c.207-.5.57-.843 1.093-1.03.29-.071.567-.11.828-.11.332 0 .649.054.954.156.593.23 1.035.621 1.328 1.172.3.562.582 1.121.843 1.672.145.336.22.668.22 1 0 .375-.095.746-.282 1.11a2.7 2.7 0 0 1-1.61 1.452c-.042 0-.062.024-.062.063 0 .031.02.047.063.047h11.359c.031 0 .047-.016.047-.047v-.063c-.781-.187-1.34-.648-1.672-1.39a2.982 2.982 0 0 1-.219-1.11c0-.375.094-.75.281-1.125.188-.437.391-.898.61-1.39.3-.625.75-1.102 1.344-1.438a2.57 2.57 0 0 1 1.265-.344c.227 0 .438.043.625.125.594.106 1.02.438 1.281 1 .258.555.258 1.11 0 1.672a238.924 238.924 0 0 1-2.171 3.781.231.231 0 0 0-.016.22c.039.073.098.109.172.109h4.297c.593 0 1.101.214 1.53.64.427.43.642.938.642 1.531 0 .594-.215 1.106-.641 1.532-.43.43-.938.64-1.531.64h-8.86c-.261 0-.39.133-.39.391v7.734c0 .262.129.391.39.391h4.407c.257 0 .39-.129.39-.39v-4c0-.633.211-1.157.64-1.563.427-.406.938-.61 1.532-.61.594 0 1.098.204 1.516.61.425.406.64.93.64 1.562v8.016c0 .594-.215 1.105-.64 1.531-.418.43-.922.64-1.516.64h-.672c-.406 0-.762-.144-1.062-.437a1.49 1.49 0 0 1-.438-1.078c0-.144-.058-.219-.172-.219h-4.734c-.262 0-.406.153-.438.454-.304 2.148-1.086 4.062-2.343 5.75-1.262 1.687-3.266 3.109-6.016 4.265a2.923 2.923 0 0 1-1.11.219c-.304 0-.6-.055-.89-.172-.668-.219-1.242-.625-1.719-1.219-.375-.406-.5-.875-.375-1.406.133-.539.442-.906.922-1.094 2.113-.851 3.68-1.8 4.703-2.843 1.02-1.04 1.68-2.207 1.985-3.5a.347.347 0 0 0-.063-.313.344.344 0 0 0-.281-.14h-4.219c-.187 0-.281.093-.281.28 0 .594-.215 1.094-.64 1.5-.43.407-.923.61-1.485.61h-.047c-.594 0-1.105-.21-1.531-.64a2.078 2.078 0 0 1-.64-1.532v-8.672c0-.632.21-1.156.64-1.562.426-.406.937-.61 1.531-.61.594 0 1.102.204 1.531.61.426.406.64.93.64 1.562v4c0 .262.13.391.392.391zm33.453-13.297c0-.258-.149-.39-.438-.39h-8.859c-.262 0-.39.132-.39.39v3.063c0 .261.128.39.39.39h8.86c.288 0 .437-.129.437-.39zm-9.86 11.188c0 .293.13.437.391.437h9.031c.29 0 .438-.144.438-.437v-3.344c0-.258-.149-.39-.438-.39h-8.859c-.262 0-.39.132-.39.39a73.402 73.402 0 0 1-.172 3.344zm-6.28 27.546c0 .262.144.391.437.391h20.328c.625 0 1.164.234 1.625.703.469.461.703 1.008.703 1.656 0 .657-.234 1.204-.703 1.641-.461.445-1 .672-1.625.672h-46.656c-.625 0-1.172-.227-1.641-.672-.46-.437-.687-.984-.687-1.64 0-.649.226-1.196.687-1.657.469-.469 1.016-.703 1.64-.703h20.048c.289 0 .437-.129.437-.39v-4.5c0-.301-.148-.454-.437-.454h-14.313a2.117 2.117 0 0 1-1.578-.656 2.212 2.212 0 0 1-.64-1.594c0-.613.21-1.14.64-1.578a2.102 2.102 0 0 1 1.578-.672h14.313c.289 0 .437-.129.437-.39 0-.895.313-1.657.938-2.282a3.132 3.132 0 0 1 2.296-.953h.438c.082 0 .129-.035.14-.109.02-.07-.007-.129-.078-.172a.835.835 0 0 0-.28-.172 2.579 2.579 0 0 1-1.048-1.89v-.266c0-.707.219-1.32.657-1.844 1.632-1.894 2.718-3.984 3.25-6.265.539-2.282.812-4.813.812-7.594v-8.797c0-.926.313-1.703.938-2.328.632-.633 1.421-.953 2.359-.953h12.844c.894 0 1.664.32 2.312.953.656.625.985 1.402.985 2.328v22.719c0 1.261-.165 2.246-.485 2.953-.312.7-.875 1.25-1.687 1.656-1.043.492-2.79.774-5.235.844h-.062a2.644 2.644 0 0 1-1.781-.672 3.55 3.55 0 0 1-1.172-1.734c-.18-.551-.102-1.067.234-1.547.332-.489.797-.711 1.39-.672h2.829c.375 0 .625-.063.75-.188.133-.132.203-.367.203-.703v-5.125c0-.289-.149-.437-.438-.437h-9.687c-.305 0-.469.148-.5.437-1.043 4.012-2.902 7.184-5.578 9.516v.062c.039 0 .062.024.062.063v3.172c0 .261.13.39.39.39h14.642c.625 0 1.148.227 1.578.672.425.438.64.965.64 1.578 0 .618-.215 1.149-.64 1.594-.43.438-.953.656-1.578.656h-14.594c-.293 0-.438.153-.438.453zm0 0"/><path d="M379.173 637.919c-5.75 0-10.43-1.914-14.031-5.75-3.594-3.844-5.39-9.125-5.39-15.844 0-6.676 1.831-11.988 5.5-15.938 3.675-3.957 8.374-5.937 14.093-5.937 3.926 0 7.394 1.152 10.406 3.453.664.524 1 1.211 1 2.063 0 .699-.242 1.328-.719 1.89-.492.555-1.12.852-1.89.89h-.172c-.711 0-1.324-.187-1.844-.562-1.887-1.332-4.074-2-6.562-2-3.938 0-7.094 1.434-9.47 4.297-2.374 2.856-3.562 6.73-3.562 11.625 0 5.043 1.141 8.985 3.422 11.828 2.282 2.836 5.578 4.25 9.89 4.25 2.595 0 4.688-.593 6.282-1.78.227-.177.344-.395.344-.657v-9.078c0-.258-.152-.39-.453-.39h-5.172a2.644 2.644 0 0 1-1.922-.798c-.543-.539-.812-1.18-.812-1.922 0-.75.269-1.382.812-1.906.54-.52 1.18-.781 1.922-.781h8.297c.926 0 1.703.32 2.328.953.633.637.953 1.418.953 2.344v11.578c0 2.48-.855 4.262-2.562 5.344-3.086 1.886-6.649 2.828-10.688 2.828zm0 0"/><path d="M405.225 637.2c-.899 0-1.668-.32-2.313-.969-.648-.656-.968-1.426-.968-2.312v-35.407c0-.882.32-1.648.968-2.296.645-.657 1.414-.985 2.313-.985h9.469c10.644 0 15.968 4.23 15.968 12.688 0 4.418-1.437 7.75-4.312 10-2.875 2.242-6.688 3.36-11.438 3.36h-5.906c-.293 0-.437.151-.437.452v12.188c0 .886-.32 1.656-.954 2.312-.625.649-1.406.969-2.343.969zm3.344-21.594c0 .262.144.39.437.39h5.297c3.332 0 5.816-.655 7.453-1.968 1.633-1.32 2.453-3.36 2.453-6.11 0-2.706-.828-4.609-2.484-5.702-1.649-1.094-4.215-1.641-7.703-1.641h-5.016c-.293 0-.437.133-.437.39zm0 0"/><path d="M450.762 637.919c-4.719 0-8.934-1.39-12.64-4.172-.743-.52-1.11-1.258-1.11-2.219 0-.781.258-1.453.781-2.016.508-.625 1.176-.957 2-1h.219c.738 0 1.406.204 2 .61 2.82 2.043 5.773 3.062 8.86 3.062 2.519 0 4.472-.535 5.859-1.609 1.394-1.07 2.093-2.52 2.093-4.344 0-.738-.132-1.406-.39-2-.262-.594-.543-1.082-.844-1.469-.293-.394-.805-.812-1.531-1.25-.719-.445-1.305-.773-1.75-.984a63.612 63.612 0 0 0-2.219-.969l-5.844-2.515c-5.68-2.407-8.515-6.078-8.515-11.016 0-3.3 1.297-6.055 3.89-8.266 2.602-2.207 5.91-3.312 9.922-3.312 3.895 0 7.438 1.168 10.625 3.5.664.492 1 1.18 1 2.062 0 .711-.226 1.325-.672 1.844-.48.555-1.09.867-1.828.938a.986.986 0 0 1-.344.062c-.625 0-1.199-.187-1.718-.562-2.188-1.407-4.543-2.11-7.063-2.11-2.156 0-3.875.496-5.156 1.485-1.281.98-1.922 2.304-1.922 3.968 0 .668.14 1.297.422 1.891.281.594.594 1.09.937 1.484.352.387.883.778 1.594 1.172.707.387 1.29.696 1.75.922.469.219 1.164.496 2.094.828l5.734 2.438c2.739 1.187 4.848 2.668 6.328 4.437 1.489 1.762 2.235 4.07 2.235 6.922 0 3.492-1.344 6.399-4.031 8.719-2.688 2.312-6.278 3.469-10.766 3.469zm0 0"/><path d="M478.026 639.544c-.438.52-1.032.816-1.782.89h-.328c-.637 0-1.21-.168-1.719-.5-.523-.336-.804-.82-.843-1.453-.032-.636.156-1.172.562-1.61 1.738-2.007 3.094-4.534 4.063-7.577.187-.625.554-1.086 1.109-1.39a2.13 2.13 0 0 1 1.734-.173c.625.23 1.102.64 1.438 1.235a2.23 2.23 0 0 1 .172 1.78c-1.117 3.75-2.586 6.68-4.406 8.798zm8.515-8.407a1.985 1.985 0 0 1 .344-1.562c.332-.477.773-.758 1.328-.844h.344c.52 0 .984.133 1.39.39.52.376.852.86 1 1.454.594 2.68.891 4.719.891 6.125 0 .594-.187 1.113-.562 1.562-.438.52-.997.817-1.672.891-.594.102-1.125-.058-1.594-.484-.461-.43-.703-.938-.734-1.532-.075-1.851-.32-3.851-.735-6zm8.906-.734c-.18-.52-.148-1.02.094-1.5.238-.476.633-.773 1.188-.89a2.485 2.485 0 0 1 1.703.171c.539.262.922.668 1.14 1.22a45.39 45.39 0 0 1 1.672 5.062c.188.593.114 1.164-.218 1.703-.336.543-.797.886-1.391 1.031a2.1 2.1 0 0 1-1.656-.25 2.136 2.136 0 0 1-.97-1.36 60.453 60.453 0 0 0-1.562-5.187zm15.985-15.922c.031-.289-.078-.437-.328-.437h-18.485a.917.917 0 0 0-.734.328 62.047 62.047 0 0 1-4.61 5.125.261.261 0 0 0-.03.219c.019.074.081.109.187.109h22.5c.289 0 .472-.145.547-.438.332-1.562.648-3.195.953-4.906zm-4.516-10.172c.04-.257-.07-.39-.328-.39h-7.297a.71.71 0 0 0-.656.39c-.75 1.407-1.719 3.016-2.906 4.828-.075.086-.086.165-.032.235.063.074.13.11.204.11h9.515c.301 0 .488-.13.563-.391.332-1.489.644-3.082.937-4.782zm8.406 15.078c-.074.293.02.438.282.438h2.172c.894 0 1.64.32 2.234.953.55.594.828 1.262.828 2v.281c-.48 5.23-1 9.121-1.562 11.672-.555 2.54-1.243 4.235-2.063 5.078-1 1.04-2.32 1.618-3.953 1.735-.774.07-1.867.11-3.281.11h-1.11c-.71 0-1.324-.247-1.843-.735a3.688 3.688 0 0 1-1.047-1.766 1.638 1.638 0 0 1 .25-1.453c.312-.45.726-.648 1.25-.61 1 .032 2.148.047 3.453.047.851 0 1.52-.203 2-.609 1.07-1 1.945-4.91 2.625-11.734.031-.258-.086-.39-.344-.39h-33c-.262 0-.508.073-.734.218a55.71 55.71 0 0 1-6.391 4.281c-.418.23-.844.344-1.281.344-.23 0-.477-.04-.735-.125-.699-.176-1.234-.602-1.609-1.281a2.302 2.302 0 0 1-.39-1.266c0-.188.019-.395.062-.625a2.35 2.35 0 0 1 1.156-1.5c8.207-4.633 15-11.367 20.375-20.203.04-.07.031-.145-.031-.219-.055-.07-.117-.11-.188-.11H475.98c-.68 0-1.25-.226-1.72-.687a2.295 2.295 0 0 1-.687-1.672c0-.656.227-1.21.688-1.672a2.334 2.334 0 0 1 1.719-.703h7.672a.269.269 0 0 0 .25-.14c.062-.094.07-.176.03-.25-.593-1.563-1.448-3.344-2.562-5.344-.336-.563-.402-1.14-.203-1.734.207-.594.61-1 1.203-1.22.375-.144.75-.218 1.125-.218.29 0 .586.04.89.11.665.218 1.18.624 1.548 1.218a31.56 31.56 0 0 1 2.125 3.672c.176.375.265.766.265 1.172 0 .336-.074.668-.218 1-.293.75-.813 1.273-1.563 1.562-.031.043-.043.086-.031.125l.031.047h8.469c.289 0 .492-.129.61-.39a62.367 62.367 0 0 0 2.89-6.844 2.869 2.869 0 0 1 1.453-1.672 2.708 2.708 0 0 1 1.344-.344c.25 0 .504.043.765.125.707.22 1.227.641 1.563 1.266.187.375.281.75.281 1.125 0 .293-.058.605-.172.937a89.5 89.5 0 0 1-2.281 5.407c-.031.117-.023.21.031.281.051.074.133.11.25.11h7.688c.851 0 1.554.335 2.11 1 .405.48.609 1.038.609 1.671 0 .188-.016.371-.047.547-.524 2.938-.97 5.168-1.344 6.688-.074.261.039.39.344.39h2.78c.852 0 1.556.336 2.11 1 .446.524.672 1.094.672 1.719 0 .187-.023.375-.062.562a148.423 148.423 0 0 1-1.282 6.625zm-5.5 12.079c.145.304.22.578.22.828 0 .261-.06.523-.173.781-.218.562-.61.953-1.172 1.172-.261.074-.523.11-.78.11-.25 0-.509-.052-.766-.157-.524-.227-.899-.617-1.125-1.172a42.81 42.81 0 0 0-2.047-4.125 1.303 1.303 0 0 1-.235-.781c0-.188.035-.367.11-.547.156-.445.472-.742.953-.89.258-.114.535-.173.828-.173.258 0 .52.04.781.11a2.31 2.31 0 0 1 1.281 1 29.643 29.643 0 0 1 2.125 3.844zm0 0"/><path d="M538.541 592.06a3.007 3.007 0 0 1 1.39-1.5 2.887 2.887 0 0 1 1.22-.282c.257 0 .539.04.843.11a2.327 2.327 0 0 1 1.438 1.28c.156.337.234.669.234 1 0 .294-.058.59-.172.891a97.511 97.511 0 0 1-4.453 9.188 1.57 1.57 0 0 0-.219.781v35.625c0 .664-.257 1.25-.765 1.75-.5.5-1.094.75-1.781.75-.68 0-1.262-.25-1.75-.75-.48-.5-.72-1.086-.72-1.75v-27.781c0-.04-.038-.067-.109-.078-.074-.02-.132-.016-.171.015a42.203 42.203 0 0 1-2.61 3.344c-.406.48-.89.719-1.453.719a1.11 1.11 0 0 1-.328-.047c-.711-.07-1.242-.43-1.594-1.078a4.232 4.232 0 0 1-.531-2.047c0-.176.02-.344.062-.5.07-.883.407-1.66 1-2.328 4.196-4.82 7.688-10.594 10.47-17.313zm10.688 24.546a3.061 3.061 0 0 1 1.218-1.672c.489-.3.989-.453 1.5-.453.157 0 .32.024.5.063a2.598 2.598 0 0 1 1.672 1.11c.258.405.39.835.39 1.28 0 .188-.038.414-.108.672-1.524 5.563-3.485 10.371-5.891 14.422-.375.594-.934.965-1.672 1.11h-.5c-.562 0-1.07-.149-1.516-.454-.593-.332-.964-.847-1.109-1.547a3.416 3.416 0 0 1-.047-.562c0-.477.13-.941.39-1.39 2.145-3.376 3.868-7.567 5.173-12.579zm24.437-11.297c.031-.3-.101-.453-.39-.453h-8.47c-.26 0-.39.153-.39.453v30.22c0 1.417-.18 2.519-.531 3.312-.344.8-.93 1.421-1.75 1.859-1.117.562-2.805.898-5.063 1.016h-.171c-.743 0-1.407-.246-2-.735-.625-.48-1.09-1.125-1.391-1.937a2.176 2.176 0 0 1-.11-.672c0-.375.11-.73.329-1.063.332-.55.816-.828 1.453-.828h2.953c.363 0 .617-.062.766-.187.156-.133.234-.39.234-.766V605.31c0-.3-.133-.453-.39-.453H551.9c-.305 0-.508.133-.61.39-1.23 2.563-2.476 4.794-3.734 6.688-.375.625-.934.977-1.672 1.047h-.328a2.5 2.5 0 0 1-1.672-.61c-.563-.444-.899-1.038-1-1.78a1.519 1.519 0 0 1-.063-.438c0-.594.164-1.133.5-1.625 2.895-4.156 5.27-9.57 7.125-16.25.188-.738.598-1.297 1.235-1.672.476-.289.957-.437 1.437-.437.227 0 .43.015.61.047.75.148 1.304.539 1.672 1.171a2.33 2.33 0 0 1 .281 2 92.597 92.597 0 0 1-2.063 6.188.32.32 0 0 0 .032.281c.05.074.132.11.25.11H575.104a3.421 3.421 0 0 1 1.515 0l1.11.218c.52.118.925.375 1.218.782.227.336.344.683.344 1.046 0 .157-.023.29-.062.391a356.178 356.178 0 0 1-1.672 8.469 2.494 2.494 0 0 1-1 1.453c-.406.25-.836.375-1.281.375-.149 0-.293-.016-.438-.047a2.287 2.287 0 0 1-1.516-.953 2.4 2.4 0 0 1-.39-1.328v-.39a88.45 88.45 0 0 0 .734-4.673zm-5.015 12.016a2.02 2.02 0 0 1-.22-.938c0-.257.071-.539.22-.843.257-.625.687-1.032 1.28-1.219.333-.113.65-.172.954-.172.363 0 .734.074 1.11.219.663.305 1.148.765 1.452 1.39 2.22 4.68 3.907 9.297 5.063 13.86.031.23.047.476.047.734 0 .48-.133.946-.39 1.39-.368.669-.923 1.134-1.673 1.391a1.79 1.79 0 0 1-.765.172c-.375 0-.75-.113-1.125-.343-.594-.332-.98-.852-1.157-1.563-1.043-4.594-2.64-9.285-4.796-14.078zm0 0"/></g><g fill="#4DD171"><path d="M291.001 676.012c.375.45.563.97.563 1.563v.328a2.419 2.419 0 0 1-1.063 1.672c-.45.293-.933.437-1.453.437-.187 0-.355-.015-.5-.046a2.684 2.684 0 0 1-1.719-1c-1.156-1.414-2.57-2.993-4.234-4.735-.45-.406-.649-.914-.594-1.531a1.828 1.828 0 0 1 .875-1.422c.52-.332 1.078-.5 1.672-.5h.281c.696.031 1.29.293 1.782.781a100.645 100.645 0 0 1 4.39 4.453zm-28.781 17.704c.187-.07.39-.11.61-.11.374 0 .75.125 1.124.375.551.344.864.852.938 1.516v.39c0 .512-.149 1.012-.438 1.5-.375.594-.918 1-1.625 1.22a282.035 282.035 0 0 1-4.343 1.28c-.25.075-.375.243-.375.5v14.532c0 1.406-.172 2.468-.516 3.187-.336.727-.906 1.281-1.719 1.656-1.074.551-2.93.868-5.562.954h-.11c-.668 0-1.281-.227-1.843-.672a3.902 3.902 0 0 1-1.22-1.735c-.187-.554-.116-1.078.22-1.578.332-.5.796-.75 1.39-.75.969.031 1.988.047 3.063.047.406-.031.68-.129.828-.297.156-.164.234-.457.234-.875v-13.015a.28.28 0 0 0-.125-.25c-.074-.063-.164-.07-.265-.032l-3.954 1.063c-.23.074-.476.11-.734.11-.437 0-.86-.13-1.266-.391-.636-.332-1.046-.852-1.234-1.563-.074-.258-.11-.5-.11-.719 0-.445.11-.875.329-1.28.375-.595.914-.985 1.625-1.173 2.187-.52 3.969-.96 5.344-1.328.257-.082.39-.254.39-.516v-10.406c0-.258-.133-.39-.39-.39h-4.735a2.388 2.388 0 0 1-1.734-.72 2.373 2.373 0 0 1-.719-1.75c0-.687.238-1.257.719-1.718a2.42 2.42 0 0 1 1.734-.703h4.735c.257 0 .39-.148.39-.453v-8.125c0-.695.254-1.297.766-1.797.52-.508 1.133-.766 1.844-.766.707 0 1.32.258 1.843.766.52.5.782 1.102.782 1.797v8.125c0 .305.125.453.375.453h3.687c.695 0 1.273.234 1.734.703.47.461.704 1.031.704 1.719 0 .687-.235 1.273-.704 1.75-.46.48-1.039.719-1.734.719h-3.687c-.25 0-.375.132-.375.39v9.016c0 .117.035.21.109.281.07.074.16.094.266.063.257-.07.828-.227 1.703-.47.875-.25 1.55-.425 2.03-.53zm26-1.672c.289-.633.77-1.047 1.437-1.235a4.63 4.63 0 0 1 .625-.047c.407 0 .79.11 1.157.329a2.603 2.603 0 0 1 1.234 1.625c.07.25.11.507.11.765 0 .418-.094.828-.282 1.235-2.187 4.261-5.086 8.359-8.687 12.296-.18.188-.215.415-.11.672 1.895 4.274 4.16 6.575 6.797 6.907h.11c.55 0 1.015-.504 1.39-1.516.406-1.031.738-2.625 1-4.781.07-.551.36-.93.86-1.14.507-.208 1.003-.161 1.484.14a4.516 4.516 0 0 1 1.61 1.718c.257.524.39 1.063.39 1.625 0 .22-.04.422-.11.61-.667 3.637-1.558 6.176-2.671 7.625-1 1.332-2.153 2-3.453 2h-.391c-4.68-.45-8.422-3.477-11.234-9.078-.157-.219-.329-.235-.516-.047-2.856 2.45-5.805 4.508-8.844 6.172-.523.3-1.078.453-1.672.453-.261 0-.5-.024-.718-.063a4.375 4.375 0 0 1-2.235-1.218c-.406-.407-.61-.868-.61-1.391v-.281c.114-.664.47-1.149 1.063-1.453 3.895-1.883 7.551-4.391 10.969-7.516.219-.176.27-.414.156-.719-1.293-4.27-2.386-9.797-3.281-16.578-.031-.3-.18-.43-.437-.39l-5.079.5h-.265a2.356 2.356 0 0 1-1.563-.563c-.562-.445-.883-1.02-.953-1.719v-.281c0-.594.188-1.113.563-1.563a2.53 2.53 0 0 1 1.718-.953l5.079-.437c.289-.04.421-.192.39-.453-.492-5.938-.734-9.813-.734-11.625 0-.664.222-1.242.672-1.735a2.606 2.606 0 0 1 1.89-.765 2.69 2.69 0 0 1 1.922.781c.54.512.828 1.14.86 1.89.144 4.262.367 7.876.671 10.844.04.305.207.434.5.391l14.25-1.438a.925.925 0 0 1 .282-.062c.593 0 1.129.203 1.609.61.52.449.816 1.007.89 1.671v.281c0 .594-.183 1.118-.546 1.563-.45.555-1.008.867-1.672.937l-14.313 1.454c-.293.03-.421.199-.39.5.633 4.824 1.453 9.074 2.453 12.75 0 .074.047.12.14.14.094.012.157-.02.188-.094 2.602-3.156 4.703-6.269 6.297-9.343zm0 0"/><path d="M344.939 700.278c0-.738.265-1.379.797-1.922a2.667 2.667 0 0 1 1.953-.812 2.58 2.58 0 0 1 1.922.812 2.69 2.69 0 0 1 .78 1.922v18.094c0 .738-.261 1.375-.78 1.906a2.58 2.58 0 0 1-1.922.813 2.667 2.667 0 0 1-1.953-.813 2.603 2.603 0 0 1-.797-1.906v-.281c0-.262-.133-.391-.391-.391h-32.89c-.262 0-.391.129-.391.39v.454c0 .738-.262 1.367-.781 1.89a2.603 2.603 0 0 1-1.907.782 2.574 2.574 0 0 1-1.89-.782 2.603 2.603 0 0 1-.766-1.89v-18.328c0-.739.254-1.368.766-1.891a2.574 2.574 0 0 1 1.89-.781c.75 0 1.383.261 1.907.781.519.523.78 1.152.78 1.89v11.922c0 .262.13.391.391.391h12.907c.3 0 .453-.129.453-.39v-17.594c0-.29-.153-.438-.453-.438h-13.188c-.93 0-1.71-.316-2.344-.953-.625-.633-.937-1.414-.937-2.344v-13.906c0-.738.25-1.367.75-1.89.5-.52 1.117-.782 1.86-.782.738 0 1.366.262 1.89.781.52.524.781 1.153.781 1.891v11.688c0 .261.129.39.39.39h10.798c.3 0 .453-.129.453-.39v-16.594c0-.738.254-1.375.765-1.906.52-.54 1.16-.813 1.922-.813a2.58 2.58 0 0 1 1.922.813c.52.53.781 1.168.781 1.906v16.594c0 .261.149.39.454.39h11.343c.258 0 .39-.129.39-.39V676.95c0-.77.274-1.426.829-1.969.563-.539 1.223-.812 1.984-.812.758 0 1.41.273 1.954.812.539.543.812 1.2.812 1.969v13.86c0 .929-.32 1.71-.953 2.343-.625.637-1.406.953-2.344.953h-14.015c-.305 0-.454.149-.454.438v17.593c0 .262.149.391.454.391h13.687c.258 0 .39-.129.39-.39zm0 0"/><path d="M383.626 671.56a2.645 2.645 0 0 1 1.453-1.235c.29-.102.567-.156.828-.156.375 0 .727.074 1.063.218.55.262.91.7 1.078 1.313.164.605.066 1.152-.297 1.64a143.203 143.203 0 0 1-2.562 3.344 2.288 2.288 0 0 1-1.375.797 2.476 2.476 0 0 1-1.578-.25c-.45-.219-.731-.578-.844-1.078-.106-.5-.028-.957.234-1.375a92.362 92.362 0 0 0 2-3.219zm-13.86 2.827c.29.563.333 1.133.126 1.704-.2.574-.574.992-1.125 1.25-.563.261-1.125.293-1.688.093-.554-.207-.976-.586-1.265-1.14a40.886 40.886 0 0 0-1.844-3.172c-.262-.445-.32-.93-.172-1.453.156-.52.473-.875.953-1.063a3.401 3.401 0 0 1 1-.156c.258 0 .52.016.781.047a2.507 2.507 0 0 1 1.391 1.062c.707.961 1.32 1.903 1.844 2.828zm7.75 19a2.32 2.32 0 0 1-1.655.657 2.362 2.362 0 0 1-1.672-.657c-.461-.445-.688-1.007-.688-1.687v-5.953c0-.07-.043-.113-.125-.125-.074-.02-.125-.016-.156.015-2.938 2.938-6.152 5.372-9.64 7.297-.407.188-.794.282-1.157.282-.23 0-.453-.02-.672-.063-.594-.187-1.117-.539-1.562-1.062-.368-.407-.496-.868-.391-1.391.113-.52.41-.89.89-1.11a38.188 38.188 0 0 0 9.798-6.671c.039-.082.05-.149.03-.203-.023-.051-.085-.079-.187-.079h-8.406a1.984 1.984 0 0 1-1.453-.609c-.406-.414-.61-.898-.61-1.453 0-.563.204-1.035.61-1.422a2.05 2.05 0 0 1 1.453-.578h11.188c.257 0 .39-.148.39-.453v-6.672c0-.633.227-1.18.688-1.64.468-.47 1.023-.704 1.672-.704.644 0 1.195.235 1.656.703.469.461.703 1.008.703 1.641v6.672c0 .305.148.453.453.453h9.906c.551 0 1.02.195 1.407.578.394.387.593.86.593 1.422 0 .555-.199 1.039-.593 1.453a1.87 1.87 0 0 1-1.407.61h-9.86c-.073 0-.108.023-.108.062 0 .031.019.062.062.094 2.707 1.156 5.805 2.605 9.297 4.343.55.262.922.711 1.11 1.344a2.095 2.095 0 0 1-.172 1.719c-.337.562-.797.918-1.391 1.062-.594.149-1.153.04-1.672-.328-1.781-1.113-4.195-2.523-7.234-4.234a.35.35 0 0 0-.282 0c-.074.031-.11.105-.11.219v4.781c0 .68-.233 1.242-.702 1.687zm-6.14 8.454c.04-.114.031-.207-.031-.282-.055-.07-.137-.109-.25-.109h-3.953c-.293 0-.496.11-.61.328a60.74 60.74 0 0 1-1.218 2.234c-.149.262-.11.465.109.61 1.52.93 2.727 1.726 3.625 2.39.176.188.344.153.5-.109.695-1.488 1.305-3.176 1.828-5.062zm1.563-4.063c.445-.113.89-.113 1.328 0l.625.219c.363.074.644.277.844.61.207.335.273.687.203 1.062-1.813 9.386-5.762 16.215-11.844 20.484-.524.332-1.063.422-1.625.266-.555-.149-1.016-.477-1.39-.985-.294-.449-.4-.953-.313-1.515.094-.555.383-.98.875-1.282 2.039-1.363 3.86-3.195 5.453-5.5.187-.226.164-.43-.063-.609a44.578 44.578 0 0 0-3.78-2.844c-.15-.113-.294-.078-.438.11a1.212 1.212 0 0 0-.235.281c-.367.45-.828.695-1.39.734-.555.032-1.055-.14-1.5-.515a1.942 1.942 0 0 1-.672-1.5c0-.477.148-.907.453-1.282 2.375-2.851 4.285-6.398 5.734-10.64a2.24 2.24 0 0 1 1-1.188 2.017 2.017 0 0 1 1.5-.25c.52.149.91.446 1.172.891.258.45.317.93.172 1.437a28.523 28.523 0 0 1-.562 1.625c-.043.106-.04.2.015.282.063.074.129.11.203.11H372.94zm15.359 4.281c-.219 0-.328.094-.328.282v6.28c0 .263.129.391.39.391h.829c.562 0 1.047.2 1.453.594.406.387.61.871.61 1.453 0 .575-.204 1.055-.61 1.438-.406.387-.89.578-1.453.578h-.828c-.262 0-.391.133-.391.39v5.579c0 .593-.211 1.093-.625 1.5-.406.406-.899.61-1.469.61a2.102 2.102 0 0 1-1.5-.61 1.98 1.98 0 0 1-.64-1.5v-5.516c0-.3-.133-.453-.391-.453h-4.11c-.23 0-.343.117-.343.344-.031.187-.07.39-.11.61a1.837 1.837 0 0 1-.718 1.25 2.013 2.013 0 0 1-1.391.421 1.977 1.977 0 0 1-1.234-.672c-.262-.332-.391-.687-.391-1.062 0-.102.02-.192.063-.266.406-2.707.718-5.363.937-7.969.082-.52.316-.953.703-1.297.383-.351.86-.515 1.422-.484.52 0 .945.21 1.281.625.332.406.461.867.39 1.375-.116 1.043-.21 1.918-.28 2.625-.043.293.066.437.328.437h3.453c.258 0 .39-.144.39-.437v-6.125c0-.258-.132-.39-.39-.39h-4.734a1.955 1.955 0 0 1-1.422-.579 1.955 1.955 0 0 1-.578-1.422c0-.562.19-1.035.578-1.422a1.97 1.97 0 0 1 1.422-.578h4.734c.258 0 .39-.129.39-.39v-2.235c0-.593.211-1.093.641-1.5.426-.406.926-.609 1.5-.609.57 0 1.063.203 1.469.61.414.406.625.906.625 1.5v2.28c0 .231.11.344.328.344h.5c.52 0 .973.196 1.36.578.394.387.593.86.593 1.422 0 .555-.2 1.028-.594 1.422-.386.387-.84.578-1.359.578zm18.656-30.343c.145-.07.29-.11.438-.11.3 0 .597.094.89.281l1.172.72c.551.343.922.792 1.11 1.343.113.293.172.59.172.89 0 .294-.06.59-.172.891-2.188 5.98-4.078 10.84-5.672 14.578-.117.262-.078.508.11.735 3.632 4.156 5.452 8.554 5.452 13.187v.328c0 3.637-.89 6.09-2.672 7.36-.968.668-2.156 1.093-3.562 1.281-.524.031-1.152.07-1.89.11h-.11c-.668 0-1.262-.243-1.781-.735a3.342 3.342 0 0 1-1.11-1.828c-.117-.594-.015-1.129.297-1.61.313-.488.766-.734 1.36-.734.257.043.632.063 1.125.063.882-.07 1.585-.297 2.109-.672.894-.52 1.344-1.895 1.344-4.125 0-3.301-1.23-6.582-3.688-9.844-.844-1.156-1.265-2.363-1.265-3.625 0-.625.109-1.27.328-1.938 1-2.718 2.28-6.503 3.843-11.359.032-.07.02-.156-.03-.25a.269.269 0 0 0-.25-.14h-6.688c-.293 0-.438.148-.438.437v41.703c0 .664-.246 1.25-.734 1.75-.48.5-1.074.75-1.781.75-.7 0-1.293-.25-1.782-.75-.48-.5-.718-1.086-.718-1.75v-43.64c0-.895.32-1.665.968-2.313.657-.656 1.426-.984 2.313-.984H406.954zm0 0"/><path d="M452.314 690.481c0-.258-.133-.39-.391-.39h-9.578c-.262 0-.406.132-.438.39-.636 7.867-2.656 14.121-6.062 18.766-.45.512-.992.765-1.625.765h-.047a2.751 2.751 0 0 1-1.844-.796 2.814 2.814 0 0 1-.89-1.813v-.328c0-.563.164-1.082.5-1.563 2.007-2.78 3.347-5.832 4.015-9.156.664-3.32 1-6.91 1-10.765v-9.75c0-.813.332-1.5 1-2.063.477-.406 1.016-.61 1.61-.61.187 0 .39.024.609.063l.625.11c.29.074.566.09.828.046 6.457-1 11.82-2.128 16.094-3.39a5.686 5.686 0 0 1 1.719-.281c1.226 0 2.343.449 3.343 1.343.407.336.61.743.61 1.22 0 .148-.024.276-.063.39-.148.668-.531 1.093-1.156 1.281-5.125 1.48-11.695 2.762-19.703 3.844-.262.031-.39.18-.39.437v6.469c0 .293.144.437.437.437h22.656c.707 0 1.3.247 1.781.735.477.48.719 1.062.719 1.75a2.42 2.42 0 0 1-.719 1.75c-.48.48-1.074.719-1.781.719h-7.234c-.262 0-.391.132-.391.39v19.375c0 .7-.262 1.305-.781 1.813-.524.5-1.137.75-1.844.75-.7 0-1.309-.25-1.828-.75-.524-.508-.781-1.114-.781-1.813zm-23.547-13.64c.445.492.672 1.046.672 1.671 0 .856-.336 1.56-1 2.11-.493.418-1.032.625-1.625.625h-.328c-.743-.113-1.352-.43-1.829-.953-1.636-1.852-3.57-3.649-5.796-5.39-.524-.415-.793-.938-.813-1.563-.012-.633.238-1.157.75-1.563.563-.476 1.234-.719 2.016-.719h.109c.707 0 1.336.203 1.89.61 2.415 1.812 4.4 3.539 5.954 5.172zm-3.063 14.14c.895 0 1.664.328 2.313.985.644.648.969 1.414.969 2.296v14.313c0 .293.078.555.234.781 2.445 3.524 6.844 5.399 13.187 5.625 2.52.106 5.192.156 8.016.156 4.676 0 9.758-.128 15.25-.39h.11c.593 0 1.078.246 1.453.734.218.367.328.735.328 1.11 0 .218-.04.441-.11.671a4.187 4.187 0 0 1-1.375 2.016c-.648.54-1.375.813-2.187.813-4.305.156-8.258.234-11.86.234-3.562 0-6.793-.078-9.687-.234-3.563-.106-6.59-.653-9.078-1.641-2.48-.98-4.61-2.508-6.39-4.594-.188-.187-.376-.187-.563 0a451.937 451.937 0 0 1-5.735 4.844 2.24 2.24 0 0 1-1.5.562c-.187 0-.37-.023-.547-.062-.75-.18-1.308-.605-1.671-1.281a3.634 3.634 0 0 1-.344-1.5c0-.332.039-.645.125-.938.219-.82.695-1.492 1.437-2.015a86.677 86.677 0 0 0 5.407-3.891.971.971 0 0 0 .28-.719v-12.531c0-.29-.132-.438-.39-.438h-4.453a2.35 2.35 0 0 1-1.734-.718 2.388 2.388 0 0 1-.72-1.735c0-.664.24-1.238.72-1.718a2.335 2.335 0 0 1 1.734-.735zm0 0"/><path d="M485.767 717.419c-4.492 0-8.387-1.282-11.688-3.844-.593-.438-.93-1.047-1-1.828a.536.536 0 0 1-.062-.281c0-.625.207-1.196.625-1.72.406-.562.957-.878 1.656-.952h.281c.594 0 1.133.187 1.625.562 2.375 1.813 4.969 2.719 7.782 2.719 2.414 0 4.41-.805 5.984-2.422 1.582-1.613 2.375-3.789 2.375-6.531 0-2.75-.727-4.895-2.172-6.438-1.45-1.539-3.398-2.312-5.844-2.312-1.75 0-3.445.465-5.078 1.39-.555.305-1.09.454-1.61.454-.554 0-1.09-.164-1.609-.5-1.074-.707-1.574-1.707-1.5-3l.938-14.704a3.22 3.22 0 0 1 1.094-2.328c.687-.632 1.492-.953 2.422-.953h15.187c.738 0 1.383.274 1.938.813a2.6 2.6 0 0 1 .843 1.968c0 .782-.281 1.446-.843 1.985-.555.531-1.2.797-1.938.797h-12.406c-.262 0-.414.133-.453.39l-.891 9.97c0 .073.035.14.11.202.081.055.16.059.234.016 1.781-.852 3.578-1.281 5.39-1.281 3.75 0 6.813 1.125 9.188 3.375 2.375 2.242 3.562 5.546 3.562 9.921 0 3.012-.668 5.641-2 7.891-1.336 2.242-3.062 3.906-5.187 5-2.117 1.094-4.434 1.64-6.953 1.64zm0 0"/><path d="M524.125 675.56c0-.258-.152-.391-.453-.391h-9.906c-.293 0-.438.133-.438.39v3.125c0 .262.145.391.438.391h9.906c.3 0 .453-.129.453-.39zm-10.797 11.077c0 .305.145.454.438.454h9.906c.3 0 .453-.149.453-.454v-3.39c0-.258-.152-.39-.453-.39h-9.906c-.293 0-.438.132-.438.39zm15.797 1.063c0 .93-.324 1.71-.969 2.344a3.216 3.216 0 0 1-2.312.937h-12.078c-.293 0-.438.153-.438.453v27.157c0 .707-.258 1.32-.765 1.843-.5.52-1.11.782-1.828.782-.72 0-1.34-.262-1.86-.782-.523-.523-.781-1.136-.781-1.843V674.45c0-.926.32-1.703.969-2.328.644-.633 1.414-.953 2.312-.953h14.469c.894 0 1.664.32 2.312.953.645.625.97 1.402.97 2.328zm9.578-.953c0 .305.149.453.453.453h10.235c.3 0 .453-.148.453-.453v-3.5c0-.258-.152-.39-.453-.39h-10.235c-.304 0-.453.132-.453.39zm11.14-11.188c0-.257-.151-.39-.452-.39h-10.235c-.304 0-.453.133-.453.39v3.125c0 .262.149.391.453.391h10.235c.3 0 .453-.129.453-.39zm-24.28 36.016c0 .262.129.39.39.39h10.75c.258 0 .39-.128.39-.39v-3.89c0-.301-.132-.454-.39-.454h-10.75c-.261 0-.39.153-.39.453zm11.53-12.25c0-.25-.132-.375-.39-.375h-10.75c-.261 0-.39.125-.39.375v3.625c0 .262.129.39.39.39h10.75c.258 0 .39-.128.39-.39zm14.798-28.156c.894 0 1.664.32 2.312.953.657.625.985 1.402.985 2.328v40.14c0 1.555-.2 2.77-.594 3.657-.387.894-1.078 1.547-2.078 1.953-1.262.562-3.469.86-6.625.89h-.11a4.006 4.006 0 0 1-2.453-.828 5.032 5.032 0 0 1-1.61-2.28 12.596 12.596 0 0 0-.624-1.61c-.106-.258-.309-.39-.61-.39h-14.64c-.188 0-.281.09-.281.265v.125c0 .664-.243 1.238-.72 1.719a2.362 2.362 0 0 1-1.718.718c-.668 0-1.246-.242-1.734-.718a2.347 2.347 0 0 1-.719-1.72v-18.155c0-.926.32-1.704.969-2.329.656-.632 1.426-.953 2.312-.953h14.813c.926 0 1.703.32 2.328.953.633.625.953 1.403.953 2.329v17.14c0 .305.145.453.438.453.78.043 2.785.063 6.015.063.52-.04.875-.156 1.063-.344.187-.187.28-.52.28-1v-22.984c0-.301-.151-.453-.452-.453h-12.469c-.93 0-1.71-.313-2.344-.938-.625-.633-.937-1.414-.937-2.344V674.45c0-.926.312-1.703.937-2.328.633-.633 1.414-.953 2.344-.953zm0 0"/><path d="M591.469 703.34c-.293 0-.438.149-.438.438v9.14c0 .262.13.407.391.438 2.563.492 5.734.735 9.516.735 1.3.03 2.82.046 4.562.046 1.895 0 4.067-.015 6.516-.046.633 0 1.117.257 1.453.765.219.305.328.64.328 1.016 0 .219-.059.437-.172.656a3.978 3.978 0 0 1-1.36 1.922c-.648.5-1.359.75-2.14.75h-9.406c-6.5 0-11.883-.797-16.14-2.39-4.2-1.563-7.634-4.423-10.298-8.579-.043-.07-.109-.097-.203-.078-.093.024-.156.07-.187.14-1.606 4.157-3.649 7.481-6.125 9.97-.492.476-1.07.718-1.735.718h-.156c-.71-.031-1.34-.308-1.89-.828-.524-.45-.782-1.027-.782-1.734 0-.625.219-1.16.657-1.61 4.007-4.125 6.628-10.32 7.859-18.593.101-.739.453-1.352 1.047-1.844.52-.363 1.078-.547 1.672-.547h.343c.77.074 1.38.422 1.829 1.047.375.45.562.953.562 1.515 0 .149-.023.313-.062.5a68.242 68.242 0 0 1-1 4.5c-.075.262-.055.524.062.782 2.07 4.386 5.094 7.508 9.063 9.36.113.03.207.023.28-.032.071-.05.11-.133.11-.25V690.98c0-.289-.133-.437-.39-.437h-19.141a2.388 2.388 0 0 1-1.734-.719 2.426 2.426 0 0 1-.72-1.766c0-.687.24-1.27.72-1.75.488-.476 1.066-.718 1.734-.718h19.031c.3 0 .453-.13.453-.391v-6.016c0-.257-.152-.39-.453-.39h-14.078a2.388 2.388 0 0 1-1.734-.719 2.388 2.388 0 0 1-.72-1.734c0-.664.24-1.239.72-1.72.488-.487 1.066-.734 1.734-.734h14.078c.3 0 .453-.128.453-.39v-3.11c0-.78.258-1.43.782-1.953.52-.52 1.16-.78 1.921-.78.758 0 1.395.26 1.907.78.52.524.78 1.172.78 1.953v3.11c0 .262.13.39.392.39h15.25c.675 0 1.253.247 1.734.735.476.48.719 1.055.719 1.719 0 .668-.243 1.246-.72 1.734-.48.48-1.058.719-1.733.719h-15.25c-.262 0-.391.133-.391.39v6.016c0 .262.129.39.39.39h19.376c.707 0 1.3.243 1.78.72.477.48.72 1.062.72 1.75 0 .687-.243 1.277-.72 1.765-.48.48-1.073.719-1.78.719h-19.266c-.293 0-.438.148-.438.437v7.125c0 .305.145.453.438.453h15.64c.676 0 1.243.235 1.704.703.468.461.703 1.024.703 1.688 0 .668-.235 1.234-.703 1.703-.461.461-1.028.688-1.703.688zm0 0"/><path d="M630.719 689.2c.289 0 .437-.129.437-.39v-7.735c0-.258-.148-.39-.437-.39h-8.734c-.594 0-1.106-.212-1.532-.641a2.078 2.078 0 0 1-.64-1.532c0-.593.21-1.101.64-1.53.426-.427.938-.641 1.532-.641h3.828a.344.344 0 0 0 .28-.141c.071-.094.095-.176.063-.25-.336-1.113-.836-2.336-1.5-3.672a1.651 1.651 0 0 1-.093-1.469c.207-.5.57-.843 1.093-1.03.29-.071.567-.11.829-.11.332 0 .648.054.953.156.593.23 1.035.621 1.328 1.172.3.562.582 1.121.844 1.672.144.336.218.668.218 1 0 .375-.093.746-.281 1.11a2.7 2.7 0 0 1-1.61 1.452c-.042 0-.062.024-.062.063 0 .031.02.047.063.047h11.359c.031 0 .047-.016.047-.047v-.063c-.781-.187-1.34-.648-1.672-1.39a2.982 2.982 0 0 1-.219-1.11c0-.375.094-.75.282-1.125.187-.437.39-.898.609-1.39.3-.625.75-1.102 1.344-1.438a2.57 2.57 0 0 1 1.265-.344c.227 0 .438.043.625.125.594.106 1.02.438 1.282 1 .257.555.257 1.11 0 1.672a238.924 238.924 0 0 1-2.172 3.781.231.231 0 0 0-.016.22c.04.073.098.109.172.109h4.297c.594 0 1.101.214 1.531.64.426.43.64.938.64 1.531 0 .594-.214 1.106-.64 1.532-.43.43-.937.64-1.531.64h-8.86c-.261 0-.39.133-.39.391v7.734c0 .262.129.391.39.391h4.407c.257 0 .39-.129.39-.39v-4c0-.633.211-1.157.64-1.563.427-.406.938-.61 1.532-.61.594 0 1.098.204 1.516.61.426.406.64.93.64 1.562v8.016c0 .594-.214 1.105-.64 1.531-.418.43-.922.64-1.516.64h-.672c-.406 0-.761-.144-1.062-.437a1.49 1.49 0 0 1-.438-1.078c0-.144-.058-.219-.172-.219h-4.734c-.262 0-.406.153-.437.454-.305 2.148-1.086 4.062-2.344 5.75-1.262 1.687-3.266 3.109-6.016 4.265a2.923 2.923 0 0 1-1.11.219c-.304 0-.6-.055-.89-.172-.668-.219-1.242-.625-1.719-1.219-.375-.406-.5-.875-.375-1.406.133-.539.442-.906.922-1.094 2.114-.851 3.68-1.8 4.703-2.843 1.02-1.04 1.68-2.207 1.985-3.5a.347.347 0 0 0-.063-.313.344.344 0 0 0-.281-.14h-4.219c-.187 0-.281.093-.281.28 0 .594-.215 1.094-.64 1.5-.43.407-.922.61-1.485.61h-.047c-.594 0-1.105-.21-1.531-.64a2.078 2.078 0 0 1-.64-1.532v-8.672c0-.632.21-1.156.64-1.562.426-.406.937-.61 1.531-.61.594 0 1.102.204 1.531.61.426.406.641.93.641 1.562v4c0 .262.129.391.39.391zm33.453-13.297c0-.258-.148-.39-.437-.39h-8.86c-.262 0-.39.132-.39.39v3.063c0 .261.128.39.39.39h8.86c.289 0 .437-.129.437-.39zm-9.86 11.188c0 .293.13.437.391.437h9.032c.289 0 .437-.144.437-.437v-3.344c0-.258-.148-.39-.437-.39h-8.86c-.262 0-.39.132-.39.39a73.402 73.402 0 0 1-.172 3.344zm-6.28 27.546c0 .262.144.391.437.391h20.328c.625 0 1.164.234 1.625.703.469.461.703 1.008.703 1.656 0 .657-.234 1.204-.703 1.641-.46.445-1 .672-1.625.672h-46.656c-.625 0-1.172-.227-1.64-.672-.462-.437-.688-.984-.688-1.64 0-.649.226-1.196.687-1.657.469-.469 1.016-.703 1.64-.703h20.048c.289 0 .437-.129.437-.39v-4.5c0-.301-.148-.454-.437-.454h-14.313a2.117 2.117 0 0 1-1.578-.656 2.212 2.212 0 0 1-.64-1.594c0-.613.21-1.14.64-1.578a2.102 2.102 0 0 1 1.578-.672h14.313c.289 0 .437-.129.437-.39 0-.895.313-1.657.938-2.282a3.132 3.132 0 0 1 2.297-.953h.437c.082 0 .129-.035.14-.109.02-.07-.007-.129-.077-.172a.835.835 0 0 0-.282-.172 2.579 2.579 0 0 1-1.047-1.89v-.266c0-.707.22-1.32.657-1.844 1.632-1.894 2.718-3.984 3.25-6.265.539-2.282.812-4.813.812-7.594v-8.797c0-.926.313-1.703.938-2.328.632-.633 1.422-.953 2.359-.953h12.844c.894 0 1.664.32 2.312.953.657.625.985 1.402.985 2.328v22.719c0 1.261-.164 2.246-.485 2.953-.312.7-.875 1.25-1.687 1.656-1.043.492-2.79.774-5.235.844h-.062a2.644 2.644 0 0 1-1.781-.672 3.55 3.55 0 0 1-1.172-1.734c-.18-.551-.102-1.067.234-1.547.332-.489.797-.711 1.39-.672h2.829c.375 0 .625-.063.75-.188.133-.132.203-.367.203-.703v-5.125c0-.289-.148-.437-.437-.437h-9.688c-.305 0-.469.148-.5.437-1.043 4.012-2.902 7.184-5.578 9.516v.062c.039 0 .062.024.062.063v3.172c0 .261.13.39.391.39h14.64c.626 0 1.15.227 1.579.672.426.438.64.965.64 1.578 0 .618-.214 1.149-.64 1.594-.43.438-.953.656-1.578.656h-14.594c-.293 0-.438.153-.438.453zm0 0"/><path d="M699.797 671.278c0-.812.273-1.492.828-2.047a2.767 2.767 0 0 1 2.031-.844c.801 0 1.477.282 2.032.844.562.555.843 1.235.843 2.047v41.64c0 1.743-.246 3.055-.734 3.938-.48.895-1.277 1.567-2.39 2.016-1.594.594-4.391.926-8.391 1h-.063c-.812 0-1.558-.262-2.234-.781a4.607 4.607 0 0 1-1.547-2.063 2.22 2.22 0 0 1-.11-.719c0-.375.087-.726.266-1.062.375-.52.88-.781 1.516-.781H694.563c.664.043 1.242.062 1.734.062.957 0 1.586-.02 1.89-.062.594-.032 1.008-.157 1.25-.375.239-.227.36-.618.36-1.172zm14.922 14.031a2.496 2.496 0 0 1-.281-1.125c0-.25.054-.523.172-.828a2.352 2.352 0 0 1 1.39-1.39 3.142 3.142 0 0 1 1.172-.22c.332 0 .68.075 1.047.22a3.3 3.3 0 0 1 1.734 1.39 115.913 115.913 0 0 1 5.39 10.75c1.49 3.375 2.626 6.399 3.407 9.063.07.336.11.652.11.953 0 .523-.133 1.023-.391 1.5-.406.812-1.024 1.387-1.844 1.719a3.01 3.01 0 0 1-1 .171 2.55 2.55 0 0 1-1.219-.328c-.71-.375-1.156-.953-1.343-1.734-.711-2.633-1.746-5.64-3.11-9.016a123.271 123.271 0 0 0-5.234-11.125zm-30.281-.89a3.142 3.142 0 0 1 1.328-1.953c.52-.332 1.078-.5 1.672-.5H688c.813.148 1.457.574 1.938 1.28.3.481.453.981.453 1.5 0 .22-.04.462-.11.72-2.086 8.398-4.625 14.949-7.625 19.656-.406.668-1.023 1.074-1.843 1.219a3.25 3.25 0 0 1-2.281-.39 2.536 2.536 0 0 1-1.22-1.61 3.468 3.468 0 0 1-.062-.672c0-.477.13-.922.39-1.328 1.49-2.301 2.79-4.993 3.907-8.079a84.351 84.351 0 0 0 2.89-9.843zm0 0"/><path d="M774.938 714.356c.3 0 .453-.129.453-.39v-8.782c0-.257-.153-.39-.453-.39h-21.813c-.305 0-.453.133-.453.39v8.782c0 .261.148.39.453.39zm-13.61-31.578c.54-.539 1.18-.812 1.922-.812.75 0 1.379.273 1.89.812a2.65 2.65 0 0 1 .782 1.922v2.937c0 .305.129.454.39.454h15.704c.664 0 1.219.234 1.656.703.445.46.672 1.015.672 1.672 0 .648-.227 1.203-.672 1.671-.437.461-.992.688-1.656.688h-15.703c-.262 0-.391.133-.391.39v6.5c0 .262.129.391.39.391H777.5c.895 0 1.664.328 2.313.985.644.648.968 1.418.968 2.312v15.016c0 .75-.273 1.39-.812 1.922-.531.539-1.168.812-1.906.812h-.891c-.48 0-.898-.18-1.25-.531a1.782 1.782 0 0 1-.531-1.313c0-.148-.074-.218-.219-.218h-22.266c-.156 0-.234.07-.234.218 0 .52-.187.97-.562 1.344-.368.375-.79.563-1.266.563h-.719c-.75 0-1.375-.258-1.875-.766-.5-.5-.75-1.121-.75-1.86v-15.187c0-.894.32-1.664.969-2.312.656-.657 1.426-.985 2.312-.985h9.36c.258 0 .39-.129.39-.39V684.7c0-.75.266-1.39.797-1.922zm2.594-7.375c0 .293.129.438.39.438h18.313c.707 0 1.313.25 1.813.75s.75 1.105.75 1.812c0 .711-.25 1.313-.75 1.813s-1.106.75-1.813.75H743.61c-.305 0-.454.132-.454.39v8.953c0 12.137-1.523 21.602-4.562 28.391-.293.633-.793 1.047-1.5 1.234a3.416 3.416 0 0 1-.563.047c-.48 0-.921-.148-1.328-.437-.636-.45-1.062-1.028-1.281-1.735a3.61 3.61 0 0 1-.11-.89c0-.407.094-.813.282-1.219 1.52-3.488 2.531-7.363 3.031-11.625.5-4.27.75-8.86.75-13.766v-11.187c0-.926.313-1.703.938-2.328.632-.633 1.414-.953 2.343-.953h16.813c.289 0 .437-.145.437-.438v-3.734c0-.782.27-1.438.813-1.969a2.667 2.667 0 0 1 1.953-.813c.758 0 1.406.274 1.938.813.539.531.812 1.187.812 1.969zm0 0"/></g><path d="M136.23 689.469c5.382 0 9.988-1.914 13.812-5.734 3.82-3.833 5.734-8.442 5.734-13.829 0-5.351-1.914-9.941-5.734-13.765a7.615 7.615 0 0 0-.781-.735c4.343-3.851 6.515-8.703 6.515-14.546 0-5.383-1.914-9.989-5.734-13.813-3.824-3.82-8.43-5.734-13.813-5.734h-9.593c-2.969 0-5.79.652-8.453 1.953a19.527 19.527 0 0 0-6.735 5.344c-.742.98-1.11 2.03-1.11 3.156 0 .187.036.652.11 1.39.082.73.66 1.555 1.735 2.47.945.741 1.968 1.109 3.062 1.109.188 0 .66-.036 1.422-.11.77-.082 1.613-.68 2.531-1.797a9.368 9.368 0 0 1 3.281-2.593c1.27-.614 2.657-.922 4.157-.922h9.593c2.625 0 4.868.933 6.735 2.797 1.875 1.867 2.812 4.117 2.812 6.75 0 2.605-.937 4.851-2.812 6.734-1.867 1.875-4.11 2.812-6.735 2.812h-9.593c-1.375 0-2.555.493-3.532 1.47-.98.98-1.468 2.155-1.468 3.53s.488 2.547 1.468 3.516c.977.961 2.157 1.438 3.532 1.438h9.593c2.625 0 4.868.945 6.735 2.828 1.875 1.886 2.812 4.125 2.812 6.718 0 2.637-.937 4.887-2.812 6.75-1.867 1.868-4.11 2.797-6.735 2.797h-9.593c-3.063 0-5.543-1.176-7.438-3.531-1.074-1.25-2.39-1.875-3.953-1.875-1.094 0-2.117.367-3.062 1.094-1.23 1.074-1.844 2.36-1.844 3.86 0 1.136.367 2.194 1.11 3.171a19.167 19.167 0 0 0 6.734 5.36 19.175 19.175 0 0 0 8.453 1.937zm0 0" fill="#FFF"/></svg>