<svg xmlns="http://www.w3.org/2000/svg" width="1080" viewBox="0 0 810 810" height="1080" version="1"><path fill="#D9F6E1" d="M-81-81h972v972H-81z"/><path fill="#FFF" d="M-81-81h972v972H-81z"/><path fill="#D9F6E1" d="M-81-81h972v972H-81z"/><path fill="#FFF" d="M508.043 539.336v-268.5H181.648v268.5h326.395m-361.23-89.8v56.737c0 17.48 15.593 33.063 34.835 33.063v-268.5c-19.242 0-34.835 15.582-34.835 34.812v110.766c-35.637-1.07-71.008.621-87.668-2.406 28.332 13.09 58.8 22.617 87.667 35.527m396.067 56.738V305.648c0-19.23-15.59-34.812-34.836-34.812v268.5c19.246 0 34.836-15.582 34.836-33.063"/><path d="M190.394 302.682v1.375h-9.625v-1.375h4.297l-.953-2 1.578-.421 1.25 2.421zm-6 4.516l-1.359.375-.844-3.062 1.297-.313c.5 1.094.801 2.094.906 3zm-1.937 6.734l1.344.375a15.549 15.549 0 0 1-2.266 4.375l-1.14-.796c.882-1.082 1.57-2.399 2.062-3.954zm8.031-1.171h-3.984v7.64h-1.61v-7.64h-4.375v-1.407h4.375v-2.312h-4.484v-1.375h6.078l1.188-3.485 1.484.313-1.219 3.172h2.782v1.375h-4.22v2.312h3.985zm-3 1.625l1.125-.594 1.844 3.453-1.156.672zm12.828-6.641v1.547h-2.39v11.078h-1.594v-11.078h-3.016v.765c0 4.7-.761 8.137-2.28 10.313l-1.25-.984c.82-1.176 1.362-2.54 1.624-4.094.258-1.57.39-3.317.39-5.235v-6.359l1.454-1.453c2-.3 3.797-.79 5.39-1.469l1.297 1.203c-1.699.649-3.906 1.18-6.625 1.594v4.172zm18.324 10.125v-3.938h-9.28v3.938zm-4.421-12.5v2.594h7.109v1.5h-7.11v2.953h4.844l1.204 1.203v6.531h-1.625v-.828h-9.282v.875h-1.578v-6.578l1.203-1.203h3.578v-7.047zm.359-2.313h7.438v1.594h-16.204v4.11c0 5.242-.761 9.148-2.28 11.718l-1.438-.922c1.382-2.332 2.078-5.93 2.078-10.796v-4.485l1.203-1.219h7.375l-1.14-2.218 1.562-.39zm26.543 1.032v-1.735h-7.281v1.735zm0 2.906v-1.75h-7.281v1.75zm.36-5.875l1.202 1.219v4.703l-1.203 1.219h-7.922l-1.218-1.22v-4.702l1.218-1.219zm-10.548 10.344l-2.421.812v6.156c0 .82-.25 1.352-.75 1.594-.438.219-1.344.32-2.72.313l-.484-1.532c.625.02 1.313.032 2.063.032.25 0 .375-.14.375-.422v-5.656l-2.547.812-.406-1.578 2.953-.86v-4.812h-2.703v-1.516h2.703v-4.39h1.516v4.39h2.421v1.516h-2.421v4.328l2.218-.687zm7.329 3.656v3.453c.632.086 1.718.125 3.25.125 1.539 0 2.562-.004 3.062-.016l-.484 1.454h-3.828c-1.762 0-3.184-.258-4.266-.766-1.086-.5-1.965-1.469-2.64-2.906-.587 1.636-1.462 2.972-2.626 4.015l-1.218-.984c1.812-1.426 2.898-3.848 3.265-7.266l1.5.188a20.003 20.003 0 0 1-.422 2.328c.563 1.7 1.516 2.836 2.86 3.406v-6.953h-5.36v-1.375h12.563v1.375h-5.656v2.578h4.546v1.344zm15.839 2.969h9.016v-5.407h-9.016zm5.454-14.032h-6.563l-1.562 1.594c1.687 1.188 3.078 2.371 4.171 3.547 1.727-1.582 3.047-3.297 3.954-5.14zm4 7.125l1.218 1.204v8.125h-1.656v-.922h-9.016v.875h-1.609v-6.953a27.615 27.615 0 0 1-5.406 2.468l-.969-1.437c2.957-.863 5.676-2.27 8.156-4.219-1-1.144-2.343-2.348-4.03-3.61a22.038 22.038 0 0 1-2.876 2l-1.14-1.25c1.695-.925 3.175-2.023 4.437-3.296 1.281-1.281 2.266-2.567 2.953-3.86l1.828.375-1.265 1.891 6.515-.078 1.078.562c-1.218 3.075-3.218 5.782-6 8.125zm13.558 2.282a3.387 3.387 0 0 1 .078-1.625c.176-.508.43-.942.766-1.297.344-.352.719-.711 1.125-1.078.426-.364.82-.692 1.187-.985.383-.3.704-.64.954-1.015.257-.383.39-.766.39-1.14 0-.79-.289-1.423-.86-1.892-.573-.488-1.402-.734-2.484-.734-1.492 0-2.875.668-4.156 2l-1.187-1.094c1.601-1.695 3.457-2.547 5.562-2.547 1.563 0 2.797.372 3.703 1.11.926.742 1.39 1.742 1.39 3 0 .605-.187 1.168-.562 1.687a5.716 5.716 0 0 1-1.265 1.391c-.492.387-.977.777-1.453 1.172-1.118.906-1.578 1.922-1.391 3.047zm1.922 5.047c-.262.261-.594.39-1 .39-.398 0-.734-.129-1.016-.39-.261-.282-.39-.633-.39-1.063 0-.426.129-.773.39-1.047a1.38 1.38 0 0 1 1.016-.422c.406 0 .738.141 1 .422.281.274.422.621.422 1.047 0 .43-.14.781-.422 1.063zm23.434-15.36h-2.266c-.5.867-1.055 1.602-1.656 2.203l-1.219-.843c1.156-1.051 1.992-2.442 2.516-4.172l1.484.328-.469 1.203 7.64-.063 1.095.375-1.844 3.172-1.297-.468 1.031-1.735h-3.5v1.016c1.145 1.344 3.27 2.152 6.375 2.422l-.922 1.297c-2.625-.375-4.62-1.235-5.984-2.579-.844 1.274-2.953 2.168-6.328 2.688l-.875-1.219c3-.406 4.879-1.05 5.64-1.937.25-.27.407-.52.47-.75zm-7.547 11.203v1.532h11.015v-1.532zm0-2.562v1.5h11.015v-1.5zm0-2.547v1.5h11.015v-1.5zm-.375 7.719l-1.203-1.203v-6.407l1.203-1.203h11.812l1.219 1.203v6.407l-1.219 1.203zm1.656-15.266v1.281h-5.266v-1.28zm.547 3.406v1.328h-6.297v-1.328zm.265 12.016l1.47.656c-1.743 1.04-3.977 1.938-6.704 2.688l-1.219-1.235c2.77-.57 4.922-1.273 6.453-2.109zm5.36.86l1.125-.876c2.613.805 4.77 1.594 6.469 2.375l-1.422.938c-1.563-.774-3.621-1.586-6.172-2.438zm24.575-13.36l-.83 1.266c-.741-.883-1.89-1.832-3.452-2.844l.828-1.11c1.582.97 2.734 1.868 3.453 2.688zm-.938 5.266l-.829 1.312c-.375-.406-.918-.86-1.625-1.36a17.96 17.96 0 0 0-2.015-1.28l.765-1.141c1.77.93 3.004 1.75 3.704 2.469zm-6.36-8.172l1.406.36c-.75 2.343-1.355 3.983-1.812 4.921l-1.078-.344c.539-1.351 1.035-3 1.484-4.937zm-4.578 4.906l-1.281.328c-.156-1.55-.559-3.172-1.203-4.86l1.187-.28c.664 1.617 1.098 3.218 1.297 4.812zm-.75 3.922l1.188.375a28.973 28.973 0 0 1-1.063 4.031c-.45 1.313-.937 2.34-1.469 3.078l-.828-1.812c.438-.625.86-1.473 1.266-2.547.414-1.082.719-2.125.906-3.125zm6.75-1.281h-3.61v11.218h-1.515v-11.218h-3.516v-1.532h3.516v-7.328h1.516v7.328h3.61zm-3.5 1.937l.906-.64c.207.312.602 1.027 1.188 2.14.582 1.117.96 1.867 1.14 2.25l-1.156 1.203c-.18-.55-.5-1.379-.969-2.484a50.308 50.308 0 0 0-1.109-2.469zm14.906 2.578l-2.843.5v6.188h-1.547v-5.89l-6.813 1.233-.265-1.53 7.078-1.25V300.4h1.547v12.344l2.593-.469zm17.262-2.766v-2.234h-9.172v2.235zm-9.172 3.72h9.172v-2.313h-9.172zm13.344-9.97h-11.875l-1.344 2.547h9.438l1.218 1.204v9.906c0 .5-.07.879-.203 1.14-.136.27-.422.485-.86.641-.437.164-1.671.25-3.702.25l-.547-1.61c.664.032 1.726.048 3.187.048.344-.024.516-.176.516-.47v-2.28h-9.437c-.344 1.886-1.094 3.367-2.25 4.453l-1.141-1.266c.82-.789 1.363-1.703 1.625-2.734.258-1.04.39-2.219.39-3.532v-3.218c-1.117 1.367-2.304 2.484-3.562 3.36l-1.031-1.267c2.437-1.644 4.41-4.035 5.922-7.171h-5.485v-1.547h6.188l.969-2.828 1.625.39-.86 2.438h11.219zm19.012 1.376v-3.72h-4.235v3.72zm.328-5.079l1.203 1.22v4.046l-1.203 1.203h-4.797l-1.203-1.203v-4.047l1.203-1.219zm-11.797 2.297l-1.422.563-1.39-2.969 1.39-.484zm2.562.672v1.375h-7.797v-1.375zm-2.093 10.188h-3.516v3.672h3.516zm.187-1.344l1.219 1.219v3.937l-1.219 1.203h-3.703v1.016h-1.422v-6.156l1.219-1.219zm-5.094-1.64v-1.33h6.328v1.328zm0-2.938v-1.297h6.328v1.297zm13.547 2.156v2.844h3.063v-2.844zm5.781 4.344h-6c-.261 1.187-.855 2.265-1.78 3.234-.907.969-2.298 1.801-4.173 2.5l-1.015-1.187c2.976-1.07 4.765-2.586 5.36-4.547h-4.86v-1.5h5.156l.016-2.844h-2.907l-1.203-1.203v-6.797h1.422v6.578h7.61l1.218 1.203v3.063h1.156zm-6.343 1.86l.984-1.032c2.438 1.5 4.274 2.727 5.516 3.672l-.985 1.187c-1.21-.98-3.047-2.254-5.515-3.828zm17.09-3.188a3.387 3.387 0 0 1 .078-1.625c.175-.508.43-.942.765-1.297.344-.352.72-.711 1.125-1.078.426-.364.82-.692 1.188-.985.383-.3.703-.64.953-1.015.258-.383.39-.766.39-1.14 0-.79-.288-1.423-.859-1.892-.574-.488-1.402-.734-2.484-.734-1.492 0-2.875.668-4.156 2l-1.188-1.094c1.602-1.695 3.457-2.547 5.563-2.547 1.562 0 2.796.372 3.703 1.11.925.742 1.39 1.742 1.39 3 0 .605-.187 1.168-.562 1.687a5.716 5.716 0 0 1-1.266 1.391c-.492.387-.976.777-1.453 1.172-1.117.906-1.578 1.922-1.39 3.047zm1.921 5.047c-.261.261-.593.39-1 .39-.398 0-.734-.129-1.015-.39-.262-.282-.39-.633-.39-1.063 0-.426.128-.773.39-1.047a1.38 1.38 0 0 1 1.015-.422c.407 0 .739.141 1 .422.282.274.422.621.422 1.047 0 .43-.14.781-.422 1.063zm16.418-18.172l1.532.484c-.586 1.45-1.34 2.977-2.266 4.578v15.172h-1.562v-12.828a22.082 22.082 0 0 1-2.407 2.86l-.937-1.579c1.113-1.039 2.172-2.332 3.172-3.875a25.844 25.844 0 0 0 2.468-4.812zm3.094 10.781h3.906l.016-3.266h-3.922zm9.578-3.266h-4.047v3.266h4.047zm1.563 3.438l-1.219 1.203h-4.5c-.2 1.71-.684 3.121-1.453 4.234 2.113 1.157 4.812 1.934 8.094 2.328l-.97 1.47c-3.241-.481-5.937-1.368-8.093-2.657-1.18 1.156-2.836 2.05-4.969 2.687l-1-1.375c2.008-.507 3.555-1.25 4.641-2.218a11.77 11.77 0 0 1-3.187-3.563l1.375-.437c.632 1.093 1.554 2.07 2.765 2.922.613-.895 1.008-2.024 1.188-3.391h-4.11l-1.218-1.203v-3.61l1.218-1.203h4.219v-2.156h-6.078v-1.5h6.078v-2.328h1.61v2.328h6.328v1.5h-6.329v2.156h4.391l1.219 1.203zm13.542.922h5.923v-3.657h-5.922zm-6.968 0h5.344v-3.657h-5.266zm5.344-8.719h-5.266v3.531h5.266zm7.547 3.531v-3.531h-5.922v3.531zm.39-5.094l1.219 1.22v15.109c0 .53-.086.925-.25 1.187-.148.281-.398.492-.75.64-.555.208-1.918.298-4.094.266l-.547-1.578c.688.02 1.832.031 3.438.031.219-.011.367-.05.453-.125.094-.082.14-.226.14-.437v-4.469h-5.921v6.485h-1.625v-6.485h-5.5c-.399 2.95-1.313 5.219-2.75 6.813l-1.25-1.078c1.144-1.282 1.89-2.864 2.234-4.75.27-1.457.406-3.094.406-4.907v-6.703l1.204-1.219zm13.309 3.922l.172 1.407-5.094.14c-.867 0-1.453-.172-1.766-.515-.312-.352-.468-.97-.468-1.844v-4.594h1.593v1.86h5.5v1.328h-5.5l.125 2.156c.102.117.297.172.578.172zm.203 11.594l-.969 1.281c-.636-.812-1.445-1.722-2.422-2.734-.68 1.824-2.062 3.328-4.156 4.516l-1.078-1.11c2.195-1.125 3.547-2.672 4.047-4.64h-4.11v-1.407h4.329l.015-2.422h-1.781c-.367.938-.73 1.668-1.094 2.188l-1.344-.734c.82-1.125 1.454-2.735 1.891-4.829l1.469.282-.438 1.734h5.688v1.36h-2.844v2.421h3.14v1.407h-3.202zm6.422 1.11l4.875.28-.438 1.391h-2.265c-1.45 0-2.672-.265-3.672-.797-1-.511-1.824-1.457-2.469-2.843-.437 1.617-1.094 2.941-1.969 3.984l-1.28-.922c.862-.906 1.472-2.066 1.827-3.484.364-1.406.582-3.16.656-5.266l1.516.031a39.574 39.574 0 0 1-.344 3.672c.47 1.493 1.164 2.578 2.094 3.266v-8.453h-4.39v-1.39l9.374.202.766 1.141-1.11 2.734-1.187-.375.922-2.312h-2.906v3.719h4.062v1.406h-4.062zm1.234-10.532c-1.367-1.082-3.215-2.195-5.547-3.344l.97-1c.687.305 1.483.7 2.39 1.188a15 15 0 0 0 2.843-2.422h-7.343v-1.328l8.797-.078 1.015.656c-1.062 1.469-2.402 2.781-4.015 3.938.625.367 1.254.793 1.89 1.28zm22.996-4.266l-1.437.579-1.453-3.14 1.375-.532c.77 1.187 1.273 2.219 1.515 3.094zm-4.937 11.047v3.032h2.875v-3.032zm2.875-5.828v-2.922h-2.875v2.922zm0 4.407v-3h-2.875v3zm-7.5-4.047V307.4h-2.203v1.938zm-5.813-1.938v1.938h2.25V307.4zm1.485-4.312v1.14h3.047v-1.14zm16.453 14.75v1.5h-7.5v1.11h-1.5v-12.563l-.953 1.406-.813-.735v.688l-1.203 1.203h-2.25v1.297h3.61v1.219h-3.61l-.078 1.36h4.266v1.28l-4.579.203c1.645 1.032 2.938 2.024 3.875 2.97l-.906 1.109c-.875-.918-2.031-1.88-3.469-2.891-.773 1.406-2.062 2.547-3.875 3.422l-1.03-1.047c1.945-.895 3.226-2.148 3.843-3.766h-3.766v-1.28h4.094l.11-1.36h-3.47v-1.219h3.47v-1.297h-2.282l-1.219-1.203v-1.766l1.22-1.203h2.327v-.969h-1.015l-1.203-1.218v-1h-1.938v-1.266h1.938v-1.375h1.453v1.375h3.047v-1.375h1.53v1.375h1.782v1.266h-1.781v1l-1.219 1.218h-1.234v.97h3.562v1.468c1.352-1.906 2.43-4.352 3.235-7.344l1.484.344-1.297 3.812h7.234v1.5h-3.046v2.922h2.796v1.407h-2.796v3h2.828v1.421h-2.828v3.032zm10.824-4.375a3.387 3.387 0 0 1 .078-1.625c.176-.508.43-.942.766-1.297.344-.352.719-.711 1.125-1.078.426-.364.82-.692 1.187-.985.383-.3.703-.64.953-1.015.258-.383.391-.766.391-1.14 0-.79-.289-1.423-.86-1.892-.574-.488-1.402-.734-2.484-.734-1.492 0-2.875.668-4.156 2l-1.187-1.094c1.601-1.695 3.457-2.547 5.562-2.547 1.563 0 2.797.372 3.703 1.11.926.742 1.39 1.742 1.39 3 0 .605-.187 1.168-.562 1.687a5.716 5.716 0 0 1-1.265 1.391c-.493.387-.977.777-1.453 1.172-1.118.906-1.579 1.922-1.391 3.047zm1.922 5.047c-.262.261-.594.39-1 .39-.399 0-.734-.129-1.016-.39-.261-.282-.39-.633-.39-1.063 0-.426.129-.773.39-1.047a1.38 1.38 0 0 1 1.016-.422c.406 0 .738.141 1 .422.281.274.422.621.422 1.047 0 .43-.14.781-.422 1.063zm-300.258 17.484h-4.953c-.512 2.105-1.148 3.805-1.906 5.094l-1.313-.938c1.22-1.945 2.07-4.96 2.563-9.047l1.515.266-.5 3.11 5.297-.079.985.36c-.524 2.449-1.047 4.336-1.578 5.656l-1.22-.422zm-10.172-2.234v1.328h-1.453v-3.953h1.453v1.375h3.157v1.25zm1.11 4.625v-1.891h-2.047v1.89zm-.11-2.875l1.203 1.203v1.453l-1.203 1.219h-1.812l-1.203-1.22v-1.452l1.203-1.203zm-6.234-.438v-1.312h-3.125v-1.25h3.125v-1.375h1.437v3.937zm-1.125 1.422v1.922h2.031v-1.922zm.14 2.906l-1.218-1.219v-1.468l1.219-1.203h1.796l1.22 1.203v1.468l-1.22 1.22zm3.876 4.313v-1.328h-2.797v1.328zm0 2.484v-1.36h-2.797v1.36zm0 2.688v-1.547h-2.797v1.547zm4.546 1.187h-7.343v1.156h-1.297v-7.406l-1.219 1.422-.812-1.078c1.32-1.3 2.336-2.852 3.046-4.656l1.188.343-.594 1.344h2.703l-.687-1.156 1.11-.469c.445.606.757 1.149.937 1.625h3.078v1.188h-3.281v1.328h2.843v1.125h-2.843v1.36h2.968v1.14h-2.968v1.547h3.171zm5.375-13.219v1.25c0 .875-.03 1.72-.093 2.532.789 4.761 2.316 7.875 4.578 9.343l-1.078 1.344c-1.762-1.305-3.106-3.656-4.032-7.062-.648 2.773-1.87 5.12-3.671 7.046l-1.188-1.078c1.77-1.863 2.906-3.984 3.406-6.359.25-1.145.41-2.133.485-2.969.07-.844.11-1.785.11-2.828v-1.219zm20.403-2.64v14.234h-1.516v-14.484l1.219-1.188h4.11l1.202 1.219v9.89c0 .762-.242 1.25-.718 1.47-.387.179-1.297.265-2.735.265l-.515-1.406c1.113.031 1.8.043 2.062.031.258-.02.39-.145.39-.375v-9.656zm-5.672 9.468l3.484-1.078.11 1.438c-3.23 1.117-5.016 1.805-5.36 2.062l-.672-1.312c.602-.344.907-.863.907-1.563v-8.75l1.297-1.718c.976-.352 1.992-.91 3.046-1.672l1.172 1.187-3.984 1.828zm-3.547-9.14l-1.266.875-2.75-3.5 1.188-.75zm-.11 7.031l.813.313c-.305 1.836-.762 3.449-1.375 4.843.656 1.094 1.63 1.828 2.922 2.203 1.29.344 3.188.516 5.688.516 2.507 0 4.968-.094 7.375-.281l-.516 1.562c-2.211.114-4.57.172-7.078.172-2.5 0-4.434-.199-5.797-.594-1.356-.398-2.434-1.171-3.234-2.328-.782 1.368-1.774 2.461-2.97 3.297l-1.077-1.125c2.207-1.406 3.672-3.8 4.39-7.187h-2.281c-.648 0-1.074.105-1.281.312l-.594-1.5c.414-.113.77-.316 1.063-.61.476-.53 1.347-1.734 2.609-3.609H202.5v-1.343h4.344l.265-.11 1.078.485c-1.273 1.918-2.496 3.593-3.671 5.031zm23.403 2.531l.266 1.453c-2.844 1.23-4.887 2.094-6.125 2.594l-.625-1.625 2.625-.922v-7.656h-2.454v-1.562h2.454v-5h1.578v5h2.468v1.562h-2.468v7.047zm4.469 3.063l1.406.922c-1.406 1.156-3.117 2.203-5.125 3.14l-1-1.14c2.07-.938 3.645-1.91 4.719-2.922zm3.593.969l1.016-.985c1.957 1.117 3.406 2.094 4.344 2.938l-1.078 1.14c-1.055-.98-2.48-2.007-4.282-3.093zm-4.562-3.922v1.484h6.766v-1.484zm6.766-7.078h-6.766v1.406h6.766zm0 3.687v-1.297h-6.766v1.297zm-6.766 1.016v1.36h6.766v-1.36zm8.25 3.86h2v1.421h-13.656v-1.422h1.953v-8.5l1.219-1.203h2.015l.313-1.484h-4.657v-1.344h4.907l.281-2 1.734.11-.422 1.89h5.72v1.344h-6.016l-.407 1.484h3.813l1.203 1.203zm8.089 4.968l-1.312-.64c.79-.895 1.473-2.192 2.047-3.891l1.297.53c-.648 1.837-1.324 3.165-2.031 4zm2.985-4.203l1.266-.157c.531 1.45.797 2.72.797 3.813l-1.344.187c.031-1.07-.211-2.351-.719-3.843zm2.75 0l1.188-.328c.758 1.156 1.254 2.261 1.484 3.312l-1.25.406zm-3.281-2.36h10.86l1.077 1.938c-.085 2.492-.398 4.008-.937 4.562-.313.344-.773.532-1.375.563-.523.062-1.414.055-2.672-.016l-.469-1.437c1.102.093 1.914.125 2.438.093.375.008.625-.046.75-.171.312-.352.555-1.75.734-4.188h-11.844c-1.187.98-2.574 1.828-4.156 2.547l-.969-1.297c2.594-1.008 4.563-2.344 5.907-4h-1.39l-1.22-1.203v-3.797l1.438-1.516a19.913 19.913 0 0 0 3.687-1.109l1.016 1.031c-1.117.43-2.668.844-4.656 1.25v1.47h4.265v1.171h-4.265v1.5h10.328v-1.5h-4.172v-1.172h4.172v-1.453h-4.547v-1.203h4.844l1.203 1.203v4.125l-1.203 1.203h-7.703zm9.031 4.203l-1.14.594c-.356-.77-.97-1.597-1.844-2.484l1.078-.5c.926.836 1.562 1.633 1.906 2.39zm-4.61-15.375h7.079l1.219 1.204v2.64h-1.563v-2.422h-15.515v2.422h-1.516v-2.64l1.203-1.204h7.203l-.734-1.437 1.625-.453zm30.185 2.438l-1.329.953c-.71-1.101-1.855-2.351-3.437-3.75l1.265-.844c1.625 1.387 2.79 2.602 3.5 3.641zm-14.204 9.266l-4.547 1.015-.468-1.656c.789-.125 2.46-.453 5.015-.984v-3.86h-4.703v-1.562h4.703v-3.485a65.06 65.06 0 0 1-4.047.657l-.515-1.36c3.758-.57 6.656-1.234 8.687-1.984l1.157 1.344-3.672 1v3.828h5.047c-.18-1.832-.282-3.922-.313-6.266h1.672c0 2.23.086 4.32.266 6.266h6.468v1.562h-6.297c.22 1.867.52 3.54.907 5.016a19.201 19.201 0 0 0 2.875-4l1.453.594c-.98 1.855-2.258 3.578-3.828 5.171.894 2.48 1.867 3.72 2.922 3.72.3 0 .523-.298.671-.891.145-.602.254-1.618.329-3.047l1.39.875c-.156 1.824-.418 3.054-.781 3.703-.356.656-.938.984-1.75.984-1.637 0-2.996-1.37-4.078-4.11a23.372 23.372 0 0 1-4.64 3.235l-1.126-1.297a21.065 21.065 0 0 0 5.219-3.562c-.531-1.832-.945-3.961-1.234-6.39h-5.172v3.53l3.937-.859.11 1.469-4.047.953v4.875c0 .531-.075.926-.22 1.187-.148.282-.437.504-.874.672-.43.164-1.594.25-3.5.25l-.625-1.64c2.176.101 3.344.07 3.5-.094.07-.07.11-.203.11-.39zm20.794-9.172h-1.891v8.812h1.89zm0-1.407l1.202 1.204v9.218l-1.203 1.22h-1.89v1.78h-1.22v-12.218l1.188-1.204zm4.952 4.875v6.72l2.016-.75.297 1.296a167.124 167.124 0 0 1-5.375 2.25l-.61-1.484 2.329-.828v-7.204h-1.891v-1.515h1.89v-5.078h1.344v5.078h1.844v1.515zm5.282 10.438h3.734c.426 0 .707-.176.844-.531.144-.352.242-1.114.297-2.282l1.28.563c-.105 1.375-.312 2.309-.624 2.797-.305.5-.887.75-1.75.75h-3.89c-.97 0-1.626-.172-1.97-.516-.335-.336-.5-.988-.5-1.969v-7.656l-.968.438-.64-1.39 1.608-.72v-5.687h1.36v5.015l2.031-.937v-6.094h1.297v5.5l1.719-.812.656-.547 1.094.375-.063.25c0 3.773-.148 6.781-.437 9.031l-1.219-.36c.156-1.738.234-4.144.234-7.218l-1.984.937v8.047h-1.297v-7.437l-2.031.937v8.344c0 .492.07.809.219.953.164.149.5.219 1 .219zm12.152-15.297h-2.203v11.266h2.203zm.078-1.516l1.203 1.204v11.89l-1.203 1.203h-2.281v2.47h-1.266V333.76l1.203-1.204zm6.547 1.188h-2.703v2.516h2.703zm-2.703 6.484h2.703v-2.672h-2.703zm4.765 7.157l-1.296.53-.407-1.452a203.72 203.72 0 0 0-3.328 2l-1.015.812-.813-1.14c.531-.489.797-1.13.797-1.922v-12.625l1.203-1.203h2.938l1.203 1.203v6.797l-1.203 1.218h-2.844v5.125l2.64-1.39-1.062-2.39 1.219-.423c1.008 1.887 1.664 3.508 1.968 4.86zm1.235-7.329h1.984c.383-1.8.602-3.875.656-6.218h-1.421a112.522 112.522 0 0 1-1.22 6.218zm3.719 9.547h.53c.22 0 .376-.043.47-.125.093-.093.164-.265.218-.515.051-.551.07-1.352.063-2.407l1.078.594c-.031 1.375-.102 2.262-.203 2.656-.18.758-.684 1.141-1.516 1.141h-.969c-.48 0-.824-.094-1.03-.281a1.341 1.341 0 0 1-.376-.578c-.043-.188-.062-.528-.062-1.016v-4.562c-1.075 2.492-2.633 4.726-4.672 6.703l-1.14-.813c2.655-2.414 4.491-5.398 5.515-8.953h-1.953l-.97-1.11c.395-1.581.802-3.75 1.22-6.5h-1.328v-1.437h7.109v1.438h-1.781c-.063 2.43-.278 4.5-.64 6.218h2.593v1.391h-2.906l-.344 1.188h.594v6.515c0 .305.164.453.5.453zm13.777-12.609v1.437h-9.484v-1.437h4.093v-2.188h-3.453v-1.406h3.453v-2.234h1.516v2.234h3.312v1.406h-3.312v2.188zm-3.875 5.969v2.375h3.906v1.406h-3.906v4.406h-1.516v-4.406h-4.125v-1.406h4.125v-2.375h-3.64v-1.438h2.047l-1.032-2.672 1.219-.328c.563.875.93 1.746 1.11 2.61l-1.094.39h2.734l1.516-3.094 1.406.375-1.469 2.72h2.188v1.437zm6.203-2.047v9c1.102-.727 2.098-1.695 2.984-2.906-1.156-1.72-2.152-3.75-2.984-6.094zm5.734 0h-4.125a17.663 17.663 0 0 0 2.235 4.75c.844-1.406 1.472-2.988 1.89-4.75zm.782-1.422l1.03.36c-.5 2.71-1.398 5.09-2.687 7.14 1.032 1.2 2.196 2.121 3.5 2.766l-1.125 1.328c-1.125-.637-2.226-1.567-3.296-2.797-1 1.258-2.075 2.254-3.22 2.984l-.718-.812v.734h-1.5v-17.844l1.219-1.218h6.094l1.203 1.218v3.016c0 .437-.059.766-.172.984-.117.22-.383.403-.797.547-.406.149-1.516.219-3.328.219l-.5-1.453c1.976.062 3.039.043 3.187-.063.063-.039.094-.129.094-.265v-2.703h-5.5v5.921zm18.183-4.125l-.828 1.266c-.742-.883-1.89-1.832-3.453-2.844l.828-1.11c1.582.97 2.734 1.868 3.453 2.688zm-.937 5.266l-.828 1.312c-.375-.406-.918-.86-1.625-1.36a18.06 18.06 0 0 0-2.016-1.28l.766-1.141c1.77.93 3.004 1.75 3.703 2.469zm-6.36-8.172l1.407.36c-.75 2.343-1.356 3.983-1.813 4.921l-1.078-.344c.539-1.351 1.035-3 1.484-4.937zm-4.578 4.906l-1.281.328c-.156-1.55-.559-3.172-1.203-4.86l1.187-.28c.664 1.617 1.098 3.218 1.297 4.812zm-.75 3.922l1.188.375a28.973 28.973 0 0 1-1.063 4.031c-.449 1.313-.937 2.34-1.469 3.078l-.828-1.812c.438-.625.86-1.473 1.266-2.547.414-1.082.719-2.125.906-3.125zm6.75-1.281h-3.61v11.218h-1.515v-11.218h-3.515v-1.532h3.515v-7.328h1.516v7.328h3.61zm-3.5 1.937l.906-.64c.208.312.602 1.027 1.188 2.14.582 1.117.96 1.867 1.14 2.25l-1.156 1.203c-.18-.55-.5-1.379-.968-2.484a50.308 50.308 0 0 0-1.11-2.469zm14.906 2.578l-2.843.5v6.188h-1.547v-5.89l-6.813 1.233-.265-1.53 7.078-1.25V331.15h1.547v12.344l2.593-.469zm19.372-2.594l1.343.938c-1.187 1.031-2.605 2.055-4.25 3.062 1.57 1.48 3.414 2.528 5.532 3.141l-1.079 1.422c-4.437-1.5-7.527-4.64-9.265-9.422-.93 1.012-2.074 1.98-3.438 2.906v4.86l5.328-1.61.266 1.407c-3.117 1-5.07 1.628-5.86 1.89l-1.53.688-.704-1.5c.551-.27.828-.742.828-1.422v-3.266a25.255 25.255 0 0 1-3.78 1.781l-1.063-1.312c1.383-.426 2.785-1.035 4.203-1.828 1.437-.8 2.672-1.664 3.703-2.594h-7.266v-1.406h8.625v-1.969h-6.64v-1.36h6.64v-1.843h-7.765v-1.406h7.765v-1.953h1.625v1.953h8.016v1.406h-8.016v1.844h7.016v1.36h-7.016v1.968h8.688v1.406h-8.047c.602 1.469 1.379 2.766 2.328 3.89 1.563-1.05 2.832-2.062 3.813-3.03zm14.714 1.266h7.282a15.23 15.23 0 0 1-3.703-2.484 19.955 19.955 0 0 1-3.579 2.484zm.422 5.64h6.125v-4.218h-6.125zm.938-13.921l-.266.39a14.305 14.305 0 0 0 2.469 3.344c1.113-1.176 1.976-2.422 2.594-3.734zm5.828-1.5l1.016.484c-.72 2.137-1.903 4.059-3.547 5.766 1.601 1.336 3.43 2.312 5.484 2.937l-1.016 1.375-1.03-.406v7.578h-1.548v-.89h-6.125v.968h-1.5v-7.5l-1.734.735-.922-1.328a17.55 17.55 0 0 0 6.219-3.47 16.955 16.955 0 0 1-2.281-3.077 17.756 17.756 0 0 1-2.157 2.328l-1.297-1.094.547-.469h-2.515v.985l2.78 3.343-.968 1.282-1.812-2.75v10.984h-1.563v-10.39c-.898 2.761-1.87 4.859-2.922 6.296l-.86-1.453c.72-.914 1.407-2.14 2.063-3.672a27.25 27.25 0 0 0 1.547-4.625h-3.11v-1.515h3.282v-4.703h1.563v4.703h2.843v1.203c1.72-1.633 3.016-3.613 3.891-5.938l1.578.438-.89 1.937zm15.714 3.703a1.647 1.647 0 0 1-1.171.453c-.461 0-.852-.148-1.172-.453-.324-.313-.484-.707-.484-1.188 0-.488.16-.882.484-1.187.32-.313.71-.469 1.172-.469.457 0 .848.156 1.172.469.332.305.5.7.5 1.187 0 .48-.168.875-.5 1.188zm0 10.781a1.647 1.647 0 0 1-1.171.453c-.461 0-.852-.148-1.172-.453-.324-.312-.484-.71-.484-1.203 0-.5.16-.898.484-1.203.32-.313.71-.469 1.172-.469.457 0 .848.164 1.172.485.332.312.5.714.5 1.203 0 .48-.168.875-.5 1.187zm-240.597 30.813c-1.21 1.242-2.887 1.86-5.031 1.86-2.137 0-3.875-.743-5.219-2.235-1.336-1.5-2-3.532-2-6.094 0-2.57.688-4.613 2.063-6.125 1.375-1.508 3.148-2.266 5.328-2.266 1.844 0 3.39.668 4.64 2l-1.109 1.328c-.96-1.03-2.121-1.546-3.484-1.546-1.637 0-2.938.59-3.907 1.765-.968 1.18-1.453 2.781-1.453 4.813 0 2.031.473 3.64 1.422 4.828.938 1.168 2.258 1.75 3.969 1.75 1.258 0 2.227-.313 2.906-.938v-4.234h-3.406v-1.688h4.062l1.22 1.204zm14.765-.422c-1.274 1.523-2.934 2.281-4.985 2.281-2.054 0-3.714-.758-4.984-2.281-1.262-1.531-1.89-3.57-1.89-6.125 0-2.55.628-4.57 1.89-6.063 1.27-1.5 2.93-2.25 4.984-2.25 2.051 0 3.711.75 4.985 2.25 1.27 1.493 1.906 3.512 1.906 6.063 0 2.555-.637 4.594-1.906 6.125zm-8.469-1.297c.875 1.2 2.035 1.797 3.484 1.797 1.458 0 2.618-.598 3.485-1.797.875-1.207 1.312-2.813 1.312-4.813 0-2.007-.437-3.601-1.312-4.78-.867-1.177-2.027-1.766-3.485-1.766-1.46 0-2.625.59-3.5 1.765-.867 1.18-1.296 2.774-1.296 4.781 0 2 .437 3.606 1.312 4.813zm24.79 1.297c-1.273 1.523-2.934 2.281-4.984 2.281-2.055 0-3.715-.758-4.985-2.281-1.262-1.531-1.89-3.57-1.89-6.125 0-2.55.628-4.57 1.89-6.063 1.27-1.5 2.93-2.25 4.985-2.25 2.05 0 3.71.75 4.984 2.25 1.27 1.493 1.906 3.512 1.906 6.063 0 2.555-.637 4.594-1.906 6.125zm-8.469-1.297c.875 1.2 2.035 1.797 3.485 1.797 1.457 0 2.617-.598 3.484-1.797.875-1.207 1.312-2.813 1.312-4.813 0-2.007-.437-3.601-1.312-4.78-.867-1.177-2.027-1.766-3.484-1.766-1.461 0-2.625.59-3.5 1.765-.868 1.18-1.297 2.774-1.297 4.781 0 2 .437 3.606 1.312 4.813zm25.18 1.719c-1.21 1.242-2.886 1.86-5.03 1.86-2.137 0-3.876-.743-5.22-2.235-1.335-1.5-2-3.532-2-6.094 0-2.57.688-4.613 2.063-6.125 1.375-1.508 3.149-2.266 5.328-2.266 1.844 0 3.39.668 4.64 2l-1.108 1.328c-.961-1.03-2.122-1.546-3.485-1.546-1.637 0-2.937.59-3.906 1.765-.969 1.18-1.453 2.781-1.453 4.813 0 2.031.472 3.64 1.422 4.828.937 1.168 2.257 1.75 3.968 1.75 1.258 0 2.227-.313 2.907-.938v-4.234h-3.407v-1.688h4.063l1.219 1.204zm5.031 1.578l-1.203-1.203V364.15h2.047v14.406h7.031v1.735zm11.944 0l-1.203-1.203v-13.735l1.203-1.203h8.094v1.735h-7.25v5.062h6.109v1.734h-6.11v5.875h7.5v1.735zm16.658 0v-14.938l1.203-1.203h8.093v1.735h-7.25v5.453h6.157v1.718h-6.157v7.235zm23.079-2c-1.274 1.523-2.934 2.281-4.984 2.281-2.055 0-3.715-.758-4.985-2.281-1.262-1.531-1.89-3.57-1.89-6.125 0-2.55.628-4.57 1.89-6.063 1.27-1.5 2.93-2.25 4.985-2.25 2.05 0 3.71.75 4.984 2.25 1.27 1.493 1.906 3.512 1.906 6.063 0 2.555-.637 4.594-1.906 6.125zm-8.469-1.297c.875 1.2 2.035 1.797 3.485 1.797 1.457 0 2.617-.598 3.484-1.797.875-1.207 1.312-2.813 1.312-4.813 0-2.007-.437-3.601-1.312-4.78-.867-1.177-2.027-1.766-3.484-1.766-1.461 0-2.625.59-3.5 1.765-.868 1.18-1.297 2.774-1.297 4.781 0 2 .437 3.606 1.312 4.813zm13.852 3.297v-14.938l1.204-1.203h3.859c3.75 0 5.625 1.516 5.625 4.547 0 1.219-.324 2.211-.969 2.969-.648.762-1.543 1.281-2.687 1.562l4.14 7.063h-2.312l-3.906-6.844h-2.907v6.844zm2.047-8.485h2.703c2.614 0 3.922-1.035 3.922-3.109 0-1.031-.324-1.766-.968-2.203-.649-.445-1.633-.672-2.954-.672h-2.703zm11.943 8.485v-16.14h1.25l1.61 1.109 3.952 10.89 3.782-10.89 1.61-1.11h1.25v16.14h-1.907v-8.937c0-.906.086-2.488.265-4.75l-4.421 12.063h-1.36l-4.344-12.063c.102 2.586.157 4.168.157 4.75v8.938zM197.629 424.98l1.281.952c-.969 1.055-2.14 2.118-3.516 3.188a32.792 32.792 0 0 1-4.14 2.703v9.5c0 .563-.09.984-.266 1.266-.156.27-.449.468-.875.593-.605.188-2.11.282-4.515.282l-.657-1.625c2.801.101 4.305.066 4.516-.11.07-.07.11-.207.11-.406v-9.094l1.03-1.75c1.47-.695 3.16-1.957 5.079-3.78h-14.14v-1.61zm10.699 11.468h1.969v-2.578h-1.969zm-3.172-2.578v2.578h1.985v-2.578zm3.297-7.234h-2.39l-1.11 2.28h2.531zm-.125 3.578v2.422h1.969v-2.422zm-3.172 0v2.422h1.985v-2.422zm15.156-4.328h-3.515c-.25 1.406-.7 2.605-1.344 3.593-.648.98-1.61 1.762-2.89 2.344l-.876-1.094c1.082-.488 1.895-1.129 2.438-1.922.55-.8.941-1.773 1.172-2.921h-2.969v-1.391h8.297l1.156 1.219-.031.703c-.125 2.406-.387 3.828-.781 4.265-.262.325-.625.508-1.094.547-.469.043-1.258.04-2.36-.015l-.374-1.375c.57.062 1.234.093 1.984.093.289.032.492-.035.61-.203.269-.3.46-1.582.577-3.843zm2.11 11.953v1.406h-4.172v4.11h-1.563v-4.11h-4.625v-1.406h4.625v-2.719h-2.453c-.336.844-.715 1.562-1.14 2.156l-1.266-.672c.895-1.175 1.566-2.82 2.016-4.937l1.39.297-.468 1.75h1.921v-2.235h1.563v2.235h3.797v1.406h-3.797v2.719zm-11.938-8.922l1.203 1.219v11.546c0 .79-.25 1.29-.75 1.5-.398.176-1.375.266-2.937.266l-.531-1.39c1.195.039 1.968.046 2.312.015.344-.012.516-.14.516-.39v-3.954h-5.266c-.242 2.493-.808 4.414-1.703 5.782l-1.156-.75c1.082-1.696 1.625-4.375 1.625-8.032v-4l-.469.594-1.234-1c1.562-1.664 2.707-3.976 3.437-6.937l1.516.328-.5 1.625 2.812-.063.969.61-1.39 3.03zm17.903 6.063h5.187l.047-2.235h-5.234zm0-5.735v2.203h5.234v-2.203zm12.453 0h-5.547v2.203h5.547zm0 5.734v-2.234h-5.547v2.234zm1.61.141l-1.22 1.219h-6.187a7.033 7.033 0 0 1-1.953 3.734c1.289.586 2.836 1 4.64 1.25 1.82.242 4.086.399 6.797.469l-.672 1.61c-2.804-.118-5.172-.345-7.109-.688-1.93-.325-3.586-.86-4.969-1.61-1.562 1.032-3.695 1.82-6.39 2.375l-.97-1.422c2.552-.5 4.5-1.128 5.845-1.89-1.094-.832-2-1.867-2.72-3.11l1.376-.546c.738 1.148 1.625 2.058 2.656 2.734a5.506 5.506 0 0 0 1.781-2.906h-5.328l-1.203-1.219v-6.016l1.203-1.218h5.594v-1.844h-8.797v-1.469h19v1.469h-8.531v1.844h5.937l1.22 1.218zm17.823-8.516h-6.28l-1.392.953c1.72.887 3.016 1.711 3.891 2.47 1.602-1.063 2.863-2.204 3.781-3.423zm1.328-1.468l1.032.656c-.899 1.617-2.188 3.086-3.875 4.406-3.063 2.406-6.782 4.078-11.157 5.016l-.78-1.438a27.096 27.096 0 0 0 8.265-2.922c-.969-.832-2.25-1.66-3.844-2.484-.937.512-1.98 1-3.125 1.469l-1.125-1.203c1.863-.657 3.504-1.454 4.922-2.391 1.437-.945 2.566-1.91 3.39-2.89l1.829.39-1.453 1.484zm2 9.125h-6.312l-1.938 1.265c1.75.969 3.149 1.93 4.204 2.875 1.77-1.164 3.117-2.547 4.046-4.14zm1.204-1.47l1.062.595c-2.367 5.468-7.922 8.843-16.672 10.125l-.734-1.485c3.77-.445 6.984-1.367 9.64-2.765-1.199-1.102-2.605-2.086-4.218-2.954a34.255 34.255 0 0 1-3.672 1.547l-1-1.234c2.187-.688 4.11-1.547 5.765-2.578 1.676-1.04 2.97-2.117 3.875-3.235l1.797.422-1.593 1.625zm23.761-9.609v1.516h-5.328v12.719h-1.625v-13.031l1.219-1.204zm12.512 13.798v4.28c1.113.243 2.477.36 4.094.36 1.289.043 3.035.031 5.234-.031l-.594 1.61h-4.703c-2.586 0-4.71-.329-6.375-.985-1.68-.645-3.027-1.867-4.047-3.672-.824 2.21-1.93 3.867-3.312 4.984l-1.203-1.078c1.218-.937 2.14-2.219 2.765-3.844.645-1.625 1.067-3.379 1.266-5.265l1.672.218c-.137.93-.328 1.93-.578 3 .851 2.043 2.234 3.45 4.14 4.22v-8.735h-8.672v-1.531h8.672v-3.016h-6.78v-1.516h6.78v-2.53h1.641v2.53h7.125v1.516h-7.125v3.016h8.766v1.53h-8.766v3.438h7.312v1.5zm28.715-11.298h-4.266v1.829h4.266zm-4.453 5.016h4.453v-1.906h-4.266zm4.453 1.281h-4.719c-.418 1.68-1.164 3.028-2.234 4.047l-1.297-.765c1.664-1.551 2.5-3.926 2.5-7.125v-2.61l1.219-1.203h4.859l1.203 1.203v9.031c0 .43-.055.758-.156.985-.094.219-.313.414-.656.578-.336.148-1.274.219-2.813.219l-.484-1.485c.656.032 1.39.047 2.203.047.25-.008.375-.133.375-.375zm-12.89-.437l.077-3.781h-4.578v-1.375h3.156c-.312-.727-.78-1.489-1.406-2.282l1.156-.53c.75.886 1.266 1.687 1.547 2.405l-.843.407h2.53l1.5-2.813 1.423.438-1.422 2.375h2.953v1.375h-4.531v3.78h2.375v-2.812h1.375v4.75h-1.375v-.593h-2.782c-.574 1.625-1.886 2.902-3.937 3.828l-1.016-1.125c1.688-.707 2.797-1.61 3.328-2.703h-1.953l-1.218-1.22v-2.937h1.375v2.813zm6.171 9.75h9.156v1.453h-19.828v-1.453h9.031v-2.453h-6.765v-1.422h6.765v-1.36h1.641v1.36h6.875v1.422h-6.875zm23.762-1.078c-1.211 1.242-2.887 1.86-5.031 1.86-2.137 0-3.875-.743-5.22-2.235-1.335-1.5-2-3.532-2-6.094 0-2.57.688-4.613 2.063-6.125 1.375-1.508 3.149-2.266 5.328-2.266 1.844 0 3.391.668 4.641 2l-1.11 1.328c-.96-1.03-2.12-1.546-3.484-1.546-1.636 0-2.937.59-3.906 1.765-.969 1.18-1.453 2.781-1.453 4.813 0 2.031.473 3.64 1.422 4.828.937 1.168 2.258 1.75 3.969 1.75 1.257 0 2.226-.313 2.906-.938v-4.234h-3.406v-1.688h4.062l1.219 1.204zm3.827 1.578v-14.938l1.203-1.203h3.406c4.02 0 6.032 1.586 6.032 4.75 0 1.656-.54 2.903-1.61 3.735-1.054.836-2.496 1.25-4.328 1.25h-2.656v6.406zm2.047-8.047h2.39c1.426 0 2.477-.27 3.157-.813.687-.55 1.03-1.39 1.03-2.515 0-1.145-.343-1.942-1.03-2.39-.7-.47-1.778-.704-3.235-.704h-2.312zm16.339 8.328c-2.242 0-4.125-.797-5.656-2.39l1.234-1.391c1.258 1.336 2.738 2 4.437 2 1.04 0 1.864-.235 2.47-.703.612-.477.921-1.117.921-1.922 0-.813-.273-1.414-.812-1.813-.407-.32-1.032-.675-1.875-1.062l-2.329-1.016c-2.187-.937-3.28-2.312-3.28-4.125 0-1.25.476-2.273 1.437-3.078.968-.812 2.187-1.219 3.656-1.219 1.875 0 3.457.668 4.75 2l-1.078 1.297c-1.086-1.008-2.309-1.515-3.672-1.515-.918 0-1.652.226-2.203.671-.543.418-.813.985-.813 1.704 0 .843.395 1.507 1.188 1.984.351.187.844.422 1.469.703l2.312.984c1.07.48 1.895 1.043 2.469 1.688.57.637.86 1.562.86 2.781 0 1.211-.513 2.25-1.532 3.125-.992.867-2.309 1.297-3.953 1.297zm7.194 1.609v-1.515h5.328v-12.719h1.625v13.031l-1.219 1.203zm35.121-10.202h-5.75v4.156h5.75zm1.547 4.359l-1.203 1.203h-6.094v1.578h-1.531v-7.313l1.219-1.218h6.406l1.203 1.218zm1.172-9.469v1.437h-11.094v-1.437zm2.265-3.844l1.188 1.203v15.688c0 .508-.074.898-.219 1.172-.136.258-.367.46-.687.61-.532.206-1.758.312-3.672.312l-.594-1.61c1.477.04 2.488.047 3.031.016.352-.012.532-.176.532-.5v-15.328h-14.844v17.437h-1.594V425.73l1.219-1.203zm11.872 11.5l-1.204.469-.296-1.11c-2.243.356-3.704.602-4.391.735l-1.328.39-.5-1.468c.351-.07.89-.567 1.61-1.485.413-.437 1.03-1.28 1.843-2.53-1.824.23-2.86.405-3.11.53l-.5-1.468c.32-.07.712-.473 1.172-1.203.32-.457.766-1.223 1.329-2.297a21.663 21.663 0 0 0 1.453-3.172l1.484.594c-1.012 2.25-2.105 4.187-3.281 5.812l2.36-.219 1.687-3 1.312.782c-1.523 2.78-3.168 5.195-4.937 7.234l3.406-.438-.75-2.109 1.14-.36zm-6.891 1.438l1.297.265c-.274 1.907-.633 3.625-1.078 5.157l-1.25-.375c.394-1.282.738-2.961 1.031-5.047zm2.203.125l1.219-.219.594 4.484-1.266.313zm8.453.218l.531 1.22c-1.668 1.155-2.976 2.038-3.921 2.64l-.688-.938-.969.36-1.109-3.922 1.094-.375c.508 1.312.89 2.5 1.14 3.562a109.55 109.55 0 0 0 3.922-2.547zm.297-1.28l-1.156.89-2.516-3.016 1.11-.765zm3.219 2.234l.875-1.016c1.906 1.25 3.242 2.246 4.015 2.984l-.89 1.172c-.875-.906-2.211-1.953-4-3.14zm3.187-5.172l1.188.86-3.031 2.796-.985-.75zm-7.703-5.078h4.938l.39-2.032h-4.75zm5.797 3h3.672v1.453h-5.563v8.812c0 .414-.054.735-.156.953-.105.227-.351.414-.734.563-.375.156-1.23.219-2.563.187l-.515-1.422c.32.008 1.02.016 2.093.016.145-.012.239-.043.282-.094.039-.043.062-.12.062-.234v-8.781h-5.422v-1.453h7.328l.36-1.704h-5.406l-.907-.906c.352-.957.82-2.789 1.407-5.5l1.53.156-.374 1.625 4.969.094.984 1.219c-.219 1.324-.57 2.996-1.047 5.016zm17.856-4.751h-5.75l-2.375 2.688h5.812zm4.109 8.032v-3.828h-5.25v3.828zm-11.89-3.828v3.828h5.046v-3.828zm2.827 10.656h8.563c1.07 0 1.77-.211 2.094-.64.32-.426.547-1.38.672-2.86l1.562.594c-.187 1.761-.555 2.933-1.094 3.515-.543.582-1.62.875-3.234.875h-8.453c-1.762 0-2.961-.215-3.594-.64-.625-.418-.937-1.25-.937-2.5v-9.375c-.5.46-1.153.965-1.954 1.515l-.875-1.53c1.375-.833 2.676-1.892 3.907-3.173 1.226-1.289 2.21-2.656 2.953-4.094l1.453.547-.813 1.438 6.11-.094 1.078.781-2.813 3.47h4.844l1.203 1.218v6.656h-1.61v-.969h-11.89v3.641c0 .656.172 1.094.516 1.312.375.211 1.144.313 2.312.313zm20.872-15.734v3.953h3.828v1.531h-3.828v.562c1.101 1.157 2.332 2.575 3.687 4.25l-1 1.344-2.687-3.719v9.61h-1.594v-9.672c-1.211 2.855-2.516 5.039-3.922 6.547l-.922-1.485c.82-.82 1.633-1.914 2.438-3.28a24.363 24.363 0 0 0 1.984-4.157h-3.875v-1.531h4.297v-3.64c-1.137.179-2.352.355-3.64.53l-.454-1.312c3.738-.508 6.492-1.113 8.266-1.813l1.109 1.266zm6.187 13.218h4.906V426.98h-4.906zm-1.61-12.468l1.22-1.22h5.718l1.203 1.22v15.703h-1.625v-1.64h-4.906v1.796h-1.61zm31.153 7.515v1.61h-9.016v7.703h-1.672v-7.703h-8.89v-1.61h8.89v-7.672h-7.75v-1.609h17.204v1.61h-7.782v7.671zm-16.89-6.156l1.421-.438c1.082 1.907 1.781 3.56 2.094 4.954l-1.547.53c-.344-1.507-1-3.19-1.969-5.046zm11.656 5.11l-1.391-.47c.906-1.519 1.695-3.25 2.375-5.187l1.719.484c-.98 2.188-1.883 3.915-2.703 5.172zM184.504 454.73h5.469l1.875.921c.57.899 1.718 2.028 3.437 3.39 1.719 1.356 3.457 2.403 5.219 3.141l-1.11 1.422c-1.656-.77-3.296-1.816-4.921-3.14-1.618-1.32-2.997-2.719-4.141-4.188-1.117 1.387-2.523 2.778-4.219 4.172-1.687 1.375-3.312 2.48-4.875 3.313l-1-1.313c1.363-.633 2.79-1.516 4.281-2.64 1.508-1.145 2.813-2.329 3.907-3.547h-3.922zm6.594 13.75v3.64h8.578v1.5h-18.578v-1.5h8.328v-3.64h-6.157v-1.454h6.157v-3.375h-5.203v-1.469h12.265v1.47h-5.39v3.374h6.25v1.453zm17.449-1.063l.312 1.453c-.312.137-2.32.934-6.015 2.39l-.532-1.593 2.579-.906v-7.766h-2.282v-1.516h2.282v-5.093h1.515v5.093h2.094v1.516h-2.094v7.219zm11.765-5.969l1.516.25c-.73 2.887-1.758 5.356-3.078 7.406.562 2.23 1.203 3.344 1.922 3.344.394 0 .633-1.203.719-3.61l1.218.844c-.125 1.657-.34 2.79-.64 3.391-.293.613-.793.922-1.5.922-1.18 0-2.125-1.102-2.844-3.297-1.094 1.387-2.32 2.535-3.672 3.453l-1.14-1.125c1.656-1.031 3.097-2.414 4.328-4.156-.543-2.469-.891-5.754-1.047-9.86h-5.157v2.954h3l1.188 2.047c.008 3.449-.184 5.43-.578 5.937-.23.356-.59.559-1.078.61-.48.054-1.153.054-2.016 0l-.375-1.376c.5.043 1.07.063 1.719.063.289 0 .46-.07.515-.219.207-.281.344-2.176.407-5.687h-2.782v.968c0 4.555-.906 7.887-2.718 10l-1.22-1.046a8.387 8.387 0 0 0 1.938-3.938c.32-1.508.485-3.187.485-5.031v-5.594l1.219-1.203h5.406l-.063-3.36h1.563l.015 3.36h4.641v1.516h-4.594c.102 2.906.336 5.546.703 7.921.82-1.52 1.489-3.347 2-5.484zm.282-3.953l-2.61-2.516 1.094-.703 2.625 2.469zm14.496 10.235v4.28c1.113.243 2.476.36 4.093.36 1.29.043 3.036.031 5.235-.031l-.594 1.61h-4.703c-2.586 0-4.71-.329-6.375-.985-1.68-.645-3.027-1.867-4.047-3.672-.824 2.21-1.93 3.867-3.312 4.984l-1.204-1.078c1.22-.937 2.141-2.219 2.766-3.844.645-1.625 1.067-3.379 1.266-5.265l1.672.218a36.82 36.82 0 0 1-.579 3c.852 2.043 2.235 3.45 4.141 4.22v-8.735h-8.672v-1.531h8.672v-3.016h-6.781v-1.516h6.781v-2.53h1.64v2.53h7.126v1.516h-7.125v3.016h8.765v1.53h-8.765v3.438h7.312v1.5zm28.715-11.298h-4.266v1.829h4.266zm-4.454 5.016h4.454v-1.906h-4.266zm4.454 1.281h-4.72c-.417 1.68-1.163 3.028-2.234 4.047l-1.296-.765c1.664-1.551 2.5-3.926 2.5-7.125v-2.61l1.218-1.203h4.86l1.203 1.203v9.031c0 .43-.055.758-.156.985-.094.219-.313.414-.657.578-.336.148-1.273.219-2.812.219l-.485-1.485c.657.032 1.391.047 2.204.047.25-.008.375-.133.375-.375zm-12.891-.437l.078-3.781h-4.578v-1.375h3.156c-.312-.727-.781-1.489-1.406-2.282l1.156-.53c.75.886 1.266 1.687 1.547 2.405l-.844.407h2.532l1.5-2.813 1.421.438-1.421 2.375h2.953v1.375h-4.532v3.78h2.375v-2.812h1.375v4.75h-1.375v-.593h-2.78c-.575 1.625-1.888 2.902-3.938 3.828l-1.016-1.125c1.688-.707 2.797-1.61 3.328-2.703h-1.953l-1.219-1.22v-2.937h1.375v2.813zm6.172 9.75h9.156v1.453h-19.828v-1.453h9.031v-2.453h-6.765v-1.422h6.765v-1.36h1.64v1.36h6.876v1.422h-6.875zm17.246-15.156l-1.313.734-1.609-2.922 1.234-.64zm3.5.984v1.344h-9.047v-1.344zm-.969 5.734v1.297h-7.11v-1.297zm-1.406 4.297h-4.094v3.625h4.094zm.219-1.36l1.203 1.204v3.937l-1.203 1.22h-4.313v1.03h-1.422v-6.187l1.203-1.203zm-5.922-4.5v-1.296h7.156v1.297zm18.5-.327v1.61h-4.5v10.905h-1.656v-10.906h-4.313v-1.61h4.313v-7.171h1.656v7.172zm2.152 11.968l-.125-1.312c3.77-.164 7.973-.36 12.61-.578l-.047 1.25c-6.711.351-10.856.566-12.438.64zm9.75-5.578v-1.062h-2.812v1.062zm0 1.953v-1.062h-2.812v1.062zm-7.062-1.062v1.062h2.843v-1.062zm0-1.953v1.062h2.843v-1.062zm-1.344.312l1.219-1.218h7.359l1.219 1.218v2.422l-1.219 1.203h-7.36l-1.218-1.203zm8.39-7.375v-1.187h-2.89v1.187zm-2.89-3.39v1.078h2.89v-1.078zm3.125-1.032l1.187 1.204v.906h1.375v1.125h-1.375v1.015l-1.187 1.204h-3.125v1h4.625v1.03h-4.625v1.016h5.547v1.141h-12.36v-1.14h5.328v-1.016h-4.296v-1.031h4.296v-1h-4.14v-1.032h4.14v-1.187h-5.468v-1.125h5.468v-1.078h-4.062v-1.032h4.062v-1.406h1.485v1.406zm4.86 1.204v12.109h-1.485v-12.11zm2.671-2.188h1.531v17.594c0 .5-.07.879-.203 1.14-.125.27-.351.477-.672.625-.48.188-1.617.282-3.406.282l-.516-1.578c1.364.039 2.243.046 2.641.015.414-.012.625-.172.625-.484zm15.574 5.547a1.647 1.647 0 0 1-1.172.453c-.46 0-.851-.148-1.171-.453-.325-.313-.485-.707-.485-1.188 0-.488.16-.882.485-1.187a1.61 1.61 0 0 1 1.171-.469c.457 0 .848.156 1.172.469.332.305.5.7.5 1.187 0 .48-.168.875-.5 1.188zm0 10.781a1.647 1.647 0 0 1-1.172.453c-.46 0-.851-.148-1.171-.453-.325-.312-.485-.71-.485-1.203 0-.5.16-.898.485-1.203a1.61 1.61 0 0 1 1.171-.469c.457 0 .848.164 1.172.485.332.312.5.714.5 1.203 0 .48-.168.875-.5 1.187zm-141.945 32.391v-16.14h1.25l1.61 1.109 3.953 10.89 3.78-10.89 1.61-1.11h1.25v16.14h-1.906v-8.937c0-.906.086-2.488.266-4.75l-4.422 12.063h-1.36l-4.343-12.063c.101 2.586.156 4.168.156 4.75v8.938zm20.658-9.016l-.797 2.453h4.89l-.78-2.453c-.438-1.363-.981-3.18-1.626-5.453-.46 1.492-1.023 3.309-1.687 5.453zm-4.938 9.016l5.485-16.14h1.047l1.593 1.14 5.094 15h-2.156l-1.531-4.922h-5.891l-1.563 4.922zm15.493 0v-16.14h2.046v16.14zm6.444 0v-16.14h.907l1.78 1.03 7.126 12.47c-.18-2.614-.266-4.317-.266-5.11v-8.39h1.938v14.937l-1.219 1.203h-.875l-7.61-13.516c.102 2.98.157 4.664.157 5.047v8.469zm20.808 0v-14.938l1.204-1.203h3.406c4.02 0 6.031 1.586 6.031 4.75 0 1.656-.539 2.903-1.61 3.735-1.054.836-2.495 1.25-4.327 1.25h-2.656v6.406zm2.048-8.047h2.39c1.426 0 2.477-.27 3.156-.813.688-.55 1.032-1.39 1.032-2.515 0-1.145-.344-1.942-1.032-2.39-.699-.47-1.777-.704-3.234-.704h-2.312zm14.652-.969l-.798 2.453h4.89l-.78-2.453c-.438-1.363-.98-3.18-1.625-5.453l-1.688 5.453zm-4.938 9.016l5.484-16.14h1.047l1.594 1.14 5.093 15h-2.156l-1.531-4.922h-5.89l-1.563 4.922zm26.82-1.578c-1.211 1.242-2.887 1.86-5.031 1.86-2.137 0-3.875-.743-5.22-2.235-1.335-1.5-2-3.532-2-6.094 0-2.57.688-4.613 2.063-6.125 1.375-1.508 3.149-2.266 5.329-2.266 1.843 0 3.39.668 4.64 2l-1.11 1.328c-.96-1.03-2.12-1.546-3.484-1.546-1.636 0-2.937.59-3.906 1.765-.969 1.18-1.453 2.781-1.453 4.813 0 2.031.473 3.64 1.422 4.828.937 1.168 2.258 1.75 3.969 1.75 1.257 0 2.226-.313 2.906-.938v-4.234H273.3v-1.688h4.062l1.219 1.204zm5.03 1.578l-1.203-1.203v-13.735l1.203-1.203h8.094v1.735h-7.25v5.062h6.11v1.734h-6.11v5.875h7.5v1.735zm0 0" fill="#3E3A39"/></svg>