<svg xmlns="http://www.w3.org/2000/svg" width="1080" viewBox="0 0 810 810" height="1080" version="1"><defs><clipPath id="a"><path d="M149.887 24h510v509.902h-510zm0 0"/></clipPath></defs><path fill="#FFF" d="M-81 -81H891V891H-81z"/><path fill="#FFF" d="M-81 -81H891V891H-81z"/><path fill="#FFF" d="M-81 -81H891V891H-81z"/><g clip-path="url(#a)"><path fill="#4DD171" d="M641.207 216.621L480.027 55.418a109.219 109.219 0 0 0-3.78-3.59c-1.294-1.168-2.61-2.3-3.954-3.402a107.324 107.324 0 0 0-8.379-6.2 105.625 105.625 0 0 0-8.95-5.348 103.65 103.65 0 0 0-4.655-2.339 107.83 107.83 0 0 0-9.637-3.984 109.412 109.412 0 0 0-4.95-1.633 107.42 107.42 0 0 0-15.25-3.418 109.428 109.428 0 0 0-5.175-.637 105.317 105.317 0 0 0-10.41-.508 105.59 105.59 0 0 0-15.586 1.145 107.577 107.577 0 0 0-15.25 3.418c-1.664.504-3.317 1.05-4.953 1.633a107.646 107.646 0 0 0-14.293 6.324 108.044 108.044 0 0 0-4.54 2.562c-1.492.895-2.96 1.82-4.406 2.786a107.324 107.324 0 0 0-8.379 6.199 102.413 102.413 0 0 0-3.953 3.402 105.79 105.79 0 0 0-3.78 3.59L168.561 216.621a63.178 63.178 0 0 0-13.855 20.66 63.152 63.152 0 0 0-3.621 11.965 63.094 63.094 0 0 0-1.2 12.445v208.61c0 1.043.024 2.086.075 3.129a64.112 64.112 0 0 0 .613 6.226 62.716 62.716 0 0 0 1.223 6.137c.254 1.012.531 2.016.832 3.016a66.005 66.005 0 0 0 2.11 5.89 64.502 64.502 0 0 0 2.676 5.656 62.252 62.252 0 0 0 1.542 2.72 61.554 61.554 0 0 0 1.672 2.644c.582.867 1.18 1.722 1.8 2.558.622.84 1.266 1.66 1.926 2.47a69.303 69.303 0 0 0 2.043 2.366 65.724 65.724 0 0 0 4.426 4.426c.774.7 1.563 1.379 2.367 2.043.809.66 1.63 1.305 2.47 1.926a61.433 61.433 0 0 0 2.558 1.8 61.554 61.554 0 0 0 2.644 1.672c.895.54 1.801 1.051 2.723 1.543.918.493 1.851.961 2.793 1.407.941.449 1.898.87 2.86 1.27a66.005 66.005 0 0 0 5.89 2.11c1 .3 2.004.577 3.016.83a62.716 62.716 0 0 0 6.136 1.223 63.557 63.557 0 0 0 9.356.688h382.5c1.043 0 2.086-.024 3.129-.074a63.952 63.952 0 0 0 9.308-1.149 66.12 66.12 0 0 0 6.066-1.52c1-.304 1.989-.632 2.973-.984a66.06 66.06 0 0 0 2.918-1.125c.965-.398 1.918-.82 2.86-1.27a62.343 62.343 0 0 0 5.52-2.949 64.075 64.075 0 0 0 5.202-3.472 65.207 65.207 0 0 0 4.836-3.969 69.494 69.494 0 0 0 2.266-2.16 65.205 65.205 0 0 0 4.2-4.633 61.55 61.55 0 0 0 1.925-2.469 61.433 61.433 0 0 0 1.8-2.558 58.022 58.022 0 0 0 1.676-2.645c.536-.894 1.051-1.8 1.543-2.719a64.502 64.502 0 0 0 2.672-5.656c.403-.965.778-1.937 1.13-2.922.35-.98.675-1.972.98-2.968a62.704 62.704 0 0 0 1.52-6.07 63.505 63.505 0 0 0 1.148-9.31c.05-1.042.078-2.085.078-3.128V261.69a63.164 63.164 0 0 0-4.824-24.41 63.178 63.178 0 0 0-13.856-20.66zm-172.57 274.93h-127.5v-83.598c0-1.043.023-2.086.074-3.125a64.112 64.112 0 0 1 1.148-9.308c.204-1.024.434-2.043.688-3.055.254-1.012.531-2.016.832-3.016.305-1 .633-1.988.984-2.972a66.06 66.06 0 0 1 1.125-2.918c.399-.965.82-1.918 1.27-2.86a62.343 62.343 0 0 1 2.949-5.52 66.813 66.813 0 0 1 1.672-2.644 65.227 65.227 0 0 1 3.726-5.023 65.736 65.736 0 0 1 2.043-2.367 65.846 65.846 0 0 1 2.16-2.27 65.205 65.205 0 0 1 4.633-4.2 61.55 61.55 0 0 1 2.47-1.925 61.433 61.433 0 0 1 2.558-1.8 64.188 64.188 0 0 1 8.16-4.625 64.207 64.207 0 0 1 2.86-1.266 60.122 60.122 0 0 1 2.921-1.13 65.95 65.95 0 0 1 2.969-.98c1-.3 2.004-.582 3.016-.836 1.011-.25 2.03-.48 3.054-.683a63.505 63.505 0 0 1 9.309-1.149 64.333 64.333 0 0 1 3.129-.078 64.333 64.333 0 0 1 9.351.692c1.035.152 2.063.332 3.086.535a67.46 67.46 0 0 1 3.051.683c1.012.254 2.02.535 3.016.836a61.577 61.577 0 0 1 5.89 2.11c.965.398 1.918.82 2.86 1.265.945.446 1.875.918 2.796 1.406a64.16 64.16 0 0 1 12.762 8.988 62.194 62.194 0 0 1 4.422 4.426c.7.77 1.383 1.563 2.043 2.368a61.549 61.549 0 0 1 1.926 2.468 62.673 62.673 0 0 1 5.02 7.922c.492.922.96 1.852 1.406 2.797.445.942.867 1.895 1.265 2.86a61.577 61.577 0 0 1 2.11 5.89 62.704 62.704 0 0 1 1.52 6.07 62.69 62.69 0 0 1 .917 6.188 64.112 64.112 0 0 1 .309 6.246zm148.75-21.25c0 .699-.035 1.39-.102 2.086a21.203 21.203 0 0 1-.816 4.082c-.2.668-.434 1.324-.7 1.965a21.922 21.922 0 0 1-1.964 3.675c-.387.579-.801 1.137-1.242 1.672a21.04 21.04 0 0 1-1.403 1.547c-.492.492-1.004.957-1.543 1.402a21.215 21.215 0 0 1-5.348 3.203 21.28 21.28 0 0 1-6.05 1.516c-.692.07-1.387.102-2.082.102h-85v-83.598c0-1.738-.043-3.476-.13-5.21a105.138 105.138 0 0 0-1.023-10.379 107.577 107.577 0 0 0-2.031-10.227 112.51 112.51 0 0 0-1.39-5.024 105.061 105.061 0 0 0-3.516-9.82 101.53 101.53 0 0 0-2.113-4.766 103.858 103.858 0 0 0-2.344-4.66 108.07 108.07 0 0 0-5.36-8.941 111.637 111.637 0 0 0-3.003-4.266 108.365 108.365 0 0 0-3.207-4.11 105.896 105.896 0 0 0-14.73-14.727 104.616 104.616 0 0 0-8.376-6.214 107.313 107.313 0 0 0-8.941-5.359 103.858 103.858 0 0 0-4.66-2.344 105.759 105.759 0 0 0-14.586-5.625 101.686 101.686 0 0 0-5.024-1.39 102.96 102.96 0 0 0-5.09-1.145 103.74 103.74 0 0 0-5.136-.89 105.137 105.137 0 0 0-10.38-1.024 105.32 105.32 0 0 0-10.425 0 104.556 104.556 0 0 0-10.375 1.023 103.894 103.894 0 0 0-10.227 2.036c-1.687.421-3.363.882-5.027 1.39a104.87 104.87 0 0 0-4.953 1.633 107.704 107.704 0 0 0-9.633 3.992 105.78 105.78 0 0 0-17.863 10.707 101.912 101.912 0 0 0-4.114 3.211 105.432 105.432 0 0 0-3.949 3.406 102.404 102.404 0 0 0-3.777 3.594 109.4 109.4 0 0 0-3.594 3.778 108.467 108.467 0 0 0-6.617 8.059 107.322 107.322 0 0 0-3 4.265 103.363 103.363 0 0 0-2.793 4.406c-.89 1.492-1.75 3.004-2.57 4.535a112.871 112.871 0 0 0-2.344 4.66c-.742 1.57-1.445 3.16-2.113 4.766-.664 1.61-1.29 3.23-1.875 4.867a104.92 104.92 0 0 0-1.637 4.953 107.485 107.485 0 0 0-2.535 10.114 105.116 105.116 0 0 0-1.527 10.313c-.172 1.73-.301 3.464-.387 5.202a110.324 110.324 0 0 0-.125 5.211v83.598h-85c-.696 0-1.39-.031-2.082-.102a20.419 20.419 0 0 1-2.067-.304 21.204 21.204 0 0 1-3.984-1.211 20.783 20.783 0 0 1-1.887-.891 20.813 20.813 0 0 1-3.46-2.313 20.988 20.988 0 0 1-2.945-2.95 20.813 20.813 0 0 1-1.243-1.67 20.783 20.783 0 0 1-1.965-3.676 21.342 21.342 0 0 1-1.211-3.985 20.507 20.507 0 0 1-.305-2.062 20.659 20.659 0 0 1-.101-2.086V261.69a21.4 21.4 0 0 1 6.226-15.023l161.18-161.14a63.721 63.721 0 0 1 4.644-4.188 63.304 63.304 0 0 1 5.032-3.719 64.66 64.66 0 0 1 5.367-3.207 64.318 64.318 0 0 1 11.547-4.766 63.802 63.802 0 0 1 18.504-2.734c2.086 0 4.168.102 6.246.305a63.491 63.491 0 0 1 12.254 2.43 63.983 63.983 0 0 1 21.949 11.69 63.662 63.662 0 0 1 4.64 4.188L611.16 246.73a21.36 21.36 0 0 1 4.582 6.868 21.489 21.489 0 0 1 1.645 8.094zm0 0"/></g><path d="M133.749 739.56c-.262 0-.391.151-.391.452v16.266c0 .117.035.195.11.234.07.031.163.028.28-.015 1.739-.77 3.298-1.438 4.673-2a1.362 1.362 0 0 1 1.234.03c.406.212.664.532.781.97.102.523.047 1.007-.172 1.453-.218.449-.554.781-1 1a1746.57 1746.57 0 0 1-14.047 6.25c-.523.218-1.03.23-1.53.031a1.88 1.88 0 0 1-1.063-1.094c-.2-.52-.188-1.031.03-1.531.22-.5.587-.844 1.11-1.031 1.301-.489 3.16-1.25 5.578-2.282.258-.113.391-.3.391-.562v-17.719c0-.3-.133-.453-.39-.453h-5.235c-.492 0-.914-.172-1.266-.516a1.73 1.73 0 0 1-.515-1.25c0-.488.172-.91.515-1.265a1.73 1.73 0 0 1 1.266-.531h5.234c.258 0 .391-.145.391-.438v-10.875c0-.476.176-.894.531-1.25a1.752 1.752 0 0 1 1.282-.531c.5 0 .925.18 1.28.531.352.356.532.774.532 1.25v10.875c0 .293.129.438.39.438h4.626c.52 0 .953.18 1.297.53.351.356.53.778.53 1.266 0 .48-.179.899-.53 1.25-.344.344-.778.516-1.297.516zm18.718 29.921h14.204c1.488 0 2.507-.414 3.062-1.25.563-.832.938-2.55 1.125-5.156.04-.407.242-.707.61-.907.374-.207.765-.218 1.171-.03.52.218.93.554 1.235 1 .257.405.39.812.39 1.218 0 2.937-.687 5.203-2.062 6.797-1.012 1.156-2.813 1.734-5.406 1.734h-14.391c-3.188 0-5.34-.484-6.453-1.453-1.117-.96-1.672-2.89-1.672-5.797v-18.156c0-.113-.04-.195-.11-.25-.074-.063-.167-.07-.28-.031l-2.735 1.172c-.45.218-.906.242-1.375.062a1.88 1.88 0 0 1-1.016-.953 1.773 1.773 0 0 1-.172-.734c0-.22.036-.438.11-.657.187-.488.52-.828 1-1.015l4.187-1.719c.258-.113.39-.316.39-.61v-13.484c0-.488.177-.91.532-1.265a1.752 1.752 0 0 1 1.281-.532c.5 0 .926.18 1.282.532.351.355.53.777.53 1.265v11.969c0 .074.036.14.11.203.07.055.164.063.282.031l7.406-3.125c.258-.113.39-.316.39-.609v-13.719c0-.476.176-.894.532-1.25a1.752 1.752 0 0 1 1.28-.531c.5 0 .927.18 1.282.531.352.356.531.774.531 1.25v12.266c0 .074.036.14.11.203.07.055.164.059.281.016l7.469-3.172a.95.95 0 0 0 .39-.219l.329-.281c.445-.407.945-.61 1.5-.61.3 0 .597.075.89.22l.735.28c.406.149.55.446.437.891v.156c0 12.418-.203 19.59-.61 21.516-.335 2.043-1.374 3.23-3.124 3.562-.813.188-1.98.305-3.5.344a1.802 1.802 0 0 1-1.328-.453 2.163 2.163 0 0 1-.735-1.219c-.117-.375-.055-.726.188-1.062.238-.332.562-.485.968-.453h2.235c.969 0 1.562-.536 1.781-1.61.3-1.3.453-6.969.453-17 0-.101-.039-.18-.11-.234-.073-.063-.167-.078-.28-.047l-7.688 3.297c-.262.117-.39.297-.39.547v18.89c0 .524-.18.961-.532 1.313a1.743 1.743 0 0 1-1.281.531c-.5 0-.93-.176-1.281-.531-.356-.352-.532-.79-.532-1.313v-17.375c0-.113-.039-.195-.109-.25-.074-.062-.168-.07-.281-.03l-7.406 3.171c-.262.117-.391.305-.391.562v19.72c0 1.562.285 2.593.86 3.093.57.5 1.804.75 3.702.75zm0 0" fill="#4DD171"/><path d="M196.996 753.887a1.41 1.41 0 0 1 1.187.094c.395.2.63.523.703.969.114.48.055.933-.171 1.36-.22.429-.555.733-1 .921-5.95 2.605-11.11 4.797-15.485 6.578a1.76 1.76 0 0 1-1.484 0c-.5-.226-.844-.582-1.031-1.062a1.491 1.491 0 0 1-.172-.72c0-.257.054-.519.172-.78a1.844 1.844 0 0 1 1.109-1.016 96.723 96.723 0 0 1 3.062-1.156l3.188-1.172c.289-.113.437-.32.437-.625v-17.266c0-.3-.148-.453-.437-.453h-5.688a1.73 1.73 0 0 1-1.25-.516 1.7 1.7 0 0 1-.53-1.25c0-.488.175-.91.53-1.265.352-.352.77-.531 1.25-.531h5.688c.289 0 .437-.145.437-.438v-10.766c0-.52.164-.953.5-1.296a1.705 1.705 0 0 1 1.266-.532c.5 0 .926.18 1.281.532.352.343.532.777.532 1.296v10.766c0 .293.144.438.437.438h5.344c.488 0 .91.18 1.265.53.352.356.532.778.532 1.266 0 .48-.18.899-.532 1.25a1.759 1.759 0 0 1-1.265.516h-5.344c-.293 0-.437.152-.437.453v15.828c0 .075.035.141.109.203.07.055.164.059.281.016zm21.11 14.313c0 .261.148.39.452.39h11.032c.476 0 .894.18 1.25.532.351.355.53.78.53 1.28s-.179.927-.53 1.282c-.356.352-.774.531-1.25.531h-33.157c-.523 0-.949-.18-1.281-.53a1.794 1.794 0 0 1-.5-1.282c0-.5.164-.926.5-1.281.332-.352.758-.532 1.281-.532h4.907c.289 0 .437-.129.437-.39v-31.703c0-.477.176-.907.531-1.282.352-.375.79-.562 1.313-.562.52 0 .957.187 1.312.562.352.375.532.805.532 1.282V768.2c0 .261.144.39.437.39h7.969c.3 0 .453-.129.453-.39v-43.688c0-.52.18-.96.547-1.328a1.83 1.83 0 0 1 1.344-.562c.52 0 .96.187 1.328.562.375.367.562.809.562 1.328v17.172c0 .262.149.39.453.39h10.25c.477 0 .907.18 1.282.532.375.355.562.793.562 1.312 0 .512-.187.946-.562 1.297-.375.356-.805.532-1.282.532h-10.25c-.304 0-.453.132-.453.39zm0 0" fill="#4DD171"/><path d="M251.54 768.325c.375.437.562.918.562 1.437 0 .707-.261 1.285-.78 1.735-.407.375-.892.562-1.454.562a.454.454 0 0 1-.219-.062c-.594-.043-1.094-.305-1.5-.782a96.278 96.278 0 0 0-9.531-9.53c-.45-.364-.672-.849-.672-1.454 0-.55.203-1.031.61-1.438a2.74 2.74 0 0 1 1.671-.671h.063c.625 0 1.16.203 1.61.609 3.195 2.793 6.41 5.992 9.64 9.594zm0 0" fill="#4DD171"/><path d="M304.928 739.56c-.262 0-.391.151-.391.452v16.266c0 .117.035.195.11.234.07.031.163.028.28-.015 1.739-.77 3.297-1.438 4.672-2a1.362 1.362 0 0 1 1.235.03c.406.212.664.532.781.97.102.523.047 1.007-.172 1.453-.219.449-.554.781-1 1a1746.57 1746.57 0 0 1-14.047 6.25c-.523.218-1.03.23-1.53.031a1.88 1.88 0 0 1-1.063-1.094c-.2-.52-.188-1.031.03-1.531.22-.5.587-.844 1.11-1.031 1.301-.489 3.16-1.25 5.578-2.282.258-.113.391-.3.391-.562v-17.719c0-.3-.133-.453-.39-.453h-5.235c-.492 0-.914-.172-1.266-.516a1.73 1.73 0 0 1-.515-1.25c0-.488.172-.91.515-1.265a1.73 1.73 0 0 1 1.266-.531h5.234c.258 0 .391-.145.391-.438v-10.875c0-.476.176-.894.531-1.25a1.752 1.752 0 0 1 1.281-.531c.5 0 .926.18 1.282.531.351.356.531.774.531 1.25v10.875c0 .293.129.438.39.438h4.626c.52 0 .953.18 1.296.53.352.356.532.778.532 1.266 0 .48-.18.899-.532 1.25-.343.344-.777.516-1.296.516zm18.718 29.921h14.203c1.489 0 2.508-.414 3.063-1.25.562-.832.937-2.55 1.125-5.156.039-.407.242-.707.61-.907.374-.207.765-.218 1.171-.03.52.218.93.554 1.235 1 .257.405.39.812.39 1.218 0 2.937-.687 5.203-2.062 6.797-1.012 1.156-2.813 1.734-5.407 1.734h-14.39c-3.188 0-5.34-.484-6.453-1.453-1.117-.96-1.672-2.89-1.672-5.797v-18.156c0-.113-.04-.195-.11-.25-.074-.063-.168-.07-.28-.031l-2.735 1.172c-.45.218-.906.242-1.375.062a1.88 1.88 0 0 1-1.016-.953 1.773 1.773 0 0 1-.172-.734c0-.22.035-.438.11-.657.187-.488.52-.828 1-1.015l4.187-1.719c.258-.113.39-.316.39-.61v-13.484c0-.488.177-.91.532-1.265a1.752 1.752 0 0 1 1.281-.532c.5 0 .926.18 1.282.532.351.355.53.777.53 1.265v11.969c0 .074.036.14.11.203.07.055.164.063.281.031l7.407-3.125c.258-.113.39-.316.39-.609v-13.719c0-.476.176-.894.532-1.25a1.752 1.752 0 0 1 1.28-.531c.5 0 .927.18 1.282.531.352.356.531.774.531 1.25v12.266c0 .074.035.14.11.203.07.055.164.059.281.016l7.469-3.172a.95.95 0 0 0 .39-.219l.328-.281c.446-.407.946-.61 1.5-.61.301 0 .598.075.891.22l.734.28c.407.149.551.446.438.891v.156c0 12.418-.203 19.59-.61 21.516-.335 2.043-1.374 3.23-3.124 3.562-.813.188-1.98.305-3.5.344a1.802 1.802 0 0 1-1.329-.453 2.163 2.163 0 0 1-.734-1.219c-.117-.375-.055-.726.188-1.062.238-.332.562-.485.968-.453h2.235c.968 0 1.562-.536 1.781-1.61.3-1.3.453-6.969.453-17 0-.101-.039-.18-.11-.234-.074-.063-.167-.078-.28-.047l-7.688 3.297c-.262.117-.39.297-.39.547v18.89c0 .524-.18.961-.532 1.313a1.743 1.743 0 0 1-1.281.531c-.5 0-.93-.176-1.281-.531-.356-.352-.532-.79-.532-1.313v-17.375c0-.113-.039-.195-.109-.25-.074-.062-.168-.07-.281-.03l-7.407 3.171c-.261.117-.39.305-.39.562v19.72c0 1.562.285 2.593.86 3.093.57.5 1.804.75 3.702.75zm0 0" fill="#4DD171"/><path d="M373.19 754.56c-.304 0-.453.132-.453.39v2.781c0 .262.149.39.453.39h6.297c.258 0 .39-.128.39-.39v-2.781c0-.258-.132-.39-.39-.39zm.391 5.671c-.898 0-1.672-.32-2.328-.969-.649-.644-.969-1.414-.969-2.312v-1.219c0-.938.32-1.719.969-2.344.656-.633 1.43-.953 2.328-.953h5.625c.883 0 1.648.32 2.297.953.656.625.984 1.406.984 2.344v1.219c0 .898-.328 1.668-.984 2.312-.649.649-1.414.969-2.297.969zm-6.75-10.36c-.262 0-.39.133-.39.391v12.094c0 .293.128.437.39.437h19.062c.258 0 .391-.144.391-.437v-12.094c0-.258-.133-.39-.39-.39zm-.219 15.438c-.898 0-1.672-.32-2.328-.969-.648-.656-.969-1.425-.969-2.312V750.59c0-.882.32-1.648.97-2.297.655-.656 1.429-.984 2.327-.984h19.61c.925 0 1.707.328 2.343.984.633.649.953 1.415.953 2.297v11.438c0 .887-.32 1.656-.953 2.312-.636.649-1.418.97-2.343.97zm2.172-32.156c-.262 0-.39.133-.39.39v3.235c0 .262.128.39.39.39h15.203c.258 0 .39-.128.39-.39v-3.235c0-.257-.132-.39-.39-.39zm9.14 8.75c0 .262.13.39.391.39h14.266c.332 0 .617.122.86.36.238.242.359.539.359.89 0 .356-.121.649-.36.875a1.237 1.237 0 0 1-.859.329h-32.047c-.336 0-.621-.11-.86-.329-.241-.226-.359-.52-.359-.875 0-.351.118-.648.36-.89.238-.238.523-.36.86-.36h13.702c.258 0 .39-.128.39-.39v-1.953c0-.29-.132-.438-.39-.438h-5.797c-.886 0-1.656-.316-2.312-.953-.649-.633-.969-1.414-.969-2.344v-2.172c0-.925.32-1.703.969-2.328.656-.632 1.426-.953 2.312-.953h16c.895 0 1.664.32 2.313.953.644.625.969 1.403.969 2.328v2.172c0 .93-.325 1.711-.97 2.344-.648.637-1.417.953-2.312.953h-6.125c-.261 0-.39.149-.39.438zm-21.452 26.25c0 .262.129.39.39.39h39.219c.258 0 .39-.128.39-.39v-39.844c0-.3-.132-.453-.39-.453h-39.219c-.261 0-.39.152-.39.453zm-3.579-40.235c0-.894.32-1.664.97-2.312.655-.645 1.429-.969 2.327-.969h40.672c.895 0 1.664.324 2.313.969.656.648.984 1.418.984 2.312v44.36c0 .52-.18.953-.531 1.297a1.758 1.758 0 0 1-1.281.531c-.5 0-.938-.18-1.313-.531a1.687 1.687 0 0 1-.562-1.297v-.172c0-.148-.075-.219-.22-.219H356.69c-.148 0-.218.07-.218.219v.219c0 .488-.18.906-.532 1.25a1.743 1.743 0 0 1-1.265.531c-.48 0-.899-.18-1.25-.531a1.675 1.675 0 0 1-.532-1.25zm0 0" fill="#4DD171"/><path d="M422.719 768.325c.375.437.562.918.562 1.437 0 .707-.261 1.285-.781 1.735-.406.375-.89.562-1.453.562a.454.454 0 0 1-.219-.062c-.594-.043-1.094-.305-1.5-.782a96.278 96.278 0 0 0-9.531-9.53c-.45-.364-.672-.849-.672-1.454 0-.55.203-1.031.61-1.438a2.74 2.74 0 0 1 1.671-.671h.063c.625 0 1.16.203 1.61.609 3.194 2.793 6.41 5.992 9.64 9.594zm0 0" fill="#4DD171"/><path d="M492.825 755.997c-.261 0-.39.152-.39.453v10.812c0 .262.129.43.39.5 2.82.555 6.313.828 10.469.828 5.352 0 9.18-.015 11.484-.047.446 0 .782.204 1 .61.145.219.22.445.22.672 0 .187-.04.351-.11.5a2.984 2.984 0 0 1-.985 1.39c-.46.375-.964.563-1.515.563h-10.266c-6.762 0-12.312-.89-16.656-2.672-4.274-1.707-7.711-4.867-10.313-9.484-.03-.032-.093-.047-.187-.047s-.164.039-.203.11c-1.93 5.054-4.34 8.952-7.235 11.702-.375.332-.804.5-1.28.5h-.11a2.383 2.383 0 0 1-1.406-.61 1.673 1.673 0 0 1-.5-1.234c0-.449.164-.835.5-1.171 4.757-4.344 7.734-11.196 8.921-20.563.07-.55.32-1.004.75-1.36.426-.35.91-.491 1.454-.421.539.074.976.324 1.312.75.332.43.46.902.39 1.422-.304 1.71-.695 3.57-1.171 5.578a1.17 1.17 0 0 0 .047.781c2.27 5.2 5.859 8.805 10.765 10.813.102.03.192.023.266-.032.082-.05.125-.117.125-.203v-22.5c0-.3-.152-.453-.453-.453h-20.5c-.492 0-.914-.176-1.266-.531a1.73 1.73 0 0 1-.515-1.25c0-.477.171-.895.515-1.25a1.73 1.73 0 0 1 1.266-.531h20.5c.258 0 .39-.149.39-.454v-7.343c0-.301-.132-.453-.39-.453h-15.61c-.511 0-.937-.164-1.28-.5-.337-.332-.5-.75-.5-1.25s.163-.914.5-1.25c.343-.344.769-.516 1.28-.516h15.61c.258 0 .39-.129.39-.39v-4.454c0-.52.192-.972.579-1.36.394-.394.851-.593 1.375-.593.519 0 .972.2 1.359.594.394.387.594.84.594 1.36v4.452c0 .262.129.391.39.391h16.594c.488 0 .898.172 1.234.516.332.336.5.75.5 1.25s-.168.918-.5 1.25c-.336.336-.746.5-1.234.5h-16.594c-.261 0-.39.152-.39.453v7.343c0 .305.129.454.39.454h20.672c.477 0 .895.18 1.25.53.352.356.531.774.531 1.25 0 .481-.18.9-.53 1.25a1.712 1.712 0 0 1-1.25.532h-20.673c-.261 0-.39.152-.39.453v8.469c0 .262.129.39.39.39h16.938c.52 0 .945.169 1.281.5.332.337.5.75.5 1.25s-.168.919-.5 1.25c-.336.337-.762.5-1.281.5zm0 0" fill="#4DD171"/><path d="M541.463 723.965a2.213 2.213 0 0 1 1-1c.3-.156.582-.234.844-.234.187 0 .367.039.547.11.445.117.765.386.953.812.187.43.172.828-.047 1.203-.899 1.562-1.64 2.809-2.234 3.734a2.218 2.218 0 0 1-1.032.797c-.43.168-.867.18-1.312.031a1.075 1.075 0 0 1-.766-.718 1.264 1.264 0 0 1 .094-1.063 72.366 72.366 0 0 0 1.953-3.672zm-9.687 3.391c.175.45.16.871-.047 1.266-.2.386-.524.652-.97.796a1.533 1.533 0 0 1-2-.937 38.378 38.378 0 0 0-1.78-3.734 1.18 1.18 0 0 1-.063-1.063c.156-.375.414-.613.781-.719.188-.039.391-.062.61-.062.226 0 .453.039.672.11a1.7 1.7 0 0 1 1 .843c.75 1.219 1.347 2.387 1.797 3.5zm1.89 15.781c.258 0 .39-.148.39-.453v-8.922c0-.258-.132-.39-.39-.39h-10.094c-.406 0-.773-.157-1.093-.47a1.512 1.512 0 0 1-.47-1.109c0-.425.157-.796.47-1.109.32-.32.687-.484 1.093-.484h24.297c.407 0 .766.164 1.078.484.32.313.485.684.485 1.11 0 .43-.164.796-.485 1.109-.312.312-.671.469-1.078.469h-9.968c-.262 0-.391.132-.391.39v8.922c0 .305.129.453.39.453h5.626c.257 0 .39-.148.39-.453v-5.234a1.5 1.5 0 0 1 .5-1.14c.332-.321.723-.485 1.172-.485.445 0 .828.164 1.14.484.313.313.47.695.47 1.14v9.032c0 .437-.157.82-.47 1.14a1.557 1.557 0 0 1-1.14.47c-.45 0-.84-.157-1.172-.47-.336-.32-.5-.703-.5-1.14v-.063c0-.144-.058-.218-.172-.218h-6.015c-.262 0-.407.133-.438.39-.75 4.868-3.855 8.43-9.312 10.688-.293.117-.59.172-.891.172-.637 0-1.25-.332-1.844-1a1.095 1.095 0 0 1-.25-1.032c.094-.382.328-.656.703-.812 2.594-1 4.504-2.156 5.735-3.469 1.226-1.32 2.031-2.836 2.406-4.547.031-.257-.086-.39-.344-.39h-5.687c-.18 0-.266.093-.266.281v.766c0 .449-.164.836-.484 1.156a1.557 1.557 0 0 1-1.14.469 1.55 1.55 0 0 1-1.141-.47 1.598 1.598 0 0 1-.47-1.155v-9.86c0-.445.157-.816.47-1.11.312-.3.69-.452 1.14-.452.445 0 .828.152 1.14.453.321.293.485.664.485 1.11v5.296c0 .305.125.453.375.453zm33.656-14.781c0-.29-.132-.438-.39-.438h-10.813c-.293 0-.437.149-.437.438v4.297c0 .262.144.39.437.39h10.813c.258 0 .39-.128.39-.39zm-11.812 12.547c-.043.293.086.437.39.437h11.032c.258 0 .39-.144.39-.437v-4.453c0-.258-.132-.39-.39-.39h-10.813c-.293 0-.437.132-.437.39v.718a38.34 38.34 0 0 1-.172 3.735zm11.812 3.906c0-.3-.132-.453-.39-.453h-11.485c-.293 0-.476.133-.546.39-.856 3.825-2.477 6.907-4.86 9.25-.336.337-.762.5-1.281.5-.524 0-1-.144-1.438-.437-.336-.226-.523-.555-.562-.984a1.248 1.248 0 0 1 .39-1.078c2.04-1.97 3.407-4.188 4.094-6.657.688-2.476 1.032-5.222 1.032-8.234v-9.078c0-.895.32-1.664.968-2.313.657-.644 1.426-.968 2.313-.968h12.094c.894 0 1.664.324 2.312.968.656.649.984 1.418.984 2.313v23.469c0 1.03-.132 1.82-.39 2.359-.262.543-.746.96-1.453 1.25-.97.418-2.828.64-5.578.672-.524 0-.997-.164-1.422-.5a2.684 2.684 0 0 1-.907-1.219 1.354 1.354 0 0 1 .157-1.14c.226-.352.547-.516.953-.485h4.062c.375-.031.625-.117.75-.266.133-.156.203-.398.203-.734zm-17.89 23.844c0 .305.129.453.39.453h21.844c.477 0 .883.168 1.219.5.344.332.516.727.516 1.187 0 .47-.172.868-.516 1.204-.336.332-.742.5-1.219.5h-48.031c-.48 0-.89-.168-1.234-.5a1.634 1.634 0 0 1-.5-1.204c0-.46.164-.855.5-1.187.343-.332.753-.5 1.234-.5h21.562c.258 0 .391-.148.391-.453v-5.906c0-.258-.133-.391-.39-.391h-15.72c-.437 0-.82-.164-1.14-.5a1.654 1.654 0 0 1-.469-1.172c0-.445.157-.836.469-1.172.32-.332.703-.5 1.14-.5h15.72c.257 0 .39-.129.39-.39v-1.563c0-.52.18-.96.547-1.328a1.868 1.868 0 0 1 1.375-.563c.539 0 .992.188 1.36.563.374.367.562.809.562 1.328v1.563c0 .261.129.39.39.39h16c.438 0 .813.168 1.125.5.32.336.485.727.485 1.172 0 .45-.164.84-.485 1.172-.312.336-.687.5-1.125.5h-16c-.261 0-.39.133-.39.39zm0 0" fill="#4DD171"/><path d="M589.773 730.762c-.106-.258-.309-.39-.61-.39h-1.781c-.262 0-.465.132-.61.39-1.23 1.969-2.53 3.75-3.906 5.344-.336.406-.78.64-1.343.703-.555.055-1.032-.066-1.438-.36-.418-.3-.664-.69-.734-1.171-.074-.488.054-.899.39-1.235 2.633-2.894 4.829-6.347 6.579-10.359.218-.476.55-.832 1-1.062.3-.145.617-.22.953-.22.187 0 .351.016.5.048.476.117.828.398 1.047.843.226.45.25.899.062 1.344-.293.7-.605 1.403-.937 2.11-.075.117-.086.21-.032.28.051.075.133.11.25.11h13.313c.445 0 .828.164 1.14.485.32.312.485.695.485 1.14 0 .438-.164.82-.485 1.14a1.557 1.557 0 0 1-1.14.47h-8.75a.286.286 0 0 0-.25.14c-.055.094-.043.18.031.25a49.22 49.22 0 0 1 1.39 3.281c.157.493.118.961-.109 1.407-.218.437-.574.73-1.062.875a1.457 1.457 0 0 1-1.297-.047c-.43-.227-.719-.582-.875-1.063-.438-1.375-1.031-2.859-1.781-4.453zm.843 32.594c-.336-.219-.511-.54-.53-.969-.024-.426.132-.77.468-1.031.476-.375.976-.563 1.5-.563.445 0 .894.153 1.344.454 2.937 1.968 5.351 3.992 7.25 6.062.363.418.52.887.468 1.406-.054.512-.289.938-.703 1.282-.406.332-.86.468-1.36.406a1.817 1.817 0 0 1-1.25-.688c-1.937-2.156-4.335-4.273-7.187-6.359zm39.391-14.906c.332.312.5.703.5 1.172 0 .468-.168.859-.5 1.171a1.667 1.667 0 0 1-1.172.47h-10.25c-.262 0-.39.152-.39.452v4.453c0 .262.128.391.39.391h8.75c.477 0 .875.168 1.188.5.32.336.484.734.484 1.203 0 .461-.164.86-.484 1.203-.313.336-.711.5-1.188.5h-8.75c-.262 0-.39.133-.39.391v9.25c0 1.187-.168 2.066-.5 2.64-.336.57-.95 1.024-1.844 1.36-1.375.414-3.996.625-7.86.625-.554 0-1.054-.18-1.5-.531a3.263 3.263 0 0 1-1-1.313 1.322 1.322 0 0 1 .11-1.172c.219-.375.55-.562 1-.562 1.375.039 2.547.062 3.515.062 1.407 0 2.41-.039 3.016-.109.438 0 .75-.078.938-.234.187-.149.28-.422.28-.829v-9.187c0-.258-.132-.39-.39-.39h-31.375c-.45 0-.84-.165-1.172-.5a1.66 1.66 0 0 1-.5-1.204c0-.469.164-.867.5-1.203.332-.332.723-.5 1.172-.5h31.375c.258 0 .39-.129.39-.39v-4.454c0-.3-.132-.453-.39-.453h-33.219c-.437 0-.828-.156-1.171-.469a1.53 1.53 0 0 1-.5-1.171c0-.47.164-.86.5-1.172a1.695 1.695 0 0 1 1.171-.469h21.579c.257 0 .39-.148.39-.453v-4.625c0-.29-.133-.438-.39-.438h-16a1.55 1.55 0 0 1-1.141-.468 1.582 1.582 0 0 1-.469-1.141c0-.445.156-.828.469-1.14.312-.321.691-.485 1.14-.485h16c.258 0 .391-.129.391-.39v-2.954a.55.55 0 0 0-.172-.39 1.68 1.68 0 0 1-.703-1.172c-.055-.477.11-.883.485-1.219 2.632-2.645 4.675-5.77 6.125-9.375a2.42 2.42 0 0 1 1-1.11c.3-.144.617-.218.953-.218.144 0 .312.015.5.047.476.117.828.398 1.047.843.226.45.25.899.062 1.344a60.306 60.306 0 0 1-.937 2.11c-.043.117-.047.21-.016.28.039.075.117.11.234.11h16.938c.445 0 .836.164 1.172.485.332.312.5.695.5 1.14 0 .438-.168.82-.5 1.14a1.667 1.667 0 0 1-1.172.47h-10.594c-.105 0-.18.046-.219.14-.031.094-.011.156.063.188a38.599 38.599 0 0 1 2.281 3.562c.219.45.242.899.078 1.344-.168.45-.492.766-.969.953a1.56 1.56 0 0 1-1.343.047c-.45-.188-.782-.5-1-.938a34.338 34.338 0 0 0-3.125-4.968c-.149-.219-.368-.328-.657-.328h-3.296c-.262 0-.465.132-.61.39-1.23 1.781-2.344 3.211-3.344 4.281-.043 0-.054.012-.03.032.019.023.046.031.077.031.301 0 .551.117.75.344.207.218.313.46.313.718v2.672c0 .262.129.391.39.391h16.5c.446 0 .836.164 1.172.484.332.313.5.696.5 1.141 0 .437-.168.82-.5 1.14a1.667 1.667 0 0 1-1.172.47h-16.5c-.261 0-.39.148-.39.437v4.625c0 .305.129.453.39.453h21.844c.445 0 .836.156 1.172.469zm0 0" fill="#4DD171"/><path d="M638.535 756.122c.07-.446.29-.801.657-1.063a1.651 1.651 0 0 1 1.234-.281c.445.074.805.308 1.078.703.281.387.383.82.313 1.297-.782 4.5-1.82 8.258-3.11 11.265-.187.407-.496.68-.922.813-.43.125-.851.094-1.265-.094-.406-.187-.703-.504-.89-.953a1.41 1.41 0 0 1 .063-1.219c1.225-2.707 2.174-6.195 2.842-10.468zm15.204-5.688c-.075-.258-.258-.39-.547-.39l-4.516.328c-.305.043-.453.195-.453.453v21.89c0 .446-.156.836-.469 1.172-.312.332-.703.5-1.172.5-.46 0-.86-.168-1.203-.5a1.603 1.603 0 0 1-.5-1.172v-21.672c0-.257-.148-.39-.437-.39l-6.97.5c-.48.043-.905-.102-1.28-.438-.407-.343-.61-.789-.61-1.343 0-.407.145-.774.438-1.11.3-.332.691-.52 1.172-.562l1.562-.063c.301 0 .524-.11.672-.328a164.79 164.79 0 0 0 3.516-4.953.575.575 0 0 0 0-.672c-1.711-2.27-3.735-4.5-6.078-6.687a1.64 1.64 0 0 1-.563-1.11 1.652 1.652 0 0 1 .344-1.172c.289-.332.64-.52 1.047-.562.414-.04.789.07 1.125.328.144.156.273.289.39.39.145.118.254.102.328-.046a74.499 74.499 0 0 0 4.454-8.86c.187-.488.503-.82.953-1 .218-.113.457-.172.718-.172.227 0 .438.059.625.172.438.149.75.446.938.891.187.437.172.883-.047 1.328-2.156 4.242-3.96 7.418-5.406 9.531-.156.22-.14.446.047.672 1.187 1.188 2.191 2.32 3.015 3.39.032.087.102.126.22.126.112 0 .187-.04.218-.125 1.863-3.008 3.5-5.848 4.906-8.516.227-.445.57-.754 1.031-.922.47-.164.942-.14 1.422.078.406.188.68.516.828.985.157.46.102.89-.156 1.297-3.605 5.992-7.023 11.136-10.25 15.437-.074.043-.094.102-.062.172.039.074.113.11.218.11 1.75-.07 4.649-.204 8.703-.391.07 0 .133-.047.188-.14.062-.095.07-.177.031-.25a40.31 40.31 0 0 0-1.89-3.563 1.23 1.23 0 0 1-.094-1.047c.133-.375.367-.64.703-.797a1.838 1.838 0 0 1 1.219-.016c.414.125.734.375.953.75 1.851 3.043 3.25 5.961 4.187 8.75a1.71 1.71 0 0 1-.062 1.282c-.188.406-.508.718-.953.937a1.164 1.164 0 0 1-1.11 0 1.312 1.312 0 0 1-.718-.89 41.936 41.936 0 0 0-.625-1.61zm10.765-21.062c-.262 0-.39.132-.39.39v2.11c0 .261.015.543.046.843 2.125 11.555 5.504 20.672 10.141 27.36.156.218.328.218.516 0 3.414-4.457 5.922-9.79 7.515-16 .04-.07.02-.157-.062-.25a.332.332 0 0 0-.266-.14h-5.969c-.218 0-.351.116-.39.343l-.172.719c-.106.48-.367.859-.781 1.14a1.781 1.781 0 0 1-1.328.313 1.645 1.645 0 0 1-1.094-.672 1.442 1.442 0 0 1-.25-1.235c.926-4.007 1.894-8.851 2.906-14.53.07-.259-.043-.391-.344-.391zm18.781 10.812c1 0 1.774.133 2.329.39.343.106.597.321.765.641.164.313.207.637.125.97-1.855 8.136-4.992 15.026-9.406 20.671-.188.219-.188.445 0 .672a33.494 33.494 0 0 0 4.453 3.969 28.2 28.2 0 0 0 5.016 2.937c.406.188.664.52.78 1 .04.113.063.227.063.344 0 .289-.117.566-.343.828-.375.445-.82.766-1.328.953a3.84 3.84 0 0 1-.625.047c-.293 0-.59-.074-.891-.219a30.703 30.703 0 0 1-9.469-7.125c-.187-.226-.375-.226-.562 0-2.668 2.75-5.73 5.086-9.188 7.016a2.035 2.035 0 0 1-1 .281c-.156 0-.324-.023-.5-.062a2.849 2.849 0 0 1-1.344-.829 1.414 1.414 0 0 1-.375-1.171c.063-.45.297-.782.704-1a37.98 37.98 0 0 0 9.484-7.079c.176-.226.191-.453.047-.671-3.274-4.72-5.93-10.66-7.969-17.829 0-.039-.023-.05-.062-.03a.827.827 0 0 0-.094.077c-.305 5.211-1.078 10.153-2.328 14.828-1.243 4.68-3.2 8.97-5.875 12.875a1.606 1.606 0 0 1-1.172.688 1.78 1.78 0 0 1-1.281-.297c-.407-.305-.649-.68-.72-1.125-.073-.437.02-.844.282-1.219 1.258-1.82 2.41-3.863 3.453-6.125 0-.039-.023-.078-.062-.109-.032-.04-.07-.063-.11-.063a1.787 1.787 0 0 1-1.61-.109 2.274 2.274 0 0 1-1.062-1.281c-.554-2.125-1.312-4.352-2.28-6.688a1.365 1.365 0 0 1-.11-.5c0-.187.035-.375.11-.562.144-.375.405-.613.78-.719a1.75 1.75 0 0 1 1.188.078c.394.168.687.438.875.813a53.427 53.427 0 0 1 2.672 7.515c0 .075.035.11.11.11.07 0 .128-.035.171-.11a49.697 49.697 0 0 0 3.063-12c.52-4.144.78-8.554.78-13.234v-7.969c0-.258-.152-.39-.452-.39h-3.625c-.48 0-.887-.164-1.22-.5a1.698 1.698 0 0 1-.5-1.235c0-.476.165-.894.5-1.25a1.616 1.616 0 0 1 1.22-.531H675.973c.258-.07.504-.11.734-.11.145 0 .274.016.39.047l.72.125c.375.032.66.2.86.5.206.293.272.625.202 1-.742 4.2-1.523 8.325-2.344 12.375-.074.262.036.391.329.391zm0 0" fill="#4DD171"/><path d="M234.579 597.396c1.238.46 2.054 1.375 2.453 2.75.195.46.297.914.297 1.359 0 .793-.262 1.578-.782 2.36-.793 1.242-1.902 2.054-3.328 2.437-.531.2-1.09.297-1.672.297a5.516 5.516 0 0 1-2.453-.578 149.144 149.144 0 0 0-11.843-4.516c-1.106-.383-1.887-1.164-2.344-2.344a4.06 4.06 0 0 1-.188-1.265c0-.657.192-1.274.578-1.86a6.498 6.498 0 0 1 3.235-2.656c.781-.258 1.531-.39 2.25-.39.656 0 1.273.07 1.86.203a169.359 169.359 0 0 1 11.937 4.203zm-.297 58.156c-.649 0-.969.324-.969.969v2.453c0 .648.32.969.969.969h41.406c.656 0 .984-.32.984-.97v-2.452c0-.645-.328-.97-.984-.97zm0-10.969c-.649 0-.969.328-.969.985v2.343c0 .657.32.985.969.985h41.406c.656 0 .984-.328.984-.985v-2.343c0-.657-.328-.985-.984-.985zm0-11.062c-.649 0-.969.328-.969.984v2.344c0 .656.32.984.969.984h41.406c.656 0 .984-.328.984-.984v-2.344c0-.656-.328-.984-.984-.984zm16.937-7.438c-.125.063-.172.133-.14.203.03.063.078.094.14.094h30.25c.063 0 .11-.047.14-.14.04-.102-.007-.157-.14-.157-5.68-2.351-9.984-5.52-12.922-9.5-.398-.52-.789-.52-1.171 0-3.399 4.055-8.782 7.219-16.157 9.5zm37.5 32.5c0 2.344-.836 4.352-2.5 6.016-1.668 1.668-3.672 2.5-6.015 2.5h-7.25c-.063 0-.118.054-.157.156-.03.094.02.172.157.234 7.57 2.868 14.226 5.575 19.968 8.125 1.301.52 1.954 1.461 1.954 2.829 0 1.507-.653 2.523-1.954 3.046-1.96.907-3.918 1.36-5.875 1.36-2.343 0-4.695-.621-7.046-1.86a276.401 276.401 0 0 0-11.938-5.578c-1.762-.781-2.64-2.148-2.64-4.11 0-1.5.648-2.671 1.953-3.515l.296-.203c.125-.062.157-.156.094-.281-.062-.133-.164-.203-.297-.203h-26.234c-.125 0-.211.054-.25.156-.031.094.02.172.156.234l.094.094c1.758.781 2.64 2.153 2.64 4.11 0 1.636-.75 2.843-2.25 3.625-5.417 2.738-11.515 5.218-18.296 7.437a8.58 8.58 0 0 1-2.844.484 8.77 8.77 0 0 1-2.547-.39c-1.762-.524-3.293-1.465-4.594-2.828-.656-.657-.984-1.407-.984-2.25 0-.336.066-.664.203-.985.32-1.242 1.133-2.02 2.438-2.343 8.156-1.957 15.039-4.274 20.656-6.954.062 0 .094-.062.094-.187 0-.133-.063-.203-.188-.203h-5.187c-2.356 0-4.368-.832-6.032-2.5-1.656-1.664-2.484-3.672-2.484-6.016v-23.687c0-2.352.828-4.36 2.484-6.016 1.664-1.664 3.676-2.5 6.032-2.5h11.156c.258 0 .437-.098.531-.297a.757.757 0 0 0 .063-.594 41.2 41.2 0 0 0-3.235-4.796c-.46-.457-1.015-.618-1.672-.485-9.199 2.68-15.558 4.508-19.078 5.485-.594.199-1.183.296-1.765.296a6.731 6.731 0 0 1-2.735-.593c-1.437-.72-2.484-1.828-3.14-3.328a4.27 4.27 0 0 1-.391-1.766c0-.719.195-1.438.594-2.156.718-1.301 1.757-2.082 3.125-2.344 3.718-.781 8.843-1.953 15.375-3.516a8.346 8.346 0 0 1 1.859-.203c1.5 0 2.898.422 4.203 1.266 1.895 1.312 3.004 3.078 3.328 5.297.063.648.422.906 1.078.78 6.72-1.237 11.676-2.866 14.875-4.89 3.196-2.031 5.414-4.707 6.657-8.031.132-.258.117-.488-.047-.687-.168-.196-.344-.297-.531-.297h-5.579c-.656 0-1.214.261-1.671.78a75.353 75.353 0 0 1-3.72 4.017c-1.105.98-2.343 1.468-3.718 1.468h-.094c-1.437 0-2.808-.453-4.11-1.36-1.116-.718-1.671-1.733-1.671-3.046 0-1.102.426-2.016 1.281-2.734 3.258-2.801 6.032-6 8.313-9.594.844-1.375 1.953-2.414 3.328-3.125a7.02 7.02 0 0 1 3.234-.797c.383 0 .774.04 1.172.11 1.3.187 2.25.84 2.844 1.953.258.585.39 1.136.39 1.656 0 .594-.167 1.183-.5 1.765-.062.137-.062.258 0 .36.07.094.172.14.297.14h29.266a5.947 5.947 0 0 1 1.469-.203c.594 0 1.18.102 1.765.297l2.344.578c1.05.336 1.785.992 2.203 1.969.426.98.38 1.922-.14 2.828a93.203 93.203 0 0 1-5 8.031c-.844 1.18-1.985 1.961-3.422 2.344-.656.2-1.278.297-1.86.297a6.523 6.523 0 0 1-2.25-.39c-1.105-.383-1.824-1.133-2.156-2.25a3.864 3.864 0 0 1-.187-1.172c0-.72.226-1.368.687-1.954.258-.394.52-.82.781-1.28.063-.126.055-.27-.015-.438-.063-.164-.156-.25-.281-.25h-9.297c-.2 0-.368.101-.5.297a.864.864 0 0 0-.094.687c1.176 3.063 3.426 5.64 6.75 7.734 3.332 2.086 8.457 3.747 15.375 4.985 1.238.262 2.117.949 2.64 2.062.196.524.297 1.012.297 1.469 0 .656-.199 1.309-.593 1.953-.907 1.5-2.118 2.61-3.625 3.328-.97.594-1.98.89-3.032.89a5.095 5.095 0 0 1-1.468-.202 14.167 14.167 0 0 0-.688-.203c-.45-.063-.672.136-.672.593zm0 0" fill="#4DD171"/><path d="M338.045 593.583c1.239 0 2.297.445 3.172 1.328.883.875 1.328 1.95 1.328 3.219 0 1.273-.445 2.352-1.328 3.234-.875.887-1.933 1.329-3.172 1.329h-20.562c-1.242 0-2.305-.442-3.188-1.329-.875-.882-1.312-1.96-1.312-3.234 0-1.27.437-2.344 1.312-3.219.883-.883 1.946-1.328 3.188-1.328zm3.813 13.516c1.312 0 2.422.46 3.328 1.375.914.906 1.375 2.015 1.375 3.328 0 1.305-.461 2.414-1.375 3.328-.906.906-2.016 1.36-3.328 1.36h-29.063c-1.312 0-2.43-.454-3.343-1.36-.907-.914-1.36-2.023-1.36-3.328 0-1.313.453-2.422 1.36-3.328.914-.914 2.03-1.375 3.343-1.375zm-3.219 13.89c1.238 0 2.297.446 3.172 1.329.883.875 1.328 1.953 1.328 3.234 0 1.273-.445 2.351-1.328 3.234-.875.875-1.934 1.313-3.172 1.313h-21.437c-1.243 0-2.305-.438-3.188-1.313-.887-.883-1.328-1.96-1.328-3.234 0-1.281.441-2.36 1.328-3.234.883-.883 1.945-1.329 3.188-1.329zm-21.437 22.61c-1.243 0-2.305-.438-3.188-1.313-.887-.883-1.328-1.945-1.328-3.187 0-1.238.441-2.297 1.328-3.172.883-.883 1.945-1.328 3.188-1.328h21.437c1.238 0 2.297.445 3.172 1.328.883.875 1.328 1.934 1.328 3.172 0 1.242-.445 2.304-1.328 3.187-.875.875-1.934 1.313-3.172 1.313zm14.671 25.844c.657 0 .985-.329.985-.985v-9.578c0-.656-.328-.984-.985-.984h-8.406c-.656 0-.984.328-.984.984v9.578c0 .656.328.985.984.985zm20.75-74.985h30.454c2.343 0 4.3.82 5.875 2.453 1.625 1.637 2.437 3.594 2.437 5.875l-.187 17.032c0 11.093.226 21.14.687 30.14.707 13.45 2.008 20.434 3.906 20.953.196 0 .395-.718.594-2.156.195-1.437.39-3.328.578-5.672.07-.914.547-1.488 1.422-1.719.883-.226 1.555.055 2.016.844 2.02 2.867 3.03 5.637 3.03 8.313 0 .718-.07 1.406-.202 2.062-1.5 7.5-4.438 11.25-8.813 11.25-1.043 0-2.183-.23-3.422-.687-1.367-.461-2.574-1.36-3.625-2.703-1.043-1.336-1.953-3.172-2.734-5.516a70.197 70.197 0 0 1-2.016-7.484c-.554-2.645-1.027-5.891-1.421-9.735a314.043 314.043 0 0 1-.922-11.015c-.23-3.5-.414-7.727-.547-12.688-.125-4.957-.203-9.36-.235-13.203-.03-3.852-.046-8.555-.046-14.11 0-.644-.329-.968-.985-.968h-9.39c-.657 0-.985.324-.985.969v20.265c0 .656.328.985.985.985h3.03c1.5 0 2.786.543 3.86 1.625 1.082 1.074 1.625 2.359 1.625 3.859s-.543 2.793-1.625 3.875c-1.074 1.074-2.36 1.61-3.86 1.61h-3.327c-.657 0-1.016.324-1.078.968-1.106 15.668-5.247 28.262-12.422 37.781-1.438 1.758-3.235 2.64-5.391 2.64h-.094c-2.218 0-4.246-.78-6.078-2.343a1.737 1.737 0 0 0-.687-.578c-.063-.137-.094-.137-.094 0 0 .383-.133.723-.39 1.016-.262.3-.622.453-1.079.453h-18.594c-.261 0-.39.129-.39.39 0 .977-.344 1.82-1.031 2.532-.688.718-1.524 1.078-2.5 1.078h-1.47c-1.366 0-2.538-.492-3.515-1.469-.98-.98-1.469-2.152-1.469-3.516v-20.843c0-2.352.829-4.364 2.485-6.032 1.664-1.664 3.676-2.5 6.031-2.5h13.406c2.352 0 4.36.836 6.016 2.5 1.664 1.668 2.5 3.68 2.5 6.032v15.453c0 .137.082.234.25.297a.384.384 0 0 0 .437-.094c7.176-8.156 11.383-19.086 12.625-32.797a.665.665 0 0 0-.203-.672.907.907 0 0 0-.672-.297h-4.015c-1.5 0-2.793-.535-3.875-1.61-1.074-1.081-1.61-2.374-1.61-3.874s.536-2.785 1.61-3.86c1.082-1.081 2.375-1.624 3.875-1.624h4.406c.656 0 .984-.329.984-.985v-20.265c0-.645-.328-.97-.984-.97h-3.14c-1.563 0-2.903-.55-4.016-1.655-1.106-1.114-1.656-2.438-1.656-3.97 0-1.538.55-2.862 1.656-3.968 1.113-1.113 2.453-1.672 4.015-1.672zm0 0" fill="#4DD171"/><path d="M435.934 656.724c0 .262.078.492.234.687a.813.813 0 0 0 .64.282h38.079c.656 0 .984-.32.984-.97v-3.03c0-.657-.328-.985-.984-.985h-37.688c-.656 0-.984.328-.984.985a97.225 97.225 0 0 1-.281 3.03zm39.437-12.922c.332 0 .5-.164.5-.5 0-1.3.438-2.39 1.313-3.266.883-.883 1.976-1.328 3.281-1.328h1.469c1.633 0 3.035.59 4.203 1.766 1.176 1.18 1.766 2.61 1.766 4.297v31.328c0 1.633-.59 3.035-1.766 4.203-1.168 1.176-2.586 1.766-4.25 1.766-1.668 0-3.09-.59-4.266-1.766-1.168-1.168-1.75-2.57-1.75-4.203v-8.219c0-.656-.328-.984-.984-.984h-40.422c-.656 0-1.117.297-1.375.89-2.094 4.563-5.094 8.473-9 11.735-1.117.789-2.262 1.187-3.437 1.187-.387 0-.778-.07-1.172-.203-1.625-.324-3.059-1.14-4.297-2.453-.918-1.043-1.375-2.215-1.375-3.516 0-1.758.648-3.195 1.953-4.312a30.47 30.47 0 0 0 2.156-1.953c1.957-2.094 3.375-4.282 4.25-6.563.883-2.281 1.488-4.383 1.813-6.312.332-1.926.5-4.032.5-6.313v-4.406c0-1.625.582-3.024 1.75-4.203 1.175-1.176 2.582-1.766 4.218-1.766h1.375c1.301 0 2.391.445 3.266 1.328.883.875 1.328 1.965 1.328 3.266 0 .336.16.5.485.5zm2.844-25.156c-.656.062-.984.422-.984 1.078v7.234a.79.79 0 0 0 .297.64c.195.169.425.25.687.25 1.375-.132 3.461-.331 6.266-.593.258 0 .437-.113.53-.344a.628.628 0 0 0-.046-.64c-1.305-2.602-2.312-5.082-3.031-7.438-.2-.644-.621-.875-1.266-.687-.793.199-1.61.367-2.453.5zm-44.344.187a.665.665 0 0 0-.203-.672.907.907 0 0 0-.672-.297h-3.922c-.656 0-1.046.325-1.171.97-.657 3.718-1.606 6.984-2.844 9.796a.921.921 0 0 0 .047.64c.101.22.285.329.547.329 1.238.074 2.64.11 4.203.11.976 0 1.765-.329 2.36-.985.644-.781 1.194-4.078 1.655-9.89zm51.782-10.562a8.79 8.79 0 0 1 3.14-.594c.383 0 .805.031 1.266.094 1.5.261 2.805.851 3.922 1.765.843.782 1.164 1.73.968 2.844-.199 1.106-.82 1.856-1.859 2.25a55.36 55.36 0 0 1-2.547.781c-.523.2-.683.559-.484 1.078 2.219 5.418 5.254 9.594 9.11 12.532.976.78 1.53 1.761 1.655 2.937v.578c0 .98-.293 1.899-.875 2.75-.918 1.106-2.027 1.825-3.328 2.157a6.595 6.595 0 0 1-.984.093c-.98 0-1.86-.328-2.64-.984-2.157-1.82-4.118-4.04-5.876-6.656-.062-.063-.132-.078-.203-.047-.062.031-.094.148-.094.344 0 1.375-.421 2.585-1.265 3.625-.918 1.043-2.094 1.664-3.531 1.859-4.961.719-9.36 1.309-13.204 1.766h-.593c-.98 0-1.89-.297-2.735-.891-.918-.781-1.476-1.79-1.672-3.031v-.297a1.902 1.902 0 0 1-.093-.578c0-.914.289-1.735.875-2.453.718-.844 1.633-1.332 2.75-1.47.32 0 .484-.16.484-.484v-16.062c0-.063-.055-.11-.156-.14-.094-.032-.172-.016-.235.046-.523.98-1.078 1.93-1.671 2.844-.649.98-1.528 1.633-2.641 1.953a5.814 5.814 0 0 1-1.469.203 5.51 5.51 0 0 1-1.765-.297c-.98-.394-1.668-1.066-2.063-2.015-.387-.946-.32-1.875.203-2.782 1.051-2.156 1.938-4.113 2.656-5.875a.48.48 0 0 0-.015-.578c-.125-.195-.32-.297-.578-.297h-10.188c-.187 0-.336.102-.437.297-.094.188-.078.352.047.485 1.05 1.5 1.968 2.87 2.75 4.109.457.781.687 1.563.687 2.344 0 .46-.101.949-.297 1.469-.46 1.304-1.34 2.25-2.64 2.843v.203c0 .063.03.094.093.094h.985c2.343 0 4.347.836 6.015 2.5 1.664 1.656 2.5 3.664 2.5 6.016v6.75c0 1.437-.527 2.68-1.578 3.719-1.043 1.043-2.281 1.562-3.719 1.562-1.43 0-2.668-.52-3.718-1.562-1.043-1.04-1.563-2.282-1.563-3.72v-14.874c0-.133-.062-.172-.187-.11a1.923 1.923 0 0 1-1.625.063 2.263 2.263 0 0 1-1.22-1.14 293.734 293.734 0 0 0-2.343-4.298.401.401 0 0 0-.265-.093c-.094 0-.141.062-.141.187l-.094 1.266c-.648 12.21-1.758 19.324-3.328 21.344-1.367 1.574-3.258 2.492-5.672 2.75a8.263 8.263 0 0 1-1.281.093h-.484c-1.637 0-3.106-.554-4.407-1.672-1.5-1.238-2.64-2.867-3.422-4.89-.062-.125-.18-.188-.343-.188-.168 0-.282.063-.344.188-1.7 2.68-3.918 4.996-6.656 6.953-.72.46-1.47.687-2.25.687a5.86 5.86 0 0 1-1.078-.109c-1.18-.32-2.157-1.004-2.938-2.047-.586-.719-.875-1.5-.875-2.344v-.593c.195-1.114.719-2.024 1.563-2.735 1.5-1.113 2.675-2.39 3.53-3.828 1.563-2.281 2.634-5.082 3.22-8.406.07-.457-.122-.688-.579-.688h-1.859c-1.117 0-2.062-.39-2.844-1.171-.78-.79-1.172-1.754-1.172-2.891 0-1.145.391-2.11 1.172-2.89.782-.782 1.727-1.173 2.844-1.173h21.438c.062 0 .093.032.093.094h4.5c.196 0 .227-.066.094-.203-.324-.582-.387-1.164-.187-1.75.195-.594.586-1.02 1.171-1.281l2.547-1.172c.063 0 .094-.031.094-.094 0-.062-.031-.094-.094-.094h-30.547c-1.242 0-2.32-.457-3.234-1.375-.906-.914-1.36-1.992-1.36-3.234 0-1.238.454-2.312 1.36-3.219.914-.914 1.992-1.375 3.234-1.375h32.891c.52 0 .781-.258.781-.781v-1.187c0-1.625.57-3.008 1.72-4.157 1.144-1.144 2.546-1.718 4.202-1.718 1.664 0 3.067.574 4.203 1.718 1.145 1.149 1.72 2.532 1.72 4.157v1.187c0 .523.257.781.78.781h33.578c1.239 0 2.317.461 3.235 1.375.914.907 1.375 1.98 1.375 3.219 0 1.242-.461 2.32-1.375 3.234-.918.918-1.996 1.375-3.235 1.375H465.2s-.023.032-.062.094c-.031.063-.012.094.062.094l1.766.594c.906.324 1.504.914 1.797 1.765.3.844.223 1.657-.234 2.438-.137.262-.075.422.187.484l3.719.985a4.776 4.776 0 0 0 1.969 0c4.238-1.04 7.988-2.18 11.25-3.422zm0 0" fill="#4DD171"/><path d="M530.479 625.99c-.125.124-.172.257-.141.39.031.125.145.188.344.188h49.422c.195 0 .312-.063.343-.188.04-.133-.007-.266-.14-.39-10.574-7.708-18.828-15.54-24.766-23.5-.125-.126-.324-.204-.594-.235-.261-.039-.453.04-.578.234-5.875 8.094-13.84 15.93-23.89 23.5zm31.625 32.89c-.657 0-.985.324-.985.969v10.187c0 .649.328.969.985.969h30.64c1.426 0 2.66.527 3.703 1.578 1.051 1.043 1.578 2.297 1.578 3.766 0 1.469-.527 2.722-1.578 3.765-1.043 1.04-2.277 1.563-3.703 1.563h-74.406c-1.43 0-2.668-.524-3.719-1.563-1.043-1.043-1.562-2.296-1.562-3.765 0-1.469.52-2.723 1.562-3.766 1.051-1.05 2.29-1.578 3.719-1.578h29.375c.656 0 .984-.32.984-.969V659.85c0-.645-.328-.969-.984-.969h-21.438c-1.437 0-2.648-.504-3.625-1.516-.98-1.02-1.468-2.226-1.468-3.625 0-1.406.488-2.597 1.468-3.578.977-.976 2.188-1.468 3.625-1.468h21.438c.656 0 .984-.329.984-.985v-9.687c0-.645-.328-.97-.984-.97h-14.39c-1.962 0-3.641-.702-5.048-2.108-1.398-1.407-2.093-3.086-2.093-5.047 0-.125-.086-.235-.25-.328-.168-.102-.313-.094-.438.03a190.047 190.047 0 0 1-5.094 3.235c-.98.594-2.023.89-3.125.89-.46 0-.949-.066-1.468-.202-1.637-.395-2.977-1.274-4.016-2.641-.781-.977-1.172-2.055-1.172-3.234 0-.258.031-.551.094-.875.195-1.5.945-2.645 2.25-3.438 6.258-3.719 12.195-8.101 17.812-13.156 5.614-5.063 10.313-10.133 14.094-15.219 2.551-3.332 5.719-5 9.5-5 3.914 0 7.176 1.602 9.781 4.797 4.508 5.68 9.649 10.902 15.422 15.672 5.77 4.762 11.692 8.71 17.766 11.844 1.437.78 2.348 1.953 2.734 3.515.07.461.11.887.11 1.282 0 1.105-.36 2.148-1.078 3.125-1.043 1.5-2.45 2.48-4.22 2.937a5.4 5.4 0 0 1-1.75.297c-1.116 0-2.226-.328-3.327-.984a112.067 112.067 0 0 1-4.797-3.032c-.137-.133-.29-.148-.453-.047-.157.094-.235.211-.235.344 0 2.024-.718 3.75-2.156 5.188-1.437 1.437-3.137 2.156-5.094 2.156h-14.968c-.657 0-.985.324-.985.969v9.687c0 .656.328.985.985.985h22.015c1.438 0 2.645.492 3.625 1.468.977.98 1.469 2.172 1.469 3.578 0 1.399-.492 2.606-1.469 3.625-.98 1.012-2.187 1.516-3.625 1.516zm0 0" fill="#4DD171"/></svg>