<svg width="35" height="36" viewBox="0 0 35 36" fill="none" xmlns="http://www.w3.org/2000/svg">
<path d="M9.39375 7.9252C9.91663 7.9252 10.4278 7.77015 10.8625 7.47965C11.2973 7.18915 11.6362 6.77625 11.8363 6.29316C12.0364 5.81008 12.0887 5.27852 11.9867 4.76568C11.8847 4.25284 11.6329 3.78177 11.2632 3.41203C10.8934 3.0423 10.4224 2.79051 9.90952 2.6885C9.39669 2.58649 8.86512 2.63884 8.38204 2.83894C7.89896 3.03904 7.48605 3.37789 7.19555 3.81266C6.90505 4.24742 6.75 4.75856 6.75 5.28144C6.75 5.98261 7.02854 6.65506 7.52434 7.15086C8.02014 7.64666 8.69258 7.9252 9.39375 7.9252ZM9.39375 3.5592C9.73464 3.55794 10.0682 3.65788 10.3523 3.84635C10.6364 4.03483 10.8581 4.30336 10.9894 4.61795C11.1207 4.93254 11.1558 5.27902 11.09 5.61353C11.0243 5.94803 10.8608 6.2555 10.6202 6.497C10.3796 6.7385 10.0727 6.90316 9.73844 6.97013C9.40419 7.0371 9.05757 7.00336 8.7425 6.87319C8.42743 6.74303 8.15808 6.5223 7.96855 6.23894C7.77902 5.95558 7.67785 5.62234 7.67785 5.28144C7.67951 4.82628 7.86064 4.39015 8.18189 4.06771C8.50314 3.74527 8.9386 3.56254 9.39375 3.5592Z" fill="#353535"/>
<path d="M9.39375 7.9252C9.91663 7.9252 10.4278 7.77015 10.8625 7.47965C11.2973 7.18915 11.6362 6.77625 11.8363 6.29316C12.0364 5.81008 12.0887 5.27852 11.9867 4.76568C11.8847 4.25284 11.6329 3.78177 11.2632 3.41203C10.8934 3.0423 10.4224 2.79051 9.90952 2.6885C9.39669 2.58649 8.86512 2.63884 8.38204 2.83894C7.89896 3.03904 7.48605 3.37789 7.19555 3.81266C6.90505 4.24742 6.75 4.75856 6.75 5.28144C6.75 5.98261 7.02854 6.65506 7.52434 7.15086C8.02014 7.64666 8.69258 7.9252 9.39375 7.9252ZM9.39375 3.5592C9.73464 3.55794 10.0682 3.65788 10.3523 3.84635C10.6364 4.03483 10.8581 4.30336 10.9894 4.61795C11.1207 4.93254 11.1558 5.27902 11.09 5.61353C11.0243 5.94803 10.8608 6.2555 10.6202 6.497C10.3796 6.7385 10.0727 6.90316 9.73844 6.97013C9.40419 7.0371 9.05757 7.00336 8.7425 6.87319C8.42743 6.74303 8.15808 6.5223 7.96855 6.23894C7.77902 5.95558 7.67785 5.62234 7.67785 5.28144C7.67951 4.82628 7.86064 4.39015 8.18189 4.06771C8.50314 3.74527 8.9386 3.56254 9.39375 3.5592Z" stroke="#353535"/>
<path d="M26.4308 7.9252C26.9537 7.9252 27.4649 7.77015 27.8996 7.47965C28.3344 7.18915 28.6733 6.77625 28.8734 6.29316C29.0735 5.81008 29.1258 5.27852 29.0238 4.76568C28.9218 4.25284 28.67 3.78177 28.3003 3.41203C27.9305 3.0423 27.4595 2.79051 26.9466 2.6885C26.4338 2.58649 25.9022 2.63884 25.4191 2.83894C24.9361 3.03904 24.5232 3.37789 24.2327 3.81266C23.9422 4.24742 23.7871 4.75856 23.7871 5.28144C23.7888 5.98209 24.0679 6.65357 24.5633 7.149C25.0587 7.64444 25.7302 7.92352 26.4308 7.9252ZM26.4308 3.5592C26.7715 3.5592 27.1045 3.6602 27.3877 3.84945C27.6709 4.03869 27.8917 4.30767 28.022 4.62237C28.1524 4.93707 28.1865 5.28336 28.12 5.61744C28.0536 5.95153 27.8895 6.2584 27.6487 6.49926C27.4078 6.74012 27.1009 6.90415 26.7669 6.9706C26.4328 7.03706 26.0865 7.00295 25.7718 6.8726C25.4571 6.74225 25.1881 6.5215 24.9989 6.23828C24.8096 5.95506 24.7086 5.62207 24.7086 5.28144C24.7086 5.05527 24.7532 4.83133 24.8397 4.62237C24.9263 4.41342 25.0531 4.22355 25.213 4.06363C25.373 3.9037 25.5628 3.77685 25.7718 3.6903C25.9807 3.60374 26.2047 3.5592 26.4308 3.5592Z" fill="#353535"/>
<path d="M26.4308 7.9252C26.9537 7.9252 27.4649 7.77015 27.8996 7.47965C28.3344 7.18915 28.6733 6.77625 28.8734 6.29316C29.0735 5.81008 29.1258 5.27852 29.0238 4.76568C28.9218 4.25284 28.67 3.78177 28.3003 3.41203C27.9305 3.0423 27.4595 2.79051 26.9466 2.6885C26.4338 2.58649 25.9022 2.63884 25.4191 2.83894C24.9361 3.03904 24.5232 3.37789 24.2327 3.81266C23.9422 4.24742 23.7871 4.75856 23.7871 5.28144C23.7888 5.98209 24.0679 6.65357 24.5633 7.149C25.0587 7.64444 25.7302 7.92352 26.4308 7.9252ZM26.4308 3.5592C26.7715 3.5592 27.1045 3.6602 27.3877 3.84945C27.6709 4.03869 27.8917 4.30767 28.022 4.62237C28.1524 4.93707 28.1865 5.28336 28.12 5.61744C28.0536 5.95153 27.8895 6.2584 27.6487 6.49926C27.4078 6.74012 27.1009 6.90415 26.7669 6.9706C26.4328 7.03706 26.0865 7.00295 25.7718 6.8726C25.4571 6.74225 25.1881 6.5215 24.9989 6.23828C24.8096 5.95506 24.7086 5.62207 24.7086 5.28144C24.7086 5.05527 24.7532 4.83133 24.8397 4.62237C24.9263 4.41342 25.0531 4.22355 25.213 4.06363C25.373 3.9037 25.5628 3.77685 25.7718 3.6903C25.9807 3.60374 26.2047 3.5592 26.4308 3.5592Z" stroke="#353535"/>
<path d="M29.583 9.07796H24.2049C23.6308 9.07221 23.0825 8.83881 22.6803 8.42903L19.1447 4.89235C18.812 4.57648 18.3708 4.40039 17.9121 4.40039C17.4534 4.40039 17.0122 4.57648 16.6795 4.89235L13.1439 8.42903C12.9456 8.63309 12.7087 8.79557 12.4469 8.90699C12.1851 9.01841 11.9038 9.07654 11.6193 9.07796H6.23477C5.43642 9.07796 4.67078 9.39519 4.10627 9.95987C3.54175 10.5245 3.22462 11.2904 3.22462 12.089V19.954C3.22377 20.183 3.2681 20.4098 3.35509 20.6216C3.44208 20.8333 3.57002 21.0258 3.73155 21.188C3.89308 21.3502 4.08504 21.4788 4.29641 21.5666C4.50777 21.6545 4.73438 21.6997 4.96324 21.6997C5.24398 21.7009 5.52054 21.6317 5.76767 21.4985V31.7126C5.77317 32.1412 5.91027 32.5577 6.16039 32.9056C6.4105 33.2536 6.76154 33.5162 7.16591 33.6579C7.57027 33.7996 8.00841 33.8135 8.42092 33.6977C8.83344 33.5818 9.20038 33.342 9.472 33.0105C9.74471 33.3408 10.1121 33.5796 10.5246 33.6948C10.9371 33.8099 11.375 33.7958 11.7793 33.6544C12.1836 33.513 12.5348 33.2511 12.7858 32.9039C13.0367 32.5567 13.1753 32.141 13.1828 31.7126V14.0812C13.1815 13.8559 13.225 13.6326 13.3108 13.4243C13.3965 13.216 13.5228 13.0268 13.6823 12.8677L17.9121 8.61073L22.1419 12.8677C22.3014 13.0268 22.4277 13.216 22.5134 13.4243C22.5992 13.6326 22.6427 13.8559 22.6414 14.0812V31.7126C22.6469 32.1412 22.784 32.5577 23.0341 32.9056C23.2843 33.2536 23.6353 33.5162 24.0397 33.6579C24.444 33.7996 24.8822 33.8135 25.2947 33.6977C25.7072 33.5818 26.0741 33.342 26.3457 33.0105C26.6184 33.3408 26.9858 33.5796 27.3983 33.6948C27.8109 33.8099 28.2487 33.7958 28.653 33.6544C29.0573 33.513 29.4086 33.2511 29.6595 32.9039C29.9105 32.5567 30.049 32.141 30.0565 31.7126V21.5244C30.3037 21.6577 30.5802 21.7268 30.861 21.7256C31.0898 21.7256 31.3164 21.6804 31.5278 21.5926C31.7392 21.5048 31.9311 21.3761 32.0927 21.2139C32.2542 21.0518 32.3821 20.8593 32.4691 20.6475C32.5561 20.4358 32.6005 20.2089 32.5996 19.98V12.089C32.5996 11.693 32.5215 11.301 32.3698 10.9352C32.2182 10.5695 31.9959 10.2373 31.7157 9.95757C31.4355 9.67789 31.1028 9.45622 30.7369 9.30528C30.3709 9.15435 29.9788 9.0771 29.583 9.07796ZM12.2291 31.7126C12.2074 32.0015 12.0773 32.2715 11.865 32.4685C11.6526 32.6655 11.3737 32.775 11.0841 32.775C10.7945 32.775 10.5156 32.6655 10.3033 32.4685C10.0909 32.2715 9.96084 32.0015 9.93909 31.7126V22.5757C9.92554 22.4604 9.87014 22.3542 9.78344 22.2771C9.69674 22.1999 9.58477 22.1573 9.46875 22.1573C9.35273 22.1573 9.24074 22.1999 9.15404 22.2771C9.06734 22.3542 9.01197 22.4604 8.99841 22.5757V31.7126C8.97666 32.0015 8.84658 32.2715 8.63425 32.4685C8.42191 32.6655 8.143 32.775 7.85339 32.775C7.56378 32.775 7.28486 32.6655 7.07252 32.4685C6.86018 32.2715 6.73011 32.0015 6.70836 31.7126V20.2915H12.2291V31.7126ZM13.0076 12.1993C12.5095 12.6989 12.2296 13.3756 12.2291 14.0812V19.3505H6.68889V12.5303C6.68889 12.4681 6.67664 12.4065 6.65284 12.349C6.62904 12.2915 6.59417 12.2393 6.55019 12.1953C6.50621 12.1513 6.45399 12.1164 6.39654 12.0926C6.33908 12.0688 6.2775 12.0565 6.21531 12.0565C6.09083 12.0583 5.97204 12.1089 5.88462 12.1976C5.79721 12.2862 5.7482 12.4057 5.74821 12.5303V19.954C5.75824 20.0653 5.74498 20.1775 5.70927 20.2834C5.67356 20.3893 5.61618 20.4866 5.54081 20.5691C5.46543 20.6516 5.37371 20.7175 5.27148 20.7625C5.16924 20.8076 5.05875 20.8309 4.94703 20.8309C4.8353 20.8309 4.72481 20.8076 4.62258 20.7625C4.52034 20.7175 4.4286 20.6516 4.35323 20.5691C4.27785 20.4866 4.22049 20.3893 4.18478 20.2834C4.14908 20.1775 4.1358 20.0653 4.14582 19.954V12.089C4.14582 11.54 4.36387 11.0134 4.75198 10.6252C5.14008 10.237 5.66645 10.0189 6.21531 10.0189H11.5999C12.0073 10.02 12.4108 9.94023 12.7872 9.78429C13.1635 9.62835 13.5053 9.3993 13.7926 9.11039L16.2384 6.66393C16.3158 6.93207 16.461 7.17569 16.66 7.37127L17.2244 7.94233L13.0076 12.1993ZM29.1029 31.7126C29.0811 32.0015 28.951 32.2715 28.7387 32.4685C28.5264 32.6655 28.2475 32.775 27.9579 32.775C27.6682 32.775 27.3893 32.6655 27.177 32.4685C26.9646 32.2715 26.8346 32.0015 26.8128 31.7126V22.5757C26.7993 22.4604 26.7439 22.3542 26.6572 22.2771C26.5705 22.1999 26.4585 22.1573 26.3425 22.1573C26.2265 22.1573 26.1145 22.1999 26.0278 22.2771C25.9411 22.3542 25.8857 22.4604 25.8722 22.5757V31.7126C25.8504 32.0015 25.7203 32.2715 25.508 32.4685C25.2957 32.6655 25.0167 32.775 24.7271 32.775C24.4375 32.775 24.1586 32.6655 23.9463 32.4685C23.7339 32.2715 23.6039 32.0015 23.5821 31.7126V20.2915H29.1029V31.7126ZM31.6524 19.954C31.6625 20.0653 31.6492 20.1775 31.6135 20.2834C31.5778 20.3893 31.5204 20.4866 31.445 20.5691C31.3697 20.6516 31.2779 20.7175 31.1757 20.7625C31.0735 20.8076 30.963 20.8309 30.8512 20.8309C30.7395 20.8309 30.629 20.8076 30.5268 20.7625C30.4246 20.7175 30.3328 20.6516 30.2575 20.5691C30.1821 20.4866 30.1247 20.3893 30.089 20.2834C30.0533 20.1775 30.04 20.0653 30.0501 19.954V12.5303C30.0501 12.4057 30.0011 12.2862 29.9136 12.1976C29.8262 12.1089 29.7074 12.0583 29.583 12.0565C29.4574 12.0565 29.3369 12.1065 29.2481 12.1953C29.1593 12.2841 29.1094 12.4046 29.1094 12.5303V19.3505H23.5562V14.0812C23.5557 13.3756 23.2758 12.6989 22.7777 12.1993L17.3153 6.70287C17.2411 6.62874 17.1823 6.54073 17.1422 6.44385C17.102 6.34698 17.0814 6.24315 17.0814 6.13829C17.0814 6.03343 17.102 5.92961 17.1422 5.83274C17.1823 5.73587 17.2411 5.64785 17.3153 5.57373C17.4681 5.43 17.6699 5.34997 17.8797 5.34997C18.0894 5.34997 18.2913 5.43 18.4441 5.57373L21.9797 9.11039C22.5625 9.69031 23.3505 10.0168 24.1725 10.0189H29.557C30.1059 10.0189 30.6322 10.237 31.0204 10.6252C31.4085 11.0134 31.6265 11.54 31.6265 12.089L31.6524 19.954Z" fill="#353535"/>
</svg>
