<svg width="47" height="47" viewBox="0 0 47 47" fill="none" xmlns="http://www.w3.org/2000/svg">
<path d="M33.1292 30.3941C32.4092 29.5981 31.4336 29.0844 30.3746 28.9436V28.2123C30.571 28.3782 30.8192 28.4688 31.0753 28.4682C31.2517 28.4586 31.4244 28.413 31.5828 28.3342L32.7063 27.6151C32.8295 27.5462 32.9324 27.4455 33.0046 27.3235C33.0767 27.2015 33.1155 27.0624 33.1171 26.9203C33.1212 26.8109 33.1017 26.7019 33.06 26.6009C33.0183 26.4999 32.9553 26.4092 32.8755 26.3352C32.2179 25.5838 31.3432 25.0594 30.3746 24.836V24.1534C30.3746 23.9066 30.2783 23.6697 30.1064 23.494C29.9346 23.3184 29.701 23.218 29.4564 23.2148H28.5262C28.2794 23.2148 28.0428 23.3137 27.8684 23.4897C27.6939 23.6657 27.5959 23.9045 27.5959 24.1534V24.8116C27.2173 24.8869 26.8485 25.0056 26.4965 25.1651V25.1651C25.881 25.4338 25.3412 25.8527 24.9259 26.384C24.6141 26.7848 24.4214 27.2666 24.3702 27.7734C24.3578 27.9276 24.3578 28.0825 24.3702 28.2366C24.3745 28.8803 24.5866 29.505 24.9742 30.0162C25.6388 30.8453 26.5871 31.3932 27.6322 31.552V32.844C27.324 32.6522 27.0434 32.4184 26.7985 32.1493C26.7143 32.0326 26.6032 31.9383 26.4748 31.8746C26.3464 31.8109 26.2046 31.7797 26.0616 31.7836C25.9062 31.7948 25.7544 31.8361 25.6146 31.9055L24.5876 32.5027C24.4529 32.5768 24.3404 32.686 24.2618 32.819C24.1832 32.9519 24.1413 33.1036 24.1406 33.2584C24.1419 33.4506 24.2104 33.6363 24.3339 33.7826C24.6516 34.2026 25.0257 34.5758 25.4454 34.8917C26.0905 35.3917 26.8373 35.7414 27.6322 35.9156V36.4763C27.6305 36.6 27.6535 36.7228 27.6997 36.8374C27.7458 36.952 27.8143 37.0561 27.901 37.1436C27.9877 37.2311 28.0909 37.3001 28.2045 37.3467C28.3181 37.3933 28.4398 37.4165 28.5624 37.4148H29.5289C29.6505 37.4148 29.7709 37.3905 29.8831 37.3432C29.9953 37.2959 30.0971 37.2265 30.1825 37.1392C30.2679 37.0519 30.3353 36.9483 30.3807 36.8345C30.4261 36.7207 30.4487 36.5989 30.4471 36.4763V35.9156C31.1001 35.7931 31.7236 35.5448 32.2835 35.1843C32.7591 34.8904 33.1522 34.4783 33.425 33.9875C33.6979 33.4967 33.8414 32.9436 33.842 32.3808C33.864 31.6511 33.609 30.9405 33.1292 30.3941V30.3941ZM31.764 34.4652C31.206 34.8267 30.574 35.0559 29.9155 35.1355C29.8216 35.1525 29.7365 35.2019 29.6748 35.2753C29.613 35.3487 29.5786 35.4415 29.5772 35.5378V36.4397C29.5772 36.4557 29.5741 36.4716 29.5681 36.4864C29.562 36.5012 29.5531 36.5146 29.5418 36.5259C29.5306 36.5372 29.5173 36.5462 29.5027 36.5523C29.488 36.5584 29.4723 36.5616 29.4564 36.5616H28.5262C28.5098 36.5636 28.4933 36.5617 28.4777 36.5563C28.4622 36.5509 28.4481 36.542 28.4364 36.5303C28.4248 36.5185 28.416 36.5043 28.4106 36.4886C28.4052 36.4729 28.4034 36.4562 28.4053 36.4397V35.5378C28.4061 35.4422 28.3721 35.3497 28.3097 35.2778C28.2474 35.2059 28.161 35.1597 28.0671 35.1477C27.2763 35.0214 26.5291 34.6989 25.8924 34.2092C25.5317 33.9431 25.2138 33.6224 24.9501 33.2584V33.2584L25.9045 32.6978H26.0133C26.0133 32.6978 26.0857 32.6978 26.1461 32.7831C26.6068 33.3237 27.1916 33.7422 27.8496 34.002C27.9113 34.0232 27.9771 34.0294 28.0416 34.0199C28.1061 34.0104 28.1674 33.9857 28.2206 33.9476C28.2737 33.9095 28.3171 33.8591 28.3471 33.8007C28.3771 33.7424 28.393 33.6777 28.3933 33.6119V31.3326C28.394 31.2339 28.3587 31.1383 28.2941 31.0641C28.2295 30.99 28.1401 30.9423 28.0429 30.9304C27.0905 30.8689 26.2005 30.4309 25.5662 29.7115C25.2871 29.3347 25.1348 28.8777 25.1313 28.4073C25.1189 28.2572 25.1189 28.1064 25.1313 27.9563C25.2284 27.5343 25.4301 27.1441 25.7175 26.8222C26.0048 26.5003 26.3685 26.2572 26.7744 26.1158C27.1591 25.9427 27.5656 25.8238 27.9825 25.7623C28.0796 25.7504 28.1691 25.7027 28.2337 25.6286C28.2983 25.5544 28.3336 25.4588 28.3329 25.3601V24.1534C28.3309 24.1369 28.3327 24.1202 28.3381 24.1045C28.3435 24.0888 28.3523 24.0746 28.3639 24.0629C28.3756 24.0511 28.3897 24.0423 28.4052 24.0368C28.4208 24.0314 28.4374 24.0296 28.4537 24.0315H29.4202C29.4522 24.0315 29.4829 24.0443 29.5056 24.0672C29.5283 24.09 29.541 24.1211 29.541 24.1534V25.1894C29.5372 25.2838 29.5686 25.3762 29.629 25.4484C29.6893 25.5206 29.7743 25.5674 29.8672 25.5795C30.8034 25.7106 31.6613 26.178 32.2835 26.8959V26.8959L31.2203 27.5663H31.0874C31.0244 27.5852 30.9572 27.5852 30.8941 27.5663C30.6708 27.3625 30.4183 27.1941 30.1451 27.0665C30.0859 27.0335 30.0194 27.0161 29.9518 27.0161C29.8841 27.0161 29.8176 27.0335 29.7585 27.0665C29.7014 27.1026 29.6547 27.153 29.6229 27.2129C29.5911 27.2727 29.5754 27.3399 29.5772 27.4078V29.2361C29.5761 29.333 29.6098 29.4271 29.6719 29.501C29.7341 29.5749 29.8206 29.6237 29.9155 29.6384C30.9003 29.7094 31.8247 30.1432 32.513 30.8572C32.8312 31.2513 32.9908 31.7517 32.9601 32.259C32.9782 32.7017 32.8765 33.1409 32.6657 33.5296C32.455 33.9184 32.1432 34.2418 31.764 34.4652Z" fill="#353535"/>
<path d="M28.9231 20.7285C26.9246 20.7232 24.9769 21.3639 23.3657 22.5569C22.9872 22.8229 22.6316 23.1205 22.3025 23.4466C22.0863 23.6479 21.8882 23.8683 21.7105 24.1049H23.4019C23.6425 23.8694 23.901 23.6534 24.1751 23.4588C24.5809 23.1689 25.0139 22.9199 25.4678 22.7153C26.5492 22.2051 27.7293 21.9428 28.9231 21.9474C30.5599 21.9474 32.1599 22.4371 33.5209 23.3545C34.8818 24.272 35.9425 25.576 36.5689 27.1016C37.1953 28.6273 37.3591 30.306 37.0398 31.9256C36.7205 33.5452 35.9323 35.0329 34.7749 36.2006C33.6176 37.3683 32.143 38.1635 30.5376 38.4856C28.9323 38.8078 27.2683 38.6425 25.7561 38.0105C24.2439 37.3786 22.9514 36.3084 22.0421 34.9354C21.1327 33.5623 20.6474 31.9481 20.6474 30.2967C20.6441 29.4355 20.7787 28.5794 21.0461 27.7615C21.1065 27.5787 21.1669 27.3958 21.2394 27.213C21.3549 26.9167 21.488 26.6277 21.638 26.3476C21.7633 26.1131 21.9005 25.8853 22.0488 25.665H20.6232C20.5024 25.8844 20.3937 26.116 20.2849 26.3476C20.1545 26.6287 20.0415 26.9177 19.9466 27.213C19.9466 27.3958 19.8258 27.5787 19.7775 27.7615C19.2545 29.689 19.3437 31.7335 20.0324 33.6072C20.7211 35.481 21.9748 37.0897 23.617 38.2072C25.2593 39.3246 27.2074 39.8944 29.1874 39.8366C31.1674 39.7787 33.0796 39.0961 34.655 37.8846C36.2304 36.6731 37.3897 34.9939 37.9697 33.083C38.5498 31.1722 38.5215 29.1259 37.8888 27.2322C37.2561 25.3384 36.0508 23.6925 34.4426 22.5258C32.8343 21.3592 30.9039 20.7306 28.9231 20.7285V20.7285Z" fill="#353535"/>
<path d="M31.1592 32.3442C31.1581 32.6117 31.0871 32.8742 30.9535 33.1053C30.8199 33.3364 30.6283 33.5279 30.3981 33.6606L30.1444 33.7946C30.0856 33.8289 30.019 33.8469 29.9511 33.8469C29.8832 33.8469 29.8166 33.8289 29.7578 33.7946C29.6999 33.7595 29.6525 33.7093 29.6206 33.6492C29.5887 33.5891 29.5735 33.5215 29.5766 33.4534V31.4666C29.5761 31.4033 29.59 31.3407 29.6172 31.2837C29.6445 31.2266 29.6843 31.1766 29.7336 31.1375C29.786 31.1013 29.8456 31.077 29.9082 31.0665C29.9708 31.056 30.0349 31.0594 30.0961 31.0766C30.3896 31.1346 30.6549 31.2918 30.8481 31.5222C31.0414 31.7526 31.1511 32.0425 31.1592 32.3442Z" fill="#353535"/>
<path d="M28.3683 27.4079V29.029C28.367 29.0946 28.3498 29.1589 28.3182 29.2162C28.2867 29.2736 28.2416 29.3223 28.1871 29.3581C28.1206 29.4073 28.04 29.433 27.9576 29.4312C27.9141 29.4438 27.8681 29.4438 27.8247 29.4312C27.5589 29.3621 27.3243 29.2037 27.1596 28.9822C26.9949 28.7606 26.9099 28.4892 26.9186 28.2124C26.9211 27.9639 26.9989 27.7223 27.1414 27.5197C27.2839 27.3171 27.4843 27.1633 27.7159 27.0788H27.8126C27.8705 27.0489 27.9347 27.0332 27.9998 27.0332C28.065 27.0332 28.1291 27.0489 28.1871 27.0788C28.2396 27.1167 28.2831 27.1658 28.3145 27.2227C28.3458 27.2796 28.3642 27.3429 28.3683 27.4079V27.4079Z" fill="#353535"/>
<path d="M43.0231 18.7661C42.8022 18.5516 42.5545 18.3672 42.2862 18.2176L28.2597 7.96674C28.1952 7.91597 28.1212 7.87872 28.0422 7.85708H27.9335C27.5456 7.71698 27.1374 7.64284 26.7254 7.6377C26.482 7.63848 26.2392 7.66297 26.0005 7.71083H25.8918C17.0119 9.99013 10.645 11.6112 7.47972 12.4035H7.39518L7.11729 12.501C6.01014 12.8222 4.87199 13.0224 3.72243 13.0983C3.51736 13.0983 3.3207 13.1804 3.17569 13.3267C3.03069 13.473 2.9492 13.6715 2.9492 13.8784V14.4025C2.94314 14.451 2.94314 14.5002 2.9492 14.5487V21.155C2.93075 21.2573 2.93416 21.3625 2.95916 21.4634C2.98416 21.5643 3.0302 21.6586 3.09421 21.7401C3.1635 21.8406 3.25556 21.9227 3.36273 21.98C3.46991 22.0372 3.58907 22.0678 3.71034 22.0692C5.82458 22.0692 7.25019 23.1296 8.89326 24.3607L9.98057 25.1652C11.7474 26.5307 13.9045 27.2832 16.13 27.3104C17.2777 27.3104 18.2201 27.3104 18.9812 27.3104H24.7923C25.0445 27.3166 25.2952 27.2709 25.5293 27.1763C25.9727 27.0241 26.3601 26.7401 26.6404 26.3615C26.9208 25.983 27.0809 25.5276 27.0999 25.0555V24.9823C27.1021 24.5107 26.9608 24.0498 26.695 23.6618C26.4293 23.2738 26.0519 22.9775 25.6139 22.8128C25.3535 22.7043 25.074 22.6504 24.7923 22.6543H19.4041C19.0997 22.5965 18.8197 22.447 18.6011 22.2256C18.3825 22.0043 18.2354 21.7213 18.1792 21.414C18.123 21.1067 18.1602 20.7894 18.2861 20.5039C18.412 20.2183 18.6207 19.9779 18.8845 19.8143L20.8901 19.278C21.5787 19.1073 22.2794 18.9245 22.9439 18.7295H23.0889L28.4409 17.3034C28.5896 17.2895 28.7392 17.2895 28.8879 17.3034L37.3449 22.8371L38.8792 23.9585H38.9759L39.2175 24.0926C39.3782 24.172 39.5436 24.2412 39.7129 24.2998L40.1115 24.3851C40.4471 24.4466 40.7908 24.4466 41.1264 24.3851C41.7395 24.3303 42.3244 24.0997 42.8118 23.7205C43.2992 23.3412 43.6689 22.8292 43.8773 22.2448C44.0856 21.6604 44.1238 21.028 43.9875 20.4224C43.8511 19.8168 43.5458 19.2632 43.1077 18.827L43.0231 18.7661ZM40.8606 22.7762H40.776C40.6088 22.8124 40.4358 22.8124 40.2686 22.7762H40.0753L39.8216 22.6665L39.6766 22.5812L38.1664 21.4842L29.5766 15.8529L29.347 15.7554C28.9937 15.6806 28.6323 15.652 28.2718 15.6701H28.1389C27.7523 15.7676 25.9038 16.2429 22.6781 17.1083H22.509C21.8445 17.3034 21.1679 17.474 20.4914 17.6447L18.365 18.2176L18.1959 18.2785C17.628 18.5857 17.1704 19.0654 16.8878 19.6497C16.6053 20.2339 16.5122 20.8932 16.6219 21.5338C16.7315 22.1744 17.0382 22.7639 17.4985 23.2188C17.9589 23.6737 18.5495 23.9709 19.1866 24.0682H24.7682C24.9733 24.0682 25.1699 24.1503 25.3149 24.2966C25.4599 24.4429 25.5414 24.6414 25.5414 24.8483C25.5414 25.0552 25.4599 25.2535 25.3149 25.3998C25.1699 25.5461 24.9733 25.6284 24.7682 25.6284H18.8604H16.0334C14.1224 25.6057 12.2718 24.9504 10.7659 23.7635L9.71478 22.9956C8.19822 21.6729 6.34366 20.8071 4.36274 20.4969V14.5731C5.38986 14.4384 6.40693 14.2348 7.40723 13.9637H7.50391L7.7697 13.8662C10.935 13.0739 17.2898 11.4284 26.1455 9.18562C26.5127 9.1118 26.8931 9.14133 27.2449 9.27095L41.2955 19.5218L41.3921 19.5827C41.5421 19.665 41.6803 19.7675 41.8029 19.8874V19.8874C41.9647 20.0455 42.0931 20.235 42.1803 20.4445C42.2675 20.654 42.3117 20.8791 42.3103 21.1063C42.3013 21.5218 42.1433 21.92 41.8657 22.227C41.588 22.534 41.2095 22.7291 40.8002 22.7762H40.8606Z" fill="#353535"/>
</svg>
