<svg width="29" height="28" viewBox="0 0 29 28" fill="none" xmlns="http://www.w3.org/2000/svg">
<path d="M12.3145 19.3656L13.5815 18.0883C13.8237 18.3367 14.0688 18.5939 14.3199 18.8452C16.2367 20.7671 18.1595 22.6742 20.0704 24.6139C20.4653 25.0282 20.9533 25.342 21.4939 25.5291C22.0345 25.7163 22.6119 25.7713 23.178 25.6897C23.7442 25.6082 24.2827 25.3923 24.7485 25.0601C25.2144 24.7279 25.5943 24.289 25.8564 23.7801C26.2025 23.1116 26.3273 22.3502 26.2126 21.6061C26.0979 20.8619 25.7497 20.1736 25.2184 19.6406C23.1017 17.5098 20.9791 15.3839 18.8506 13.2629C18.1931 12.6227 17.3146 12.2603 16.3974 12.251C15.4802 12.2416 14.5946 12.586 13.9241 13.2126C13.806 13.322 13.7115 13.4521 13.611 13.5645L12.3263 12.2842C12.8417 11.7043 13.4751 11.2415 14.184 10.9271C15.1702 10.4858 16.2669 10.3541 17.3293 10.5494C18.3918 10.7447 19.3701 11.2578 20.1354 12.0211C22.259 14.1322 24.3885 16.2344 26.4766 18.3751C27.1833 19.0515 27.6816 19.9165 27.9124 20.8675C28.1432 21.8186 28.097 22.816 27.7791 23.7416C27.5236 24.6735 27.0071 25.5127 26.2907 26.1602C25.5743 26.8077 24.6877 27.2366 23.7357 27.3962C22.8812 27.5951 21.9898 27.5692 21.1483 27.321C20.3067 27.0728 19.5436 26.6108 18.9333 25.9799C16.7359 23.8244 14.5768 21.6305 12.4001 19.4543L12.3145 19.3656Z" fill="black"/>
<path d="M16.7199 8.61186L15.4469 9.8803C15.1516 9.58463 14.8562 9.27417 14.5609 8.97258C12.6647 7.07139 10.7804 5.15541 8.86352 3.27491C8.39393 2.78003 7.7861 2.43852 7.11951 2.29504C6.45291 2.15155 5.75858 2.21276 5.1273 2.47067C4.49343 2.67925 3.93576 3.07166 3.52507 3.59809C3.11437 4.12452 2.86917 4.76124 2.82059 5.42743C2.74817 5.96796 2.8052 6.51799 2.987 7.0321C3.1688 7.54621 3.47013 8.00965 3.86614 8.38418C5.93558 10.4598 8.00305 12.5345 10.0685 14.6082C10.4001 14.957 10.7984 15.2354 11.2397 15.4268C11.6811 15.6183 12.1564 15.7188 12.6374 15.7224C13.1183 15.7259 13.5951 15.6325 14.0392 15.4477C14.4833 15.2629 14.8858 14.9904 15.2225 14.6466C15.2917 14.5744 15.3567 14.4984 15.4174 14.4189L16.6963 15.6933C16.2837 16.1529 15.7976 16.5406 15.2579 16.8405C14.2318 17.4053 13.0497 17.6197 11.8909 17.4511C10.7322 17.2825 9.65992 16.7401 8.83693 15.9062C6.73992 13.798 4.61338 11.7164 2.54 9.58463C1.81361 8.89192 1.30821 7.99953 1.08747 7.01983C0.866725 6.04014 0.940505 5.01695 1.29952 4.07915C1.99655 2.03307 3.49105 0.826719 5.63236 0.531043C6.45776 0.394578 7.30398 0.462253 8.09727 0.728175C8.89056 0.994097 9.60685 1.4502 10.1837 2.05673C12.33 4.19545 14.4713 6.33713 16.6077 8.48176C16.6431 8.52611 16.6815 8.57047 16.7199 8.61186Z" fill="black"/>
</svg>
