<svg width="38" height="37" viewBox="0 0 38 37" fill="none" xmlns="http://www.w3.org/2000/svg">
<path d="M36.9386 15.4382C36.9141 15.394 36.8843 15.353 36.8497 15.316L37.6127 14.1371C37.659 14.0691 37.691 13.9924 37.7068 13.9117C37.7226 13.831 37.7219 13.7479 37.7047 13.6675C37.6875 13.5871 37.6543 13.5109 37.6069 13.4436C37.5595 13.3763 37.4989 13.3193 37.4289 13.2759L35.48 12.0206C35.4118 11.975 35.3351 11.9435 35.2545 11.928C35.1738 11.9125 35.0909 11.9134 35.0106 11.9305C34.9302 11.9476 34.8542 11.9806 34.7869 12.0275C34.7197 12.0745 34.6625 12.1345 34.619 12.2039L33.8529 13.3797C33.7209 13.3308 33.5761 13.3287 33.4427 13.3738C33.3093 13.4188 33.1956 13.5083 33.1206 13.6271L23.4255 28.5436C23.3468 28.6606 23.3111 28.8012 23.3245 28.9415C23.3379 29.0817 23.3996 29.2131 23.499 29.3132C23.4193 30.2295 23.3182 31.3839 23.2815 31.7718L22.9352 32.3002C22.8463 32.4398 22.8155 32.6086 22.8494 32.7705C22.8663 32.8506 22.8991 32.9264 22.946 32.9936C22.9928 33.0607 23.0527 33.1178 23.1221 33.1615C23.2222 33.2272 23.3394 33.2622 23.4592 33.2622C23.5636 33.2633 23.6665 33.2377 23.7582 33.188C23.8499 33.1383 23.9273 33.0661 23.9832 32.9782L24.3294 32.4468C24.6695 32.2544 25.696 31.6863 26.4927 31.2465C26.6247 31.2954 26.7696 31.2975 26.903 31.2525C27.0364 31.2074 27.1501 31.1179 27.2251 30.9991L36.4514 16.8065C36.5798 17.0259 36.6425 17.2773 36.6322 17.5311C36.6218 17.7849 36.5389 18.0305 36.3932 18.2389L33.3933 22.8567C33.3484 22.925 33.3177 23.0015 33.303 23.0817C33.2882 23.162 33.2898 23.2444 33.3075 23.324C33.324 23.4038 33.3564 23.4795 33.4027 23.5467C33.449 23.6138 33.5083 23.671 33.5772 23.7149C33.6458 23.7606 33.723 23.792 33.804 23.8072C33.8851 23.8224 33.9685 23.8212 34.049 23.8035C34.2106 23.7679 34.3515 23.6703 34.4413 23.5317L37.4411 18.9169C38.1735 17.8052 37.962 16.4278 36.9386 15.4382ZM34.9101 14.0425L35.3268 13.4011L36.2246 13.9844L35.811 14.6227L34.9101 14.0425ZM26.4437 29.924C26.3586 29.9324 26.2761 29.9584 26.2016 30.0004L26.1066 30.0493L24.6174 30.8708C24.6573 30.4341 24.7063 29.8538 24.7737 29.078C24.7796 28.9911 24.7681 28.904 24.74 28.8215L27.7307 24.2189L29.4374 25.3184L26.4437 29.924ZM30.1207 24.2739L28.414 23.1744L33.8315 14.8396L35.5382 15.9421L30.1207 24.2739Z" fill="black"/>
<path d="M18.6312 7.13099C18.6304 7.30328 18.5614 7.46828 18.4392 7.5901C18.3169 7.71193 18.1514 7.78073 17.9785 7.78153H6.50619C6.33309 7.78153 6.16708 7.713 6.04468 7.591C5.92228 7.469 5.85352 7.30353 5.85352 7.13099C5.85352 6.95846 5.92228 6.793 6.04468 6.671C6.16708 6.549 6.33309 6.48047 6.50619 6.48047H17.9785C18.1517 6.48047 18.3177 6.549 18.4401 6.671C18.5625 6.793 18.6312 6.95846 18.6312 7.13099Z" fill="black"/>
<path d="M24.3658 12.8478C24.3658 13.0203 24.297 13.1858 24.1746 13.3078C24.0522 13.4298 23.8862 13.4983 23.7131 13.4983H17.9769C17.8038 13.4983 17.6378 13.4298 17.5154 13.3078C17.393 13.1858 17.3242 13.0203 17.3242 12.8478C17.3242 12.6753 17.393 12.5098 17.5154 12.3878C17.6378 12.2658 17.8038 12.1973 17.9769 12.1973H23.7131C23.8859 12.1981 24.0515 12.2669 24.1737 12.3887C24.2959 12.5105 24.3649 12.6755 24.3658 12.8478Z" fill="black"/>
<path d="M15.7631 12.8478C15.7631 13.0203 15.6944 13.1858 15.572 13.3078C15.4496 13.4298 15.2836 13.4983 15.1105 13.4983H6.50619C6.33309 13.4983 6.16708 13.4298 6.04468 13.3078C5.92228 13.1858 5.85352 13.0203 5.85352 12.8478C5.85352 12.6753 5.92228 12.5098 6.04468 12.3878C6.16708 12.2658 6.33309 12.1973 6.50619 12.1973H15.1105C15.2833 12.1981 15.4489 12.2669 15.5711 12.3887C15.6933 12.5105 15.7623 12.6755 15.7631 12.8478Z" fill="black"/>
<path d="M17.9142 18.5654C17.9142 18.738 17.8455 18.9035 17.7231 19.0255C17.6007 19.1475 17.4347 19.216 17.2616 19.216H12.6898C12.5167 19.216 12.3507 19.1475 12.2283 19.0255C12.1059 18.9035 12.0371 18.738 12.0371 18.5654C12.0379 18.3934 12.107 18.2288 12.2294 18.1074C12.3517 17.9861 12.5172 17.918 12.6898 17.918H17.2616C17.4341 17.918 17.5997 17.9861 17.722 18.1074C17.8443 18.2288 17.9134 18.3934 17.9142 18.5654Z" fill="black"/>
<path d="M10.4743 18.5655C10.4743 18.738 10.4056 18.9035 10.2832 19.0255C10.1608 19.1475 9.99476 19.216 9.82166 19.216H6.50619C6.33309 19.216 6.16708 19.1475 6.04468 19.0255C5.92228 18.9035 5.85352 18.738 5.85352 18.5655C5.85351 18.4802 5.87042 18.3957 5.90325 18.317C5.93609 18.2382 5.98422 18.1667 6.04487 18.1065C6.10552 18.0464 6.17749 17.9987 6.25665 17.9664C6.33582 17.934 6.42063 17.9176 6.50619 17.918H9.82166C9.90722 17.9176 9.99202 17.934 10.0712 17.9664C10.1504 17.9987 10.2223 18.0464 10.283 18.1065C10.3436 18.1667 10.3918 18.2382 10.4246 18.317C10.4574 18.3957 10.4743 18.4802 10.4743 18.5655Z" fill="black"/>
<path d="M21.3737 24.2823C21.3741 24.3679 21.3575 24.4529 21.3249 24.5321C21.2923 24.6114 21.2443 24.6835 21.1836 24.7442C21.123 24.8049 21.0509 24.8531 20.9715 24.886C20.8921 24.9189 20.807 24.9358 20.721 24.9358H6.5062C6.42023 24.9358 6.33511 24.9189 6.25573 24.886C6.17634 24.8531 6.10425 24.8049 6.0436 24.7442C5.98296 24.6835 5.93495 24.6114 5.90233 24.5321C5.86971 24.4529 5.85312 24.3679 5.85352 24.2823C5.85352 24.197 5.87042 24.1125 5.90326 24.0338C5.9361 23.955 5.98423 23.8835 6.04488 23.8233C6.10552 23.7632 6.17749 23.7155 6.25666 23.6832C6.33583 23.6508 6.42063 23.6344 6.5062 23.6348H20.721C20.8066 23.6344 20.8914 23.6508 20.9705 23.6832C21.0497 23.7155 21.1217 23.7632 21.1823 23.8233C21.243 23.8835 21.2911 23.955 21.3239 24.0338C21.3568 24.1125 21.3737 24.197 21.3737 24.2823Z" fill="black"/>
<path d="M17.9126 30.0031C17.9118 30.1754 17.8427 30.3404 17.7205 30.4622C17.5983 30.584 17.4328 30.6528 17.2599 30.6536H14.5726C14.3995 30.6536 14.2335 30.5851 14.1111 30.4631C13.9887 30.3411 13.9199 30.1756 13.9199 30.0031C13.9199 29.8305 13.9887 29.6651 14.1111 29.5431C14.2335 29.4211 14.3995 29.3525 14.5726 29.3525H17.2599C17.433 29.3525 17.599 29.4211 17.7214 29.5431C17.8438 29.6651 17.9126 29.8305 17.9126 30.0031Z" fill="black"/>
<path d="M12.3574 30.0031C12.3566 30.1759 12.2871 30.3414 12.1642 30.4633C12.0414 30.5852 11.875 30.6536 11.7017 30.6536H6.49251C6.31941 30.6536 6.1534 30.5851 6.031 30.4631C5.9086 30.3411 5.83984 30.1756 5.83984 30.0031C5.83984 29.8305 5.9086 29.6651 6.031 29.5431C6.1534 29.4211 6.31941 29.3525 6.49251 29.3525H11.7017C11.7876 29.3521 11.8728 29.3687 11.9524 29.4012C12.0319 29.4337 12.1042 29.4815 12.1651 29.542C12.2261 29.6024 12.2744 29.6743 12.3074 29.7534C12.3404 29.8325 12.3574 29.9174 12.3574 30.0031Z" fill="black"/>
<path d="M29.453 17.8049C29.7594 17.8049 30.0965 17.6796 30.1026 17.0749V7.13059C30.1013 6.95821 30.0332 6.793 29.9126 6.66942L24.1734 0.952052C24.0503 0.830481 23.8839 0.762405 23.7107 0.762696H0.765948C0.592848 0.762696 0.426838 0.831228 0.304438 0.953226C0.182038 1.07523 0.113281 1.24069 0.113281 1.41322V35.7175C0.113281 35.89 0.182038 36.0554 0.304438 36.1774C0.426838 36.2994 0.592848 36.368 0.765948 36.368H29.4468C29.6199 36.368 29.786 36.2994 29.9084 36.1774C30.0308 36.0554 30.0995 35.89 30.0995 35.7175V31.0568C30.1097 30.9619 30.0988 30.8659 30.0676 30.7757C30.0364 30.6855 29.9856 30.6032 29.919 30.5347C29.8523 30.4662 29.7713 30.4132 29.6818 30.3794C29.5923 30.3456 29.4964 30.3318 29.4009 30.3391C29.0209 30.3391 28.788 30.7422 28.788 31.1332V35.07H1.4125V2.06376H23.0519V7.13059C23.0527 7.30288 23.1217 7.46788 23.2439 7.5897C23.3661 7.71153 23.5317 7.78033 23.7045 7.78113H28.788V17.0627C28.7972 17.6796 29.1527 17.8049 29.453 17.8049ZM24.3664 6.47701V2.98306L27.8749 6.48007L24.3664 6.47701Z" fill="black"/>
</svg>
