<svg width="36" height="33" viewBox="0 0 36 33" fill="none" xmlns="http://www.w3.org/2000/svg">
<path d="M10.7657 10.7917H24.0943C24.1599 10.8073 24.227 10.8008 24.2908 10.7726C24.3547 10.7444 24.4138 10.6952 24.4643 10.6283C24.5147 10.5614 24.5551 10.4784 24.5829 10.385C24.6106 10.2917 24.625 10.1902 24.625 10.0875C24.625 9.98477 24.6106 9.8833 24.5829 9.78996C24.5551 9.69661 24.5147 9.61361 24.4643 9.54672C24.4138 9.47983 24.3547 9.43061 24.2908 9.4024C24.227 9.37419 24.1599 9.36766 24.0943 9.38328H10.7657C10.6569 9.40916 10.5577 9.49441 10.486 9.62359C10.4144 9.75276 10.375 9.9173 10.375 10.0875C10.375 10.2577 10.4144 10.4222 10.486 10.5514C10.5577 10.6806 10.6569 10.7658 10.7657 10.7917Z" fill="#272525"/>
<path d="M24.625 14.3546C24.625 14.2607 24.613 14.1678 24.5896 14.0812C24.5662 13.9947 24.5319 13.9164 24.4888 13.8508C24.4456 13.7852 24.3945 13.7337 24.3383 13.6993C24.2822 13.6649 24.2223 13.6484 24.162 13.6506H10.7676C10.6583 13.6768 10.5586 13.763 10.4866 13.8937C10.4146 14.0244 10.375 14.1908 10.375 14.363C10.375 14.5352 10.4146 14.7016 10.4866 14.8323C10.5586 14.963 10.6583 15.0492 10.7676 15.0754H24.162C24.2848 15.0754 24.4025 14.9995 24.4894 14.8643C24.5762 14.7291 24.625 14.5458 24.625 14.3546Z" fill="#272525"/>
<path d="M34.9487 13.0438L29.2295 8.91564V7.91327C29.2196 7.42916 29.1133 6.95177 28.9169 6.50828C28.7204 6.0648 28.4376 5.66392 28.0846 5.32861C27.7315 4.99331 27.3151 4.73011 26.8592 4.55406C26.4033 4.378 25.9168 4.29255 25.4275 4.30256H22.8457L18.2267 0.96124C18.1092 0.872948 17.9657 0.825195 17.8182 0.825195C17.6707 0.825195 17.5272 0.872948 17.4097 0.96124L12.7907 4.30256H10.2089C9.71958 4.29255 9.23309 4.378 8.77719 4.55406C8.32129 4.73011 7.9049 4.99331 7.55184 5.32861C7.19877 5.66392 6.91596 6.0648 6.71951 6.50828C6.52306 6.95177 6.41685 7.42916 6.40693 7.91327V8.91564L0.687668 13.0438C0.59775 13.1072 0.524875 13.1914 0.475496 13.2891C0.426117 13.3868 0.40173 13.495 0.404418 13.6042C0.399048 13.64 0.399048 13.6763 0.404418 13.712C0.399131 13.7441 0.399131 13.7769 0.404418 13.809V30.9142C0.403001 31.0149 0.425381 31.1146 0.469778 31.2053C0.404383 31.3642 0.404383 31.5421 0.469778 31.701C0.515181 31.8376 0.602591 31.9568 0.719783 32.0418C0.836975 32.1268 0.978066 32.1734 1.12338 32.1752H34.5784C34.7237 32.1734 34.8648 32.1268 34.982 32.0418C35.0992 31.9568 35.1866 31.8376 35.232 31.701C35.2668 31.6229 35.2848 31.5385 35.2848 31.4531C35.2848 31.3678 35.2668 31.2834 35.232 31.2053C35.2802 31.1155 35.3063 31.0158 35.3083 30.9142V13.809C35.3144 13.7806 35.3144 13.7512 35.3083 13.7228C35.3135 13.6798 35.3135 13.6364 35.3083 13.5935C35.2981 13.4798 35.2601 13.3703 35.1974 13.2745C35.1348 13.1787 35.0494 13.0995 34.9487 13.0438ZM29.2295 10.6186L33.3909 13.615L29.382 16.6653L29.2295 16.7731V10.6186ZM17.8237 2.36247L20.4927 4.30256H15.1437L17.8237 2.36247ZM7.80131 7.91327C7.82123 7.30048 8.08579 6.72046 8.53703 6.30027C8.98827 5.88007 9.58945 5.65393 10.2089 5.67136H25.4602C26.0807 5.65389 26.683 5.8797 27.136 6.29961C27.589 6.71952 27.8559 7.29953 27.8786 7.91327V17.7754L22.4317 21.6987C22.3359 21.7158 22.2459 21.7566 22.1703 21.8173L17.9217 24.9969L13.4661 21.7634L7.85577 17.7323L7.80131 7.91327ZM6.40693 10.6186V16.6437L2.26722 13.6042L6.40693 10.6186ZM1.78789 15.1563L11.8211 22.367L1.78789 29.5669V15.1563ZM3.12788 30.7957L13.0194 23.2508L17.4641 26.4843C17.5847 26.5703 17.7295 26.6164 17.8781 26.6164C18.0267 26.6164 18.1715 26.5703 18.2921 26.4843L22.5298 23.3155L32.4976 30.8603L3.12788 30.7957ZM33.8485 29.5669L23.8153 22.367L33.8485 15.1563V29.5669Z" fill="#272525"/>
</svg>
