<svg width="41" height="43" viewBox="0 0 41 43" fill="none" xmlns="http://www.w3.org/2000/svg">
<path d="M10.4562 8.6752C11.0904 8.6752 11.7103 8.48716 12.2376 8.13485C12.7648 7.78254 13.1758 7.28179 13.4184 6.69592C13.6611 6.11006 13.7246 5.46539 13.6009 4.84344C13.4772 4.22149 13.1718 3.65019 12.7234 3.20179C12.275 2.75339 11.7037 2.44802 11.0818 2.3243C10.4598 2.20059 9.81514 2.26408 9.22928 2.50676C8.64342 2.74943 8.14265 3.16038 7.79034 3.68765C7.43804 4.21491 7.25 4.83481 7.25 5.46894C7.25 6.31929 7.58781 7.13482 8.18909 7.73611C8.79038 8.3374 9.6059 8.6752 10.4562 8.6752ZM10.4562 3.38026C10.8697 3.37874 11.2742 3.49994 11.6187 3.72851C11.9632 3.95709 12.2322 4.28276 12.3914 4.66428C12.5507 5.0458 12.5931 5.46601 12.5134 5.87168C12.4337 6.27735 12.2354 6.65025 11.9436 6.94313C11.6518 7.23601 11.2797 7.4357 10.8743 7.51692C10.4689 7.59814 10.0485 7.55722 9.66644 7.39936C9.28433 7.2415 8.95767 6.97381 8.72782 6.63016C8.49797 6.28651 8.37526 5.88237 8.37526 5.46894C8.37728 4.91694 8.59694 4.38802 8.98655 3.99697C9.37615 3.60592 9.90426 3.38432 10.4562 3.38026Z" fill="black"/>
<path d="M10.4562 8.6752C11.0904 8.6752 11.7103 8.48716 12.2376 8.13485C12.7648 7.78254 13.1758 7.28179 13.4184 6.69592C13.6611 6.11006 13.7246 5.46539 13.6009 4.84344C13.4772 4.22149 13.1718 3.65019 12.7234 3.20179C12.275 2.75339 11.7037 2.44802 11.0818 2.3243C10.4598 2.20059 9.81514 2.26408 9.22928 2.50676C8.64342 2.74943 8.14265 3.16038 7.79034 3.68765C7.43804 4.21491 7.25 4.83481 7.25 5.46894C7.25 6.31929 7.58781 7.13482 8.18909 7.73611C8.79038 8.3374 9.6059 8.6752 10.4562 8.6752ZM10.4562 3.38026C10.8697 3.37874 11.2742 3.49994 11.6187 3.72851C11.9632 3.95709 12.2322 4.28276 12.3914 4.66428C12.5507 5.0458 12.5931 5.46601 12.5134 5.87168C12.4337 6.27735 12.2354 6.65025 11.9436 6.94313C11.6518 7.23601 11.2797 7.4357 10.8743 7.51692C10.4689 7.59814 10.0485 7.55722 9.66644 7.39936C9.28433 7.2415 8.95767 6.97381 8.72782 6.63016C8.49797 6.28651 8.37526 5.88237 8.37526 5.46894C8.37728 4.91694 8.59694 4.38802 8.98655 3.99697C9.37615 3.60592 9.90426 3.38432 10.4562 3.38026Z" stroke="black"/>
<path d="M31.1183 8.6752C31.7525 8.6752 32.3724 8.48716 32.8997 8.13485C33.4269 7.78254 33.8379 7.28179 34.0805 6.69592C34.3232 6.11006 34.3867 5.46539 34.263 4.84344C34.1393 4.22149 33.8339 3.65019 33.3855 3.20179C32.9371 2.75339 32.3658 2.44802 31.7439 2.3243C31.1219 2.20059 30.4772 2.26408 29.8914 2.50676C29.3055 2.74943 28.8048 3.16038 28.4525 3.68765C28.1001 4.21491 27.9121 4.83481 27.9121 5.46894C27.9141 6.31867 28.2526 7.13301 28.8534 7.73385C29.4543 8.3347 30.2686 8.67316 31.1183 8.6752ZM31.1183 3.38026C31.5314 3.38026 31.9353 3.50276 32.2788 3.73227C32.6223 3.96177 32.89 4.28799 33.048 4.66964C33.2061 5.0513 33.2475 5.47127 33.1669 5.87643C33.0863 6.2816 32.8874 6.65376 32.5953 6.94587C32.3032 7.23798 31.931 7.4369 31.5258 7.5175C31.1207 7.59809 30.7007 7.55673 30.3191 7.39865C29.9374 7.24056 29.6112 6.97284 29.3817 6.62936C29.1522 6.28588 29.0297 5.88205 29.0297 5.46894C29.0297 5.19465 29.0837 4.92306 29.1887 4.66964C29.2936 4.41623 29.4475 4.18597 29.6414 3.99202C29.8354 3.79807 30.0656 3.64422 30.3191 3.53925C30.5725 3.43429 30.8441 3.38026 31.1183 3.38026Z" fill="black"/>
<path d="M31.1183 8.6752C31.7525 8.6752 32.3724 8.48716 32.8997 8.13485C33.4269 7.78254 33.8379 7.28179 34.0805 6.69592C34.3232 6.11006 34.3867 5.46539 34.263 4.84344C34.1393 4.22149 33.8339 3.65019 33.3855 3.20179C32.9371 2.75339 32.3658 2.44802 31.7439 2.3243C31.1219 2.20059 30.4772 2.26408 29.8914 2.50676C29.3055 2.74943 28.8048 3.16038 28.4525 3.68765C28.1001 4.21491 27.9121 4.83481 27.9121 5.46894C27.9141 6.31867 28.2526 7.13301 28.8534 7.73385C29.4543 8.3347 30.2686 8.67316 31.1183 8.6752ZM31.1183 3.38026C31.5314 3.38026 31.9353 3.50276 32.2788 3.73227C32.6223 3.96177 32.89 4.28799 33.048 4.66964C33.2061 5.0513 33.2475 5.47127 33.1669 5.87643C33.0863 6.2816 32.8874 6.65376 32.5953 6.94587C32.3032 7.23798 31.931 7.4369 31.5258 7.5175C31.1207 7.59809 30.7007 7.55673 30.3191 7.39865C29.9374 7.24056 29.6112 6.97284 29.3817 6.62936C29.1522 6.28588 29.0297 5.88205 29.0297 5.46894C29.0297 5.19465 29.0837 4.92306 29.1887 4.66964C29.2936 4.41623 29.4475 4.18597 29.6414 3.99202C29.8354 3.79807 30.0656 3.64422 30.3191 3.53925C30.5725 3.43429 30.8441 3.38026 31.1183 3.38026Z" stroke="black"/>
<path d="M34.9411 10.0732H28.4188C27.7226 10.0662 27.0576 9.78316 26.5699 9.28618L22.282 4.99702C21.8785 4.61395 21.3434 4.40039 20.7871 4.40039C20.2308 4.40039 19.6957 4.61395 19.2922 4.99702L15.0044 9.28618C14.7639 9.53366 14.4766 9.73071 14.1591 9.86584C13.8416 10.001 13.5004 10.0715 13.1554 10.0732H6.62523C5.65702 10.0732 4.72848 10.4579 4.04385 11.1427C3.35923 11.8276 2.97462 12.7564 2.97462 13.7249V23.2633C2.97359 23.541 3.02735 23.8161 3.13285 24.0729C3.23835 24.3297 3.39351 24.5631 3.58941 24.7598C3.78531 24.9565 4.01811 25.1126 4.27445 25.219C4.53078 25.3255 4.8056 25.3803 5.08316 25.3803C5.42363 25.3818 5.75904 25.2979 6.05875 25.1364V37.5238C6.06542 38.0435 6.23169 38.5486 6.53502 38.9706C6.83835 39.3926 7.26408 39.7111 7.75448 39.8829C8.24488 40.0547 8.77624 40.0716 9.27652 39.9311C9.7768 39.7907 10.2218 39.4997 10.5512 39.0978C10.882 39.4984 11.3275 39.788 11.8278 39.9276C12.3281 40.0672 12.8591 40.0501 13.3494 39.8786C13.8397 39.7072 14.2657 39.3895 14.5701 38.9685C14.8744 38.5474 15.0424 38.0432 15.0516 37.5238V16.141C15.05 15.8677 15.1028 15.5969 15.2068 15.3443C15.3108 15.0916 15.4639 14.8622 15.6574 14.6693L20.7871 9.50654L25.9169 14.6693C26.1103 14.8622 26.2634 15.0916 26.3674 15.3443C26.4714 15.5969 26.5242 15.8677 26.5227 16.141V37.5238C26.5293 38.0435 26.6956 38.5486 26.9989 38.9706C27.3023 39.3926 27.728 39.7111 28.2184 39.8829C28.7088 40.0547 29.2401 40.0716 29.7404 39.9311C30.2407 39.7907 30.6857 39.4997 31.0151 39.0978C31.3459 39.4984 31.7914 39.788 32.2917 39.9276C32.792 40.0672 33.323 40.0501 33.8133 39.8786C34.3036 39.7072 34.7296 39.3895 35.034 38.9685C35.3383 38.5474 35.5063 38.0432 35.5154 37.5238V25.1679C35.8152 25.3294 36.1506 25.4133 36.4911 25.4118C36.7686 25.4118 37.0434 25.357 37.2998 25.2505C37.5561 25.144 37.7889 24.988 37.9848 24.7913C38.1807 24.5946 38.3358 24.3612 38.4413 24.1044C38.5468 23.8475 38.6006 23.5724 38.5996 23.2948V13.7249C38.5996 13.2447 38.5049 12.7692 38.321 12.3256C38.137 11.882 37.8674 11.4791 37.5276 11.1399C37.1878 10.8008 36.7844 10.5319 36.3406 10.3489C35.8967 10.1658 35.4212 10.0721 34.9411 10.0732ZM13.895 37.5238C13.8686 37.8741 13.7109 38.2015 13.4534 38.4405C13.1958 38.6794 12.8576 38.8121 12.5063 38.8121C12.1551 38.8121 11.8169 38.6794 11.5594 38.4405C11.3018 38.2015 11.1441 37.8741 11.1177 37.5238V26.4428C11.1013 26.303 11.0341 26.1741 10.9289 26.0806C10.8238 25.9871 10.688 25.9354 10.5473 25.9354C10.4066 25.9354 10.2708 25.9871 10.1656 26.0806C10.0605 26.1741 9.99332 26.303 9.97688 26.4428V37.5238C9.9505 37.8741 9.79275 38.2015 9.53523 38.4405C9.27772 38.6794 8.93947 38.8121 8.58824 38.8121C8.23701 38.8121 7.89874 38.6794 7.64122 38.4405C7.38371 38.2015 7.22596 37.8741 7.19958 37.5238V23.6726H13.895V37.5238ZM14.8391 13.8587C14.235 14.4645 13.8955 15.2852 13.895 16.141V22.5314H7.17598V14.26C7.17598 14.1846 7.16112 14.1099 7.13225 14.0402C7.10339 13.9705 7.06109 13.9071 7.00776 13.8538C6.95443 13.8004 6.8911 13.7581 6.82142 13.7292C6.75173 13.7004 6.67705 13.6855 6.60162 13.6855C6.45067 13.6876 6.30659 13.749 6.20058 13.8565C6.09457 13.9641 6.03514 14.109 6.03515 14.26V23.2633C6.0473 23.3983 6.03123 23.5343 5.98792 23.6628C5.94461 23.7912 5.87503 23.9092 5.78362 24.0092C5.69221 24.1093 5.58097 24.1892 5.45698 24.2438C5.33299 24.2985 5.19899 24.3267 5.0635 24.3267C4.928 24.3267 4.794 24.2985 4.67002 24.2438C4.54603 24.1892 4.43477 24.1093 4.34336 24.0092C4.25195 23.9092 4.18238 23.7912 4.13908 23.6628C4.09577 23.5343 4.07967 23.3983 4.09182 23.2633V13.7249C4.09182 13.059 4.35627 12.4205 4.82695 11.9496C5.29763 11.4788 5.93599 11.2143 6.60162 11.2143H13.1318C13.6259 11.2156 14.1153 11.1189 14.5718 10.9298C15.0282 10.7407 15.4427 10.4629 15.7911 10.1125L18.7572 7.14554C18.8511 7.47072 19.0272 7.76618 19.2686 8.00337L19.9531 8.69593L14.8391 13.8587ZM34.3589 37.5238C34.3325 37.8741 34.1748 38.2015 33.9172 38.4405C33.6597 38.6794 33.3215 38.8121 32.9703 38.8121C32.619 38.8121 32.2808 38.6794 32.0232 38.4405C31.7657 38.2015 31.608 37.8741 31.5816 37.5238V26.4428C31.5652 26.303 31.498 26.1741 31.3928 26.0806C31.2877 25.9871 31.1519 25.9354 31.0112 25.9354C30.8705 25.9354 30.7347 25.9871 30.6295 26.0806C30.5244 26.1741 30.4572 26.303 30.4408 26.4428V37.5238C30.4144 37.8741 30.2567 38.2015 29.9991 38.4405C29.7416 38.6794 29.4034 38.8121 29.0521 38.8121C28.7009 38.8121 28.3626 38.6794 28.1051 38.4405C27.8476 38.2015 27.6899 37.8741 27.6635 37.5238V23.6726H34.3589V37.5238ZM37.4509 23.2633C37.4631 23.3983 37.447 23.5343 37.4037 23.6628C37.3604 23.7912 37.2908 23.9092 37.1994 24.0092C37.108 24.1093 36.9967 24.1892 36.8727 24.2438C36.7488 24.2985 36.6147 24.3267 36.4792 24.3267C36.3437 24.3267 36.2097 24.2985 36.0858 24.2438C35.9618 24.1892 35.8505 24.1093 35.7591 24.0092C35.6677 23.9092 35.5981 23.7912 35.5548 23.6628C35.5115 23.5343 35.4954 23.3983 35.5076 23.2633V14.26C35.5076 14.109 35.4482 13.9641 35.3422 13.8565C35.2361 13.749 35.0921 13.6876 34.9411 13.6855C34.7888 13.6855 34.6427 13.746 34.535 13.8538C34.4273 13.9615 34.3668 14.1077 34.3668 14.26V22.5314H27.632V16.141C27.6315 15.2852 27.292 14.4645 26.6879 13.8587L20.0633 7.19276C19.9734 7.10286 19.902 6.99612 19.8534 6.87863C19.8047 6.76115 19.7796 6.63523 19.7796 6.50806C19.7796 6.38089 19.8047 6.25498 19.8534 6.13749C19.902 6.02001 19.9734 5.91327 20.0633 5.82337C20.2486 5.64906 20.4934 5.55201 20.7478 5.55201C21.0021 5.55201 21.2469 5.64906 21.4323 5.82337L25.7202 10.1125C26.4269 10.8158 27.3825 11.2118 28.3795 11.2143H34.9096C35.5753 11.2143 36.2137 11.4788 36.6843 11.9496C37.155 12.4205 37.4194 13.059 37.4194 13.7249L37.4509 23.2633Z" fill="black"/>
</svg>
