<svg xmlns="http://www.w3.org/2000/svg" xmlns:xlink="http://www.w3.org/1999/xlink" width="1080" zoomAndPan="magnify" viewBox="0 0 810 809.999993" height="1080" preserveAspectRatio="xMidYMid meet" version="1.0"><defs><g><g id="id1"/><g id="id2"/></g><clipPath id="id3"><path d="M 149.886719 23.902344 L 554 23.902344 L 554 428 L 149.886719 428 Z M 149.886719 23.902344 " clip-rule="nonzero"/></clipPath><clipPath id="id4"><path d="M 472 346 L 659.886719 346 L 659.886719 533.902344 L 472 533.902344 Z M 472 346 " clip-rule="nonzero"/></clipPath></defs><rect x="-81" width="972" fill="rgb(100%, 100%, 100%)" y="-80.999999" height="971.999992" fill-opacity="1"/><rect x="-81" width="972" fill="rgb(100%, 100%, 100%)" y="-80.999999" height="971.999992" fill-opacity="1"/><rect x="-81" width="972" fill="rgb(100%, 100%, 100%)" y="-80.999999" height="971.999992" fill-opacity="1"/><path fill="rgb(30.198669%, 81.959534%, 44.309998%)" d="M 137.265625 581.398438 C 96.464844 581.398438 63.390625 614.476562 63.390625 655.273438 C 63.390625 696.074219 96.464844 729.148438 137.265625 729.148438 C 178.066406 729.148438 211.140625 696.074219 211.140625 655.273438 C 211.140625 614.476562 178.066406 581.398438 137.265625 581.398438 " fill-opacity="1" fill-rule="nonzero"/><path fill="rgb(30.198669%, 81.959534%, 44.309998%)" d="M 330.023438 300.152344 C 325.773438 300.152344 321.691406 298.453125 318.695312 295.4375 L 260.746094 237 C 254.542969 230.75 254.585938 220.65625 260.832031 214.453125 C 267.101562 208.269531 277.171875 208.3125 283.398438 214.558594 L 329.257812 260.796875 L 419.421875 156.886719 C 425.179688 150.234375 435.25 149.511719 441.902344 155.292969 C 448.554688 161.050781 449.253906 171.125 443.496094 177.773438 L 342.070312 294.648438 C 339.160156 298.007812 334.972656 300.003906 330.554688 300.152344 C 330.382812 300.152344 330.191406 300.152344 330.023438 300.152344 Z M 330.023438 300.152344 " fill-opacity="1" fill-rule="nonzero"/><g clip-path="url(#id3)"><path fill="rgb(30.198669%, 81.959534%, 44.309998%)" d="M 351.761719 427.652344 C 240.453125 427.652344 149.886719 337.085938 149.886719 225.777344 C 149.886719 114.472656 240.453125 23.902344 351.761719 23.902344 C 463.066406 23.902344 553.636719 114.472656 553.636719 225.777344 C 553.636719 337.085938 463.066406 427.652344 351.761719 427.652344 Z M 351.761719 55.777344 C 258.027344 55.777344 181.761719 132.042969 181.761719 225.777344 C 181.761719 319.511719 258.027344 395.777344 351.761719 395.777344 C 445.496094 395.777344 521.761719 319.511719 521.761719 225.777344 C 521.761719 132.042969 445.496094 55.777344 351.761719 55.777344 Z M 351.761719 55.777344 " fill-opacity="1" fill-rule="nonzero"/></g><g clip-path="url(#id4)"><path fill="rgb(30.198669%, 81.959534%, 44.309998%)" d="M 643.949219 533.902344 C 639.867188 533.902344 635.789062 532.351562 632.6875 529.226562 L 477.347656 373.890625 C 471.121094 367.664062 471.121094 357.570312 477.347656 351.34375 C 483.574219 345.117188 493.667969 345.117188 499.894531 351.34375 L 655.230469 506.683594 C 661.457031 512.910156 661.457031 523.003906 655.230469 529.230469 C 652.109375 532.351562 648.027344 533.902344 643.949219 533.902344 Z M 643.949219 533.902344 " fill-opacity="1" fill-rule="nonzero"/></g><g fill="rgb(30.198669%, 81.959534%, 44.309998%)" fill-opacity="1"><g transform="translate(242.516768, 637.199988)"><g><path d="M 31.5 -13.359375 C 31.207031 -13.359375 31.0625 -13.210938 31.0625 -12.921875 L 31.0625 -3.78125 C 31.0625 -3.519531 31.191406 -3.375 31.453125 -3.34375 C 34.015625 -2.851562 37.1875 -2.609375 40.96875 -2.609375 C 42.269531 -2.578125 43.789062 -2.5625 45.53125 -2.5625 C 47.425781 -2.5625 49.597656 -2.578125 52.046875 -2.609375 C 52.679688 -2.609375 53.164062 -2.351562 53.5 -1.84375 C 53.71875 -1.539062 53.828125 -1.203125 53.828125 -0.828125 C 53.828125 -0.609375 53.769531 -0.390625 53.65625 -0.171875 C 53.394531 0.609375 52.941406 1.25 52.296875 1.75 C 51.648438 2.25 50.9375 2.5 50.15625 2.5 L 40.75 2.5 C 34.25 2.5 28.867188 1.703125 24.609375 0.109375 C 20.410156 -1.453125 16.976562 -4.3125 14.3125 -8.46875 C 14.269531 -8.539062 14.203125 -8.566406 14.109375 -8.546875 C 14.015625 -8.523438 13.953125 -8.476562 13.921875 -8.40625 C 12.316406 -4.25 10.273438 -0.925781 7.796875 1.5625 C 7.304688 2.039062 6.726562 2.28125 6.0625 2.28125 C 6.03125 2.28125 5.976562 2.28125 5.90625 2.28125 C 5.195312 2.25 4.566406 1.972656 4.015625 1.453125 C 3.492188 1.003906 3.234375 0.425781 3.234375 -0.28125 C 3.234375 -0.90625 3.453125 -1.441406 3.890625 -1.890625 C 7.898438 -6.015625 10.519531 -12.210938 11.75 -20.484375 C 11.851562 -21.222656 12.203125 -21.835938 12.796875 -22.328125 C 13.316406 -22.691406 13.875 -22.875 14.46875 -22.875 C 14.582031 -22.875 14.695312 -22.875 14.8125 -22.875 C 15.582031 -22.800781 16.191406 -22.453125 16.640625 -21.828125 C 17.015625 -21.378906 17.203125 -20.875 17.203125 -20.3125 C 17.203125 -20.164062 17.179688 -20 17.140625 -19.8125 C 16.847656 -18.257812 16.515625 -16.757812 16.140625 -15.3125 C 16.066406 -15.050781 16.085938 -14.789062 16.203125 -14.53125 C 18.273438 -10.144531 21.296875 -7.023438 25.265625 -5.171875 C 25.378906 -5.140625 25.472656 -5.148438 25.546875 -5.203125 C 25.617188 -5.253906 25.65625 -5.335938 25.65625 -5.453125 L 25.65625 -25.71875 C 25.65625 -26.007812 25.523438 -26.15625 25.265625 -26.15625 L 6.125 -26.15625 C 5.457031 -26.15625 4.878906 -26.394531 4.390625 -26.875 C 3.910156 -27.363281 3.671875 -27.953125 3.671875 -28.640625 C 3.671875 -29.328125 3.910156 -29.910156 4.390625 -30.390625 C 4.878906 -30.867188 5.457031 -31.109375 6.125 -31.109375 L 25.15625 -31.109375 C 25.457031 -31.109375 25.609375 -31.238281 25.609375 -31.5 L 25.609375 -37.515625 C 25.609375 -37.773438 25.457031 -37.90625 25.15625 -37.90625 L 11.078125 -37.90625 C 10.410156 -37.90625 9.832031 -38.144531 9.34375 -38.625 C 8.863281 -39.113281 8.625 -39.691406 8.625 -40.359375 C 8.625 -41.023438 8.863281 -41.597656 9.34375 -42.078125 C 9.832031 -42.566406 10.410156 -42.8125 11.078125 -42.8125 L 25.15625 -42.8125 C 25.457031 -42.8125 25.609375 -42.941406 25.609375 -43.203125 L 25.609375 -46.3125 C 25.609375 -47.09375 25.867188 -47.742188 26.390625 -48.265625 C 26.910156 -48.785156 27.550781 -49.046875 28.3125 -49.046875 C 29.070312 -49.046875 29.707031 -48.785156 30.21875 -48.265625 C 30.738281 -47.742188 31 -47.09375 31 -46.3125 L 31 -43.203125 C 31 -42.941406 31.128906 -42.8125 31.390625 -42.8125 L 46.640625 -42.8125 C 47.316406 -42.8125 47.894531 -42.566406 48.375 -42.078125 C 48.851562 -41.597656 49.09375 -41.023438 49.09375 -40.359375 C 49.09375 -39.691406 48.851562 -39.113281 48.375 -38.625 C 47.894531 -38.144531 47.316406 -37.90625 46.640625 -37.90625 L 31.390625 -37.90625 C 31.128906 -37.90625 31 -37.773438 31 -37.515625 L 31 -31.5 C 31 -31.238281 31.128906 -31.109375 31.390625 -31.109375 L 50.765625 -31.109375 C 51.472656 -31.109375 52.066406 -30.867188 52.546875 -30.390625 C 53.023438 -29.910156 53.265625 -29.328125 53.265625 -28.640625 C 53.265625 -27.953125 53.023438 -27.363281 52.546875 -26.875 C 52.066406 -26.394531 51.472656 -26.15625 50.765625 -26.15625 L 31.5 -26.15625 C 31.207031 -26.15625 31.0625 -26.007812 31.0625 -25.71875 L 31.0625 -18.59375 C 31.0625 -18.289062 31.207031 -18.140625 31.5 -18.140625 L 47.140625 -18.140625 C 47.816406 -18.140625 48.382812 -17.90625 48.84375 -17.4375 C 49.3125 -16.976562 49.546875 -16.414062 49.546875 -15.75 C 49.546875 -15.082031 49.3125 -14.515625 48.84375 -14.046875 C 48.382812 -13.585938 47.816406 -13.359375 47.140625 -13.359375 Z M 31.5 -13.359375 "/></g></g><g transform="translate(299.516765, 637.199988)"><g><path d="M 13.75 -27.5 C 14.039062 -27.5 14.1875 -27.628906 14.1875 -27.890625 L 14.1875 -35.625 C 14.1875 -35.882812 14.039062 -36.015625 13.75 -36.015625 L 5.015625 -36.015625 C 4.421875 -36.015625 3.910156 -36.226562 3.484375 -36.65625 C 3.054688 -37.082031 2.84375 -37.59375 2.84375 -38.1875 C 2.84375 -38.78125 3.054688 -39.289062 3.484375 -39.71875 C 3.910156 -40.144531 4.421875 -40.359375 5.015625 -40.359375 L 8.84375 -40.359375 C 8.957031 -40.359375 9.050781 -40.40625 9.125 -40.5 C 9.195312 -40.59375 9.21875 -40.675781 9.1875 -40.75 C 8.851562 -41.863281 8.351562 -43.085938 7.6875 -44.421875 C 7.425781 -44.898438 7.394531 -45.390625 7.59375 -45.890625 C 7.800781 -46.390625 8.164062 -46.734375 8.6875 -46.921875 C 8.976562 -46.992188 9.253906 -47.03125 9.515625 -47.03125 C 9.847656 -47.03125 10.164062 -46.976562 10.46875 -46.875 C 11.0625 -46.644531 11.503906 -46.253906 11.796875 -45.703125 C 12.097656 -45.140625 12.378906 -44.582031 12.640625 -44.03125 C 12.785156 -43.695312 12.859375 -43.363281 12.859375 -43.03125 C 12.859375 -42.65625 12.765625 -42.285156 12.578125 -41.921875 C 12.242188 -41.210938 11.707031 -40.726562 10.96875 -40.46875 C 10.925781 -40.46875 10.90625 -40.445312 10.90625 -40.40625 C 10.90625 -40.375 10.925781 -40.359375 10.96875 -40.359375 L 22.328125 -40.359375 C 22.359375 -40.359375 22.375 -40.375 22.375 -40.40625 C 22.375 -40.445312 22.375 -40.46875 22.375 -40.46875 C 21.59375 -40.65625 21.035156 -41.117188 20.703125 -41.859375 C 20.554688 -42.234375 20.484375 -42.601562 20.484375 -42.96875 C 20.484375 -43.34375 20.578125 -43.71875 20.765625 -44.09375 C 20.953125 -44.53125 21.15625 -44.992188 21.375 -45.484375 C 21.675781 -46.109375 22.125 -46.585938 22.71875 -46.921875 C 23.125 -47.148438 23.546875 -47.265625 23.984375 -47.265625 C 24.210938 -47.265625 24.421875 -47.222656 24.609375 -47.140625 C 25.203125 -47.035156 25.628906 -46.703125 25.890625 -46.140625 C 26.148438 -45.585938 26.148438 -45.03125 25.890625 -44.46875 C 25.140625 -43.132812 24.414062 -41.875 23.71875 -40.6875 C 23.675781 -40.613281 23.671875 -40.539062 23.703125 -40.46875 C 23.742188 -40.394531 23.800781 -40.359375 23.875 -40.359375 L 28.171875 -40.359375 C 28.765625 -40.359375 29.273438 -40.144531 29.703125 -39.71875 C 30.128906 -39.289062 30.34375 -38.78125 30.34375 -38.1875 C 30.34375 -37.59375 30.128906 -37.082031 29.703125 -36.65625 C 29.273438 -36.226562 28.765625 -36.015625 28.171875 -36.015625 L 19.3125 -36.015625 C 19.050781 -36.015625 18.921875 -35.882812 18.921875 -35.625 L 18.921875 -27.890625 C 18.921875 -27.628906 19.050781 -27.5 19.3125 -27.5 L 23.71875 -27.5 C 23.976562 -27.5 24.109375 -27.628906 24.109375 -27.890625 L 24.109375 -31.890625 C 24.109375 -32.523438 24.320312 -33.046875 24.75 -33.453125 C 25.175781 -33.859375 25.6875 -34.0625 26.28125 -34.0625 C 26.875 -34.0625 27.378906 -33.859375 27.796875 -33.453125 C 28.222656 -33.046875 28.4375 -32.523438 28.4375 -31.890625 L 28.4375 -23.875 C 28.4375 -23.28125 28.222656 -22.769531 27.796875 -22.34375 C 27.378906 -21.914062 26.875 -21.703125 26.28125 -21.703125 L 25.609375 -21.703125 C 25.203125 -21.703125 24.847656 -21.847656 24.546875 -22.140625 C 24.253906 -22.441406 24.109375 -22.800781 24.109375 -23.21875 C 24.109375 -23.363281 24.050781 -23.4375 23.9375 -23.4375 L 19.203125 -23.4375 C 18.941406 -23.4375 18.796875 -23.285156 18.765625 -22.984375 C 18.460938 -20.835938 17.679688 -18.921875 16.421875 -17.234375 C 15.160156 -15.546875 13.15625 -14.125 10.40625 -12.96875 C 10.039062 -12.820312 9.671875 -12.75 9.296875 -12.75 C 8.992188 -12.75 8.695312 -12.804688 8.40625 -12.921875 C 7.738281 -13.140625 7.164062 -13.546875 6.6875 -14.140625 C 6.3125 -14.546875 6.1875 -15.015625 6.3125 -15.546875 C 6.445312 -16.085938 6.753906 -16.453125 7.234375 -16.640625 C 9.347656 -17.492188 10.914062 -18.441406 11.9375 -19.484375 C 12.957031 -20.523438 13.617188 -21.691406 13.921875 -22.984375 C 13.953125 -23.097656 13.929688 -23.203125 13.859375 -23.296875 C 13.785156 -23.390625 13.691406 -23.4375 13.578125 -23.4375 L 9.359375 -23.4375 C 9.171875 -23.4375 9.078125 -23.34375 9.078125 -23.15625 C 9.078125 -22.5625 8.863281 -22.0625 8.4375 -21.65625 C 8.007812 -21.25 7.515625 -21.046875 6.953125 -21.046875 L 6.90625 -21.046875 C 6.3125 -21.046875 5.800781 -21.257812 5.375 -21.6875 C 4.945312 -22.113281 4.734375 -22.625 4.734375 -23.21875 L 4.734375 -31.890625 C 4.734375 -32.523438 4.945312 -33.046875 5.375 -33.453125 C 5.800781 -33.859375 6.3125 -34.0625 6.90625 -34.0625 C 7.5 -34.0625 8.007812 -33.859375 8.4375 -33.453125 C 8.863281 -33.046875 9.078125 -32.523438 9.078125 -31.890625 L 9.078125 -27.890625 C 9.078125 -27.628906 9.207031 -27.5 9.46875 -27.5 Z M 47.203125 -40.796875 C 47.203125 -41.054688 47.054688 -41.1875 46.765625 -41.1875 L 37.90625 -41.1875 C 37.644531 -41.1875 37.515625 -41.054688 37.515625 -40.796875 L 37.515625 -37.734375 C 37.515625 -37.472656 37.644531 -37.34375 37.90625 -37.34375 L 46.765625 -37.34375 C 47.054688 -37.34375 47.203125 -37.472656 47.203125 -37.734375 Z M 37.34375 -29.609375 C 37.34375 -29.316406 37.472656 -29.171875 37.734375 -29.171875 L 46.765625 -29.171875 C 47.054688 -29.171875 47.203125 -29.316406 47.203125 -29.609375 L 47.203125 -32.953125 C 47.203125 -33.210938 47.054688 -33.34375 46.765625 -33.34375 L 37.90625 -33.34375 C 37.644531 -33.34375 37.515625 -33.210938 37.515625 -32.953125 C 37.484375 -31.835938 37.425781 -30.722656 37.34375 -29.609375 Z M 31.0625 -2.0625 C 31.0625 -1.800781 31.207031 -1.671875 31.5 -1.671875 L 51.828125 -1.671875 C 52.453125 -1.671875 52.992188 -1.4375 53.453125 -0.96875 C 53.921875 -0.507812 54.15625 0.0390625 54.15625 0.6875 C 54.15625 1.34375 53.921875 1.890625 53.453125 2.328125 C 52.992188 2.773438 52.453125 3 51.828125 3 L 5.171875 3 C 4.546875 3 4 2.773438 3.53125 2.328125 C 3.070312 1.890625 2.84375 1.34375 2.84375 0.6875 C 2.84375 0.0390625 3.070312 -0.507812 3.53125 -0.96875 C 4 -1.4375 4.546875 -1.671875 5.171875 -1.671875 L 25.21875 -1.671875 C 25.507812 -1.671875 25.65625 -1.800781 25.65625 -2.0625 L 25.65625 -6.5625 C 25.65625 -6.863281 25.507812 -7.015625 25.21875 -7.015625 L 10.90625 -7.015625 C 10.28125 -7.015625 9.753906 -7.234375 9.328125 -7.671875 C 8.898438 -8.117188 8.6875 -8.648438 8.6875 -9.265625 C 8.6875 -9.878906 8.898438 -10.40625 9.328125 -10.84375 C 9.753906 -11.289062 10.28125 -11.515625 10.90625 -11.515625 L 25.21875 -11.515625 C 25.507812 -11.515625 25.65625 -11.644531 25.65625 -11.90625 C 25.65625 -12.800781 25.96875 -13.5625 26.59375 -14.1875 C 27.226562 -14.820312 27.992188 -15.140625 28.890625 -15.140625 L 29.328125 -15.140625 C 29.410156 -15.140625 29.457031 -15.175781 29.46875 -15.25 C 29.488281 -15.320312 29.460938 -15.378906 29.390625 -15.421875 C 29.316406 -15.492188 29.222656 -15.550781 29.109375 -15.59375 C 28.484375 -16.070312 28.132812 -16.703125 28.0625 -17.484375 C 28.0625 -17.585938 28.0625 -17.675781 28.0625 -17.75 C 28.0625 -18.457031 28.28125 -19.070312 28.71875 -19.59375 C 30.351562 -21.488281 31.4375 -23.578125 31.96875 -25.859375 C 32.507812 -28.140625 32.78125 -30.671875 32.78125 -33.453125 L 32.78125 -42.25 C 32.78125 -43.175781 33.09375 -43.953125 33.71875 -44.578125 C 34.351562 -45.210938 35.140625 -45.53125 36.078125 -45.53125 L 48.921875 -45.53125 C 49.816406 -45.53125 50.585938 -45.210938 51.234375 -44.578125 C 51.890625 -43.953125 52.21875 -43.175781 52.21875 -42.25 L 52.21875 -19.53125 C 52.21875 -18.269531 52.054688 -17.285156 51.734375 -16.578125 C 51.421875 -15.878906 50.859375 -15.328125 50.046875 -14.921875 C 49.003906 -14.429688 47.257812 -14.148438 44.8125 -14.078125 C 44.8125 -14.078125 44.789062 -14.078125 44.75 -14.078125 C 44.082031 -14.078125 43.488281 -14.300781 42.96875 -14.75 C 42.414062 -15.195312 42.023438 -15.773438 41.796875 -16.484375 C 41.617188 -17.035156 41.695312 -17.550781 42.03125 -18.03125 C 42.363281 -18.519531 42.828125 -18.742188 43.421875 -18.703125 C 44.304688 -18.703125 45.25 -18.703125 46.25 -18.703125 C 46.625 -18.703125 46.875 -18.765625 47 -18.890625 C 47.132812 -19.023438 47.203125 -19.257812 47.203125 -19.59375 L 47.203125 -24.71875 C 47.203125 -25.007812 47.054688 -25.15625 46.765625 -25.15625 L 37.078125 -25.15625 C 36.773438 -25.15625 36.609375 -25.007812 36.578125 -24.71875 C 35.535156 -20.707031 33.675781 -17.535156 31 -15.203125 L 31 -15.140625 C 31.039062 -15.140625 31.0625 -15.117188 31.0625 -15.078125 L 31.0625 -11.90625 C 31.0625 -11.644531 31.191406 -11.515625 31.453125 -11.515625 L 46.09375 -11.515625 C 46.71875 -11.515625 47.242188 -11.289062 47.671875 -10.84375 C 48.097656 -10.40625 48.3125 -9.878906 48.3125 -9.265625 C 48.3125 -8.648438 48.097656 -8.117188 47.671875 -7.671875 C 47.242188 -7.234375 46.71875 -7.015625 46.09375 -7.015625 L 31.5 -7.015625 C 31.207031 -7.015625 31.0625 -6.863281 31.0625 -6.5625 Z M 31.0625 -2.0625 "/></g></g><g transform="translate(356.516762, 637.199988)"><g><path d="M 22.65625 0.71875 C 16.90625 0.71875 12.226562 -1.195312 8.625 -5.03125 C 5.03125 -8.875 3.234375 -14.15625 3.234375 -20.875 C 3.234375 -27.550781 5.066406 -32.863281 8.734375 -36.8125 C 12.410156 -40.769531 17.109375 -42.75 22.828125 -42.75 C 26.753906 -42.75 30.222656 -41.597656 33.234375 -39.296875 C 33.898438 -38.773438 34.234375 -38.085938 34.234375 -37.234375 C 34.234375 -36.535156 33.992188 -35.90625 33.515625 -35.34375 C 33.023438 -34.789062 32.394531 -34.492188 31.625 -34.453125 C 31.582031 -34.453125 31.523438 -34.453125 31.453125 -34.453125 C 30.742188 -34.453125 30.128906 -34.640625 29.609375 -35.015625 C 27.722656 -36.347656 25.535156 -37.015625 23.046875 -37.015625 C 19.109375 -37.015625 15.953125 -35.582031 13.578125 -32.71875 C 11.203125 -29.863281 10.015625 -25.988281 10.015625 -21.09375 C 10.015625 -16.050781 11.15625 -12.109375 13.4375 -9.265625 C 15.71875 -6.429688 19.015625 -5.015625 23.328125 -5.015625 C 25.921875 -5.015625 28.015625 -5.609375 29.609375 -6.796875 C 29.835938 -6.972656 29.953125 -7.191406 29.953125 -7.453125 L 29.953125 -16.53125 C 29.953125 -16.789062 29.800781 -16.921875 29.5 -16.921875 L 24.328125 -16.921875 C 23.585938 -16.921875 22.945312 -17.1875 22.40625 -17.71875 C 21.863281 -18.257812 21.59375 -18.898438 21.59375 -19.640625 C 21.59375 -20.390625 21.863281 -21.023438 22.40625 -21.546875 C 22.945312 -22.066406 23.585938 -22.328125 24.328125 -22.328125 L 32.625 -22.328125 C 33.550781 -22.328125 34.328125 -22.007812 34.953125 -21.375 C 35.585938 -20.738281 35.90625 -19.957031 35.90625 -19.03125 L 35.90625 -7.453125 C 35.90625 -4.972656 35.050781 -3.191406 33.34375 -2.109375 C 30.257812 -0.222656 26.695312 0.71875 22.65625 0.71875 Z M 22.65625 0.71875 "/></g></g><g transform="translate(396.427893, 637.199988)"><g><path d="M 8.796875 0 C 7.898438 0 7.128906 -0.320312 6.484375 -0.96875 C 5.835938 -1.625 5.515625 -2.394531 5.515625 -3.28125 L 5.515625 -38.6875 C 5.515625 -39.570312 5.835938 -40.335938 6.484375 -40.984375 C 7.128906 -41.640625 7.898438 -41.96875 8.796875 -41.96875 L 18.265625 -41.96875 C 28.910156 -41.96875 34.234375 -37.738281 34.234375 -29.28125 C 34.234375 -24.863281 32.796875 -21.53125 29.921875 -19.28125 C 27.046875 -17.039062 23.234375 -15.921875 18.484375 -15.921875 L 12.578125 -15.921875 C 12.285156 -15.921875 12.140625 -15.769531 12.140625 -15.46875 L 12.140625 -3.28125 C 12.140625 -2.394531 11.820312 -1.625 11.1875 -0.96875 C 10.5625 -0.320312 9.78125 0 8.84375 0 Z M 12.140625 -21.59375 C 12.140625 -21.332031 12.285156 -21.203125 12.578125 -21.203125 L 17.875 -21.203125 C 21.207031 -21.203125 23.691406 -21.859375 25.328125 -23.171875 C 26.960938 -24.492188 27.78125 -26.53125 27.78125 -29.28125 C 27.78125 -31.988281 26.953125 -33.890625 25.296875 -34.984375 C 23.648438 -36.078125 21.082031 -36.625 17.59375 -36.625 L 12.578125 -36.625 C 12.285156 -36.625 12.140625 -36.492188 12.140625 -36.234375 Z M 12.140625 -21.59375 "/></g></g><g transform="translate(433.277501, 637.199988)"><g><path d="M 17.484375 0.71875 C 12.765625 0.71875 8.550781 -0.671875 4.84375 -3.453125 C 4.101562 -3.972656 3.734375 -4.710938 3.734375 -5.671875 C 3.734375 -6.453125 3.992188 -7.125 4.515625 -7.6875 C 5.023438 -8.3125 5.691406 -8.644531 6.515625 -8.6875 C 6.585938 -8.6875 6.660156 -8.6875 6.734375 -8.6875 C 7.472656 -8.6875 8.140625 -8.484375 8.734375 -8.078125 C 11.554688 -6.035156 14.507812 -5.015625 17.59375 -5.015625 C 20.113281 -5.015625 22.066406 -5.550781 23.453125 -6.625 C 24.847656 -7.695312 25.546875 -9.144531 25.546875 -10.96875 C 25.546875 -11.707031 25.414062 -12.375 25.15625 -12.96875 C 24.894531 -13.5625 24.613281 -14.050781 24.3125 -14.4375 C 24.019531 -14.832031 23.507812 -15.25 22.78125 -15.6875 C 22.0625 -16.132812 21.476562 -16.460938 21.03125 -16.671875 C 20.59375 -16.878906 19.851562 -17.203125 18.8125 -17.640625 L 12.96875 -20.15625 C 7.289062 -22.5625 4.453125 -26.234375 4.453125 -31.171875 C 4.453125 -34.472656 5.75 -37.226562 8.34375 -39.4375 C 10.945312 -41.644531 14.253906 -42.75 18.265625 -42.75 C 22.160156 -42.75 25.703125 -41.582031 28.890625 -39.25 C 29.554688 -38.757812 29.890625 -38.070312 29.890625 -37.1875 C 29.890625 -36.476562 29.664062 -35.863281 29.21875 -35.34375 C 28.738281 -34.789062 28.128906 -34.476562 27.390625 -34.40625 C 27.273438 -34.363281 27.160156 -34.34375 27.046875 -34.34375 C 26.421875 -34.34375 25.847656 -34.53125 25.328125 -34.90625 C 23.140625 -36.3125 20.785156 -37.015625 18.265625 -37.015625 C 16.109375 -37.015625 14.390625 -36.519531 13.109375 -35.53125 C 11.828125 -34.550781 11.1875 -33.226562 11.1875 -31.5625 C 11.1875 -30.894531 11.328125 -30.265625 11.609375 -29.671875 C 11.890625 -29.078125 12.203125 -28.582031 12.546875 -28.1875 C 12.898438 -27.800781 13.429688 -27.410156 14.140625 -27.015625 C 14.847656 -26.628906 15.429688 -26.320312 15.890625 -26.09375 C 16.359375 -25.875 17.054688 -25.597656 17.984375 -25.265625 L 23.71875 -22.828125 C 26.457031 -21.640625 28.566406 -20.160156 30.046875 -18.390625 C 31.535156 -16.628906 32.28125 -14.320312 32.28125 -11.46875 C 32.28125 -7.976562 30.9375 -5.070312 28.25 -2.75 C 25.5625 -0.4375 21.972656 0.71875 17.484375 0.71875 Z M 17.484375 0.71875 "/></g></g><g transform="translate(467.900546, 637.199988)"><g><path d="M 10.125 2.34375 C 9.6875 2.863281 9.09375 3.160156 8.34375 3.234375 C 8.238281 3.234375 8.128906 3.234375 8.015625 3.234375 C 7.378906 3.234375 6.804688 3.066406 6.296875 2.734375 C 5.773438 2.398438 5.492188 1.914062 5.453125 1.28125 C 5.421875 0.644531 5.609375 0.109375 6.015625 -0.328125 C 7.753906 -2.335938 9.109375 -4.863281 10.078125 -7.90625 C 10.265625 -8.53125 10.632812 -8.992188 11.1875 -9.296875 C 11.519531 -9.484375 11.875 -9.578125 12.25 -9.578125 C 12.46875 -9.578125 12.691406 -9.539062 12.921875 -9.46875 C 13.546875 -9.238281 14.023438 -8.828125 14.359375 -8.234375 C 14.546875 -7.898438 14.640625 -7.53125 14.640625 -7.125 C 14.640625 -6.90625 14.601562 -6.679688 14.53125 -6.453125 C 13.414062 -2.703125 11.945312 0.226562 10.125 2.34375 Z M 18.640625 -6.0625 C 18.535156 -6.625 18.648438 -7.144531 18.984375 -7.625 C 19.316406 -8.101562 19.757812 -8.382812 20.3125 -8.46875 C 20.425781 -8.46875 20.539062 -8.46875 20.65625 -8.46875 C 21.175781 -8.46875 21.640625 -8.335938 22.046875 -8.078125 C 22.566406 -7.703125 22.898438 -7.21875 23.046875 -6.625 C 23.640625 -3.945312 23.9375 -1.90625 23.9375 -0.5 C 23.9375 0.09375 23.75 0.613281 23.375 1.0625 C 22.9375 1.582031 22.378906 1.878906 21.703125 1.953125 C 21.109375 2.054688 20.578125 1.894531 20.109375 1.46875 C 19.648438 1.039062 19.40625 0.53125 19.375 -0.0625 C 19.300781 -1.914062 19.054688 -3.914062 18.640625 -6.0625 Z M 27.546875 -6.796875 C 27.367188 -7.316406 27.398438 -7.816406 27.640625 -8.296875 C 27.878906 -8.773438 28.273438 -9.070312 28.828125 -9.1875 C 29.421875 -9.332031 29.988281 -9.273438 30.53125 -9.015625 C 31.070312 -8.753906 31.453125 -8.347656 31.671875 -7.796875 C 32.335938 -6.117188 32.894531 -4.429688 33.34375 -2.734375 C 33.53125 -2.140625 33.457031 -1.570312 33.125 -1.03125 C 32.789062 -0.488281 32.328125 -0.144531 31.734375 0 C 31.140625 0.144531 30.585938 0.0625 30.078125 -0.25 C 29.578125 -0.5625 29.253906 -1.015625 29.109375 -1.609375 C 28.703125 -3.242188 28.179688 -4.972656 27.546875 -6.796875 Z M 43.53125 -22.71875 C 43.5625 -23.007812 43.453125 -23.15625 43.203125 -23.15625 L 24.71875 -23.15625 C 24.414062 -23.15625 24.171875 -23.046875 23.984375 -22.828125 C 22.617188 -21.117188 21.082031 -19.410156 19.375 -17.703125 C 19.332031 -17.628906 19.320312 -17.554688 19.34375 -17.484375 C 19.363281 -17.410156 19.425781 -17.375 19.53125 -17.375 L 42.03125 -17.375 C 42.320312 -17.375 42.503906 -17.519531 42.578125 -17.8125 C 42.910156 -19.375 43.226562 -21.007812 43.53125 -22.71875 Z M 39.015625 -32.890625 C 39.054688 -33.148438 38.945312 -33.28125 38.6875 -33.28125 L 31.390625 -33.28125 C 31.097656 -33.28125 30.878906 -33.148438 30.734375 -32.890625 C 29.984375 -31.484375 29.015625 -29.875 27.828125 -28.0625 C 27.753906 -27.976562 27.742188 -27.898438 27.796875 -27.828125 C 27.859375 -27.753906 27.925781 -27.71875 28 -27.71875 L 37.515625 -27.71875 C 37.816406 -27.71875 38.003906 -27.847656 38.078125 -28.109375 C 38.410156 -29.597656 38.722656 -31.191406 39.015625 -32.890625 Z M 47.421875 -17.8125 C 47.347656 -17.519531 47.441406 -17.375 47.703125 -17.375 L 49.875 -17.375 C 50.769531 -17.375 51.515625 -17.054688 52.109375 -16.421875 C 52.660156 -15.828125 52.9375 -15.160156 52.9375 -14.421875 C 52.9375 -14.304688 52.9375 -14.210938 52.9375 -14.140625 C 52.457031 -8.910156 51.9375 -5.019531 51.375 -2.46875 C 50.820312 0.0703125 50.132812 1.765625 49.3125 2.609375 C 48.3125 3.648438 46.992188 4.226562 45.359375 4.34375 C 44.585938 4.414062 43.492188 4.453125 42.078125 4.453125 C 41.710938 4.453125 41.34375 4.453125 40.96875 4.453125 C 40.257812 4.453125 39.644531 4.207031 39.125 3.71875 C 38.613281 3.238281 38.265625 2.648438 38.078125 1.953125 C 37.929688 1.429688 38.015625 0.945312 38.328125 0.5 C 38.640625 0.0507812 39.054688 -0.148438 39.578125 -0.109375 C 40.578125 -0.078125 41.726562 -0.0625 43.03125 -0.0625 C 43.882812 -0.0625 44.550781 -0.265625 45.03125 -0.671875 C 46.101562 -1.671875 46.976562 -5.582031 47.65625 -12.40625 C 47.6875 -12.664062 47.570312 -12.796875 47.3125 -12.796875 L 14.3125 -12.796875 C 14.050781 -12.796875 13.804688 -12.722656 13.578125 -12.578125 C 11.578125 -11.023438 9.445312 -9.597656 7.1875 -8.296875 C 6.769531 -8.066406 6.34375 -7.953125 5.90625 -7.953125 C 5.675781 -7.953125 5.429688 -7.992188 5.171875 -8.078125 C 4.472656 -8.253906 3.9375 -8.679688 3.5625 -9.359375 C 3.300781 -9.765625 3.171875 -10.1875 3.171875 -10.625 C 3.171875 -10.8125 3.191406 -11.019531 3.234375 -11.25 C 3.410156 -11.914062 3.796875 -12.414062 4.390625 -12.75 C 12.597656 -17.382812 19.390625 -24.117188 24.765625 -32.953125 C 24.804688 -33.023438 24.796875 -33.097656 24.734375 -33.171875 C 24.679688 -33.242188 24.617188 -33.28125 24.546875 -33.28125 L 8.078125 -33.28125 C 7.398438 -33.28125 6.828125 -33.507812 6.359375 -33.96875 C 5.898438 -34.4375 5.671875 -34.992188 5.671875 -35.640625 C 5.671875 -36.296875 5.898438 -36.851562 6.359375 -37.3125 C 6.828125 -37.78125 7.398438 -38.015625 8.078125 -38.015625 L 15.75 -38.015625 C 15.863281 -38.015625 15.945312 -38.0625 16 -38.15625 C 16.0625 -38.25 16.070312 -38.332031 16.03125 -38.40625 C 15.4375 -39.96875 14.582031 -41.75 13.46875 -43.75 C 13.132812 -44.3125 13.066406 -44.890625 13.265625 -45.484375 C 13.472656 -46.078125 13.875 -46.484375 14.46875 -46.703125 C 14.84375 -46.847656 15.21875 -46.921875 15.59375 -46.921875 C 15.882812 -46.921875 16.179688 -46.882812 16.484375 -46.8125 C 17.148438 -46.59375 17.664062 -46.1875 18.03125 -45.59375 C 18.851562 -44.363281 19.5625 -43.140625 20.15625 -41.921875 C 20.332031 -41.546875 20.421875 -41.15625 20.421875 -40.75 C 20.421875 -40.414062 20.347656 -40.082031 20.203125 -39.75 C 19.910156 -39 19.390625 -38.476562 18.640625 -38.1875 C 18.609375 -38.144531 18.597656 -38.101562 18.609375 -38.0625 C 18.628906 -38.03125 18.640625 -38.015625 18.640625 -38.015625 L 27.109375 -38.015625 C 27.398438 -38.015625 27.601562 -38.144531 27.71875 -38.40625 C 28.789062 -40.5625 29.753906 -42.84375 30.609375 -45.25 C 30.867188 -46 31.351562 -46.554688 32.0625 -46.921875 C 32.46875 -47.148438 32.914062 -47.265625 33.40625 -47.265625 C 33.65625 -47.265625 33.910156 -47.222656 34.171875 -47.140625 C 34.878906 -46.921875 35.398438 -46.5 35.734375 -45.875 C 35.921875 -45.5 36.015625 -45.125 36.015625 -44.75 C 36.015625 -44.457031 35.957031 -44.144531 35.84375 -43.8125 C 35.144531 -41.988281 34.382812 -40.1875 33.5625 -38.40625 C 33.53125 -38.289062 33.539062 -38.195312 33.59375 -38.125 C 33.644531 -38.050781 33.726562 -38.015625 33.84375 -38.015625 L 41.53125 -38.015625 C 42.382812 -38.015625 43.085938 -37.679688 43.640625 -37.015625 C 44.046875 -36.535156 44.25 -35.976562 44.25 -35.34375 C 44.25 -35.15625 44.234375 -34.972656 44.203125 -34.796875 C 43.679688 -31.859375 43.234375 -29.628906 42.859375 -28.109375 C 42.785156 -27.847656 42.898438 -27.71875 43.203125 -27.71875 L 45.984375 -27.71875 C 46.835938 -27.71875 47.539062 -27.382812 48.09375 -26.71875 C 48.539062 -26.195312 48.765625 -25.625 48.765625 -25 C 48.765625 -24.8125 48.742188 -24.625 48.703125 -24.4375 C 48.296875 -22.0625 47.867188 -19.851562 47.421875 -17.8125 Z M 41.921875 -5.734375 C 42.066406 -5.429688 42.140625 -5.15625 42.140625 -4.90625 C 42.140625 -4.644531 42.082031 -4.382812 41.96875 -4.125 C 41.75 -3.5625 41.359375 -3.171875 40.796875 -2.953125 C 40.535156 -2.878906 40.273438 -2.84375 40.015625 -2.84375 C 39.765625 -2.84375 39.507812 -2.894531 39.25 -3 C 38.726562 -3.226562 38.351562 -3.617188 38.125 -4.171875 C 37.570312 -5.472656 36.890625 -6.847656 36.078125 -8.296875 C 35.921875 -8.515625 35.84375 -8.773438 35.84375 -9.078125 C 35.84375 -9.265625 35.878906 -9.445312 35.953125 -9.625 C 36.109375 -10.070312 36.425781 -10.367188 36.90625 -10.515625 C 37.164062 -10.628906 37.441406 -10.6875 37.734375 -10.6875 C 37.992188 -10.6875 38.253906 -10.648438 38.515625 -10.578125 C 39.078125 -10.390625 39.503906 -10.054688 39.796875 -9.578125 C 40.617188 -8.316406 41.328125 -7.035156 41.921875 -5.734375 Z M 41.921875 -5.734375 "/></g></g><g transform="translate(524.900543, 637.199988)"><g><path d="M 13.640625 -45.140625 C 13.929688 -45.804688 14.394531 -46.304688 15.03125 -46.640625 C 15.4375 -46.828125 15.84375 -46.921875 16.25 -46.921875 C 16.507812 -46.921875 16.789062 -46.882812 17.09375 -46.8125 C 17.757812 -46.59375 18.238281 -46.164062 18.53125 -45.53125 C 18.6875 -45.195312 18.765625 -44.863281 18.765625 -44.53125 C 18.765625 -44.238281 18.707031 -43.941406 18.59375 -43.640625 C 17.332031 -40.628906 15.847656 -37.566406 14.140625 -34.453125 C 13.992188 -34.191406 13.921875 -33.929688 13.921875 -33.671875 L 13.921875 1.953125 C 13.921875 2.617188 13.664062 3.203125 13.15625 3.703125 C 12.65625 4.203125 12.0625 4.453125 11.375 4.453125 C 10.695312 4.453125 10.113281 4.203125 9.625 3.703125 C 9.144531 3.203125 8.90625 2.617188 8.90625 1.953125 L 8.90625 -25.828125 C 8.90625 -25.867188 8.867188 -25.894531 8.796875 -25.90625 C 8.722656 -25.925781 8.664062 -25.921875 8.625 -25.890625 C 7.8125 -24.734375 6.941406 -23.617188 6.015625 -22.546875 C 5.609375 -22.066406 5.125 -21.828125 4.5625 -21.828125 C 4.445312 -21.828125 4.335938 -21.84375 4.234375 -21.875 C 3.523438 -21.945312 2.992188 -22.304688 2.640625 -22.953125 C 2.285156 -23.609375 2.109375 -24.289062 2.109375 -25 C 2.109375 -25.175781 2.128906 -25.34375 2.171875 -25.5 C 2.242188 -26.382812 2.578125 -27.160156 3.171875 -27.828125 C 7.367188 -32.648438 10.859375 -38.421875 13.640625 -45.140625 Z M 24.328125 -20.59375 C 24.546875 -21.300781 24.953125 -21.859375 25.546875 -22.265625 C 26.035156 -22.566406 26.535156 -22.71875 27.046875 -22.71875 C 27.203125 -22.71875 27.367188 -22.695312 27.546875 -22.65625 C 28.253906 -22.507812 28.8125 -22.140625 29.21875 -21.546875 C 29.476562 -21.140625 29.609375 -20.710938 29.609375 -20.265625 C 29.609375 -20.078125 29.570312 -19.851562 29.5 -19.59375 C 27.976562 -14.03125 26.015625 -9.222656 23.609375 -5.171875 C 23.234375 -4.578125 22.675781 -4.207031 21.9375 -4.0625 C 21.75 -4.0625 21.582031 -4.0625 21.4375 -4.0625 C 20.875 -4.0625 20.367188 -4.210938 19.921875 -4.515625 C 19.328125 -4.847656 18.957031 -5.363281 18.8125 -6.0625 C 18.78125 -6.25 18.765625 -6.4375 18.765625 -6.625 C 18.765625 -7.101562 18.894531 -7.566406 19.15625 -8.015625 C 21.300781 -11.390625 23.023438 -15.582031 24.328125 -20.59375 Z M 48.765625 -31.890625 C 48.796875 -32.191406 48.664062 -32.34375 48.375 -32.34375 L 39.90625 -32.34375 C 39.644531 -32.34375 39.515625 -32.191406 39.515625 -31.890625 L 39.515625 -1.671875 C 39.515625 -0.253906 39.335938 0.847656 38.984375 1.640625 C 38.640625 2.441406 38.054688 3.0625 37.234375 3.5 C 36.117188 4.0625 34.429688 4.398438 32.171875 4.515625 C 32.140625 4.515625 32.082031 4.515625 32 4.515625 C 31.257812 4.515625 30.59375 4.269531 30 3.78125 C 29.375 3.300781 28.910156 2.65625 28.609375 1.84375 C 28.535156 1.613281 28.5 1.390625 28.5 1.171875 C 28.5 0.796875 28.609375 0.441406 28.828125 0.109375 C 29.160156 -0.441406 29.644531 -0.71875 30.28125 -0.71875 C 30.582031 -0.71875 30.859375 -0.71875 31.109375 -0.71875 C 32.148438 -0.71875 32.859375 -0.71875 33.234375 -0.71875 C 33.597656 -0.71875 33.851562 -0.78125 34 -0.90625 C 34.15625 -1.039062 34.234375 -1.296875 34.234375 -1.671875 L 34.234375 -31.890625 C 34.234375 -32.191406 34.101562 -32.34375 33.84375 -32.34375 L 27 -32.34375 C 26.695312 -32.34375 26.492188 -32.210938 26.390625 -31.953125 C 25.160156 -29.390625 23.914062 -27.160156 22.65625 -25.265625 C 22.28125 -24.640625 21.722656 -24.289062 20.984375 -24.21875 C 20.867188 -24.21875 20.757812 -24.21875 20.65625 -24.21875 C 20.019531 -24.21875 19.460938 -24.421875 18.984375 -24.828125 C 18.421875 -25.273438 18.085938 -25.867188 17.984375 -26.609375 C 17.941406 -26.753906 17.921875 -26.898438 17.921875 -27.046875 C 17.921875 -27.640625 18.085938 -28.179688 18.421875 -28.671875 C 21.316406 -32.828125 23.691406 -38.242188 25.546875 -44.921875 C 25.734375 -45.660156 26.144531 -46.21875 26.78125 -46.59375 C 27.257812 -46.882812 27.738281 -47.03125 28.21875 -47.03125 C 28.445312 -47.03125 28.648438 -47.015625 28.828125 -46.984375 C 29.578125 -46.835938 30.132812 -46.445312 30.5 -45.8125 C 30.757812 -45.40625 30.890625 -44.976562 30.890625 -44.53125 C 30.890625 -44.269531 30.851562 -44.03125 30.78125 -43.8125 C 30.15625 -41.695312 29.46875 -39.632812 28.71875 -37.625 C 28.6875 -37.519531 28.695312 -37.425781 28.75 -37.34375 C 28.800781 -37.269531 28.882812 -37.234375 29 -37.234375 L 49.984375 -37.234375 C 50.054688 -37.234375 50.128906 -37.234375 50.203125 -37.234375 C 50.691406 -37.347656 51.195312 -37.347656 51.71875 -37.234375 L 52.828125 -37.015625 C 53.347656 -36.898438 53.753906 -36.640625 54.046875 -36.234375 C 54.273438 -35.898438 54.390625 -35.550781 54.390625 -35.1875 C 54.390625 -35.03125 54.367188 -34.898438 54.328125 -34.796875 C 53.804688 -31.972656 53.25 -29.148438 52.65625 -26.328125 C 52.507812 -25.734375 52.175781 -25.25 51.65625 -24.875 C 51.25 -24.625 50.820312 -24.5 50.375 -24.5 C 50.226562 -24.5 50.082031 -24.515625 49.9375 -24.546875 C 49.300781 -24.660156 48.796875 -24.976562 48.421875 -25.5 C 48.160156 -25.90625 48.03125 -26.347656 48.03125 -26.828125 C 48.03125 -26.941406 48.03125 -27.070312 48.03125 -27.21875 C 48.289062 -28.59375 48.535156 -30.148438 48.765625 -31.890625 Z M 43.75 -19.875 C 43.601562 -20.164062 43.53125 -20.476562 43.53125 -20.8125 C 43.53125 -21.070312 43.601562 -21.351562 43.75 -21.65625 C 44.007812 -22.28125 44.4375 -22.6875 45.03125 -22.875 C 45.363281 -22.988281 45.679688 -23.046875 45.984375 -23.046875 C 46.347656 -23.046875 46.71875 -22.972656 47.09375 -22.828125 C 47.757812 -22.523438 48.242188 -22.0625 48.546875 -21.4375 C 50.765625 -16.757812 52.453125 -12.140625 53.609375 -7.578125 C 53.640625 -7.347656 53.65625 -7.101562 53.65625 -6.84375 C 53.65625 -6.363281 53.523438 -5.898438 53.265625 -5.453125 C 52.898438 -4.785156 52.34375 -4.320312 51.59375 -4.0625 C 51.34375 -3.945312 51.085938 -3.890625 50.828125 -3.890625 C 50.453125 -3.890625 50.078125 -4.003906 49.703125 -4.234375 C 49.109375 -4.566406 48.722656 -5.085938 48.546875 -5.796875 C 47.503906 -10.390625 45.90625 -15.082031 43.75 -19.875 Z M 43.75 -19.875 "/></g></g></g><g fill="rgb(30.198669%, 81.959534%, 44.309998%)" fill-opacity="1"><g transform="translate(242.516768, 716.699984)"><g><path d="M 48.484375 -40.6875 C 48.859375 -40.238281 49.046875 -39.71875 49.046875 -39.125 C 49.046875 -39.019531 49.046875 -38.910156 49.046875 -38.796875 C 48.929688 -38.085938 48.578125 -37.53125 47.984375 -37.125 C 47.535156 -36.832031 47.050781 -36.6875 46.53125 -36.6875 C 46.34375 -36.6875 46.175781 -36.703125 46.03125 -36.734375 C 45.332031 -36.847656 44.757812 -37.179688 44.3125 -37.734375 C 43.15625 -39.148438 41.742188 -40.726562 40.078125 -42.46875 C 39.628906 -42.875 39.429688 -43.382812 39.484375 -44 C 39.546875 -44.613281 39.835938 -45.085938 40.359375 -45.421875 C 40.878906 -45.753906 41.4375 -45.921875 42.03125 -45.921875 C 42.101562 -45.921875 42.195312 -45.921875 42.3125 -45.921875 C 43.007812 -45.890625 43.601562 -45.628906 44.09375 -45.140625 C 45.71875 -43.585938 47.179688 -42.101562 48.484375 -40.6875 Z M 19.703125 -22.984375 C 19.890625 -23.054688 20.09375 -23.09375 20.3125 -23.09375 C 20.6875 -23.09375 21.0625 -22.96875 21.4375 -22.71875 C 21.988281 -22.375 22.300781 -21.867188 22.375 -21.203125 C 22.375 -21.097656 22.375 -20.96875 22.375 -20.8125 C 22.375 -20.300781 22.226562 -19.800781 21.9375 -19.3125 C 21.5625 -18.71875 21.019531 -18.3125 20.3125 -18.09375 C 18.195312 -17.457031 16.75 -17.03125 15.96875 -16.8125 C 15.71875 -16.738281 15.59375 -16.570312 15.59375 -16.3125 L 15.59375 -1.78125 C 15.59375 -0.375 15.421875 0.6875 15.078125 1.40625 C 14.742188 2.132812 14.171875 2.6875 13.359375 3.0625 C 12.285156 3.613281 10.429688 3.929688 7.796875 4.015625 C 7.753906 4.015625 7.71875 4.015625 7.6875 4.015625 C 7.019531 4.015625 6.40625 3.789062 5.84375 3.34375 C 5.289062 2.894531 4.882812 2.316406 4.625 1.609375 C 4.4375 1.054688 4.507812 0.53125 4.84375 0.03125 C 5.175781 -0.46875 5.640625 -0.71875 6.234375 -0.71875 C 7.203125 -0.6875 8.222656 -0.671875 9.296875 -0.671875 C 9.703125 -0.703125 9.976562 -0.800781 10.125 -0.96875 C 10.28125 -1.132812 10.359375 -1.425781 10.359375 -1.84375 L 10.359375 -14.859375 C 10.359375 -14.972656 10.316406 -15.054688 10.234375 -15.109375 C 10.160156 -15.171875 10.070312 -15.179688 9.96875 -15.140625 L 6.015625 -14.078125 C 5.785156 -14.003906 5.539062 -13.96875 5.28125 -13.96875 C 4.84375 -13.96875 4.421875 -14.097656 4.015625 -14.359375 C 3.378906 -14.691406 2.96875 -15.210938 2.78125 -15.921875 C 2.707031 -16.179688 2.671875 -16.421875 2.671875 -16.640625 C 2.671875 -17.085938 2.78125 -17.515625 3 -17.921875 C 3.375 -18.515625 3.914062 -18.90625 4.625 -19.09375 C 6.8125 -19.613281 8.59375 -20.054688 9.96875 -20.421875 C 10.226562 -20.503906 10.359375 -20.675781 10.359375 -20.9375 L 10.359375 -31.34375 C 10.359375 -31.601562 10.226562 -31.734375 9.96875 -31.734375 L 5.234375 -31.734375 C 4.566406 -31.734375 3.988281 -31.972656 3.5 -32.453125 C 3.019531 -32.929688 2.78125 -33.515625 2.78125 -34.203125 C 2.78125 -34.890625 3.019531 -35.460938 3.5 -35.921875 C 3.988281 -36.390625 4.566406 -36.625 5.234375 -36.625 L 9.96875 -36.625 C 10.226562 -36.625 10.359375 -36.773438 10.359375 -37.078125 L 10.359375 -45.203125 C 10.359375 -45.898438 10.613281 -46.5 11.125 -47 C 11.644531 -47.507812 12.257812 -47.765625 12.96875 -47.765625 C 13.675781 -47.765625 14.289062 -47.507812 14.8125 -47 C 15.332031 -46.5 15.59375 -45.898438 15.59375 -45.203125 L 15.59375 -37.078125 C 15.59375 -36.773438 15.71875 -36.625 15.96875 -36.625 L 19.65625 -36.625 C 20.351562 -36.625 20.929688 -36.390625 21.390625 -35.921875 C 21.859375 -35.460938 22.09375 -34.890625 22.09375 -34.203125 C 22.09375 -33.515625 21.859375 -32.929688 21.390625 -32.453125 C 20.929688 -31.972656 20.351562 -31.734375 19.65625 -31.734375 L 15.96875 -31.734375 C 15.71875 -31.734375 15.59375 -31.601562 15.59375 -31.34375 L 15.59375 -22.328125 C 15.59375 -22.210938 15.628906 -22.117188 15.703125 -22.046875 C 15.773438 -21.972656 15.863281 -21.953125 15.96875 -21.984375 C 16.226562 -22.054688 16.796875 -22.210938 17.671875 -22.453125 C 18.546875 -22.703125 19.222656 -22.878906 19.703125 -22.984375 Z M 45.703125 -24.65625 C 45.992188 -25.289062 46.472656 -25.703125 47.140625 -25.890625 C 47.367188 -25.921875 47.578125 -25.9375 47.765625 -25.9375 C 48.171875 -25.9375 48.554688 -25.828125 48.921875 -25.609375 C 49.554688 -25.234375 49.96875 -24.691406 50.15625 -23.984375 C 50.226562 -23.734375 50.265625 -23.476562 50.265625 -23.21875 C 50.265625 -22.800781 50.171875 -22.390625 49.984375 -21.984375 C 47.796875 -17.722656 44.898438 -13.625 41.296875 -9.6875 C 41.117188 -9.5 41.082031 -9.273438 41.1875 -9.015625 C 43.082031 -4.742188 45.347656 -2.441406 47.984375 -2.109375 C 48.015625 -2.109375 48.050781 -2.109375 48.09375 -2.109375 C 48.644531 -2.109375 49.109375 -2.613281 49.484375 -3.625 C 49.890625 -4.65625 50.222656 -6.25 50.484375 -8.40625 C 50.554688 -8.957031 50.84375 -9.335938 51.34375 -9.546875 C 51.851562 -9.753906 52.347656 -9.707031 52.828125 -9.40625 C 53.535156 -8.957031 54.070312 -8.382812 54.4375 -7.6875 C 54.695312 -7.164062 54.828125 -6.625 54.828125 -6.0625 C 54.828125 -5.84375 54.789062 -5.640625 54.71875 -5.453125 C 54.050781 -1.816406 53.160156 0.722656 52.046875 2.171875 C 51.046875 3.503906 49.894531 4.171875 48.59375 4.171875 C 48.476562 4.171875 48.347656 4.171875 48.203125 4.171875 C 43.523438 3.722656 39.78125 0.695312 36.96875 -4.90625 C 36.8125 -5.125 36.640625 -5.140625 36.453125 -4.953125 C 33.597656 -2.503906 30.648438 -0.445312 27.609375 1.21875 C 27.085938 1.519531 26.53125 1.671875 25.9375 1.671875 C 25.675781 1.671875 25.4375 1.648438 25.21875 1.609375 C 24.363281 1.429688 23.617188 1.023438 22.984375 0.390625 C 22.578125 -0.015625 22.375 -0.476562 22.375 -1 C 22.375 -1.113281 22.375 -1.207031 22.375 -1.28125 C 22.488281 -1.945312 22.84375 -2.429688 23.4375 -2.734375 C 27.332031 -4.617188 30.988281 -7.125 34.40625 -10.25 C 34.625 -10.425781 34.675781 -10.664062 34.5625 -10.96875 C 33.269531 -15.238281 32.175781 -20.765625 31.28125 -27.546875 C 31.25 -27.847656 31.101562 -27.976562 30.84375 -27.9375 L 25.765625 -27.4375 C 25.691406 -27.4375 25.601562 -27.4375 25.5 -27.4375 C 24.90625 -27.4375 24.382812 -27.625 23.9375 -28 C 23.375 -28.445312 23.054688 -29.019531 22.984375 -29.71875 C 22.984375 -29.832031 22.984375 -29.925781 22.984375 -30 C 22.984375 -30.59375 23.171875 -31.113281 23.546875 -31.5625 C 23.992188 -32.113281 24.566406 -32.429688 25.265625 -32.515625 L 30.34375 -32.953125 C 30.632812 -32.992188 30.765625 -33.144531 30.734375 -33.40625 C 30.242188 -39.34375 30 -43.21875 30 -45.03125 C 30 -45.695312 30.222656 -46.273438 30.671875 -46.765625 C 31.191406 -47.273438 31.820312 -47.53125 32.5625 -47.53125 C 33.300781 -47.53125 33.941406 -47.269531 34.484375 -46.75 C 35.023438 -46.238281 35.3125 -45.609375 35.34375 -44.859375 C 35.488281 -40.597656 35.710938 -36.984375 36.015625 -34.015625 C 36.054688 -33.710938 36.222656 -33.582031 36.515625 -33.625 L 50.765625 -35.0625 C 50.878906 -35.101562 50.972656 -35.125 51.046875 -35.125 C 51.640625 -35.125 52.175781 -34.921875 52.65625 -34.515625 C 53.175781 -34.066406 53.472656 -33.507812 53.546875 -32.84375 C 53.546875 -32.726562 53.546875 -32.632812 53.546875 -32.5625 C 53.546875 -31.96875 53.363281 -31.445312 53 -31 C 52.550781 -30.445312 51.992188 -30.132812 51.328125 -30.0625 L 37.015625 -28.609375 C 36.722656 -28.578125 36.59375 -28.410156 36.625 -28.109375 C 37.257812 -23.285156 38.078125 -19.035156 39.078125 -15.359375 C 39.078125 -15.285156 39.125 -15.238281 39.21875 -15.21875 C 39.3125 -15.207031 39.375 -15.238281 39.40625 -15.3125 C 42.007812 -18.46875 44.109375 -21.582031 45.703125 -24.65625 Z M 45.703125 -24.65625 "/></g></g><g transform="translate(299.516765, 716.699984)"><g><path d="M 45.421875 -16.421875 C 45.421875 -17.160156 45.6875 -17.800781 46.21875 -18.34375 C 46.757812 -18.882812 47.410156 -19.15625 48.171875 -19.15625 C 48.929688 -19.15625 49.570312 -18.882812 50.09375 -18.34375 C 50.613281 -17.800781 50.875 -17.160156 50.875 -16.421875 L 50.875 1.671875 C 50.875 2.410156 50.613281 3.046875 50.09375 3.578125 C 49.570312 4.117188 48.929688 4.390625 48.171875 4.390625 C 47.410156 4.390625 46.757812 4.117188 46.21875 3.578125 C 45.6875 3.046875 45.421875 2.410156 45.421875 1.671875 L 45.421875 1.390625 C 45.421875 1.128906 45.289062 1 45.03125 1 L 12.140625 1 C 11.878906 1 11.75 1.128906 11.75 1.390625 L 11.75 1.84375 C 11.75 2.582031 11.488281 3.210938 10.96875 3.734375 C 10.445312 4.253906 9.8125 4.515625 9.0625 4.515625 C 8.320312 4.515625 7.691406 4.253906 7.171875 3.734375 C 6.660156 3.210938 6.40625 2.582031 6.40625 1.84375 L 6.40625 -16.484375 C 6.40625 -17.222656 6.660156 -17.851562 7.171875 -18.375 C 7.691406 -18.894531 8.320312 -19.15625 9.0625 -19.15625 C 9.8125 -19.15625 10.445312 -18.894531 10.96875 -18.375 C 11.488281 -17.851562 11.75 -17.222656 11.75 -16.484375 L 11.75 -4.5625 C 11.75 -4.300781 11.878906 -4.171875 12.140625 -4.171875 L 25.046875 -4.171875 C 25.347656 -4.171875 25.5 -4.300781 25.5 -4.5625 L 25.5 -22.15625 C 25.5 -22.445312 25.347656 -22.59375 25.046875 -22.59375 L 11.859375 -22.59375 C 10.929688 -22.59375 10.148438 -22.910156 9.515625 -23.546875 C 8.890625 -24.179688 8.578125 -24.960938 8.578125 -25.890625 L 8.578125 -39.796875 C 8.578125 -40.535156 8.828125 -41.164062 9.328125 -41.6875 C 9.828125 -42.207031 10.445312 -42.46875 11.1875 -42.46875 C 11.925781 -42.46875 12.554688 -42.207031 13.078125 -41.6875 C 13.597656 -41.164062 13.859375 -40.535156 13.859375 -39.796875 L 13.859375 -28.109375 C 13.859375 -27.847656 13.988281 -27.71875 14.25 -27.71875 L 25.046875 -27.71875 C 25.347656 -27.71875 25.5 -27.847656 25.5 -28.109375 L 25.5 -44.703125 C 25.5 -45.441406 25.753906 -46.078125 26.265625 -46.609375 C 26.785156 -47.148438 27.425781 -47.421875 28.1875 -47.421875 C 28.945312 -47.421875 29.585938 -47.148438 30.109375 -46.609375 C 30.628906 -46.078125 30.890625 -45.441406 30.890625 -44.703125 L 30.890625 -28.109375 C 30.890625 -27.847656 31.039062 -27.71875 31.34375 -27.71875 L 42.6875 -27.71875 C 42.945312 -27.71875 43.078125 -27.847656 43.078125 -28.109375 L 43.078125 -39.75 C 43.078125 -40.519531 43.351562 -41.175781 43.90625 -41.71875 C 44.46875 -42.257812 45.128906 -42.53125 45.890625 -42.53125 C 46.648438 -42.53125 47.300781 -42.257812 47.84375 -41.71875 C 48.382812 -41.175781 48.65625 -40.519531 48.65625 -39.75 L 48.65625 -25.890625 C 48.65625 -24.960938 48.335938 -24.179688 47.703125 -23.546875 C 47.078125 -22.910156 46.296875 -22.59375 45.359375 -22.59375 L 31.34375 -22.59375 C 31.039062 -22.59375 30.890625 -22.445312 30.890625 -22.15625 L 30.890625 -4.5625 C 30.890625 -4.300781 31.039062 -4.171875 31.34375 -4.171875 L 45.03125 -4.171875 C 45.289062 -4.171875 45.421875 -4.300781 45.421875 -4.5625 Z M 45.421875 -16.421875 "/></g></g><g transform="translate(356.516762, 716.699984)"><g><path d="M 27.109375 -45.140625 C 27.441406 -45.734375 27.925781 -46.144531 28.5625 -46.375 C 28.851562 -46.476562 29.128906 -46.53125 29.390625 -46.53125 C 29.765625 -46.53125 30.117188 -46.457031 30.453125 -46.3125 C 31.003906 -46.050781 31.363281 -45.613281 31.53125 -45 C 31.695312 -44.394531 31.597656 -43.847656 31.234375 -43.359375 C 30.148438 -41.910156 29.296875 -40.796875 28.671875 -40.015625 C 28.296875 -39.578125 27.835938 -39.3125 27.296875 -39.21875 C 26.765625 -39.125 26.238281 -39.207031 25.71875 -39.46875 C 25.269531 -39.6875 24.988281 -40.046875 24.875 -40.546875 C 24.769531 -41.046875 24.847656 -41.503906 25.109375 -41.921875 C 25.804688 -42.992188 26.472656 -44.066406 27.109375 -45.140625 Z M 13.25 -42.3125 C 13.539062 -41.75 13.582031 -41.179688 13.375 -40.609375 C 13.175781 -40.035156 12.800781 -39.617188 12.25 -39.359375 C 11.6875 -39.097656 11.125 -39.066406 10.5625 -39.265625 C 10.007812 -39.472656 9.585938 -39.851562 9.296875 -40.40625 C 8.773438 -41.414062 8.160156 -42.472656 7.453125 -43.578125 C 7.191406 -44.023438 7.132812 -44.507812 7.28125 -45.03125 C 7.4375 -45.550781 7.753906 -45.90625 8.234375 -46.09375 C 8.566406 -46.195312 8.898438 -46.25 9.234375 -46.25 C 9.492188 -46.25 9.753906 -46.234375 10.015625 -46.203125 C 10.609375 -46.015625 11.070312 -45.660156 11.40625 -45.140625 C 12.113281 -44.179688 12.726562 -43.238281 13.25 -42.3125 Z M 21 -23.3125 C 20.539062 -22.875 19.988281 -22.65625 19.34375 -22.65625 C 18.695312 -22.65625 18.140625 -22.875 17.671875 -23.3125 C 17.210938 -23.757812 16.984375 -24.320312 16.984375 -25 L 16.984375 -30.953125 C 16.984375 -31.023438 16.941406 -31.066406 16.859375 -31.078125 C 16.785156 -31.097656 16.734375 -31.09375 16.703125 -31.0625 C 13.765625 -28.125 10.550781 -25.691406 7.0625 -23.765625 C 6.65625 -23.578125 6.269531 -23.484375 5.90625 -23.484375 C 5.675781 -23.484375 5.453125 -23.503906 5.234375 -23.546875 C 4.640625 -23.734375 4.117188 -24.085938 3.671875 -24.609375 C 3.304688 -25.015625 3.175781 -25.476562 3.28125 -26 C 3.394531 -26.519531 3.691406 -26.890625 4.171875 -27.109375 C 7.773438 -28.816406 11.039062 -31.039062 13.96875 -33.78125 C 14.007812 -33.863281 14.019531 -33.929688 14 -33.984375 C 13.976562 -34.035156 13.914062 -34.0625 13.8125 -34.0625 L 5.40625 -34.0625 C 4.84375 -34.0625 4.359375 -34.265625 3.953125 -34.671875 C 3.546875 -35.085938 3.34375 -35.570312 3.34375 -36.125 C 3.34375 -36.6875 3.546875 -37.160156 3.953125 -37.546875 C 4.359375 -37.929688 4.84375 -38.125 5.40625 -38.125 L 16.59375 -38.125 C 16.851562 -38.125 16.984375 -38.273438 16.984375 -38.578125 L 16.984375 -45.25 C 16.984375 -45.882812 17.210938 -46.429688 17.671875 -46.890625 C 18.140625 -47.359375 18.695312 -47.59375 19.34375 -47.59375 C 19.988281 -47.59375 20.539062 -47.359375 21 -46.890625 C 21.46875 -46.429688 21.703125 -45.882812 21.703125 -45.25 L 21.703125 -38.578125 C 21.703125 -38.273438 21.851562 -38.125 22.15625 -38.125 L 32.0625 -38.125 C 32.613281 -38.125 33.082031 -37.929688 33.46875 -37.546875 C 33.863281 -37.160156 34.0625 -36.6875 34.0625 -36.125 C 34.0625 -35.570312 33.863281 -35.085938 33.46875 -34.671875 C 33.082031 -34.265625 32.613281 -34.0625 32.0625 -34.0625 L 22.203125 -34.0625 C 22.128906 -34.0625 22.09375 -34.039062 22.09375 -34 C 22.09375 -33.96875 22.113281 -33.9375 22.15625 -33.90625 C 24.863281 -32.75 27.960938 -31.300781 31.453125 -29.5625 C 32.003906 -29.300781 32.375 -28.851562 32.5625 -28.21875 C 32.632812 -28 32.671875 -27.773438 32.671875 -27.546875 C 32.671875 -27.179688 32.578125 -26.832031 32.390625 -26.5 C 32.054688 -25.9375 31.59375 -25.582031 31 -25.4375 C 30.40625 -25.289062 29.847656 -25.398438 29.328125 -25.765625 C 27.546875 -26.878906 25.132812 -28.289062 22.09375 -30 C 21.988281 -30.039062 21.894531 -30.039062 21.8125 -30 C 21.738281 -29.96875 21.703125 -29.894531 21.703125 -29.78125 L 21.703125 -25 C 21.703125 -24.320312 21.46875 -23.757812 21 -23.3125 Z M 14.859375 -14.859375 C 14.898438 -14.972656 14.890625 -15.066406 14.828125 -15.140625 C 14.773438 -15.210938 14.691406 -15.25 14.578125 -15.25 L 10.625 -15.25 C 10.332031 -15.25 10.128906 -15.140625 10.015625 -14.921875 C 9.609375 -14.140625 9.203125 -13.394531 8.796875 -12.6875 C 8.648438 -12.425781 8.6875 -12.222656 8.90625 -12.078125 C 10.425781 -11.148438 11.632812 -10.351562 12.53125 -9.6875 C 12.707031 -9.5 12.875 -9.535156 13.03125 -9.796875 C 13.726562 -11.285156 14.335938 -12.972656 14.859375 -14.859375 Z M 16.421875 -18.921875 C 16.867188 -19.035156 17.3125 -19.035156 17.75 -18.921875 L 18.375 -18.703125 C 18.738281 -18.628906 19.019531 -18.425781 19.21875 -18.09375 C 19.425781 -17.757812 19.492188 -17.40625 19.421875 -17.03125 C 17.609375 -7.644531 13.660156 -0.816406 7.578125 3.453125 C 7.054688 3.785156 6.515625 3.875 5.953125 3.71875 C 5.398438 3.570312 4.9375 3.242188 4.5625 2.734375 C 4.269531 2.285156 4.164062 1.78125 4.25 1.21875 C 4.34375 0.664062 4.632812 0.238281 5.125 -0.0625 C 7.164062 -1.425781 8.984375 -3.257812 10.578125 -5.5625 C 10.765625 -5.789062 10.742188 -5.992188 10.515625 -6.171875 C 9.367188 -7.140625 8.109375 -8.085938 6.734375 -9.015625 C 6.585938 -9.128906 6.441406 -9.09375 6.296875 -8.90625 C 6.210938 -8.832031 6.132812 -8.738281 6.0625 -8.625 C 5.695312 -8.175781 5.234375 -7.929688 4.671875 -7.890625 C 4.117188 -7.859375 3.617188 -8.03125 3.171875 -8.40625 C 2.722656 -8.8125 2.5 -9.3125 2.5 -9.90625 C 2.5 -10.382812 2.648438 -10.8125 2.953125 -11.1875 C 5.328125 -14.039062 7.238281 -17.585938 8.6875 -21.828125 C 8.875 -22.335938 9.207031 -22.734375 9.6875 -23.015625 C 10.164062 -23.296875 10.664062 -23.378906 11.1875 -23.265625 C 11.707031 -23.117188 12.097656 -22.820312 12.359375 -22.375 C 12.617188 -21.925781 12.675781 -21.445312 12.53125 -20.9375 C 12.34375 -20.34375 12.15625 -19.800781 11.96875 -19.3125 C 11.925781 -19.207031 11.929688 -19.113281 11.984375 -19.03125 C 12.046875 -18.957031 12.113281 -18.921875 12.1875 -18.921875 L 16.25 -18.921875 C 16.320312 -18.921875 16.378906 -18.921875 16.421875 -18.921875 Z M 31.78125 -14.640625 C 31.5625 -14.640625 31.453125 -14.546875 31.453125 -14.359375 L 31.453125 -8.078125 C 31.453125 -7.816406 31.582031 -7.6875 31.84375 -7.6875 L 32.671875 -7.6875 C 33.234375 -7.6875 33.71875 -7.488281 34.125 -7.09375 C 34.53125 -6.707031 34.734375 -6.222656 34.734375 -5.640625 C 34.734375 -5.066406 34.53125 -4.585938 34.125 -4.203125 C 33.71875 -3.816406 33.234375 -3.625 32.671875 -3.625 L 31.84375 -3.625 C 31.582031 -3.625 31.453125 -3.492188 31.453125 -3.234375 L 31.453125 2.34375 C 31.453125 2.9375 31.242188 3.4375 30.828125 3.84375 C 30.421875 4.25 29.929688 4.453125 29.359375 4.453125 C 28.785156 4.453125 28.285156 4.25 27.859375 3.84375 C 27.429688 3.4375 27.21875 2.9375 27.21875 2.34375 L 27.21875 -3.171875 C 27.21875 -3.472656 27.085938 -3.625 26.828125 -3.625 L 22.71875 -3.625 C 22.488281 -3.625 22.375 -3.507812 22.375 -3.28125 C 22.34375 -3.09375 22.304688 -2.890625 22.265625 -2.671875 C 22.191406 -2.148438 21.953125 -1.734375 21.546875 -1.421875 C 21.140625 -1.109375 20.675781 -0.96875 20.15625 -1 C 19.664062 -1.070312 19.253906 -1.296875 18.921875 -1.671875 C 18.660156 -2.003906 18.53125 -2.359375 18.53125 -2.734375 C 18.53125 -2.835938 18.550781 -2.925781 18.59375 -3 C 19 -5.707031 19.3125 -8.363281 19.53125 -10.96875 C 19.613281 -11.488281 19.847656 -11.921875 20.234375 -12.265625 C 20.617188 -12.617188 21.09375 -12.78125 21.65625 -12.75 C 22.175781 -12.75 22.601562 -12.539062 22.9375 -12.125 C 23.269531 -11.71875 23.398438 -11.257812 23.328125 -10.75 C 23.210938 -9.707031 23.117188 -8.832031 23.046875 -8.125 C 23.003906 -7.832031 23.113281 -7.6875 23.375 -7.6875 L 26.828125 -7.6875 C 27.085938 -7.6875 27.21875 -7.832031 27.21875 -8.125 L 27.21875 -14.25 C 27.21875 -14.507812 27.085938 -14.640625 26.828125 -14.640625 L 22.09375 -14.640625 C 21.539062 -14.640625 21.066406 -14.832031 20.671875 -15.21875 C 20.285156 -15.613281 20.09375 -16.085938 20.09375 -16.640625 C 20.09375 -17.203125 20.285156 -17.675781 20.671875 -18.0625 C 21.066406 -18.445312 21.539062 -18.640625 22.09375 -18.640625 L 26.828125 -18.640625 C 27.085938 -18.640625 27.21875 -18.769531 27.21875 -19.03125 L 27.21875 -21.265625 C 27.21875 -21.859375 27.429688 -22.359375 27.859375 -22.765625 C 28.285156 -23.171875 28.785156 -23.375 29.359375 -23.375 C 29.929688 -23.375 30.421875 -23.171875 30.828125 -22.765625 C 31.242188 -22.359375 31.453125 -21.859375 31.453125 -21.265625 L 31.453125 -18.984375 C 31.453125 -18.753906 31.5625 -18.640625 31.78125 -18.640625 L 32.28125 -18.640625 C 32.800781 -18.640625 33.253906 -18.445312 33.640625 -18.0625 C 34.035156 -17.675781 34.234375 -17.203125 34.234375 -16.640625 C 34.234375 -16.085938 34.035156 -15.613281 33.640625 -15.21875 C 33.253906 -14.832031 32.800781 -14.640625 32.28125 -14.640625 Z M 50.4375 -44.984375 C 50.582031 -45.054688 50.726562 -45.09375 50.875 -45.09375 C 51.175781 -45.09375 51.472656 -45 51.765625 -44.8125 L 52.9375 -44.09375 C 53.488281 -43.75 53.859375 -43.300781 54.046875 -42.75 C 54.160156 -42.457031 54.21875 -42.160156 54.21875 -41.859375 C 54.21875 -41.566406 54.160156 -41.269531 54.046875 -40.96875 C 51.859375 -34.988281 49.96875 -30.128906 48.375 -26.390625 C 48.257812 -26.128906 48.296875 -25.882812 48.484375 -25.65625 C 52.117188 -21.5 53.9375 -17.101562 53.9375 -12.46875 C 53.9375 -12.351562 53.9375 -12.242188 53.9375 -12.140625 C 53.9375 -8.503906 53.046875 -6.050781 51.265625 -4.78125 C 50.296875 -4.113281 49.109375 -3.6875 47.703125 -3.5 C 47.179688 -3.46875 46.550781 -3.429688 45.8125 -3.390625 C 45.769531 -3.390625 45.734375 -3.390625 45.703125 -3.390625 C 45.035156 -3.390625 44.441406 -3.632812 43.921875 -4.125 C 43.359375 -4.601562 42.988281 -5.210938 42.8125 -5.953125 C 42.695312 -6.546875 42.796875 -7.082031 43.109375 -7.5625 C 43.421875 -8.050781 43.875 -8.296875 44.46875 -8.296875 C 44.726562 -8.253906 45.101562 -8.234375 45.59375 -8.234375 C 46.476562 -8.304688 47.179688 -8.53125 47.703125 -8.90625 C 48.597656 -9.425781 49.046875 -10.800781 49.046875 -13.03125 C 49.046875 -16.332031 47.816406 -19.613281 45.359375 -22.875 C 44.515625 -24.03125 44.09375 -25.238281 44.09375 -26.5 C 44.09375 -27.125 44.203125 -27.769531 44.421875 -28.4375 C 45.421875 -31.15625 46.703125 -34.941406 48.265625 -39.796875 C 48.296875 -39.867188 48.285156 -39.953125 48.234375 -40.046875 C 48.179688 -40.140625 48.097656 -40.1875 47.984375 -40.1875 L 41.296875 -40.1875 C 41.003906 -40.1875 40.859375 -40.039062 40.859375 -39.75 L 40.859375 1.953125 C 40.859375 2.617188 40.613281 3.203125 40.125 3.703125 C 39.644531 4.203125 39.050781 4.453125 38.34375 4.453125 C 37.644531 4.453125 37.050781 4.203125 36.5625 3.703125 C 36.082031 3.203125 35.84375 2.617188 35.84375 1.953125 L 35.84375 -41.6875 C 35.84375 -42.582031 36.164062 -43.351562 36.8125 -44 C 37.46875 -44.65625 38.238281 -44.984375 39.125 -44.984375 L 50.265625 -44.984375 C 50.304688 -44.984375 50.363281 -44.984375 50.4375 -44.984375 Z M 50.4375 -44.984375 "/></g></g><g transform="translate(413.516759, 716.699984)"><g><path d="M 38.796875 -26.21875 C 38.796875 -26.476562 38.664062 -26.609375 38.40625 -26.609375 L 28.828125 -26.609375 C 28.566406 -26.609375 28.421875 -26.476562 28.390625 -26.21875 C 27.753906 -18.351562 25.734375 -12.097656 22.328125 -7.453125 C 21.878906 -6.941406 21.335938 -6.6875 20.703125 -6.6875 C 20.671875 -6.6875 20.65625 -6.6875 20.65625 -6.6875 C 19.945312 -6.71875 19.332031 -6.984375 18.8125 -7.484375 C 18.289062 -7.984375 17.992188 -8.585938 17.921875 -9.296875 C 17.921875 -9.410156 17.921875 -9.519531 17.921875 -9.625 C 17.921875 -10.1875 18.085938 -10.707031 18.421875 -11.1875 C 20.429688 -13.96875 21.769531 -17.019531 22.4375 -20.34375 C 23.101562 -23.664062 23.4375 -27.253906 23.4375 -31.109375 L 23.4375 -40.859375 C 23.4375 -41.671875 23.769531 -42.359375 24.4375 -42.921875 C 24.914062 -43.328125 25.453125 -43.53125 26.046875 -43.53125 C 26.234375 -43.53125 26.4375 -43.507812 26.65625 -43.46875 L 27.28125 -43.359375 C 27.570312 -43.285156 27.847656 -43.269531 28.109375 -43.3125 C 34.566406 -44.3125 39.929688 -45.441406 44.203125 -46.703125 C 44.796875 -46.890625 45.367188 -46.984375 45.921875 -46.984375 C 47.148438 -46.984375 48.265625 -46.535156 49.265625 -45.640625 C 49.671875 -45.304688 49.875 -44.898438 49.875 -44.421875 C 49.875 -44.273438 49.851562 -44.144531 49.8125 -44.03125 C 49.664062 -43.363281 49.28125 -42.9375 48.65625 -42.75 C 43.53125 -41.269531 36.960938 -39.988281 28.953125 -38.90625 C 28.691406 -38.875 28.5625 -38.726562 28.5625 -38.46875 L 28.5625 -32 C 28.5625 -31.707031 28.707031 -31.5625 29 -31.5625 L 51.65625 -31.5625 C 52.363281 -31.5625 52.957031 -31.316406 53.4375 -30.828125 C 53.914062 -30.347656 54.15625 -29.765625 54.15625 -29.078125 C 54.15625 -28.398438 53.914062 -27.816406 53.4375 -27.328125 C 52.957031 -26.847656 52.363281 -26.609375 51.65625 -26.609375 L 44.421875 -26.609375 C 44.160156 -26.609375 44.03125 -26.476562 44.03125 -26.21875 L 44.03125 -6.84375 C 44.03125 -6.144531 43.769531 -5.539062 43.25 -5.03125 C 42.726562 -4.53125 42.113281 -4.28125 41.40625 -4.28125 C 40.707031 -4.28125 40.097656 -4.53125 39.578125 -5.03125 C 39.054688 -5.539062 38.796875 -6.144531 38.796875 -6.84375 Z M 15.25 -39.859375 C 15.695312 -39.367188 15.921875 -38.8125 15.921875 -38.1875 C 15.921875 -37.332031 15.585938 -36.628906 14.921875 -36.078125 C 14.429688 -35.660156 13.890625 -35.453125 13.296875 -35.453125 C 13.191406 -35.453125 13.082031 -35.453125 12.96875 -35.453125 C 12.226562 -35.566406 11.617188 -35.882812 11.140625 -36.40625 C 9.503906 -38.257812 7.570312 -40.054688 5.34375 -41.796875 C 4.820312 -42.210938 4.550781 -42.734375 4.53125 -43.359375 C 4.519531 -43.992188 4.769531 -44.515625 5.28125 -44.921875 C 5.84375 -45.398438 6.515625 -45.640625 7.296875 -45.640625 C 7.328125 -45.640625 7.363281 -45.640625 7.40625 -45.640625 C 8.113281 -45.640625 8.742188 -45.4375 9.296875 -45.03125 C 11.710938 -43.21875 13.695312 -41.492188 15.25 -39.859375 Z M 12.1875 -25.71875 C 13.082031 -25.71875 13.851562 -25.390625 14.5 -24.734375 C 15.144531 -24.085938 15.46875 -23.320312 15.46875 -22.4375 L 15.46875 -8.125 C 15.46875 -7.832031 15.546875 -7.570312 15.703125 -7.34375 C 18.148438 -3.820312 22.546875 -1.945312 28.890625 -1.71875 C 31.410156 -1.613281 34.082031 -1.5625 36.90625 -1.5625 C 41.582031 -1.5625 46.664062 -1.691406 52.15625 -1.953125 C 52.195312 -1.953125 52.234375 -1.953125 52.265625 -1.953125 C 52.859375 -1.953125 53.34375 -1.707031 53.71875 -1.21875 C 53.9375 -0.851562 54.046875 -0.484375 54.046875 -0.109375 C 54.046875 0.109375 54.007812 0.332031 53.9375 0.5625 C 53.675781 1.375 53.21875 2.046875 52.5625 2.578125 C 51.914062 3.117188 51.1875 3.390625 50.375 3.390625 C 46.070312 3.546875 42.117188 3.625 38.515625 3.625 C 34.953125 3.625 31.722656 3.546875 28.828125 3.390625 C 25.265625 3.285156 22.238281 2.738281 19.75 1.75 C 17.269531 0.769531 15.140625 -0.757812 13.359375 -2.84375 C 13.171875 -3.03125 12.984375 -3.03125 12.796875 -2.84375 C 11.203125 -1.46875 9.289062 0.144531 7.0625 2 C 6.625 2.375 6.125 2.5625 5.5625 2.5625 C 5.375 2.5625 5.191406 2.539062 5.015625 2.5 C 4.265625 2.320312 3.707031 1.894531 3.34375 1.21875 C 3.113281 0.707031 3 0.207031 3 -0.28125 C 3 -0.613281 3.039062 -0.925781 3.125 -1.21875 C 3.34375 -2.039062 3.820312 -2.710938 4.5625 -3.234375 C 6.457031 -4.492188 8.257812 -5.789062 9.96875 -7.125 C 10.15625 -7.3125 10.25 -7.550781 10.25 -7.84375 L 10.25 -20.375 C 10.25 -20.664062 10.117188 -20.8125 9.859375 -20.8125 L 5.40625 -20.8125 C 4.726562 -20.8125 4.148438 -21.050781 3.671875 -21.53125 C 3.191406 -22.019531 2.953125 -22.597656 2.953125 -23.265625 C 2.953125 -23.929688 3.191406 -24.503906 3.671875 -24.984375 C 4.148438 -25.472656 4.726562 -25.71875 5.40625 -25.71875 Z M 12.1875 -25.71875 "/></g></g><g transform="translate(470.516757, 716.699984)"><g><path d="M 15.25 0.71875 C 10.757812 0.71875 6.863281 -0.5625 3.5625 -3.125 C 2.96875 -3.5625 2.632812 -4.171875 2.5625 -4.953125 C 2.519531 -5.023438 2.5 -5.117188 2.5 -5.234375 C 2.5 -5.859375 2.707031 -6.429688 3.125 -6.953125 C 3.53125 -7.515625 4.082031 -7.832031 4.78125 -7.90625 C 4.863281 -7.90625 4.957031 -7.90625 5.0625 -7.90625 C 5.65625 -7.90625 6.195312 -7.71875 6.6875 -7.34375 C 9.0625 -5.53125 11.65625 -4.625 14.46875 -4.625 C 16.882812 -4.625 18.878906 -5.429688 20.453125 -7.046875 C 22.035156 -8.660156 22.828125 -10.835938 22.828125 -13.578125 C 22.828125 -16.328125 22.101562 -18.472656 20.65625 -20.015625 C 19.207031 -21.554688 17.257812 -22.328125 14.8125 -22.328125 C 13.0625 -22.328125 11.367188 -21.863281 9.734375 -20.9375 C 9.179688 -20.632812 8.644531 -20.484375 8.125 -20.484375 C 7.570312 -20.484375 7.035156 -20.648438 6.515625 -20.984375 C 5.441406 -21.691406 4.941406 -22.691406 5.015625 -23.984375 L 5.953125 -38.6875 C 5.992188 -39.613281 6.359375 -40.390625 7.046875 -41.015625 C 7.734375 -41.648438 8.539062 -41.96875 9.46875 -41.96875 L 24.65625 -41.96875 C 25.394531 -41.96875 26.039062 -41.695312 26.59375 -41.15625 C 27.15625 -40.625 27.4375 -39.96875 27.4375 -39.1875 C 27.4375 -38.40625 27.15625 -37.742188 26.59375 -37.203125 C 26.039062 -36.671875 25.394531 -36.40625 24.65625 -36.40625 L 12.25 -36.40625 C 11.988281 -36.40625 11.835938 -36.273438 11.796875 -36.015625 L 10.90625 -26.046875 C 10.90625 -25.972656 10.941406 -25.90625 11.015625 -25.84375 C 11.097656 -25.789062 11.175781 -25.785156 11.25 -25.828125 C 13.03125 -26.679688 14.828125 -27.109375 16.640625 -27.109375 C 20.390625 -27.109375 23.453125 -25.984375 25.828125 -23.734375 C 28.203125 -21.492188 29.390625 -18.1875 29.390625 -13.8125 C 29.390625 -10.800781 28.722656 -8.171875 27.390625 -5.921875 C 26.054688 -3.679688 24.328125 -2.015625 22.203125 -0.921875 C 20.085938 0.171875 17.769531 0.71875 15.25 0.71875 Z M 15.25 0.71875 "/></g></g><g transform="translate(502.968904, 716.699984)"><g><path d="M 21.15625 -41.140625 C 21.15625 -41.398438 21.003906 -41.53125 20.703125 -41.53125 L 10.796875 -41.53125 C 10.503906 -41.53125 10.359375 -41.398438 10.359375 -41.140625 L 10.359375 -38.015625 C 10.359375 -37.753906 10.503906 -37.625 10.796875 -37.625 L 20.703125 -37.625 C 21.003906 -37.625 21.15625 -37.753906 21.15625 -38.015625 Z M 10.359375 -30.0625 C 10.359375 -29.757812 10.503906 -29.609375 10.796875 -29.609375 L 20.703125 -29.609375 C 21.003906 -29.609375 21.15625 -29.757812 21.15625 -30.0625 L 21.15625 -33.453125 C 21.15625 -33.710938 21.003906 -33.84375 20.703125 -33.84375 L 10.796875 -33.84375 C 10.503906 -33.84375 10.359375 -33.710938 10.359375 -33.453125 Z M 26.15625 -29 C 26.15625 -28.070312 25.832031 -27.289062 25.1875 -26.65625 C 24.539062 -26.03125 23.769531 -25.71875 22.875 -25.71875 L 10.796875 -25.71875 C 10.503906 -25.71875 10.359375 -25.566406 10.359375 -25.265625 L 10.359375 1.890625 C 10.359375 2.597656 10.101562 3.210938 9.59375 3.734375 C 9.09375 4.253906 8.484375 4.515625 7.765625 4.515625 C 7.046875 4.515625 6.425781 4.253906 5.90625 3.734375 C 5.382812 3.210938 5.125 2.597656 5.125 1.890625 L 5.125 -42.25 C 5.125 -43.175781 5.445312 -43.953125 6.09375 -44.578125 C 6.738281 -45.210938 7.507812 -45.53125 8.40625 -45.53125 L 22.875 -45.53125 C 23.769531 -45.53125 24.539062 -45.210938 25.1875 -44.578125 C 25.832031 -43.953125 26.15625 -43.175781 26.15625 -42.25 Z M 35.734375 -29.953125 C 35.734375 -29.648438 35.882812 -29.5 36.1875 -29.5 L 46.421875 -29.5 C 46.722656 -29.5 46.875 -29.648438 46.875 -29.953125 L 46.875 -33.453125 C 46.875 -33.710938 46.722656 -33.84375 46.421875 -33.84375 L 36.1875 -33.84375 C 35.882812 -33.84375 35.734375 -33.710938 35.734375 -33.453125 Z M 46.875 -41.140625 C 46.875 -41.398438 46.722656 -41.53125 46.421875 -41.53125 L 36.1875 -41.53125 C 35.882812 -41.53125 35.734375 -41.398438 35.734375 -41.140625 L 35.734375 -38.015625 C 35.734375 -37.753906 35.882812 -37.625 36.1875 -37.625 L 46.421875 -37.625 C 46.722656 -37.625 46.875 -37.753906 46.875 -38.015625 Z M 22.59375 -5.125 C 22.59375 -4.863281 22.722656 -4.734375 22.984375 -4.734375 L 33.734375 -4.734375 C 33.992188 -4.734375 34.125 -4.863281 34.125 -5.125 L 34.125 -9.015625 C 34.125 -9.316406 33.992188 -9.46875 33.734375 -9.46875 L 22.984375 -9.46875 C 22.722656 -9.46875 22.59375 -9.316406 22.59375 -9.015625 Z M 34.125 -17.375 C 34.125 -17.625 33.992188 -17.75 33.734375 -17.75 L 22.984375 -17.75 C 22.722656 -17.75 22.59375 -17.625 22.59375 -17.375 L 22.59375 -13.75 C 22.59375 -13.488281 22.722656 -13.359375 22.984375 -13.359375 L 33.734375 -13.359375 C 33.992188 -13.359375 34.125 -13.488281 34.125 -13.75 Z M 48.921875 -45.53125 C 49.816406 -45.53125 50.585938 -45.210938 51.234375 -44.578125 C 51.890625 -43.953125 52.21875 -43.175781 52.21875 -42.25 L 52.21875 -2.109375 C 52.21875 -0.554688 52.019531 0.660156 51.625 1.546875 C 51.238281 2.441406 50.546875 3.09375 49.546875 3.5 C 48.285156 4.0625 46.078125 4.359375 42.921875 4.390625 C 42.878906 4.390625 42.84375 4.390625 42.8125 4.390625 C 41.914062 4.390625 41.097656 4.113281 40.359375 3.5625 C 39.617188 2.96875 39.082031 2.207031 38.75 1.28125 C 38.5625 0.6875 38.351562 0.148438 38.125 -0.328125 C 38.019531 -0.585938 37.816406 -0.71875 37.515625 -0.71875 L 22.875 -0.71875 C 22.6875 -0.71875 22.59375 -0.628906 22.59375 -0.453125 L 22.59375 -0.328125 C 22.59375 0.335938 22.351562 0.910156 21.875 1.390625 C 21.394531 1.867188 20.820312 2.109375 20.15625 2.109375 C 19.488281 2.109375 18.910156 1.867188 18.421875 1.390625 C 17.941406 0.910156 17.703125 0.335938 17.703125 -0.328125 L 17.703125 -18.484375 C 17.703125 -19.410156 18.023438 -20.1875 18.671875 -20.8125 C 19.328125 -21.445312 20.097656 -21.765625 20.984375 -21.765625 L 35.796875 -21.765625 C 36.722656 -21.765625 37.5 -21.445312 38.125 -20.8125 C 38.757812 -20.1875 39.078125 -19.410156 39.078125 -18.484375 L 39.078125 -1.34375 C 39.078125 -1.039062 39.222656 -0.890625 39.515625 -0.890625 C 40.296875 -0.847656 42.300781 -0.828125 45.53125 -0.828125 C 46.050781 -0.867188 46.40625 -0.984375 46.59375 -1.171875 C 46.78125 -1.359375 46.875 -1.691406 46.875 -2.171875 L 46.875 -25.15625 C 46.875 -25.457031 46.722656 -25.609375 46.421875 -25.609375 L 33.953125 -25.609375 C 33.023438 -25.609375 32.242188 -25.921875 31.609375 -26.546875 C 30.984375 -27.179688 30.671875 -27.960938 30.671875 -28.890625 L 30.671875 -42.25 C 30.671875 -43.175781 30.984375 -43.953125 31.609375 -44.578125 C 32.242188 -45.210938 33.023438 -45.53125 33.953125 -45.53125 Z M 48.921875 -45.53125 "/></g></g><g transform="translate(559.968901, 716.699984)"><g><path d="M 31.5 -13.359375 C 31.207031 -13.359375 31.0625 -13.210938 31.0625 -12.921875 L 31.0625 -3.78125 C 31.0625 -3.519531 31.191406 -3.375 31.453125 -3.34375 C 34.015625 -2.851562 37.1875 -2.609375 40.96875 -2.609375 C 42.269531 -2.578125 43.789062 -2.5625 45.53125 -2.5625 C 47.425781 -2.5625 49.597656 -2.578125 52.046875 -2.609375 C 52.679688 -2.609375 53.164062 -2.351562 53.5 -1.84375 C 53.71875 -1.539062 53.828125 -1.203125 53.828125 -0.828125 C 53.828125 -0.609375 53.769531 -0.390625 53.65625 -0.171875 C 53.394531 0.609375 52.941406 1.25 52.296875 1.75 C 51.648438 2.25 50.9375 2.5 50.15625 2.5 L 40.75 2.5 C 34.25 2.5 28.867188 1.703125 24.609375 0.109375 C 20.410156 -1.453125 16.976562 -4.3125 14.3125 -8.46875 C 14.269531 -8.539062 14.203125 -8.566406 14.109375 -8.546875 C 14.015625 -8.523438 13.953125 -8.476562 13.921875 -8.40625 C 12.316406 -4.25 10.273438 -0.925781 7.796875 1.5625 C 7.304688 2.039062 6.726562 2.28125 6.0625 2.28125 C 6.03125 2.28125 5.976562 2.28125 5.90625 2.28125 C 5.195312 2.25 4.566406 1.972656 4.015625 1.453125 C 3.492188 1.003906 3.234375 0.425781 3.234375 -0.28125 C 3.234375 -0.90625 3.453125 -1.441406 3.890625 -1.890625 C 7.898438 -6.015625 10.519531 -12.210938 11.75 -20.484375 C 11.851562 -21.222656 12.203125 -21.835938 12.796875 -22.328125 C 13.316406 -22.691406 13.875 -22.875 14.46875 -22.875 C 14.582031 -22.875 14.695312 -22.875 14.8125 -22.875 C 15.582031 -22.800781 16.191406 -22.453125 16.640625 -21.828125 C 17.015625 -21.378906 17.203125 -20.875 17.203125 -20.3125 C 17.203125 -20.164062 17.179688 -20 17.140625 -19.8125 C 16.847656 -18.257812 16.515625 -16.757812 16.140625 -15.3125 C 16.066406 -15.050781 16.085938 -14.789062 16.203125 -14.53125 C 18.273438 -10.144531 21.296875 -7.023438 25.265625 -5.171875 C 25.378906 -5.140625 25.472656 -5.148438 25.546875 -5.203125 C 25.617188 -5.253906 25.65625 -5.335938 25.65625 -5.453125 L 25.65625 -25.71875 C 25.65625 -26.007812 25.523438 -26.15625 25.265625 -26.15625 L 6.125 -26.15625 C 5.457031 -26.15625 4.878906 -26.394531 4.390625 -26.875 C 3.910156 -27.363281 3.671875 -27.953125 3.671875 -28.640625 C 3.671875 -29.328125 3.910156 -29.910156 4.390625 -30.390625 C 4.878906 -30.867188 5.457031 -31.109375 6.125 -31.109375 L 25.15625 -31.109375 C 25.457031 -31.109375 25.609375 -31.238281 25.609375 -31.5 L 25.609375 -37.515625 C 25.609375 -37.773438 25.457031 -37.90625 25.15625 -37.90625 L 11.078125 -37.90625 C 10.410156 -37.90625 9.832031 -38.144531 9.34375 -38.625 C 8.863281 -39.113281 8.625 -39.691406 8.625 -40.359375 C 8.625 -41.023438 8.863281 -41.597656 9.34375 -42.078125 C 9.832031 -42.566406 10.410156 -42.8125 11.078125 -42.8125 L 25.15625 -42.8125 C 25.457031 -42.8125 25.609375 -42.941406 25.609375 -43.203125 L 25.609375 -46.3125 C 25.609375 -47.09375 25.867188 -47.742188 26.390625 -48.265625 C 26.910156 -48.785156 27.550781 -49.046875 28.3125 -49.046875 C 29.070312 -49.046875 29.707031 -48.785156 30.21875 -48.265625 C 30.738281 -47.742188 31 -47.09375 31 -46.3125 L 31 -43.203125 C 31 -42.941406 31.128906 -42.8125 31.390625 -42.8125 L 46.640625 -42.8125 C 47.316406 -42.8125 47.894531 -42.566406 48.375 -42.078125 C 48.851562 -41.597656 49.09375 -41.023438 49.09375 -40.359375 C 49.09375 -39.691406 48.851562 -39.113281 48.375 -38.625 C 47.894531 -38.144531 47.316406 -37.90625 46.640625 -37.90625 L 31.390625 -37.90625 C 31.128906 -37.90625 31 -37.773438 31 -37.515625 L 31 -31.5 C 31 -31.238281 31.128906 -31.109375 31.390625 -31.109375 L 50.765625 -31.109375 C 51.472656 -31.109375 52.066406 -30.867188 52.546875 -30.390625 C 53.023438 -29.910156 53.265625 -29.328125 53.265625 -28.640625 C 53.265625 -27.953125 53.023438 -27.363281 52.546875 -26.875 C 52.066406 -26.394531 51.472656 -26.15625 50.765625 -26.15625 L 31.5 -26.15625 C 31.207031 -26.15625 31.0625 -26.007812 31.0625 -25.71875 L 31.0625 -18.59375 C 31.0625 -18.289062 31.207031 -18.140625 31.5 -18.140625 L 47.140625 -18.140625 C 47.816406 -18.140625 48.382812 -17.90625 48.84375 -17.4375 C 49.3125 -16.976562 49.546875 -16.414062 49.546875 -15.75 C 49.546875 -15.082031 49.3125 -14.515625 48.84375 -14.046875 C 48.382812 -13.585938 47.816406 -13.359375 47.140625 -13.359375 Z M 31.5 -13.359375 "/></g></g><g transform="translate(616.968898, 716.699984)"><g><path d="M 13.75 -27.5 C 14.039062 -27.5 14.1875 -27.628906 14.1875 -27.890625 L 14.1875 -35.625 C 14.1875 -35.882812 14.039062 -36.015625 13.75 -36.015625 L 5.015625 -36.015625 C 4.421875 -36.015625 3.910156 -36.226562 3.484375 -36.65625 C 3.054688 -37.082031 2.84375 -37.59375 2.84375 -38.1875 C 2.84375 -38.78125 3.054688 -39.289062 3.484375 -39.71875 C 3.910156 -40.144531 4.421875 -40.359375 5.015625 -40.359375 L 8.84375 -40.359375 C 8.957031 -40.359375 9.050781 -40.40625 9.125 -40.5 C 9.195312 -40.59375 9.21875 -40.675781 9.1875 -40.75 C 8.851562 -41.863281 8.351562 -43.085938 7.6875 -44.421875 C 7.425781 -44.898438 7.394531 -45.390625 7.59375 -45.890625 C 7.800781 -46.390625 8.164062 -46.734375 8.6875 -46.921875 C 8.976562 -46.992188 9.253906 -47.03125 9.515625 -47.03125 C 9.847656 -47.03125 10.164062 -46.976562 10.46875 -46.875 C 11.0625 -46.644531 11.503906 -46.253906 11.796875 -45.703125 C 12.097656 -45.140625 12.378906 -44.582031 12.640625 -44.03125 C 12.785156 -43.695312 12.859375 -43.363281 12.859375 -43.03125 C 12.859375 -42.65625 12.765625 -42.285156 12.578125 -41.921875 C 12.242188 -41.210938 11.707031 -40.726562 10.96875 -40.46875 C 10.925781 -40.46875 10.90625 -40.445312 10.90625 -40.40625 C 10.90625 -40.375 10.925781 -40.359375 10.96875 -40.359375 L 22.328125 -40.359375 C 22.359375 -40.359375 22.375 -40.375 22.375 -40.40625 C 22.375 -40.445312 22.375 -40.46875 22.375 -40.46875 C 21.59375 -40.65625 21.035156 -41.117188 20.703125 -41.859375 C 20.554688 -42.234375 20.484375 -42.601562 20.484375 -42.96875 C 20.484375 -43.34375 20.578125 -43.71875 20.765625 -44.09375 C 20.953125 -44.53125 21.15625 -44.992188 21.375 -45.484375 C 21.675781 -46.109375 22.125 -46.585938 22.71875 -46.921875 C 23.125 -47.148438 23.546875 -47.265625 23.984375 -47.265625 C 24.210938 -47.265625 24.421875 -47.222656 24.609375 -47.140625 C 25.203125 -47.035156 25.628906 -46.703125 25.890625 -46.140625 C 26.148438 -45.585938 26.148438 -45.03125 25.890625 -44.46875 C 25.140625 -43.132812 24.414062 -41.875 23.71875 -40.6875 C 23.675781 -40.613281 23.671875 -40.539062 23.703125 -40.46875 C 23.742188 -40.394531 23.800781 -40.359375 23.875 -40.359375 L 28.171875 -40.359375 C 28.765625 -40.359375 29.273438 -40.144531 29.703125 -39.71875 C 30.128906 -39.289062 30.34375 -38.78125 30.34375 -38.1875 C 30.34375 -37.59375 30.128906 -37.082031 29.703125 -36.65625 C 29.273438 -36.226562 28.765625 -36.015625 28.171875 -36.015625 L 19.3125 -36.015625 C 19.050781 -36.015625 18.921875 -35.882812 18.921875 -35.625 L 18.921875 -27.890625 C 18.921875 -27.628906 19.050781 -27.5 19.3125 -27.5 L 23.71875 -27.5 C 23.976562 -27.5 24.109375 -27.628906 24.109375 -27.890625 L 24.109375 -31.890625 C 24.109375 -32.523438 24.320312 -33.046875 24.75 -33.453125 C 25.175781 -33.859375 25.6875 -34.0625 26.28125 -34.0625 C 26.875 -34.0625 27.378906 -33.859375 27.796875 -33.453125 C 28.222656 -33.046875 28.4375 -32.523438 28.4375 -31.890625 L 28.4375 -23.875 C 28.4375 -23.28125 28.222656 -22.769531 27.796875 -22.34375 C 27.378906 -21.914062 26.875 -21.703125 26.28125 -21.703125 L 25.609375 -21.703125 C 25.203125 -21.703125 24.847656 -21.847656 24.546875 -22.140625 C 24.253906 -22.441406 24.109375 -22.800781 24.109375 -23.21875 C 24.109375 -23.363281 24.050781 -23.4375 23.9375 -23.4375 L 19.203125 -23.4375 C 18.941406 -23.4375 18.796875 -23.285156 18.765625 -22.984375 C 18.460938 -20.835938 17.679688 -18.921875 16.421875 -17.234375 C 15.160156 -15.546875 13.15625 -14.125 10.40625 -12.96875 C 10.039062 -12.820312 9.671875 -12.75 9.296875 -12.75 C 8.992188 -12.75 8.695312 -12.804688 8.40625 -12.921875 C 7.738281 -13.140625 7.164062 -13.546875 6.6875 -14.140625 C 6.3125 -14.546875 6.1875 -15.015625 6.3125 -15.546875 C 6.445312 -16.085938 6.753906 -16.453125 7.234375 -16.640625 C 9.347656 -17.492188 10.914062 -18.441406 11.9375 -19.484375 C 12.957031 -20.523438 13.617188 -21.691406 13.921875 -22.984375 C 13.953125 -23.097656 13.929688 -23.203125 13.859375 -23.296875 C 13.785156 -23.390625 13.691406 -23.4375 13.578125 -23.4375 L 9.359375 -23.4375 C 9.171875 -23.4375 9.078125 -23.34375 9.078125 -23.15625 C 9.078125 -22.5625 8.863281 -22.0625 8.4375 -21.65625 C 8.007812 -21.25 7.515625 -21.046875 6.953125 -21.046875 L 6.90625 -21.046875 C 6.3125 -21.046875 5.800781 -21.257812 5.375 -21.6875 C 4.945312 -22.113281 4.734375 -22.625 4.734375 -23.21875 L 4.734375 -31.890625 C 4.734375 -32.523438 4.945312 -33.046875 5.375 -33.453125 C 5.800781 -33.859375 6.3125 -34.0625 6.90625 -34.0625 C 7.5 -34.0625 8.007812 -33.859375 8.4375 -33.453125 C 8.863281 -33.046875 9.078125 -32.523438 9.078125 -31.890625 L 9.078125 -27.890625 C 9.078125 -27.628906 9.207031 -27.5 9.46875 -27.5 Z M 47.203125 -40.796875 C 47.203125 -41.054688 47.054688 -41.1875 46.765625 -41.1875 L 37.90625 -41.1875 C 37.644531 -41.1875 37.515625 -41.054688 37.515625 -40.796875 L 37.515625 -37.734375 C 37.515625 -37.472656 37.644531 -37.34375 37.90625 -37.34375 L 46.765625 -37.34375 C 47.054688 -37.34375 47.203125 -37.472656 47.203125 -37.734375 Z M 37.34375 -29.609375 C 37.34375 -29.316406 37.472656 -29.171875 37.734375 -29.171875 L 46.765625 -29.171875 C 47.054688 -29.171875 47.203125 -29.316406 47.203125 -29.609375 L 47.203125 -32.953125 C 47.203125 -33.210938 47.054688 -33.34375 46.765625 -33.34375 L 37.90625 -33.34375 C 37.644531 -33.34375 37.515625 -33.210938 37.515625 -32.953125 C 37.484375 -31.835938 37.425781 -30.722656 37.34375 -29.609375 Z M 31.0625 -2.0625 C 31.0625 -1.800781 31.207031 -1.671875 31.5 -1.671875 L 51.828125 -1.671875 C 52.453125 -1.671875 52.992188 -1.4375 53.453125 -0.96875 C 53.921875 -0.507812 54.15625 0.0390625 54.15625 0.6875 C 54.15625 1.34375 53.921875 1.890625 53.453125 2.328125 C 52.992188 2.773438 52.453125 3 51.828125 3 L 5.171875 3 C 4.546875 3 4 2.773438 3.53125 2.328125 C 3.070312 1.890625 2.84375 1.34375 2.84375 0.6875 C 2.84375 0.0390625 3.070312 -0.507812 3.53125 -0.96875 C 4 -1.4375 4.546875 -1.671875 5.171875 -1.671875 L 25.21875 -1.671875 C 25.507812 -1.671875 25.65625 -1.800781 25.65625 -2.0625 L 25.65625 -6.5625 C 25.65625 -6.863281 25.507812 -7.015625 25.21875 -7.015625 L 10.90625 -7.015625 C 10.28125 -7.015625 9.753906 -7.234375 9.328125 -7.671875 C 8.898438 -8.117188 8.6875 -8.648438 8.6875 -9.265625 C 8.6875 -9.878906 8.898438 -10.40625 9.328125 -10.84375 C 9.753906 -11.289062 10.28125 -11.515625 10.90625 -11.515625 L 25.21875 -11.515625 C 25.507812 -11.515625 25.65625 -11.644531 25.65625 -11.90625 C 25.65625 -12.800781 25.96875 -13.5625 26.59375 -14.1875 C 27.226562 -14.820312 27.992188 -15.140625 28.890625 -15.140625 L 29.328125 -15.140625 C 29.410156 -15.140625 29.457031 -15.175781 29.46875 -15.25 C 29.488281 -15.320312 29.460938 -15.378906 29.390625 -15.421875 C 29.316406 -15.492188 29.222656 -15.550781 29.109375 -15.59375 C 28.484375 -16.070312 28.132812 -16.703125 28.0625 -17.484375 C 28.0625 -17.585938 28.0625 -17.675781 28.0625 -17.75 C 28.0625 -18.457031 28.28125 -19.070312 28.71875 -19.59375 C 30.351562 -21.488281 31.4375 -23.578125 31.96875 -25.859375 C 32.507812 -28.140625 32.78125 -30.671875 32.78125 -33.453125 L 32.78125 -42.25 C 32.78125 -43.175781 33.09375 -43.953125 33.71875 -44.578125 C 34.351562 -45.210938 35.140625 -45.53125 36.078125 -45.53125 L 48.921875 -45.53125 C 49.816406 -45.53125 50.585938 -45.210938 51.234375 -44.578125 C 51.890625 -43.953125 52.21875 -43.175781 52.21875 -42.25 L 52.21875 -19.53125 C 52.21875 -18.269531 52.054688 -17.285156 51.734375 -16.578125 C 51.421875 -15.878906 50.859375 -15.328125 50.046875 -14.921875 C 49.003906 -14.429688 47.257812 -14.148438 44.8125 -14.078125 C 44.8125 -14.078125 44.789062 -14.078125 44.75 -14.078125 C 44.082031 -14.078125 43.488281 -14.300781 42.96875 -14.75 C 42.414062 -15.195312 42.023438 -15.773438 41.796875 -16.484375 C 41.617188 -17.035156 41.695312 -17.550781 42.03125 -18.03125 C 42.363281 -18.519531 42.828125 -18.742188 43.421875 -18.703125 C 44.304688 -18.703125 45.25 -18.703125 46.25 -18.703125 C 46.625 -18.703125 46.875 -18.765625 47 -18.890625 C 47.132812 -19.023438 47.203125 -19.257812 47.203125 -19.59375 L 47.203125 -24.71875 C 47.203125 -25.007812 47.054688 -25.15625 46.765625 -25.15625 L 37.078125 -25.15625 C 36.773438 -25.15625 36.609375 -25.007812 36.578125 -24.71875 C 35.535156 -20.707031 33.675781 -17.535156 31 -15.203125 L 31 -15.140625 C 31.039062 -15.140625 31.0625 -15.117188 31.0625 -15.078125 L 31.0625 -11.90625 C 31.0625 -11.644531 31.191406 -11.515625 31.453125 -11.515625 L 46.09375 -11.515625 C 46.71875 -11.515625 47.242188 -11.289062 47.671875 -10.84375 C 48.097656 -10.40625 48.3125 -9.878906 48.3125 -9.265625 C 48.3125 -8.648438 48.097656 -8.117188 47.671875 -7.671875 C 47.242188 -7.234375 46.71875 -7.015625 46.09375 -7.015625 L 31.5 -7.015625 C 31.207031 -7.015625 31.0625 -6.863281 31.0625 -6.5625 Z M 31.0625 -2.0625 "/></g></g><g transform="translate(673.968895, 716.699984)"><g><path d="M 25.828125 -45.421875 C 25.828125 -46.234375 26.101562 -46.914062 26.65625 -47.46875 C 27.21875 -48.03125 27.894531 -48.3125 28.6875 -48.3125 C 29.488281 -48.3125 30.164062 -48.03125 30.71875 -47.46875 C 31.28125 -46.914062 31.5625 -46.234375 31.5625 -45.421875 L 31.5625 -3.78125 C 31.5625 -2.039062 31.316406 -0.726562 30.828125 0.15625 C 30.347656 1.050781 29.550781 1.722656 28.4375 2.171875 C 26.84375 2.765625 24.046875 3.097656 20.046875 3.171875 C 20.046875 3.171875 20.023438 3.171875 19.984375 3.171875 C 19.171875 3.171875 18.425781 2.910156 17.75 2.390625 C 17.050781 1.867188 16.535156 1.179688 16.203125 0.328125 C 16.128906 0.109375 16.09375 -0.128906 16.09375 -0.390625 C 16.09375 -0.765625 16.179688 -1.117188 16.359375 -1.453125 C 16.734375 -1.972656 17.238281 -2.234375 17.875 -2.234375 C 17.90625 -2.234375 17.921875 -2.234375 17.921875 -2.234375 C 18.816406 -2.234375 19.707031 -2.234375 20.59375 -2.234375 C 21.257812 -2.191406 21.835938 -2.171875 22.328125 -2.171875 C 23.285156 -2.171875 23.914062 -2.191406 24.21875 -2.234375 C 24.8125 -2.265625 25.226562 -2.390625 25.46875 -2.609375 C 25.707031 -2.835938 25.828125 -3.226562 25.828125 -3.78125 Z M 40.75 -31.390625 C 40.5625 -31.765625 40.46875 -32.140625 40.46875 -32.515625 C 40.46875 -32.765625 40.523438 -33.039062 40.640625 -33.34375 C 40.898438 -34.007812 41.363281 -34.472656 42.03125 -34.734375 C 42.394531 -34.878906 42.785156 -34.953125 43.203125 -34.953125 C 43.535156 -34.953125 43.882812 -34.878906 44.25 -34.734375 C 44.988281 -34.472656 45.566406 -34.007812 45.984375 -33.34375 C 47.910156 -29.96875 49.707031 -26.382812 51.375 -22.59375 C 52.863281 -19.21875 54 -16.195312 54.78125 -13.53125 C 54.851562 -13.195312 54.890625 -12.878906 54.890625 -12.578125 C 54.890625 -12.054688 54.757812 -11.554688 54.5 -11.078125 C 54.09375 -10.265625 53.476562 -9.691406 52.65625 -9.359375 C 52.320312 -9.242188 51.988281 -9.1875 51.65625 -9.1875 C 51.25 -9.1875 50.84375 -9.296875 50.4375 -9.515625 C 49.726562 -9.890625 49.28125 -10.46875 49.09375 -11.25 C 48.382812 -13.882812 47.347656 -16.890625 45.984375 -20.265625 C 44.378906 -24.160156 42.632812 -27.867188 40.75 -31.390625 Z M 10.46875 -32.28125 C 10.65625 -33.101562 11.097656 -33.753906 11.796875 -34.234375 C 12.316406 -34.566406 12.875 -34.734375 13.46875 -34.734375 C 13.65625 -34.734375 13.84375 -34.734375 14.03125 -34.734375 C 14.84375 -34.585938 15.488281 -34.160156 15.96875 -33.453125 C 16.269531 -32.972656 16.421875 -32.472656 16.421875 -31.953125 C 16.421875 -31.734375 16.382812 -31.492188 16.3125 -31.234375 C 14.226562 -22.835938 11.6875 -16.285156 8.6875 -11.578125 C 8.28125 -10.910156 7.664062 -10.503906 6.84375 -10.359375 C 6.625 -10.316406 6.421875 -10.296875 6.234375 -10.296875 C 5.640625 -10.296875 5.082031 -10.445312 4.5625 -10.75 C 3.9375 -11.113281 3.53125 -11.648438 3.34375 -12.359375 C 3.300781 -12.578125 3.28125 -12.800781 3.28125 -13.03125 C 3.28125 -13.507812 3.410156 -13.953125 3.671875 -14.359375 C 5.160156 -16.660156 6.460938 -19.351562 7.578125 -22.4375 C 8.765625 -25.738281 9.726562 -29.019531 10.46875 -32.28125 Z M 10.46875 -32.28125 "/></g></g><g transform="translate(730.968892, 716.699984)"><g><path d="M 43.96875 -2.34375 C 44.269531 -2.34375 44.421875 -2.472656 44.421875 -2.734375 L 44.421875 -11.515625 C 44.421875 -11.773438 44.269531 -11.90625 43.96875 -11.90625 L 22.15625 -11.90625 C 21.851562 -11.90625 21.703125 -11.773438 21.703125 -11.515625 L 21.703125 -2.734375 C 21.703125 -2.472656 21.851562 -2.34375 22.15625 -2.34375 Z M 30.359375 -33.921875 C 30.898438 -34.460938 31.539062 -34.734375 32.28125 -34.734375 C 33.03125 -34.734375 33.660156 -34.460938 34.171875 -33.921875 C 34.691406 -33.390625 34.953125 -32.75 34.953125 -32 L 34.953125 -29.0625 C 34.953125 -28.757812 35.082031 -28.609375 35.34375 -28.609375 L 51.046875 -28.609375 C 51.710938 -28.609375 52.265625 -28.375 52.703125 -27.90625 C 53.148438 -27.445312 53.375 -26.890625 53.375 -26.234375 C 53.375 -25.585938 53.148438 -25.03125 52.703125 -24.5625 C 52.265625 -24.101562 51.710938 -23.875 51.046875 -23.875 L 35.34375 -23.875 C 35.082031 -23.875 34.953125 -23.742188 34.953125 -23.484375 L 34.953125 -16.984375 C 34.953125 -16.722656 35.082031 -16.59375 35.34375 -16.59375 L 46.53125 -16.59375 C 47.425781 -16.59375 48.195312 -16.265625 48.84375 -15.609375 C 49.488281 -14.960938 49.8125 -14.191406 49.8125 -13.296875 L 49.8125 1.71875 C 49.8125 2.46875 49.539062 3.109375 49 3.640625 C 48.46875 4.179688 47.832031 4.453125 47.09375 4.453125 L 46.203125 4.453125 C 45.722656 4.453125 45.304688 4.273438 44.953125 3.921875 C 44.597656 3.566406 44.421875 3.128906 44.421875 2.609375 C 44.421875 2.460938 44.347656 2.390625 44.203125 2.390625 L 21.9375 2.390625 C 21.78125 2.390625 21.703125 2.460938 21.703125 2.609375 C 21.703125 3.128906 21.515625 3.578125 21.140625 3.953125 C 20.773438 4.328125 20.351562 4.515625 19.875 4.515625 L 19.15625 4.515625 C 18.40625 4.515625 17.78125 4.257812 17.28125 3.75 C 16.78125 3.25 16.53125 2.628906 16.53125 1.890625 L 16.53125 -13.296875 C 16.53125 -14.191406 16.851562 -14.960938 17.5 -15.609375 C 18.15625 -16.265625 18.925781 -16.59375 19.8125 -16.59375 L 29.171875 -16.59375 C 29.429688 -16.59375 29.5625 -16.722656 29.5625 -16.984375 L 29.5625 -32 C 29.5625 -32.75 29.828125 -33.390625 30.359375 -33.921875 Z M 32.953125 -41.296875 C 32.953125 -41.003906 33.082031 -40.859375 33.34375 -40.859375 L 51.65625 -40.859375 C 52.363281 -40.859375 52.96875 -40.609375 53.46875 -40.109375 C 53.96875 -39.609375 54.21875 -39.003906 54.21875 -38.296875 C 54.21875 -37.585938 53.96875 -36.984375 53.46875 -36.484375 C 52.96875 -35.984375 52.363281 -35.734375 51.65625 -35.734375 L 12.640625 -35.734375 C 12.335938 -35.734375 12.1875 -35.601562 12.1875 -35.34375 L 12.1875 -26.390625 C 12.1875 -14.253906 10.664062 -4.789062 7.625 2 C 7.332031 2.632812 6.832031 3.046875 6.125 3.234375 C 5.9375 3.265625 5.75 3.28125 5.5625 3.28125 C 5.082031 3.28125 4.640625 3.132812 4.234375 2.84375 C 3.597656 2.394531 3.171875 1.816406 2.953125 1.109375 C 2.878906 0.816406 2.84375 0.519531 2.84375 0.21875 C 2.84375 -0.1875 2.9375 -0.59375 3.125 -1 C 4.644531 -4.488281 5.65625 -8.363281 6.15625 -12.625 C 6.65625 -16.894531 6.90625 -21.484375 6.90625 -26.390625 L 6.90625 -37.578125 C 6.90625 -38.503906 7.21875 -39.28125 7.84375 -39.90625 C 8.476562 -40.539062 9.257812 -40.859375 10.1875 -40.859375 L 27 -40.859375 C 27.289062 -40.859375 27.4375 -41.003906 27.4375 -41.296875 L 27.4375 -45.03125 C 27.4375 -45.8125 27.707031 -46.46875 28.25 -47 C 28.789062 -47.539062 29.441406 -47.8125 30.203125 -47.8125 C 30.960938 -47.8125 31.609375 -47.539062 32.140625 -47 C 32.679688 -46.46875 32.953125 -45.8125 32.953125 -45.03125 Z M 32.953125 -41.296875 "/></g></g></g><g fill="rgb(100%, 100%, 100%)" fill-opacity="1"><g transform="translate(110.33887, 687.125145)"><g><path d="M 25.890625 2.34375 C 31.273438 2.34375 35.878906 0.429688 39.703125 -3.390625 C 43.523438 -7.222656 45.4375 -11.832031 45.4375 -17.21875 C 45.4375 -22.570312 43.523438 -27.160156 39.703125 -30.984375 C 39.453125 -31.253906 39.191406 -31.5 38.921875 -31.71875 C 43.265625 -35.570312 45.4375 -40.421875 45.4375 -46.265625 C 45.4375 -51.648438 43.523438 -56.253906 39.703125 -60.078125 C 35.878906 -63.898438 31.273438 -65.8125 25.890625 -65.8125 L 16.296875 -65.8125 C 13.328125 -65.8125 10.507812 -65.160156 7.84375 -63.859375 C 5.1875 -62.566406 2.941406 -60.785156 1.109375 -58.515625 C 0.367188 -57.535156 0 -56.484375 0 -55.359375 C 0 -55.171875 0.0351562 -54.707031 0.109375 -53.96875 C 0.191406 -53.238281 0.769531 -52.414062 1.84375 -51.5 C 2.789062 -50.757812 3.8125 -50.390625 4.90625 -50.390625 C 5.09375 -50.390625 5.566406 -50.425781 6.328125 -50.5 C 7.097656 -50.582031 7.941406 -51.179688 8.859375 -52.296875 C 9.773438 -53.421875 10.867188 -54.285156 12.140625 -54.890625 C 13.410156 -55.503906 14.796875 -55.8125 16.296875 -55.8125 L 25.890625 -55.8125 C 28.515625 -55.8125 30.757812 -54.878906 32.625 -53.015625 C 34.5 -51.148438 35.4375 -48.898438 35.4375 -46.265625 C 35.4375 -43.660156 34.5 -41.414062 32.625 -39.53125 C 30.757812 -37.65625 28.515625 -36.71875 25.890625 -36.71875 L 16.296875 -36.71875 C 14.921875 -36.71875 13.742188 -36.226562 12.765625 -35.25 C 11.785156 -34.269531 11.296875 -33.09375 11.296875 -31.71875 C 11.296875 -30.34375 11.785156 -29.171875 12.765625 -28.203125 C 13.742188 -27.242188 14.921875 -26.765625 16.296875 -26.765625 L 25.890625 -26.765625 C 28.515625 -26.765625 30.757812 -25.820312 32.625 -23.9375 C 34.5 -22.050781 35.4375 -19.8125 35.4375 -17.21875 C 35.4375 -14.582031 34.5 -12.332031 32.625 -10.46875 C 30.757812 -8.601562 28.515625 -7.671875 25.890625 -7.671875 L 16.296875 -7.671875 C 13.234375 -7.671875 10.753906 -8.847656 8.859375 -11.203125 C 7.785156 -12.453125 6.46875 -13.078125 4.90625 -13.078125 C 3.8125 -13.078125 2.789062 -12.710938 1.84375 -11.984375 C 0.613281 -10.910156 0 -9.625 0 -8.125 C 0 -6.988281 0.367188 -5.929688 1.109375 -4.953125 C 2.941406 -2.660156 5.1875 -0.875 7.84375 0.40625 C 10.507812 1.695312 13.328125 2.34375 16.296875 2.34375 Z M 25.890625 2.34375 "/></g></g></g></svg>