<svg xmlns="http://www.w3.org/2000/svg" width="1080" viewBox="0 0 810 810" height="1080" version="1"><path fill="#D9F6E1" d="M-81 -81H891V891H-81z"/><path fill="#FFF" d="M-81 -81H891V891H-81z"/><path fill="#D9F6E1" d="M-81 -81H891V891H-81z"/><path fill="#FFF" d="M508.047 847.035v-805.5H181.648v805.5h326.399M146.809 220.328v583.059c0 28.058 15.593 43.648 34.84 43.648v-805.5c-19.247 0-34.84 15.59-34.84 34.832v110.824c-35.637-1.07-71.008.621-87.672-2.406 28.336 13.094 58.804 22.625 87.672 35.543m396.074 583.059V76.367c0-19.242-15.59-34.832-34.836-34.832v805.5c19.246 0 34.836-15.59 34.836-43.648"/><path d="M192.316 79.128l-1.547.828c-.293-.758-.761-1.644-1.406-2.656a20.408 20.408 0 0 0-1.984-2.703l1.453-.734c1.602 1.773 2.766 3.527 3.484 5.265zm-3.125 4.266l.375 1.562c-2.105.95-5.03 2.246-8.78 3.89l-.595-1.687 3.032-1.234-.375-13.594 1.671-.078.329 12.985c.52-.22 1.27-.536 2.25-.954.976-.414 1.675-.71 2.093-.89zm11.422 6.515l-1.375 1.25c-.898-1.336-2.539-3.27-4.922-5.812-1.699 2.562-4.215 4.539-7.547 5.937l-1.296-1.406c1.863-.687 3.437-1.535 4.718-2.547a12.166 12.166 0 0 0 3.172-3.75 20.002 20.002 0 0 0 1.89-4.906c.458-1.77.813-3.898 1.063-6.39l1.782.171c-.555 4.961-1.524 8.758-2.907 11.39 2.727 2.763 4.535 4.782 5.422 6.063zm0 0" fill="#3E3A39"/><path d="M222.047 74.394h-9.281v3.922l.28-.344a57.65 57.65 0 0 1 4.282 2.297c1.508.867 2.688 1.62 3.531 2.265l-1.14 1.47c-1.524-1.24-3.84-2.696-6.953-4.376v11.578h-1.735V74.394h-8.406v-1.625h19.422zm0 0" fill="#3E3A39"/><path d="M239.918 70.8l1.156 1.281c-2.125 1.219-5.437 2.461-9.937 3.719l-.532-1.281c4.352-1.239 7.457-2.477 9.313-3.719zm-10.969.469l1.5.469c-.45 1.375-1.07 2.859-1.86 4.453v15.015h-1.593V78.972a23.746 23.746 0 0 1-2.016 2.75l-.906-1.61c.969-1.07 1.875-2.382 2.719-3.937a28.391 28.391 0 0 0 2.156-4.906zm3.61 13.5l1.53.453c-.968 1.887-2.136 3.496-3.5 4.828l-1.234-.86a14.26 14.26 0 0 0 1.828-2.109c.594-.82 1.051-1.593 1.375-2.312zm9.406-1.438l-4.282.39v5.735c0 .75-.234 1.211-.703 1.39-.449.188-1.406.282-2.875.282l-.484-1.406c.602.02 1.29.031 2.062.031.25-.023.375-.125.375-.312v-5.547c-3.125.281-4.886.515-5.28.703l-.485-1.422c.539-.07 1.414-.477 2.625-1.219a35.599 35.599 0 0 0 3.672-2.531c-3.106.25-4.844.445-5.219.578l-.438-1.39c.676-.102 1.926-.88 3.75-2.329.946-.757 1.801-1.53 2.563-2.312l1.328.703c-1.574 1.461-3.11 2.672-4.61 3.64l4.407-.265 2.797-2.422 1.187.922a54.725 54.725 0 0 1-8.297 6.11l6.938-.594-1.484-1.72 1.218-.718c1.489 1.574 2.645 2.996 3.47 4.266l-1.298.844zm-2.407 1.844l1.297-.64c1.614 1.718 2.711 3.195 3.297 4.421l-1.36.75c-.616-1.351-1.694-2.863-3.234-4.531zm0 0" fill="#3E3A39"/><path d="M255.982 89.831c-1.992 0-3.7-.707-5.125-2.125l1-1.328c1.187 1.188 2.504 1.781 3.953 1.781.969 0 1.785-.343 2.453-1.03.656-.696.984-1.618.984-2.766 0-1.145-.304-2.04-.906-2.688-.605-.656-1.375-.984-2.312-.984-.918 0-1.856.312-2.813.937l-1.078-.656.437-6.36 1.282-1.203h6.64v1.735h-6.093l-.391 4.656 2.39-.64c1.426 0 2.594.437 3.5 1.312.907.867 1.36 2.148 1.36 3.844 0 1.687-.523 3.03-1.563 4.03-1.043.993-2.28 1.485-3.718 1.485zm0 0" fill="#3E3A39"/><path d="M275.804 73.363h-4.75v1.828h4.75zm-4.75 4.968h4.75v-1.937h-4.75zm6.313.047l-1.203 1.203h-5.11v11.657h-1.625v-17.97l1.188-1.187h5.547l1.203 1.203zm3.547 4.125h-5.172v2.031h5.172zm-5.172 5.39h5.172V85.77h-5.172zm6.687.095l-1.203 1.203h-5.484V90.3h-1.47v-7.86l1.204-1.202h5.75l1.203 1.203zm-1.531-9.641h4.922v-1.953h-4.922zm4.922-4.984h-4.922v1.828h4.922zm.437-1.282l1.219 1.203v15.782c0 1-.324 1.625-.969 1.875-.523.187-1.758.28-3.703.28l-.578-1.671c2.176.102 3.336.07 3.484-.094l.11-9.843h-5.281l-1.204-1.22v-5.109l1.204-1.203zm0 0" fill="#3E3A39"/><path d="M307.222 71.019l1.203 1.062c-1.554 1.336-4.008 2.7-7.36 4.094l-.562-1.125c3.051-1.289 5.29-2.633 6.72-4.031zm-12.5 13.125v-9.688h-2.11v9.688zm5.063-13.156l1.468.328-1.343 4.218v15.579h-1.422v-12.47c-.512.938-1.012 1.704-1.5 2.298l-.875-1.032v4.516l-1.219 1.203h-2.281v2.016h-1.39v-13.5l1.218-1.203h2.453l1.219 1.203v5.422c1.582-2.07 2.804-4.93 3.672-8.578zm2.421 13.671l1.36.313c-.574 1.98-1.258 3.578-2.047 4.797l-1.125-.656c.738-1.102 1.344-2.586 1.812-4.454zm6.36-2.015l-2.406.234v6.89c0 .634-.204 1.032-.61 1.188-.418.176-1.261.25-2.531.219l-.438-1.125h1.797c.22-.012.328-.105.328-.281v-6.735c-1.843.211-2.93.387-3.25.532l-.468-1.422c.383-.063.992-.41 1.828-1.047.57-.395 1.351-1.05 2.344-1.969-2.18.219-3.414.387-3.704.5l-.437-1.36c.57-.093 1.598-.859 3.078-2.296a19.575 19.575 0 0 0 2-2.219l1.36.688c-1.231 1.367-2.481 2.543-3.75 3.53l2.859-.233 1.578-1.782 1.281.813a41.88 41.88 0 0 1-5.437 5.015l4-.359-.985-1.922 1.157-.469c1.039 1.72 1.738 3.141 2.093 4.266l-1.25.531zm-1.516 2.328l1.203-.438c1.008 1.594 1.696 3.04 2.063 4.329l-1.266.562c-.293-1.219-.96-2.703-2-4.453zm0 0" fill="#3E3A39"/><path d="M317.25 71.222l1.53.469a35.53 35.53 0 0 1-2.265 4.703v14.781h-1.547V78.831c-.594.856-1.34 1.766-2.234 2.735l-.922-1.61c1.082-1.05 2.101-2.347 3.062-3.89a26.118 26.118 0 0 0 2.375-4.844zm4 9.281l1.609.313c-.762 3.117-1.836 5.609-3.219 7.484l-1.406-.906c1.32-1.594 2.328-3.89 3.015-6.89zm9.312-3.625h-4.14v12.36c0 .882-.259 1.44-.766 1.671-.461.22-.903.305-1.328.266l-1.97-1.078-.187-.5 2.266.016c.144 0 .242-.024.297-.063.05-.062.078-.164.078-.312v-12.36h-3.344c-.625 1.5-1.336 2.762-2.125 3.781l-1.297-1.03c1.594-2.009 2.797-4.802 3.61-8.376l1.593.344-1.156 3.766 9.078.171.97 1.329a50.214 50.214 0 0 1-.72 3.359l-1.375-.266zm-2.531 3.938l1.422-.485a27.835 27.835 0 0 1 1.703 3.782c.507 1.367.86 2.554 1.047 3.562l-1.563.531c-.168-1-.5-2.187-1-3.562a32.812 32.812 0 0 0-1.61-3.828zm0 0" fill="#3E3A39"/><path d="M340.214 72.019l1.047.61c-.73 2.323-1.406 4.296-2.031 5.921 1.207 1.543 1.812 3.18 1.812 4.906 0 1.336-.273 2.2-.812 2.594-.274.242-.617.387-1.031.438h-1.422l-.406-1.454c.851.137 1.445.09 1.78-.14.282-.227.423-.758.423-1.594 0-1.582-.34-2.734-1.016-3.453l-.406-2.11c.27-.75.687-2.144 1.25-4.187h-2.688v17.688h-1.453v-17.97l1.219-1.187zm4.516-.86l1.484.391a30.291 30.291 0 0 1-1.75 4.484v15.079h-1.484V78.706a16.17 16.17 0 0 1-1.563 2.157l-1.046-1.344c1.863-2.07 3.316-4.86 4.359-8.36zm9.766 5.016v1.516h-1.938v11.437c0 .895-.273 1.469-.812 1.719-.543.25-1.622.367-3.235.36l-.531-1.61c.789.008 1.633.016 2.531.016.3-.012.453-.172.453-.485V77.691h-5.453v-1.516h5.453v-4.75h1.594v4.75zm-4.938 8.625l-1.312.656c-.399-1.125-1.149-2.797-2.25-5.015l1.234-.547c1.144 2.023 1.922 3.656 2.328 4.906zm0 0" fill="#3E3A39"/><path d="M370.554 79.269h-4.203c-.211 3.719-1.078 6.558-2.61 8.515l-1.359-1c1.57-2.007 2.36-5.093 2.36-9.25v-3.468l1.578-1.297c3.332-.176 6.02-.582 8.062-1.219l1.328 1.219c-2.23.668-5.343 1.125-9.343 1.375v3.61h9.796v1.515h-3.968v8.969h-1.64zm-9.031-4.719l-1.25.89-2.906-3.515 1.218-.719zm.031 7.031l.813.313c-.293 1.824-.778 3.453-1.454 4.89.657 1.086 1.614 1.805 2.875 2.157 1.282.343 3.165.515 5.657.515 2.508 0 4.968-.093 7.375-.281l-.547 1.563a136.28 136.28 0 0 1-7.031.171c-2.493 0-4.407-.199-5.75-.593-1.356-.375-2.446-1.145-3.266-2.313-.844 1.399-1.875 2.488-3.094 3.281l-1.078-1.125c2.313-1.382 3.86-3.78 4.64-7.187h-2.577c-.711 0-1.149.105-1.313.312l-.594-1.5c.395-.101.75-.316 1.063-.64.531-.54 1.488-1.735 2.875-3.578h-3.64v-1.344l4.968-.11 1.078.532c-1.437 1.98-2.758 3.64-3.953 4.984zm0 0" fill="#3E3A39"/><path d="M382.55 74.081h-2.203v11.266h2.203zm.078-1.515l1.203 1.203v11.89l-1.203 1.204h-2.28v2.468h-1.267V73.77l1.204-1.203zm6.547 1.187h-2.703v2.516h2.703zm-2.703 6.485h2.703v-2.672h-2.703zm4.766 7.156l-1.297.531-.406-1.453a203.72 203.72 0 0 0-3.329 2l-1.015.812-.813-1.14c.532-.489.797-1.13.797-1.922V73.597l1.203-1.203h2.938l1.203 1.203v6.797l-1.203 1.219h-2.844v5.125l2.64-1.391-1.062-2.39 1.219-.423c1.008 1.887 1.664 3.508 1.969 4.86zm1.234-7.328h1.984c.383-1.801.602-3.875.657-6.22h-1.422a112.522 112.522 0 0 1-1.219 6.22zm3.719 9.547h.531c.219 0 .375-.043.469-.125.094-.094.164-.266.219-.516.05-.55.07-1.352.062-2.406l1.078.593c-.031 1.375-.101 2.262-.203 2.657-.18.757-.684 1.14-1.516 1.14h-.968c-.48 0-.825-.093-1.032-.281a1.341 1.341 0 0 1-.375-.578c-.043-.188-.062-.527-.062-1.016V84.52c-1.074 2.492-2.633 4.726-4.672 6.703l-1.14-.813c2.656-2.414 4.492-5.398 5.515-8.953h-1.953l-.969-1.11c.395-1.581.801-3.75 1.219-6.5h-1.328V72.41h7.11v1.438h-1.782c-.063 2.43-.277 4.5-.64 6.219h2.593v1.39h-2.906l-.344 1.188h.594v6.515c0 .305.164.454.5.454zm0 0" fill="#3E3A39"/><path d="M411.124 84.738v4.28c1.114.243 2.477.36 4.094.36 1.29.043 3.035.031 5.235-.031l-.594 1.61h-4.703c-2.586 0-4.711-.329-6.375-.985-1.68-.645-3.028-1.867-4.047-3.672-.824 2.211-1.93 3.867-3.313 4.984l-1.203-1.078c1.219-.937 2.14-2.218 2.766-3.843.644-1.625 1.066-3.38 1.265-5.266l1.672.219c-.136.93-.328 1.93-.578 3 .852 2.043 2.235 3.449 4.14 4.218V79.8h-8.671v-1.531h8.672v-3.016h-6.781v-1.515h6.78v-2.532h1.641v2.532h7.125v1.515h-7.125v3.016h8.766V79.8h-8.766v3.438h7.313v1.5zm0 0" fill="#3E3A39"/><path d="M439.84 73.44h-4.266v1.829h4.265zm-4.454 5.016h4.453V76.55h-4.265zm4.453 1.282h-4.719c-.417 1.68-1.164 3.027-2.234 4.046l-1.297-.765c1.664-1.551 2.5-3.926 2.5-7.125v-2.61l1.219-1.203h4.86l1.202 1.203v9.032c0 .43-.054.757-.156.984-.094.219-.312.414-.656.578-.336.149-1.273.219-2.813.219l-.484-1.484c.656.03 1.39.046 2.203.046.25-.007.375-.132.375-.375zm-12.89-.438l.078-3.781h-4.578v-1.375h3.156c-.313-.727-.781-1.489-1.406-2.281l1.156-.532c.75.887 1.265 1.688 1.547 2.407l-.844.406h2.531l1.5-2.813 1.422.438-1.422 2.375h2.953v1.375h-4.53V79.3h2.374v-2.812h1.375v4.75h-1.375v-.594h-2.781c-.574 1.625-1.887 2.902-3.938 3.828l-1.015-1.125c1.687-.707 2.797-1.61 3.328-2.703h-1.953l-1.219-1.219v-2.937h1.375V79.3zm6.171 9.75h9.157v1.453h-19.828V89.05h9.03v-2.453h-6.765v-1.422h6.766v-1.36h1.64v1.36h6.875v1.422h-6.875zm0 0" fill="#3E3A39"/><path d="M459.32 80.863h-7.328c.894 2.054 2.171 3.777 3.828 5.171 1.613-1.5 2.78-3.222 3.5-5.171zm1.03-1.657l1.126.516c-.824 2.96-2.266 5.39-4.328 7.297 1.945 1.304 4.351 2.219 7.219 2.75l-1.047 1.453c-2.899-.586-5.371-1.633-7.422-3.14-1.856 1.386-4.063 2.437-6.625 3.156l-.922-1.36c2.351-.601 4.43-1.555 6.234-2.86-1.53-1.374-2.78-3.116-3.75-5.234-1.168 3.856-2.902 6.774-5.203 8.75l-1.406-1.109c3.187-2.55 5.226-6.895 6.125-13.031h-5.39v-1.578h5.577l.25-3.672h1.688l-.281 3.672h11.61v1.578h-11.813l-.516 2.906zm0 0" fill="#3E3A39"/><path d="M481.566 86.581h-10.344v2.578h10.344zm-11.953 4.64v-4.75l1.218-1.218h11.172l1.203 1.219v4.687h-1.64v-.687h-10.344v.75zM485.58 79.05v1.281h-18.343V79.05h8.234v-1.516h-6.344V76.3h6.344v-1.469h-7.64v-1.25h4.265l-1.25-1.968 1.438-.5 1.375 1.984-1.188.484h6.406l1.313-2.468 1.703.39-1.328 2.078h4.344v1.25h-7.797V76.3h6.453v1.234h-6.453v1.516zm-3.89 3.61h4.453v1.328H466.58v-1.329h4.438c-.305-.757-.684-1.394-1.14-1.906l1.452-.422 1.313 2.047-.922.281h8.25l1.234-2.312 1.61.36zm0 0" fill="#3E3A39"/><path d="M497.577 71.472h1.735v17.484c0 .586-.09 1.02-.266 1.313-.156.3-.433.523-.828.672-.648.218-2.047.312-4.203.28l-.688-1.687c2.551.094 3.915.055 4.094-.109.102-.094.156-.25.156-.469zm5.25 5.531l1.547-.594c1 1.586 1.899 3.282 2.703 5.094.82 1.805 1.364 3.34 1.625 4.61l-1.718.734c-.262-1.281-.782-2.836-1.563-4.672a41.225 41.225 0 0 0-2.594-5.172zm-11-.437l1.813.328c-.96 4.304-2.281 7.496-3.969 9.578l-1.531-.86c.906-1.07 1.672-2.425 2.297-4.062a26.564 26.564 0 0 0 1.39-4.984zm0 0" fill="#3E3A39"/><path d="M196.644 119.378v-3.937h-9.28v3.937zm-4.421-12.5v2.594h7.109v1.5h-7.11v2.953h4.844l1.203 1.203v6.531h-1.625v-.828h-9.28v.875h-1.579v-6.578l1.203-1.203h3.578v-7.047zm.359-2.312h7.437v1.593h-16.203v4.11c0 5.242-.761 9.148-2.28 11.719l-1.438-.922c1.382-2.332 2.078-5.93 2.078-10.797v-4.485l1.203-1.218h7.375l-1.14-2.22 1.562-.39zm0 0" fill="#3E3A39"/><path d="M213.5 107.878a1.647 1.647 0 0 1-1.172.453c-.46 0-.852-.148-1.172-.453-.324-.312-.484-.707-.484-1.187 0-.489.16-.883.484-1.188.32-.312.711-.469 1.172-.469.457 0 .848.157 1.172.47.332.304.5.698.5 1.187 0 .48-.168.875-.5 1.187zm0 10.781a1.647 1.647 0 0 1-1.172.454c-.46 0-.852-.149-1.172-.454-.324-.312-.484-.71-.484-1.203 0-.5.16-.898.484-1.203.32-.312.711-.469 1.172-.469.457 0 .848.164 1.172.485.332.312.5.715.5 1.203 0 .48-.168.875-.5 1.187zm0 0" fill="#3E3A39"/><path d="M181.27 181.8v-1.672h3.578v-12.031h-2.86v-1.281c1.352-.25 2.469-.633 3.344-1.157h1.547v14.47h3.234v1.671zm0 0" fill="#3E3A39"/><path d="M195.634 181.66a1.426 1.426 0 0 1-1.047.421c-.407 0-.75-.14-1.032-.422-.273-.289-.406-.656-.406-1.093 0-.446.133-.817.406-1.11a1.36 1.36 0 0 1 1.032-.453c.414 0 .765.152 1.047.453.28.293.421.664.421 1.11 0 .437-.14.804-.421 1.093zm0 0" fill="#3E3A39"/><path d="M202.957 181.8l4.703-8.344-4.39-7.797h2.234l3.484 6.485 3.39-6.485h2.126l-4.39 7.907 4.702 8.234h-2.25l-3.765-6.953-3.704 6.953zm0 0" fill="#3E3A39"/><path d="M215.56 181.8l4.704-8.344-4.39-7.797h2.233l3.485 6.485 3.39-6.485h2.125l-4.39 7.907 4.703 8.234h-2.25l-3.766-6.953-3.703 6.953zm0 0" fill="#3E3A39"/><path d="M228.164 181.8l4.703-8.344-4.39-7.797h2.234l3.485 6.485 3.39-6.485h2.125l-4.39 7.907 4.703 8.234h-2.25l-3.766-6.953-3.703 6.953zm0 0" fill="#3E3A39"/><path d="M240.768 181.8l4.703-8.344-4.39-7.797h2.234l3.484 6.485 3.391-6.485h2.125l-4.39 7.907 4.702 8.234h-2.25l-3.765-6.953-3.703 6.953zm0 0" fill="#3E3A39"/><path d="M253.372 181.8l4.703-8.344-4.39-7.797h2.234l3.484 6.485 3.39-6.485h2.126l-4.39 7.907 4.702 8.234h-2.25l-3.765-6.953-3.704 6.953zm0 0" fill="#3E3A39"/><path d="M184.723 200.956v6.157l2.421-1.032.329 1.453c-1.375.649-3.606 1.657-6.688 3.032l-.64-1.625 3.03-1.203v-6.782h-2.609v-1.562h2.61v-5h1.547v5h2.359v1.562zm7.328 11.313h5.297c.632 0 1.046-.196 1.234-.594.207-.395.348-1.238.422-2.531l1.469.61c-.137 1.554-.403 2.605-.797 3.155-.399.551-1.153.829-2.266.829h-5.406c-1.262 0-2.121-.204-2.578-.61-.438-.398-.657-1.18-.657-2.36v-6.905l-1.734.718-.64-1.422 2.374-1v-5.984h1.563v5.313l2.953-1.235v-6.11h1.563v5.454l3.343-1.406 1.25.406-.093.266c-.305 4.386-.684 7.601-1.141 9.64l-1.344-.39c.32-1.758.602-4.438.844-8.032l-2.86 1.203v8.079h-1.562v-7.422l-2.953 1.265v7.578c0 .606.11 1.008.328 1.204.219.187.68.28 1.39.28zm0 0" fill="#3E3A39"/><path d="M209.687 206.066l.313 1.422a364.834 364.834 0 0 1-7.234 3.062l-.594-1.594 3.203-1.203v-6.797h-2.984v-1.562h2.984v-4.969h1.547v4.969h2.86v1.562h-2.86v6.203zm7.672 5.828h5.047v1.562H208.22v-1.562h2.672v-12.969h1.609v12.969h3.234v-17.61h1.625v7.438h4.735v1.562h-4.735zm0 0" fill="#3E3A39"/><path d="M235.496 200.128a1.647 1.647 0 0 1-1.172.453c-.46 0-.851-.148-1.172-.453-.324-.312-.484-.707-.484-1.187 0-.489.16-.883.484-1.188.32-.312.711-.469 1.172-.469.457 0 .848.157 1.172.47.332.304.5.698.5 1.187 0 .48-.168.875-.5 1.187zm0 10.781a1.647 1.647 0 0 1-1.172.454c-.46 0-.851-.149-1.172-.454-.324-.312-.484-.71-.484-1.203 0-.5.16-.898.484-1.203.32-.312.711-.469 1.172-.469.457 0 .848.164 1.172.485.332.312.5.715.5 1.203 0 .48-.168.875-.5 1.187zm0 0" fill="#3E3A39"/><path d="M245.695 212.55l4.703-8.344-4.39-7.797h2.234l3.484 6.485 3.391-6.485h2.125l-4.39 7.907 4.703 8.234h-2.25l-3.766-6.953-3.703 6.953zm0 0" fill="#3E3A39"/><path d="M258.299 212.55l4.703-8.344-4.39-7.797h2.234l3.484 6.485 3.39-6.485h2.126l-4.39 7.907 4.702 8.234h-2.25l-3.765-6.953-3.703 6.953zm0 0" fill="#3E3A39"/><path d="M270.903 212.55l4.703-8.344-4.39-7.797h2.234l3.484 6.485 3.39-6.485h2.126l-4.391 7.907 4.703 8.234h-2.25l-3.766-6.953-3.703 6.953zm0 0" fill="#3E3A39"/><path d="M283.506 212.55l4.704-8.344-4.391-7.797h2.234l3.485 6.485 3.39-6.485h2.125l-4.39 7.907 4.703 8.234h-2.25l-3.766-6.953-3.703 6.953zm0 0" fill="#3E3A39"/><path d="M296.11 212.55l4.703-8.344-4.39-7.797h2.234l3.484 6.485 3.391-6.485h2.125l-4.39 7.907 4.703 8.234h-2.25l-3.766-6.953-3.703 6.953zm0 0" fill="#3E3A39"/><path d="M308.714 212.55l4.703-8.344-4.39-7.797h2.234l3.484 6.485 3.39-6.485h2.126l-4.39 7.907 4.702 8.234h-2.25l-3.765-6.953-3.703 6.953zm0 0" fill="#3E3A39"/><path d="M184.723 231.706v6.157l2.421-1.032.329 1.453c-1.375.649-3.606 1.657-6.688 3.032l-.64-1.625 3.03-1.203v-6.782h-2.609v-1.562h2.61v-5h1.547v5h2.359v1.562zm7.328 11.313h5.297c.632 0 1.046-.196 1.234-.594.207-.395.348-1.238.422-2.531l1.469.61c-.137 1.554-.403 2.605-.797 3.155-.399.551-1.153.829-2.266.829h-5.406c-1.262 0-2.121-.204-2.578-.61-.438-.398-.657-1.18-.657-2.36v-6.905l-1.734.718-.64-1.422 2.374-1v-5.984h1.563v5.313l2.953-1.235v-6.11h1.563v5.454l3.343-1.406 1.25.406-.093.266c-.305 4.386-.684 7.601-1.141 9.64l-1.344-.39c.32-1.758.602-4.438.844-8.032l-2.86 1.203v8.079h-1.562v-7.422l-2.953 1.265v7.578c0 .606.11 1.008.328 1.204.219.187.68.28 1.39.28zm0 0" fill="#3E3A39"/><path d="M210.969 237.41v1.265h2.593v-1.266zm.187 2.124l-1.203-1.203v-.578l1.203-1.203h2.25l1.203 1.203v.578l-1.203 1.203zm-2.61-3.937v4.89h7.485v-4.89zm-.062 5.922l-1.218-1.203V235.8l1.218-1.219h7.672l1.203 1.219v4.516l-1.203 1.203zm.86-12.344v1.453h5.906v-1.453zm3.593 3.438h5.985v1.03h-13.156v-1.03h5.796v-1h-2.375l-1.218-1.204v-.984l1.218-1.219h6.266l1.203 1.219v.984l-1.203 1.204h-2.516zm-8.203 10.078h15.188v-15.516h-15.188zm-1.515-15.72l1.218-1.187h15.829l1.218 1.188v17.984h-1.562v-.86h-15.188v.86h-1.515zm0 0" fill="#3E3A39"/><path d="M235.496 230.878a1.647 1.647 0 0 1-1.172.453c-.46 0-.851-.148-1.172-.453-.324-.312-.484-.707-.484-1.187 0-.489.16-.883.484-1.188.32-.312.711-.469 1.172-.469.457 0 .848.157 1.172.47.332.304.5.698.5 1.187 0 .48-.168.875-.5 1.187zm0 10.781a1.647 1.647 0 0 1-1.172.454c-.46 0-.851-.149-1.172-.454-.324-.312-.484-.71-.484-1.203 0-.5.16-.898.484-1.203.32-.312.711-.469 1.172-.469.457 0 .848.164 1.172.485.332.312.5.715.5 1.203 0 .48-.168.875-.5 1.187zm0 0" fill="#3E3A39"/><path d="M245.695 243.3l4.703-8.344-4.39-7.797h2.234l3.484 6.485 3.391-6.485h2.125l-4.39 7.907 4.703 8.234h-2.25l-3.766-6.953-3.703 6.953zm0 0" fill="#3E3A39"/><path d="M258.299 243.3l4.703-8.344-4.39-7.797h2.234l3.484 6.485 3.39-6.485h2.126l-4.39 7.907 4.702 8.234h-2.25l-3.765-6.953-3.703 6.953zm0 0" fill="#3E3A39"/><path d="M270.903 243.3l4.703-8.344-4.39-7.797h2.234l3.484 6.485 3.39-6.485h2.126l-4.391 7.907 4.703 8.234h-2.25l-3.766-6.953-3.703 6.953zm0 0" fill="#3E3A39"/><path d="M283.506 243.3l4.704-8.344-4.391-7.797h2.234l3.485 6.485 3.39-6.485h2.125l-4.39 7.907 4.703 8.234h-2.25l-3.766-6.953-3.703 6.953zm0 0" fill="#3E3A39"/><path d="M296.11 243.3l4.703-8.344-4.39-7.797h2.234l3.484 6.485 3.391-6.485h2.125l-4.39 7.907 4.703 8.234h-2.25l-3.766-6.953-3.703 6.953zm0 0" fill="#3E3A39"/><path d="M308.714 243.3l4.703-8.344-4.39-7.797h2.234l3.484 6.485 3.39-6.485h2.126l-4.39 7.907 4.702 8.234h-2.25l-3.765-6.953-3.703 6.953zm0 0" fill="#3E3A39"/><path d="M191.098 269.238v4.28c1.113.243 2.476.36 4.093.36 1.29.043 3.035.031 5.235-.031l-.594 1.61h-4.703c-2.586 0-4.711-.329-6.375-.985-1.68-.645-3.028-1.867-4.047-3.672-.824 2.21-1.93 3.867-3.313 4.984l-1.203-1.078c1.22-.937 2.141-2.218 2.766-3.843.644-1.625 1.066-3.38 1.266-5.266l1.671.219c-.136.93-.328 1.93-.578 3 .852 2.043 2.235 3.449 4.141 4.218V264.3h-8.672v-1.531h8.672v-3.016h-6.781v-1.515h6.781v-2.532h1.64v2.532h7.126v1.515h-7.125v3.016h8.765v1.531h-8.765v3.438h7.312v1.5zm0 0" fill="#3E3A39"/><path d="M219.812 257.94h-4.265v1.829h4.265zm-4.453 5.016h4.453v-1.906h-4.265zm4.453 1.282h-4.718c-.418 1.68-1.164 3.027-2.235 4.046l-1.297-.765c1.664-1.551 2.5-3.926 2.5-7.125v-2.61l1.22-1.203h4.859l1.203 1.203v9.032c0 .43-.055.757-.157.984-.093.219-.312.414-.656.578-.336.149-1.273.219-2.812.219l-.485-1.484c.657.03 1.39.046 2.203.046.25-.007.375-.132.375-.375zm-12.89-.438l.078-3.781h-4.578v-1.375h3.156c-.312-.727-.781-1.489-1.406-2.281l1.156-.532c.75.887 1.266 1.688 1.547 2.407l-.844.406h2.531l1.5-2.813 1.422.438-1.422 2.375h2.954v1.375h-4.532v3.781h2.375v-2.812h1.375v4.75h-1.375v-.594h-2.781c-.574 1.625-1.887 2.902-3.937 3.828l-1.016-1.125c1.687-.707 2.797-1.61 3.328-2.703H204.5l-1.219-1.219v-2.937h1.375v2.812zm6.172 9.75h9.156v1.453h-19.828v-1.453h9.031v-2.453h-6.766v-1.422h6.766v-1.36h1.64v1.36h6.876v1.422h-6.875zm0 0" fill="#3E3A39"/><path d="M229.621 258.644h-1.969c-.699 1.094-1.422 1.969-2.172 2.625l-1.172-1.078c1.458-1.196 2.586-2.758 3.391-4.688l1.453.39-.61 1.329h5.657v1.422h-4.125l2.11 2.015-1.079.938-2.28-2.313zm-1.328 12.719l1.172-.86c1.687 1.313 2.93 2.402 3.734 3.266l-1.203.969c-.918-1.02-2.152-2.145-3.703-3.375zm11.297-3.985v1.547h4.375v1.39h-4.375v3.72c0 .468-.078.812-.235 1.03-.125.22-.406.383-.843.5-.43.133-1.7.204-3.813.204l-.437-1.39c1.718.07 2.722.085 3.015.046.301-.031.485-.078.547-.14.07-.055.11-.153.11-.297v-3.672h-13.266v-1.391h13.265v-1.547zm-1.797-10.14h6.562v1.437h-4.843l2.046 2.156-1.125.938-2.078-2.375.97-.719h-2.157l-1.86 2.64-.187-.171v1.031h8.047v1.422h-8.047v1.969h6.812v1.312h-15.359v-1.312h6.89v-1.97h-7.984v-1.421h7.985V260.8h1.234l-.64-.453c1.218-1.207 2.128-2.82 2.734-4.844l1.515.36zm0 0" fill="#3E3A39"/><path d="M254.976 268.284l-1.28.5-.329-1.265c-2.406.367-3.98.633-4.719.797l-1.484.406-.5-1.531c.352-.063.894-.54 1.625-1.438.508-.57 1.125-1.398 1.844-2.484-1.742.219-2.774.398-3.094.531l-.531-1.5c.312-.07.672-.398 1.078-.984.426-.602.941-1.446 1.547-2.532a27.41 27.41 0 0 0 1.484-3.218l1.547.64c-1.012 2.168-2.14 4.11-3.39 5.828l2.312-.218 1.672-2.953 1.406.843c-1.617 2.805-3.266 5.164-4.953 7.078l3.781-.546-.812-2 1.171-.422c.832 1.68 1.375 3.168 1.625 4.468zm-7.406 1.407l1.313.25c-.23 2.03-.606 3.797-1.125 5.297l-1.25-.485c.425-1.113.78-2.8 1.062-5.062zm2.344.156l1.187-.234.594 4.375-1.25.28zm2.375-.422l1.172-.344 1.125 3.532-1.235.421zm11.594-5.016h-4.39c.538 2.086 1.257 3.868 2.155 5.344.989-1.582 1.735-3.363 2.235-5.344zm-1.703-6.171h-3.657a245.772 245.772 0 0 1-.172 4.703h3c.27-1.375.547-2.942.829-4.703zm2.546 4.609l1.016.375c-.574 3.074-1.617 5.73-3.125 7.969 1.094 1.398 2.383 2.422 3.875 3.078l-1.125 1.36c-1.406-.72-2.656-1.766-3.75-3.141-1.137 1.367-2.434 2.445-3.89 3.25l-1.032-1.22c1.5-.788 2.828-1.921 3.985-3.39-1.043-1.75-1.872-3.832-2.485-6.25-.219 2.344-.59 4.39-1.11 6.14-.5 1.731-1.218 3.255-2.155 4.579l-1.422-1.016c1.332-1.656 2.218-3.77 2.656-6.343.457-2.583.707-5.915.75-10h-2.156v-1.547l7.937.093 1.016 1.313a71.132 71.132 0 0 1-.813 4.844zm0 0" fill="#3E3A39"/><path d="M279.488 261.628a1.647 1.647 0 0 1-1.172.453c-.46 0-.851-.148-1.172-.453-.324-.312-.484-.707-.484-1.187 0-.489.16-.883.484-1.188.32-.312.711-.469 1.172-.469.457 0 .848.157 1.172.47.332.304.5.698.5 1.187 0 .48-.168.875-.5 1.187zm0 10.781a1.647 1.647 0 0 1-1.172.454c-.46 0-.851-.149-1.172-.454-.324-.312-.484-.71-.484-1.203 0-.5.16-.898.484-1.203.32-.312.711-.469 1.172-.469.457 0 .848.164 1.172.485.332.312.5.715.5 1.203 0 .48-.168.875-.5 1.187zm0 0" fill="#3E3A39"/><path d="M290.375 264.597h19.969v1.781h-19.97zm0 0" fill="#3E3A39"/><path d="M320.965 268.284l-1.282.5-.328-1.265c-2.406.367-3.98.633-4.718.797l-1.485.406-.5-1.531c.352-.063.895-.54 1.625-1.438.508-.57 1.125-1.398 1.844-2.484-1.742.219-2.773.398-3.094.531l-.531-1.5c.312-.07.672-.398 1.078-.984.426-.602.941-1.446 1.547-2.532a27.41 27.41 0 0 0 1.484-3.218l1.547.64c-1.012 2.168-2.14 4.11-3.39 5.828l2.312-.218 1.672-2.953 1.406.843c-1.617 2.805-3.265 5.164-4.953 7.078l3.781-.546-.812-2 1.172-.422c.832 1.68 1.375 3.168 1.625 4.468zm-7.407 1.407l1.313.25c-.23 2.03-.606 3.797-1.125 5.297l-1.25-.485c.426-1.113.781-2.8 1.062-5.062zm2.344.156l1.188-.234.593 4.375-1.25.28zm2.375-.422l1.172-.344 1.125 3.532-1.234.421zm11.594-5.016h-4.39c.538 2.086 1.257 3.868 2.156 5.344.988-1.582 1.734-3.363 2.234-5.344zm-1.703-6.171h-3.656a245.772 245.772 0 0 1-.172 4.703h3c.27-1.375.547-2.942.828-4.703zm2.547 4.609l1.015.375c-.574 3.074-1.617 5.73-3.125 7.969 1.094 1.398 2.383 2.422 3.875 3.078l-1.125 1.36c-1.406-.72-2.656-1.766-3.75-3.141-1.136 1.367-2.433 2.445-3.89 3.25l-1.032-1.22c1.5-.788 2.829-1.921 3.985-3.39-1.043-1.75-1.871-3.832-2.485-6.25-.218 2.344-.59 4.39-1.109 6.14-.5 1.731-1.219 3.255-2.156 4.579l-1.422-1.016c1.332-1.656 2.219-3.77 2.656-6.343.457-2.583.707-5.915.75-10h-2.156v-1.547l7.937.093 1.016 1.313a71.132 71.132 0 0 1-.812 4.844zm0 0" fill="#3E3A39"/><path d="M352.976 276.16c-2.918-2.958-4.375-6.446-4.375-10.47 0-4.019 1.457-7.507 4.375-10.468l1.313.672c-2.73 2.824-4.094 6.09-4.094 9.797 0 3.71 1.363 6.976 4.094 9.797zm0 0" fill="#3E3A39"/><path d="M373.097 259.347v-1.734h-7.28v1.734zm0 2.906v-1.75h-7.28v1.75zm.36-5.875l1.203 1.219v4.703l-1.203 1.219h-7.922l-1.219-1.219v-4.703l1.219-1.219zm-10.547 10.344l-2.422.812v6.157c0 .82-.25 1.351-.75 1.593-.437.22-1.344.32-2.719.313l-.484-1.531c.625.02 1.312.03 2.062.03.25 0 .375-.14.375-.421v-5.656l-2.546.812-.407-1.578 2.953-.86v-4.812h-2.703v-1.515h2.703v-4.391h1.516v4.39h2.422v1.516h-2.422v4.328l2.219-.687zm7.328 3.656v3.453c.633.086 1.719.125 3.25.125 1.54 0 2.563-.004 3.063-.015l-.485 1.453h-3.828c-1.762 0-3.183-.258-4.266-.766-1.085-.5-1.964-1.469-2.64-2.906-.586 1.637-1.461 2.973-2.625 4.016l-1.219-.985c1.813-1.426 2.899-3.848 3.266-7.265l1.5.187a20.003 20.003 0 0 1-.422 2.328c.562 1.7 1.515 2.836 2.86 3.406v-6.953h-5.36v-1.375h12.562v1.375h-5.656v2.578h4.547v1.344zm0 0" fill="#3E3A39"/><path d="M383.265 255.706l1.532.485a36.49 36.49 0 0 1-2.235 4.703v14.812h-1.61v-12.343a19.745 19.745 0 0 1-2.187 2.656l-.921-1.61c1.07-1.039 2.086-2.332 3.046-3.875.957-1.55 1.75-3.16 2.375-4.828zm4.672 14.407l1.563.484a18.987 18.987 0 0 1-4.188 5.078L384 274.659c1.664-1.27 2.976-2.785 3.937-4.546zm4.985.796l1.265-.734c.75.71 1.489 1.508 2.22 2.39.737.876 1.304 1.633 1.702 2.282l-1.39.922c-.356-.68-.899-1.469-1.625-2.375a26.998 26.998 0 0 0-2.172-2.485zm-3.828-9v5.36h4.28v-5.36zm5.875 5.36h3.375v1.61H384.14v-1.61h3.36v-5.36h-2.828v-1.593h2.828v-4.422h1.594v4.422h4.28v-4.438h1.595v4.438h3.125v1.593h-3.125zm0 0" fill="#3E3A39"/><path d="M411.058 269.238v4.28c1.114.243 2.477.36 4.094.36 1.29.043 3.035.031 5.235-.031l-.594 1.61h-4.703c-2.586 0-4.711-.329-6.375-.985-1.68-.645-3.028-1.867-4.047-3.672-.824 2.21-1.93 3.867-3.313 4.984l-1.203-1.078c1.219-.937 2.14-2.218 2.766-3.843.644-1.625 1.066-3.38 1.265-5.266l1.672.219c-.136.93-.328 1.93-.578 3 .852 2.043 2.235 3.449 4.14 4.218V264.3h-8.671v-1.531h8.672v-3.016h-6.781v-1.515h6.78v-2.532h1.641v2.532h7.125v1.515h-7.125v3.016h8.766v1.531h-8.766v3.438h7.313v1.5zm0 0" fill="#3E3A39"/><path d="M439.773 257.94h-4.265v1.829h4.265zm-4.453 5.016h4.453v-1.906h-4.265zm4.453 1.282h-4.718c-.418 1.68-1.165 3.027-2.235 4.046l-1.297-.765c1.664-1.551 2.5-3.926 2.5-7.125v-2.61l1.219-1.203h4.86l1.203 1.203v9.032c0 .43-.055.757-.157.984-.093.219-.312.414-.656.578-.336.149-1.273.219-2.812.219l-.485-1.484c.656.03 1.39.046 2.203.046.25-.007.375-.132.375-.375zm-12.89-.438l.078-3.781h-4.578v-1.375h3.156c-.313-.727-.781-1.489-1.406-2.281l1.156-.532c.75.887 1.266 1.688 1.547 2.407l-.844.406h2.531l1.5-2.813 1.422.438-1.422 2.375h2.953v1.375h-4.53v3.781h2.374v-2.812h1.375v4.75h-1.375v-.594h-2.781c-.574 1.625-1.887 2.902-3.938 3.828l-1.015-1.125c1.687-.707 2.797-1.61 3.328-2.703h-1.953l-1.219-1.219v-2.937h1.375v2.812zm6.172 9.75h9.156v1.453h-19.828v-1.453h9.03v-2.453h-6.765v-1.422h6.766v-1.36h1.64v1.36h6.876v1.422h-6.875zm0 0" fill="#3E3A39"/><path d="M448.394 255.769l1.485.422-1.563 4.218v15.329h-1.562v-12.22c-.617 1.095-1.246 2.04-1.89 2.829l-.86-1.64c.883-1.094 1.71-2.43 2.484-4.016a29.834 29.834 0 0 0 1.906-4.922zm5.782 15.297l-.313.25c.844.625 1.82 1.14 2.938 1.547 1.257-.477 2.304-1.079 3.14-1.797zm7.109-1.172l1.016.594c-.805 1.18-2.032 2.171-3.688 2.984 1.676.492 3.54.82 5.594 1l-.86 1.297c-2.437-.293-4.62-.797-6.546-1.516-1.856.656-4.102 1.164-6.735 1.531l-.844-1.234c2.125-.23 4.04-.586 5.75-1.078a12.777 12.777 0 0 1-2.234-1.406c-.543.355-1.297.765-2.266 1.234l-.968-.969c.894-.375 1.644-.75 2.25-1.125l-.828-.968 1.265-.485.656.75 1.86-1.594-.656-.421c-.125-.208-.188-.524-.188-.954v-1.265h1.375v1.265c0 .211.047.344.14.407.102.054.337.078.704.078h2.734c.258 0 .426-.051.5-.156.094-.114.156-.383.188-.813l1.125.375c-.063.617-.215 1.04-.453 1.266-.23.218-.633.328-1.204.328h-2.64l-.875.937zm-8.547-3.625l1.047.547c-.742 1.117-1.512 1.93-2.313 2.437l-.968-.765c.863-.489 1.61-1.227 2.234-2.22zm10.828 2.406l-.969.672-2.484-2.594.922-.562c1.082.855 1.926 1.683 2.531 2.484zm-10.156-5.094v.938h7.328v-.938zm7.328-3.61h-7.328v.938h7.328zm0 2.75v-.952h-7.328v.953zm1.531 1.798h.844l1.203 1.219v1.734h-1.469v-1.89h-6.046l1.953 1.406-.922.656-2.14-1.578.734-.485h-5.25v1.89h-1.422v-1.733l1.187-1.22h.969v-4.28l1.203-1.22h2.625l.281-1.14h-5.687v-1.25h13.64v1.25h-6.234l-.469 1.14h3.797l1.203 1.22zm0 0" fill="#3E3A39"/><path d="M476.984 265.894v1.687c.926 0 2.328-.015 4.203-.047a25.753 25.753 0 0 0-1.828-.89l1.016-.75zm-6.906-1.11h5.25v-1.453h-5.25zm0-3.937v1.437h5.25v-1.437zm12.312 0h-5.406v1.437h5.406zm0 3.937v-1.453h-5.406v1.453zm-15.312 4.297l-.078-1.453c1.406.012 4.18 0 8.328-.031v-1.703h-5.61l-1.203-1.219v-3.719l1.204-1.203h5.609v-1.406h-8.313v-1.344h8.313v-1.328h1.656v1.328h8.563v1.344h-8.563v1.406h5.813l1.203 1.203v3.719l-1.203 1.219h-2.25c.925.367 1.875.855 2.843 1.469.977.605 1.754 1.18 2.329 1.718l-1.125.938-1.454-1.235c-6.367.157-11.718.258-16.062.297zm11.906 2.485l-1.125.984c-.812-.844-2.023-1.676-3.625-2.5l1.031-.89c1.582.75 2.82 1.554 3.72 2.406zm-11.078 3.5l-1.422-.782c.77-.882 1.461-2.238 2.078-4.062l1.375.547c-.687 2-1.367 3.43-2.03 4.297zM473 273.94l6.125.109c.539 0 .89-.125 1.047-.375.164-.258.27-.867.312-1.828l1.453.578c-.117 1.219-.351 2.023-.703 2.422-.355.394-1.023.594-2 .594h-4.984c-1.242 0-2.074-.141-2.5-.422-.43-.262-.64-.797-.64-1.61v-3.093h1.609v3.078c0 .281.093.465.28.547zm8.828-3.22l1.39-.483c1.301 1.53 2.172 2.906 2.61 4.125l-1.469.53c-.46-1.238-1.304-2.628-2.531-4.171zm0 0" fill="#3E3A39"/><path d="M489.605 255.222c2.914 2.96 4.375 6.45 4.375 10.469 0 4.023-1.46 7.511-4.375 10.468l-1.312-.671c2.726-2.82 4.094-6.086 4.094-9.797 0-3.707-1.368-6.973-4.094-9.797zm0 0" fill="#3E3A39"/><path d="M180.3 335.55v-1.187c2.551-2.227 4.423-4.172 5.61-5.829 1.188-1.675 1.781-3.203 1.781-4.578 0-.968-.257-1.738-.765-2.312-.5-.582-1.235-.875-2.203-.875-1.188 0-2.305.625-3.344 1.875l-1.172-1.156c.719-.77 1.445-1.352 2.187-1.75.75-.415 1.602-.625 2.563-.625 1.437 0 2.578.433 3.422 1.296.844.868 1.265 2.043 1.265 3.532 0 1.48-.543 3.03-1.625 4.656-1.074 1.625-2.636 3.418-4.687 5.375l2.64-.156h4.47v1.734zm0 0" fill="#3E3A39"/><path d="M195.634 335.41a1.426 1.426 0 0 1-1.047.421c-.407 0-.75-.14-1.032-.422-.273-.289-.406-.656-.406-1.093 0-.446.133-.817.406-1.11a1.36 1.36 0 0 1 1.032-.453c.414 0 .765.152 1.047.453.28.293.421.664.421 1.11 0 .437-.14.804-.421 1.093zm0 0" fill="#3E3A39"/><path d="M202.957 335.55l4.703-8.344-4.39-7.797h2.234l3.484 6.485 3.39-6.485h2.126l-4.39 7.907 4.702 8.234h-2.25l-3.765-6.953-3.704 6.953zm0 0" fill="#3E3A39"/><path d="M215.56 335.55l4.704-8.344-4.39-7.797h2.233l3.485 6.485 3.39-6.485h2.125l-4.39 7.907 4.703 8.234h-2.25l-3.766-6.953-3.703 6.953zm0 0" fill="#3E3A39"/><path d="M228.164 335.55l4.703-8.344-4.39-7.797h2.234l3.485 6.485 3.39-6.485h2.125l-4.39 7.907 4.703 8.234h-2.25l-3.766-6.953-3.703 6.953zm0 0" fill="#3E3A39"/><path d="M240.768 335.55l4.703-8.344-4.39-7.797h2.234l3.484 6.485 3.391-6.485h2.125l-4.39 7.907 4.702 8.234h-2.25l-3.765-6.953-3.703 6.953zm0 0" fill="#3E3A39"/><path d="M253.372 335.55l4.703-8.344-4.39-7.797h2.234l3.484 6.485 3.39-6.485h2.126l-4.39 7.907 4.702 8.234h-2.25l-3.765-6.953-3.704 6.953zm0 0" fill="#3E3A39"/><path d="M184.723 354.706v6.157l2.421-1.032.329 1.453c-1.375.649-3.606 1.657-6.688 3.032l-.64-1.625 3.03-1.203v-6.782h-2.609v-1.562h2.61v-5h1.547v5h2.359v1.562zm7.328 11.313h5.297c.632 0 1.046-.196 1.234-.594.207-.395.348-1.238.422-2.531l1.469.61c-.137 1.554-.403 2.605-.797 3.155-.399.551-1.153.829-2.266.829h-5.406c-1.262 0-2.121-.204-2.578-.61-.438-.398-.657-1.18-.657-2.36v-6.905l-1.734.718-.64-1.422 2.374-1v-5.984h1.563v5.313l2.953-1.235v-6.11h1.563v5.454l3.343-1.406 1.25.406-.093.266c-.305 4.386-.684 7.601-1.141 9.64l-1.344-.39c.32-1.758.602-4.438.844-8.032l-2.86 1.203v8.079h-1.562v-7.422l-2.953 1.265v7.578c0 .606.11 1.008.328 1.204.219.187.68.28 1.39.28zm0 0" fill="#3E3A39"/><path d="M209.687 359.816l.313 1.422a364.834 364.834 0 0 1-7.234 3.062l-.594-1.594 3.203-1.203v-6.797h-2.984v-1.562h2.984v-4.969h1.547v4.969h2.86v1.562h-2.86v6.203zm7.672 5.828h5.047v1.562H208.22v-1.562h2.672v-12.969h1.609v12.969h3.234v-17.61h1.625v7.438h4.735v1.562h-4.735zm0 0" fill="#3E3A39"/><path d="M235.496 353.878a1.647 1.647 0 0 1-1.172.453c-.46 0-.851-.148-1.172-.453-.324-.312-.484-.707-.484-1.187 0-.489.16-.883.484-1.188.32-.312.711-.469 1.172-.469.457 0 .848.157 1.172.47.332.304.5.698.5 1.187 0 .48-.168.875-.5 1.187zm0 10.781a1.647 1.647 0 0 1-1.172.454c-.46 0-.851-.149-1.172-.454-.324-.312-.484-.71-.484-1.203 0-.5.16-.898.484-1.203.32-.312.711-.469 1.172-.469.457 0 .848.164 1.172.485.332.312.5.715.5 1.203 0 .48-.168.875-.5 1.187zm0 0" fill="#3E3A39"/><path d="M245.695 366.3l4.703-8.344-4.39-7.797h2.234l3.484 6.485 3.391-6.485h2.125l-4.39 7.907 4.703 8.234h-2.25l-3.766-6.953-3.703 6.953zm0 0" fill="#3E3A39"/><path d="M258.299 366.3l4.703-8.344-4.39-7.797h2.234l3.484 6.485 3.39-6.485h2.126l-4.39 7.907 4.702 8.234h-2.25l-3.765-6.953-3.703 6.953zm0 0" fill="#3E3A39"/><path d="M270.903 366.3l4.703-8.344-4.39-7.797h2.234l3.484 6.485 3.39-6.485h2.126l-4.391 7.907 4.703 8.234h-2.25l-3.766-6.953-3.703 6.953zm0 0" fill="#3E3A39"/><path d="M283.506 366.3l4.704-8.344-4.391-7.797h2.234l3.485 6.485 3.39-6.485h2.125l-4.39 7.907 4.703 8.234h-2.25l-3.766-6.953-3.703 6.953zm0 0" fill="#3E3A39"/><path d="M296.11 366.3l4.703-8.344-4.39-7.797h2.234l3.484 6.485 3.391-6.485h2.125l-4.39 7.907 4.703 8.234h-2.25l-3.766-6.953-3.703 6.953zm0 0" fill="#3E3A39"/><path d="M308.714 366.3l4.703-8.344-4.39-7.797h2.234l3.484 6.485 3.39-6.485h2.126l-4.39 7.907 4.702 8.234h-2.25l-3.765-6.953-3.703 6.953zm0 0" fill="#3E3A39"/><path d="M184.723 385.456v6.156l2.421-1.03.329 1.452c-1.375.649-3.606 1.657-6.688 3.032l-.64-1.625 3.03-1.203v-6.782h-2.609v-1.562h2.61v-5h1.547v5h2.359v1.562zm7.328 11.313h5.297c.632 0 1.046-.196 1.234-.594.207-.395.348-1.238.422-2.531l1.469.61c-.137 1.554-.403 2.605-.797 3.155-.399.551-1.153.829-2.266.829h-5.406c-1.262 0-2.121-.204-2.578-.61-.438-.398-.657-1.18-.657-2.36v-6.905l-1.734.718-.64-1.422 2.374-1v-5.984h1.563v5.313l2.953-1.235v-6.11h1.563v5.454l3.343-1.406 1.25.406-.093.266c-.305 4.386-.684 7.601-1.141 9.64l-1.344-.39c.32-1.758.602-4.438.844-8.032l-2.86 1.203v8.079h-1.562v-7.422l-2.953 1.265v7.578c0 .606.11 1.008.328 1.204.219.187.68.28 1.39.28zm0 0" fill="#3E3A39"/><path d="M210.969 391.16v1.265h2.593v-1.266zm.187 2.124l-1.203-1.203v-.578l1.203-1.203h2.25l1.203 1.203v.578l-1.203 1.203zm-2.61-3.937v4.89h7.485v-4.89zm-.062 5.922l-1.218-1.203v-4.516l1.218-1.219h7.672l1.203 1.219v4.516l-1.203 1.203zm.86-12.344v1.453h5.906v-1.453zm3.593 3.438h5.985v1.03h-13.156v-1.03h5.796v-1h-2.375l-1.218-1.204v-.984l1.218-1.219h6.266l1.203 1.219v.984l-1.203 1.204h-2.516zm-8.203 10.078h15.188v-15.516h-15.188zm-1.515-15.72l1.218-1.187h15.829l1.218 1.188v17.984h-1.562v-.86h-15.188v.86h-1.515zm0 0" fill="#3E3A39"/><path d="M235.496 384.628a1.647 1.647 0 0 1-1.172.453c-.46 0-.851-.148-1.172-.453-.324-.312-.484-.707-.484-1.187 0-.489.16-.883.484-1.188.32-.312.711-.469 1.172-.469.457 0 .848.157 1.172.47.332.304.5.698.5 1.187 0 .48-.168.875-.5 1.187zm0 10.781a1.647 1.647 0 0 1-1.172.454c-.46 0-.851-.149-1.172-.454-.324-.312-.484-.71-.484-1.203 0-.5.16-.898.484-1.203.32-.312.711-.469 1.172-.469.457 0 .848.164 1.172.485.332.312.5.715.5 1.203 0 .48-.168.875-.5 1.187zm0 0" fill="#3E3A39"/><path d="M245.695 397.05l4.703-8.344-4.39-7.797h2.234l3.484 6.485 3.391-6.485h2.125l-4.39 7.907 4.703 8.234h-2.25l-3.766-6.953-3.703 6.953zm0 0" fill="#3E3A39"/><path d="M258.299 397.05l4.703-8.344-4.39-7.797h2.234l3.484 6.485 3.39-6.485h2.126l-4.39 7.907 4.702 8.234h-2.25l-3.765-6.953-3.703 6.953zm0 0" fill="#3E3A39"/><path d="M270.903 397.05l4.703-8.344-4.39-7.797h2.234l3.484 6.485 3.39-6.485h2.126l-4.391 7.907 4.703 8.234h-2.25l-3.766-6.953-3.703 6.953zm0 0" fill="#3E3A39"/><path d="M283.506 397.05l4.704-8.344-4.391-7.797h2.234l3.485 6.485 3.39-6.485h2.125l-4.39 7.907 4.703 8.234h-2.25l-3.766-6.953-3.703 6.953zm0 0" fill="#3E3A39"/><path d="M296.11 397.05l4.703-8.344-4.39-7.797h2.234l3.484 6.485 3.391-6.485h2.125l-4.39 7.907 4.703 8.234h-2.25l-3.766-6.953-3.703 6.953zm0 0" fill="#3E3A39"/><path d="M308.714 397.05l4.703-8.344-4.39-7.797h2.234l3.484 6.485 3.39-6.485h2.126l-4.39 7.907 4.702 8.234h-2.25l-3.765-6.953-3.703 6.953zm0 0" fill="#3E3A39"/><path d="M191.098 422.987v4.282c1.113.242 2.476.36 4.093.36 1.29.042 3.035.03 5.235-.032l-.594 1.61h-4.703c-2.586 0-4.711-.329-6.375-.985-1.68-.645-3.028-1.867-4.047-3.672-.824 2.21-1.93 3.867-3.313 4.984l-1.203-1.078c1.22-.937 2.141-2.219 2.766-3.844.644-1.625 1.066-3.378 1.266-5.265l1.671.219c-.136.93-.328 1.93-.578 3 .852 2.043 2.235 3.449 4.141 4.218v-8.734h-8.672v-1.531h8.672v-3.016h-6.781v-1.516h6.781v-2.53h1.64v2.53h7.126v1.516h-7.125v3.016h8.765v1.531h-8.765v3.437h7.312v1.5zm0 0" fill="#3E3A39"/><path d="M219.812 411.69h-4.265v1.829h4.265zm-4.453 5.016h4.453V414.8h-4.265zm4.453 1.281h-4.718c-.418 1.68-1.164 3.028-2.235 4.047l-1.297-.765c1.664-1.551 2.5-3.926 2.5-7.125v-2.61l1.22-1.203h4.859l1.203 1.203v9.032c0 .43-.055.757-.157.984-.093.219-.312.414-.656.578-.336.149-1.273.219-2.812.219l-.485-1.485c.657.032 1.39.047 2.203.047.25-.007.375-.132.375-.375zm-12.89-.437l.078-3.781h-4.578v-1.375h3.156c-.312-.727-.781-1.489-1.406-2.282l1.156-.53c.75.886 1.266 1.687 1.547 2.405l-.844.407h2.531l1.5-2.813 1.422.438-1.422 2.375h2.954v1.375h-4.532v3.781h2.375v-2.813h1.375v4.75h-1.375v-.593h-2.781c-.574 1.625-1.887 2.902-3.937 3.828l-1.016-1.125c1.687-.707 2.797-1.61 3.328-2.703H204.5l-1.219-1.219v-2.938h1.375v2.813zm6.172 9.75h9.156v1.453h-19.828V427.3h9.031v-2.453h-6.766v-1.422h6.766v-1.36h1.64v1.36h6.876v1.422h-6.875zm0 0" fill="#3E3A39"/><path d="M229.621 412.394h-1.969c-.699 1.093-1.422 1.968-2.172 2.625l-1.172-1.078c1.458-1.196 2.586-2.758 3.391-4.688l1.453.39-.61 1.329h5.657v1.422h-4.125l2.11 2.015-1.079.938-2.28-2.313zm-1.328 12.718l1.172-.859c1.687 1.313 2.93 2.402 3.734 3.266l-1.203.968c-.918-1.019-2.152-2.144-3.703-3.375zm11.297-3.984v1.547h4.375v1.39h-4.375v3.72c0 .468-.078.812-.235 1.03-.125.22-.406.383-.843.5-.43.133-1.7.204-3.813.204l-.437-1.39c1.718.07 2.722.085 3.015.046.301-.031.485-.078.547-.14.07-.055.11-.153.11-.298v-3.671h-13.266v-1.391h13.265v-1.547zm-1.797-10.14h6.562v1.437h-4.843l2.046 2.156-1.125.938-2.078-2.375.97-.719h-2.157l-1.86 2.64-.187-.171v1.031h8.047v1.422h-8.047v1.969h6.812v1.312h-15.359v-1.312h6.89v-1.97h-7.984v-1.421h7.985v-1.375h1.234l-.64-.453c1.218-1.207 2.128-2.82 2.734-4.844l1.515.36zm0 0" fill="#3E3A39"/><path d="M254.976 422.034l-1.28.5-.329-1.265c-2.406.367-3.98.633-4.719.797l-1.484.406-.5-1.531c.352-.063.894-.54 1.625-1.438.508-.57 1.125-1.398 1.844-2.484-1.742.218-2.774.398-3.094.531l-.531-1.5c.312-.07.672-.398 1.078-.984.426-.602.941-1.446 1.547-2.532a27.41 27.41 0 0 0 1.484-3.218l1.547.64c-1.012 2.168-2.14 4.11-3.39 5.828l2.312-.218 1.672-2.954 1.406.844c-1.617 2.805-3.266 5.164-4.953 7.078l3.781-.547-.812-2 1.171-.421c.832 1.68 1.375 3.168 1.625 4.468zm-7.406 1.407l1.313.25c-.23 2.03-.606 3.796-1.125 5.296l-1.25-.484c.425-1.113.78-2.8 1.062-5.062zm2.344.156l1.187-.235.594 4.375-1.25.282zm2.375-.422l1.172-.344 1.125 3.531-1.235.422zm11.594-5.016h-4.39c.538 2.086 1.257 3.868 2.155 5.344.989-1.582 1.735-3.363 2.235-5.344zm-1.703-6.172h-3.657a245.772 245.772 0 0 1-.172 4.704h3c.27-1.375.547-2.942.829-4.704zm2.546 4.61l1.016.375c-.574 3.074-1.617 5.73-3.125 7.969 1.094 1.398 2.383 2.421 3.875 3.078l-1.125 1.36c-1.406-.72-2.656-1.767-3.75-3.142-1.137 1.368-2.434 2.446-3.89 3.25l-1.032-1.218c1.5-.79 2.828-1.922 3.985-3.39-1.043-1.75-1.872-3.833-2.485-6.25-.219 2.343-.59 4.39-1.11 6.14-.5 1.73-1.218 3.254-2.155 4.578l-1.422-1.016c1.332-1.656 2.218-3.77 2.656-6.344.457-2.582.707-5.914.75-10h-2.156v-1.546l7.937.093 1.016 1.313a71.132 71.132 0 0 1-.813 4.844zm0 0" fill="#3E3A39"/><path d="M279.488 415.378a1.647 1.647 0 0 1-1.172.453c-.46 0-.851-.148-1.172-.453-.324-.312-.484-.707-.484-1.187 0-.489.16-.883.484-1.188.32-.312.711-.469 1.172-.469.457 0 .848.157 1.172.47.332.304.5.698.5 1.187 0 .48-.168.875-.5 1.187zm0 10.781a1.647 1.647 0 0 1-1.172.453c-.46 0-.851-.148-1.172-.453-.324-.312-.484-.71-.484-1.203 0-.5.16-.898.484-1.203.32-.312.711-.469 1.172-.469.457 0 .848.164 1.172.485.332.312.5.715.5 1.203 0 .48-.168.875-.5 1.187zm0 0" fill="#3E3A39"/><path d="M292.484 412.55h15.688v1.734h-15.688zm-1.86 12.969h19.391v1.781h-19.39zm0 0" fill="#3E3A39"/><path d="M320.965 422.034l-1.282.5-.328-1.265c-2.406.367-3.98.633-4.718.797l-1.485.406-.5-1.531c.352-.063.895-.54 1.625-1.438.508-.57 1.125-1.398 1.844-2.484-1.742.218-2.773.398-3.094.531l-.531-1.5c.312-.07.672-.398 1.078-.984.426-.602.941-1.446 1.547-2.532a27.41 27.41 0 0 0 1.484-3.218l1.547.64c-1.012 2.168-2.14 4.11-3.39 5.828l2.312-.218 1.672-2.954 1.406.844c-1.617 2.805-3.265 5.164-4.953 7.078l3.781-.547-.812-2 1.172-.421c.832 1.68 1.375 3.168 1.625 4.468zm-7.407 1.407l1.313.25c-.23 2.03-.606 3.796-1.125 5.296l-1.25-.484c.426-1.113.781-2.8 1.062-5.062zm2.344.156l1.188-.235.593 4.375-1.25.282zm2.375-.422l1.172-.344 1.125 3.531-1.234.422zm11.594-5.016h-4.39c.538 2.086 1.257 3.868 2.156 5.344.988-1.582 1.734-3.363 2.234-5.344zm-1.703-6.172h-3.656a245.772 245.772 0 0 1-.172 4.704h3c.27-1.375.547-2.942.828-4.704zm2.547 4.61l1.015.375c-.574 3.074-1.617 5.73-3.125 7.969 1.094 1.398 2.383 2.421 3.875 3.078l-1.125 1.36c-1.406-.72-2.656-1.767-3.75-3.142-1.136 1.368-2.433 2.446-3.89 3.25l-1.032-1.218c1.5-.79 2.829-1.922 3.985-3.39-1.043-1.75-1.871-3.833-2.485-6.25-.218 2.343-.59 4.39-1.109 6.14-.5 1.73-1.219 3.254-2.156 4.578l-1.422-1.016c1.332-1.656 2.219-3.77 2.656-6.344.457-2.582.707-5.914.75-10h-2.156v-1.546l7.937.093 1.016 1.313a71.132 71.132 0 0 1-.812 4.844zm0 0" fill="#3E3A39"/><path d="M352.976 429.91c-2.918-2.958-4.375-6.446-4.375-10.47 0-4.019 1.457-7.507 4.375-10.468l1.313.672c-2.73 2.824-4.094 6.09-4.094 9.797 0 3.71 1.363 6.976 4.094 9.796zm0 0" fill="#3E3A39"/><path d="M374.707 414.253h-4.953c-.512 2.106-1.149 3.805-1.907 5.094l-1.312-.938c1.219-1.945 2.07-4.96 2.562-9.047l1.516.266-.5 3.11 5.297-.079.984.36c-.523 2.449-1.047 4.336-1.578 5.656l-1.219-.422zm-10.172-2.234v1.328h-1.453v-3.953h1.453v1.375h3.156v1.25zm1.11 4.625v-1.89h-2.048v1.89zm-.11-2.875l1.203 1.203v1.453l-1.203 1.219h-1.813l-1.203-1.219v-1.453l1.203-1.203zm-6.234-.438v-1.312h-3.125v-1.25h3.125v-1.375h1.437v3.937zm-1.125 1.422v1.922h2.03v-1.922zm.14 2.906l-1.219-1.218v-1.47l1.22-1.202h1.796l1.219 1.203v1.469l-1.219 1.218zm3.875 4.313v-1.328h-2.797v1.328zm0 2.484v-1.36h-2.797v1.36zm0 2.688v-1.547h-2.797v1.547zm4.547 1.187h-7.344v1.156h-1.297v-7.406l-1.218 1.422-.813-1.078c1.32-1.3 2.336-2.852 3.047-4.656l1.188.343-.594 1.344h2.703l-.688-1.156 1.11-.469c.445.606.758 1.149.937 1.625h3.078v1.188h-3.28v1.328h2.843v1.125h-2.844v1.36h2.969v1.14h-2.969v1.547h3.172zm5.375-13.219v1.25c0 .875-.031 1.72-.094 2.532.79 4.761 2.317 7.875 4.578 9.343l-1.078 1.344c-1.761-1.304-3.105-3.656-4.03-7.062-.65 2.773-1.872 5.12-3.673 7.047l-1.187-1.079c1.77-1.863 2.906-3.984 3.406-6.359.25-1.144.41-2.133.484-2.969.07-.843.11-1.785.11-2.828v-1.219zm0 0" fill="#3E3A39"/><path d="M392.515 412.472v14.234H391v-14.484l1.219-1.188h4.109l1.203 1.22v9.89c0 .761-.242 1.25-.719 1.468-.386.18-1.297.266-2.734.266l-.516-1.406c1.114.031 1.801.043 2.063.031.258-.02.39-.144.39-.375v-9.656zm-5.671 9.469l3.484-1.079.11 1.438c-3.231 1.117-5.016 1.805-5.36 2.062l-.672-1.312c.602-.344.906-.863.906-1.563v-8.75l1.297-1.718c.977-.352 1.992-.91 3.047-1.672l1.172 1.187-3.984 1.828zm-3.547-9.141l-1.266.875-2.75-3.5 1.188-.75zm-.11 7.031l.813.313c-.305 1.836-.762 3.449-1.375 4.843.656 1.094 1.629 1.829 2.922 2.204 1.289.343 3.187.515 5.687.515 2.508 0 4.969-.094 7.375-.281l-.515 1.562c-2.211.114-4.57.172-7.079.172-2.5 0-4.433-.199-5.796-.593-1.356-.399-2.434-1.172-3.235-2.329-.781 1.368-1.773 2.461-2.969 3.297l-1.078-1.125c2.207-1.406 3.672-3.8 4.39-7.187h-2.28c-.649 0-1.075.105-1.282.312l-.593-1.5c.414-.113.77-.316 1.062-.609.477-.531 1.348-1.734 2.61-3.61h-3.375v-1.343h4.343l.266-.11 1.078.485c-1.273 1.918-2.496 3.594-3.672 5.031zm0 0" fill="#3E3A39"/><path d="M404.574 426.737h11.719v-3.25h-11.719zm11.719-7.984h-11.719v3.188h11.719zm0-4.812h-11.719v3.28h11.719zm-6.203-1.563h6.687l1.219 1.203v15.828h-1.703v-1.125h-11.719v1.235h-1.625v-15.953l1.203-1.188h4.313l.859-3.016 1.875.25zm0 0" fill="#3E3A39"/><path d="M426.476 409.394l1.5.437a52.554 52.554 0 0 1-1.687 4.5v15.125h-1.594V417.41c-.5.868-1.078 1.727-1.734 2.578l-.875-1.671c1.844-2.258 3.304-5.235 4.39-8.922zm6.735 3.75v2.14h3.672v-2.14zm6.234 8.61v-1.845h-3.437v1.844zm-3.437 3.171h3.437v-1.922h-3.437zm-5.11 0h3.61v-1.922h-3.5zm.11-5.016v1.844h3.5v-1.844zm11-3.109h-9.36l-1.281 1.719h8.422l1.219 1.203v8.094c0 .675-.196 1.109-.578 1.296-.387.196-1.149.297-2.282.297l-.468-1.328h1.421c.227 0 .344-.094.344-.281v-1.625h-3.437v2.797h-1.5v-2.797h-3.782c-.312 1.418-.796 2.547-1.453 3.39l-1.297-1c.97-1.257 1.454-3.206 1.454-5.843v-2.36c-.47.387-1.102.836-1.891 1.344l-.969-1.297c1.8-.957 3.242-2.16 4.328-3.609h-3.187v-1.516h3.937v-2.14h-3.312v-1.485h3.312v-2.156h1.563v2.156h3.672v-2.156h1.593v2.156h2.97v1.485h-2.97v2.14h3.532zm0 0" fill="#3E3A39"/><path d="M455.16 413.128l.922-.906a35.1 35.1 0 0 1 3.047 1.547c.894-.719 1.562-1.461 2-2.235h-5.938v-1.203l6.953-.062.922.422c-.543 1.437-1.445 2.703-2.703 3.796 1.313.825 2.274 1.516 2.89 2.079l-1.03 1.046c-.72-.695-1.727-1.437-3.016-2.218-.938.605-1.867 1.07-2.781 1.39l-.844-1.172a9.059 9.059 0 0 0 2.328-1.03 40.434 40.434 0 0 0-2.75-1.454zm-3.453.484h-3.828l-.75.797c.695.344 1.43.82 2.203 1.422.969-.644 1.758-1.383 2.375-2.219zm1.062-1.109l.922.531c-.73 1.43-1.851 2.664-3.36 3.703a18.607 18.607 0 0 1-4.937 2.375l-.812-1.109c1.187-.289 2.422-.781 3.703-1.469l-2.016-1.39-1.109.797-.922-.86c1.52-.863 2.645-1.926 3.375-3.187l1.344.218-.281.47h.421v-3.188h1.407v1.047h3.797v1.093h-3.797v1.047zm8.563 11.938l1.203.734a25.636 25.636 0 0 1-2.469 1.906c1.25.48 2.27.914 3.063 1.313l-.813 1.062c-.906-.5-2.164-1.07-3.765-1.703a55.913 55.913 0 0 0-4.5-1.625l.765-.906a61.58 61.58 0 0 1 4.016 1.375c.988-.77 1.82-1.488 2.5-2.156zm-11.953-4.25h10.297l-2.657-1.282v.532h-5.25l.032-.547zm.687 4h8.64v-1.125h-8.64zm8.64-1.907v-1.078h-8.64v1.078zm-6.327-3.797h3.906a17.592 17.592 0 0 1-2.094-1.406c-.5.461-1.105.93-1.812 1.406zm1.906-3.421l1.281.64-.515.547c1.082.824 2.507 1.617 4.28 2.375 1.782.762 3.493 1.324 5.141 1.688l-.953 1.234-3.25-1.125v3.547l-1.203 1.203h-9v2.453l4.813-.703v1.266c-3.93.601-6.102 1-6.516 1.187l-.562-1.203c.445-.281.671-.734.671-1.36v-6.203c-1.054.45-2.148.844-3.28 1.188l-.923-1.266a26.254 26.254 0 0 0 5.813-2.218c1.82-.97 3.223-2.051 4.203-3.25zm0 0" fill="#3E3A39"/><path d="M471.547 421.175v1.984h9.687v-1.984zm9.687-9.375h-9.687v1.875h9.687zm0 6.234h-9.687v1.891h9.687zm0-1.25v-1.859h-9.687v1.86zm4.875 6.375v1.5h-19.625v-1.5h3.5v-11.5l1.219-1.218h10.453l1.203 1.218v11.5zm-13.594 1.672l1.547.985c-1.793 1.398-4 2.617-6.625 3.671l-1.187-1.203a28.053 28.053 0 0 0 3.515-1.625c1.188-.644 2.102-1.254 2.75-1.828zm6.079 1.063l1.03-1.125c2.614 1.168 4.86 2.336 6.735 3.5l-1.297 1.218c-1.718-1.187-3.875-2.382-6.468-3.593zm0 0" fill="#3E3A39"/><path d="M487.512 431.737l6.609-21.406h1.453l-6.578 21.406zm0 0" fill="#3E3A39"/><path d="M192.77 458.16h3.921v-3.423h-3.922zm-4.985 0v-3.423h-3.75v3.422zm-.266-12.344v-3.344h-3.921v3.344zm5.438-3.344v3.344h4.078v-3.344zm7.36 11.64l-1.141.97-.985-.845v5.829h-1.5v-.563h-3.922v.703h-1.453v-5.594l1.22-1.203h4.5a33.64 33.64 0 0 0-4.829-2.78h-4.188c-.949 1.03-2.078 1.96-3.39 2.78h3.453l1.219 1.203v5.454h-1.516v-.563h-3.75v.703h-1.453v-5.656l-1.625.703-.922-1.187c2.375-.883 4.348-2.032 5.922-3.438h-5.438v-1.406h6.782l1.406-2.063h-5.344l-1.219-1.218v-3.61l1.22-1.203h4.452l1.22 1.203v4.422l1.5.297-1.329 2.172h6.297l-2.64-1.313.702-.75h-.843l-1.204-1.218v-3.61l1.204-1.203h4.609l1.203 1.203v3.61l-1.203 1.218h-3.406c1.281.5 2.242 1.008 2.89 1.516l-.5.547h3.844v1.406h-5.14c2.374 1.262 4.14 2.422 5.296 3.484zm0 0" fill="#3E3A39"/><path d="M206.078 444.097v13.11h3.14v-13.11zm7.86 0h-3.157v13.11h3.156zm4.765 0H215.5v13.11h3.203zm1.64 13.11h2.063v1.655h-20.11v-1.656h2.204v-13.531l1.203-1.203h13.422l1.219 1.203zm0 0" fill="#3E3A39"/><path d="M225.652 439.722c2.914 2.96 4.375 6.45 4.375 10.469 0 4.023-1.46 7.511-4.375 10.468l-1.312-.672c2.726-2.82 4.093-6.085 4.093-9.796 0-3.707-1.367-6.973-4.093-9.797zm0 0" fill="#3E3A39"/><path d="M185.144 520.331c-2.105 0-3.828-.726-5.171-2.187l1.015-1.328c1.164 1.23 2.5 1.843 4 1.843.969 0 1.754-.27 2.36-.812.613-.54.921-1.274.921-2.203 0-2.133-1.671-3.203-5.015-3.203v-1.547c2.969 0 4.453-1.024 4.453-3.078 0-.77-.246-1.383-.734-1.844-.493-.469-1.153-.703-1.985-.703-1.219 0-2.336.523-3.344 1.562l-1.078-1.281c1.395-1.29 2.895-1.938 4.5-1.938 1.383 0 2.508.372 3.375 1.11.875.719 1.313 1.7 1.313 2.937 0 .938-.258 1.743-.766 2.407-.512.656-1.21 1.156-2.094 1.5 1 .293 1.817.796 2.454 1.515.644.719.968 1.606.968 2.656 0 1.407-.496 2.528-1.484 3.36-.98.824-2.211 1.234-3.688 1.234zm0 0" fill="#3E3A39"/><path d="M195.634 519.91a1.426 1.426 0 0 1-1.047.421c-.407 0-.75-.14-1.032-.422-.273-.289-.406-.656-.406-1.093 0-.446.133-.817.406-1.11a1.36 1.36 0 0 1 1.032-.453c.414 0 .765.152 1.047.453.28.293.421.664.421 1.11 0 .437-.14.804-.421 1.093zm0 0" fill="#3E3A39"/><path d="M202.95 520.05l4.704-8.344-4.391-7.797h2.234l3.485 6.485 3.39-6.485h2.125l-4.39 7.907 4.703 8.234h-2.25l-3.766-6.953-3.703 6.953zm0 0" fill="#3E3A39"/><path d="M215.554 520.05l4.703-8.344-4.39-7.797h2.234l3.484 6.485 3.391-6.485h2.125l-4.39 7.907 4.703 8.234h-2.25l-3.766-6.953-3.703 6.953zm0 0" fill="#3E3A39"/><path d="M228.158 520.05l4.703-8.344-4.39-7.797h2.234l3.484 6.485 3.39-6.485h2.126l-4.39 7.907 4.702 8.234h-2.25l-3.765-6.953-3.703 6.953zm0 0" fill="#3E3A39"/><path d="M240.762 520.05l4.703-8.344-4.39-7.797h2.234l3.484 6.485 3.39-6.485h2.126l-4.391 7.907 4.703 8.234h-2.25l-3.765-6.953-3.704 6.953zm0 0" fill="#3E3A39"/><path d="M253.366 520.05l4.703-8.344-4.391-7.797h2.234l3.485 6.485 3.39-6.485h2.125l-4.39 7.907 4.703 8.234h-2.25l-3.766-6.953-3.703 6.953zm0 0" fill="#3E3A39"/><path d="M184.723 539.206v6.156l2.421-1.03.329 1.452c-1.375.649-3.606 1.657-6.688 3.032l-.64-1.625 3.03-1.204v-6.78h-2.609v-1.563h2.61v-5h1.547v5h2.359v1.562zm7.328 11.313h5.297c.632 0 1.046-.196 1.234-.594.207-.395.348-1.238.422-2.531l1.469.61c-.137 1.554-.403 2.605-.797 3.155-.399.551-1.153.828-2.266.828h-5.406c-1.262 0-2.121-.203-2.578-.609-.438-.398-.657-1.18-.657-2.36v-6.906l-1.734.72-.64-1.423 2.374-1v-5.984h1.563v5.312l2.953-1.234v-6.11h1.563v5.454l3.343-1.406 1.25.406-.093.265c-.305 4.387-.684 7.602-1.141 9.641l-1.344-.39c.32-1.758.602-4.438.844-8.032l-2.86 1.203v8.078h-1.562v-7.421l-2.953 1.265v7.578c0 .606.11 1.008.328 1.203.219.188.68.282 1.39.282zm0 0" fill="#3E3A39"/><path d="M209.687 544.316l.313 1.421a364.834 364.834 0 0 1-7.234 3.063l-.594-1.594 3.203-1.203v-6.797h-2.984v-1.562h2.984v-4.969h1.547v4.969h2.86v1.562h-2.86v6.203zm7.672 5.828h5.047v1.562H208.22v-1.562h2.672v-12.969h1.609v12.969h3.234v-17.61h1.625v7.438h4.735v1.562h-4.735zm0 0" fill="#3E3A39"/><path d="M235.496 538.378a1.647 1.647 0 0 1-1.172.453c-.46 0-.851-.148-1.172-.453-.324-.312-.484-.707-.484-1.187 0-.489.16-.883.484-1.188.32-.312.711-.469 1.172-.469.457 0 .848.157 1.172.47.332.304.5.698.5 1.187 0 .48-.168.875-.5 1.187zm0 10.781a1.647 1.647 0 0 1-1.172.453c-.46 0-.851-.148-1.172-.453-.324-.312-.484-.71-.484-1.203 0-.5.16-.898.484-1.203.32-.312.711-.469 1.172-.469.457 0 .848.164 1.172.485.332.312.5.715.5 1.203 0 .48-.168.875-.5 1.187zm0 0" fill="#3E3A39"/><path d="M245.695 550.8l4.703-8.344-4.39-7.797h2.234l3.484 6.485 3.391-6.485h2.125l-4.39 7.907 4.703 8.234h-2.25l-3.766-6.953-3.703 6.953zm0 0" fill="#3E3A39"/><path d="M258.299 550.8l4.703-8.344-4.39-7.797h2.234l3.484 6.485 3.39-6.485h2.126l-4.39 7.907 4.702 8.234h-2.25l-3.765-6.953-3.703 6.953zm0 0" fill="#3E3A39"/><path d="M270.903 550.8l4.703-8.344-4.39-7.797h2.234l3.484 6.485 3.39-6.485h2.126l-4.391 7.907 4.703 8.234h-2.25l-3.766-6.953-3.703 6.953zm0 0" fill="#3E3A39"/><path d="M283.506 550.8l4.704-8.344-4.391-7.797h2.234l3.485 6.485 3.39-6.485h2.125l-4.39 7.907 4.703 8.234h-2.25l-3.766-6.953-3.703 6.953zm0 0" fill="#3E3A39"/><path d="M296.11 550.8l4.703-8.344-4.39-7.797h2.234l3.484 6.485 3.391-6.485h2.125l-4.39 7.907 4.703 8.234h-2.25l-3.766-6.953-3.703 6.953zm0 0" fill="#3E3A39"/><path d="M308.714 550.8l4.703-8.344-4.39-7.797h2.234l3.484 6.485 3.39-6.485h2.126l-4.39 7.907 4.702 8.234h-2.25l-3.765-6.953-3.703 6.953zm0 0" fill="#3E3A39"/><path d="M184.723 569.956v6.156l2.421-1.03.329 1.452c-1.375.649-3.606 1.657-6.688 3.032l-.64-1.625 3.03-1.204v-6.78h-2.609v-1.563h2.61v-5h1.547v5h2.359v1.562zm7.328 11.313h5.297c.632 0 1.046-.196 1.234-.594.207-.395.348-1.238.422-2.531l1.469.61c-.137 1.554-.403 2.605-.797 3.155-.399.551-1.153.828-2.266.828h-5.406c-1.262 0-2.121-.203-2.578-.609-.438-.398-.657-1.18-.657-2.36v-6.906l-1.734.72-.64-1.423 2.374-1v-5.984h1.563v5.312l2.953-1.234v-6.11h1.563v5.454l3.343-1.406 1.25.406-.093.265c-.305 4.387-.684 7.602-1.141 9.641l-1.344-.39c.32-1.758.602-4.438.844-8.032l-2.86 1.203v8.078h-1.562v-7.421l-2.953 1.265v7.578c0 .606.11 1.008.328 1.203.219.188.68.282 1.39.282zm0 0" fill="#3E3A39"/><path d="M210.969 575.66v1.265h2.593v-1.266zm.187 2.124l-1.203-1.203v-.578l1.203-1.203h2.25l1.203 1.203v.578l-1.203 1.203zm-2.61-3.937v4.89h7.485v-4.89zm-.062 5.922l-1.218-1.203v-4.516l1.218-1.219h7.672l1.203 1.219v4.516l-1.203 1.203zm.86-12.344v1.453h5.906v-1.453zm3.593 3.437h5.985v1.032h-13.156v-1.032h5.796v-1h-2.375l-1.218-1.203v-.984l1.218-1.219h6.266l1.203 1.219v.984l-1.203 1.203h-2.516zm-8.203 10.079h15.188v-15.516h-15.188zm-1.515-15.72l1.218-1.187h15.829l1.218 1.188v17.984h-1.562v-.86h-15.188v.86h-1.515zm0 0" fill="#3E3A39"/><path d="M235.496 569.128a1.647 1.647 0 0 1-1.172.453c-.46 0-.851-.148-1.172-.453-.324-.312-.484-.707-.484-1.187 0-.489.16-.883.484-1.188.32-.312.711-.469 1.172-.469.457 0 .848.157 1.172.47.332.304.5.698.5 1.187 0 .48-.168.875-.5 1.187zm0 10.781a1.647 1.647 0 0 1-1.172.453c-.46 0-.851-.148-1.172-.453-.324-.312-.484-.71-.484-1.203 0-.5.16-.898.484-1.203.32-.312.711-.469 1.172-.469.457 0 .848.164 1.172.485.332.312.5.715.5 1.203 0 .48-.168.875-.5 1.187zm0 0" fill="#3E3A39"/><path d="M245.695 581.55l4.703-8.344-4.39-7.797h2.234l3.484 6.485 3.391-6.485h2.125l-4.39 7.907 4.703 8.234h-2.25l-3.766-6.953-3.703 6.953zm0 0" fill="#3E3A39"/><path d="M258.299 581.55l4.703-8.344-4.39-7.797h2.234l3.484 6.485 3.39-6.485h2.126l-4.39 7.907 4.702 8.234h-2.25l-3.765-6.953-3.703 6.953zm0 0" fill="#3E3A39"/><path d="M270.903 581.55l4.703-8.344-4.39-7.797h2.234l3.484 6.485 3.39-6.485h2.126l-4.391 7.907 4.703 8.234h-2.25l-3.766-6.953-3.703 6.953zm0 0" fill="#3E3A39"/><path d="M283.506 581.55l4.704-8.344-4.391-7.797h2.234l3.485 6.485 3.39-6.485h2.125l-4.39 7.907 4.703 8.234h-2.25l-3.766-6.953-3.703 6.953zm0 0" fill="#3E3A39"/><path d="M296.11 581.55l4.703-8.344-4.39-7.797h2.234l3.484 6.485 3.391-6.485h2.125l-4.39 7.907 4.703 8.234h-2.25l-3.766-6.953-3.703 6.953zm0 0" fill="#3E3A39"/><path d="M308.714 581.55l4.703-8.344-4.39-7.797h2.234l3.484 6.485 3.39-6.485h2.126l-4.39 7.907 4.702 8.234h-2.25l-3.765-6.953-3.703 6.953zm0 0" fill="#3E3A39"/><path d="M191.098 607.487v4.282c1.113.242 2.476.36 4.093.36 1.29.042 3.035.03 5.235-.032l-.594 1.61h-4.703c-2.586 0-4.711-.329-6.375-.985-1.68-.645-3.028-1.867-4.047-3.672-.824 2.21-1.93 3.867-3.313 4.984l-1.203-1.078c1.22-.937 2.141-2.219 2.766-3.844.644-1.625 1.066-3.378 1.266-5.265l1.671.219c-.136.93-.328 1.93-.578 3 .852 2.043 2.235 3.449 4.141 4.218v-8.734h-8.672v-1.531h8.672v-3.016h-6.781v-1.516h6.781v-2.53h1.64v2.53h7.126v1.516h-7.125v3.016h8.765v1.531h-8.765v3.437h7.312v1.5zm0 0" fill="#3E3A39"/><path d="M219.812 596.19h-4.265v1.829h4.265zm-4.453 5.016h4.453V599.3h-4.265zm4.453 1.281h-4.718c-.418 1.68-1.164 3.028-2.235 4.047l-1.297-.765c1.664-1.551 2.5-3.926 2.5-7.125v-2.61l1.22-1.203h4.859l1.203 1.203v9.032c0 .43-.055.757-.157.984-.093.219-.312.414-.656.578-.336.149-1.273.219-2.812.219l-.485-1.485c.657.032 1.39.047 2.203.047.25-.007.375-.132.375-.375zm-12.89-.437l.078-3.781h-4.578v-1.375h3.156c-.312-.727-.781-1.489-1.406-2.282l1.156-.53c.75.886 1.266 1.687 1.547 2.405l-.844.407h2.531l1.5-2.813 1.422.438-1.422 2.375h2.954v1.375h-4.532v3.781h2.375v-2.813h1.375v4.75h-1.375v-.593h-2.781c-.574 1.625-1.887 2.902-3.937 3.828l-1.016-1.125c1.687-.707 2.797-1.61 3.328-2.703H204.5l-1.219-1.219v-2.938h1.375v2.813zm6.172 9.75h9.156v1.453h-19.828V611.8h9.031v-2.453h-6.766v-1.422h6.766v-1.36h1.64v1.36h6.876v1.422h-6.875zm0 0" fill="#3E3A39"/><path d="M229.621 596.894h-1.969c-.699 1.093-1.422 1.968-2.172 2.625l-1.172-1.078c1.458-1.196 2.586-2.758 3.391-4.688l1.453.39-.61 1.329h5.657v1.422h-4.125l2.11 2.015-1.079.938-2.28-2.313zm-1.328 12.718l1.172-.859c1.687 1.313 2.93 2.402 3.734 3.266l-1.203.968c-.918-1.019-2.152-2.144-3.703-3.375zm11.297-3.984v1.547h4.375v1.39h-4.375v3.72c0 .468-.078.812-.235 1.03-.125.22-.406.383-.843.5-.43.133-1.7.204-3.813.204l-.437-1.39c1.718.07 2.722.085 3.015.046.301-.031.485-.078.547-.14.07-.055.11-.153.11-.298v-3.671h-13.266v-1.391h13.265v-1.547zm-1.797-10.14h6.562v1.437h-4.843l2.046 2.156-1.125.938-2.078-2.375.97-.719h-2.157l-1.86 2.64-.187-.171v1.031h8.047v1.422h-8.047v1.969h6.812v1.312h-15.359v-1.312h6.89v-1.97h-7.984v-1.421h7.985v-1.375h1.234l-.64-.453c1.218-1.207 2.128-2.82 2.734-4.844l1.515.36zm0 0" fill="#3E3A39"/><path d="M254.976 606.534l-1.28.5-.329-1.265c-2.406.367-3.98.633-4.719.797l-1.484.406-.5-1.531c.352-.063.894-.54 1.625-1.438.508-.57 1.125-1.398 1.844-2.484-1.742.218-2.774.398-3.094.531l-.531-1.5c.312-.07.672-.398 1.078-.984.426-.602.941-1.446 1.547-2.532a27.41 27.41 0 0 0 1.484-3.218l1.547.64c-1.012 2.168-2.14 4.11-3.39 5.828l2.312-.218 1.672-2.954 1.406.844c-1.617 2.805-3.266 5.164-4.953 7.078l3.781-.547-.812-2 1.171-.421c.832 1.68 1.375 3.168 1.625 4.468zm-7.406 1.407l1.313.25c-.23 2.03-.606 3.796-1.125 5.296l-1.25-.484c.425-1.113.78-2.8 1.062-5.062zm2.344.156l1.187-.235.594 4.375-1.25.282zm2.375-.422l1.172-.344 1.125 3.531-1.235.422zm11.594-5.016h-4.39c.538 2.086 1.257 3.868 2.155 5.344.989-1.582 1.735-3.363 2.235-5.344zm-1.703-6.172h-3.657a245.772 245.772 0 0 1-.172 4.704h3c.27-1.375.547-2.942.829-4.704zm2.546 4.61l1.016.375c-.574 3.074-1.617 5.73-3.125 7.969 1.094 1.398 2.383 2.421 3.875 3.078l-1.125 1.36c-1.406-.72-2.656-1.767-3.75-3.142-1.137 1.368-2.434 2.446-3.89 3.25l-1.032-1.218c1.5-.79 2.828-1.922 3.985-3.39-1.043-1.75-1.872-3.833-2.485-6.25-.219 2.343-.59 4.39-1.11 6.14-.5 1.73-1.218 3.254-2.155 4.578l-1.422-1.016c1.332-1.656 2.218-3.77 2.656-6.344.457-2.582.707-5.914.75-10h-2.156v-1.546l7.937.093 1.016 1.313a71.132 71.132 0 0 1-.813 4.844zm0 0" fill="#3E3A39"/><path d="M279.488 599.878a1.647 1.647 0 0 1-1.172.453c-.46 0-.851-.148-1.172-.453-.324-.312-.484-.707-.484-1.187 0-.489.16-.883.484-1.188.32-.312.711-.469 1.172-.469.457 0 .848.157 1.172.47.332.304.5.698.5 1.187 0 .48-.168.875-.5 1.187zm0 10.781a1.647 1.647 0 0 1-1.172.453c-.46 0-.851-.148-1.172-.453-.324-.312-.484-.71-.484-1.203 0-.5.16-.898.484-1.203.32-.312.711-.469 1.172-.469.457 0 .848.164 1.172.485.332.312.5.715.5 1.203 0 .48-.168.875-.5 1.187zm0 0" fill="#3E3A39"/><path d="M290.375 602.847h19.969v1.781h-19.97zm0 0" fill="#3E3A39"/><path d="M320.965 606.534l-1.282.5-.328-1.265c-2.406.367-3.98.633-4.718.797l-1.485.406-.5-1.531c.352-.063.895-.54 1.625-1.438.508-.57 1.125-1.398 1.844-2.484-1.742.218-2.773.398-3.094.531l-.531-1.5c.312-.07.672-.398 1.078-.984.426-.602.941-1.446 1.547-2.532a27.41 27.41 0 0 0 1.484-3.218l1.547.64c-1.012 2.168-2.14 4.11-3.39 5.828l2.312-.218 1.672-2.954 1.406.844c-1.617 2.805-3.265 5.164-4.953 7.078l3.781-.547-.812-2 1.172-.421c.832 1.68 1.375 3.168 1.625 4.468zm-7.407 1.407l1.313.25c-.23 2.03-.606 3.796-1.125 5.296l-1.25-.484c.426-1.113.781-2.8 1.062-5.062zm2.344.156l1.188-.235.593 4.375-1.25.282zm2.375-.422l1.172-.344 1.125 3.531-1.234.422zm11.594-5.016h-4.39c.538 2.086 1.257 3.868 2.156 5.344.988-1.582 1.734-3.363 2.234-5.344zm-1.703-6.172h-3.656a245.772 245.772 0 0 1-.172 4.704h3c.27-1.375.547-2.942.828-4.704zm2.547 4.61l1.015.375c-.574 3.074-1.617 5.73-3.125 7.969 1.094 1.398 2.383 2.421 3.875 3.078l-1.125 1.36c-1.406-.72-2.656-1.767-3.75-3.142-1.136 1.368-2.433 2.446-3.89 3.25l-1.032-1.218c1.5-.79 2.829-1.922 3.985-3.39-1.043-1.75-1.871-3.833-2.485-6.25-.218 2.343-.59 4.39-1.109 6.14-.5 1.73-1.219 3.254-2.156 4.578l-1.422-1.016c1.332-1.656 2.219-3.77 2.656-6.344.457-2.582.707-5.914.75-10h-2.156v-1.546l7.937.093 1.016 1.313a71.132 71.132 0 0 1-.812 4.844zm0 0" fill="#3E3A39"/><path d="M352.976 614.41c-2.918-2.958-4.375-6.446-4.375-10.47 0-4.019 1.457-7.507 4.375-10.468l1.313.672c-2.73 2.824-4.094 6.09-4.094 9.797 0 3.71 1.363 6.976 4.094 9.796zm0 0" fill="#3E3A39"/><path d="M373.097 597.597v-1.735h-7.28v1.735zm0 2.906v-1.75h-7.28v1.75zm.36-5.875l1.203 1.219v4.703l-1.203 1.219h-7.922l-1.219-1.219v-4.703l1.219-1.219zm-10.547 10.344l-2.422.812v6.157c0 .82-.25 1.351-.75 1.593-.437.22-1.344.32-2.719.313l-.484-1.531c.625.02 1.312.03 2.062.03.25 0 .375-.14.375-.421v-5.656l-2.546.812-.407-1.578 2.953-.86v-4.812h-2.703v-1.515h2.703v-4.391h1.516v4.39h2.422v1.516h-2.422v4.328l2.219-.687zm7.328 3.656v3.453c.633.086 1.719.125 3.25.125 1.54 0 2.563-.004 3.063-.015l-.485 1.453h-3.828c-1.762 0-3.183-.258-4.266-.766-1.085-.5-1.964-1.469-2.64-2.906-.586 1.637-1.461 2.973-2.625 4.015l-1.219-.984c1.813-1.426 2.899-3.848 3.266-7.266l1.5.188a20.003 20.003 0 0 1-.422 2.328c.562 1.7 1.515 2.836 2.86 3.406v-6.953h-5.36v-1.375h12.562v1.375h-5.656v2.578h4.547v1.344zm0 0" fill="#3E3A39"/><path d="M383.265 593.956l1.532.485a36.49 36.49 0 0 1-2.235 4.703v14.812h-1.61v-12.344a19.745 19.745 0 0 1-2.187 2.657l-.921-1.61c1.07-1.039 2.086-2.332 3.046-3.875.957-1.55 1.75-3.16 2.375-4.828zm4.672 14.406l1.563.485a18.987 18.987 0 0 1-4.188 5.078L384 612.909c1.664-1.27 2.976-2.785 3.937-4.547zm4.985.797l1.265-.734c.75.71 1.489 1.508 2.22 2.39.737.876 1.304 1.633 1.702 2.282l-1.39.922c-.356-.68-.899-1.469-1.625-2.375a26.998 26.998 0 0 0-2.172-2.485zm-3.828-9v5.36h4.28v-5.36zm5.875 5.36h3.375v1.61H384.14v-1.61h3.36v-5.36h-2.828v-1.593h2.828v-4.422h1.594v4.422h4.28v-4.438h1.595v4.438h3.125v1.593h-3.125zm0 0" fill="#3E3A39"/><path d="M411.058 607.487v4.282c1.114.242 2.477.36 4.094.36 1.29.042 3.035.03 5.235-.032l-.594 1.61h-4.703c-2.586 0-4.711-.329-6.375-.985-1.68-.645-3.028-1.867-4.047-3.672-.824 2.21-1.93 3.867-3.313 4.984l-1.203-1.078c1.219-.937 2.14-2.219 2.766-3.844.644-1.625 1.066-3.378 1.265-5.265l1.672.219c-.136.93-.328 1.93-.578 3 .852 2.043 2.235 3.449 4.14 4.218v-8.734h-8.671v-1.531h8.672v-3.016h-6.781v-1.516h6.78v-2.53h1.641v2.53h7.125v1.516h-7.125v3.016h8.766v1.531h-8.766v3.437h7.313v1.5zm0 0" fill="#3E3A39"/><path d="M439.773 596.19h-4.265v1.829h4.265zm-4.453 5.016h4.453V599.3h-4.265zm4.453 1.281h-4.718c-.418 1.68-1.165 3.028-2.235 4.047l-1.297-.765c1.664-1.551 2.5-3.926 2.5-7.125v-2.61l1.219-1.203h4.86l1.203 1.203v9.032c0 .43-.055.757-.157.984-.093.219-.312.414-.656.578-.336.149-1.273.219-2.812.219l-.485-1.485c.656.032 1.39.047 2.203.047.25-.007.375-.132.375-.375zm-12.89-.437l.078-3.781h-4.578v-1.375h3.156c-.313-.727-.781-1.489-1.406-2.282l1.156-.53c.75.886 1.266 1.687 1.547 2.405l-.844.407h2.531l1.5-2.813 1.422.438-1.422 2.375h2.953v1.375h-4.53v3.781h2.374v-2.813h1.375v4.75h-1.375v-.593h-2.781c-.574 1.625-1.887 2.902-3.938 3.828l-1.015-1.125c1.687-.707 2.797-1.61 3.328-2.703h-1.953l-1.219-1.219v-2.938h1.375v2.813zm6.172 9.75h9.156v1.453h-19.828V611.8h9.03v-2.453h-6.765v-1.422h6.766v-1.36h1.64v1.36h6.876v1.422h-6.875zm0 0" fill="#3E3A39"/><path d="M448.394 594.019l1.485.422-1.563 4.218v15.328h-1.562V601.77c-.617 1.093-1.246 2.039-1.89 2.828l-.86-1.64c.883-1.095 1.71-2.43 2.484-4.016a29.834 29.834 0 0 0 1.906-4.922zm5.782 15.297l-.313.25c.844.625 1.82 1.14 2.938 1.546 1.257-.476 2.304-1.078 3.14-1.796zm7.109-1.172l1.016.593c-.805 1.18-2.032 2.172-3.688 2.985 1.676.492 3.54.82 5.594 1l-.86 1.297c-2.437-.293-4.62-.797-6.546-1.516-1.856.656-4.102 1.164-6.735 1.531l-.844-1.234c2.125-.23 4.04-.586 5.75-1.078a12.777 12.777 0 0 1-2.234-1.406c-.543.355-1.297.765-2.266 1.234l-.968-.969c.894-.375 1.644-.75 2.25-1.125l-.828-.969 1.265-.484.656.75 1.86-1.594-.656-.422c-.125-.207-.188-.523-.188-.953v-1.265h1.375v1.265c0 .211.047.344.14.407.102.054.337.078.704.078h2.734c.258 0 .426-.051.5-.157.094-.113.156-.382.188-.812l1.125.375c-.063.617-.215 1.04-.453 1.266-.23.218-.633.328-1.204.328h-2.64l-.875.937zm-8.547-3.625l1.047.547c-.742 1.117-1.512 1.93-2.313 2.437l-.968-.766c.863-.488 1.61-1.226 2.234-2.218zm10.828 2.406l-.969.672-2.484-2.594.922-.562c1.082.855 1.926 1.683 2.531 2.484zm-10.156-5.094v.938h7.328v-.938zm7.328-3.61h-7.328v.938h7.328zm0 2.75v-.952h-7.328v.953zm1.531 1.798h.844l1.203 1.218v1.735h-1.469v-1.89h-6.046l1.953 1.405-.922.657-2.14-1.578.734-.485h-5.25v1.89h-1.422v-1.734l1.187-1.218h.969v-4.282l1.203-1.218h2.625l.281-1.14h-5.687v-1.25h13.64v1.25h-6.234l-.469 1.14h3.797l1.203 1.218zm0 0" fill="#3E3A39"/><path d="M476.984 604.144v1.687c.926 0 2.328-.015 4.203-.047a25.753 25.753 0 0 0-1.828-.89l1.016-.75zm-6.906-1.11h5.25v-1.453h-5.25zm0-3.937v1.437h5.25v-1.437zm12.312 0h-5.406v1.437h5.406zm0 3.937v-1.453h-5.406v1.453zm-15.312 4.297l-.078-1.453c1.406.012 4.18 0 8.328-.031v-1.703h-5.61l-1.203-1.219v-3.719l1.204-1.203h5.609v-1.406h-8.313v-1.344h8.313v-1.328h1.656v1.328h8.563v1.344h-8.563v1.406h5.813l1.203 1.203v3.719l-1.203 1.219h-2.25c.925.367 1.875.855 2.843 1.468.977.606 1.754 1.18 2.329 1.72l-1.125.937-1.454-1.235c-6.367.157-11.718.258-16.062.297zm11.906 2.485l-1.125.984c-.812-.844-2.023-1.676-3.625-2.5l1.031-.89c1.582.75 2.82 1.554 3.72 2.406zm-11.078 3.5l-1.422-.782c.77-.882 1.461-2.238 2.078-4.062l1.375.547c-.687 2-1.367 3.43-2.03 4.297zM473 612.19l6.125.109c.539 0 .89-.125 1.047-.375.164-.258.27-.867.312-1.828l1.453.578c-.117 1.219-.351 2.023-.703 2.422-.355.394-1.023.594-2 .594h-4.984c-1.242 0-2.074-.141-2.5-.422-.43-.262-.64-.797-.64-1.61v-3.093h1.609v3.078c0 .281.093.465.28.547zm8.828-3.22l1.39-.484c1.301 1.532 2.172 2.907 2.61 4.125l-1.469.532c-.46-1.239-1.304-2.63-2.531-4.172zm0 0" fill="#3E3A39"/><path d="M489.605 593.472c2.914 2.96 4.375 6.45 4.375 10.469 0 4.023-1.46 7.511-4.375 10.468l-1.312-.672c2.726-2.82 4.094-6.085 4.094-9.796 0-3.707-1.368-6.973-4.094-9.797zm0 0" fill="#3E3A39"/><path d="M181.863 667.753h4.953l.11-7.875-1.39 2.375zm4.953 6.047v-4.438h-7.047v-1.328l6.079-9.375 1.843-1h1.016v10.094h2.125v1.61h-2.125v4.437zm0 0" fill="#3E3A39"/><path d="M195.634 673.66a1.426 1.426 0 0 1-1.047.421c-.407 0-.75-.14-1.032-.422-.273-.289-.406-.656-.406-1.093 0-.446.133-.817.406-1.11a1.36 1.36 0 0 1 1.032-.453c.414 0 .765.152 1.047.453.28.293.421.664.421 1.11 0 .437-.14.804-.421 1.093zm0 0" fill="#3E3A39"/><path d="M202.957 673.8l4.703-8.344-4.39-7.797h2.234l3.484 6.485 3.39-6.485h2.126l-4.39 7.907 4.702 8.234h-2.25l-3.765-6.953-3.704 6.953zm0 0" fill="#3E3A39"/><path d="M215.56 673.8l4.704-8.344-4.39-7.797h2.233l3.485 6.485 3.39-6.485h2.125l-4.39 7.907 4.703 8.234h-2.25l-3.766-6.953-3.703 6.953zm0 0" fill="#3E3A39"/><path d="M228.164 673.8l4.703-8.344-4.39-7.797h2.234l3.485 6.485 3.39-6.485h2.125l-4.39 7.907 4.703 8.234h-2.25l-3.766-6.953-3.703 6.953zm0 0" fill="#3E3A39"/><path d="M240.768 673.8l4.703-8.344-4.39-7.797h2.234l3.484 6.485 3.391-6.485h2.125l-4.39 7.907 4.702 8.234h-2.25l-3.765-6.953-3.703 6.953zm0 0" fill="#3E3A39"/><path d="M253.372 673.8l4.703-8.344-4.39-7.797h2.234l3.484 6.485 3.39-6.485h2.126l-4.39 7.907 4.702 8.234h-2.25l-3.765-6.953-3.704 6.953zm0 0" fill="#3E3A39"/><path d="M184.723 692.956v6.156l2.421-1.03.329 1.452c-1.375.649-3.606 1.657-6.688 3.032l-.64-1.625 3.03-1.204v-6.78h-2.609v-1.563h2.61v-5h1.547v5h2.359v1.562zm7.328 11.313h5.297c.632 0 1.046-.196 1.234-.594.207-.395.348-1.238.422-2.531l1.469.61c-.137 1.554-.403 2.605-.797 3.155-.399.551-1.153.828-2.266.828h-5.406c-1.262 0-2.121-.203-2.578-.609-.438-.398-.657-1.18-.657-2.36v-6.906l-1.734.72-.64-1.423 2.374-1v-5.984h1.563v5.312l2.953-1.234v-6.11h1.563v5.454l3.343-1.406 1.25.406-.093.265c-.305 4.387-.684 7.602-1.141 9.641l-1.344-.39c.32-1.758.602-4.438.844-8.032l-2.86 1.203v8.078h-1.562v-7.421l-2.953 1.265v7.578c0 .606.11 1.008.328 1.203.219.188.68.282 1.39.282zm0 0" fill="#3E3A39"/><path d="M209.687 698.066l.313 1.421a364.834 364.834 0 0 1-7.234 3.063l-.594-1.594 3.203-1.203v-6.797h-2.984v-1.562h2.984v-4.969h1.547v4.969h2.86v1.562h-2.86v6.203zm7.672 5.828h5.047v1.562H208.22v-1.562h2.672v-12.969h1.609v12.969h3.234v-17.61h1.625v7.438h4.735v1.562h-4.735zm0 0" fill="#3E3A39"/><path d="M235.496 692.128a1.647 1.647 0 0 1-1.172.453c-.46 0-.851-.148-1.172-.453-.324-.312-.484-.707-.484-1.187 0-.489.16-.883.484-1.188.32-.312.711-.469 1.172-.469.457 0 .848.157 1.172.47.332.304.5.698.5 1.187 0 .48-.168.875-.5 1.187zm0 10.781a1.647 1.647 0 0 1-1.172.453c-.46 0-.851-.148-1.172-.453-.324-.312-.484-.71-.484-1.203 0-.5.16-.898.484-1.203.32-.312.711-.469 1.172-.469.457 0 .848.164 1.172.485.332.312.5.715.5 1.203 0 .48-.168.875-.5 1.187zm0 0" fill="#3E3A39"/><path d="M245.695 704.55l4.703-8.344-4.39-7.797h2.234l3.484 6.485 3.391-6.485h2.125l-4.39 7.907 4.703 8.234h-2.25l-3.766-6.953-3.703 6.953zm0 0" fill="#3E3A39"/><path d="M258.299 704.55l4.703-8.344-4.39-7.797h2.234l3.484 6.485 3.39-6.485h2.126l-4.39 7.907 4.702 8.234h-2.25l-3.765-6.953-3.703 6.953zm0 0" fill="#3E3A39"/><path d="M270.903 704.55l4.703-8.344-4.39-7.797h2.234l3.484 6.485 3.39-6.485h2.126l-4.391 7.907 4.703 8.234h-2.25l-3.766-6.953-3.703 6.953zm0 0" fill="#3E3A39"/><path d="M283.506 704.55l4.704-8.344-4.391-7.797h2.234l3.485 6.485 3.39-6.485h2.125l-4.39 7.907 4.703 8.234h-2.25l-3.766-6.953-3.703 6.953zm0 0" fill="#3E3A39"/><path d="M296.11 704.55l4.703-8.344-4.39-7.797h2.234l3.484 6.485 3.391-6.485h2.125l-4.39 7.907 4.703 8.234h-2.25l-3.766-6.953-3.703 6.953zm0 0" fill="#3E3A39"/><path d="M308.714 704.55l4.703-8.344-4.39-7.797h2.234l3.484 6.485 3.39-6.485h2.126l-4.39 7.907 4.702 8.234h-2.25l-3.765-6.953-3.703 6.953zm0 0" fill="#3E3A39"/><path d="M184.723 723.706v6.156l2.421-1.03.329 1.452c-1.375.649-3.606 1.657-6.688 3.032l-.64-1.625 3.03-1.204v-6.78h-2.609v-1.563h2.61v-5h1.547v5h2.359v1.562zm7.328 11.313h5.297c.632 0 1.046-.196 1.234-.594.207-.395.348-1.238.422-2.531l1.469.61c-.137 1.554-.403 2.605-.797 3.155-.399.551-1.153.828-2.266.828h-5.406c-1.262 0-2.121-.203-2.578-.609-.438-.398-.657-1.18-.657-2.36v-6.906l-1.734.72-.64-1.423 2.374-1v-5.984h1.563v5.312l2.953-1.234v-6.11h1.563v5.454l3.343-1.406 1.25.406-.093.265c-.305 4.387-.684 7.602-1.141 9.641l-1.344-.39c.32-1.758.602-4.438.844-8.032l-2.86 1.203v8.078h-1.562v-7.421l-2.953 1.265v7.578c0 .606.11 1.008.328 1.203.219.188.68.282 1.39.282zm0 0" fill="#3E3A39"/><path d="M210.969 729.41v1.265h2.593v-1.266zm.187 2.124l-1.203-1.203v-.578l1.203-1.203h2.25l1.203 1.203v.578l-1.203 1.203zm-2.61-3.937v4.89h7.485v-4.89zm-.062 5.922l-1.218-1.203V727.8l1.218-1.219h7.672l1.203 1.219v4.516l-1.203 1.203zm.86-12.344v1.453h5.906v-1.453zm3.593 3.437h5.985v1.032h-13.156v-1.032h5.796v-1h-2.375l-1.218-1.203v-.984l1.218-1.219h6.266l1.203 1.219v.984l-1.203 1.203h-2.516zm-8.203 10.079h15.188v-15.516h-15.188zm-1.515-15.72l1.218-1.187h15.829l1.218 1.188v17.984h-1.562v-.86h-15.188v.86h-1.515zm0 0" fill="#3E3A39"/><path d="M235.496 722.878a1.647 1.647 0 0 1-1.172.453c-.46 0-.851-.148-1.172-.453-.324-.312-.484-.707-.484-1.187 0-.489.16-.883.484-1.188.32-.312.711-.469 1.172-.469.457 0 .848.157 1.172.47.332.304.5.698.5 1.187 0 .48-.168.875-.5 1.187zm0 10.781a1.647 1.647 0 0 1-1.172.453c-.46 0-.851-.148-1.172-.453-.324-.312-.484-.71-.484-1.203 0-.5.16-.898.484-1.203.32-.312.711-.469 1.172-.469.457 0 .848.164 1.172.485.332.312.5.715.5 1.203 0 .48-.168.875-.5 1.187zm0 0" fill="#3E3A39"/><path d="M245.695 735.3l4.703-8.344-4.39-7.797h2.234l3.484 6.485 3.391-6.485h2.125l-4.39 7.907 4.703 8.234h-2.25l-3.766-6.953-3.703 6.953zm0 0" fill="#3E3A39"/><path d="M258.299 735.3l4.703-8.344-4.39-7.797h2.234l3.484 6.485 3.39-6.485h2.126l-4.39 7.907 4.702 8.234h-2.25l-3.765-6.953-3.703 6.953zm0 0" fill="#3E3A39"/><path d="M270.903 735.3l4.703-8.344-4.39-7.797h2.234l3.484 6.485 3.39-6.485h2.126l-4.391 7.907 4.703 8.234h-2.25l-3.766-6.953-3.703 6.953zm0 0" fill="#3E3A39"/><path d="M283.506 735.3l4.704-8.344-4.391-7.797h2.234l3.485 6.485 3.39-6.485h2.125l-4.39 7.907 4.703 8.234h-2.25l-3.766-6.953-3.703 6.953zm0 0" fill="#3E3A39"/><path d="M296.11 735.3l4.703-8.344-4.39-7.797h2.234l3.484 6.485 3.391-6.485h2.125l-4.39 7.907 4.703 8.234h-2.25l-3.766-6.953-3.703 6.953zm0 0" fill="#3E3A39"/><path d="M308.714 735.3l4.703-8.344-4.39-7.797h2.234l3.484 6.485 3.39-6.485h2.126l-4.39 7.907 4.702 8.234h-2.25l-3.765-6.953-3.703 6.953zm0 0" fill="#3E3A39"/><path d="M191.098 761.237v4.282c1.113.242 2.476.36 4.093.36 1.29.042 3.035.03 5.235-.032l-.594 1.61h-4.703c-2.586 0-4.711-.329-6.375-.985-1.68-.645-3.028-1.867-4.047-3.672-.824 2.21-1.93 3.867-3.313 4.984l-1.203-1.078c1.22-.937 2.141-2.219 2.766-3.844.644-1.625 1.066-3.378 1.266-5.265l1.671.219c-.136.93-.328 1.93-.578 3 .852 2.043 2.235 3.449 4.141 4.218V756.3h-8.672v-1.531h8.672v-3.016h-6.781v-1.516h6.781v-2.53h1.64v2.53h7.126v1.516h-7.125v3.016h8.765v1.531h-8.765v3.437h7.312v1.5zm0 0" fill="#3E3A39"/><path d="M219.812 749.94h-4.265v1.829h4.265zm-4.453 5.016h4.453v-1.906h-4.265zm4.453 1.281h-4.718c-.418 1.68-1.164 3.028-2.235 4.047l-1.297-.765c1.664-1.551 2.5-3.926 2.5-7.125v-2.61l1.22-1.203h4.859l1.203 1.203v9.032c0 .43-.055.757-.157.984-.093.219-.312.414-.656.578-.336.149-1.273.219-2.812.219l-.485-1.485c.657.032 1.39.047 2.203.047.25-.007.375-.132.375-.375zm-12.89-.437l.078-3.781h-4.578v-1.375h3.156c-.312-.727-.781-1.489-1.406-2.282l1.156-.53c.75.886 1.266 1.687 1.547 2.405l-.844.407h2.531l1.5-2.813 1.422.438-1.422 2.375h2.954v1.375h-4.532v3.781h2.375v-2.813h1.375v4.75h-1.375v-.593h-2.781c-.574 1.625-1.887 2.902-3.937 3.828l-1.016-1.125c1.687-.707 2.797-1.61 3.328-2.703H204.5l-1.219-1.219v-2.938h1.375v2.813zm6.172 9.75h9.156v1.453h-19.828v-1.453h9.031v-2.453h-6.766v-1.422h6.766v-1.36h1.64v1.36h6.876v1.422h-6.875zm0 0" fill="#3E3A39"/><path d="M229.621 750.644h-1.969c-.699 1.093-1.422 1.968-2.172 2.625l-1.172-1.078c1.458-1.196 2.586-2.758 3.391-4.688l1.453.39-.61 1.329h5.657v1.422h-4.125l2.11 2.015-1.079.938-2.28-2.313zm-1.328 12.718l1.172-.859c1.687 1.313 2.93 2.402 3.734 3.266l-1.203.968c-.918-1.019-2.152-2.144-3.703-3.375zm11.297-3.984v1.547h4.375v1.39h-4.375v3.72c0 .468-.078.812-.235 1.03-.125.22-.406.383-.843.5-.43.133-1.7.204-3.813.204l-.437-1.39c1.718.07 2.722.085 3.015.046.301-.031.485-.078.547-.14.07-.055.11-.153.11-.298v-3.671h-13.266v-1.391h13.265v-1.547zm-1.797-10.14h6.562v1.437h-4.843l2.046 2.156-1.125.938-2.078-2.375.97-.719h-2.157l-1.86 2.64-.187-.171v1.031h8.047v1.422h-8.047v1.969h6.812v1.312h-15.359v-1.312h6.89v-1.97h-7.984v-1.421h7.985V752.8h1.234l-.64-.453c1.218-1.207 2.128-2.82 2.734-4.844l1.515.36zm0 0" fill="#3E3A39"/><path d="M254.976 760.284l-1.28.5-.329-1.265c-2.406.367-3.98.633-4.719.797l-1.484.406-.5-1.531c.352-.063.894-.54 1.625-1.438.508-.57 1.125-1.398 1.844-2.484-1.742.218-2.774.398-3.094.531l-.531-1.5c.312-.07.672-.398 1.078-.984.426-.602.941-1.446 1.547-2.532a27.41 27.41 0 0 0 1.484-3.218l1.547.64c-1.012 2.168-2.14 4.11-3.39 5.828l2.312-.218 1.672-2.954 1.406.844c-1.617 2.805-3.266 5.164-4.953 7.078l3.781-.547-.812-2 1.171-.421c.832 1.68 1.375 3.168 1.625 4.468zm-7.406 1.407l1.313.25c-.23 2.03-.606 3.796-1.125 5.296l-1.25-.484c.425-1.113.78-2.8 1.062-5.062zm2.344.156l1.187-.235.594 4.375-1.25.282zm2.375-.422l1.172-.344 1.125 3.531-1.235.422zm11.594-5.016h-4.39c.538 2.086 1.257 3.868 2.155 5.344.989-1.582 1.735-3.363 2.235-5.344zm-1.703-6.172h-3.657a245.772 245.772 0 0 1-.172 4.704h3c.27-1.375.547-2.942.829-4.704zm2.546 4.61l1.016.375c-.574 3.074-1.617 5.73-3.125 7.969 1.094 1.398 2.383 2.421 3.875 3.078l-1.125 1.36c-1.406-.72-2.656-1.767-3.75-3.142-1.137 1.368-2.434 2.446-3.89 3.25l-1.032-1.218c1.5-.79 2.828-1.922 3.985-3.39-1.043-1.75-1.872-3.833-2.485-6.25-.219 2.343-.59 4.39-1.11 6.14-.5 1.73-1.218 3.254-2.155 4.578l-1.422-1.016c1.332-1.656 2.218-3.77 2.656-6.344.457-2.582.707-5.914.75-10h-2.156v-1.546l7.937.093 1.016 1.313a71.132 71.132 0 0 1-.813 4.844zm0 0" fill="#3E3A39"/><path d="M279.488 753.628a1.647 1.647 0 0 1-1.172.453c-.46 0-.851-.148-1.172-.453-.324-.312-.484-.707-.484-1.187 0-.489.16-.883.484-1.188.32-.312.711-.469 1.172-.469.457 0 .848.157 1.172.47.332.304.5.698.5 1.187 0 .48-.168.875-.5 1.187zm0 10.781a1.647 1.647 0 0 1-1.172.453c-.46 0-.851-.148-1.172-.453-.324-.312-.484-.71-.484-1.203 0-.5.16-.898.484-1.203.32-.312.711-.469 1.172-.469.457 0 .848.164 1.172.485.332.312.5.715.5 1.203 0 .48-.168.875-.5 1.187zm0 0" fill="#3E3A39"/><path d="M292.484 750.8h15.688v1.734h-15.688zm-1.86 12.969h19.391v1.781h-19.39zm0 0" fill="#3E3A39"/><path d="M320.965 760.284l-1.282.5-.328-1.265c-2.406.367-3.98.633-4.718.797l-1.485.406-.5-1.531c.352-.063.895-.54 1.625-1.438.508-.57 1.125-1.398 1.844-2.484-1.742.218-2.773.398-3.094.531l-.531-1.5c.312-.07.672-.398 1.078-.984.426-.602.941-1.446 1.547-2.532a27.41 27.41 0 0 0 1.484-3.218l1.547.64c-1.012 2.168-2.14 4.11-3.39 5.828l2.312-.218 1.672-2.954 1.406.844c-1.617 2.805-3.265 5.164-4.953 7.078l3.781-.547-.812-2 1.172-.421c.832 1.68 1.375 3.168 1.625 4.468zm-7.407 1.407l1.313.25c-.23 2.03-.606 3.796-1.125 5.296l-1.25-.484c.426-1.113.781-2.8 1.062-5.062zm2.344.156l1.188-.235.593 4.375-1.25.282zm2.375-.422l1.172-.344 1.125 3.531-1.234.422zm11.594-5.016h-4.39c.538 2.086 1.257 3.868 2.156 5.344.988-1.582 1.734-3.363 2.234-5.344zm-1.703-6.172h-3.656a245.772 245.772 0 0 1-.172 4.704h3c.27-1.375.547-2.942.828-4.704zm2.547 4.61l1.015.375c-.574 3.074-1.617 5.73-3.125 7.969 1.094 1.398 2.383 2.421 3.875 3.078l-1.125 1.36c-1.406-.72-2.656-1.767-3.75-3.142-1.136 1.368-2.433 2.446-3.89 3.25l-1.032-1.218c1.5-.79 2.829-1.922 3.985-3.39-1.043-1.75-1.871-3.833-2.485-6.25-.218 2.343-.59 4.39-1.109 6.14-.5 1.73-1.219 3.254-2.156 4.578l-1.422-1.016c1.332-1.656 2.219-3.77 2.656-6.344.457-2.582.707-5.914.75-10h-2.156v-1.546l7.937.093 1.016 1.313a71.132 71.132 0 0 1-.812 4.844zm0 0" fill="#3E3A39"/><path d="M352.976 768.16c-2.918-2.958-4.375-6.446-4.375-10.47 0-4.019 1.457-7.507 4.375-10.468l1.313.672c-2.73 2.824-4.094 6.09-4.094 9.797 0 3.71 1.363 6.976 4.094 9.796zm0 0" fill="#3E3A39"/><path d="M374.707 752.503h-4.953c-.512 2.106-1.149 3.805-1.907 5.094l-1.312-.938c1.219-1.945 2.07-4.96 2.562-9.047l1.516.266-.5 3.11 5.297-.079.984.36c-.523 2.449-1.047 4.336-1.578 5.656l-1.219-.422zm-10.172-2.234v1.328h-1.453v-3.953h1.453v1.375h3.156v1.25zm1.11 4.625v-1.89h-2.048v1.89zm-.11-2.875l1.203 1.203v1.453l-1.203 1.219h-1.813l-1.203-1.219v-1.453l1.203-1.203zm-6.234-.438v-1.312h-3.125v-1.25h3.125v-1.375h1.437v3.937zm-1.125 1.422v1.922h2.03v-1.922zm.14 2.906l-1.219-1.218v-1.47l1.22-1.202h1.796l1.219 1.203v1.469l-1.219 1.218zm3.875 4.313v-1.328h-2.797v1.328zm0 2.484v-1.36h-2.797v1.36zm0 2.688v-1.547h-2.797v1.547zm4.547 1.187h-7.344v1.156h-1.297v-7.406l-1.218 1.422-.813-1.078c1.32-1.3 2.336-2.852 3.047-4.656l1.188.343-.594 1.344h2.703l-.688-1.156 1.11-.469c.445.606.758 1.149.937 1.625h3.078v1.188h-3.28v1.328h2.843v1.125h-2.844v1.36h2.969v1.14h-2.969v1.547h3.172zm5.375-13.219v1.25c0 .875-.031 1.72-.094 2.532.79 4.761 2.317 7.875 4.578 9.343l-1.078 1.344c-1.761-1.304-3.105-3.656-4.03-7.062-.65 2.773-1.872 5.12-3.673 7.047l-1.187-1.079c1.77-1.863 2.906-3.984 3.406-6.359.25-1.144.41-2.133.484-2.969.07-.843.11-1.785.11-2.828v-1.219zm0 0" fill="#3E3A39"/><path d="M392.515 750.722v14.234H391v-14.484l1.219-1.188h4.109l1.203 1.22v9.89c0 .761-.242 1.25-.719 1.468-.386.18-1.297.266-2.734.266l-.516-1.406c1.114.031 1.801.043 2.063.031.258-.02.39-.144.39-.375v-9.656zm-5.671 9.469l3.484-1.079.11 1.438c-3.231 1.117-5.016 1.805-5.36 2.062l-.672-1.312c.602-.344.906-.863.906-1.563v-8.75l1.297-1.718c.977-.352 1.992-.91 3.047-1.672l1.172 1.187-3.984 1.828zm-3.547-9.141l-1.266.875-2.75-3.5 1.188-.75zm-.11 7.031l.813.313c-.305 1.836-.762 3.449-1.375 4.843.656 1.094 1.629 1.829 2.922 2.204 1.289.343 3.187.515 5.687.515 2.508 0 4.969-.094 7.375-.281l-.515 1.562c-2.211.114-4.57.172-7.079.172-2.5 0-4.433-.199-5.796-.593-1.356-.399-2.434-1.172-3.235-2.329-.781 1.368-1.773 2.461-2.969 3.297l-1.078-1.125c2.207-1.406 3.672-3.8 4.39-7.187h-2.28c-.649 0-1.075.105-1.282.312l-.593-1.5c.414-.113.77-.316 1.062-.609.477-.531 1.348-1.734 2.61-3.61h-3.375v-1.343h4.343l.266-.11 1.078.485c-1.273 1.918-2.496 3.594-3.672 5.031zm0 0" fill="#3E3A39"/><path d="M404.574 764.987h11.719v-3.25h-11.719zm11.719-7.984h-11.719v3.188h11.719zm0-4.812h-11.719v3.28h11.719zm-6.203-1.563h6.687l1.219 1.203v15.828h-1.703v-1.125h-11.719v1.235h-1.625v-15.953l1.203-1.188h4.313l.859-3.016 1.875.25zm0 0" fill="#3E3A39"/><path d="M426.476 747.644l1.5.437a52.554 52.554 0 0 1-1.687 4.5v15.125h-1.594V755.66c-.5.868-1.078 1.727-1.734 2.578l-.875-1.671c1.844-2.258 3.304-5.235 4.39-8.922zm6.735 3.75v2.14h3.672v-2.14zm6.234 8.61v-1.845h-3.437v1.844zm-3.437 3.171h3.437v-1.922h-3.437zm-5.11 0h3.61v-1.922h-3.5zm.11-5.016v1.844h3.5v-1.844zm11-3.109h-9.36l-1.281 1.719h8.422l1.219 1.203v8.094c0 .675-.196 1.109-.578 1.296-.387.196-1.149.297-2.282.297l-.468-1.328h1.421c.227 0 .344-.094.344-.281v-1.625h-3.437v2.797h-1.5v-2.797h-3.782c-.312 1.418-.796 2.547-1.453 3.39l-1.297-1c.97-1.257 1.454-3.206 1.454-5.843v-2.36c-.47.387-1.102.836-1.891 1.344l-.969-1.297c1.8-.957 3.242-2.16 4.328-3.609h-3.187v-1.516h3.937v-2.14h-3.312v-1.485h3.312v-2.156h1.563v2.156h3.672v-2.156h1.593v2.156h2.97v1.485h-2.97v2.14h3.532zm0 0" fill="#3E3A39"/><path d="M455.16 751.378l.922-.906a35.1 35.1 0 0 1 3.047 1.547c.894-.719 1.562-1.461 2-2.235h-5.938v-1.203l6.953-.062.922.422c-.543 1.437-1.445 2.703-2.703 3.796 1.313.825 2.274 1.516 2.89 2.079l-1.03 1.046c-.72-.695-1.727-1.437-3.016-2.218-.938.605-1.867 1.07-2.781 1.39l-.844-1.172a9.059 9.059 0 0 0 2.328-1.03 40.434 40.434 0 0 0-2.75-1.454zm-3.453.484h-3.828l-.75.797c.695.344 1.43.82 2.203 1.422.969-.644 1.758-1.383 2.375-2.219zm1.062-1.109l.922.531c-.73 1.43-1.851 2.664-3.36 3.703a18.607 18.607 0 0 1-4.937 2.375l-.812-1.109c1.187-.289 2.422-.781 3.703-1.469l-2.016-1.39-1.109.797-.922-.86c1.52-.863 2.645-1.926 3.375-3.187l1.344.218-.281.47h.421v-3.188h1.407v1.047h3.797v1.093h-3.797v1.047zm8.563 11.938l1.203.734a25.636 25.636 0 0 1-2.469 1.906c1.25.48 2.27.914 3.063 1.313l-.813 1.062c-.906-.5-2.164-1.07-3.765-1.703a55.913 55.913 0 0 0-4.5-1.625l.765-.906a61.58 61.58 0 0 1 4.016 1.375c.988-.77 1.82-1.488 2.5-2.156zm-11.953-4.25h10.297l-2.657-1.282v.532h-5.25l.032-.547zm.687 4h8.64v-1.125h-8.64zm8.64-1.907v-1.078h-8.64v1.078zm-6.327-3.797h3.906a17.592 17.592 0 0 1-2.094-1.406c-.5.461-1.105.93-1.812 1.406zm1.906-3.421l1.281.64-.515.547c1.082.824 2.507 1.617 4.28 2.375 1.782.762 3.493 1.324 5.141 1.688l-.953 1.234-3.25-1.125v3.547l-1.203 1.203h-9v2.453l4.813-.703v1.266c-3.93.601-6.102 1-6.516 1.187l-.562-1.203c.445-.281.671-.734.671-1.36v-6.203c-1.054.45-2.148.844-3.28 1.188l-.923-1.266a26.254 26.254 0 0 0 5.813-2.218c1.82-.97 3.223-2.051 4.203-3.25zm0 0" fill="#3E3A39"/><path d="M471.547 759.425v1.984h9.687v-1.984zm9.687-9.375h-9.687v1.875h9.687zm0 6.234h-9.687v1.891h9.687zm0-1.25v-1.859h-9.687v1.86zm4.875 6.375v1.5h-19.625v-1.5h3.5v-11.5l1.219-1.218h10.453l1.203 1.218v11.5zm-13.594 1.672l1.547.985c-1.793 1.398-4 2.617-6.625 3.671l-1.187-1.203a28.053 28.053 0 0 0 3.515-1.625c1.188-.644 2.102-1.254 2.75-1.828zm6.079 1.063l1.03-1.125c2.614 1.168 4.86 2.336 6.735 3.5l-1.297 1.218c-1.718-1.187-3.875-2.382-6.468-3.593zm0 0" fill="#3E3A39"/><path d="M487.512 769.987l6.609-21.406h1.453l-6.578 21.406zm0 0" fill="#3E3A39"/><path d="M192.77 796.41h3.921v-3.423h-3.922zm-4.985 0v-3.423h-3.75v3.422zm-.266-12.344v-3.344h-3.921v3.344zm5.438-3.344v3.344h4.078v-3.344zm7.36 11.64l-1.141.97-.985-.845v5.829h-1.5v-.563h-3.922v.703h-1.453v-5.594l1.22-1.203h4.5a33.64 33.64 0 0 0-4.829-2.78h-4.188c-.949 1.03-2.078 1.96-3.39 2.78h3.453l1.219 1.203v5.454h-1.516v-.563h-3.75v.703h-1.453V792.8l-1.625.703-.922-1.187c2.375-.883 4.348-2.032 5.922-3.438h-5.438v-1.406h6.782l1.406-2.063h-5.344l-1.219-1.218v-3.61l1.22-1.203h4.452l1.22 1.203v4.422l1.5.297-1.329 2.172h6.297l-2.64-1.313.702-.75h-.843l-1.204-1.218v-3.61l1.204-1.203h4.609l1.203 1.203v3.61l-1.203 1.218h-3.406c1.281.5 2.242 1.008 2.89 1.516l-.5.547h3.844v1.406h-5.14c2.374 1.262 4.14 2.422 5.296 3.484zm0 0" fill="#3E3A39"/><path d="M206.078 782.347v13.11h3.14v-13.11zm7.86 0h-3.157v13.11h3.156zm4.765 0H215.5v13.11h3.203zm1.64 13.11h2.063v1.655h-20.11v-1.656h2.204v-13.531l1.203-1.203h13.422l1.219 1.203zm0 0" fill="#3E3A39"/><path d="M225.652 777.972c2.914 2.96 4.375 6.45 4.375 10.469 0 4.023-1.46 7.511-4.375 10.468l-1.312-.672c2.726-2.82 4.093-6.085 4.093-9.796 0-3.707-1.367-6.973-4.093-9.797zm0 0" fill="#3E3A39"/></svg>