<svg xmlns="http://www.w3.org/2000/svg" xmlns:xlink="http://www.w3.org/1999/xlink" width="1080" zoomAndPan="magnify" viewBox="0 0 810 809.999993" height="1080" preserveAspectRatio="xMidYMid meet" version="1.0"><defs><g><g id="id1"/></g></defs><rect x="-81" width="972" fill="rgb(85.099792%, 96.469116%, 88.238525%)" y="-80.999999" height="971.999992" fill-opacity="1"/><rect x="-81" width="972" fill="rgb(100%, 100%, 100%)" y="-80.999999" height="971.999992" fill-opacity="1"/><rect x="-81" width="972" fill="rgb(85.099792%, 96.469116%, 88.238525%)" y="-80.999999" height="971.999992" fill-opacity="1"/><path fill="rgb(100%, 100%, 100%)" d="M 508.042969 539.335938 L 508.042969 270.835938 L 181.648438 270.835938 L 181.648438 539.335938 C 181.648438 539.335938 508.042969 539.335938 508.042969 539.335938 M 146.8125 449.535156 L 146.8125 506.273438 C 146.8125 523.753906 162.40625 539.335938 181.648438 539.335938 L 181.648438 270.835938 C 162.40625 270.835938 146.8125 286.417969 146.8125 305.648438 L 146.8125 416.414062 C 111.175781 415.34375 75.804688 417.035156 59.144531 414.007812 C 87.476562 427.097656 117.945312 436.625 146.8125 449.535156 M 542.878906 506.273438 L 542.878906 305.648438 C 542.878906 286.417969 527.289062 270.835938 508.042969 270.835938 L 508.042969 539.335938 C 527.289062 539.335938 542.878906 523.753906 542.878906 506.273438 " fill-opacity="1" fill-rule="nonzero"/><g fill="rgb(24.308777%, 22.749329%, 22.349548%)" fill-opacity="1"><g transform="translate(179.331952, 318.791841)"><g><path d="M 11.0625 -16.109375 L 11.0625 -14.734375 L 1.4375 -14.734375 L 1.4375 -16.109375 L 5.734375 -16.109375 L 4.78125 -18.109375 L 6.359375 -18.53125 L 7.609375 -16.109375 Z M 5.0625 -11.59375 L 3.703125 -11.21875 L 2.859375 -14.28125 L 4.15625 -14.59375 C 4.65625 -13.5 4.957031 -12.5 5.0625 -11.59375 Z M 3.125 -4.859375 L 4.46875 -4.484375 C 3.925781 -2.867188 3.171875 -1.410156 2.203125 -0.109375 L 1.0625 -0.90625 C 1.945312 -1.988281 2.632812 -3.304688 3.125 -4.859375 Z M 11.15625 -6.03125 L 7.171875 -6.03125 L 7.171875 1.609375 L 5.5625 1.609375 L 5.5625 -6.03125 L 1.1875 -6.03125 L 1.1875 -7.4375 L 5.5625 -7.4375 L 5.5625 -9.75 L 1.078125 -9.75 L 1.078125 -11.125 L 7.15625 -11.125 L 8.34375 -14.609375 L 9.828125 -14.296875 L 8.609375 -11.125 L 11.390625 -11.125 L 11.390625 -9.75 L 7.171875 -9.75 L 7.171875 -7.4375 L 11.15625 -7.4375 Z M 8.15625 -4.40625 L 9.28125 -5 L 11.125 -1.546875 L 9.96875 -0.875 Z M 20.984375 -11.046875 L 20.984375 -9.5 L 18.59375 -9.5 L 18.59375 1.578125 L 17 1.578125 L 17 -9.5 L 13.984375 -9.5 L 13.984375 -8.734375 C 13.984375 -4.035156 13.222656 -0.597656 11.703125 1.578125 L 10.453125 0.59375 C 11.273438 -0.582031 11.816406 -1.945312 12.078125 -3.5 C 12.335938 -5.070312 12.46875 -6.816406 12.46875 -8.734375 L 12.46875 -15.09375 L 13.921875 -16.546875 C 15.921875 -16.847656 17.71875 -17.335938 19.3125 -18.015625 L 20.609375 -16.8125 C 18.910156 -16.164062 16.703125 -15.632812 13.984375 -15.21875 L 13.984375 -11.046875 Z M 20.984375 -11.046875 "/></g></g></g><g fill="rgb(24.308777%, 22.749329%, 22.349548%)" fill-opacity="1"><g transform="translate(201.328033, 318.791841)"><g><path d="M 17.3125 -0.921875 L 17.3125 -4.859375 L 8.03125 -4.859375 L 8.03125 -0.921875 Z M 12.890625 -13.421875 L 12.890625 -10.828125 L 20 -10.828125 L 20 -9.328125 L 12.890625 -9.328125 L 12.890625 -6.375 L 17.734375 -6.375 L 18.9375 -5.171875 L 18.9375 1.359375 L 17.3125 1.359375 L 17.3125 0.53125 L 8.03125 0.53125 L 8.03125 1.40625 L 6.453125 1.40625 L 6.453125 -5.171875 L 7.65625 -6.375 L 11.234375 -6.375 L 11.234375 -13.421875 Z M 13.25 -15.734375 L 20.6875 -15.734375 L 20.6875 -14.140625 L 4.484375 -14.140625 L 4.484375 -10.03125 C 4.484375 -4.789062 3.722656 -0.882812 2.203125 1.6875 L 0.765625 0.765625 C 2.148438 -1.566406 2.84375 -5.164062 2.84375 -10.03125 L 2.84375 -14.515625 L 4.046875 -15.734375 L 11.421875 -15.734375 L 10.28125 -17.953125 L 11.84375 -18.34375 Z M 13.25 -15.734375 "/></g></g></g><g fill="rgb(24.308777%, 22.749329%, 22.349548%)" fill-opacity="1"><g transform="translate(223.324115, 318.791841)"><g><path d="M 17.796875 -14.703125 L 17.796875 -16.4375 L 10.515625 -16.4375 L 10.515625 -14.703125 Z M 17.796875 -11.796875 L 17.796875 -13.546875 L 10.515625 -13.546875 L 10.515625 -11.796875 Z M 18.15625 -17.671875 L 19.359375 -16.453125 L 19.359375 -11.75 L 18.15625 -10.53125 L 10.234375 -10.53125 L 9.015625 -11.75 L 9.015625 -16.453125 L 10.234375 -17.671875 Z M 7.609375 -7.328125 L 5.1875 -6.515625 L 5.1875 -0.359375 C 5.1875 0.460938 4.9375 0.992188 4.4375 1.234375 C 4 1.453125 3.09375 1.554688 1.71875 1.546875 L 1.234375 0.015625 C 1.859375 0.0351562 2.546875 0.046875 3.296875 0.046875 C 3.546875 0.046875 3.671875 -0.09375 3.671875 -0.375 L 3.671875 -6.03125 L 1.125 -5.21875 L 0.71875 -6.796875 L 3.671875 -7.65625 L 3.671875 -12.46875 L 0.96875 -12.46875 L 0.96875 -13.984375 L 3.671875 -13.984375 L 3.671875 -18.375 L 5.1875 -18.375 L 5.1875 -13.984375 L 7.609375 -13.984375 L 7.609375 -12.46875 L 5.1875 -12.46875 L 5.1875 -8.140625 L 7.40625 -8.828125 Z M 14.9375 -3.671875 L 14.9375 -0.21875 C 15.570312 -0.132812 16.65625 -0.09375 18.1875 -0.09375 C 19.726562 -0.09375 20.75 -0.0976562 21.25 -0.109375 L 20.765625 1.34375 L 16.9375 1.34375 C 15.175781 1.34375 13.753906 1.085938 12.671875 0.578125 C 11.585938 0.078125 10.707031 -0.890625 10.03125 -2.328125 C 9.445312 -0.691406 8.570312 0.644531 7.40625 1.6875 L 6.1875 0.703125 C 8 -0.722656 9.085938 -3.144531 9.453125 -6.5625 L 10.953125 -6.375 C 10.835938 -5.46875 10.695312 -4.691406 10.53125 -4.046875 C 11.09375 -2.347656 12.046875 -1.210938 13.390625 -0.640625 L 13.390625 -7.59375 L 8.03125 -7.59375 L 8.03125 -8.96875 L 20.59375 -8.96875 L 20.59375 -7.59375 L 14.9375 -7.59375 L 14.9375 -5.015625 L 19.484375 -5.015625 L 19.484375 -3.671875 Z M 14.9375 -3.671875 "/></g></g></g><g fill="rgb(24.308777%, 22.749329%, 22.349548%)" fill-opacity="1"><g transform="translate(245.320196, 318.791841)"><g><path d="M 8.78125 -0.703125 L 17.796875 -0.703125 L 17.796875 -6.109375 L 8.78125 -6.109375 Z M 14.234375 -14.734375 L 7.671875 -14.734375 L 6.109375 -13.140625 C 7.796875 -11.953125 9.1875 -10.769531 10.28125 -9.59375 C 12.007812 -11.175781 13.328125 -12.890625 14.234375 -14.734375 Z M 18.234375 -7.609375 L 19.453125 -6.40625 L 19.453125 1.71875 L 17.796875 1.71875 L 17.796875 0.796875 L 8.78125 0.796875 L 8.78125 1.671875 L 7.171875 1.671875 L 7.171875 -5.28125 C 5.378906 -4.226562 3.578125 -3.40625 1.765625 -2.8125 L 0.796875 -4.25 C 3.753906 -5.113281 6.472656 -6.519531 8.953125 -8.46875 C 7.953125 -9.613281 6.609375 -10.816406 4.921875 -12.078125 C 3.941406 -11.285156 2.984375 -10.617188 2.046875 -10.078125 L 0.90625 -11.328125 C 2.601562 -12.253906 4.082031 -13.351562 5.34375 -14.625 C 6.625 -15.90625 7.609375 -17.191406 8.296875 -18.484375 L 10.125 -18.109375 L 8.859375 -16.21875 L 15.375 -16.296875 L 16.453125 -15.734375 C 15.234375 -12.660156 13.234375 -9.953125 10.453125 -7.609375 Z M 18.234375 -7.609375 "/></g></g></g><g fill="rgb(24.308777%, 22.749329%, 22.349548%)" fill-opacity="1"><g transform="translate(267.316278, 318.791841)"><g><path d="M 9.796875 -5.328125 C 9.691406 -5.898438 9.71875 -6.441406 9.875 -6.953125 C 10.050781 -7.460938 10.304688 -7.894531 10.640625 -8.25 C 10.984375 -8.601562 11.359375 -8.960938 11.765625 -9.328125 C 12.191406 -9.691406 12.585938 -10.019531 12.953125 -10.3125 C 13.335938 -10.613281 13.65625 -10.953125 13.90625 -11.328125 C 14.164062 -11.710938 14.296875 -12.09375 14.296875 -12.46875 C 14.296875 -13.257812 14.007812 -13.890625 13.4375 -14.359375 C 12.863281 -14.847656 12.035156 -15.09375 10.953125 -15.09375 C 9.460938 -15.09375 8.078125 -14.425781 6.796875 -13.09375 L 5.609375 -14.1875 C 7.210938 -15.882812 9.066406 -16.734375 11.171875 -16.734375 C 12.734375 -16.734375 13.96875 -16.363281 14.875 -15.625 C 15.800781 -14.882812 16.265625 -13.882812 16.265625 -12.625 C 16.265625 -12.019531 16.078125 -11.457031 15.703125 -10.9375 C 15.359375 -10.40625 14.9375 -9.941406 14.4375 -9.546875 C 13.945312 -9.160156 13.460938 -8.769531 12.984375 -8.375 C 11.867188 -7.46875 11.40625 -6.453125 11.59375 -5.328125 Z M 11.71875 -0.28125 C 11.457031 -0.0195312 11.125 0.109375 10.71875 0.109375 C 10.320312 0.109375 9.984375 -0.0195312 9.703125 -0.28125 C 9.441406 -0.5625 9.3125 -0.914062 9.3125 -1.34375 C 9.3125 -1.769531 9.441406 -2.117188 9.703125 -2.390625 C 9.984375 -2.671875 10.320312 -2.8125 10.71875 -2.8125 C 11.125 -2.8125 11.457031 -2.671875 11.71875 -2.390625 C 12 -2.117188 12.140625 -1.769531 12.140625 -1.34375 C 12.140625 -0.914062 12 -0.5625 11.71875 -0.28125 Z M 11.71875 -0.28125 "/></g></g></g><g fill="rgb(24.308777%, 22.749329%, 22.349548%)" fill-opacity="1"><g transform="translate(289.312359, 318.791841)"><g><path d="M 13.15625 -15.640625 L 10.890625 -15.640625 C 10.390625 -14.773438 9.835938 -14.039062 9.234375 -13.4375 L 8.015625 -14.28125 C 9.171875 -15.332031 10.007812 -16.722656 10.53125 -18.453125 L 12.015625 -18.125 L 11.546875 -16.921875 L 19.1875 -16.984375 L 20.28125 -16.609375 L 18.4375 -13.4375 L 17.140625 -13.90625 L 18.171875 -15.640625 L 14.671875 -15.640625 L 14.671875 -14.625 C 15.816406 -13.28125 17.941406 -12.472656 21.046875 -12.203125 L 20.125 -10.90625 C 17.5 -11.28125 15.503906 -12.140625 14.140625 -13.484375 C 13.296875 -12.210938 11.1875 -11.316406 7.8125 -10.796875 L 6.9375 -12.015625 C 9.9375 -12.421875 11.816406 -13.066406 12.578125 -13.953125 C 12.828125 -14.222656 12.984375 -14.472656 13.046875 -14.703125 Z M 5.609375 -4.4375 L 5.609375 -2.90625 L 16.625 -2.90625 L 16.625 -4.4375 Z M 5.609375 -7 L 5.609375 -5.5 L 16.625 -5.5 L 16.625 -7 Z M 5.609375 -9.546875 L 5.609375 -8.046875 L 16.625 -8.046875 L 16.625 -9.546875 Z M 5.234375 -1.828125 L 4.03125 -3.03125 L 4.03125 -9.4375 L 5.234375 -10.640625 L 17.046875 -10.640625 L 18.265625 -9.4375 L 18.265625 -3.03125 L 17.046875 -1.828125 Z M 6.890625 -17.09375 L 6.890625 -15.8125 L 1.625 -15.8125 L 1.625 -17.09375 Z M 7.4375 -13.6875 L 7.4375 -12.359375 L 1.140625 -12.359375 L 1.140625 -13.6875 Z M 7.703125 -1.671875 L 9.171875 -1.015625 C 7.429688 0.0234375 5.195312 0.921875 2.46875 1.671875 L 1.25 0.4375 C 4.019531 -0.132812 6.171875 -0.835938 7.703125 -1.671875 Z M 13.0625 -0.8125 L 14.1875 -1.6875 C 16.800781 -0.882812 18.957031 -0.09375 20.65625 0.6875 L 19.234375 1.625 C 17.671875 0.851562 15.613281 0.0390625 13.0625 -0.8125 Z M 13.0625 -0.8125 "/></g></g></g><g fill="rgb(24.308777%, 22.749329%, 22.349548%)" fill-opacity="1"><g transform="translate(311.30844, 318.791841)"><g><path d="M 15.640625 -14.171875 L 14.8125 -12.90625 C 14.070312 -13.789062 12.921875 -14.738281 11.359375 -15.75 L 12.1875 -16.859375 C 13.769531 -15.890625 14.921875 -14.992188 15.640625 -14.171875 Z M 14.703125 -8.90625 L 13.875 -7.59375 C 13.5 -8 12.957031 -8.453125 12.25 -8.953125 C 11.5625 -9.453125 10.890625 -9.878906 10.234375 -10.234375 L 11 -11.375 C 12.769531 -10.445312 14.003906 -9.625 14.703125 -8.90625 Z M 8.34375 -17.078125 L 9.75 -16.71875 C 9 -14.375 8.394531 -12.734375 7.9375 -11.796875 L 6.859375 -12.140625 C 7.398438 -13.492188 7.894531 -15.140625 8.34375 -17.078125 Z M 3.765625 -12.171875 L 2.484375 -11.84375 C 2.328125 -13.394531 1.925781 -15.015625 1.28125 -16.703125 L 2.46875 -16.984375 C 3.132812 -15.367188 3.566406 -13.765625 3.765625 -12.171875 Z M 3.015625 -8.25 L 4.203125 -7.875 C 3.953125 -6.53125 3.597656 -5.1875 3.140625 -3.84375 C 2.691406 -2.53125 2.203125 -1.503906 1.671875 -0.765625 L 0.84375 -2.578125 C 1.28125 -3.203125 1.703125 -4.050781 2.109375 -5.125 C 2.523438 -6.207031 2.828125 -7.25 3.015625 -8.25 Z M 9.765625 -9.53125 L 6.15625 -9.53125 L 6.15625 1.6875 L 4.640625 1.6875 L 4.640625 -9.53125 L 1.125 -9.53125 L 1.125 -11.0625 L 4.640625 -11.0625 L 4.640625 -18.390625 L 6.15625 -18.390625 L 6.15625 -11.0625 L 9.765625 -11.0625 Z M 6.265625 -7.59375 L 7.171875 -8.234375 C 7.378906 -7.921875 7.773438 -7.207031 8.359375 -6.09375 C 8.941406 -4.976562 9.320312 -4.226562 9.5 -3.84375 L 8.34375 -2.640625 C 8.164062 -3.191406 7.84375 -4.019531 7.375 -5.125 C 6.90625 -6.226562 6.535156 -7.050781 6.265625 -7.59375 Z M 21.171875 -5.015625 L 18.328125 -4.515625 L 18.328125 1.671875 L 16.78125 1.671875 L 16.78125 -4.21875 L 9.96875 -2.984375 L 9.703125 -4.515625 L 16.78125 -5.765625 L 16.78125 -18.390625 L 18.328125 -18.390625 L 18.328125 -6.046875 L 20.921875 -6.515625 Z M 21.171875 -5.015625 "/></g></g></g><g fill="rgb(24.308777%, 22.749329%, 22.349548%)" fill-opacity="1"><g transform="translate(333.304522, 318.791841)"><g><path d="M 16.4375 -7.78125 L 16.4375 -10.015625 L 7.265625 -10.015625 L 7.265625 -7.78125 Z M 7.265625 -4.0625 L 16.4375 -4.0625 L 16.4375 -6.375 L 7.265625 -6.375 Z M 20.609375 -14.03125 L 8.734375 -14.03125 L 7.390625 -11.484375 L 16.828125 -11.484375 L 18.046875 -10.28125 L 18.046875 -0.375 C 18.046875 0.125 17.976562 0.503906 17.84375 0.765625 C 17.707031 1.035156 17.421875 1.25 16.984375 1.40625 C 16.546875 1.570312 15.3125 1.65625 13.28125 1.65625 L 12.734375 0.046875 C 13.398438 0.078125 14.460938 0.09375 15.921875 0.09375 C 16.265625 0.0703125 16.4375 -0.0820312 16.4375 -0.375 L 16.4375 -2.65625 L 7 -2.65625 C 6.65625 -0.769531 5.90625 0.710938 4.75 1.796875 L 3.609375 0.53125 C 4.429688 -0.257812 4.972656 -1.171875 5.234375 -2.203125 C 5.492188 -3.242188 5.625 -4.421875 5.625 -5.734375 L 5.625 -8.953125 C 4.507812 -7.585938 3.320312 -6.46875 2.0625 -5.59375 L 1.03125 -6.859375 C 3.46875 -8.503906 5.441406 -10.894531 6.953125 -14.03125 L 1.46875 -14.03125 L 1.46875 -15.578125 L 7.65625 -15.578125 L 8.625 -18.40625 L 10.25 -18.015625 L 9.390625 -15.578125 L 20.609375 -15.578125 Z M 20.609375 -14.03125 "/></g></g></g><g fill="rgb(24.308777%, 22.749329%, 22.349548%)" fill-opacity="1"><g transform="translate(355.300603, 318.791841)"><g><path d="M 17.625 -12.65625 L 17.625 -16.375 L 13.390625 -16.375 L 13.390625 -12.65625 Z M 17.953125 -17.734375 L 19.15625 -16.515625 L 19.15625 -12.46875 L 17.953125 -11.265625 L 13.15625 -11.265625 L 11.953125 -12.46875 L 11.953125 -16.515625 L 13.15625 -17.734375 Z M 6.15625 -15.4375 L 4.734375 -14.875 L 3.34375 -17.84375 L 4.734375 -18.328125 Z M 8.71875 -14.765625 L 8.71875 -13.390625 L 0.921875 -13.390625 L 0.921875 -14.765625 Z M 6.625 -4.578125 L 3.109375 -4.578125 L 3.109375 -0.90625 L 6.625 -0.90625 Z M 6.8125 -5.921875 L 8.03125 -4.703125 L 8.03125 -0.765625 L 6.8125 0.4375 L 3.109375 0.4375 L 3.109375 1.453125 L 1.6875 1.453125 L 1.6875 -4.703125 L 2.90625 -5.921875 Z M 1.71875 -7.5625 L 1.71875 -8.890625 L 8.046875 -8.890625 L 8.046875 -7.5625 Z M 1.71875 -10.5 L 1.71875 -11.796875 L 8.046875 -11.796875 L 8.046875 -10.5 Z M 15.265625 -8.34375 L 15.265625 -5.5 L 18.328125 -5.5 L 18.328125 -8.34375 Z M 21.046875 -4 L 15.046875 -4 C 14.785156 -2.8125 14.191406 -1.734375 13.265625 -0.765625 C 12.359375 0.203125 10.96875 1.035156 9.09375 1.734375 L 8.078125 0.546875 C 11.054688 -0.523438 12.84375 -2.039062 13.4375 -4 L 8.578125 -4 L 8.578125 -5.5 L 13.734375 -5.5 L 13.75 -8.34375 L 10.84375 -8.34375 L 9.640625 -9.546875 L 9.640625 -16.34375 L 11.0625 -16.34375 L 11.0625 -9.765625 L 18.671875 -9.765625 L 19.890625 -8.5625 L 19.890625 -5.5 L 21.046875 -5.5 Z M 14.703125 -2.140625 L 15.6875 -3.171875 C 18.125 -1.671875 19.960938 -0.445312 21.203125 0.5 L 20.21875 1.6875 C 19.007812 0.707031 17.171875 -0.566406 14.703125 -2.140625 Z M 14.703125 -2.140625 "/></g></g></g><g fill="rgb(24.308777%, 22.749329%, 22.349548%)" fill-opacity="1"><g transform="translate(377.296696, 318.791841)"><g><path d="M 9.796875 -5.328125 C 9.691406 -5.898438 9.71875 -6.441406 9.875 -6.953125 C 10.050781 -7.460938 10.304688 -7.894531 10.640625 -8.25 C 10.984375 -8.601562 11.359375 -8.960938 11.765625 -9.328125 C 12.191406 -9.691406 12.585938 -10.019531 12.953125 -10.3125 C 13.335938 -10.613281 13.65625 -10.953125 13.90625 -11.328125 C 14.164062 -11.710938 14.296875 -12.09375 14.296875 -12.46875 C 14.296875 -13.257812 14.007812 -13.890625 13.4375 -14.359375 C 12.863281 -14.847656 12.035156 -15.09375 10.953125 -15.09375 C 9.460938 -15.09375 8.078125 -14.425781 6.796875 -13.09375 L 5.609375 -14.1875 C 7.210938 -15.882812 9.066406 -16.734375 11.171875 -16.734375 C 12.734375 -16.734375 13.96875 -16.363281 14.875 -15.625 C 15.800781 -14.882812 16.265625 -13.882812 16.265625 -12.625 C 16.265625 -12.019531 16.078125 -11.457031 15.703125 -10.9375 C 15.359375 -10.40625 14.9375 -9.941406 14.4375 -9.546875 C 13.945312 -9.160156 13.460938 -8.769531 12.984375 -8.375 C 11.867188 -7.46875 11.40625 -6.453125 11.59375 -5.328125 Z M 11.71875 -0.28125 C 11.457031 -0.0195312 11.125 0.109375 10.71875 0.109375 C 10.320312 0.109375 9.984375 -0.0195312 9.703125 -0.28125 C 9.441406 -0.5625 9.3125 -0.914062 9.3125 -1.34375 C 9.3125 -1.769531 9.441406 -2.117188 9.703125 -2.390625 C 9.984375 -2.671875 10.320312 -2.8125 10.71875 -2.8125 C 11.125 -2.8125 11.457031 -2.671875 11.71875 -2.390625 C 12 -2.117188 12.140625 -1.769531 12.140625 -1.34375 C 12.140625 -0.914062 12 -0.5625 11.71875 -0.28125 Z M 11.71875 -0.28125 "/></g></g></g><g fill="rgb(24.308777%, 22.749329%, 22.349548%)" fill-opacity="1"><g transform="translate(399.292789, 318.791841)"><g><path d="M 6.140625 -18.453125 L 7.671875 -17.96875 C 7.085938 -16.519531 6.332031 -14.992188 5.40625 -13.390625 L 5.40625 1.78125 L 3.84375 1.78125 L 3.84375 -11.046875 C 3.113281 -10.015625 2.3125 -9.0625 1.4375 -8.1875 L 0.5 -9.765625 C 1.613281 -10.804688 2.671875 -12.097656 3.671875 -13.640625 C 4.679688 -15.191406 5.503906 -16.796875 6.140625 -18.453125 Z M 9.234375 -7.671875 L 13.140625 -7.671875 L 13.15625 -10.9375 L 9.234375 -10.9375 Z M 18.8125 -10.9375 L 14.765625 -10.9375 L 14.765625 -7.671875 L 18.8125 -7.671875 Z M 20.375 -7.5 L 19.15625 -6.296875 L 14.65625 -6.296875 C 14.457031 -4.585938 13.972656 -3.175781 13.203125 -2.0625 C 15.316406 -0.90625 18.015625 -0.128906 21.296875 0.265625 L 20.328125 1.734375 C 17.085938 1.253906 14.390625 0.367188 12.234375 -0.921875 C 11.054688 0.234375 9.398438 1.128906 7.265625 1.765625 L 6.265625 0.390625 C 8.273438 -0.117188 9.820312 -0.859375 10.90625 -1.828125 C 9.59375 -2.804688 8.53125 -3.992188 7.71875 -5.390625 L 9.09375 -5.828125 C 9.726562 -4.734375 10.648438 -3.757812 11.859375 -2.90625 C 12.472656 -3.800781 12.867188 -4.929688 13.046875 -6.296875 L 8.9375 -6.296875 L 7.71875 -7.5 L 7.71875 -11.109375 L 8.9375 -12.3125 L 13.15625 -12.3125 L 13.15625 -14.46875 L 7.078125 -14.46875 L 7.078125 -15.96875 L 13.15625 -15.96875 L 13.15625 -18.296875 L 14.765625 -18.296875 L 14.765625 -15.96875 L 21.09375 -15.96875 L 21.09375 -14.46875 L 14.765625 -14.46875 L 14.765625 -12.3125 L 19.15625 -12.3125 L 20.375 -11.109375 Z M 20.375 -7.5 "/></g></g></g><g fill="rgb(24.308777%, 22.749329%, 22.349548%)" fill-opacity="1"><g transform="translate(421.288881, 318.791841)"><g><path d="M 11.921875 -6.578125 L 17.84375 -6.578125 L 17.84375 -10.234375 L 11.921875 -10.234375 Z M 4.953125 -6.578125 L 10.296875 -6.578125 L 10.296875 -10.234375 L 5.03125 -10.234375 Z M 10.296875 -15.296875 L 5.03125 -15.296875 L 5.03125 -11.765625 L 10.296875 -11.765625 Z M 17.84375 -11.765625 L 17.84375 -15.296875 L 11.921875 -15.296875 L 11.921875 -11.765625 Z M 18.234375 -16.859375 L 19.453125 -15.640625 L 19.453125 -0.53125 C 19.453125 0 19.367188 0.394531 19.203125 0.65625 C 19.054688 0.9375 18.804688 1.148438 18.453125 1.296875 C 17.898438 1.503906 16.535156 1.59375 14.359375 1.5625 L 13.8125 -0.015625 C 14.5 0.00390625 15.644531 0.015625 17.25 0.015625 C 17.46875 0.00390625 17.617188 -0.0351562 17.703125 -0.109375 C 17.796875 -0.191406 17.84375 -0.335938 17.84375 -0.546875 L 17.84375 -5.015625 L 11.921875 -5.015625 L 11.921875 1.46875 L 10.296875 1.46875 L 10.296875 -5.015625 L 4.796875 -5.015625 C 4.398438 -2.066406 3.484375 0.203125 2.046875 1.796875 L 0.796875 0.71875 C 1.941406 -0.5625 2.6875 -2.144531 3.03125 -4.03125 C 3.300781 -5.488281 3.4375 -7.125 3.4375 -8.9375 L 3.4375 -15.640625 L 4.640625 -16.859375 Z M 18.234375 -16.859375 "/></g></g></g><g fill="rgb(24.308777%, 22.749329%, 22.349548%)" fill-opacity="1"><g transform="translate(443.284974, 318.791841)"><g><path d="M 9.546875 -12.9375 L 9.71875 -11.53125 L 4.625 -11.390625 C 3.757812 -11.390625 3.171875 -11.5625 2.859375 -11.90625 C 2.546875 -12.257812 2.390625 -12.875 2.390625 -13.75 L 2.390625 -18.34375 L 3.984375 -18.34375 L 3.984375 -16.484375 L 9.484375 -16.484375 L 9.484375 -15.15625 L 3.984375 -15.15625 L 4.109375 -13 C 4.210938 -12.882812 4.40625 -12.828125 4.6875 -12.828125 Z M 9.75 -1.34375 L 8.78125 -0.0625 C 8.144531 -0.875 7.335938 -1.785156 6.359375 -2.796875 C 5.679688 -0.972656 4.296875 0.53125 2.203125 1.71875 L 1.125 0.609375 C 3.320312 -0.515625 4.671875 -2.0625 5.171875 -4.03125 L 1.0625 -4.03125 L 1.0625 -5.4375 L 5.390625 -5.4375 L 5.40625 -7.859375 L 3.625 -7.859375 C 3.257812 -6.921875 2.894531 -6.191406 2.53125 -5.671875 L 1.1875 -6.40625 C 2.007812 -7.53125 2.640625 -9.140625 3.078125 -11.234375 L 4.546875 -10.953125 L 4.109375 -9.21875 L 9.796875 -9.21875 L 9.796875 -7.859375 L 6.953125 -7.859375 L 6.953125 -5.4375 L 10.09375 -5.4375 L 10.09375 -4.03125 L 6.890625 -4.03125 Z M 16.171875 -0.234375 L 21.046875 0.046875 L 20.609375 1.4375 L 18.34375 1.4375 C 16.894531 1.4375 15.671875 1.171875 14.671875 0.640625 C 13.671875 0.128906 12.847656 -0.816406 12.203125 -2.203125 C 11.765625 -0.585938 11.109375 0.738281 10.234375 1.78125 L 8.953125 0.859375 C 9.816406 -0.046875 10.425781 -1.207031 10.78125 -2.625 C 11.144531 -4.03125 11.363281 -5.785156 11.4375 -7.890625 L 12.953125 -7.859375 C 12.878906 -6.460938 12.765625 -5.238281 12.609375 -4.1875 C 13.078125 -2.695312 13.773438 -1.609375 14.703125 -0.921875 L 14.703125 -9.375 L 10.3125 -9.375 L 10.3125 -10.765625 L 19.6875 -10.5625 L 20.453125 -9.421875 L 19.34375 -6.6875 L 18.15625 -7.0625 L 19.078125 -9.375 L 16.171875 -9.375 L 16.171875 -5.65625 L 20.234375 -5.65625 L 20.234375 -4.25 L 16.171875 -4.25 Z M 17.40625 -10.765625 C 16.039062 -11.847656 14.191406 -12.960938 11.859375 -14.109375 L 12.828125 -15.109375 C 13.515625 -14.804688 14.3125 -14.410156 15.21875 -13.921875 C 16.289062 -14.628906 17.238281 -15.4375 18.0625 -16.34375 L 10.71875 -16.34375 L 10.71875 -17.671875 L 19.515625 -17.75 L 20.53125 -17.09375 C 19.46875 -15.625 18.128906 -14.3125 16.515625 -13.15625 C 17.140625 -12.789062 17.769531 -12.363281 18.40625 -11.875 Z M 17.40625 -10.765625 "/></g></g></g><g fill="rgb(24.308777%, 22.749329%, 22.349548%)" fill-opacity="1"><g transform="translate(465.281066, 318.791841)"><g><path d="M 18.40625 -15.03125 L 16.96875 -14.453125 L 15.515625 -17.59375 L 16.890625 -18.125 C 17.660156 -16.9375 18.164062 -15.90625 18.40625 -15.03125 Z M 13.46875 -3.984375 L 13.46875 -0.953125 L 16.34375 -0.953125 L 16.34375 -3.984375 Z M 16.34375 -9.8125 L 16.34375 -12.734375 L 13.46875 -12.734375 L 13.46875 -9.8125 Z M 16.34375 -5.40625 L 16.34375 -8.40625 L 13.46875 -8.40625 L 13.46875 -5.40625 Z M 8.84375 -9.453125 L 8.84375 -11.390625 L 6.640625 -11.390625 L 6.640625 -9.453125 Z M 3.03125 -11.390625 L 3.03125 -9.453125 L 5.28125 -9.453125 L 5.28125 -11.390625 Z M 4.515625 -15.703125 L 4.515625 -14.5625 L 7.5625 -14.5625 L 7.5625 -15.703125 Z M 20.96875 -0.953125 L 20.96875 0.546875 L 13.46875 0.546875 L 13.46875 1.65625 L 11.96875 1.65625 L 11.96875 -10.90625 L 11.015625 -9.5 L 10.203125 -10.234375 L 10.203125 -9.546875 L 9 -8.34375 L 6.75 -8.34375 L 6.75 -7.046875 L 10.359375 -7.046875 L 10.359375 -5.828125 L 6.75 -5.828125 L 6.671875 -4.46875 L 10.9375 -4.46875 L 10.9375 -3.1875 L 6.359375 -2.984375 C 8.003906 -1.953125 9.296875 -0.960938 10.234375 -0.015625 L 9.328125 1.09375 C 8.453125 0.175781 7.296875 -0.785156 5.859375 -1.796875 C 5.085938 -0.390625 3.796875 0.75 1.984375 1.625 L 0.953125 0.578125 C 2.898438 -0.316406 4.179688 -1.570312 4.796875 -3.1875 L 1.03125 -3.1875 L 1.03125 -4.46875 L 5.125 -4.46875 L 5.234375 -5.828125 L 1.765625 -5.828125 L 1.765625 -7.046875 L 5.234375 -7.046875 L 5.234375 -8.34375 L 2.953125 -8.34375 L 1.734375 -9.546875 L 1.734375 -11.3125 L 2.953125 -12.515625 L 5.28125 -12.515625 L 5.28125 -13.484375 L 4.265625 -13.484375 L 3.0625 -14.703125 L 3.0625 -15.703125 L 1.125 -15.703125 L 1.125 -16.96875 L 3.0625 -16.96875 L 3.0625 -18.34375 L 4.515625 -18.34375 L 4.515625 -16.96875 L 7.5625 -16.96875 L 7.5625 -18.34375 L 9.09375 -18.34375 L 9.09375 -16.96875 L 10.875 -16.96875 L 10.875 -15.703125 L 9.09375 -15.703125 L 9.09375 -14.703125 L 7.875 -13.484375 L 6.640625 -13.484375 L 6.640625 -12.515625 L 10.203125 -12.515625 L 10.203125 -11.046875 C 11.554688 -12.953125 12.632812 -15.398438 13.4375 -18.390625 L 14.921875 -18.046875 L 13.625 -14.234375 L 20.859375 -14.234375 L 20.859375 -12.734375 L 17.8125 -12.734375 L 17.8125 -9.8125 L 20.609375 -9.8125 L 20.609375 -8.40625 L 17.8125 -8.40625 L 17.8125 -5.40625 L 20.640625 -5.40625 L 20.640625 -3.984375 L 17.8125 -3.984375 L 17.8125 -0.953125 Z M 20.96875 -0.953125 "/></g></g></g><g fill="rgb(24.308777%, 22.749329%, 22.349548%)" fill-opacity="1"><g transform="translate(487.277159, 318.791841)"><g><path d="M 9.796875 -5.328125 C 9.691406 -5.898438 9.71875 -6.441406 9.875 -6.953125 C 10.050781 -7.460938 10.304688 -7.894531 10.640625 -8.25 C 10.984375 -8.601562 11.359375 -8.960938 11.765625 -9.328125 C 12.191406 -9.691406 12.585938 -10.019531 12.953125 -10.3125 C 13.335938 -10.613281 13.65625 -10.953125 13.90625 -11.328125 C 14.164062 -11.710938 14.296875 -12.09375 14.296875 -12.46875 C 14.296875 -13.257812 14.007812 -13.890625 13.4375 -14.359375 C 12.863281 -14.847656 12.035156 -15.09375 10.953125 -15.09375 C 9.460938 -15.09375 8.078125 -14.425781 6.796875 -13.09375 L 5.609375 -14.1875 C 7.210938 -15.882812 9.066406 -16.734375 11.171875 -16.734375 C 12.734375 -16.734375 13.96875 -16.363281 14.875 -15.625 C 15.800781 -14.882812 16.265625 -13.882812 16.265625 -12.625 C 16.265625 -12.019531 16.078125 -11.457031 15.703125 -10.9375 C 15.359375 -10.40625 14.9375 -9.941406 14.4375 -9.546875 C 13.945312 -9.160156 13.460938 -8.769531 12.984375 -8.375 C 11.867188 -7.46875 11.40625 -6.453125 11.59375 -5.328125 Z M 11.71875 -0.28125 C 11.457031 -0.0195312 11.125 0.109375 10.71875 0.109375 C 10.320312 0.109375 9.984375 -0.0195312 9.703125 -0.28125 C 9.441406 -0.5625 9.3125 -0.914062 9.3125 -1.34375 C 9.3125 -1.769531 9.441406 -2.117188 9.703125 -2.390625 C 9.984375 -2.671875 10.320312 -2.8125 10.71875 -2.8125 C 11.125 -2.8125 11.457031 -2.671875 11.71875 -2.390625 C 12 -2.117188 12.140625 -1.769531 12.140625 -1.34375 C 12.140625 -0.914062 12 -0.5625 11.71875 -0.28125 Z M 11.71875 -0.28125 "/></g></g></g><g fill="rgb(24.308777%, 22.749329%, 22.349548%)" fill-opacity="1"><g transform="translate(179.331952, 349.541839)"><g><path d="M 19.40625 -13.546875 L 14.453125 -13.546875 C 13.941406 -11.441406 13.304688 -9.742188 12.546875 -8.453125 L 11.234375 -9.390625 C 12.453125 -11.335938 13.304688 -14.351562 13.796875 -18.4375 L 15.3125 -18.171875 L 14.8125 -15.0625 L 20.109375 -15.140625 L 21.09375 -14.78125 C 20.570312 -12.332031 20.046875 -10.445312 19.515625 -9.125 L 18.296875 -9.546875 Z M 9.234375 -15.78125 L 9.234375 -14.453125 L 7.78125 -14.453125 L 7.78125 -18.40625 L 9.234375 -18.40625 L 9.234375 -17.03125 L 12.390625 -17.03125 L 12.390625 -15.78125 Z M 10.34375 -11.15625 L 10.34375 -13.046875 L 8.296875 -13.046875 L 8.296875 -11.15625 Z M 10.234375 -14.03125 L 11.4375 -12.828125 L 11.4375 -11.375 L 10.234375 -10.15625 L 8.421875 -10.15625 L 7.21875 -11.375 L 7.21875 -12.828125 L 8.421875 -14.03125 Z M 4 -14.46875 L 4 -15.78125 L 0.875 -15.78125 L 0.875 -17.03125 L 4 -17.03125 L 4 -18.40625 L 5.4375 -18.40625 L 5.4375 -14.46875 Z M 2.875 -13.046875 L 2.875 -11.125 L 4.90625 -11.125 L 4.90625 -13.046875 Z M 3.015625 -10.140625 L 1.796875 -11.359375 L 1.796875 -12.828125 L 3.015625 -14.03125 L 4.8125 -14.03125 L 6.03125 -12.828125 L 6.03125 -11.359375 L 4.8125 -10.140625 Z M 6.890625 -5.828125 L 6.890625 -7.15625 L 4.09375 -7.15625 L 4.09375 -5.828125 Z M 6.890625 -3.34375 L 6.890625 -4.703125 L 4.09375 -4.703125 L 4.09375 -3.34375 Z M 6.890625 -0.65625 L 6.890625 -2.203125 L 4.09375 -2.203125 L 4.09375 -0.65625 Z M 11.4375 0.53125 L 4.09375 0.53125 L 4.09375 1.6875 L 2.796875 1.6875 L 2.796875 -5.71875 L 1.578125 -4.296875 L 0.765625 -5.375 C 2.085938 -6.675781 3.101562 -8.226562 3.8125 -10.03125 L 5 -9.6875 L 4.40625 -8.34375 L 7.109375 -8.34375 L 6.421875 -9.5 L 7.53125 -9.96875 C 7.976562 -9.363281 8.289062 -8.820312 8.46875 -8.34375 L 11.546875 -8.34375 L 11.546875 -7.15625 L 8.265625 -7.15625 L 8.265625 -5.828125 L 11.109375 -5.828125 L 11.109375 -4.703125 L 8.265625 -4.703125 L 8.265625 -3.34375 L 11.234375 -3.34375 L 11.234375 -2.203125 L 8.265625 -2.203125 L 8.265625 -0.65625 L 11.4375 -0.65625 Z M 16.8125 -12.6875 L 16.8125 -11.4375 C 16.8125 -10.5625 16.78125 -9.71875 16.71875 -8.90625 C 17.507812 -4.144531 19.035156 -1.03125 21.296875 0.4375 L 20.21875 1.78125 C 18.457031 0.476562 17.113281 -1.875 16.1875 -5.28125 C 15.539062 -2.507812 14.316406 -0.160156 12.515625 1.765625 L 11.328125 0.6875 C 13.097656 -1.175781 14.234375 -3.296875 14.734375 -5.671875 C 14.984375 -6.816406 15.144531 -7.804688 15.21875 -8.640625 C 15.289062 -9.484375 15.328125 -10.425781 15.328125 -11.46875 L 15.328125 -12.6875 Z M 16.8125 -12.6875 "/></g></g></g><g fill="rgb(24.308777%, 22.749329%, 22.349548%)" fill-opacity="1"><g transform="translate(201.328033, 349.541839)"><g><path d="M 15.21875 -15.328125 L 15.21875 -1.09375 L 13.703125 -1.09375 L 13.703125 -15.578125 L 14.921875 -16.765625 L 19.03125 -16.765625 L 20.234375 -15.546875 L 20.234375 -5.65625 C 20.234375 -4.894531 19.992188 -4.40625 19.515625 -4.1875 C 19.128906 -4.007812 18.21875 -3.921875 16.78125 -3.921875 L 16.265625 -5.328125 C 17.378906 -5.296875 18.066406 -5.285156 18.328125 -5.296875 C 18.585938 -5.316406 18.71875 -5.441406 18.71875 -5.671875 L 18.71875 -15.328125 Z M 9.546875 -5.859375 L 13.03125 -6.9375 L 13.140625 -5.5 C 9.910156 -4.382812 8.125 -3.695312 7.78125 -3.4375 L 7.109375 -4.75 C 7.710938 -5.09375 8.015625 -5.613281 8.015625 -6.3125 L 8.015625 -15.0625 L 9.3125 -16.78125 C 10.289062 -17.132812 11.304688 -17.691406 12.359375 -18.453125 L 13.53125 -17.265625 L 9.546875 -15.4375 Z M 6 -15 L 4.734375 -14.125 L 1.984375 -17.625 L 3.171875 -18.375 Z M 5.890625 -7.96875 L 6.703125 -7.65625 C 6.398438 -5.820312 5.941406 -4.207031 5.328125 -2.8125 C 5.984375 -1.71875 6.957031 -0.984375 8.25 -0.609375 C 9.539062 -0.265625 11.4375 -0.09375 13.9375 -0.09375 C 16.445312 -0.09375 18.90625 -0.1875 21.3125 -0.375 L 20.796875 1.1875 C 18.585938 1.300781 16.226562 1.359375 13.71875 1.359375 C 11.21875 1.359375 9.285156 1.160156 7.921875 0.765625 C 6.566406 0.367188 5.488281 -0.40625 4.6875 -1.5625 C 3.90625 -0.195312 2.914062 0.898438 1.71875 1.734375 L 0.640625 0.609375 C 2.847656 -0.796875 4.3125 -3.191406 5.03125 -6.578125 L 2.75 -6.578125 C 2.101562 -6.578125 1.675781 -6.472656 1.46875 -6.265625 L 0.875 -7.765625 C 1.289062 -7.878906 1.644531 -8.082031 1.9375 -8.375 C 2.414062 -8.90625 3.285156 -10.109375 4.546875 -11.984375 L 1.171875 -11.984375 L 1.171875 -13.328125 L 5.515625 -13.328125 L 5.78125 -13.4375 L 6.859375 -12.953125 C 5.585938 -11.035156 4.363281 -9.359375 3.1875 -7.921875 Z M 5.890625 -7.96875 "/></g></g></g><g fill="rgb(24.308777%, 22.749329%, 22.349548%)" fill-opacity="1"><g transform="translate(223.324115, 349.541839)"><g><path d="M 7.296875 -5.4375 L 7.5625 -3.984375 C 4.71875 -2.753906 2.675781 -1.890625 1.4375 -1.390625 L 0.8125 -3.015625 L 3.4375 -3.9375 L 3.4375 -11.59375 L 0.984375 -11.59375 L 0.984375 -13.15625 L 3.4375 -13.15625 L 3.4375 -18.15625 L 5.015625 -18.15625 L 5.015625 -13.15625 L 7.484375 -13.15625 L 7.484375 -11.59375 L 5.015625 -11.59375 L 5.015625 -4.546875 Z M 11.765625 -2.375 L 13.171875 -1.453125 C 11.765625 -0.296875 10.054688 0.75 8.046875 1.6875 L 7.046875 0.546875 C 9.117188 -0.390625 10.691406 -1.363281 11.765625 -2.375 Z M 15.359375 -1.40625 L 16.375 -2.390625 C 18.332031 -1.273438 19.78125 -0.296875 20.71875 0.546875 L 19.640625 1.6875 C 18.585938 0.707031 17.160156 -0.320312 15.359375 -1.40625 Z M 10.796875 -5.328125 L 10.796875 -3.84375 L 17.5625 -3.84375 L 17.5625 -5.328125 Z M 17.5625 -12.40625 L 10.796875 -12.40625 L 10.796875 -11 L 17.5625 -11 Z M 17.5625 -8.71875 L 17.5625 -10.015625 L 10.796875 -10.015625 L 10.796875 -8.71875 Z M 10.796875 -7.703125 L 10.796875 -6.34375 L 17.5625 -6.34375 L 17.5625 -7.703125 Z M 19.046875 -3.84375 L 21.046875 -3.84375 L 21.046875 -2.421875 L 7.390625 -2.421875 L 7.390625 -3.84375 L 9.34375 -3.84375 L 9.34375 -12.34375 L 10.5625 -13.546875 L 12.578125 -13.546875 L 12.890625 -15.03125 L 8.234375 -15.03125 L 8.234375 -16.375 L 13.140625 -16.375 L 13.421875 -18.375 L 15.15625 -18.265625 L 14.734375 -16.375 L 20.453125 -16.375 L 20.453125 -15.03125 L 14.4375 -15.03125 L 14.03125 -13.546875 L 17.84375 -13.546875 L 19.046875 -12.34375 Z M 19.046875 -3.84375 "/></g></g></g><g fill="rgb(24.308777%, 22.749329%, 22.349548%)" fill-opacity="1"><g transform="translate(245.320196, 349.541839)"><g><path d="M 5.140625 1.125 L 3.828125 0.484375 C 4.617188 -0.410156 5.300781 -1.707031 5.875 -3.40625 L 7.171875 -2.875 C 6.523438 -1.039062 5.847656 0.289062 5.140625 1.125 Z M 8.125 -3.078125 L 9.390625 -3.234375 C 9.921875 -1.785156 10.1875 -0.515625 10.1875 0.578125 L 8.84375 0.765625 C 8.875 -0.304688 8.632812 -1.585938 8.125 -3.078125 Z M 10.875 -3.078125 L 12.0625 -3.40625 C 12.820312 -2.25 13.316406 -1.144531 13.546875 -0.09375 L 12.296875 0.3125 Z M 7.59375 -5.4375 L 18.453125 -5.4375 L 19.53125 -3.5 C 19.445312 -1.007812 19.132812 0.507812 18.59375 1.0625 C 18.28125 1.40625 17.820312 1.59375 17.21875 1.625 C 16.695312 1.6875 15.804688 1.679688 14.546875 1.609375 L 14.078125 0.171875 C 15.179688 0.265625 15.992188 0.296875 16.515625 0.265625 C 16.890625 0.273438 17.140625 0.21875 17.265625 0.09375 C 17.578125 -0.257812 17.820312 -1.65625 18 -4.09375 L 6.15625 -4.09375 C 4.96875 -3.113281 3.582031 -2.265625 2 -1.546875 L 1.03125 -2.84375 C 3.625 -3.851562 5.59375 -5.1875 6.9375 -6.84375 L 5.546875 -6.84375 L 4.328125 -8.046875 L 4.328125 -11.84375 L 5.765625 -13.359375 C 7.023438 -13.609375 8.253906 -13.976562 9.453125 -14.46875 L 10.46875 -13.4375 C 9.351562 -13.007812 7.800781 -12.59375 5.8125 -12.1875 L 5.8125 -10.71875 L 10.078125 -10.71875 L 10.078125 -9.546875 L 5.8125 -9.546875 L 5.8125 -8.046875 L 16.140625 -8.046875 L 16.140625 -9.546875 L 11.96875 -9.546875 L 11.96875 -10.71875 L 16.140625 -10.71875 L 16.140625 -12.171875 L 11.59375 -12.171875 L 11.59375 -13.375 L 16.4375 -13.375 L 17.640625 -12.171875 L 17.640625 -8.046875 L 16.4375 -6.84375 L 8.734375 -6.84375 Z M 16.625 -1.234375 L 15.484375 -0.640625 C 15.128906 -1.410156 14.515625 -2.238281 13.640625 -3.125 L 14.71875 -3.625 C 15.644531 -2.789062 16.28125 -1.992188 16.625 -1.234375 Z M 12.015625 -16.609375 L 19.09375 -16.609375 L 20.3125 -15.40625 L 20.3125 -12.765625 L 18.75 -12.765625 L 18.75 -15.1875 L 3.234375 -15.1875 L 3.234375 -12.765625 L 1.71875 -12.765625 L 1.71875 -15.40625 L 2.921875 -16.609375 L 10.125 -16.609375 L 9.390625 -18.046875 L 11.015625 -18.5 Z M 12.015625 -16.609375 "/></g></g></g><g fill="rgb(24.308777%, 22.749329%, 22.349548%)" fill-opacity="1"><g transform="translate(267.316278, 349.541839)"><g><path d="M 20.203125 -14.171875 L 18.875 -13.21875 C 18.164062 -14.320312 17.019531 -15.570312 15.4375 -16.96875 L 16.703125 -17.8125 C 18.328125 -16.425781 19.492188 -15.210938 20.203125 -14.171875 Z M 6 -4.90625 L 1.453125 -3.890625 L 0.984375 -5.546875 C 1.773438 -5.671875 3.445312 -6 6 -6.53125 L 6 -10.390625 L 1.296875 -10.390625 L 1.296875 -11.953125 L 6 -11.953125 L 6 -15.4375 C 4.726562 -15.1875 3.378906 -14.96875 1.953125 -14.78125 L 1.4375 -16.140625 C 5.195312 -16.710938 8.09375 -17.375 10.125 -18.125 L 11.28125 -16.78125 L 7.609375 -15.78125 L 7.609375 -11.953125 L 12.65625 -11.953125 C 12.476562 -13.785156 12.375 -15.875 12.34375 -18.21875 L 14.015625 -18.21875 C 14.015625 -15.988281 14.101562 -13.898438 14.28125 -11.953125 L 20.75 -11.953125 L 20.75 -10.390625 L 14.453125 -10.390625 C 14.671875 -8.523438 14.972656 -6.851562 15.359375 -5.375 C 16.523438 -6.632812 17.484375 -7.96875 18.234375 -9.375 L 19.6875 -8.78125 C 18.707031 -6.925781 17.429688 -5.203125 15.859375 -3.609375 C 16.753906 -1.128906 17.726562 0.109375 18.78125 0.109375 C 19.082031 0.109375 19.304688 -0.1875 19.453125 -0.78125 C 19.597656 -1.382812 19.707031 -2.398438 19.78125 -3.828125 L 21.171875 -2.953125 C 21.015625 -1.128906 20.753906 0.101562 20.390625 0.75 C 20.035156 1.40625 19.453125 1.734375 18.640625 1.734375 C 17.003906 1.734375 15.644531 0.363281 14.5625 -2.375 C 13.09375 -1.070312 11.546875 0.00390625 9.921875 0.859375 L 8.796875 -0.4375 C 10.734375 -1.375 12.472656 -2.5625 14.015625 -4 C 13.484375 -5.832031 13.070312 -7.960938 12.78125 -10.390625 L 7.609375 -10.390625 L 7.609375 -6.859375 L 11.546875 -7.71875 L 11.65625 -6.25 L 7.609375 -5.296875 L 7.609375 -0.421875 C 7.609375 0.109375 7.535156 0.503906 7.390625 0.765625 C 7.242188 1.046875 6.953125 1.269531 6.515625 1.4375 C 6.085938 1.601562 4.921875 1.6875 3.015625 1.6875 L 2.390625 0.046875 C 4.566406 0.148438 5.734375 0.117188 5.890625 -0.046875 C 5.960938 -0.117188 6 -0.25 6 -0.4375 Z M 6 -4.90625 "/></g></g></g><g fill="rgb(24.308777%, 22.749329%, 22.349548%)" fill-opacity="1"><g transform="translate(289.312359, 349.541839)"><g><path d="M 4.796875 -14.078125 L 2.90625 -14.078125 L 2.90625 -5.265625 L 4.796875 -5.265625 Z M 4.796875 -15.484375 L 6 -14.28125 L 6 -5.0625 L 4.796875 -3.84375 L 2.90625 -3.84375 L 2.90625 -2.0625 L 1.6875 -2.0625 L 1.6875 -14.28125 L 2.875 -15.484375 Z M 9.75 -10.609375 L 9.75 -3.890625 L 11.765625 -4.640625 L 12.0625 -3.34375 C 10.226562 -2.539062 8.4375 -1.789062 6.6875 -1.09375 L 6.078125 -2.578125 L 8.40625 -3.40625 L 8.40625 -10.609375 L 6.515625 -10.609375 L 6.515625 -12.125 L 8.40625 -12.125 L 8.40625 -17.203125 L 9.75 -17.203125 L 9.75 -12.125 L 11.59375 -12.125 L 11.59375 -10.609375 Z M 15.03125 -0.171875 L 18.765625 -0.171875 C 19.191406 -0.171875 19.472656 -0.347656 19.609375 -0.703125 C 19.753906 -1.054688 19.851562 -1.816406 19.90625 -2.984375 L 21.1875 -2.421875 C 21.082031 -1.046875 20.875 -0.113281 20.5625 0.375 C 20.257812 0.875 19.675781 1.125 18.8125 1.125 L 14.921875 1.125 C 13.953125 1.125 13.296875 0.953125 12.953125 0.609375 C 12.617188 0.273438 12.453125 -0.378906 12.453125 -1.359375 L 12.453125 -9.015625 L 11.484375 -8.578125 L 10.84375 -9.96875 L 12.453125 -10.6875 L 12.453125 -16.375 L 13.8125 -16.375 L 13.8125 -11.359375 L 15.84375 -12.296875 L 15.84375 -18.390625 L 17.140625 -18.390625 L 17.140625 -12.890625 L 18.859375 -13.703125 L 19.515625 -14.25 L 20.609375 -13.875 L 20.546875 -13.625 C 20.546875 -9.851562 20.398438 -6.84375 20.109375 -4.59375 L 18.890625 -4.953125 C 19.046875 -6.691406 19.125 -9.097656 19.125 -12.171875 L 17.140625 -11.234375 L 17.140625 -3.1875 L 15.84375 -3.1875 L 15.84375 -10.625 L 13.8125 -9.6875 L 13.8125 -1.34375 C 13.8125 -0.851562 13.882812 -0.535156 14.03125 -0.390625 C 14.195312 -0.242188 14.53125 -0.171875 15.03125 -0.171875 Z M 15.03125 -0.171875 "/></g></g></g><g fill="rgb(24.308777%, 22.749329%, 22.349548%)" fill-opacity="1"><g transform="translate(311.30844, 349.541839)"><g><path d="M 5.1875 -15.46875 L 2.984375 -15.46875 L 2.984375 -4.203125 L 5.1875 -4.203125 Z M 5.265625 -16.984375 L 6.46875 -15.78125 L 6.46875 -3.890625 L 5.265625 -2.6875 L 2.984375 -2.6875 L 2.984375 -0.21875 L 1.71875 -0.21875 L 1.71875 -15.78125 L 2.921875 -16.984375 Z M 11.8125 -15.796875 L 9.109375 -15.796875 L 9.109375 -13.28125 L 11.8125 -13.28125 Z M 9.109375 -9.3125 L 11.8125 -9.3125 L 11.8125 -11.984375 L 9.109375 -11.984375 Z M 13.875 -2.15625 L 12.578125 -1.625 L 12.171875 -3.078125 C 10.484375 -2.078125 9.375 -1.410156 8.84375 -1.078125 L 7.828125 -0.265625 L 7.015625 -1.40625 C 7.546875 -1.894531 7.8125 -2.535156 7.8125 -3.328125 L 7.8125 -15.953125 L 9.015625 -17.15625 L 11.953125 -17.15625 L 13.15625 -15.953125 L 13.15625 -9.15625 L 11.953125 -7.9375 L 9.109375 -7.9375 L 9.109375 -2.8125 L 11.75 -4.203125 L 10.6875 -6.59375 L 11.90625 -7.015625 C 12.914062 -5.128906 13.570312 -3.507812 13.875 -2.15625 Z M 15.109375 -9.484375 L 17.09375 -9.484375 C 17.476562 -11.285156 17.695312 -13.359375 17.75 -15.703125 L 16.328125 -15.703125 C 15.941406 -13.421875 15.535156 -11.347656 15.109375 -9.484375 Z M 18.828125 0.0625 L 19.359375 0.0625 C 19.578125 0.0625 19.734375 0.0195312 19.828125 -0.0625 C 19.921875 -0.15625 19.992188 -0.328125 20.046875 -0.578125 C 20.097656 -1.128906 20.117188 -1.929688 20.109375 -2.984375 L 21.1875 -2.390625 C 21.15625 -1.015625 21.085938 -0.128906 20.984375 0.265625 C 20.804688 1.023438 20.300781 1.40625 19.46875 1.40625 L 18.5 1.40625 C 18.019531 1.40625 17.675781 1.3125 17.46875 1.125 C 17.28125 0.945312 17.15625 0.753906 17.09375 0.546875 C 17.050781 0.359375 17.03125 0.0195312 17.03125 -0.46875 L 17.03125 -5.03125 C 15.957031 -2.539062 14.398438 -0.304688 12.359375 1.671875 L 11.21875 0.859375 C 13.875 -1.554688 15.710938 -4.539062 16.734375 -8.09375 L 14.78125 -8.09375 L 13.8125 -9.203125 C 14.207031 -10.785156 14.613281 -12.953125 15.03125 -15.703125 L 13.703125 -15.703125 L 13.703125 -17.140625 L 20.8125 -17.140625 L 20.8125 -15.703125 L 19.03125 -15.703125 C 18.96875 -13.273438 18.753906 -11.203125 18.390625 -9.484375 L 20.984375 -9.484375 L 20.984375 -8.09375 L 18.078125 -8.09375 L 17.734375 -6.90625 L 18.328125 -6.90625 L 18.328125 -0.390625 C 18.328125 -0.0859375 18.492188 0.0625 18.828125 0.0625 Z M 18.828125 0.0625 "/></g></g></g><g fill="rgb(24.308777%, 22.749329%, 22.349548%)" fill-opacity="1"><g transform="translate(333.304522, 349.541839)"><g><path d="M 10.609375 -12.546875 L 10.609375 -11.109375 L 1.125 -11.109375 L 1.125 -12.546875 L 5.21875 -12.546875 L 5.21875 -14.734375 L 1.765625 -14.734375 L 1.765625 -16.140625 L 5.21875 -16.140625 L 5.21875 -18.375 L 6.734375 -18.375 L 6.734375 -16.140625 L 10.046875 -16.140625 L 10.046875 -14.734375 L 6.734375 -14.734375 L 6.734375 -12.546875 Z M 6.734375 -6.578125 L 6.734375 -4.203125 L 10.640625 -4.203125 L 10.640625 -2.796875 L 6.734375 -2.796875 L 6.734375 1.609375 L 5.21875 1.609375 L 5.21875 -2.796875 L 1.09375 -2.796875 L 1.09375 -4.203125 L 5.21875 -4.203125 L 5.21875 -6.578125 L 1.578125 -6.578125 L 1.578125 -8.015625 L 3.625 -8.015625 L 2.59375 -10.6875 L 3.8125 -11.015625 C 4.375 -10.140625 4.742188 -9.269531 4.921875 -8.40625 L 3.828125 -8.015625 L 6.5625 -8.015625 L 8.078125 -11.109375 L 9.484375 -10.734375 L 8.015625 -8.015625 L 10.203125 -8.015625 L 10.203125 -6.578125 Z M 12.9375 -8.625 L 12.9375 0.375 C 14.039062 -0.351562 15.035156 -1.320312 15.921875 -2.53125 C 14.765625 -4.25 13.769531 -6.28125 12.9375 -8.625 Z M 18.671875 -8.625 L 14.546875 -8.625 C 15.066406 -6.90625 15.8125 -5.320312 16.78125 -3.875 C 17.625 -5.28125 18.253906 -6.863281 18.671875 -8.625 Z M 19.453125 -10.046875 L 20.484375 -9.6875 C 19.984375 -6.976562 19.085938 -4.597656 17.796875 -2.546875 C 18.828125 -1.347656 19.992188 -0.425781 21.296875 0.21875 L 20.171875 1.546875 C 19.046875 0.910156 17.945312 -0.0195312 16.875 -1.25 C 15.875 0.0078125 14.800781 1.003906 13.65625 1.734375 L 12.9375 0.921875 L 12.9375 1.65625 L 11.4375 1.65625 L 11.4375 -16.1875 L 12.65625 -17.40625 L 18.75 -17.40625 L 19.953125 -16.1875 L 19.953125 -13.171875 C 19.953125 -12.734375 19.894531 -12.40625 19.78125 -12.1875 C 19.664062 -11.96875 19.398438 -11.785156 18.984375 -11.640625 C 18.578125 -11.492188 17.46875 -11.421875 15.65625 -11.421875 L 15.15625 -12.875 C 17.132812 -12.8125 18.195312 -12.832031 18.34375 -12.9375 C 18.40625 -12.976562 18.4375 -13.066406 18.4375 -13.203125 L 18.4375 -15.90625 L 12.9375 -15.90625 L 12.9375 -9.984375 Z M 19.453125 -10.046875 "/></g></g></g><g fill="rgb(24.308777%, 22.749329%, 22.349548%)" fill-opacity="1"><g transform="translate(355.300603, 349.541839)"><g><path d="M 15.640625 -14.171875 L 14.8125 -12.90625 C 14.070312 -13.789062 12.921875 -14.738281 11.359375 -15.75 L 12.1875 -16.859375 C 13.769531 -15.890625 14.921875 -14.992188 15.640625 -14.171875 Z M 14.703125 -8.90625 L 13.875 -7.59375 C 13.5 -8 12.957031 -8.453125 12.25 -8.953125 C 11.5625 -9.453125 10.890625 -9.878906 10.234375 -10.234375 L 11 -11.375 C 12.769531 -10.445312 14.003906 -9.625 14.703125 -8.90625 Z M 8.34375 -17.078125 L 9.75 -16.71875 C 9 -14.375 8.394531 -12.734375 7.9375 -11.796875 L 6.859375 -12.140625 C 7.398438 -13.492188 7.894531 -15.140625 8.34375 -17.078125 Z M 3.765625 -12.171875 L 2.484375 -11.84375 C 2.328125 -13.394531 1.925781 -15.015625 1.28125 -16.703125 L 2.46875 -16.984375 C 3.132812 -15.367188 3.566406 -13.765625 3.765625 -12.171875 Z M 3.015625 -8.25 L 4.203125 -7.875 C 3.953125 -6.53125 3.597656 -5.1875 3.140625 -3.84375 C 2.691406 -2.53125 2.203125 -1.503906 1.671875 -0.765625 L 0.84375 -2.578125 C 1.28125 -3.203125 1.703125 -4.050781 2.109375 -5.125 C 2.523438 -6.207031 2.828125 -7.25 3.015625 -8.25 Z M 9.765625 -9.53125 L 6.15625 -9.53125 L 6.15625 1.6875 L 4.640625 1.6875 L 4.640625 -9.53125 L 1.125 -9.53125 L 1.125 -11.0625 L 4.640625 -11.0625 L 4.640625 -18.390625 L 6.15625 -18.390625 L 6.15625 -11.0625 L 9.765625 -11.0625 Z M 6.265625 -7.59375 L 7.171875 -8.234375 C 7.378906 -7.921875 7.773438 -7.207031 8.359375 -6.09375 C 8.941406 -4.976562 9.320312 -4.226562 9.5 -3.84375 L 8.34375 -2.640625 C 8.164062 -3.191406 7.84375 -4.019531 7.375 -5.125 C 6.90625 -6.226562 6.535156 -7.050781 6.265625 -7.59375 Z M 21.171875 -5.015625 L 18.328125 -4.515625 L 18.328125 1.671875 L 16.78125 1.671875 L 16.78125 -4.21875 L 9.96875 -2.984375 L 9.703125 -4.515625 L 16.78125 -5.765625 L 16.78125 -18.390625 L 18.328125 -18.390625 L 18.328125 -6.046875 L 20.921875 -6.515625 Z M 21.171875 -5.015625 "/></g></g></g><g fill="rgb(24.308777%, 22.749329%, 22.349548%)" fill-opacity="1"><g transform="translate(377.296696, 349.541839)"><g><path d="M 18.546875 -7.609375 L 19.890625 -6.671875 C 18.703125 -5.640625 17.285156 -4.617188 15.640625 -3.609375 C 17.210938 -2.128906 19.054688 -1.082031 21.171875 -0.46875 L 20.09375 0.953125 C 15.65625 -0.546875 12.566406 -3.6875 10.828125 -8.46875 C 9.898438 -7.457031 8.753906 -6.488281 7.390625 -5.5625 L 7.390625 -0.703125 L 12.71875 -2.3125 L 12.984375 -0.90625 C 9.867188 0.09375 7.914062 0.722656 7.125 0.984375 L 5.59375 1.671875 L 4.890625 0.171875 C 5.441406 -0.0976562 5.71875 -0.570312 5.71875 -1.25 L 5.71875 -4.515625 C 4.570312 -3.847656 3.3125 -3.253906 1.9375 -2.734375 L 0.875 -4.046875 C 2.257812 -4.472656 3.660156 -5.082031 5.078125 -5.875 C 6.515625 -6.675781 7.75 -7.539062 8.78125 -8.46875 L 1.515625 -8.46875 L 1.515625 -9.875 L 10.140625 -9.875 L 10.140625 -11.84375 L 3.5 -11.84375 L 3.5 -13.203125 L 10.140625 -13.203125 L 10.140625 -15.046875 L 2.375 -15.046875 L 2.375 -16.453125 L 10.140625 -16.453125 L 10.140625 -18.40625 L 11.765625 -18.40625 L 11.765625 -16.453125 L 19.78125 -16.453125 L 19.78125 -15.046875 L 11.765625 -15.046875 L 11.765625 -13.203125 L 18.78125 -13.203125 L 18.78125 -11.84375 L 11.765625 -11.84375 L 11.765625 -9.875 L 20.453125 -9.875 L 20.453125 -8.46875 L 12.40625 -8.46875 C 13.007812 -7 13.785156 -5.703125 14.734375 -4.578125 C 16.296875 -5.628906 17.566406 -6.640625 18.546875 -7.609375 Z M 18.546875 -7.609375 "/></g></g></g><g fill="rgb(24.308777%, 22.749329%, 22.349548%)" fill-opacity="1"><g transform="translate(399.292789, 349.541839)"><g><path d="M 11.265625 -6.34375 L 18.546875 -6.34375 C 17.210938 -6.976562 15.976562 -7.804688 14.84375 -8.828125 C 13.726562 -7.859375 12.535156 -7.03125 11.265625 -6.34375 Z M 11.6875 -0.703125 L 17.8125 -0.703125 L 17.8125 -4.921875 L 11.6875 -4.921875 Z M 12.625 -14.625 L 12.359375 -14.234375 C 12.992188 -13.035156 13.816406 -11.921875 14.828125 -10.890625 C 15.941406 -12.066406 16.804688 -13.3125 17.421875 -14.625 Z M 18.453125 -16.125 L 19.46875 -15.640625 C 18.75 -13.503906 17.566406 -11.582031 15.921875 -9.875 C 17.523438 -8.539062 19.351562 -7.5625 21.40625 -6.9375 L 20.390625 -5.5625 L 19.359375 -5.96875 L 19.359375 1.609375 L 17.8125 1.609375 L 17.8125 0.71875 L 11.6875 0.71875 L 11.6875 1.6875 L 10.1875 1.6875 L 10.1875 -5.8125 L 8.453125 -5.078125 L 7.53125 -6.40625 C 9.832031 -7.132812 11.90625 -8.289062 13.75 -9.875 C 12.851562 -10.84375 12.09375 -11.867188 11.46875 -12.953125 C 10.757812 -12.046875 10.039062 -11.269531 9.3125 -10.625 L 8.015625 -11.71875 L 8.5625 -12.1875 L 6.046875 -12.1875 L 6.046875 -11.203125 L 8.828125 -7.859375 L 7.859375 -6.578125 L 6.046875 -9.328125 L 6.046875 1.65625 L 4.484375 1.65625 L 4.484375 -8.734375 C 3.585938 -5.972656 2.613281 -3.875 1.5625 -2.4375 L 0.703125 -3.890625 C 1.421875 -4.804688 2.109375 -6.03125 2.765625 -7.5625 C 3.441406 -9.125 3.957031 -10.664062 4.3125 -12.1875 L 1.203125 -12.1875 L 1.203125 -13.703125 L 4.484375 -13.703125 L 4.484375 -18.40625 L 6.046875 -18.40625 L 6.046875 -13.703125 L 8.890625 -13.703125 L 8.890625 -12.5 C 10.609375 -14.132812 11.90625 -16.113281 12.78125 -18.4375 L 14.359375 -18 L 13.46875 -16.0625 Z M 18.453125 -16.125 "/></g></g></g><g fill="rgb(24.308777%, 22.749329%, 22.349548%)" fill-opacity="1"><g transform="translate(421.288881, 349.541839)"><g><path d="M 12.171875 -12.421875 C 11.847656 -12.117188 11.457031 -11.96875 11 -11.96875 C 10.539062 -11.96875 10.148438 -12.117188 9.828125 -12.421875 C 9.503906 -12.734375 9.34375 -13.128906 9.34375 -13.609375 C 9.34375 -14.097656 9.503906 -14.492188 9.828125 -14.796875 C 10.148438 -15.109375 10.539062 -15.265625 11 -15.265625 C 11.457031 -15.265625 11.847656 -15.109375 12.171875 -14.796875 C 12.503906 -14.492188 12.671875 -14.097656 12.671875 -13.609375 C 12.671875 -13.128906 12.503906 -12.734375 12.171875 -12.421875 Z M 12.171875 -1.640625 C 11.847656 -1.335938 11.457031 -1.1875 11 -1.1875 C 10.539062 -1.1875 10.148438 -1.335938 9.828125 -1.640625 C 9.503906 -1.953125 9.34375 -2.351562 9.34375 -2.84375 C 9.34375 -3.34375 9.503906 -3.742188 9.828125 -4.046875 C 10.148438 -4.359375 10.539062 -4.515625 11 -4.515625 C 11.457031 -4.515625 11.847656 -4.351562 12.171875 -4.03125 C 12.503906 -3.71875 12.671875 -3.316406 12.671875 -2.828125 C 12.671875 -2.347656 12.503906 -1.953125 12.171875 -1.640625 Z M 12.171875 -1.640625 "/></g></g></g><g fill="rgb(24.308777%, 22.749329%, 22.349548%)" fill-opacity="1"><g transform="translate(179.331952, 380.291838)"><g><path d="M 13.53125 -1.578125 C 12.320312 -0.335938 10.644531 0.28125 8.5 0.28125 C 6.363281 0.28125 4.625 -0.460938 3.28125 -1.953125 C 1.945312 -3.453125 1.28125 -5.484375 1.28125 -8.046875 C 1.28125 -10.617188 1.96875 -12.660156 3.34375 -14.171875 C 4.71875 -15.679688 6.492188 -16.4375 8.671875 -16.4375 C 10.515625 -16.4375 12.0625 -15.769531 13.3125 -14.4375 L 12.203125 -13.109375 C 11.242188 -14.140625 10.082031 -14.65625 8.71875 -14.65625 C 7.082031 -14.65625 5.78125 -14.066406 4.8125 -12.890625 C 3.84375 -11.710938 3.359375 -10.109375 3.359375 -8.078125 C 3.359375 -6.046875 3.832031 -4.4375 4.78125 -3.25 C 5.71875 -2.082031 7.039062 -1.5 8.75 -1.5 C 10.007812 -1.5 10.976562 -1.8125 11.65625 -2.4375 L 11.65625 -6.671875 L 8.25 -6.671875 L 8.25 -8.359375 L 12.3125 -8.359375 L 13.53125 -7.15625 Z M 13.53125 -1.578125 "/></g></g></g><g fill="rgb(24.308777%, 22.749329%, 22.349548%)" fill-opacity="1"><g transform="translate(194.487248, 380.291838)"><g><path d="M 13.140625 -2 C 11.867188 -0.476562 10.207031 0.28125 8.15625 0.28125 C 6.101562 0.28125 4.441406 -0.476562 3.171875 -2 C 1.910156 -3.53125 1.28125 -5.570312 1.28125 -8.125 C 1.28125 -10.675781 1.910156 -12.695312 3.171875 -14.1875 C 4.441406 -15.6875 6.101562 -16.4375 8.15625 -16.4375 C 10.207031 -16.4375 11.867188 -15.6875 13.140625 -14.1875 C 14.410156 -12.695312 15.046875 -10.675781 15.046875 -8.125 C 15.046875 -5.570312 14.410156 -3.53125 13.140625 -2 Z M 4.671875 -3.296875 C 5.546875 -2.097656 6.707031 -1.5 8.15625 -1.5 C 9.613281 -1.5 10.773438 -2.097656 11.640625 -3.296875 C 12.515625 -4.503906 12.953125 -6.109375 12.953125 -8.109375 C 12.953125 -10.117188 12.515625 -11.710938 11.640625 -12.890625 C 10.773438 -14.066406 9.613281 -14.65625 8.15625 -14.65625 C 6.695312 -14.65625 5.53125 -14.066406 4.65625 -12.890625 C 3.789062 -11.710938 3.359375 -10.117188 3.359375 -8.109375 C 3.359375 -6.109375 3.796875 -4.503906 4.671875 -3.296875 Z M 4.671875 -3.296875 "/></g></g></g><g fill="rgb(24.308777%, 22.749329%, 22.349548%)" fill-opacity="1"><g transform="translate(210.808341, 380.291838)"><g><path d="M 13.140625 -2 C 11.867188 -0.476562 10.207031 0.28125 8.15625 0.28125 C 6.101562 0.28125 4.441406 -0.476562 3.171875 -2 C 1.910156 -3.53125 1.28125 -5.570312 1.28125 -8.125 C 1.28125 -10.675781 1.910156 -12.695312 3.171875 -14.1875 C 4.441406 -15.6875 6.101562 -16.4375 8.15625 -16.4375 C 10.207031 -16.4375 11.867188 -15.6875 13.140625 -14.1875 C 14.410156 -12.695312 15.046875 -10.675781 15.046875 -8.125 C 15.046875 -5.570312 14.410156 -3.53125 13.140625 -2 Z M 4.671875 -3.296875 C 5.546875 -2.097656 6.707031 -1.5 8.15625 -1.5 C 9.613281 -1.5 10.773438 -2.097656 11.640625 -3.296875 C 12.515625 -4.503906 12.953125 -6.109375 12.953125 -8.109375 C 12.953125 -10.117188 12.515625 -11.710938 11.640625 -12.890625 C 10.773438 -14.066406 9.613281 -14.65625 8.15625 -14.65625 C 6.695312 -14.65625 5.53125 -14.066406 4.65625 -12.890625 C 3.789062 -11.710938 3.359375 -10.117188 3.359375 -8.109375 C 3.359375 -6.109375 3.796875 -4.503906 4.671875 -3.296875 Z M 4.671875 -3.296875 "/></g></g></g><g fill="rgb(24.308777%, 22.749329%, 22.349548%)" fill-opacity="1"><g transform="translate(227.129435, 380.291838)"><g><path d="M 13.53125 -1.578125 C 12.320312 -0.335938 10.644531 0.28125 8.5 0.28125 C 6.363281 0.28125 4.625 -0.460938 3.28125 -1.953125 C 1.945312 -3.453125 1.28125 -5.484375 1.28125 -8.046875 C 1.28125 -10.617188 1.96875 -12.660156 3.34375 -14.171875 C 4.71875 -15.679688 6.492188 -16.4375 8.671875 -16.4375 C 10.515625 -16.4375 12.0625 -15.769531 13.3125 -14.4375 L 12.203125 -13.109375 C 11.242188 -14.140625 10.082031 -14.65625 8.71875 -14.65625 C 7.082031 -14.65625 5.78125 -14.066406 4.8125 -12.890625 C 3.84375 -11.710938 3.359375 -10.109375 3.359375 -8.078125 C 3.359375 -6.046875 3.832031 -4.4375 4.78125 -3.25 C 5.71875 -2.082031 7.039062 -1.5 8.75 -1.5 C 10.007812 -1.5 10.976562 -1.8125 11.65625 -2.4375 L 11.65625 -6.671875 L 8.25 -6.671875 L 8.25 -8.359375 L 12.3125 -8.359375 L 13.53125 -7.15625 Z M 13.53125 -1.578125 "/></g></g></g><g fill="rgb(24.308777%, 22.749329%, 22.349548%)" fill-opacity="1"><g transform="translate(242.28473, 380.291838)"><g><path d="M 3.40625 0 L 2.203125 -1.203125 L 2.203125 -16.140625 L 4.25 -16.140625 L 4.25 -1.734375 L 11.28125 -1.734375 L 11.28125 0 Z M 3.40625 0 "/></g></g></g><g fill="rgb(24.308777%, 22.749329%, 22.349548%)" fill-opacity="1"><g transform="translate(254.228597, 380.291838)"><g><path d="M 3.40625 0 L 2.203125 -1.203125 L 2.203125 -14.9375 L 3.40625 -16.140625 L 11.5 -16.140625 L 11.5 -14.40625 L 4.25 -14.40625 L 4.25 -9.34375 L 10.359375 -9.34375 L 10.359375 -7.609375 L 4.25 -7.609375 L 4.25 -1.734375 L 11.75 -1.734375 L 11.75 0 Z M 3.40625 0 "/></g></g></g><g fill="rgb(24.308777%, 22.749329%, 22.349548%)" fill-opacity="1"><g transform="translate(267.162296, 380.291838)"><g/></g></g><g fill="rgb(24.308777%, 22.749329%, 22.349548%)" fill-opacity="1"><g transform="translate(272.089424, 380.291838)"><g><path d="M 2.203125 0 L 2.203125 -14.9375 L 3.40625 -16.140625 L 11.5 -16.140625 L 11.5 -14.40625 L 4.25 -14.40625 L 4.25 -8.953125 L 10.40625 -8.953125 L 10.40625 -7.234375 L 4.25 -7.234375 L 4.25 0 Z M 2.203125 0 "/></g></g></g><g fill="rgb(24.308777%, 22.749329%, 22.349548%)" fill-opacity="1"><g transform="translate(284.231261, 380.291838)"><g><path d="M 13.140625 -2 C 11.867188 -0.476562 10.207031 0.28125 8.15625 0.28125 C 6.101562 0.28125 4.441406 -0.476562 3.171875 -2 C 1.910156 -3.53125 1.28125 -5.570312 1.28125 -8.125 C 1.28125 -10.675781 1.910156 -12.695312 3.171875 -14.1875 C 4.441406 -15.6875 6.101562 -16.4375 8.15625 -16.4375 C 10.207031 -16.4375 11.867188 -15.6875 13.140625 -14.1875 C 14.410156 -12.695312 15.046875 -10.675781 15.046875 -8.125 C 15.046875 -5.570312 14.410156 -3.53125 13.140625 -2 Z M 4.671875 -3.296875 C 5.546875 -2.097656 6.707031 -1.5 8.15625 -1.5 C 9.613281 -1.5 10.773438 -2.097656 11.640625 -3.296875 C 12.515625 -4.503906 12.953125 -6.109375 12.953125 -8.109375 C 12.953125 -10.117188 12.515625 -11.710938 11.640625 -12.890625 C 10.773438 -14.066406 9.613281 -14.65625 8.15625 -14.65625 C 6.695312 -14.65625 5.53125 -14.066406 4.65625 -12.890625 C 3.789062 -11.710938 3.359375 -10.117188 3.359375 -8.109375 C 3.359375 -6.109375 3.796875 -4.503906 4.671875 -3.296875 Z M 4.671875 -3.296875 "/></g></g></g><g fill="rgb(24.308777%, 22.749329%, 22.349548%)" fill-opacity="1"><g transform="translate(300.552355, 380.291838)"><g><path d="M 2.203125 0 L 2.203125 -14.9375 L 3.40625 -16.140625 L 7.265625 -16.140625 C 11.015625 -16.140625 12.890625 -14.625 12.890625 -11.59375 C 12.890625 -10.375 12.566406 -9.382812 11.921875 -8.625 C 11.273438 -7.863281 10.378906 -7.34375 9.234375 -7.0625 L 13.375 0 L 11.0625 0 L 7.15625 -6.84375 L 4.25 -6.84375 L 4.25 0 Z M 4.25 -8.484375 L 6.953125 -8.484375 C 9.566406 -8.484375 10.875 -9.519531 10.875 -11.59375 C 10.875 -12.625 10.550781 -13.359375 9.90625 -13.796875 C 9.257812 -14.242188 8.273438 -14.46875 6.953125 -14.46875 L 4.25 -14.46875 Z M 4.25 -8.484375 "/></g></g></g><g fill="rgb(24.308777%, 22.749329%, 22.349548%)" fill-opacity="1"><g transform="translate(314.541863, 380.291838)"><g><path d="M 2.203125 0 L 2.203125 -16.140625 L 3.453125 -16.140625 L 5.0625 -15.03125 L 9.015625 -4.140625 L 12.796875 -15.03125 L 14.40625 -16.140625 L 15.65625 -16.140625 L 15.65625 0 L 13.75 0 L 13.75 -8.9375 C 13.75 -9.84375 13.835938 -11.425781 14.015625 -13.6875 L 9.59375 -1.625 L 8.234375 -1.625 L 3.890625 -13.6875 C 3.992188 -11.101562 4.046875 -9.519531 4.046875 -8.9375 L 4.046875 0 Z M 2.203125 0 "/></g></g></g><g fill="rgb(24.308777%, 22.749329%, 22.349548%)" fill-opacity="1"><g transform="translate(179.331952, 441.791835)"><g><path d="M 18.296875 -16.8125 L 19.578125 -15.859375 C 18.609375 -14.804688 17.4375 -13.742188 16.0625 -12.671875 C 14.675781 -11.617188 13.296875 -10.71875 11.921875 -9.96875 L 11.921875 -0.46875 C 11.921875 0.09375 11.832031 0.515625 11.65625 0.796875 C 11.5 1.066406 11.207031 1.265625 10.78125 1.390625 C 10.175781 1.578125 8.671875 1.671875 6.265625 1.671875 L 5.609375 0.046875 C 8.410156 0.148438 9.914062 0.113281 10.125 -0.0625 C 10.195312 -0.132812 10.234375 -0.269531 10.234375 -0.46875 L 10.234375 -9.5625 L 11.265625 -11.3125 C 12.734375 -12.007812 14.425781 -13.269531 16.34375 -15.09375 L 2.203125 -15.09375 L 2.203125 -16.703125 Z M 18.296875 -16.8125 "/></g></g></g><g fill="rgb(24.308777%, 22.749329%, 22.349548%)" fill-opacity="1"><g transform="translate(201.328033, 441.791835)"><g><path d="M 7 -5.34375 L 8.96875 -5.34375 L 8.96875 -7.921875 L 7 -7.921875 Z M 3.828125 -7.921875 L 3.828125 -5.34375 L 5.8125 -5.34375 L 5.8125 -7.921875 Z M 7.125 -15.15625 L 4.734375 -15.15625 L 3.625 -12.875 L 6.15625 -12.875 Z M 7 -11.578125 L 7 -9.15625 L 8.96875 -9.15625 L 8.96875 -11.578125 Z M 3.828125 -11.578125 L 3.828125 -9.15625 L 5.8125 -9.15625 L 5.8125 -11.578125 Z M 18.984375 -15.90625 L 15.46875 -15.90625 C 15.21875 -14.5 14.769531 -13.300781 14.125 -12.3125 C 13.476562 -11.332031 12.515625 -10.550781 11.234375 -9.96875 L 10.359375 -11.0625 C 11.441406 -11.550781 12.253906 -12.191406 12.796875 -12.984375 C 13.347656 -13.785156 13.738281 -14.757812 13.96875 -15.90625 L 11 -15.90625 L 11 -17.296875 L 19.296875 -17.296875 L 20.453125 -16.078125 L 20.421875 -15.375 C 20.296875 -12.96875 20.035156 -11.546875 19.640625 -11.109375 C 19.378906 -10.785156 19.015625 -10.601562 18.546875 -10.5625 C 18.078125 -10.519531 17.289062 -10.523438 16.1875 -10.578125 L 15.8125 -11.953125 C 16.382812 -11.890625 17.046875 -11.859375 17.796875 -11.859375 C 18.085938 -11.828125 18.289062 -11.894531 18.40625 -12.0625 C 18.675781 -12.363281 18.867188 -13.644531 18.984375 -15.90625 Z M 21.09375 -3.953125 L 21.09375 -2.546875 L 16.921875 -2.546875 L 16.921875 1.5625 L 15.359375 1.5625 L 15.359375 -2.546875 L 10.734375 -2.546875 L 10.734375 -3.953125 L 15.359375 -3.953125 L 15.359375 -6.671875 L 12.90625 -6.671875 C 12.570312 -5.828125 12.191406 -5.109375 11.765625 -4.515625 L 10.5 -5.1875 C 11.394531 -6.363281 12.066406 -8.007812 12.515625 -10.125 L 13.90625 -9.828125 L 13.4375 -8.078125 L 15.359375 -8.078125 L 15.359375 -10.3125 L 16.921875 -10.3125 L 16.921875 -8.078125 L 20.71875 -8.078125 L 20.71875 -6.671875 L 16.921875 -6.671875 L 16.921875 -3.953125 Z M 9.15625 -12.875 L 10.359375 -11.65625 L 10.359375 -0.109375 C 10.359375 0.679688 10.109375 1.179688 9.609375 1.390625 C 9.210938 1.566406 8.234375 1.65625 6.671875 1.65625 L 6.140625 0.265625 C 7.335938 0.304688 8.109375 0.3125 8.453125 0.28125 C 8.796875 0.269531 8.96875 0.140625 8.96875 -0.109375 L 8.96875 -4.0625 L 3.703125 -4.0625 C 3.460938 -1.570312 2.894531 0.351562 2 1.71875 L 0.84375 0.96875 C 1.925781 -0.726562 2.46875 -3.40625 2.46875 -7.0625 L 2.46875 -11.0625 L 2 -10.46875 L 0.765625 -11.46875 C 2.328125 -13.132812 3.472656 -15.445312 4.203125 -18.40625 L 5.71875 -18.078125 L 5.21875 -16.453125 L 8.03125 -16.515625 L 9 -15.90625 L 7.609375 -12.875 Z M 9.15625 -12.875 "/></g></g></g><g fill="rgb(24.308777%, 22.749329%, 22.349548%)" fill-opacity="1"><g transform="translate(223.324115, 441.791835)"><g><path d="M 5.0625 -6.8125 L 10.25 -6.8125 L 10.296875 -9.046875 L 5.0625 -9.046875 Z M 5.0625 -12.546875 L 5.0625 -10.34375 L 10.296875 -10.34375 L 10.296875 -12.546875 Z M 17.515625 -12.546875 L 11.96875 -12.546875 L 11.96875 -10.34375 L 17.515625 -10.34375 Z M 17.515625 -6.8125 L 17.515625 -9.046875 L 11.96875 -9.046875 L 11.96875 -6.8125 Z M 19.125 -6.671875 L 17.90625 -5.453125 L 11.71875 -5.453125 C 11.445312 -4.003906 10.796875 -2.757812 9.765625 -1.71875 C 11.054688 -1.132812 12.601562 -0.71875 14.40625 -0.46875 C 16.226562 -0.226562 18.492188 -0.0703125 21.203125 0 L 20.53125 1.609375 C 17.726562 1.492188 15.359375 1.265625 13.421875 0.921875 C 11.492188 0.597656 9.835938 0.0625 8.453125 -0.6875 C 6.890625 0.34375 4.757812 1.132812 2.0625 1.6875 L 1.09375 0.265625 C 3.644531 -0.234375 5.59375 -0.863281 6.9375 -1.625 C 5.84375 -2.457031 4.9375 -3.492188 4.21875 -4.734375 L 5.59375 -5.28125 C 6.332031 -4.132812 7.21875 -3.222656 8.25 -2.546875 C 9.144531 -3.316406 9.738281 -4.285156 10.03125 -5.453125 L 4.703125 -5.453125 L 3.5 -6.671875 L 3.5 -12.6875 L 4.703125 -13.90625 L 10.296875 -13.90625 L 10.296875 -15.75 L 1.5 -15.75 L 1.5 -17.21875 L 20.5 -17.21875 L 20.5 -15.75 L 11.96875 -15.75 L 11.96875 -13.90625 L 17.90625 -13.90625 L 19.125 -12.6875 Z M 19.125 -6.671875 "/></g></g></g><g fill="rgb(24.308777%, 22.749329%, 22.349548%)" fill-opacity="1"><g transform="translate(245.320196, 441.791835)"><g><path d="M 14.953125 -15.1875 L 8.671875 -15.1875 L 7.28125 -14.234375 C 9 -13.347656 10.296875 -12.523438 11.171875 -11.765625 C 12.773438 -12.828125 14.035156 -13.96875 14.953125 -15.1875 Z M 16.28125 -16.65625 L 17.3125 -16 C 16.414062 -14.382812 15.125 -12.914062 13.4375 -11.59375 C 10.375 -9.1875 6.65625 -7.515625 2.28125 -6.578125 L 1.5 -8.015625 C 4.457031 -8.554688 7.210938 -9.53125 9.765625 -10.9375 C 8.796875 -11.769531 7.515625 -12.597656 5.921875 -13.421875 C 4.984375 -12.910156 3.941406 -12.421875 2.796875 -11.953125 L 1.671875 -13.15625 C 3.535156 -13.8125 5.175781 -14.609375 6.59375 -15.546875 C 8.03125 -16.492188 9.160156 -17.457031 9.984375 -18.4375 L 11.8125 -18.046875 L 10.359375 -16.5625 Z M 18.28125 -7.53125 L 11.96875 -7.53125 L 10.03125 -6.265625 C 11.78125 -5.296875 13.179688 -4.335938 14.234375 -3.390625 C 16.003906 -4.554688 17.351562 -5.9375 18.28125 -7.53125 Z M 19.484375 -9 L 20.546875 -8.40625 C 18.179688 -2.9375 12.625 0.4375 3.875 1.71875 L 3.140625 0.234375 C 6.910156 -0.210938 10.125 -1.132812 12.78125 -2.53125 C 11.582031 -3.632812 10.175781 -4.617188 8.5625 -5.484375 C 7.351562 -4.890625 6.128906 -4.375 4.890625 -3.9375 L 3.890625 -5.171875 C 6.078125 -5.859375 8 -6.71875 9.65625 -7.75 C 11.332031 -8.789062 12.625 -9.867188 13.53125 -10.984375 L 15.328125 -10.5625 L 13.734375 -8.9375 Z M 19.484375 -9 "/></g></g></g><g fill="rgb(24.308777%, 22.749329%, 22.349548%)" fill-opacity="1"><g transform="translate(267.316278, 441.791835)"><g><path d="M 21.25 -18.609375 L 21.25 -17.09375 L 15.921875 -17.09375 L 15.921875 -4.375 L 14.296875 -4.375 L 14.296875 -17.40625 L 15.515625 -18.609375 Z M 21.25 -18.609375 "/></g></g></g><g fill="rgb(24.308777%, 22.749329%, 22.349548%)" fill-opacity="1"><g transform="translate(289.312359, 441.791835)"><g><path d="M 11.765625 -4.8125 L 11.765625 -0.53125 C 12.878906 -0.289062 14.242188 -0.171875 15.859375 -0.171875 C 17.148438 -0.128906 18.894531 -0.140625 21.09375 -0.203125 L 20.5 1.40625 L 15.796875 1.40625 C 13.210938 1.40625 11.085938 1.078125 9.421875 0.421875 C 7.742188 -0.222656 6.394531 -1.445312 5.375 -3.25 C 4.550781 -1.039062 3.445312 0.617188 2.0625 1.734375 L 0.859375 0.65625 C 2.078125 -0.28125 3 -1.5625 3.625 -3.1875 C 4.269531 -4.8125 4.691406 -6.566406 4.890625 -8.453125 L 6.5625 -8.234375 C 6.425781 -7.304688 6.234375 -6.304688 5.984375 -5.234375 C 6.835938 -3.191406 8.21875 -1.785156 10.125 -1.015625 L 10.125 -9.75 L 1.453125 -9.75 L 1.453125 -11.28125 L 10.125 -11.28125 L 10.125 -14.296875 L 3.34375 -14.296875 L 3.34375 -15.8125 L 10.125 -15.8125 L 10.125 -18.34375 L 11.765625 -18.34375 L 11.765625 -15.8125 L 18.890625 -15.8125 L 18.890625 -14.296875 L 11.765625 -14.296875 L 11.765625 -11.28125 L 20.53125 -11.28125 L 20.53125 -9.75 L 11.765625 -9.75 L 11.765625 -6.3125 L 19.078125 -6.3125 L 19.078125 -4.8125 Z M 11.765625 -4.8125 "/></g></g></g><g fill="rgb(24.308777%, 22.749329%, 22.349548%)" fill-opacity="1"><g transform="translate(311.30844, 441.791835)"><g><path d="M 18.484375 -16.109375 L 14.21875 -16.109375 L 14.21875 -14.28125 L 18.484375 -14.28125 Z M 14.03125 -11.09375 L 18.484375 -11.09375 L 18.484375 -13 L 14.21875 -13 Z M 18.484375 -9.8125 L 13.765625 -9.8125 C 13.347656 -8.132812 12.601562 -6.785156 11.53125 -5.765625 L 10.234375 -6.53125 C 11.898438 -8.082031 12.734375 -10.457031 12.734375 -13.65625 L 12.734375 -16.265625 L 13.953125 -17.46875 L 18.8125 -17.46875 L 20.015625 -16.265625 L 20.015625 -7.234375 C 20.015625 -6.804688 19.960938 -6.476562 19.859375 -6.25 C 19.765625 -6.03125 19.546875 -5.835938 19.203125 -5.671875 C 18.867188 -5.523438 17.929688 -5.453125 16.390625 -5.453125 L 15.90625 -6.9375 C 16.5625 -6.90625 17.296875 -6.890625 18.109375 -6.890625 C 18.359375 -6.898438 18.484375 -7.023438 18.484375 -7.265625 Z M 5.59375 -10.25 L 5.671875 -14.03125 L 1.09375 -14.03125 L 1.09375 -15.40625 L 4.25 -15.40625 C 3.9375 -16.132812 3.46875 -16.894531 2.84375 -17.6875 L 4 -18.21875 C 4.75 -17.332031 5.265625 -16.53125 5.546875 -15.8125 L 4.703125 -15.40625 L 7.234375 -15.40625 L 8.734375 -18.21875 L 10.15625 -17.78125 L 8.734375 -15.40625 L 11.6875 -15.40625 L 11.6875 -14.03125 L 7.15625 -14.03125 L 7.15625 -10.25 L 9.53125 -10.25 L 9.53125 -13.0625 L 10.90625 -13.0625 L 10.90625 -8.3125 L 9.53125 -8.3125 L 9.53125 -8.90625 L 6.75 -8.90625 C 6.175781 -7.28125 4.863281 -6.003906 2.8125 -5.078125 L 1.796875 -6.203125 C 3.484375 -6.910156 4.59375 -7.8125 5.125 -8.90625 L 3.171875 -8.90625 L 1.953125 -10.125 L 1.953125 -13.0625 L 3.328125 -13.0625 L 3.328125 -10.25 Z M 11.765625 -0.5 L 20.921875 -0.5 L 20.921875 0.953125 L 1.09375 0.953125 L 1.09375 -0.5 L 10.125 -0.5 L 10.125 -2.953125 L 3.359375 -2.953125 L 3.359375 -4.375 L 10.125 -4.375 L 10.125 -5.734375 L 11.765625 -5.734375 L 11.765625 -4.375 L 18.640625 -4.375 L 18.640625 -2.953125 L 11.765625 -2.953125 Z M 11.765625 -0.5 "/></g></g></g><g fill="rgb(24.308777%, 22.749329%, 22.349548%)" fill-opacity="1"><g transform="translate(333.304522, 441.791835)"><g><path d="M 13.53125 -1.578125 C 12.320312 -0.335938 10.644531 0.28125 8.5 0.28125 C 6.363281 0.28125 4.625 -0.460938 3.28125 -1.953125 C 1.945312 -3.453125 1.28125 -5.484375 1.28125 -8.046875 C 1.28125 -10.617188 1.96875 -12.660156 3.34375 -14.171875 C 4.71875 -15.679688 6.492188 -16.4375 8.671875 -16.4375 C 10.515625 -16.4375 12.0625 -15.769531 13.3125 -14.4375 L 12.203125 -13.109375 C 11.242188 -14.140625 10.082031 -14.65625 8.71875 -14.65625 C 7.082031 -14.65625 5.78125 -14.066406 4.8125 -12.890625 C 3.84375 -11.710938 3.359375 -10.109375 3.359375 -8.078125 C 3.359375 -6.046875 3.832031 -4.4375 4.78125 -3.25 C 5.71875 -2.082031 7.039062 -1.5 8.75 -1.5 C 10.007812 -1.5 10.976562 -1.8125 11.65625 -2.4375 L 11.65625 -6.671875 L 8.25 -6.671875 L 8.25 -8.359375 L 12.3125 -8.359375 L 13.53125 -7.15625 Z M 13.53125 -1.578125 "/></g></g></g><g fill="rgb(24.308777%, 22.749329%, 22.349548%)" fill-opacity="1"><g transform="translate(348.459818, 441.791835)"><g><path d="M 2.203125 0 L 2.203125 -14.9375 L 3.40625 -16.140625 L 6.8125 -16.140625 C 10.832031 -16.140625 12.84375 -14.554688 12.84375 -11.390625 C 12.84375 -9.734375 12.304688 -8.488281 11.234375 -7.65625 C 10.179688 -6.820312 8.738281 -6.40625 6.90625 -6.40625 L 4.25 -6.40625 L 4.25 0 Z M 4.25 -8.046875 L 6.640625 -8.046875 C 8.066406 -8.046875 9.117188 -8.316406 9.796875 -8.859375 C 10.484375 -9.410156 10.828125 -10.25 10.828125 -11.375 C 10.828125 -12.519531 10.484375 -13.316406 9.796875 -13.765625 C 9.097656 -14.234375 8.019531 -14.46875 6.5625 -14.46875 L 4.25 -14.46875 Z M 4.25 -8.046875 "/></g></g></g><g fill="rgb(24.308777%, 22.749329%, 22.349548%)" fill-opacity="1"><g transform="translate(362.361344, 441.791835)"><g><path d="M 6.6875 0.28125 C 4.445312 0.28125 2.5625 -0.515625 1.03125 -2.109375 L 2.265625 -3.5 C 3.523438 -2.164062 5.003906 -1.5 6.703125 -1.5 C 7.742188 -1.5 8.566406 -1.734375 9.171875 -2.203125 C 9.785156 -2.679688 10.09375 -3.320312 10.09375 -4.125 C 10.09375 -4.9375 9.820312 -5.539062 9.28125 -5.9375 C 8.875 -6.257812 8.25 -6.613281 7.40625 -7 L 5.078125 -8.015625 C 2.890625 -8.953125 1.796875 -10.328125 1.796875 -12.140625 C 1.796875 -13.390625 2.273438 -14.414062 3.234375 -15.21875 C 4.203125 -16.03125 5.421875 -16.4375 6.890625 -16.4375 C 8.765625 -16.4375 10.347656 -15.769531 11.640625 -14.4375 L 10.5625 -13.140625 C 9.476562 -14.148438 8.253906 -14.65625 6.890625 -14.65625 C 5.972656 -14.65625 5.238281 -14.429688 4.6875 -13.984375 C 4.144531 -13.566406 3.875 -13 3.875 -12.28125 C 3.875 -11.4375 4.269531 -10.773438 5.0625 -10.296875 C 5.414062 -10.109375 5.90625 -9.875 6.53125 -9.59375 L 8.84375 -8.609375 C 9.914062 -8.128906 10.738281 -7.566406 11.3125 -6.921875 C 11.882812 -6.285156 12.171875 -5.359375 12.171875 -4.140625 C 12.171875 -2.929688 11.660156 -1.890625 10.640625 -1.015625 C 9.648438 -0.148438 8.332031 0.28125 6.6875 0.28125 Z M 6.6875 0.28125 "/></g></g></g><g fill="rgb(24.308777%, 22.749329%, 22.349548%)" fill-opacity="1"><g transform="translate(375.493016, 441.791835)"><g><path d="M 0.75 1.890625 L 0.75 0.375 L 6.078125 0.375 L 6.078125 -12.34375 L 7.703125 -12.34375 L 7.703125 0.6875 L 6.484375 1.890625 Z M 0.75 1.890625 "/></g></g></g><g fill="rgb(24.308777%, 22.749329%, 22.349548%)" fill-opacity="1"><g transform="translate(397.489108, 441.791835)"><g><path d="M 13.875 -8.3125 L 8.125 -8.3125 L 8.125 -4.15625 L 13.875 -4.15625 Z M 15.421875 -3.953125 L 14.21875 -2.75 L 8.125 -2.75 L 8.125 -1.171875 L 6.59375 -1.171875 L 6.59375 -8.484375 L 7.8125 -9.703125 L 14.21875 -9.703125 L 15.421875 -8.484375 Z M 16.59375 -13.421875 L 16.59375 -11.984375 L 5.5 -11.984375 L 5.5 -13.421875 Z M 18.859375 -17.265625 L 20.046875 -16.0625 L 20.046875 -0.375 C 20.046875 0.132812 19.972656 0.523438 19.828125 0.796875 C 19.691406 1.054688 19.460938 1.257812 19.140625 1.40625 C 18.609375 1.613281 17.382812 1.71875 15.46875 1.71875 L 14.875 0.109375 C 16.351562 0.148438 17.363281 0.15625 17.90625 0.125 C 18.257812 0.113281 18.4375 -0.0507812 18.4375 -0.375 L 18.4375 -15.703125 L 3.59375 -15.703125 L 3.59375 1.734375 L 2 1.734375 L 2 -16.0625 L 3.21875 -17.265625 Z M 18.859375 -17.265625 "/></g></g></g><g fill="rgb(24.308777%, 22.749329%, 22.349548%)" fill-opacity="1"><g transform="translate(419.485201, 441.791835)"><g><path d="M 8.734375 -5.765625 L 7.53125 -5.296875 L 7.234375 -6.40625 C 4.992188 -6.050781 3.53125 -5.804688 2.84375 -5.671875 L 1.515625 -5.28125 L 1.015625 -6.75 C 1.367188 -6.820312 1.90625 -7.316406 2.625 -8.234375 C 3.039062 -8.671875 3.65625 -9.515625 4.46875 -10.765625 C 2.644531 -10.535156 1.609375 -10.359375 1.359375 -10.234375 L 0.859375 -11.703125 C 1.179688 -11.773438 1.570312 -12.175781 2.03125 -12.90625 C 2.351562 -13.363281 2.796875 -14.128906 3.359375 -15.203125 C 3.953125 -16.273438 4.4375 -17.332031 4.8125 -18.375 L 6.296875 -17.78125 C 5.285156 -15.53125 4.191406 -13.59375 3.015625 -11.96875 L 5.375 -12.1875 L 7.0625 -15.1875 L 8.375 -14.40625 C 6.851562 -11.625 5.207031 -9.210938 3.4375 -7.171875 L 6.84375 -7.609375 L 6.09375 -9.71875 L 7.234375 -10.078125 Z M 1.84375 -4.328125 L 3.140625 -4.0625 C 2.867188 -2.15625 2.507812 -0.4375 2.0625 1.09375 L 0.8125 0.71875 C 1.207031 -0.5625 1.550781 -2.242188 1.84375 -4.328125 Z M 4.046875 -4.203125 L 5.265625 -4.421875 L 5.859375 0.0625 L 4.59375 0.375 Z M 12.5 -3.984375 L 13.03125 -2.765625 C 11.363281 -1.609375 10.054688 -0.726562 9.109375 -0.125 L 8.421875 -1.0625 L 7.453125 -0.703125 L 6.34375 -4.625 L 7.4375 -5 C 7.945312 -3.6875 8.328125 -2.5 8.578125 -1.4375 C 9.710938 -2.132812 11.019531 -2.984375 12.5 -3.984375 Z M 12.796875 -5.265625 L 11.640625 -4.375 L 9.125 -7.390625 L 10.234375 -8.15625 Z M 16.015625 -3.03125 L 16.890625 -4.046875 C 18.796875 -2.796875 20.132812 -1.800781 20.90625 -1.0625 L 20.015625 0.109375 C 19.140625 -0.796875 17.804688 -1.84375 16.015625 -3.03125 Z M 19.203125 -8.203125 L 20.390625 -7.34375 L 17.359375 -4.546875 L 16.375 -5.296875 Z M 11.5 -13.28125 L 16.4375 -13.28125 L 16.828125 -15.3125 L 12.078125 -15.3125 Z M 17.296875 -10.28125 L 20.96875 -10.28125 L 20.96875 -8.828125 L 15.40625 -8.828125 L 15.40625 -0.015625 C 15.40625 0.398438 15.351562 0.71875 15.25 0.9375 C 15.144531 1.164062 14.898438 1.351562 14.515625 1.5 C 14.140625 1.65625 13.285156 1.71875 11.953125 1.6875 L 11.4375 0.265625 C 11.757812 0.273438 12.457031 0.28125 13.53125 0.28125 C 13.675781 0.269531 13.769531 0.238281 13.8125 0.1875 C 13.851562 0.144531 13.875 0.0664062 13.875 -0.046875 L 13.875 -8.828125 L 8.453125 -8.828125 L 8.453125 -10.28125 L 15.78125 -10.28125 L 16.140625 -11.984375 L 10.734375 -11.984375 L 9.828125 -12.890625 C 10.179688 -13.847656 10.648438 -15.679688 11.234375 -18.390625 L 12.765625 -18.234375 L 12.390625 -16.609375 L 17.359375 -16.515625 L 18.34375 -15.296875 C 18.125 -13.972656 17.773438 -12.300781 17.296875 -10.28125 Z M 17.296875 -10.28125 "/></g></g></g><g fill="rgb(24.308777%, 22.749329%, 22.349548%)" fill-opacity="1"><g transform="translate(441.481294, 441.791835)"><g><path d="M 13.15625 -15.03125 L 7.40625 -15.03125 L 5.03125 -12.34375 L 10.84375 -12.34375 Z M 17.265625 -7 L 17.265625 -10.828125 L 12.015625 -10.828125 L 12.015625 -7 Z M 5.375 -10.828125 L 5.375 -7 L 10.421875 -7 L 10.421875 -10.828125 Z M 8.203125 -0.171875 L 16.765625 -0.171875 C 17.835938 -0.171875 18.535156 -0.382812 18.859375 -0.8125 C 19.179688 -1.238281 19.40625 -2.191406 19.53125 -3.671875 L 21.09375 -3.078125 C 20.90625 -1.316406 20.539062 -0.144531 20 0.4375 C 19.457031 1.019531 18.378906 1.3125 16.765625 1.3125 L 8.3125 1.3125 C 6.550781 1.3125 5.351562 1.097656 4.71875 0.671875 C 4.09375 0.253906 3.78125 -0.578125 3.78125 -1.828125 L 3.78125 -11.203125 C 3.28125 -10.742188 2.628906 -10.238281 1.828125 -9.6875 L 0.953125 -11.21875 C 2.328125 -12.050781 3.628906 -13.109375 4.859375 -14.390625 C 6.085938 -15.679688 7.070312 -17.046875 7.8125 -18.484375 L 9.265625 -17.9375 L 8.453125 -16.5 L 14.5625 -16.59375 L 15.640625 -15.8125 L 12.828125 -12.34375 L 17.671875 -12.34375 L 18.875 -11.125 L 18.875 -4.46875 L 17.265625 -4.46875 L 17.265625 -5.4375 L 5.375 -5.4375 L 5.375 -1.796875 C 5.375 -1.140625 5.546875 -0.703125 5.890625 -0.484375 C 6.265625 -0.273438 7.035156 -0.171875 8.203125 -0.171875 Z M 8.203125 -0.171875 "/></g></g></g><g fill="rgb(24.308777%, 22.749329%, 22.349548%)" fill-opacity="1"><g transform="translate(463.477386, 441.791835)"><g><path d="M 7.078125 -15.90625 L 7.078125 -11.953125 L 10.90625 -11.953125 L 10.90625 -10.421875 L 7.078125 -10.421875 L 7.078125 -9.859375 C 8.179688 -8.703125 9.410156 -7.285156 10.765625 -5.609375 L 9.765625 -4.265625 L 7.078125 -7.984375 L 7.078125 1.625 L 5.484375 1.625 L 5.484375 -8.046875 C 4.273438 -5.191406 2.96875 -3.007812 1.5625 -1.5 L 0.640625 -2.984375 C 1.460938 -3.804688 2.273438 -4.898438 3.078125 -6.265625 C 3.898438 -7.648438 4.5625 -9.035156 5.0625 -10.421875 L 1.1875 -10.421875 L 1.1875 -11.953125 L 5.484375 -11.953125 L 5.484375 -15.59375 C 4.347656 -15.414062 3.132812 -15.238281 1.84375 -15.0625 L 1.390625 -16.375 C 5.128906 -16.882812 7.882812 -17.488281 9.65625 -18.1875 L 10.765625 -16.921875 Z M 13.265625 -2.6875 L 18.171875 -2.6875 L 18.171875 -14.8125 L 13.265625 -14.8125 Z M 11.65625 -15.15625 L 12.875 -16.375 L 18.59375 -16.375 L 19.796875 -15.15625 L 19.796875 0.546875 L 18.171875 0.546875 L 18.171875 -1.09375 L 13.265625 -1.09375 L 13.265625 0.703125 L 11.65625 0.703125 Z M 11.65625 -15.15625 "/></g></g></g><g fill="rgb(24.308777%, 22.749329%, 22.349548%)" fill-opacity="1"><g transform="translate(485.473479, 441.791835)"><g><path d="M 20.8125 -7.640625 L 20.8125 -6.03125 L 11.796875 -6.03125 L 11.796875 1.671875 L 10.125 1.671875 L 10.125 -6.03125 L 1.234375 -6.03125 L 1.234375 -7.640625 L 10.125 -7.640625 L 10.125 -15.3125 L 2.375 -15.3125 L 2.375 -16.921875 L 19.578125 -16.921875 L 19.578125 -15.3125 L 11.796875 -15.3125 L 11.796875 -7.640625 Z M 3.921875 -13.796875 L 5.34375 -14.234375 C 6.425781 -12.328125 7.125 -10.675781 7.4375 -9.28125 L 5.890625 -8.75 C 5.546875 -10.257812 4.890625 -11.941406 3.921875 -13.796875 Z M 15.578125 -8.6875 L 14.1875 -9.15625 C 15.09375 -10.675781 15.882812 -12.40625 16.5625 -14.34375 L 18.28125 -13.859375 C 17.300781 -11.671875 16.398438 -9.945312 15.578125 -8.6875 Z M 15.578125 -8.6875 "/></g></g></g><g fill="rgb(24.308777%, 22.749329%, 22.349548%)" fill-opacity="1"><g transform="translate(179.331952, 472.541833)"><g><path d="M 5.171875 -17.8125 L 10.640625 -17.8125 L 12.515625 -16.890625 C 13.085938 -15.992188 14.234375 -14.863281 15.953125 -13.5 C 17.671875 -12.144531 19.410156 -11.097656 21.171875 -10.359375 L 20.0625 -8.9375 C 18.40625 -9.707031 16.765625 -10.753906 15.140625 -12.078125 C 13.523438 -13.398438 12.144531 -14.796875 11 -16.265625 C 9.882812 -14.878906 8.476562 -13.488281 6.78125 -12.09375 C 5.09375 -10.71875 3.46875 -9.613281 1.90625 -8.78125 L 0.90625 -10.09375 C 2.269531 -10.726562 3.695312 -11.609375 5.1875 -12.734375 C 6.695312 -13.878906 8 -15.0625 9.09375 -16.28125 L 5.171875 -16.28125 Z M 11.765625 -4.0625 L 11.765625 -0.421875 L 20.34375 -0.421875 L 20.34375 1.078125 L 1.765625 1.078125 L 1.765625 -0.421875 L 10.09375 -0.421875 L 10.09375 -4.0625 L 3.9375 -4.0625 L 3.9375 -5.515625 L 10.09375 -5.515625 L 10.09375 -8.890625 L 4.890625 -8.890625 L 4.890625 -10.359375 L 17.15625 -10.359375 L 17.15625 -8.890625 L 11.765625 -8.890625 L 11.765625 -5.515625 L 18.015625 -5.515625 L 18.015625 -4.0625 Z M 11.765625 -4.0625 "/></g></g></g><g fill="rgb(24.308777%, 22.749329%, 22.349548%)" fill-opacity="1"><g transform="translate(201.328033, 472.541833)"><g><path d="M 7.21875 -5.125 L 7.53125 -3.671875 C 7.21875 -3.535156 5.210938 -2.738281 1.515625 -1.28125 L 0.984375 -2.875 L 3.5625 -3.78125 L 3.5625 -11.546875 L 1.28125 -11.546875 L 1.28125 -13.0625 L 3.5625 -13.0625 L 3.5625 -18.15625 L 5.078125 -18.15625 L 5.078125 -13.0625 L 7.171875 -13.0625 L 7.171875 -11.546875 L 5.078125 -11.546875 L 5.078125 -4.328125 Z M 18.984375 -11.09375 L 20.5 -10.84375 C 19.769531 -7.957031 18.742188 -5.488281 17.421875 -3.4375 C 17.984375 -1.207031 18.625 -0.09375 19.34375 -0.09375 C 19.738281 -0.09375 19.976562 -1.296875 20.0625 -3.703125 L 21.28125 -2.859375 C 21.15625 -1.203125 20.941406 -0.0703125 20.640625 0.53125 C 20.347656 1.144531 19.847656 1.453125 19.140625 1.453125 C 17.960938 1.453125 17.015625 0.351562 16.296875 -1.84375 C 15.203125 -0.457031 13.976562 0.691406 12.625 1.609375 L 11.484375 0.484375 C 13.140625 -0.546875 14.582031 -1.929688 15.8125 -3.671875 C 15.269531 -6.140625 14.921875 -9.425781 14.765625 -13.53125 L 9.609375 -13.53125 L 9.609375 -10.578125 L 12.609375 -10.578125 L 13.796875 -8.53125 C 13.804688 -5.082031 13.613281 -3.101562 13.21875 -2.59375 C 12.988281 -2.238281 12.628906 -2.035156 12.140625 -1.984375 C 11.660156 -1.929688 10.988281 -1.929688 10.125 -1.984375 L 9.75 -3.359375 C 10.25 -3.316406 10.820312 -3.296875 11.46875 -3.296875 C 11.757812 -3.296875 11.929688 -3.367188 11.984375 -3.515625 C 12.191406 -3.796875 12.328125 -5.691406 12.390625 -9.203125 L 9.609375 -9.203125 L 9.609375 -8.234375 C 9.609375 -3.679688 8.703125 -0.347656 6.890625 1.765625 L 5.671875 0.71875 C 6.660156 -0.40625 7.304688 -1.71875 7.609375 -3.21875 C 7.929688 -4.726562 8.09375 -6.40625 8.09375 -8.25 L 8.09375 -13.84375 L 9.3125 -15.046875 L 14.71875 -15.046875 L 14.65625 -18.40625 L 16.21875 -18.40625 L 16.234375 -15.046875 L 20.875 -15.046875 L 20.875 -13.53125 L 16.28125 -13.53125 C 16.382812 -10.625 16.617188 -7.984375 16.984375 -5.609375 C 17.804688 -7.128906 18.472656 -8.957031 18.984375 -11.09375 Z M 19.265625 -15.046875 L 16.65625 -17.5625 L 17.75 -18.265625 L 20.375 -15.796875 Z M 19.265625 -15.046875 "/></g></g></g><g fill="rgb(24.308777%, 22.749329%, 22.349548%)" fill-opacity="1"><g transform="translate(223.324115, 472.541833)"><g><path d="M 11.765625 -4.8125 L 11.765625 -0.53125 C 12.878906 -0.289062 14.242188 -0.171875 15.859375 -0.171875 C 17.148438 -0.128906 18.894531 -0.140625 21.09375 -0.203125 L 20.5 1.40625 L 15.796875 1.40625 C 13.210938 1.40625 11.085938 1.078125 9.421875 0.421875 C 7.742188 -0.222656 6.394531 -1.445312 5.375 -3.25 C 4.550781 -1.039062 3.445312 0.617188 2.0625 1.734375 L 0.859375 0.65625 C 2.078125 -0.28125 3 -1.5625 3.625 -3.1875 C 4.269531 -4.8125 4.691406 -6.566406 4.890625 -8.453125 L 6.5625 -8.234375 C 6.425781 -7.304688 6.234375 -6.304688 5.984375 -5.234375 C 6.835938 -3.191406 8.21875 -1.785156 10.125 -1.015625 L 10.125 -9.75 L 1.453125 -9.75 L 1.453125 -11.28125 L 10.125 -11.28125 L 10.125 -14.296875 L 3.34375 -14.296875 L 3.34375 -15.8125 L 10.125 -15.8125 L 10.125 -18.34375 L 11.765625 -18.34375 L 11.765625 -15.8125 L 18.890625 -15.8125 L 18.890625 -14.296875 L 11.765625 -14.296875 L 11.765625 -11.28125 L 20.53125 -11.28125 L 20.53125 -9.75 L 11.765625 -9.75 L 11.765625 -6.3125 L 19.078125 -6.3125 L 19.078125 -4.8125 Z M 11.765625 -4.8125 "/></g></g></g><g fill="rgb(24.308777%, 22.749329%, 22.349548%)" fill-opacity="1"><g transform="translate(245.320196, 472.541833)"><g><path d="M 18.484375 -16.109375 L 14.21875 -16.109375 L 14.21875 -14.28125 L 18.484375 -14.28125 Z M 14.03125 -11.09375 L 18.484375 -11.09375 L 18.484375 -13 L 14.21875 -13 Z M 18.484375 -9.8125 L 13.765625 -9.8125 C 13.347656 -8.132812 12.601562 -6.785156 11.53125 -5.765625 L 10.234375 -6.53125 C 11.898438 -8.082031 12.734375 -10.457031 12.734375 -13.65625 L 12.734375 -16.265625 L 13.953125 -17.46875 L 18.8125 -17.46875 L 20.015625 -16.265625 L 20.015625 -7.234375 C 20.015625 -6.804688 19.960938 -6.476562 19.859375 -6.25 C 19.765625 -6.03125 19.546875 -5.835938 19.203125 -5.671875 C 18.867188 -5.523438 17.929688 -5.453125 16.390625 -5.453125 L 15.90625 -6.9375 C 16.5625 -6.90625 17.296875 -6.890625 18.109375 -6.890625 C 18.359375 -6.898438 18.484375 -7.023438 18.484375 -7.265625 Z M 5.59375 -10.25 L 5.671875 -14.03125 L 1.09375 -14.03125 L 1.09375 -15.40625 L 4.25 -15.40625 C 3.9375 -16.132812 3.46875 -16.894531 2.84375 -17.6875 L 4 -18.21875 C 4.75 -17.332031 5.265625 -16.53125 5.546875 -15.8125 L 4.703125 -15.40625 L 7.234375 -15.40625 L 8.734375 -18.21875 L 10.15625 -17.78125 L 8.734375 -15.40625 L 11.6875 -15.40625 L 11.6875 -14.03125 L 7.15625 -14.03125 L 7.15625 -10.25 L 9.53125 -10.25 L 9.53125 -13.0625 L 10.90625 -13.0625 L 10.90625 -8.3125 L 9.53125 -8.3125 L 9.53125 -8.90625 L 6.75 -8.90625 C 6.175781 -7.28125 4.863281 -6.003906 2.8125 -5.078125 L 1.796875 -6.203125 C 3.484375 -6.910156 4.59375 -7.8125 5.125 -8.90625 L 3.171875 -8.90625 L 1.953125 -10.125 L 1.953125 -13.0625 L 3.328125 -13.0625 L 3.328125 -10.25 Z M 11.765625 -0.5 L 20.921875 -0.5 L 20.921875 0.953125 L 1.09375 0.953125 L 1.09375 -0.5 L 10.125 -0.5 L 10.125 -2.953125 L 3.359375 -2.953125 L 3.359375 -4.375 L 10.125 -4.375 L 10.125 -5.734375 L 11.765625 -5.734375 L 11.765625 -4.375 L 18.640625 -4.375 L 18.640625 -2.953125 L 11.765625 -2.953125 Z M 11.765625 -0.5 "/></g></g></g><g fill="rgb(24.308777%, 22.749329%, 22.349548%)" fill-opacity="1"><g transform="translate(267.316278, 472.541833)"><g><path d="M 7.015625 -15.65625 L 5.703125 -14.921875 L 4.09375 -17.84375 L 5.328125 -18.484375 Z M 10.515625 -14.671875 L 10.515625 -13.328125 L 1.46875 -13.328125 L 1.46875 -14.671875 Z M 9.546875 -8.9375 L 9.546875 -7.640625 L 2.4375 -7.640625 L 2.4375 -8.9375 Z M 8.140625 -4.640625 L 4.046875 -4.640625 L 4.046875 -1.015625 L 8.140625 -1.015625 Z M 8.359375 -6 L 9.5625 -4.796875 L 9.5625 -0.859375 L 8.359375 0.359375 L 4.046875 0.359375 L 4.046875 1.390625 L 2.625 1.390625 L 2.625 -4.796875 L 3.828125 -6 Z M 2.4375 -10.5 L 2.4375 -11.796875 L 9.59375 -11.796875 L 9.59375 -10.5 Z M 20.9375 -10.828125 L 20.9375 -9.21875 L 16.4375 -9.21875 L 16.4375 1.6875 L 14.78125 1.6875 L 14.78125 -9.21875 L 10.46875 -9.21875 L 10.46875 -10.828125 L 14.78125 -10.828125 L 14.78125 -18 L 16.4375 -18 L 16.4375 -10.828125 Z M 20.9375 -10.828125 "/></g></g></g><g fill="rgb(24.308777%, 22.749329%, 22.349548%)" fill-opacity="1"><g transform="translate(289.312359, 472.541833)"><g><path d="M 1.09375 1.140625 L 0.96875 -0.171875 C 4.738281 -0.335938 8.941406 -0.53125 13.578125 -0.75 L 13.53125 0.5 C 6.820312 0.851562 2.675781 1.066406 1.09375 1.140625 Z M 10.84375 -4.4375 L 10.84375 -5.5 L 8.03125 -5.5 L 8.03125 -4.4375 Z M 10.84375 -2.484375 L 10.84375 -3.546875 L 8.03125 -3.546875 L 8.03125 -2.484375 Z M 3.78125 -3.546875 L 3.78125 -2.484375 L 6.625 -2.484375 L 6.625 -3.546875 Z M 3.78125 -5.5 L 3.78125 -4.4375 L 6.625 -4.4375 L 6.625 -5.5 Z M 2.4375 -5.1875 L 3.65625 -6.40625 L 11.015625 -6.40625 L 12.234375 -5.1875 L 12.234375 -2.765625 L 11.015625 -1.5625 L 3.65625 -1.5625 L 2.4375 -2.765625 Z M 10.828125 -12.5625 L 10.828125 -13.75 L 7.9375 -13.75 L 7.9375 -12.5625 Z M 7.9375 -15.953125 L 7.9375 -14.875 L 10.828125 -14.875 L 10.828125 -15.953125 Z M 11.0625 -16.984375 L 12.25 -15.78125 L 12.25 -14.875 L 13.625 -14.875 L 13.625 -13.75 L 12.25 -13.75 L 12.25 -12.734375 L 11.0625 -11.53125 L 7.9375 -11.53125 L 7.9375 -10.53125 L 12.5625 -10.53125 L 12.5625 -9.5 L 7.9375 -9.5 L 7.9375 -8.484375 L 13.484375 -8.484375 L 13.484375 -7.34375 L 1.125 -7.34375 L 1.125 -8.484375 L 6.453125 -8.484375 L 6.453125 -9.5 L 2.15625 -9.5 L 2.15625 -10.53125 L 6.453125 -10.53125 L 6.453125 -11.53125 L 2.3125 -11.53125 L 2.3125 -12.5625 L 6.453125 -12.5625 L 6.453125 -13.75 L 0.984375 -13.75 L 0.984375 -14.875 L 6.453125 -14.875 L 6.453125 -15.953125 L 2.390625 -15.953125 L 2.390625 -16.984375 L 6.453125 -16.984375 L 6.453125 -18.390625 L 7.9375 -18.390625 L 7.9375 -16.984375 Z M 15.921875 -15.78125 L 15.921875 -3.671875 L 14.4375 -3.671875 L 14.4375 -15.78125 Z M 18.59375 -17.96875 L 20.125 -17.96875 L 20.125 -0.375 C 20.125 0.125 20.054688 0.503906 19.921875 0.765625 C 19.796875 1.035156 19.570312 1.242188 19.25 1.390625 C 18.769531 1.578125 17.632812 1.671875 15.84375 1.671875 L 15.328125 0.09375 C 16.691406 0.132812 17.570312 0.140625 17.96875 0.109375 C 18.382812 0.0976562 18.59375 -0.0625 18.59375 -0.375 Z M 18.59375 -17.96875 "/></g></g></g><g fill="rgb(24.308777%, 22.749329%, 22.349548%)" fill-opacity="1"><g transform="translate(311.30844, 472.541833)"><g><path d="M 12.171875 -12.421875 C 11.847656 -12.117188 11.457031 -11.96875 11 -11.96875 C 10.539062 -11.96875 10.148438 -12.117188 9.828125 -12.421875 C 9.503906 -12.734375 9.34375 -13.128906 9.34375 -13.609375 C 9.34375 -14.097656 9.503906 -14.492188 9.828125 -14.796875 C 10.148438 -15.109375 10.539062 -15.265625 11 -15.265625 C 11.457031 -15.265625 11.847656 -15.109375 12.171875 -14.796875 C 12.503906 -14.492188 12.671875 -14.097656 12.671875 -13.609375 C 12.671875 -13.128906 12.503906 -12.734375 12.171875 -12.421875 Z M 12.171875 -1.640625 C 11.847656 -1.335938 11.457031 -1.1875 11 -1.1875 C 10.539062 -1.1875 10.148438 -1.335938 9.828125 -1.640625 C 9.503906 -1.953125 9.34375 -2.351562 9.34375 -2.84375 C 9.34375 -3.34375 9.503906 -3.742188 9.828125 -4.046875 C 10.148438 -4.359375 10.539062 -4.515625 11 -4.515625 C 11.457031 -4.515625 11.847656 -4.351562 12.171875 -4.03125 C 12.503906 -3.71875 12.671875 -3.316406 12.671875 -2.828125 C 12.671875 -2.347656 12.503906 -1.953125 12.171875 -1.640625 Z M 12.171875 -1.640625 "/></g></g></g><g fill="rgb(24.308777%, 22.749329%, 22.349548%)" fill-opacity="1"><g transform="translate(179.331952, 503.291831)"><g><path d="M 2.203125 0 L 2.203125 -16.140625 L 3.453125 -16.140625 L 5.0625 -15.03125 L 9.015625 -4.140625 L 12.796875 -15.03125 L 14.40625 -16.140625 L 15.65625 -16.140625 L 15.65625 0 L 13.75 0 L 13.75 -8.9375 C 13.75 -9.84375 13.835938 -11.425781 14.015625 -13.6875 L 9.59375 -1.625 L 8.234375 -1.625 L 3.890625 -13.6875 C 3.992188 -11.101562 4.046875 -9.519531 4.046875 -8.9375 L 4.046875 0 Z M 2.203125 0 "/></g></g></g><g fill="rgb(24.308777%, 22.749329%, 22.349548%)" fill-opacity="1"><g transform="translate(197.192768, 503.291831)"><g><path d="M 5 -9.015625 L 4.203125 -6.5625 L 9.09375 -6.5625 L 8.3125 -9.015625 C 7.875 -10.378906 7.332031 -12.195312 6.6875 -14.46875 C 6.226562 -12.976562 5.664062 -11.160156 5 -9.015625 Z M 0.0625 0 L 5.546875 -16.140625 L 6.59375 -16.140625 L 8.1875 -15 L 13.28125 0 L 11.125 0 L 9.59375 -4.921875 L 3.703125 -4.921875 L 2.140625 0 Z M 0.0625 0 "/></g></g></g><g fill="rgb(24.308777%, 22.749329%, 22.349548%)" fill-opacity="1"><g transform="translate(210.544384, 503.291831)"><g><path d="M 2.203125 0 L 2.203125 -16.140625 L 4.25 -16.140625 L 4.25 0 Z M 2.203125 0 "/></g></g></g><g fill="rgb(24.308777%, 22.749329%, 22.349548%)" fill-opacity="1"><g transform="translate(216.989238, 503.291831)"><g><path d="M 2.203125 0 L 2.203125 -16.140625 L 3.109375 -16.140625 L 4.890625 -15.109375 L 12.015625 -2.640625 C 11.835938 -5.253906 11.75 -6.957031 11.75 -7.75 L 11.75 -16.140625 L 13.6875 -16.140625 L 13.6875 -1.203125 L 12.46875 0 L 11.59375 0 L 3.984375 -13.515625 C 4.085938 -10.535156 4.140625 -8.851562 4.140625 -8.46875 L 4.140625 0 Z M 2.203125 0 "/></g></g></g><g fill="rgb(24.308777%, 22.749329%, 22.349548%)" fill-opacity="1"><g transform="translate(232.87041, 503.291831)"><g/></g></g><g fill="rgb(24.308777%, 22.749329%, 22.349548%)" fill-opacity="1"><g transform="translate(237.797537, 503.291831)"><g><path d="M 2.203125 0 L 2.203125 -14.9375 L 3.40625 -16.140625 L 6.8125 -16.140625 C 10.832031 -16.140625 12.84375 -14.554688 12.84375 -11.390625 C 12.84375 -9.734375 12.304688 -8.488281 11.234375 -7.65625 C 10.179688 -6.820312 8.738281 -6.40625 6.90625 -6.40625 L 4.25 -6.40625 L 4.25 0 Z M 4.25 -8.046875 L 6.640625 -8.046875 C 8.066406 -8.046875 9.117188 -8.316406 9.796875 -8.859375 C 10.484375 -9.410156 10.828125 -10.25 10.828125 -11.375 C 10.828125 -12.519531 10.484375 -13.316406 9.796875 -13.765625 C 9.097656 -14.234375 8.019531 -14.46875 6.5625 -14.46875 L 4.25 -14.46875 Z M 4.25 -8.046875 "/></g></g></g><g fill="rgb(24.308777%, 22.749329%, 22.349548%)" fill-opacity="1"><g transform="translate(251.699064, 503.291831)"><g><path d="M 5 -9.015625 L 4.203125 -6.5625 L 9.09375 -6.5625 L 8.3125 -9.015625 C 7.875 -10.378906 7.332031 -12.195312 6.6875 -14.46875 C 6.226562 -12.976562 5.664062 -11.160156 5 -9.015625 Z M 0.0625 0 L 5.546875 -16.140625 L 6.59375 -16.140625 L 8.1875 -15 L 13.28125 0 L 11.125 0 L 9.59375 -4.921875 L 3.703125 -4.921875 L 2.140625 0 Z M 0.0625 0 "/></g></g></g><g fill="rgb(24.308777%, 22.749329%, 22.349548%)" fill-opacity="1"><g transform="translate(265.05068, 503.291831)"><g><path d="M 13.53125 -1.578125 C 12.320312 -0.335938 10.644531 0.28125 8.5 0.28125 C 6.363281 0.28125 4.625 -0.460938 3.28125 -1.953125 C 1.945312 -3.453125 1.28125 -5.484375 1.28125 -8.046875 C 1.28125 -10.617188 1.96875 -12.660156 3.34375 -14.171875 C 4.71875 -15.679688 6.492188 -16.4375 8.671875 -16.4375 C 10.515625 -16.4375 12.0625 -15.769531 13.3125 -14.4375 L 12.203125 -13.109375 C 11.242188 -14.140625 10.082031 -14.65625 8.71875 -14.65625 C 7.082031 -14.65625 5.78125 -14.066406 4.8125 -12.890625 C 3.84375 -11.710938 3.359375 -10.109375 3.359375 -8.078125 C 3.359375 -6.046875 3.832031 -4.4375 4.78125 -3.25 C 5.71875 -2.082031 7.039062 -1.5 8.75 -1.5 C 10.007812 -1.5 10.976562 -1.8125 11.65625 -2.4375 L 11.65625 -6.671875 L 8.25 -6.671875 L 8.25 -8.359375 L 12.3125 -8.359375 L 13.53125 -7.15625 Z M 13.53125 -1.578125 "/></g></g></g><g fill="rgb(24.308777%, 22.749329%, 22.349548%)" fill-opacity="1"><g transform="translate(280.205975, 503.291831)"><g><path d="M 3.40625 0 L 2.203125 -1.203125 L 2.203125 -14.9375 L 3.40625 -16.140625 L 11.5 -16.140625 L 11.5 -14.40625 L 4.25 -14.40625 L 4.25 -9.34375 L 10.359375 -9.34375 L 10.359375 -7.609375 L 4.25 -7.609375 L 4.25 -1.734375 L 11.75 -1.734375 L 11.75 0 Z M 3.40625 0 "/></g></g></g></svg>