<svg xmlns="http://www.w3.org/2000/svg" width="1080" viewBox="0 0 810 810" height="1080" version="1"><path fill="#D9F6E1" d="M-81-81h972v972H-81z"/><path fill="#FFF" d="M-81-81h972v972H-81z"/><path fill="#D9F6E1" d="M-81-81h972v972H-81z"/><path fill="#FFF" d="M508.047 591.828v-291.75H181.648v291.75h326.399M146.809 478.93v79.355c0 17.95 15.593 33.543 34.84 33.543v-291.75c-19.247 0-34.84 15.594-34.84 34.844v110.855c-35.637-1.07-71.008.625-87.668-2.406 28.332 13.102 58.8 22.637 87.668 35.559m396.074 79.355V334.922c0-19.25-15.59-34.844-34.836-34.844v291.75c19.246 0 34.836-15.594 34.836-33.543"/><path fill="#4DD171" d="M592.773 218.168v81.75H703.86v-81.75H592.773m124.516 13.07v-.785c0-6.297-6.012-12.285-13.43-12.285v81.75c7.418 0 13.43-5.988 13.43-13.379v-42.57c13.738.41 27.375-.239 33.8.922-10.925-5.028-22.671-8.692-33.8-13.653m-137.945-.785v56.086c0 7.39 6.011 13.379 13.43 13.379v-81.75c-7.419 0-13.43 5.988-13.43 12.285"/><path d="M194.285 330.09h-6.281l-1.39.954c1.718.887 3.015 1.71 3.89 2.469 1.601-1.063 2.863-2.204 3.781-3.422zm1.328-1.468l1.031.656c-.898 1.617-2.187 3.086-3.875 4.406-3.062 2.407-6.78 4.079-11.156 5.016l-.781-1.437a27.096 27.096 0 0 0 8.266-2.922c-.97-.832-2.25-1.66-3.844-2.485-.938.512-1.98 1-3.125 1.47l-1.125-1.204c1.863-.656 3.504-1.453 4.922-2.39 1.437-.946 2.566-1.91 3.39-2.891l1.828.39-1.453 1.485zm2 9.125h-6.312l-1.938 1.266c1.75.968 3.149 1.93 4.203 2.875 1.77-1.164 3.118-2.547 4.047-4.141zm1.203-1.469l1.063.594c-2.367 5.469-7.922 8.844-16.672 10.125l-.734-1.484c3.77-.446 6.984-1.368 9.64-2.766-1.199-1.102-2.605-2.086-4.219-2.953a34.255 34.255 0 0 1-3.671 1.547l-1-1.235c2.187-.687 4.109-1.547 5.765-2.578 1.676-1.039 2.969-2.117 3.875-3.234l1.797.422-1.594 1.625zm7.903-6.406l-1.282.516c-.18-.914-.543-1.899-1.093-2.954l1.203-.437c.613 1.086 1.004 2.043 1.172 2.875zm1.797.734v1.344h-5.891v-1.344zm-1.86 10.078h-2.078v3.688h2.078zm.047-1.328l1.203 1.22v3.905l-1.187 1.22h-2.141v1.03h-1.25v-6.156l1.219-1.219zm-3.328-1.64v-1.328h4.594v1.328zm0-2.938v-1.297h4.594v1.297zm7.484 2.047v1.75l2.719-.266v-1.484zm2.719-6.156h-2.719v1.828h2.719zm0 4.922v-1.86h-2.719v1.86zm0 4.062l-4.86.438-.156-1.328.907-.079v-9.359h1.672l.609-2.453 1.594.281-.844 2.172h1.266l1.203 1.219v7.437l.468-.672 1.204.438-1.672 2.25v5.062c0 .782-.215 1.266-.641 1.454-.43.207-1.375.312-2.844.312l-.453-1.39c1.54.07 2.367.039 2.485-.094.039-.055.062-.149.062-.297v-3.594a26.581 26.581 0 0 1-4.5 3.406l-.734-1.297c2.007-1.07 3.754-2.375 5.234-3.906zm5.375.36l-1.344.453c-.218-1.489-.758-3.192-1.61-5.11l1.282-.359c.863 1.887 1.422 3.559 1.672 5.016zm3.422-8.313v1.516h-1.25v11.672c0 .843-.258 1.375-.766 1.593-.511.227-1.511.344-3 .344l-.547-1.531c.352.02 1.145.031 2.375.031.164-.023.274-.055.329-.11.062-.062.093-.171.093-.327v-11.672h-4.047V331.7h4.047v-4.656h1.516v4.656zm6.825-4.75l1.53.469a35.53 35.53 0 0 1-2.265 4.703v14.781h-1.547V334.56c-.594.856-1.34 1.766-2.235 2.735l-.921-1.61c1.082-1.05 2.101-2.347 3.062-3.89a26.118 26.118 0 0 0 2.375-4.844zm4 9.281l1.608.313c-.761 3.117-1.835 5.61-3.218 7.484l-1.407-.906c1.32-1.594 2.329-3.89 3.016-6.89zm9.312-3.625h-4.141v12.36c0 .883-.258 1.441-.766 1.672-.46.218-.902.304-1.328.265l-1.969-1.078-.187-.5 2.266.016c.144 0 .242-.024.296-.063.051-.062.079-.164.079-.312v-12.36h-3.344c-.625 1.5-1.336 2.762-2.125 3.782l-1.297-1.032c1.594-2.007 2.797-4.8 3.61-8.375l1.593.344-1.156 3.766 9.078.172.969 1.328a50.214 50.214 0 0 1-.719 3.36l-1.375-.267zm-2.532 3.938l1.422-.485a27.835 27.835 0 0 1 1.703 3.782c.508 1.367.86 2.554 1.047 3.562l-1.562.531c-.168-1-.5-2.187-1-3.562a32.812 32.812 0 0 0-1.61-3.828zm11.48-9.719l1.532.484c-.586 1.45-1.34 2.977-2.266 4.579v15.171h-1.562v-12.828a22.082 22.082 0 0 1-2.406 2.86l-.938-1.578c1.113-1.04 2.172-2.332 3.172-3.875a25.844 25.844 0 0 0 2.469-4.813zm3.095 10.781h3.906l.015-3.265h-3.921zm9.578-3.265h-4.047v3.265h4.047zm1.562 3.437l-1.219 1.203h-4.5c-.199 1.711-.683 3.121-1.453 4.235 2.114 1.156 4.813 1.933 8.094 2.328l-.969 1.469c-3.242-.48-5.937-1.368-8.093-2.657-1.18 1.157-2.836 2.051-4.97 2.688l-1-1.375c2.009-.508 3.556-1.25 4.641-2.219a11.77 11.77 0 0 1-3.187-3.562l1.375-.438c.633 1.094 1.555 2.07 2.766 2.922.613-.895 1.007-2.023 1.187-3.39h-4.11l-1.218-1.204v-3.61l1.219-1.202h4.218v-2.157h-6.078v-1.5h6.078v-2.328h1.61v2.328h6.328v1.5h-6.328v2.157h4.39l1.22 1.203zm13.543.922h5.922v-3.656h-5.922zm-6.969 0h5.344v-3.656h-5.265zm5.344-8.719h-5.265v3.532h5.265zm7.547 3.532v-3.532h-5.922v3.532zm.39-5.094l1.22 1.219v15.109c0 .531-.087.926-.25 1.187-.149.282-.399.493-.75.641-.555.207-1.919.297-4.094.266l-.547-1.578c.687.02 1.832.03 3.437.03.219-.01.367-.05.453-.124.094-.082.141-.227.141-.438v-4.468h-5.922v6.484h-1.625v-6.484h-5.5c-.398 2.949-1.312 5.218-2.75 6.812l-1.25-1.078c1.145-1.281 1.89-2.863 2.235-4.75.27-1.457.406-3.094.406-4.906v-6.703l1.203-1.22zm22.22 15.281c-1.21 1.242-2.886 1.86-5.03 1.86-2.137 0-3.876-.743-5.22-2.235-1.335-1.5-2-3.531-2-6.094 0-2.57.688-4.613 2.063-6.125 1.375-1.507 3.149-2.265 5.328-2.265 1.844 0 3.391.668 4.641 2l-1.11 1.328c-.96-1.031-2.12-1.547-3.484-1.547-1.636 0-2.937.59-3.906 1.766-.969 1.18-1.453 2.78-1.453 4.812 0 2.031.473 3.64 1.422 4.828.937 1.168 2.258 1.75 3.968 1.75 1.258 0 2.227-.312 2.907-.937v-4.235h-3.407v-1.687h4.063l1.219 1.203zm3.656 1.578v-11.953h1.64l.173 2.188c.468-.782.992-1.391 1.578-1.829.593-.437 1.18-.656 1.765-.656l1.39.266-.374 1.75-1.25-.188c-.5 0-1.024.22-1.563.657-.543.437-.996 1.136-1.359 2.093v7.672zm13.347.282c-1.648 0-3.012-.563-4.094-1.688-1.086-1.133-1.625-2.64-1.625-4.516 0-1.882.535-3.41 1.61-4.578 1.062-1.164 2.328-1.75 3.797-1.75 1.476 0 2.64.508 3.484 1.516.832 1 1.25 2.367 1.25 4.094l-.094 1.14h-8.047c.063 1.274.453 2.293 1.172 3.063.727.75 1.633 1.125 2.719 1.125a5.345 5.345 0 0 0 3.062-.953l.72 1.312c-1.274.824-2.59 1.234-3.954 1.234zm-3.734-7.235h6.39c0-1.187-.261-2.098-.781-2.734-.523-.633-1.234-.953-2.14-.953-.907 0-1.684.336-2.329 1-.648.668-1.027 1.562-1.14 2.687zm15.92 7.235c-1.649 0-3.012-.563-4.094-1.688-1.086-1.133-1.625-2.64-1.625-4.516 0-1.882.535-3.41 1.61-4.578 1.062-1.164 2.328-1.75 3.796-1.75 1.477 0 2.641.508 3.485 1.516.832 1 1.25 2.367 1.25 4.094l-.094 1.14h-8.047c.063 1.274.453 2.293 1.172 3.063.727.75 1.633 1.125 2.719 1.125a5.345 5.345 0 0 0 3.062-.953l.719 1.312c-1.273.824-2.59 1.234-3.953 1.234zm-3.735-7.235h6.391c0-1.187-.262-2.098-.781-2.734-.524-.633-1.235-.953-2.14-.953-.907 0-1.684.336-2.329 1-.648.668-1.027 1.562-1.14 2.687zm11.108 6.953v-11.953h1.64l.173 1.719c1.425-1.344 2.785-2.016 4.078-2.016 2.437 0 3.656 1.563 3.656 4.688v7.562h-2.016v-7.297c0-1.113-.183-1.922-.546-2.422-.356-.52-.875-.78-1.563-.78-.687 0-1.266.14-1.734.421-.47.281-1.032.75-1.688 1.406v8.672zm13.44 5.032v-16.985h1.64l.172 1.375c1.414-1.113 2.707-1.672 3.875-1.672 1.508 0 2.676.547 3.5 1.64.832 1.095 1.25 2.602 1.25 4.516 0 1.918-.508 3.465-1.515 4.641-1.012 1.156-2.235 1.734-3.672 1.734-1.074 0-2.172-.457-3.297-1.375l.047 6.125zm2-7.672c.976.836 1.957 1.25 2.937 1.25 1 0 1.817-.422 2.453-1.266.645-.863.97-2.023.97-3.484 0-2.946-1.056-4.422-3.157-4.422-.95 0-2.016.554-3.203 1.656zm16.45 2.922c-1.649 0-3.012-.563-4.094-1.688-1.086-1.133-1.625-2.64-1.625-4.516 0-1.882.535-3.41 1.61-4.578 1.062-1.164 2.328-1.75 3.796-1.75 1.477 0 2.641.508 3.485 1.516.832 1 1.25 2.367 1.25 4.094l-.094 1.14h-8.047c.063 1.274.453 2.293 1.172 3.063.727.75 1.633 1.125 2.719 1.125a5.345 5.345 0 0 0 3.062-.953l.719 1.312c-1.273.824-2.59 1.234-3.953 1.234zm-3.735-7.235h6.391c0-1.187-.262-2.098-.781-2.734-.524-.633-1.235-.953-2.14-.953-.907 0-1.684.336-2.329 1-.648.668-1.027 1.562-1.14 2.687zm13.858 7.235c-1.031 0-1.875-.297-2.531-.891-.649-.602-.969-1.438-.969-2.5 0-1.281.578-2.27 1.735-2.969 1.175-.695 3.046-1.191 5.609-1.484 0-2.008-.824-3.016-2.469-3.016-1.125 0-2.32.422-3.578 1.266l-.797-1.375c1.625-1.04 3.164-1.563 4.625-1.563 1.469 0 2.535.434 3.203 1.297.676.867 1.016 2.07 1.016 3.61v7.343h-1.656l-.172-1.437c-1.418 1.148-2.758 1.718-4.016 1.718zm.563-1.594c1 0 2.093-.532 3.28-1.594v-3.344c-1.948.242-3.335.606-4.155 1.094-.825.48-1.235 1.086-1.235 1.812 0 1.356.703 2.032 2.11 2.032zm17.672.078c-1.138 1.012-2.477 1.515-4.017 1.515-1.53 0-2.828-.554-3.89-1.671-1.055-1.114-1.578-2.63-1.578-4.547 0-1.938.554-3.469 1.672-4.594 1.125-1.145 2.488-1.719 4.093-1.719 1.258 0 2.426.469 3.5 1.406l-1.047 1.313c-.804-.695-1.593-1.047-2.375-1.047-1.093 0-1.996.434-2.703 1.297-.699.844-1.047 1.96-1.047 3.344 0 1.367.332 2.465 1 3.297.696.836 1.57 1.25 2.625 1.25 1.051 0 2.008-.395 2.875-1.188zm7.43 1.516c-1.649 0-3.012-.563-4.094-1.688-1.086-1.133-1.625-2.64-1.625-4.516 0-1.882.535-3.41 1.61-4.578 1.062-1.164 2.327-1.75 3.796-1.75 1.477 0 2.64.508 3.484 1.516.832 1 1.25 2.367 1.25 4.094l-.093 1.14h-8.047c.062 1.274.453 2.293 1.172 3.063.726.75 1.632 1.125 2.718 1.125a5.345 5.345 0 0 0 3.063-.953l.719 1.312c-1.274.824-2.59 1.234-3.954 1.234zm-3.735-7.235h6.39c0-1.187-.261-2.098-.78-2.734-.524-.633-1.235-.953-2.141-.953-.906 0-1.684.336-2.328 1-.649.668-1.028 1.562-1.14 2.687zm22.738 1.188l-1.203.468-.297-1.109c-2.242.355-3.703.602-4.39.734l-1.329.391-.5-1.469c.352-.07.89-.566 1.61-1.484.414-.438 1.03-1.281 1.843-2.531-1.824.23-2.859.406-3.109.53l-.5-1.468c.32-.07.711-.473 1.172-1.203.32-.457.766-1.223 1.328-2.297a21.663 21.663 0 0 0 1.453-3.172l1.485.594c-1.012 2.25-2.106 4.187-3.282 5.812l2.36-.218 1.687-3 1.313.781c-1.524 2.781-3.168 5.195-4.938 7.234l3.406-.437-.75-2.11 1.141-.359zm-6.89 1.437l1.296.266c-.273 1.906-.633 3.625-1.078 5.156l-1.25-.375c.395-1.281.738-2.961 1.031-5.047zm2.203.125l1.218-.219.594 4.485-1.266.312zm8.453.219l.53 1.219c-1.667 1.156-2.976 2.039-3.921 2.64l-.687-.937-.97.36-1.109-3.923 1.094-.375c.508 1.313.89 2.5 1.14 3.563a109.55 109.55 0 0 0 3.923-2.547zm.297-1.281l-1.157.89-2.515-3.015 1.109-.766zm3.218 2.234l.875-1.016c1.907 1.25 3.242 2.246 4.016 2.985l-.89 1.172c-.876-.907-2.212-1.954-4-3.141zm3.188-5.172l1.187.86-3.031 2.796-.984-.75zm-7.703-5.078h4.937l.39-2.031h-4.75zm5.797 3h3.671v1.453h-5.562v8.813c0 .414-.055.734-.156.953-.106.226-.352.414-.735.562-.375.156-1.23.219-2.562.188l-.516-1.422c.32.008 1.02.015 2.094.015.144-.011.238-.043.281-.093.04-.043.063-.121.063-.235v-8.78h-5.422v-1.454h7.328l.36-1.703h-5.407l-.906-.906c.351-.957.82-2.79 1.406-5.5l1.531.156-.375 1.625 4.969.094.984 1.218c-.218 1.325-.57 2.996-1.046 5.016zm17.855-4.75h-5.75l-2.375 2.687h5.813zm4.11 8.031v-3.828h-5.25v3.828zm-11.891-3.828v3.828h5.047v-3.828zm2.828 10.656h8.562c1.07 0 1.77-.21 2.094-.64.32-.426.547-1.38.672-2.86l1.563.594c-.188 1.762-.555 2.934-1.094 3.516-.543.582-1.621.875-3.235.875h-8.453c-1.761 0-2.96-.215-3.594-.64-.625-.419-.937-1.25-.937-2.5v-9.376c-.5.461-1.152.965-1.953 1.516l-.875-1.532c1.375-.832 2.676-1.89 3.906-3.171 1.227-1.29 2.211-2.657 2.953-4.094l1.453.547-.812 1.437 6.11-.094 1.077.782-2.812 3.468h4.844l1.203 1.22v6.655h-1.61v-.968h-11.89v3.64c0 .657.172 1.094.515 1.313.375.21 1.145.312 2.313.312zm20.871-15.734v3.953h3.828v1.531h-3.828v.563c1.102 1.156 2.332 2.574 3.687 4.25l-1 1.344-2.687-3.72v9.61h-1.594v-9.672c-1.21 2.856-2.515 5.04-3.922 6.547l-.922-1.484c.82-.82 1.633-1.914 2.438-3.281a24.363 24.363 0 0 0 1.984-4.157h-3.875v-1.53h4.297v-3.642c-1.137.18-2.351.356-3.64.532l-.454-1.313c3.739-.508 6.493-1.113 8.266-1.812l1.11 1.265zm6.187 13.219h4.907v-12.125h-4.907zm-1.609-12.469l1.219-1.219h5.719l1.203 1.219v15.703h-1.625v-1.64h-4.907v1.796h-1.609zm31.153 7.516v1.609h-9.016v7.703h-1.672v-7.703h-8.89v-1.61h8.89v-7.671h-7.75v-1.61h17.203v1.61h-7.781v7.672zm-16.891-6.157l1.422-.437c1.082 1.906 1.78 3.558 2.093 4.953l-1.546.531c-.344-1.508-1-3.191-1.97-5.047zm11.656 5.11l-1.39-.469c.906-1.52 1.695-3.25 2.374-5.188l1.72.485c-.981 2.187-1.884 3.914-2.704 5.172zm-303.263 20.828v1.515h-5.328v12.72h-1.625v-13.032l1.219-1.203zm12.512 13.797v4.281c1.113.242 2.476.36 4.093.36 1.29.042 3.036.03 5.235-.032l-.594 1.61h-4.703c-2.586 0-4.711-.329-6.375-.985-1.68-.644-3.027-1.867-4.047-3.672-.824 2.211-1.93 3.867-3.312 4.985l-1.204-1.079c1.22-.937 2.141-2.218 2.766-3.843.645-1.625 1.066-3.38 1.266-5.266l1.672.219a36.82 36.82 0 0 1-.579 3c.852 2.043 2.235 3.449 4.141 4.219v-8.735h-8.672v-1.531h8.672v-3.016h-6.781v-1.515h6.781v-2.532h1.64v2.532h7.126v1.515h-7.125v3.016h8.765v1.531h-8.765v3.438h7.312v1.5zm28.714-11.297h-4.265v1.828h4.265zm-4.453 5.015h4.453v-1.906h-4.265zm4.453 1.282h-4.718c-.418 1.68-1.164 3.027-2.235 4.047l-1.297-.766c1.665-1.55 2.5-3.926 2.5-7.125v-2.61l1.22-1.203h4.859l1.203 1.204v9.03c0 .43-.055.759-.157.985-.093.219-.312.414-.656.578-.336.149-1.273.22-2.812.22l-.485-1.485c.657.031 1.391.047 2.203.047.25-.008.375-.133.375-.375zm-12.89-.438l.078-3.781h-4.578v-1.375h3.156c-.312-.727-.781-1.488-1.406-2.281l1.156-.532c.75.887 1.266 1.688 1.547 2.407l-.844.406h2.531l1.5-2.813 1.422.438-1.422 2.375h2.954v1.375h-4.532v3.781h2.375v-2.812h1.375v4.75h-1.375v-.594h-2.78c-.575 1.625-1.888 2.902-3.938 3.828l-1.016-1.125c1.687-.707 2.797-1.61 3.328-2.703h-1.953l-1.219-1.219v-2.937h1.375v2.812zm6.172 9.75h9.156v1.453h-19.828v-1.453h9.031v-2.453h-6.766v-1.422h6.766v-1.36h1.64v1.36h6.876v1.422h-6.875zm23.761-1.078c-1.21 1.242-2.886 1.86-5.03 1.86-2.138 0-3.876-.743-5.22-2.235-1.335-1.5-2-3.531-2-6.094 0-2.57.688-4.613 2.063-6.125 1.375-1.507 3.148-2.265 5.328-2.265 1.844 0 3.39.668 4.64 2l-1.109 1.328c-.96-1.031-2.12-1.547-3.484-1.547-1.637 0-2.938.59-3.906 1.766-.97 1.18-1.453 2.78-1.453 4.812 0 2.031.472 3.64 1.421 4.828.938 1.168 2.258 1.75 3.97 1.75 1.257 0 2.226-.312 2.905-.937v-4.235h-3.406v-1.687h4.063l1.218 1.203zm3.828 1.578v-14.937l1.203-1.203h3.406c4.02 0 6.031 1.586 6.031 4.75 0 1.656-.539 2.902-1.61 3.734-1.054.836-2.495 1.25-4.327 1.25h-2.657v6.406zm2.046-8.047h2.391c1.426 0 2.477-.27 3.156-.812.688-.551 1.032-1.39 1.032-2.516 0-1.144-.344-1.941-1.032-2.39-.699-.47-1.777-.704-3.234-.704h-2.313zm16.34 8.329c-2.243 0-4.125-.797-5.657-2.391l1.235-1.39c1.257 1.335 2.738 2 4.437 2 1.04 0 1.863-.235 2.469-.704.613-.476.922-1.117.922-1.922 0-.812-.274-1.414-.813-1.812-.406-.32-1.031-.676-1.875-1.063l-2.328-1.015c-2.187-.938-3.281-2.313-3.281-4.125 0-1.25.476-2.274 1.437-3.079.97-.812 2.188-1.218 3.657-1.218 1.875 0 3.457.668 4.75 2l-1.078 1.297c-1.086-1.008-2.31-1.516-3.672-1.516-.918 0-1.653.227-2.203.672-.543.418-.813.984-.813 1.703 0 .844.395 1.508 1.188 1.984.351.188.843.422 1.468.703l2.313.985c1.07.48 1.894 1.043 2.469 1.687.57.637.859 1.563.859 2.782 0 1.21-.512 2.25-1.531 3.125-.993.867-2.309 1.296-3.953 1.296zm7.194 1.609v-1.516h5.328v-12.719h1.625v13.032l-1.219 1.203zm31.527-7.219l-.484-11.125h1.203l1.172 1.203-.453 9.922zm1.703 5.047c-.262.262-.594.39-1 .39-.398 0-.73-.128-1-.39-.262-.281-.39-.633-.39-1.063 0-.425.128-.773.39-1.046a1.38 1.38 0 0 1 1.016-.422c.394 0 .722.14.984.422.281.273.422.62.422 1.046 0 .43-.14.782-.422 1.063zm-136.126 43.375v4.219h2.578v1.531h-2.578v1.047c.758 1.043 1.61 2.355 2.547 3.937l-.984 1.157-1.563-3.094V439.2h-1.5v-10.766c-.836 2.782-1.765 4.891-2.797 6.329l-.875-1.563c.688-.894 1.352-2.117 2-3.672a29.68 29.68 0 0 0 1.5-4.656h-3.187v-1.531h3.36v-4.219zm5.031 6.422v2.719h6.579v-2.72zm6.579-4.016h-6.579v2.64h6.579zm1.78 8.875l1.11 1.14a29.27 29.27 0 0 1-3.812 2.595c1.207 1.648 2.691 2.82 4.453 3.515l-1.125 1.39c-3.305-1.491-5.57-4.6-6.797-9.343h-2.188v7.328l4-.969v1.422c-3.355.926-5.199 1.504-5.53 1.735l-.688-1.375c.406-.219.61-.649.61-1.297v-15.25l1.218-1.219h7.344l1.218 1.219v7.187l-1.218 1.22h-3.36c.32 1.148.77 2.241 1.344 3.28 1.375-.882 2.516-1.742 3.422-2.578zm6.247.75l-2.578.86-.406-1.594 2.984-.875v-4.485h-2.688v-1.515H205v-4.406h1.5v4.406h2v1.515h-2v4l2.172-.687.203 1.516-2.375.78v6.688c0 .79-.25 1.317-.75 1.578-.438.207-1.34.301-2.703.282l-.485-1.485c.625.008 1.313.016 2.063.016.25 0 .375-.133.375-.39zm5.75-7v4.969c0 4.574-.805 7.934-2.406 10.078l-1.203-.828c1.445-1.988 2.171-5.07 2.171-9.25v-4.984l1.22-1.22h3.734v-3.765h1.578v1.344H221v1.219h-5.156v1.203l5.312-.047.985.25-1.063 3.031-1.25-.281.594-1.719h-4.953v1.25l3.562-.328.11 1.016-3.672.343.109.844c.07.086.234.125.484.125l4.625-.078.11 1.047-4.953.11c-.657 0-1.11-.13-1.36-.391-.242-.258-.367-.703-.375-1.328l-2.703.265-.156-1.25 2.86-.265v-1.36zm10.328 7l.953.781c-.93.524-1.773.95-2.531 1.282.289.98.703 1.86 1.234 2.64.532.762 1.157 1.325 1.875 1.688l-.953 1.078c-.73-.469-1.37-1.133-1.922-2a10.746 10.746 0 0 1-1.25-2.969l-1.031.406c.332.961.457 1.883.375 2.766-.074.863-.324 1.477-.75 1.844-.406.383-.918.578-1.531.578h-1.172l-.36-1.234c.52.039.961.062 1.329.062.382 0 .656-.105.812-.312.176-.168.3-.461.375-.891v-1.5a20.736 20.736 0 0 1-5.406 3.234l-.703-.984c1.008-.313 2.07-.781 3.187-1.406 1.114-.633 1.992-1.274 2.64-1.922l-.327-.766a18.13 18.13 0 0 1-4.563 2.328l-.64-.922c1.832-.468 3.394-1.187 4.687-2.156l-.562-.64-3.22 1.28-.53-.89c1.894-.52 3.453-1.191 4.672-2.015h-4.407v-1.141h10.735v1.14h-4.797l-1.469 1.079 1.25 1.61c1.582-.696 2.914-1.38 4-2.048zm8.949-9.515l-1.328.78c-.387-.882-.992-1.796-1.812-2.734l1.25-.687c.812.844 1.441 1.727 1.89 2.64zm.531 11.359h-3.843v3.672h3.843zm.266-1.344l1.219 1.219v3.953l-1.219 1.203h-4.11v1.016h-1.452v-6.172l1.203-1.219zm-5.844-1.672v-1.312h7.407v1.312zm.407-4.375h6.578v1.282h-6.578zm-1.047-1.718v-1.344h8.75v1.344zm12.968 13.328h4.079c.57 0 .937-.219 1.093-.657.176-.437.301-1.425.375-2.968l1.547.656c-.117 1.805-.367 3.008-.75 3.61-.367.6-1.086.906-2.156.906h-4.313c-1.125 0-1.898-.18-2.312-.532-.398-.336-.594-1.015-.594-2.047v-7.5l1.219-1.203h5.906v-5.593h-7.406v-1.563h7.812l1.204 1.203v8.672h-1.61v-1.156h-5.515v7.14c0 .43.086.711.265.844.188.125.57.188 1.156.188zm16.84-.282c-4.011.82-6.539 1.329-7.578 1.516l-.375-1.469 3.64-.625v-6.437h-3.265v-1.438h3.266v-2.375h-2.14v-1.047l-1.173 1.079-.625-1.516c1.907-1.54 3.352-3.367 4.344-5.484l1.281.453-.328.625c1.969 1.867 3.207 3.09 3.719 3.672l-.953 1.093c-.73-.906-1.871-2.101-3.422-3.593-.793 1.28-1.621 2.382-2.484 3.296h5.03v1.422h-1.89v2.375h2.735v1.438h-2.735v6.219l2.953-.547.063.86c1.094-.708 2.41-1.63 3.953-2.767l.516 1.157a155.406 155.406 0 0 1-3.875 3.015zm-7.36-5.656l1.173-.281.86 4.016-1.235.312zm6.235 3.813l-.922-.313.829-4 1.171.344zm1.89-4.64l1.08-.782 2.5 2.781-1.142.875zm2.642-6.063h4.75l.39-2.047h-4.594zm8.78 4.406h-5.312l-.156 9.656c-.086.219-.305.406-.656.563-.356.164-1.184.234-2.485.203l-.484-1.422h1.938c.218 0 .328-.094.328-.281v-8.72h-5.282v-1.452h7.438l.375-1.657h-5.234l-.922-.953c.363-1.113.836-2.984 1.422-5.609l1.546.172-.421 1.75 4.796.094 1.016 1.125c-.18 1.148-.523 2.84-1.031 5.078h3.125zm-3.452 4.578l-.907-.844c.946-.8 1.868-1.773 2.766-2.922l1.11.922zm-1.328 1.094l.875-.969c1.832 1.324 3.144 2.387 3.937 3.187l-.922 1.125c-.867-.914-2.164-2.03-3.89-3.343zm14.965-1.078l-.485-1.157c1.738-.718 2.66-1.797 2.766-3.234a2.996 2.996 0 0 1-.375.016c-.47 0-.868-.13-1.188-.391-.312-.281-.469-.672-.469-1.172 0-.5.16-.883.485-1.156.32-.281.75-.422 1.281-.422.54 0 .973.23 1.297.687.32.45.484 1.063.484 1.844 0 1.168-.343 2.196-1.031 3.078-.68.868-1.602 1.5-2.766 1.907zm18.667-14.188l1.532.469a35.53 35.53 0 0 1-2.266 4.703v14.781h-1.547V426.81c-.594.856-1.34 1.766-2.234 2.735l-.922-1.61c1.082-1.05 2.101-2.347 3.062-3.89a26.118 26.118 0 0 0 2.375-4.844zm4 9.281l1.61.313c-.762 3.117-1.836 5.61-3.219 7.484l-1.406-.906c1.32-1.594 2.328-3.89 3.015-6.89zm9.313-3.625h-4.14v12.36c0 .883-.259 1.441-.766 1.672-.461.218-.903.304-1.329.265l-1.968-1.078-.188-.5 2.266.016c.144 0 .242-.024.297-.063.05-.062.078-.164.078-.312v-12.36h-3.344c-.625 1.5-1.336 2.762-2.125 3.782l-1.297-1.032c1.594-2.007 2.797-4.8 3.61-8.375l1.593.344-1.156 3.766 9.078.172.969 1.328a50.214 50.214 0 0 1-.719 3.36l-1.375-.267zm-2.531 3.938l1.421-.485a27.835 27.835 0 0 1 1.704 3.782c.507 1.367.859 2.554 1.046 3.562l-1.562.531c-.168-1-.5-2.187-1-3.562a32.812 32.812 0 0 0-1.61-3.828zm13.121 8.187h8.36c1.175 0 1.94-.254 2.296-.765.352-.532.61-1.696.766-3.5l1.656.656c-.117 1.074-.258 1.918-.422 2.531a4.079 4.079 0 0 1-.766 1.578 2.604 2.604 0 0 1-1.375.86c-.543.164-1.265.25-2.172.25H319.2c-1.781 0-2.996-.227-3.64-.672-.649-.438-.97-1.32-.97-2.656v-11h1.641v3.609h11.485v-5.766h-14.297v-1.609h14.765l1.204 1.219v8.843h-1.672v-1.078H316.23v5.797c0 .7.176 1.156.532 1.375.363.219 1.14.328 2.328.328zm34.918-16.765v1.5h-11.594v-1.5zm-.141 9.937l-1.312.64c-.618-1.257-1.313-2.335-2.094-3.234l-.11-2.234c.563-.781 1.13-1.75 1.704-2.906l1.453.39a54.708 54.708 0 0 1-2.266 3.61c1.164 1.406 2.04 2.652 2.625 3.734zm-5.578-7.719l1.422.375a50.614 50.614 0 0 1-2.188 3.594c1.094 1.418 1.922 2.664 2.485 3.735l-1.375.609c-.493-1.227-1.11-2.281-1.86-3.156l-.14-2.25c.5-.707 1.05-1.676 1.656-2.907zm-2.11 7.797l-1.374.563c-.493-1.219-1.09-2.274-1.797-3.172l-.141-2.281c.488-.719 1.035-1.692 1.64-2.922l1.423.375a36.45 36.45 0 0 1-2.172 3.625c1.039 1.375 1.847 2.648 2.422 3.812zm-4.015 1.688l-1.328.437-.25-1.187c-3.45.512-5.371.87-5.766 1.078l-.531-1.516c.383-.093.93-.578 1.64-1.453.407-.5 1.004-1.328 1.797-2.484-1.761.21-2.773.375-3.03.5l-.516-1.453c.52-.114 1.394-1.29 2.625-3.532a26.324 26.324 0 0 0 1.5-3.187l1.453.594c-1.043 2.242-2.157 4.187-3.344 5.843l2.266-.203 1.578-2.922 1.406.844c-1.555 2.75-3.184 5.11-4.89 7.078l3.468-.437-.75-2.156 1.25-.36c.695 1.73 1.172 3.235 1.422 4.516zm-6.688 6.906l-1.296-.5c.425-1.164.78-2.875 1.062-5.125l1.36.219c-.25 2.18-.626 3.98-1.126 5.406zm2.016-5.484l1.25-.188c.332 1.73.535 3.266.61 4.61l-1.313.234c-.055-1.281-.234-2.832-.547-4.656zm2.125-.39l1.172-.376 1.125 3.672-1.219.422zm9.266 4.25h5.343v1.5h-12.562v-1.5h5.61v-4.188h-4.376v-1.47h10.453v1.47h-4.468zm12.558-18.126l1.531.484c-.585 1.45-1.34 2.977-2.265 4.579v15.171h-1.563v-12.828a22.082 22.082 0 0 1-2.406 2.86l-.937-1.578c1.113-1.04 2.171-2.332 3.171-3.875a25.844 25.844 0 0 0 2.47-4.813zm3.094 10.781h3.906l.016-3.265h-3.922zm9.578-3.265h-4.047v3.265h4.047zm1.563 3.437l-1.22 1.203h-4.5c-.198 1.711-.683 3.121-1.452 4.235 2.113 1.156 4.812 1.933 8.093 2.328l-.968 1.469c-3.242-.48-5.938-1.368-8.094-2.657-1.18 1.157-2.836 2.051-4.969 2.688l-1-1.375c2.008-.508 3.555-1.25 4.64-2.219a11.77 11.77 0 0 1-3.187-3.562l1.375-.438c.633 1.094 1.555 2.07 2.766 2.922.613-.895 1.008-2.023 1.187-3.39h-4.109l-1.219-1.204v-3.61l1.22-1.202h4.218v-2.157h-6.078v-1.5h6.078v-2.328h1.61v2.328h6.327v1.5h-6.328v2.157h4.39l1.22 1.203zm13.543.922h5.921v-3.656h-5.921zm-6.97 0h5.345v-3.656h-5.266zm5.345-8.719h-5.266v3.532h5.266zm7.546 3.532v-3.532h-5.921v3.532zm.391-5.094l1.219 1.219v15.109c0 .531-.086.926-.25 1.187-.149.282-.399.493-.75.641-.555.207-1.918.297-4.094.266l-.547-1.578c.688.02 1.832.03 3.438.03.218-.01.367-.05.453-.124.094-.082.14-.227.14-.438v-4.468h-5.921v6.484h-1.625v-6.484h-5.5c-.399 2.949-1.313 5.218-2.75 6.812l-1.25-1.078c1.144-1.281 1.89-2.863 2.234-4.75.27-1.457.406-3.094.406-4.906v-6.703l1.203-1.22zm9.856 2.391h-2.75v8.765h2.75zm1.5 9.078l-1.22 1.203h-3.03v1.922h-1.5v-12.516l1.218-1.219h3.313l1.219 1.219zm8.906 4.734h4.531v1.562h-11.016v-1.562h4.907v-6.25h-3v-.64c-1.055 2.867-2.344 5.163-3.875 6.89l-1.235-1.219c2.227-2.375 3.91-6.008 5.047-10.906h-3.219v-1.563h3.563l.64-3.937 1.547.156-.64 3.781h7v1.563h-7.328l-1.172 4.328h8.062v1.547h-3.812zm11.308.938c-2.105 0-3.828-.727-5.171-2.188l1.015-1.328c1.164 1.23 2.5 1.844 4 1.844.969 0 1.754-.27 2.36-.813.613-.539.921-1.273.921-2.203 0-2.133-1.671-3.203-5.015-3.203v-1.547c2.969 0 4.453-1.023 4.453-3.078 0-.77-.246-1.383-.734-1.844-.493-.469-1.153-.703-1.985-.703-1.219 0-2.336.523-3.344 1.562l-1.078-1.28c1.395-1.29 2.895-1.938 4.5-1.938 1.383 0 2.508.37 3.375 1.11.875.718 1.313 1.698 1.313 2.937 0 .937-.258 1.742-.766 2.406-.512.656-1.21 1.156-2.094 1.5 1 .293 1.817.797 2.454 1.515.644.72.968 1.606.968 2.657 0 1.406-.496 2.527-1.484 3.36-.98.823-2.211 1.233-3.688 1.233zm6.63 3.656l6.61-21.407h1.453l-6.579 21.407zm14.123-3.656c-1.993 0-3.7-.708-5.125-2.126l1-1.328c1.187 1.188 2.503 1.782 3.953 1.782.968 0 1.785-.344 2.453-1.032.656-.695.984-1.617.984-2.765 0-1.145-.305-2.04-.906-2.688-.606-.656-1.375-.984-2.313-.984-.918 0-1.855.312-2.812.937l-1.078-.656.437-6.36 1.282-1.202h6.64v1.734h-6.094l-.39 4.656 2.39-.64c1.426 0 2.594.437 3.5 1.312.907.867 1.36 2.149 1.36 3.844 0 1.687-.524 3.031-1.563 4.031-1.043.992-2.281 1.484-3.718 1.484zm24.848-13.329h-7.969c-.75 1.95-1.523 3.493-2.312 4.625l-1.61-.922c1.602-2.062 2.786-5.078 3.547-9.046l1.766.328-.86 3.406 8.266-.078 1.219.625c-.531 2-1.305 3.992-2.313 5.969l-1.375-.704zm-10.969-1.906v1.578h-5.75v-1.578zm.672 9.016v1.61H455.5v-1.61zm5.844-6.188v2.688c1.101 5.093 3.492 8.277 7.172 9.547l-1.078 1.437c-3.063-1.25-5.262-3.754-6.594-7.516-.938 3.262-3.2 5.829-6.781 7.704l-1.235-1.266c1.207-.625 2.25-1.316 3.125-2.078.883-.77 1.551-1.508 2-2.219a8.88 8.88 0 0 0 1.094-2.36c.27-.863.437-1.593.5-2.187.05-.625.078-1.316.078-2.078v-1.672zm9.761 13.11v-1.47h18.704v1.47zm13.516-7.204v-1.906h-8.469v1.906zm0 3.047v-1.906h-8.469v1.906zm5.485-12.453v1.453h-6.891c2.957 1.907 5.191 3.528 6.703 4.86l-1.078 1.187c-1.774-1.656-4.328-3.562-7.672-5.719v4.563h3.89l1.22 1.203v4.89l-1.22 1.204h-9.296l-1.219-1.203v-4.89l1.219-1.204h3.797v-4.578c-1 1.23-2.227 2.375-3.672 3.437-1.45 1.055-2.918 1.883-4.406 2.485l-1.047-1.328c1.343-.47 2.695-1.141 4.062-2.016 1.363-.883 2.508-1.848 3.438-2.89h-7.172v-1.454h8.797v-2.765h1.61v2.765zM185.55 452.575l-1.202.781-1.657-2.922 1.157-.687zm2.782 1.031v1.344h-7.875v-1.344zm-.906 4.172h-6.11v-1.297h6.11zm-1.313 5.86h-3.5v3.625h3.5zm.125-1.36l1.219 1.203v3.938l-1.219 1.219h-3.625v1.03h-1.328v-6.187l1.219-1.203zm-4.922-1.64v-1.297h6.141v1.297zm13.063-2.485h-3.39v2.36h3.39zm-3.39 6.063h3.39v-2.39h-3.39zm9.03-11.078v.859c-.168 5.312-.343 9.012-.53 11.094-.2 2.062-.497 3.36-.891 3.89-.399.54-.938.844-1.625.907-.68.05-1.684.039-3.016-.032l-.5-1.593c1.05.07 2.008.109 2.875.109.394 0 .676-.125.844-.375.332-.375.586-1.535.765-3.484.188-1.946.348-5.235.485-9.86h-7.172l-1.297 2.156h4.578l1.203 1.188v6.36l-1.203 1.218h-3.547v1.125h-1.312v-9.437l-.625.765-1.375-1.015c1.664-1.688 2.91-4.067 3.734-7.141l1.61.36-1.032 2.906zm18.45-.891v11.937h-1.328v-11.937zm-12.078 1.219h-2.047v9.187h2.047zm1.296 9.484l-1.218 1.219h-2.125v2.078h-1.297v-13.078l1.203-1.219h2.219l1.218 1.219zm2.266-6v3.734h1.672v-3.734zm4.578 3.734v-3.734h-1.734v3.734zm-1.61 1.235v.281l3.454 3.016-.984 1.234-2.47-2.687v6.203h-1.437v-5.875c-1.136 2.18-2.367 3.804-3.687 4.875l-.766-1.407c.79-.601 1.57-1.425 2.344-2.468a15.365 15.365 0 0 0 1.86-3.172H210l-1.219-1.203v-3.797l1.219-1.203h1.469v-1.844h-3.063v-1.39h3.063v-2.579h1.468v2.578h3.094v1.391h-3.094v1.844h1.563l1.219 1.203v3.797l-1.22 1.203zm7.157-11.766h1.453v17.797c0 .832-.265 1.39-.797 1.672-.468.207-1.492.312-3.062.312l-.531-1.546c1.312.03 2.093.03 2.343 0 .258-.012.422-.047.485-.11.07-.062.109-.172.109-.328zm11.949 12.157c-.656-.657-.984-1.442-.984-2.36 0-.926.328-1.719.984-2.375.664-.656 1.457-.984 2.375-.984.914 0 1.696.328 2.344.984a3.24 3.24 0 0 1 .984 2.375c0 .918-.328 1.703-.984 2.36a3.19 3.19 0 0 1-2.344.968 3.28 3.28 0 0 1-2.375-.969zm.797-3.938c-.437.43-.656.953-.656 1.578 0 .617.219 1.14.656 1.578.438.43.957.64 1.563.64a2.12 2.12 0 0 0 1.562-.64c.438-.437.656-.96.656-1.578a2.12 2.12 0 0 0-.656-1.578 2.107 2.107 0 0 0-1.562-.656 2.13 2.13 0 0 0-1.563.656zm20.731-5.516l-1.5.703c-.461-.968-1.18-1.976-2.157-3.03l1.407-.595c.968.97 1.718 1.946 2.25 2.922zm-4.688 16.97l-1.281-.892c1.101-1.007 1.93-2.597 2.484-4.765l1.36.437c-.668 2.461-1.524 4.196-2.563 5.22zm3.984-5.173l1.36-.187c.437 1.492.656 2.953.656 4.39l-1.422.188c.051-1.406-.148-2.867-.594-4.39zm3.235-.203l1.265-.281c.676 1.387 1.11 2.637 1.297 3.75l-1.36.375zm4.75-9.344h-4.625l-1.344 2.453h5.39zm-8.89 6.391h9.984l.546-2.5h-8.53zm11.5 0h2.359l-.063.703c-.2 2.262-.414 3.93-.64 5-.22 1.074-.508 1.785-.86 2.14-.355.364-.86.567-1.516.61-.668.063-1.578.055-2.734-.016l-.484-1.5a23.61 23.61 0 0 0 2.578.125c.383 0 .66-.074.828-.218.469-.477.86-2.282 1.172-5.407h-13.578a20.247 20.247 0 0 1-3.532 2.641l-.906-1.36c3.477-2 6.266-5.034 8.36-9.109h-7.235v-1.5h7.953l1.375-3.734 1.625.406-1.25 3.328h4.5l.97 1.188-.595 2.765h1.297l.969 1.188zm-1.298 5.094l-1.203.5-1.61-2.969 1.141-.438c.782.993 1.336 1.961 1.672 2.907zm11.262-12.781h-2.75v8.765h2.75zm1.5 9.078l-1.219 1.203h-3.031v1.922h-1.5v-12.516l1.219-1.219h3.312l1.219 1.219zm8.906 4.734h4.532v1.562h-11.016v-1.562h4.906v-6.25h-3v-.64c-1.055 2.867-2.344 5.163-3.875 6.89l-1.234-1.219c2.226-2.375 3.91-6.008 5.047-10.906h-3.22v-1.563h3.563l.641-3.937 1.547.156-.64 3.781h7v1.563h-7.329l-1.172 4.328h8.063v1.547h-3.813zm10.559-6.156h5.187l.047-2.235h-5.234zm0-5.735v2.203h5.234v-2.203zm12.453 0h-5.547v2.203h5.547zm0 5.735v-2.235h-5.547v2.235zm1.61.14l-1.22 1.22h-6.187a7.033 7.033 0 0 1-1.953 3.733c1.289.586 2.836 1 4.64 1.25 1.82.243 4.087.399 6.797.47l-.671 1.609c-2.805-.118-5.172-.344-7.11-.688-1.93-.324-3.586-.86-4.969-1.61-1.562 1.032-3.695 1.821-6.39 2.376l-.969-1.422c2.55-.5 4.5-1.13 5.844-1.89-1.094-.833-2-1.868-2.719-3.11l1.375-.547c.738 1.148 1.625 2.059 2.656 2.734a5.506 5.506 0 0 0 1.782-2.906h-5.329l-1.203-1.219v-6.015l1.203-1.219h5.594v-1.844h-8.797v-1.469h19v1.47h-8.53v1.843h5.937l1.218 1.219zm19.308-1.109v-2.234h-9.172v2.234zm-9.172 3.719h9.172v-2.313h-9.172zm13.344-9.969h-11.875l-1.344 2.547h9.438l1.218 1.203v9.906c0 .5-.07.88-.203 1.14-.137.27-.422.485-.86.641-.437.165-1.671.25-3.702.25l-.547-1.609c.664.031 1.726.047 3.187.047.344-.023.516-.176.516-.469v-2.281h-9.438c-.343 1.887-1.093 3.367-2.25 4.453l-1.14-1.266c.82-.789 1.363-1.703 1.625-2.734.258-1.039.39-2.219.39-3.531v-3.219c-1.117 1.367-2.304 2.484-3.562 3.36l-1.031-1.266c2.437-1.645 4.41-4.035 5.922-7.172h-5.485V452.7h6.188l.968-2.828 1.625.39-.859 2.438h11.219zm12.652-1.187v1.484h-9.922v-1.485h4.703l-1.562-2.671 1.328-.547c.727.886 1.3 1.773 1.719 2.656l-1.188.562zm-.172 5.765l-1.297.719c-.199-.508-.53-1.125-1-1.844a16.053 16.053 0 0 0-1.421-2l1.234-.64zm-7.312-3.719l1.406.438c-.875 2.031-1.937 3.793-3.187 5.281l-1.157-1c1.196-1.289 2.176-2.863 2.938-4.719zM343.6 466.7l-1.343 1c-.438-.875-1.172-1.957-2.203-3.25-1.274 2.055-2.836 3.711-4.688 4.969l-1.14-1.188c2.007-1.238 3.609-2.914 4.796-5.03a51.494 51.494 0 0 0-2.61-2.845l1.188-.875c.72.72 1.446 1.477 2.188 2.266.457-1 .832-2.023 1.125-3.078l1.516.297c-.336 1.25-.844 2.59-1.532 4.015 1.239 1.493 2.14 2.73 2.703 3.72zm7.766-11.312h-3.656l-.531 1.53c.476 2.212 1.156 4.184 2.03 5.923.97-1.883 1.688-4.367 2.157-7.453zm2.813 0h-1.235c-.574 3.78-1.527 6.796-2.86 9.046 1.24 1.918 2.704 3.32 4.391 4.204l-1.156 1.296c-1.625-.96-3.012-2.32-4.156-4.093-1.293 1.699-2.98 3.086-5.063 4.172l-1.109-1.204c2.238-1.039 4.008-2.515 5.313-4.421-.836-1.602-1.516-3.38-2.047-5.329a19.685 19.685 0 0 1-1.203 2.032l-1.11-1.219c1.594-2.156 2.77-5.5 3.531-10.031l1.516.218-.844 3.782h6.032zm18.918-1.813v-1.734h-7.28v1.734zm0 2.906v-1.75h-7.28v1.75zm.36-5.875l1.203 1.22v4.702l-1.203 1.219h-7.922l-1.219-1.219v-4.703l1.219-1.219zM362.91 460.95l-2.422.813v6.156c0 .82-.25 1.351-.75 1.594-.437.218-1.344.32-2.719.312l-.484-1.531c.625.02 1.312.031 2.062.031.25 0 .375-.14.375-.422v-5.656l-2.546.812-.407-1.578 2.953-.859v-4.813h-2.703v-1.515h2.703v-4.39h1.516v4.39h2.422v1.515h-2.422v4.329l2.219-.688zm7.328 3.656v3.453c.633.086 1.719.125 3.25.125 1.54 0 2.563-.003 3.063-.015l-.485 1.453h-3.828c-1.762 0-3.183-.258-4.266-.766-1.085-.5-1.964-1.468-2.64-2.906-.586 1.637-1.461 2.973-2.625 4.016l-1.219-.985c1.813-1.425 2.899-3.847 3.266-7.265l1.5.187a20.003 20.003 0 0 1-.422 2.328c.562 1.7 1.515 2.836 2.86 3.407v-6.954h-5.36v-1.375h12.562v1.375h-5.656v2.579h4.547v1.343zm13.027-14.672l1.532.485a36.49 36.49 0 0 1-2.235 4.703v14.812h-1.61v-12.343a19.745 19.745 0 0 1-2.187 2.656l-.921-1.61c1.07-1.038 2.086-2.331 3.046-3.874a27.646 27.646 0 0 0 2.375-4.829zm4.672 14.407l1.563.484a18.987 18.987 0 0 1-4.188 5.078L384 468.888c1.664-1.27 2.976-2.786 3.937-4.547zm4.985.797l1.265-.735c.75.711 1.489 1.508 2.22 2.39.737.876 1.304 1.634 1.702 2.282l-1.39.922c-.356-.68-.899-1.469-1.625-2.375a26.998 26.998 0 0 0-2.172-2.484zm-3.828-9v5.359h4.28v-5.36zm5.875 5.359h3.375v1.61H384.14v-1.61h3.36v-5.36h-2.828v-1.593h2.828v-4.422h1.594v4.422h4.28v-4.438h1.595v4.438h3.125v1.594h-3.125zm8.214-.484h3.375v-3.688h-3.328zm3.375-8.813h-3.328v3.61h3.328zm.297-1.516l1.219 1.204v16.125c0 .851-.25 1.406-.75 1.656-.398.195-1.371.297-2.922.297l-.469-1.563c1.157.031 1.88.031 2.172 0 .301-.012.453-.144.453-.406v-5.422h-3.453c-.242 3.156-.793 5.633-1.656 7.422l-1.344-.797c.676-1.363 1.117-2.93 1.328-4.703.196-1.79.297-3.781.297-5.969v-6.64l1.219-1.204zm11.266 8.985h-4.594c.613 1.887 1.41 3.531 2.39 4.937.97-1.437 1.704-3.082 2.204-4.937zm.844-1.547l.937.328c-.555 2.887-1.558 5.356-3.015 7.406 1.101 1.262 2.332 2.227 3.687 2.891l-1.062 1.25c-1.325-.75-2.512-1.738-3.563-2.969a12.735 12.735 0 0 1-3.328 2.813l-.969-1.203c1.238-.676 2.363-1.61 3.375-2.797-1.187-1.719-2.168-3.774-2.937-6.172h-.547v10.297h-1.531V451.95l1.203-1.203h6.859l1.219 1.203v3.016c0 .43-.07.761-.203 1-.118.218-.371.398-.766.531-.398.125-1.512.187-3.344.187l-.531-1.39c1.508.031 2.395.043 2.656.031.282-.02.453-.05.516-.094a.44.44 0 0 0 .078-.28v-2.688h-6.156v5.89zm19.668-4.562h-4.625c.582 1.054 1.41 2 2.484 2.843a8.4 8.4 0 0 0 2.14-2.844zm-8.813 9.546l-1.125-.562 1.203-3.547h-2.125v9.062c0 .79-.242 1.313-.718 1.563-.43.156-1.344.234-2.75.234l-.5-1.484c.625.008 1.316.016 2.078.016.238-.012.359-.118.359-.329v-7.062c-.992 2.437-2.062 4.242-3.219 5.406l-.86-1.515c.677-.625 1.333-1.473 1.97-2.547a18.734 18.734 0 0 0 1.578-3.344h-3.328v-1.438h5.906c-1.336-1.125-2.965-2.101-4.89-2.937l1.015-1.063c.719.313 1.43.653 2.14 1.016a14.61 14.61 0 0 0 2.297-2.187h-6.218v-1.422l7.672-.063 1.062.656c-.855 1.325-2.055 2.57-3.594 3.735.79.469 1.41.914 1.86 1.328l-.844.937 1.875-.078.984.344-.328 1.172c1.57-.438 2.883-1.004 3.938-1.703a11.798 11.798 0 0 1-2.266-2.672c-.648.7-1.172 1.219-1.578 1.562l-1.344-.953a12.606 12.606 0 0 0 2.39-2.375 13.194 13.194 0 0 0 1.782-2.984l1.563.406-1 1.89h7.296v1.391h-1.687a10.25 10.25 0 0 1-2.64 3.735c1.413.898 3.003 1.539 4.765 1.922l-1.031 1.406c-1.868-.508-3.532-1.285-5-2.328-1.305.906-2.903 1.652-4.797 2.234l-.594-.86zm6.656-.968h5.141v.703c-.387 3.656-.887 5.789-1.5 6.406-.293.312-.746.504-1.36.578-.867.02-1.68.008-2.437-.031l-.437-1.516c.789.07 1.43.11 1.922.11.5 0 .832-.075 1-.22.425-.425.785-1.984 1.078-4.671h-3.703c-.407 1.512-1.07 2.805-1.985 3.875-.906 1.07-2.187 1.93-3.844 2.578l-.968-1.25c2.644-.957 4.347-2.691 5.109-5.203h-3.437v-1.36h3.78l.298-2.171h1.64zm16.012 2l-.484-1.157c1.738-.718 2.66-1.797 2.765-3.234-.086.012-.21.016-.375.016-.468 0-.867-.13-1.187-.391-.313-.281-.469-.672-.469-1.172 0-.5.16-.883.484-1.156.32-.281.75-.422 1.282-.422.539 0 .972.23 1.297.687.32.45.484 1.063.484 1.844 0 1.168-.344 2.196-1.031 3.078-.68.868-1.602 1.5-2.766 1.907zm18.668-14.188l1.531.469a35.53 35.53 0 0 1-2.265 4.703v14.781h-1.547V457.56c-.594.856-1.34 1.766-2.235 2.735l-.921-1.61c1.082-1.05 2.101-2.347 3.062-3.89a26.118 26.118 0 0 0 2.375-4.844zm4 9.281l1.61.313c-.762 3.117-1.836 5.61-3.22 7.484l-1.406-.906c1.32-1.594 2.329-3.89 3.016-6.89zm9.313-3.625h-4.141v12.36c0 .883-.258 1.441-.766 1.672-.46.218-.902.304-1.328.265l-1.969-1.078-.187-.5 2.266.016c.144 0 .242-.024.296-.063.051-.062.079-.164.079-.312v-12.36h-3.344c-.625 1.5-1.336 2.762-2.125 3.782l-1.297-1.032c1.594-2.007 2.797-4.8 3.61-8.375l1.593.344-1.156 3.766 9.078.172.969 1.328a50.214 50.214 0 0 1-.72 3.36l-1.374-.267zm-2.532 3.938l1.422-.485a27.835 27.835 0 0 1 1.703 3.782c.508 1.367.86 2.554 1.047 3.562l-1.562.531c-.168-1-.5-2.187-1-3.562a32.812 32.812 0 0 0-1.61-3.828zm18.371 4.703l1.375-.86a56.735 56.735 0 0 1 3.547 2.891c1.188 1.043 2.102 1.946 2.75 2.703l-1.5.985c-.605-.742-1.5-1.657-2.687-2.75a52.858 52.858 0 0 0-3.485-2.969zm-5.656-.781l1.719.656c-.813 1.055-1.824 2.117-3.031 3.187-1.2 1.07-2.407 1.985-3.625 2.735l-1.297-1.156a22.72 22.72 0 0 0 3.547-2.516c1.156-1.02 2.05-1.988 2.687-2.906zm-2.187-10.39v6.78h11.593v-6.78zm-1.641-.345l1.203-1.218h12.547l1.203 1.218v7.5l-1.203 1.203h-12.547l-1.203-1.203zm-308.195 32.985v3.437h-1.563v-3.515l1.22-1.204h7.187v-1.625h-7.454v-1.25h16.579v1.25h-7.547v1.625h7.36l1.202 1.204v3.515h-1.61v-3.437h-6.952v4.828h-1.578v-4.828zm14.828 3.968l-.344 1.11c-1.336-.488-3.043-.883-5.125-1.188l.375-.984c1.875.187 3.57.543 5.094 1.062zm-1.047-3.687l.719.953-4.281 1.234-.61-.843zm-12.828 1l.484-.875 4.22 1.156-.47.985zm-.094 3.734l-.453-1.25c.977-.113 2.711-.363 5.203-.75l.047 1.032c-.75.168-2.351.492-4.797.968zm16.406 1.782h-8.906l-.594 1.593h7.063l1.187 1.203-.125 4.672c-.093.196-.304.368-.625.516-.304.144-1.12.219-2.453.219l-.53-1.36h1.827c.227-.011.344-.105.344-.28v-3.642h-3.422v5.11h-1.5v-5.11h-3.328v5.11h-1.484v-5.11h-3.266v5.25h-1.563v-5.375l1.22-1.203h5.124l.453-1.593h-8.515v-1.344h19.093zm14.09-7.625v-1.86h-3.547v1.86zm5.203 1.343h-3.64v2.97h3.64zm-8.75 0v2.97h3.547v-2.97zm-4.859 0v2.97h3.297v-2.97zm3.297-1.343v-1.86h-5.938v-1.453h18.782v1.453h-6.172v1.86h4.047l1.203 1.203v3.234l-1.188 1.219h-14.39l-1.203-1.219v-3.234l1.203-1.203zm6.781 9.625h-6.5l-1.234 1.718c.426.075 1.988.36 4.687.86 1.258-.676 2.274-1.535 3.047-2.578zm6.422 0h-4.484a9.72 9.72 0 0 1-2.844 3.062c2.914.68 5.234 1.324 6.953 1.938l-1.484 1.171c-2.024-.773-4.434-1.468-7.235-2.093-2.261 1.082-5.531 1.789-9.812 2.125l-.656-1.422c3.351-.211 6-.633 7.937-1.281-1.992-.395-3.344-.645-4.062-.75l-.36-.985c.125-.101.555-.691 1.297-1.765h-4.75v-1.407h5.688l1.312-2.312 1.578.375-1.078 1.937h6.406l.547-1.265 1.563.453-.297.812h3.781zm15.277-6.657v-2.25h-3.843v2.25zm0 3.563v-2.266h-3.843v2.266zm0 3.656v-2.36h-3.843v2.36zm-4.125 1.406l-1.218-1.218v-7.813a18.401 18.401 0 0 1-1.672 2.203l-.938-1.25c1.801-1.926 3.258-4.472 4.375-7.64l1.36.406-1.282 3.078h4.297l-1.406-2.89 1.344-.407 1.672 3.297h3.78v1.36h-4.734v2.25h4.125v1.296h-4.125v2.266h4.141v1.297h-4.14v2.36h5.218v1.405zm-3.968-12.484l-1.25.906-2.782-3.5 1.22-.75zm.046 7.062l.813.313c-.305 1.906-.79 3.559-1.453 4.953.687 1.055 1.66 1.758 2.922 2.11 1.258.335 3.129.5 5.61.5 2.5 0 4.968-.094 7.405-.282l-.562 1.563c-2.18.113-4.516.172-7.016.172-2.492 0-4.414-.2-5.765-.594-1.344-.375-2.422-1.117-3.235-2.235-.824 1.368-1.797 2.43-2.922 3.204l-1.078-1.125c2.239-1.438 3.707-3.832 4.406-7.188h-2.375c-.699 0-1.132.106-1.296.313l-.625-1.5a2.138 2.138 0 0 0 1.062-.641c.5-.477 1.422-1.672 2.766-3.578h-3.516V485.7l4.844-.11 1.078.5c-1.898 2.544-3.184 4.216-3.86 5.016zm36.325-9.109v1.547h-10.75v-1.547zm-14.422-1.328l1.562.61c-.699.949-1.562 1.921-2.593 2.921-1.024.992-2.032 1.836-3.032 2.531l-.968-1.296a20.17 20.17 0 0 0 2.796-2.266c.946-.895 1.692-1.727 2.235-2.5zm.906 4.672l1.516.578-2.422 3.328v11.563h-1.625v-9.766c-.938.96-1.766 1.727-2.485 2.297l-1.14-1.375c1.144-.801 2.265-1.797 3.36-2.985 1.112-1.187 2.046-2.398 2.796-3.64zm14.14 2.672v1.562h-3.312v9.078c0 .52-.074.91-.219 1.172-.148.281-.433.492-.859.64-.43.145-1.773.22-4.031.22l-.531-1.594c2.437.062 3.726.023 3.875-.11.07-.05.109-.164.109-.343v-9.063h-7.344v-1.562zm7.278-4.563h-1.844c-.699 1.031-1.453 1.89-2.265 2.578l-1.125-1.078c1.488-1.176 2.617-2.656 3.39-4.437l1.453.406-.609 1.219h5.656v1.312h-4.234l1.812 1.781-1.078.938-1.968-2.078zm2.234 3.86h-4.671v1.203h4.671zm-4.671 3.468h4.671v-1.234h-4.671zm6.156-.11l-1.203 1.188h-4.953v8.891h-1.516v-13.312l1.203-1.204h5.266l1.203 1.204zm3.687 3.345h-5.156v1.437h5.156zm-5.156 3.89h5.156v-1.453h-5.156zm6.594-.172l-1.188 1.22h-5.406v.78h-1.5v-5.546l1.219-1.204h5.672l1.203 1.204zm3.125-9.218v-1.203h-4.906v1.203zm-4.906 2.265h4.906v-1.234h-4.906zm7.656-8.625v1.297h-4.828l2.015 1.813-1.047.968-2.14-2 .953-.78h-2.234c-.618 1-1.282 1.827-2 2.484l-1.25-.97c1.32-1.093 2.304-2.577 2.953-4.452l1.484.375-.5 1.265zm-9.14 5.266l1.202-1.188h5.5l1.219 1.204-.187 12.5c-.118.25-.329.43-.641.546-.492.207-1.617.297-3.375.266l-.516-1.469c.563.02 1.473.032 2.735.032.3-.012.453-.157.453-.438v-7.016h-5.188l-1.203-1.203zm27.87-2.734v-2.063h-4.25v2.063zm.297-3.172l1.219 1.218v1.844l-1.219 1.219h-4.828l-1.219-1.219v-1.844l1.219-1.218zm-9.344 3.172v-2.063h-4.203v2.063zm.328-3.172l1.204 1.218v1.844l-1.204 1.219h-4.796l-1.204-1.219v-1.844l1.204-1.218zm-3.828 11.703h4.97v-1.89h-4.97zm0-5.016v1.875h4.97v-1.875zm11.875 1.875v-1.875h-5.234v1.875zm0 3.14v-1.89h-5.234v1.89zm3.703 3v1.423h-8.937v3.11h-1.672v-3.11h-8.75v-1.422h8.75v-1.672h-5.344l-1.203-1.203v-5.25l1.203-1.203h12.72l1.202 1.203v5.25l-1.203 1.203h-5.703v1.672zm15.622-.64l1.53.422-1.468 2.813h6.25v1.437H312.7v-1.437h6.016c-.23-.895-.637-1.801-1.22-2.72l1.47-.468c.656 1.012 1.101 1.922 1.343 2.734l-1.359.454h5.078zm1.046-1.5v-2.75h-9.125v2.75zm.516-4.11l1.203 1.22v3.046l-1.203 1.22h-10.031l-1.219-1.22v-3.046l1.219-1.22zm3.375-6.515l1.234.844c-.949.898-2.062 1.781-3.343 2.656 1.312 1.137 2.691 1.98 4.14 2.531l-1.125 1.36c-1.843-.832-3.586-2.094-5.218-3.781v1.125h-7.875v-1.032c-1.618 1.657-3.418 2.953-5.407 3.89l-1.015-1.233c1.55-.645 3.035-1.614 4.453-2.907-.68-.738-1.61-1.476-2.797-2.218l.875-.922c1.207.71 2.172 1.445 2.89 2.203.977-1.113 1.708-2.14 2.188-3.078h-5.984v-1.39l7.062-.063 1.078.546c-.648 1.7-1.64 3.297-2.984 4.797h7.266a19.852 19.852 0 0 1-3.657-5.61l1.422-.437c.383.875.89 1.782 1.516 2.72 1.164-.915 2.113-1.782 2.844-2.595l1.25.875a29.58 29.58 0 0 1-3.344 2.72l1.484 1.671c1.258-.957 2.274-1.848 3.047-2.672zm9.434-.265l-1.328.78c-.387-.882-.993-1.796-1.813-2.734l1.25-.687c.813.844 1.441 1.727 1.89 2.64zm.53 11.359h-3.843v3.672h3.844zm.267-1.344l1.218 1.219v3.953l-1.218 1.203h-4.11v1.016h-1.453v-6.172l1.203-1.219zm-5.844-1.672v-1.312h7.406v1.312zm.406-4.375h6.578v1.282h-6.578zm-1.047-1.718v-1.344h8.75v1.344zm12.969 13.328h4.078c.57 0 .938-.22 1.094-.657.176-.437.3-1.425.375-2.968l1.547.656c-.118 1.805-.368 3.008-.75 3.61-.368.6-1.086.906-2.157.906h-4.312c-1.125 0-1.899-.18-2.313-.532-.398-.336-.593-1.015-.593-2.047v-7.5l1.218-1.203h5.907v-5.593h-7.407v-1.563h7.813l1.203 1.203v8.672h-1.61v-1.156h-5.515v7.14c0 .43.086.711.266.844.187.125.57.188 1.156.188zm17.215-3.828l-.485-1.157c1.739-.718 2.66-1.797 2.766-3.234a2.996 2.996 0 0 1-.375.016c-.469 0-.867-.13-1.188-.391-.312-.281-.468-.672-.468-1.172 0-.5.16-.883.484-1.156.32-.281.75-.422 1.281-.422.54 0 .973.23 1.297.687.32.45.485 1.063.485 1.844 0 1.168-.344 2.196-1.032 3.078-.68.868-1.601 1.5-2.765 1.907zm33.011-10.048l-1.171.72c-.438-1.02-1.168-2.11-2.188-3.266l1.094-.625c1.05 1.117 1.805 2.172 2.265 3.172zm-8.984-1.5v1.454h-9.984v-1.453h4.687l-.984-2.39 1.5-.33 1.156 2.72zm-8.047 9.657l1.36.297c-.493 2.168-1.22 3.937-2.188 5.312l-1.187-.78c.906-1.208 1.578-2.817 2.015-4.83zm.688-5.125v2.64h4.953v-2.64zm6.468 2.75l-1.218 1.219h-1.907l-.156 8c-.086.207-.297.383-.64.53-.325.157-1.07.224-2.235.204l-.469-1.344h1.672c.227 0 .344-.101.344-.297v-7.093h-2.11l-1.187-1.22v-2.874l1.219-1.219h5.469l1.218 1.219zm.547 5.969l-1.234.562c-.23-1.125-.75-2.41-1.563-3.86l1.172-.53c.844 1.437 1.383 2.714 1.625 3.828zm10.016-8.797h-5.125c-.555 6.117-2.215 10.433-4.984 12.953l-1.188-.969c2.625-2.3 4.18-6.297 4.672-11.984h-2.844v-1.485h2.922c.063-.937.11-2.812.14-5.625h1.532c-.023 2.743-.07 4.618-.14 5.625h5.015zm-2.938 11.14l1.594-.109c.176-.07.285-.258.328-.562.04-.313.078-1.114.11-2.407l1.28.657c-.03 1.293-.116 2.152-.25 2.578-.116.425-.327.71-.64.86-.304.163-.734.25-1.297.25h-1.406c-1 0-1.59-.337-1.765-1l-.11-9.673h1.453v8.469c0 .48.063.758.188.828.144.074.316.11.515.11zm14.903-10.328h-5.75v5.016h5.75zm1.594 5.36l-1.204 1.218h-6.14v1.75h-1.578v-8.703l1.203-1.218h6.531l1.188 1.218zm8.296-11.797v1.64h-2.703v14.563c0 .594-.09 1.047-.265 1.36-.157.312-.446.523-.86.64-.586.207-2.101.312-4.547.312l-.703-1.75a48.35 48.35 0 0 0 4.063.047c.238-.007.398-.062.484-.156.102-.082.156-.242.156-.484v-14.532H400.59v-1.64zm14.215 6.437l-1.547.828c-.293-.757-.761-1.644-1.406-2.656a20.408 20.408 0 0 0-1.984-2.703l1.453-.734c1.601 1.773 2.766 3.527 3.484 5.265zm-3.125 4.266l.375 1.562c-2.105.95-5.031 2.247-8.781 3.891l-.594-1.687 3.032-1.235-.375-13.594 1.671-.078.329 12.985c.519-.22 1.269-.535 2.25-.953.976-.414 1.675-.711 2.093-.891zm11.422 6.516l-1.375 1.25c-.898-1.336-2.539-3.27-4.922-5.813-1.699 2.563-4.215 4.54-7.547 5.938l-1.296-1.407c1.863-.687 3.437-1.535 4.718-2.547a12.166 12.166 0 0 0 3.172-3.75 20.002 20.002 0 0 0 1.89-4.906c.458-1.77.813-3.898 1.063-6.39l1.782.171c-.555 4.961-1.524 8.758-2.907 11.391 2.727 2.762 4.535 4.781 5.422 6.063zm21.059-10.985l-1 .313-.203-1.047c-2.149.312-3.352.555-3.61.719l-.375-1.11c.29-.062.63-.316 1.016-.765l1.14-1.438-2 .438-.39-1.11c.258-.07.484-.285.672-.64.195-.25.445-.676.75-1.282l.75-1.797 1.14.454-1.64 3.062 1.422-.156.75-1.281 1.062.484c-.96 1.512-1.89 2.766-2.797 3.766l1.844-.235-.313-1.015.954-.22zm-5.25.016l-.922.297-.203-1.063c-2.055.356-3.168.586-3.344.688l-.344-1.11c.239-.03.52-.226.844-.593l1.219-1.532-1.766.39-.375-1.124c.352-.082.836-.703 1.453-1.86l.75-1.78 1.125.484-1.656 2.968 1.156-.14.656-1.203 1.079.5-2.641 3.625 1.625-.22-.234-.827.875-.219zm-7.375 5.281l-1.188.36-.187-1.25c-2.938.437-4.555.746-4.844.921l-.438-1.39c.29-.07.727-.504 1.313-1.297a34.156 34.156 0 0 0 1.766-2.75c-1.637.21-2.563.37-2.782.484l-.453-1.328c.446-.125 1.219-1.336 2.313-3.64a25.33 25.33 0 0 0 1.25-3.22l1.36.548c-.938 2.355-1.93 4.359-2.97 6.015l2.047-.203 1.453-3.031 1.297.672c-1.406 2.898-2.875 5.355-4.406 7.375l2.797-.375-.64-2.328 1.109-.25c.593 1.75.992 3.312 1.203 4.687zm-5.813.969l1.235.203c-.293 2.437-.664 4.305-1.11 5.61l-1.187-.391c.437-1.188.789-2.992 1.062-5.422zm1.969.14l1.094-.187c.343 2.137.535 3.86.578 5.172l-1.14.219c-.024-1.407-.2-3.141-.532-5.204zm1.797-.406l1.015-.265 1.188 4.28-1.078.329zm4.14 4.188h11.266v1.312H452.88l-1.219-1.203v-17.266h1.437v7.579h10.72v1.265h-10.72zm10.672-.75l-1.015.328-.172-.922c-2.117.312-3.336.555-3.656.719l-.344-1.094c.469-.113 1.226-.926 2.281-2.438-1.23.2-1.945.352-2.14.454l-.391-1.094c.25-.04.476-.235.687-.578.688-1.04 1.157-2 1.407-2.875l1.125.437-1.547 2.797 1.547-.203.625-1.094 1.062.485c-.95 1.543-1.883 2.82-2.797 3.828l1.89-.25-.343-1.14.938-.22zm-5.375.156l-.922.312-.203-1.062c-2 .324-3.117.555-3.343.687l-.36-1.109c.27-.05.602-.312 1-.781l1.281-1.61-1.953.407-.406-1.078c.25-.04.484-.227.703-.563.625-.789 1.102-1.723 1.438-2.797l1.093.438-1.53 2.687 1.359-.156.546-1.031 1.063.484-2.703 3.719 1.594-.203-.25-.86.921-.218zm20.59-13.844v-1.187h-5.61v-1.14h5.61v-1.188h1.61v1.187h5.375v1.14h-5.375v1.188h4.484v1.11h-10.781v-1.11zm-4.062 3.11v1.796h2.484v-1.796zm9.406 1.796v-1.796h-2.078v1.796zm-5.656 0h2.297v-1.796h-2.297zm-3.938 1.125l-1.203-1.203v-1.61l1.203-1.218h9.844l1.203 1.219v1.61l-1.203 1.202zm-1.156 3.454l-1.234.359-.22-1.281c-3.26.5-5.038.84-5.327 1.015l-.485-1.437c.54-.113 1.633-1.445 3.282-4-1.75.21-2.727.37-2.922.484l-.485-1.36c.477-.132 1.285-1.327 2.422-3.577a26.262 26.262 0 0 0 1.36-3.25l1.406.593c-1.012 2.368-2.055 4.325-3.125 5.875l2.156-.171 1.547-2.97 1.297.766c-1.399 2.73-2.934 5.122-4.61 7.172l3.172-.39-.64-2.188 1.172-.281c.644 1.793 1.054 3.34 1.234 4.64zm-6.39 1.03l1.327.22c-.324 2.5-.703 4.382-1.14 5.656l-1.281-.438c.488-1.257.851-3.07 1.093-5.437zm2.077.11l1.188-.187c.332 2 .531 3.683.594 5.047l-1.25.234c-.024-1.383-.2-3.082-.532-5.094zm1.985-.39l1.047-.329 1.218 4.063-1.156.375zm4.453 1.203v1.015h7.844v-1.015zm0-1.735v.953h7.844v-.953zm0-1.718v.921h7.844v-.921zm9.375 4.25l-1.188 1.203h-2.125c1.114.418 2.598 1.043 4.454 1.875l-.672 1.187a77.434 77.434 0 0 0-4.625-2.094l.547-.968h-6.032l-1.203-1.203v-4.032l1.203-1.203h8.438l1.203 1.203zm-7.438 1.203l1.235 1c-1.406.644-3.156 1.383-5.25 2.218l-.688-1.171c1.914-.696 3.485-1.38 4.703-2.047zm30.122-15.063v1.438h-19.016v-1.438h8.828l-.766-1.734 1.625-.328.97 2.062zm-14.625 4.047v1.984h10.328v-1.984zm12.03 1.984l-1.218 1.204H492.73l-1.203-1.204v-1.984l1.203-1.203h11.219l1.219 1.203zm2.86 6.516v1.422h-8.937v2.547c0 .457-.078.797-.235 1.015-.148.22-.445.391-.89.516-.438.125-1.735.188-3.891.188l-.547-1.36c2.344.063 3.598.04 3.766-.062.07-.063.11-.172.11-.328v-2.516h-8.845v-1.422h8.844v-1.328c1.633-.352 3.125-.79 4.469-1.313h-11.266v-1.343l14.203-.094 1.11.922c-1.899 1.074-4.172 1.933-6.828 2.578v.578zM191.254 523.2h5.922v-3.656h-5.922zm-6.969 0h5.344v-3.656h-5.266zm5.344-8.719h-5.266v3.532h5.266zm7.547 3.532v-3.532h-5.922v3.532zm.39-5.094l1.22 1.219v15.109c0 .531-.087.926-.25 1.187-.15.282-.4.493-.75.641-.556.207-1.919.297-4.095.266l-.547-1.578c.688.02 1.832.03 3.438.03.219-.01.367-.05.453-.124.094-.082.14-.227.14-.438v-4.468h-5.921v6.484h-1.625v-6.484h-5.5c-.399 2.949-1.313 5.218-2.75 6.812l-1.25-1.078c1.144-1.281 1.89-2.863 2.234-4.75.27-1.457.406-3.094.406-4.906v-6.703l1.204-1.22zm9.84 2.047H204.5v9.578h2.906zm1.453 9.953l-1.218 1.203H204.5v1.672H203v-13.219l1.203-1.203 3.438.031 1.218 1.219zm11.219-11h-7.844v3.125h7.844zm1.563 3.422l-1.22 1.218h-8.187v1.344c0 5.219-1.008 9.012-3.015 11.375l-1.297-.89c1.238-1.446 2.031-3.176 2.375-5.188.281-1.664.422-3.43.422-5.297v-6.297l1.218-1.203h8.485l1.219 1.203zm-5.016 12.062H220c.414 0 .687-.164.812-.5.133-.344.223-1.097.266-2.265l1.438.609c-.106 1.437-.32 2.402-.641 2.89-.305.489-.89.735-1.766.735h-3.625c-1 0-1.672-.164-2.015-.484-.344-.325-.516-.942-.516-1.86v-8.906h1.547v2.984h6.594v1.36H215.5v4.578c0 .367.062.601.187.703.157.105.47.156.938.156zm11.98-17.922l1.5.407-1.765 4.265v15.313h-1.563V518.98c-.75 1.188-1.465 2.157-2.14 2.907l-.844-1.657c1.988-2.187 3.594-5.101 4.812-8.75zm10.563 14.157v-3.407h-3.719v3.407zm2.156-7.063h-3.39v2.422h1.312l1.219 1.219v3.422l-1.219 1.218h-3.844l-1.203-1.218v-3.422l1.203-1.22h1.188v-2.42h-3.297v-1.25h3.297v-2.485h1.343v2.484h3.391zm-8.937 10.11h9.687v-14.547h-9.687zm-1.516-14.797l1.203-1.188h10.344l1.219 1.219v17.328h-1.563v-1.11h-9.687v1.297h-1.516zm31.98 4.468h-5.562l-.5 3.828h6.062zm-12.468 3.828h4.687l.531-3.828h-5.218zm7.672-7.734h-5.5l-2.157 2.438h5.828zm2.156 15.094h3.375c.469 0 .765-.176.89-.531.145-.364.243-1.207.297-2.532l1.516.64c-.117 1.563-.344 2.606-.688 3.126-.324.508-.953.766-1.89.766h-3.672c-1.055 0-1.766-.157-2.14-.47-.344-.304-.516-.882-.516-1.75v-5.124h-1c-.575 1.844-1.547 3.398-2.922 4.656-1.375 1.25-3.375 2.223-6 2.922l-.938-1.375c2.332-.57 4.13-1.375 5.39-2.406 1.259-1.04 2.165-2.305 2.72-3.797h-4.672l-1.203-1.219v-4.047l-1.297.985-1.156-1.188a20.421 20.421 0 0 0 3.75-3.234c1.093-1.227 1.957-2.438 2.593-3.625l1.797.328-.89 1.39 5.718-.093 1.094.75-2.25 3.172h5.219l1.219 1.203v4.36l-1.22 1.218h-4.28v5.094c0 .324.062.539.187.64.145.094.469.14.969.14zm14.855-1.313l1.469.672c-1.805 1.008-4.07 1.863-6.797 2.563l-1.172-1.22c2.75-.519 4.914-1.19 6.5-2.015zm-2.125-2.453v1.375h11v-1.375zm7.063-7.375h-4.078l-1.563 1.563h9.813l-.266-.703 1.375.093c.344 0 .566-.05.672-.156l.234-.797h-4.64v1.516h-1.547zm-4.922-2.39h-3.031l-.203 1.312h2.906zm1.547-2.344v1.265h3.375v-1.265zm8.328 0h-3.406v1.265h3.406zm-4.953 3.656v-1.312h-3.422l-.219 1.312zm3.937 5.063v-1.36h-11v1.36zm0 2.359v-1.344h-11v1.344zm2.203-4.39l-.562.03v6.641l-1.219 1.188h-2.547c2.414.71 4.477 1.422 6.188 2.14l-1.235 1c-1.718-.793-3.875-1.574-6.468-2.343l.812-.797h-8.531l-1.219-1.203v-5.766a24.05 24.05 0 0 1-1.953.484l-.781-1.28c2.539-.47 4.312-1.15 5.312-2.048h-2.531l-1.031-1.187.187-1.094 1.375-1.188h3.188v-1.265h-5.375v-1.078h5.375v-1.203h1.5v1.203h3.375v-1.203h1.547v1.203h3.703l1.203 1.218v.985l-1.203 1.219h-3.703v1.312h5.062l.985 1.625c.039.387-.086.711-.375.969-.282.273-.641.418-1.079.437zm8.356-6.047h-2.203v11.265h2.203zm.078-1.516l1.203 1.203v11.89l-1.203 1.204h-2.281v2.468h-1.266v-15.562l1.203-1.203zm6.547 1.187h-2.703v2.516h2.703zm-2.703 6.485h2.703v-2.672h-2.703zm4.765 7.156l-1.297.531-.406-1.453a203.72 203.72 0 0 0-3.328 2l-1.016.813-.812-1.141c.531-.488.797-1.129.797-1.922v-12.625l1.203-1.203h2.937l1.204 1.203v6.797l-1.204 1.219h-2.843v5.125l2.64-1.39-1.062-2.392 1.219-.421c1.007 1.886 1.664 3.507 1.968 4.859zm1.235-7.328h1.984c.383-1.801.602-3.875.656-6.219h-1.422a112.522 112.522 0 0 1-1.218 6.219zm3.718 9.547h.532c.218 0 .375-.043.468-.125.094-.094.165-.266.22-.516.05-.55.07-1.351.062-2.406l1.078.594c-.031 1.375-.102 2.261-.203 2.656-.18.758-.684 1.14-1.516 1.14h-.969c-.48 0-.824-.093-1.03-.28a1.341 1.341 0 0 1-.376-.579c-.043-.187-.062-.527-.062-1.016v-4.562c-1.075 2.492-2.633 4.727-4.672 6.703l-1.14-.812c2.655-2.414 4.491-5.399 5.515-8.954h-1.953l-.97-1.109c.395-1.582.802-3.75 1.22-6.5h-1.329v-1.437h7.11v1.437h-1.781c-.063 2.43-.278 4.5-.641 6.219h2.594v1.39h-2.907l-.343 1.188h.593v6.516c0 .304.165.453.5.453zm7.06-7.328h3.374v-3.688h-3.328zm3.374-8.813h-3.328v3.61h3.328zm.297-1.516l1.219 1.204v16.125c0 .851-.25 1.406-.75 1.656-.399.195-1.371.297-2.922.297l-.469-1.563c1.156.031 1.879.031 2.172 0 .3-.012.453-.144.453-.406v-5.422h-3.453c-.242 3.156-.793 5.633-1.656 7.422l-1.344-.797c.676-1.363 1.117-2.93 1.328-4.703.195-1.79.297-3.781.297-5.969v-6.64l1.219-1.204zm11.266 8.985h-4.594c.613 1.887 1.41 3.531 2.39 4.937.97-1.437 1.704-3.082 2.204-4.937zm.843-1.547l.938.328c-.555 2.887-1.559 5.356-3.016 7.406 1.102 1.262 2.332 2.227 3.688 2.89l-1.063 1.25a13.249 13.249 0 0 1-3.562-2.968 12.735 12.735 0 0 1-3.328 2.813l-.97-1.203c1.24-.676 2.364-1.61 3.376-2.797-1.188-1.72-2.168-3.774-2.938-6.172h-.547v10.297h-1.53V513.45l1.202-1.203h6.86l1.218 1.203v3.016c0 .43-.07.761-.203 1-.117.218-.37.398-.765.53-.399.126-1.512.188-3.344.188l-.531-1.39c1.508.031 2.394.043 2.656.031.281-.02.453-.05.516-.094a.44.44 0 0 0 .078-.28v-2.688h-6.157v5.89zm19.668-4.562h-4.625c.582 1.054 1.41 2 2.485 2.843a8.4 8.4 0 0 0 2.14-2.844zm-8.812 9.546l-1.125-.562 1.203-3.547h-2.125v9.062c0 .79-.242 1.313-.719 1.563-.43.156-1.344.234-2.75.234l-.5-1.484c.625.008 1.317.016 2.078.016.239-.012.36-.118.36-.329v-7.062c-.993 2.437-2.063 4.242-3.22 5.406l-.858-1.515c.675-.625 1.332-1.473 1.968-2.547a18.734 18.734 0 0 0 1.578-3.344h-3.328v-1.438h5.907c-1.336-1.125-2.965-2.101-4.891-2.937l1.016-1.063a38.5 38.5 0 0 1 2.14 1.016 14.61 14.61 0 0 0 2.297-2.187h-6.219v-1.422l7.672-.063 1.063.656c-.856 1.325-2.055 2.57-3.594 3.735.789.469 1.41.914 1.86 1.328l-.844.937 1.875-.078.984.344-.328 1.172c1.57-.438 2.883-1.004 3.937-1.703a11.798 11.798 0 0 1-2.265-2.672c-.649.7-1.172 1.219-1.578 1.562l-1.344-.953a12.606 12.606 0 0 0 2.39-2.375 13.194 13.194 0 0 0 1.782-2.984l1.562.406-1 1.89h7.297v1.391h-1.687a10.25 10.25 0 0 1-2.641 3.735c1.414.898 3.004 1.539 4.766 1.922l-1.032 1.406c-1.867-.508-3.531-1.285-5-2.328-1.304.906-2.902 1.652-4.797 2.234l-.593-.86zm6.656-.968h5.14v.703c-.386 3.656-.886 5.789-1.5 6.406-.292.312-.745.504-1.359.578-.867.02-1.68.008-2.437-.031l-.438-1.516c.79.07 1.43.11 1.922.11.5 0 .832-.075 1-.22.426-.425.785-1.984 1.078-4.671h-3.703c-.406 1.512-1.07 2.805-1.984 3.875-.906 1.07-2.188 1.93-3.844 2.578l-.969-1.25c2.645-.957 4.348-2.691 5.11-5.203h-3.438v-1.36h3.781l.297-2.171h1.64zm18.98-6.282a1.647 1.647 0 0 1-1.171.453c-.461 0-.852-.148-1.172-.453-.324-.312-.485-.707-.485-1.187 0-.488.16-.883.485-1.188.32-.312.71-.468 1.172-.468.457 0 .847.156 1.171.468.333.305.5.7.5 1.188 0 .48-.167.875-.5 1.187zm0 10.782a1.647 1.647 0 0 1-1.171.453c-.461 0-.852-.149-1.172-.453-.324-.313-.485-.711-.485-1.204 0-.5.16-.898.485-1.203.32-.312.71-.468 1.172-.468.457 0 .847.164 1.171.484.333.312.5.715.5 1.203 0 .48-.167.875-.5 1.188zm-185.937 32.39v-14.937l1.203-1.203h3.86c3.75 0 5.625 1.515 5.625 4.546 0 1.22-.325 2.211-.97 2.97-.648.76-1.542 1.28-2.687 1.562l4.141 7.062h-2.313l-3.906-6.844h-2.906v6.844zm2.047-8.484h2.703c2.613 0 3.922-1.035 3.922-3.11 0-1.03-.324-1.765-.969-2.203-.648-.445-1.633-.672-2.953-.672h-2.703zm13.146 8.484l-1.203-1.203v-13.734l1.203-1.203h8.093v1.734h-7.25v5.062h6.11v1.735h-6.11v5.875h7.5v1.734zm23.058-1.578c-1.21 1.242-2.886 1.86-5.03 1.86-2.138 0-3.876-.743-5.22-2.235-1.336-1.5-2-3.531-2-6.094 0-2.57.688-4.613 2.063-6.125 1.375-1.507 3.148-2.265 5.328-2.265 1.844 0 3.39.668 4.64 2l-1.109 1.328c-.96-1.031-2.12-1.547-3.484-1.547-1.637 0-2.938.59-3.906 1.766-.97 1.18-1.453 2.78-1.453 4.812 0 2.031.472 3.64 1.421 4.828.938 1.168 2.258 1.75 3.97 1.75 1.257 0 2.226-.312 2.905-.937v-4.235h-3.406v-1.687h4.063l1.218 1.203zm3.828 1.578v-16.14h2.046v16.14zm10.929.282c-2.242 0-4.125-.797-5.656-2.391l1.234-1.39c1.258 1.335 2.738 2 4.437 2 1.04 0 1.864-.235 2.47-.704.612-.476.921-1.117.921-1.922 0-.812-.273-1.414-.812-1.812-.407-.32-1.032-.676-1.875-1.063l-2.329-1.015c-2.187-.938-3.28-2.313-3.28-4.125 0-1.25.476-2.274 1.437-3.079.968-.812 2.187-1.218 3.656-1.218 1.875 0 3.457.668 4.75 2l-1.078 1.297c-1.086-1.008-2.309-1.516-3.672-1.516-.918 0-1.652.227-2.203.672-.543.418-.813.984-.813 1.703 0 .844.395 1.508 1.188 1.984.351.188.844.422 1.469.703l2.312.985c1.07.48 1.895 1.043 2.469 1.687.57.637.86 1.563.86 2.782 0 1.21-.513 2.25-1.532 3.125-.992.867-2.309 1.296-3.953 1.296zm12.007-.282v-14.406h-4.876v-1.734h11.813v1.734h-4.89v14.406zm9.816 0v-14.937l1.203-1.203h3.86c3.75 0 5.624 1.515 5.624 4.546 0 1.22-.324 2.211-.969 2.97-.648.76-1.542 1.28-2.687 1.562l4.14 7.062h-2.312l-3.906-6.844h-2.906v6.844zm2.047-8.484h2.703c2.613 0 3.922-1.035 3.922-3.11 0-1.03-.325-1.765-.97-2.203-.648-.445-1.632-.672-2.952-.672h-2.703zm14.739-.531l-.797 2.453h4.89l-.78-2.453c-.438-1.364-.98-3.18-1.625-5.454-.461 1.493-1.024 3.309-1.688 5.454zm-4.937 9.015l5.484-16.14h1.047l1.594 1.14 5.093 15h-2.156l-1.531-4.922h-5.89l-1.563 4.922zm18.851 0v-14.406h-4.875v-1.734h11.813v1.734h-4.89v14.406zm9.817 0v-16.14h2.046v16.14zm17.382-2c-1.274 1.524-2.934 2.281-4.984 2.281-2.055 0-3.715-.757-4.985-2.28-1.262-1.532-1.89-3.571-1.89-6.126 0-2.55.628-4.57 1.89-6.062 1.27-1.5 2.93-2.25 4.985-2.25 2.05 0 3.71.75 4.984 2.25 1.27 1.492 1.906 3.511 1.906 6.062 0 2.555-.637 4.594-1.906 6.125zm-8.469-1.297c.875 1.2 2.035 1.797 3.485 1.797 1.457 0 2.617-.597 3.484-1.797.875-1.207 1.312-2.812 1.312-4.812 0-2.008-.437-3.602-1.312-4.781-.867-1.176-2.027-1.766-3.484-1.766-1.461 0-2.625.59-3.5 1.766-.868 1.18-1.297 2.773-1.297 4.78 0 2 .437 3.606 1.312 4.813zm13.852 3.297v-16.14h.907l1.781 1.03 7.125 12.47c-.18-2.614-.266-4.317-.266-5.11v-8.39h1.938v14.937l-1.219 1.203h-.875l-7.61-13.515c.102 2.98.157 4.664.157 5.046v8.47zm20.799 0v-14.937l1.203-1.203h3.406c4.02 0 6.031 1.586 6.031 4.75 0 1.656-.539 2.902-1.61 3.734-1.054.836-2.495 1.25-4.327 1.25h-2.657v6.406zm2.046-8.047h2.391c1.426 0 2.477-.27 3.156-.812.688-.551 1.032-1.39 1.032-2.516 0-1.144-.344-1.941-1.032-2.39-.699-.47-1.777-.704-3.234-.704h-2.313zm14.652-.968l-.797 2.453h4.89l-.78-2.453c-.438-1.364-.981-3.18-1.626-5.454-.46 1.493-1.023 3.309-1.687 5.454zm-4.938 9.015l5.485-16.14h1.047l1.593 1.14 5.094 15h-2.156l-1.531-4.922h-5.89l-1.563 4.922zm26.821-1.578c-1.211 1.242-2.887 1.86-5.031 1.86-2.137 0-3.875-.743-5.22-2.235-1.335-1.5-2-3.531-2-6.094 0-2.57.688-4.613 2.063-6.125 1.375-1.507 3.149-2.265 5.328-2.265 1.844 0 3.391.668 4.641 2l-1.11 1.328c-.96-1.031-2.12-1.547-3.484-1.547-1.636 0-2.937.59-3.906 1.766-.969 1.18-1.453 2.78-1.453 4.812 0 2.031.473 3.64 1.422 4.828.937 1.168 2.258 1.75 3.969 1.75 1.257 0 2.226-.312 2.906-.937v-4.235h-3.406v-1.687h4.062l1.219 1.203zm5.03 1.578l-1.203-1.203v-13.734l1.203-1.203h8.094v1.734h-7.25v5.062h6.11v1.735h-6.11v5.875h7.5v1.734zm0 0" fill="#3E3A39"/><path d="M638.183 268.322v-16.14h2.047v6.765h7.516v-6.766h2.03v16.14h-2.03v-7.608h-7.516v7.609zm15.841 0v-11.953h2v11.953zm1.97-14.766c-.25.242-.575.36-.97.36-.398 0-.718-.118-.968-.36-.25-.25-.375-.57-.375-.968 0-.395.125-.708.375-.938.25-.25.57-.375.968-.375.395 0 .72.125.97.375.25.23.374.543.374.938 0 .398-.125.718-.375.968zm0 0" fill="#FFF"/></svg>