<svg viewBox="0 0 279 315" xmlns="http://www.w3.org/2000/svg"><circle cx="146.04" cy="137.09" fill="#febe10" r="109.41"/><g fill="#fff"><path d="m218.6 106.36c-.52 0-1 .11-1.57.11h-28.88a54.59 54.59 0 0 1 4 4.4 107.57 107.57 0 0 1 7.15 10.52 20.63 20.63 0 0 1 -3.82 24.68 64.43 64.43 0 0 1 -14.48 10.4l-17.74-17.77-7.87 7.88 15.61 15.42c-28.3 14.57-77.53 48.15-86.47 39.21s18-42.72 27.89-63.6l15.16 15.3 8-8.13c-.11-.11-.41-.46-.74-.79l-16.39-16.38c-.48-.48-.89-.84-.44-1.65 4.42-8.12 8.79-16.26 13.18-24.39a9.92 9.92 0 0 1 .66-.95l19.15 19.15 7.79-7.74q-10.12-10.03-20.36-20.32a21.13 21.13 0 0 1 27.33-4.57 59.05 59.05 0 0 1 12.5 9.56c.24.24.5.46 1 .9v-28.9c0-.52.07-1 .1-1.57h11.06c0 .52.11 1.05.11 1.57v18.52l18.34-18.44 8.21 8.22-18.24 18.2h15.43c1.45 0 2.89.07 4.33.11z"/><rect height="58.72" rx="12" width="110.76" x="90.66" y="227.36"/><path d="m189.87 288.5c-.56 0-.36.39-.45.47.98-.13.42-.58.45-.47zm8-3.93v.22a12.49 12.49 0 0 0 .69-1.15c-.23.3-.44.63-.69.93zm4.48-6.66c-.46.26-.64.95-.91 1.71a5.52 5.52 0 0 1 -1.13 2.15l-.27.09c0 .29.05.58.06.88a12.35 12.35 0 0 0 1.36-2.54c.37-.89.61-1.73.89-2.29zm2.11-4.25c-.14.12-.2-.09-.21-.11s0 0 0 .17v.96a.81.81 0 0 1 .08-.2c.1-.17.11-.41.13-.82zm-.03.82c0 1 .26-.62 0 0zm-.15-3.61.25 1c.17-.21.2-1.11.32-.77-.13-1.03-.3-.81-.57-.23zm-.52-.95.11.52c.07-.09.13-.23-.11-.52zm.33 1.63-.22-1.11c-.12.15-.35.16.08.51-.21-.09-.01.13.14.6zm-.09.62c-.15.57-.25 1.3-.5.29.08 1.92.58 1.64.5-.29zm-2.26 5.14a6.31 6.31 0 0 1 -.42.71v.73a2.8 2.8 0 0 1 .33-.84c.12-.31.21-.59.09-.6zm2.91-12.71c-.15-.06-.4.34-.6.42l.18.74c.1-.38.2-1.11.42-1.16zm-.6.4-.26-1.12c-.03 1.02.1 1.2.26 1.12zm-1.08 4.74.55 1.82-.56-2.17zm1.7-9.38.35.63-.53-1.13zm-.06-2.82c.29.46.49-.64.67-.15a7 7 0 0 0 -.52-2 4.58 4.58 0 0 1 -.15 2.15z"/><path d="m204.43 254.4a6.65 6.65 0 0 0 .33 1 4.19 4.19 0 0 0 -.33-1zm-.56 7.6a1.26 1.26 0 0 0 .43-.88l-.42.44c-.01.15-.01.3-.01.44zm-.01-.41v-.94c.03.1.02.35 0 .94zm.01.53v-.12s-.06.08 0 .12zm-.51 4.7c-.24-.65-.5-2-.86-.69.29.46.5-.29.86.69zm-.03-4.16-.1 1.18c.12 0 .28-.23.4.09z"/><path d="m203.2 262.08.13.58.04-.43zm.8-5.66a5.64 5.64 0 0 1 -.23-1.7 15.75 15.75 0 0 0 -.13 2c.16.13.36.42.36-.3zm-.09 2.51v-.11c-.06.07-.07.12 0 .11zm-.11-10.42-.08.1.08.03z"/><path d="m203.59 256.87a1.75 1.75 0 0 0 .15 1.1 11.43 11.43 0 0 1 -.07-1.21c-.06-.04-.1-.05-.08.11zm.64-4.21c-.09.27-.17.57-.24.88.14-.25.35-.78.24-.88zm-.23 5.99a.19.19 0 0 1 0 .07c.11-.16.07-.14 0-.07zm0 0a3.21 3.21 0 0 0 -.26-.68 8.38 8.38 0 0 0 .14.85.83.83 0 0 1 .12-.17zm-2.94-12.02c.39.09.76 1.43.33 2.58.3 1.14 1.6.39 2.33-.6-.17 0-.33 0-.56-1.2-.22.41-.51 2.59-.87 1.61-.2-1.55.14-1.27.35-2-.49.64-.72-2-1.44-1.63l.25 1.35c-.11.01-.29-.48-.39-.11zm2.62 4.21v.48a5.76 5.76 0 0 1 .54-1.66c-.2-.8-.34-1-.47-1l-.06 2.36z"/><path d="m203.73 253.47c-.43-.37-.61-1.52-1.08-.82 0 1.41.36 1 .55 1.83-.11-2.27.24.66.48-1a9.61 9.61 0 0 1 .12 1.23c0-.41.11-.8.19-1.18v.06c-.05.1-.08.14-.05 0a.45.45 0 0 1 -.17-.11c.09-.65.12-.1.17.11h.06l-.24-2.28a13.44 13.44 0 0 0 -.03 2.16zm-2.16 11.44c0-.07.07-.07.1-.07s-.09-.21-.1.07z"/><path d="m201.83 264a1.32 1.32 0 0 1 .19.84c-.13.47-.21 0-.35 0 .11.32.31 1.13.52.12l-.06-.17c.15-.91.69-2.09.75-1.93a3.23 3.23 0 0 0 -1.05 1.14zm.84-5.34-.21-1.9-.37 1 .22-.05c-.09 1.05.19.81.36.95zm1.34-10.36.46.25-.64-1.1zm-.05-2.47.39.09-.23-.65zm-110.96 1.78.11.56a3.62 3.62 0 0 0 -.11-.56zm.06-4.04-.19-.1c.13.19.18.27.19.1zm61.11-18.7c-.81-.37-1.72-1-1.62-.5l.25.43a3.31 3.31 0 0 1 1.37.07zm-41.48 2.59.24.13.55-.42zm-.57 1.79-1.07-.28a5.46 5.46 0 0 0 1.07.28zm-18.62 40.4.44.65c-.01-1.01-.23-.57-.44-.65zm95.99-44.65a9.22 9.22 0 0 0 -1.76-.26c.85.26 1.51.6 1.76.26zm-101.06 21c.08.34.17.49.26.48-.07-.34-.15-.48-.26-.48zm97.27-21.28.37.1a8.61 8.61 0 0 1 1.66-.1 2.89 2.89 0 0 0 -2.03 0zm-26.34 58.89a.53.53 0 0 1 .18.05c.02-.06-.06-.07-.18-.05zm23.29 4.39h-1a3.77 3.77 0 0 0 1 0zm20.88-52.82c.2.61.08.08 0 0zm-1.15 3.2c0-.12-.12-.2-.22-.21a.35.35 0 0 1 .22.21zm-21.89-10.96c.11.08.09.07 0 0zm23.09 8.74a6.48 6.48 0 0 0 -.07-.82c0 .14.02.39.07.82zm.17-.16a5.16 5.16 0 0 1 .09.55c.07.06.16-.02-.09-.55zm-.53-1.66a4.33 4.33 0 0 1 .29 1v-.16a7.74 7.74 0 0 0 -.29-.84zm-86.7 50.43h.11c.53-.14.29-.11-.11 0zm24.04-55.4h.06-.08zm-1.88.32a2.07 2.07 0 0 1 1.86-.36l-.62-1.25z"/><path d="m93.16 257.27.39-1.32c.64 1.6.42 2.75 1 1.51-1.36-.19-.14-5.13-1.5-5.31l.29-.87c0 .25.06.29 0 .53.65-1.69-1-1.25-.79-3.43.11-.76.3-1.29.47-.77l-.34-1.69c0-.5.26-.38.24.11l-.11-2.58a11.47 11.47 0 0 1 -.69-1.61c.2-.65.15.33.32.16l-.33-1.43c.35-.58.69.61.64 1.59.68-.66.59-1 .44-1.45a3.08 3.08 0 0 1 .06-2.34l.12 1.08a2.15 2.15 0 0 0 .66-1.1 3.79 3.79 0 0 1 .64-1.27 8.12 8.12 0 0 0 -.94.86c-.37.34-.74.56-.8-.09a2.92 2.92 0 0 0 .21-1.51c.24.07.38-.06.5-.29s.21-.6.39-1l.55.34c.2-.83-.06-.92 0-1.53a1.3 1.3 0 0 1 1.63-.47c.52-.5.23-.45-.1-.45s-.67 0 0-.72c1.15-.69 1.71-1.41 3.11-2.37 1-.13 0 .42.36.48a6.31 6.31 0 0 1 .64-.73c.21 0 .18.13.16.22.65-.37-.1-.65 1-1 .13-.39.75-.15 1.56.07a3.89 3.89 0 0 0 2.71.08c.41.18-.2.39-.08.64a18.71 18.71 0 0 0 3.85-1.09l1.6.42c-1.18-.48.32-1.05 1.64-1.51a11.09 11.09 0 0 0 -1-.54l2.1-.34c.25.11 0 .33-.3.59a3.77 3.77 0 0 0 .38-.15c.75.24.36.6-.17 1l-.76-.39c-.52.39-1 .82-.9 1.19a2.22 2.22 0 0 1 .69-.17c-.14.1-.22.2-.16.26s.29-.07.64-.24l.47.72.12-.29 2.75.45c2-.72 3.68-1.77 6.8-2.07-.77.52-.17.86-.21 1.48-.85-.66-2.42.27-4 .14.85.07.66.36.45.47l2.88-.6c-.06.51.62.38 1.37.59-.57-1 2.15-.67 3.33-1 .07.33-.21.68-1.64.6 1.58.75 2-1.18 3.59-.54-.35 0-.54 0-.68.13.82-.3 2.82-.07 2.35.23h-.35c2.32.12 7.07 0 7.42-.84a4.26 4.26 0 0 1 -.45 1.2l4.15-2.86c-.37.73 1 2.47-.89 2.88a5.32 5.32 0 0 0 2.4 0c-.38-.11-.94-1.06-.43-1.13a12 12 0 0 0 2.73 1.13c-.56-.15.06-1.3 1-1.26-.14.17.07 1.13-.26 1.25l2.23-1.13c-.56.21-.1 1 .4 1.27-.23-.22 1.92 0 2.51-.09l-.94-.26c2.51.17 2.48-1.58 5-1.52-.3.23-.74 1.43.53 1.57.58-.58 2.57-2.77 4.77-3.21l.42.33 1.7-.38a33.82 33.82 0 0 1 -5.63 3.4c.94.26.26.39 1.67.36.5.31-.76.47-1.18.49l3.28.2c-.15-.68 2.5-.68 2.38-1.24l-3.56.7c-.14-.67 2.06-1.91 4.38-1.79.59.27-.44 1.19-.39 1.42a5.27 5.27 0 0 1 2.41-.28l-1 .36c1.29.25 2.11-.89 3.66-.25.54 0 1.6.87 1.69.47-.87-.77-1-3.14-.46-3.72a24.5 24.5 0 0 1 3.43 1.11c.88.61-1.33 1.44-.58 1.95 0-.18.52-.41.73-.48.56.16-.24.57 1 .49.2-.68 2.49.06.58-.58 1.19-.19 1.27.14 2.67.11-.44-.44 1.26-1.5 2.46-1.69-.07.17.2.4.33.5 2.46.06 3.77.37 6.06.38.21.16 1.31.36.84.66a3.09 3.09 0 0 1 1.34-.37c1.37.59-1.57.09-.53.8 0-.2.5-.34 1.07-.46s1.17-.19 1.65-.22c-.2-.72-2.21-.25-3.22 0 0-.42.43-.85 1.17-1.23a6.57 6.57 0 0 1 3.2-.62c2.1.33.73.75 1.11.73a11.8 11.8 0 0 0 1.18.4 7.48 7.48 0 0 0 .9.28c.55.11 1 .21 1.37.27a3.57 3.57 0 0 1 2.58 1.77c.5 1.34-.74.77-.82 1.25-1.23-1-1.57-1.91-2.54-2.47l.51.46.46.5a7 7 0 0 1 -1.88-1c.33.44 1.64 1.18 2.84 2.41a9.08 9.08 0 0 1 2.46 4.24c.17.19.37.47.53.65s.28.27.33 0-.24-.54-.36-.81c.12-1 1.13 1.42.95.26a9.25 9.25 0 0 1 .94 1.89 5.38 5.38 0 0 1 .24 2.45l-.61.31c.09 0 .18-.28.23-.61a2.27 2.27 0 0 0 -.1-1c.35.8-.79 2.59 0 3.35l.43-1.15c.3 1.17 1 2.62.76 4.08.61-.67-.07-.34.64-1.37-.88.89 0-3.73-.89-2.29a2.81 2.81 0 0 0 .57-1.49 13.55 13.55 0 0 1 .34-2.13c-.2.08-.29.65-.42-.85a1.74 1.74 0 0 1 -.24-.28v-.1.08c0-.05-.05-.06 0 0a1.57 1.57 0 0 1 -.17.79 8.53 8.53 0 0 1 -.83-1.71 7 7 0 0 0 -.91-1.63c-.27-.78.37.22.36-.28a9.29 9.29 0 0 0 -.83-.83c.35-.3-.58-2.35.73-.74a13.11 13.11 0 0 0 -1-1.55 6.74 6.74 0 0 0 -1-1.55 4.9 4.9 0 0 0 -1.36-1.07c-.65-.66-2.14-.83-1.29-.73a14.38 14.38 0 0 0 -2.73-1v-.11a11 11 0 0 0 -4.36-.65h-2a8.49 8.49 0 0 1 -2-.35 11 11 0 0 1 -3 .13l-.26-.39c-1 .13-3.1-.39-3.54 0-1.11-1-5-.22-6.81-.41l-.07.51a24.85 24.85 0 0 0 -4 .32l.1.45c-1.34.36-3.43-.32-5.55-.28.15-.17.68-.12 1.06 0-2.52-1-5.32.74-7.6 0a2.33 2.33 0 0 1 -1.39 0h.14-.35c-.25-.07-.51-.16-.79-.23a5.48 5.48 0 0 0 .66.24 11.7 11.7 0 0 0 -1.76.17l-.27-.48h-.15c-.65-.18-.52.22-.18.59a3.46 3.46 0 0 0 -.86.29c-.52-.78-1.72.26-2.43-.57-.44.4-3.28.3-3.63 1.15 0-.11-.22-.16.14-.17a4.53 4.53 0 0 0 -2.11 0l-.31-.61-1.59.82c-1-.37-1.37-.59-.41-1.06-2.32.72-1.88.27-3.85 1l.1-.4c-.71 0-1.83.55-2.26.22-1.58-.75-7.8-.1-11.84-.8.78 1.16-1.88-.52-2 .38-.24-.28-.8-.43-.14-.67-2.07.27-3.11-.44-4.53.32-.24-.27.44-.4.23-.56-.17.06-.65.24-.87.07s.3-.23.63-.35c-2.11.05-2.32.9-2.48 1.69a2.23 2.23 0 0 0 -2.37.2c-.37-.26-1-.53.32-.63-.74 0-4.5-.38-4.58.26a2.1 2.1 0 0 0 -1.22 0c-1.66 0-1.8-.1-3.43 0l.45.11a1.16 1.16 0 0 1 -1.1.4 5.2 5.2 0 0 0 -1.7 0v-.08a4 4 0 0 0 -2.31.42 11.69 11.69 0 0 1 -2.22.77l.38.33c.13.55-.55.7-1.39 1.06a4.53 4.53 0 0 0 -2.38 1.74l.66-.32a1.39 1.39 0 0 1 -.65.61 10 10 0 0 1 -1 .53 4.7 4.7 0 0 0 -1.87 1.29c-.18.19 0-.43.16-.75-1 1.19-.85 1.38-.63 1.47s.56.15.27 1.17c-.44.28-.67-.8-1.16.64a2.19 2.19 0 0 0 -.21 1 15.63 15.63 0 0 0 .09 1.72c.08.63.15 1.3.19 1.78a3.56 3.56 0 0 1 -.16 1.45c.26-.37.52-.74.71.12.1 1.31-1 3.54-.16 4.72-.07.17-.14.23-.21.24.22 1 .36 3.25.8 3.85-1.65.93.81 6.22-.72 6.2l.08 3.08-.15-.08a5.38 5.38 0 0 0 .63 3.36c-.1.45-.25.12-.33.08a9.59 9.59 0 0 0 .52 5.57l-.49.25a10 10 0 0 1 -.21 2.68c-.08.66-.15 1.38-.17 2.11a8.73 8.73 0 0 0 .06 1.21 5.07 5.07 0 0 0 .27 1.24.52.52 0 0 1 -.27-.33 31.92 31.92 0 0 0 1.74 5.77c.86 1.77 2.11 3.05 3.21 2.78a8.91 8.91 0 0 0 1 .57 8.14 8.14 0 0 0 1.09.47c-1.22-.87-1-1-.59-1s.93.11.55-.34a5.71 5.71 0 0 1 1.2 1.17c.29.32.31.53-.34.27l-.15-.18c-.46.28.3.81 1.2 1.23s1.92.65 1.81 1a21.86 21.86 0 0 0 4.32.43l3.91.16c2.59.13 5.14.27 7.63.29l-.57-.73h1.74c.46.17.61.57-.63.54.66.41 2.09-.35 2.12-.51 2.43.3-1 .85-.2.87l1-.05-.23-.09a4.18 4.18 0 0 1 2.39-.58c.94.15.48.45.86.48 0 .05.12.08.57 0l2.19.06-.88-.57c1-.29 2.07 0 1-.63 1.49 1 8.19.37 9.1.68a12.81 12.81 0 0 1 4.37-.36c-.41-.12-.66-.77.78-.69-.53 1.34 2.63.58 3.79 1.54-1-.64 4.09-.16 2.46-1.06 1.2.1.07.5 1 .81 2.85-.52 6.29.34 9.82.16.05-.17-.54-.44.22-.7l1.86.88c.69-.09.64-1 1.91-.41-.18-.15-.45-.37 0-.42 6.91.85 14.12-.71 21.14.9-.95-.34-.32-.37.4-.38-.47-.09 0-.44-.08-.68l2.94.67c.54-.67 3.15-.05 3.46-.68l-.93.11c1.23-.74-1.73-1.66-1.55-2.62-1.39.85-3.66-1.25-5.93 0-.5-.19.43-.31.16-.53a3.28 3.28 0 0 1 -2.56.31l.15-.1c-3.63.1-5.18-.3-9.25-.57l.3.47a4.56 4.56 0 0 1 -1.47-.33c-1 .72 2.46 0 1.55.83-1.16-1-6.17 0-6.95-1.11-1.35 0 .39.55-.95.55l-.36-.3-.34.38c-.88-.06-1.33-.43-1.36-.68a5 5 0 0 0 .84-.09c-1.15-.35-3.23.11-3.62 0l1.29.18c-3.67.28-8.15-.11-11.7.49l.27.23c-2.71.41-2.17-.25-5.14-.06l.11-.05a6 6 0 0 1 -2.21.31c.75-.26-1.41-.51-.42-.8-2.94.45-1.46.35-3.4 1.18l-.44-.37a3.74 3.74 0 0 1 -2.21.61c1.22-.32-.94-.57.42-1-3.12-.81-4.63.82-6.06-.36-1.43 1 2.7.57 1.9.78.67.34-1.18.77-2.16.67s-1.69-1.31-4.2-1.29c.25 0 .27-.08.52-.07-.94-.26-1.84.35-3-.07-.64.62-1.49 0-1.68.75l2.3-.18c-1.3.21-2.52 1.13-4.67.68a4.12 4.12 0 0 1 1.25-.48c-.63-.24-1.21.15-1.86-.09.18-.79 2.79-.17 4.18-.78-.67-.33-2.63.58-1.93-.28-1 1.09-2.47-.14-4.17.7l.11-.48a4.33 4.33 0 0 1 -1.31.29l.89-.62c-1.37.53-2.65-.46-4-.17 2.75 0 .62.57 1.78.92-3.4.63-2-1.24-5.76-1 .51-.06 1.93.29 1.13.51a7.53 7.53 0 0 1 -2.13-.53 3.61 3.61 0 0 0 -1 .11c-.07.05 0 .12.11.2s.73.32.18.47c-.74-.61-1 .22-2 .24l.08-.48c-1.11-.4-1.31-.24-1.52-.05a.53.53 0 0 1 -.39.18 1.73 1.73 0 0 1 -1-.44 8.23 8.23 0 0 0 1.12-.23 11 11 0 0 1 -1.08-.31l.45-.39a3 3 0 0 1 -2.27-1.39c0 .42-.74.59-1.5-.26-.25-.76.6 0-.38-1.13.48.1.92.17 1 .92.16-.06.44 0 .59 0a12.31 12.31 0 0 0 -1.36-1.91 1.71 1.71 0 0 1 .2.54 9.41 9.41 0 0 1 -1.56-1.59c0-.39.28-.18.5 0-.18-.38-.53-.58-.72-1.2a1.22 1.22 0 0 1 1.23.65 5.27 5.27 0 0 1 -.48-.83 5.6 5.6 0 0 1 -.4-.9c.12-.16.38-1 .54-.78a9 9 0 0 0 -.29-2.25 7.89 7.89 0 0 1 -.2-2.78 1.4 1.4 0 0 1 -.21-.67c.09-1.72.57-3.25 0-5.29l.7-1.16c-.16-1.6-.89 1.57-1.15-1.09-.23-1.89.6-.71.79-1.37a6.28 6.28 0 0 1 -.5-4.29 10.33 10.33 0 0 1 .34 1.51zm-.16-19.38c0 .33.32 1 0 1.16-.53-.37-.29-.66 0-1.16zm22.62-9.51a1.58 1.58 0 0 1 -1.22-.1 3.3 3.3 0 0 1 1.19.1zm84.15 1.06h-.05c-.63-.86-.41-.57.02 0zm1.17 1.74c.18.13.23.08.23 0-.19-.05-.47-.42-.77-.86-.03.17.05.43.51.86zm-78.84 56.82-.34-.12c.78-.13.56-.01.34.12z"/><path d="m112.2 229a.45.45 0 0 1 -.17-.26c-.15.12-.15.26.17.26zm-18.79 40.53v.06a.16.16 0 0 0 .09.06zm80.03-40.21a1.75 1.75 0 0 1 -.71-.25c-.02.12.15.22.71.25zm30.93 12-.13-1.13a2.47 2.47 0 0 1 -.16 1c.12-.01.28-.19.29.13zm-2.99 9.84c.06.17 0 .35.07.51h.22c-.01-.75-.19-1.24-.29-.51zm1.38-8.79c-.4.09-.26.8-.19 1.6v-.14c.57.23.43-.62.19-1.46zm-.18 1.78a4.45 4.45 0 0 1 0 .73c.24.12.06-.29 0-.73zm-.1-10.8c.1.45.61 0 .55.35.35.14-.11-.52-.51-.89s-.7-.51-.04.54zm-1.05 9.66.5-.28-.41-.45zm.06-6.32c.06.43.06.87.08 1.3.09 0 .16.13.2.33-.06-.8-.12-1.7-.28-1.63z"/><path d="m201.77 238.32a3.91 3.91 0 0 0 .14 1.05 6.78 6.78 0 0 0 -.14-1.05zm-.49 2.96.1-.37.04-.9zm-9.19-14.1c-.48-.05-1-.06-1.44-.08-.15.15.21.3.73.32.36-.09.89-.02.71-.24zm3.26 2.82a1.31 1.31 0 0 1 -.3-.62l-.34.52zm-3.46-1.3c-.17.09-1.84.2-.31.39.14-.09 1.42.04.31-.39zm-20.59-1.08.35-.01-.05-1.02zm-18.39 2.44c1.64.24.39-.63 1.87-.33.39-.24-1.21-.24-.82-.45-.96.25-1.51.11-1.05.78zm1.09-.78a4.2 4.2 0 0 0 .51-.16 2.17 2.17 0 0 0 -.51.16zm32.52 59.25 1.05.21-.68-.34zm2.02-.76.25.65.63-.58c-.23.02-.7.08-.88-.07zm-93.73-51.67-.12-.11c-.2 0-.27.21-.42.54zm-1.14 12.84.01-.25-.58.46zm.75 12.06c0-.49-.11-1.07-.08-1.56.1 1.02-.65 1.64.08 1.56z"/></g><path d="m140.91 261.86c-1.59 1-3.37 2-5 2.85a30.46 30.46 0 0 0 6.35 1.27 15.9 15.9 0 0 0 -2.76 4c-4.86-.8-8.45-2.38-11.18-5l.06 3.4c-4.54.48-9.46.89-13.11 1.21l-.6-4.23c.95-.06 2-.12 3.14-.22v-14.46c-1 .51-2 1-3 1.4a18.71 18.71 0 0 0 -2.66-3.81c5.17-1.88 10.22-5.47 12.7-8.58h4.7a29.05 29.05 0 0 0 13.4 8.26 24.37 24.37 0 0 0 -2.95 4.05c-1-.38-1.94-.85-2.93-1.36v8.76l.48-.38zm-7.53-13.31a31.46 31.46 0 0 1 -6-4.82 30.4 30.4 0 0 1 -5.88 4.82h3.56v-2h4.76v2zm-11 4.61h10.07v-1.08h-10.09zm10.07 4.38v-1.14h-10.09v1.14zm-10.07 7.33c1.75-.12 3.59-.28 5.34-.41a18.09 18.09 0 0 1 -2.45-3.4h-2.89zm7.56-3.81a10.9 10.9 0 0 0 1.94 1.69c.95-.48 1.93-1.08 2.89-1.69zm28.87 3.5a28 28 0 0 1 -7.81 5.11 31.33 31.33 0 0 0 -3.43-3.15 20.66 20.66 0 0 0 7-3.58zm15.47-.83a10.44 10.44 0 0 0 -1.18-1.3c-2.79.06-5.68.16-8.48.22v7.24h-4.57v-7.14c-4.35.09-8.35.19-11.52.22l-.2-3.59c1.88 0 4 0 6.39-.06l.82-.45a57.44 57.44 0 0 0 -4.92-3.14l3-2.51c.44.22.95.51 1.46.76.54-.41 1.11-.89 1.65-1.36h-8.48v-3.43h11.75v-.77h-8.41v-3.2h8.41v-.76h-10v-3.27h10v-1.4h4.64v1.4h10.63v3.27h-10.61v.76h9.11v3.2h-9.11v.77h12v3.43h-9.75l3 1.62a88.66 88.66 0 0 1 -8 5l7.5-.13c-.7-.5-1.37-1-2-1.49l3.2-2.28a39.71 39.71 0 0 1 7.15 5.87zm-11.62-11.11c-1.56 1.17-3.18 2.35-4.58 3.2.48.29.89.58 1.3.86a65.37 65.37 0 0 0 5.75-4.06zm6.7 10.19a57.51 57.51 0 0 1 7 4.06l-3.62 2.54a57.67 57.67 0 0 0 -6.74-4.31z" fill="#40afc9"/></svg>