<svg viewBox="0 0 270 315" xmlns="http://www.w3.org/2000/svg"><circle cx="140.21" cy="136.55" fill="#febe10" r="110.5"/><g fill="#fff"><path d="m213.84 134-7.37-17.25-14.65 6.25 7.37 17.26a27.81 27.81 0 0 1 -27.43 38.74l1.45-12.2-22.57 17.78 17.78 22.58 1.46-12.29a43.78 43.78 0 0 0 44-60.83zm-50.05-50.73-10.93 5.63 27.37 8.75 8.77-27.37-11 5.72a43.78 43.78 0 0 0 -75-2.39l-10.2 15.72 13.39 8.67 10.17-15.8a27.82 27.82 0 0 1 47.43 1.07zm-78.42 82.53a27.54 27.54 0 0 1 .63-26.5l10.34 6.7-6.11-28.08-28.08 6.08 10.41 6.69a43.78 43.78 0 0 0 35.44 66.13l18.74.93.79-15.91-18.74-.93a27.59 27.59 0 0 1 -23.42-15.11z" stroke="#fff" stroke-linecap="round" stroke-linejoin="round" stroke-width="8"/><rect height="58.72" rx="12" width="110.76" x="84.83" y="228.98"/><path d="m184 290.12c-.56 0-.36.4-.45.48 1.02-.13.45-.6.45-.48zm8-3.93v.23a12.49 12.49 0 0 0 .69-1.15 11.3 11.3 0 0 1 -.69.92zm4.52-6.66c-.46.27-.64 1-.91 1.72a5.6 5.6 0 0 1 -1.13 2.15l-.27.09c0 .29 0 .58.06.88a12.18 12.18 0 0 0 1.36-2.55c.37-.88.61-1.72.89-2.29zm2.11-4.24c-.14.12-.2-.09-.21-.11s0 0 0 .17v.96a.81.81 0 0 1 .08-.2c.1-.18.11-.41.13-.82zm-.03.82c0 1 .26-.62 0 0zm-.15-3.61.25 1c.17-.21.2-1.11.32-.78-.13-1.02-.3-.81-.57-.22zm-.52-.95.11.52c.07-.07.09-.23-.11-.52zm.33 1.62-.22-1.1c-.12.14-.35.16.08.51-.21-.1-.01.12.14.59zm-.11.63c-.15.56-.25 1.29-.5.28.1 1.92.6 1.64.5-.28zm-2.24 5.14a6.31 6.31 0 0 1 -.42.71v.73a2.8 2.8 0 0 1 .33-.84c.12-.32.18-.54.09-.6zm2.91-12.71c-.15-.06-.4.34-.6.41l.18.75c.1-.39.2-1.11.42-1.16zm-.6.41-.26-1.11c-.03 1 .1 1.18.26 1.11zm-1.08 4.73.55 1.82-.56-2.18zm1.7-9.39.35.63-.53-1.12zm-.06-2.81c.29.46.49-.64.67-.15a6.88 6.88 0 0 0 -.52-2 4.59 4.59 0 0 1 -.15 2.15zm-.18-3.17a6.38 6.38 0 0 0 .33 1 4.27 4.27 0 0 0 -.33-1zm-.6 7.64a1.26 1.26 0 0 0 .43-.88l-.43.44z"/><path d="m198 263.22v-.94c.06.1.05.39 0 .94zm0 .53v-.11zm-.47 4.7c-.24-.65-.5-2-.86-.7.33.47.5-.28.86.7zm-.03-4.16-.1 1.18c.12 0 .28-.23.4.09z"/><path d="m197.37 263.71.13.58.04-.44zm.83-5.66a5.64 5.64 0 0 1 -.23-1.7 15.52 15.52 0 0 0 -.13 2c.16.13.37.42.36-.3zm-.12 2.51a.52.52 0 0 1 0-.11c-.08.07-.08.12 0 .11zm-.11-10.42-.08.1.08.02z"/><path d="m197.76 258.5a1.75 1.75 0 0 0 .15 1.1 11.43 11.43 0 0 1 -.07-1.21c-.06-.05-.1-.05-.08.11zm.64-4.21c-.09.27-.17.57-.24.88.14-.26.35-.78.24-.88zm-.23 5.98v.08c.11-.17.07-.15 0-.08zm0 0a3.12 3.12 0 0 0 -.26-.67 6.21 6.21 0 0 0 .15.85.78.78 0 0 1 .11-.18zm-2.94-12.01c.39.09.76 1.43.33 2.58.3 1.13 1.6.39 2.33-.6-.17 0-.33 0-.56-1.2-.22.41-.51 2.59-.87 1.6-.2-1.54.14-1.26.35-2-.49.63-.72-2-1.44-1.64l.25 1.36c-.11.02-.29-.48-.39-.1zm2.62 4.21.05.48a5.9 5.9 0 0 1 .54-1.67c-.2-.79-.34-1-.47-1l-.06 2.37z"/><path d="m197.9 255.1c-.43-.37-.61-1.53-1.08-.82 0 1.41.36 1 .55 1.83-.11-2.27.24.65.48-1a9.61 9.61 0 0 1 .12 1.23c.05-.41.11-.81.19-1.18v.05c0 .1-.09.13 0 0a.55.55 0 0 1 -.17-.11c.09-.66.12-.1.17.11h.06l-.32-2.21a13.44 13.44 0 0 0 0 2.1zm-2.16 11.44c0-.07.07-.07.1-.07-.05-.15-.09-.21-.1.07zm.26-.94a1.3 1.3 0 0 1 .19.84c-.13.47-.21 0-.35 0 .12.32.31 1.13.52.11l-.06-.16c.15-.92.69-2.09.75-1.93a3.14 3.14 0 0 0 -1.05 1.14zm.84-5.31-.21-1.9-.37 1h.22c-.09 1 .19.76.36.9zm1.34-10.36.46.25-.64-1.1zm-.05-2.47.4.09-.24-.65zm-110.92 1.78.11.55a3.7 3.7 0 0 0 -.11-.55zm.02-4.04-.19-.1c.1.19.18.26.19.1zm61.11-18.71c-.81-.37-1.72-.94-1.62-.49l.25.43a3.52 3.52 0 0 1 1.37.06zm-41.48 2.59.24.14.55-.42zm-.57 1.8-1.07-.28a5.46 5.46 0 0 0 1.07.28zm-18.62 40.4.44.65c-.01-1.02-.23-.57-.44-.65zm95.99-44.67a9.22 9.22 0 0 0 -1.76-.26c.85.25 1.51.65 1.76.26zm-101.06 21.04c.08.34.17.48.26.47-.07-.35-.15-.55-.26-.47zm97.27-21.3.37.1a8.66 8.66 0 0 1 1.66-.1 2.89 2.89 0 0 0 -2.03 0zm-26.34 58.88a1 1 0 0 1 .18.06c.02-.06-.06-.07-.18-.06zm23.29 4.38a9 9 0 0 1 -1 0 3.62 3.62 0 0 0 1 0zm20.88-52.8c.2.61.08.08 0 0zm-1.15 3.19c-.05-.12-.12-.21-.22-.21a.33.33 0 0 1 .22.21zm-21.89-10.95c.11.08.09.07 0 0zm23.1 8.74c0-.24 0-.52-.08-.82a6.84 6.84 0 0 0 .08.82zm.16-.17a5.16 5.16 0 0 1 .09.55c.07.07.14-.02-.09-.55zm-.53-1.62a4.33 4.33 0 0 1 .29 1v-.16a7 7 0 0 0 -.29-.84zm-86.7 50.39.11.05c.53-.18.29-.16-.11-.05zm24.04-55.39a.11.11 0 0 1 .06 0h-.08zm-1.88.32a2.07 2.07 0 0 1 1.86-.36l-.62-1.25z"/><path d="m87.33 258.9.39-1.32c.64 1.59.42 2.75 1 1.51-1.36-.19-.14-5.13-1.5-5.31l.29-.87c0 .25.06.29 0 .53.65-1.69-1-1.25-.79-3.43.11-.76.3-1.29.47-.77l-.34-1.7c0-.49.26-.37.24.12l-.09-2.58a11.47 11.47 0 0 1 -.69-1.61c.2-.66.15.33.32.16l-.33-1.43c.35-.58.69.6.64 1.59.68-.67.59-1 .44-1.45a3.08 3.08 0 0 1 .06-2.34l.12 1.07a2.09 2.09 0 0 0 .66-1.09 3.7 3.7 0 0 1 .64-1.27 8.12 8.12 0 0 0 -.94.86c-.37.34-.74.55-.8-.1a2.86 2.86 0 0 0 .21-1.5c.23.07.38-.06.5-.3s.21-.59.39-1l.55.34c.2-.83-.06-.92 0-1.53a1.29 1.29 0 0 1 1.63-.47c.52-.5.23-.45-.1-.45s-.67 0 0-.73c1.15-.68 1.71-1.4 3.11-2.36 1-.13 0 .42.36.48a6.31 6.31 0 0 1 .64-.73c.21 0 .18.13.16.22.65-.37-.1-.65 1-1 .13-.39.75-.15 1.56.07a4 4 0 0 0 2.71.08c.41.18-.2.39-.08.64a18.71 18.71 0 0 0 3.85-1.09l1.6.42c-1.18-.48.32-1 1.64-1.52-.42-.23-.77-.43-1-.53l2.1-.34c.25.1 0 .32-.3.59a3.77 3.77 0 0 0 .38-.15c.75.23.36.6-.17 1l-.76-.39c-.52.38-1 .81-.9 1.19a2.22 2.22 0 0 1 .69-.17c-.14.1-.22.2-.16.26s.29-.07.64-.24l.47.72.12-.29 2.75.45c2-.72 3.68-1.78 6.8-2.07-.77.52-.17.85-.21 1.47-.85-.65-2.42.28-4 .15.85.07.66.36.45.47l2.88-.6c-.06.51.62.38 1.37.59-.57-1 2.15-.67 3.33-1 .07.34-.21.68-1.64.6 1.58.76 2-1.17 3.59-.53-.35 0-.54-.05-.68.13.82-.3 2.82-.07 2.35.23h-.35c2.32.12 7.07 0 7.42-.84a4.37 4.37 0 0 1 -.45 1.2l4.15-2.87c-.37.74 1 2.48-.89 2.89a5.47 5.47 0 0 0 2.4 0c-.38-.11-.94-1.06-.43-1.13a12 12 0 0 0 2.73 1.13c-.56-.16.06-1.3 1-1.26-.14.17.07 1.13-.26 1.25l2.23-1.13c-.56.2-.1.95.4 1.27-.23-.22 1.92 0 2.51-.09l-.94-.26c2.51.17 2.48-1.58 5-1.52-.3.23-.74 1.43.53 1.57.58-.58 2.57-2.77 4.77-3.21l.42.32 1.7-.37a33.82 33.82 0 0 1 -5.63 3.4c.94.26.27.39 1.67.36.5.31-.76.47-1.18.48l3.28.2c-.15-.67 2.5-.67 2.38-1.23l-3.56.7c-.14-.68 2.06-1.91 4.38-1.79.59.26-.44 1.19-.39 1.42a5.27 5.27 0 0 1 2.41-.28l-1 .36c1.29.25 2.11-.89 3.66-.25.54 0 1.6.86 1.69.47-.87-.77-1-3.14-.46-3.72a23.24 23.24 0 0 1 3.43 1.11c.88.6-1.33 1.44-.58 1.95 0-.18.52-.41.73-.48.56.16-.24.57 1 .49.2-.69 2.49 0 .58-.58 1.19-.2 1.27.14 2.67.11-.44-.44 1.27-1.5 2.46-1.69-.07.17.2.4.33.5 2.46.06 3.77.37 6.06.38.21.16 1.31.36.84.65a3.11 3.11 0 0 1 1.34-.36c1.37.58-1.57.09-.53.8 0-.2.5-.34 1.07-.46s1.17-.2 1.65-.23c-.2-.71-2.21-.24-3.22 0 0-.42.43-.85 1.17-1.23a6.57 6.57 0 0 1 3.2-.62c2.1.32.73.75 1.11.73a11.8 11.8 0 0 0 1.18.4 7.48 7.48 0 0 0 .9.28c.55.11.95.21 1.37.26a3.64 3.64 0 0 1 2.58 1.77c.5 1.34-.74.78-.82 1.26-1.23-1-1.57-1.91-2.54-2.47l.51.46.46.5a6.82 6.82 0 0 1 -1.88-1c.33.43 1.64 1.17 2.84 2.4a9.16 9.16 0 0 1 2.46 4.25c.17.19.37.47.53.65s.28.26.33 0c-.1-.28-.24-.54-.36-.81.12-.95 1.13 1.42 1 .26a9.25 9.25 0 0 1 .94 1.89 5.37 5.37 0 0 1 .24 2.45l-.61.31c.09 0 .18-.29.23-.61a2.27 2.27 0 0 0 -.1-1c.35.8-.79 2.58 0 3.35l.43-1.16c.3 1.18 1 2.63.76 4.09.61-.67-.07-.34.64-1.38-.88.9 0-3.73-.89-2.28a2.87 2.87 0 0 0 .57-1.5 13.46 13.46 0 0 1 .34-2.12c-.19.08-.29.65-.42-.85a1.74 1.74 0 0 1 -.24-.28.38.38 0 0 1 0-.1.22.22 0 0 0 0 .08c0-.05-.05-.06 0 0a1.58 1.58 0 0 1 -.17.8 8.53 8.53 0 0 1 -.83-1.71 7 7 0 0 0 -.91-1.63c-.27-.78.37.22.36-.28a9.41 9.41 0 0 0 -.83-.84c.35-.29-.58-2.34.73-.73a12.33 12.33 0 0 0 -1-1.55 6.74 6.74 0 0 0 -1.05-1.55 4.9 4.9 0 0 0 -1.36-1.07c-.65-.66-2.14-.83-1.29-.73a13.15 13.15 0 0 0 -2.73-1.05v-.11a11 11 0 0 0 -4.36-.65h-2a8.46 8.46 0 0 1 -2-.34 11.11 11.11 0 0 1 -3 .12l-.26-.38c-1 .13-3.1-.39-3.54 0-1.11-1-5-.23-6.81-.41l-.07.51a24.85 24.85 0 0 0 -4 .32l.1.44c-1.34.37-3.43-.32-5.55-.27.15-.17.68-.13 1.06 0-2.52-1-5.32.73-7.61 0a2.38 2.38 0 0 1 -1.38 0h.14-.23l-.79-.24a3.37 3.37 0 0 0 .66.24 13.42 13.42 0 0 0 -1.76.18l-.27-.48h-.16c-.64-.17-.51.23-.17.59a4.54 4.54 0 0 0 -.86.29c-.52-.77-1.72.27-2.43-.56-.44.4-3.28.3-3.63 1.15 0-.11-.22-.16.14-.17a4.41 4.41 0 0 0 -2.11 0l-.31-.62-1.59.83c-1-.38-1.37-.59-.41-1.06-2.32.72-1.88.27-3.85 1l.1-.4c-.71 0-1.84.55-2.26.22-1.58-.75-7.8-.1-11.84-.8.78 1.16-1.88-.53-2 .38-.24-.28-.8-.43-.14-.67-2.07.27-3.11-.44-4.53.32-.24-.28.44-.4.23-.57-.16.06-.65.24-.87.08s.3-.23.63-.35c-2.11 0-2.32.89-2.48 1.69a2.21 2.21 0 0 0 -2.37.2c-.37-.26-1-.53.32-.63-.74 0-4.5-.38-4.58.26a2.1 2.1 0 0 0 -1.22 0c-1.66 0-1.8-.1-3.43 0l.45.1a1.14 1.14 0 0 1 -1.1.41 4.94 4.94 0 0 0 -1.7 0v-.08a4 4 0 0 0 -2.31.42 11.69 11.69 0 0 1 -2.22.77l.38.33c.13.55-.55.7-1.39 1.06a4.47 4.47 0 0 0 -2.38 1.74l.66-.32a1.39 1.39 0 0 1 -.65.61 10 10 0 0 1 -1 .53 4.6 4.6 0 0 0 -2.07 1.39c-.18.18 0-.43.16-.76-1 1.19-.85 1.39-.63 1.48s.56.15.27 1.17c-.44.28-.67-.8-1.16.64a2.16 2.16 0 0 0 -.21 1 15.75 15.75 0 0 0 .09 1.72c.08.63.15 1.3.19 1.78a3.56 3.56 0 0 1 -.16 1.45c.26-.37.52-.74.71.12.1 1.3-1 3.54-.16 4.72-.07.16-.14.23-.21.23.22 1 .36 3.26.8 3.86-1.65.92.81 6.22-.72 6.2l.08 3.08-.15-.08a5.33 5.33 0 0 0 .63 3.35c-.1.46-.25.13-.33.09a9.6 9.6 0 0 0 .52 5.57l-.49.25a10 10 0 0 1 -.21 2.68c-.08.65-.15 1.38-.17 2.11a7.56 7.56 0 0 0 .07 1.21 4.57 4.57 0 0 0 .26 1.23c-.06 0-.17-.07-.27-.32a31.58 31.58 0 0 0 1.74 5.76c.86 1.78 2.11 3.05 3.21 2.79a8.91 8.91 0 0 0 1 .57 7 7 0 0 0 1.09.46c-1.22-.86-1-1-.59-1s.93.11.55-.34a5.74 5.74 0 0 1 1.28 1.06c.29.32.31.53-.34.27l-.15-.18c-.46.28.3.81 1.2 1.23s1.92.65 1.81 1a21 21 0 0 0 4.32.42l3.91.17c2.59.13 5.14.27 7.63.29l-.57-.73h1.74c.46.17.61.58-.63.55.66.41 2.09-.35 2.12-.51 2.43.3-1 .85-.2.87l1-.06-.23-.08a4.1 4.1 0 0 1 2.39-.58c.94.15.48.45.86.48 0 .05.12.08.57 0l2.19.06-.88-.57c1-.29 2.07 0 1.05-.63 1.49 1 8.19.36 9.1.68a13.09 13.09 0 0 1 4.38-.37c-.42-.12-.67-.77.77-.69-.53 1.34 2.63.59 3.79 1.55-1-.64 4.09-.16 2.46-1.07 1.2.11.07.51 1 .82 2.85-.52 6.29.34 9.82.16.05-.17-.54-.44.22-.7l1.86.88c.69-.09.64-1 1.91-.41-.18-.15-.45-.37 0-.43 6.91.86 14.12-.7 21.14.91-1-.34-.32-.37.4-.39-.47-.08 0-.43-.08-.67l2.94.66c.54-.66 3.15 0 3.46-.67l-.93.11c1.23-.75-1.73-1.66-1.55-2.62-1.39.85-3.66-1.25-5.93 0-.5-.19.43-.31.16-.53a3.28 3.28 0 0 1 -2.56.31l.15-.1c-3.63.1-5.18-.3-9.25-.57l.3.47a4.56 4.56 0 0 1 -1.47-.33c-1 .72 2.46 0 1.55.83-1.16-1-6.17 0-7-1.11-1.35 0 .39.55-.95.54l-.36-.29-.34.38c-.88-.06-1.33-.43-1.36-.68a6.39 6.39 0 0 0 .84-.1c-1.15-.35-3.23.12-3.62 0l1.29.18c-3.67.28-8.15-.11-11.7.49l.27.23c-2.71.41-2.17-.25-5.14-.06l.11-.05a6.22 6.22 0 0 1 -2.21.31c.75-.26-1.41-.51-.42-.8-2.94.44-1.46.35-3.4 1.18l-.44-.37a3.85 3.85 0 0 1 -2.21.61c1.22-.32-.94-.57.42-1-3.12-.81-4.63.82-6.06-.37-1.43 1 2.7.57 1.9.79.67.34-1.18.77-2.16.67s-1.69-1.32-4.2-1.3c.25 0 .27-.07.52-.06-.94-.27-1.84.35-3-.08-.64.62-1.49 0-1.68.76l2.3-.18c-1.3.2-2.52 1.13-4.67.68a4.37 4.37 0 0 1 1.25-.49c-.63-.23-1.21.16-1.86-.08.18-.79 2.79-.17 4.18-.78-.67-.33-2.63.58-1.93-.28-1 1.09-2.47-.14-4.17.69l.11-.47a4.66 4.66 0 0 1 -1.31.29l.89-.62c-1.37.53-2.65-.46-4-.17 2.75 0 .62.57 1.78.92-3.4.63-2-1.25-5.76-1 .51-.06 1.93.29 1.13.51a7.53 7.53 0 0 1 -2.13-.53 3.19 3.19 0 0 0 -1 .11c-.07.05 0 .12.11.2s.73.32.18.47c-.74-.62-1 .22-2 .24l.08-.48c-1.11-.4-1.31-.24-1.52-.06a.51.51 0 0 1 -.39.19 1.77 1.77 0 0 1 -1-.45 7 7 0 0 0 1.12-.23 8.7 8.7 0 0 1 -1.08-.3l.45-.39a3 3 0 0 1 -2.27-1.39c0 .42-.74.59-1.5-.26-.25-.76.6 0-.38-1.13.48.09.92.17 1 .92.16-.06.44 0 .59 0a11.84 11.84 0 0 0 -1.36-1.91 1.76 1.76 0 0 1 .2.53 9.34 9.34 0 0 1 -1.56-1.58c0-.39.28-.18.5 0-.18-.38-.53-.58-.72-1.2a1.22 1.22 0 0 1 1.23.65 5.27 5.27 0 0 1 -.48-.83 6 6 0 0 1 -.4-.9c.12-.16.38-1 .54-.78a9 9 0 0 0 -.29-2.25 7.89 7.89 0 0 1 -.2-2.78 1.4 1.4 0 0 1 -.21-.67c.09-1.73.57-3.25 0-5.29l.7-1.16c-.16-1.6-.89 1.57-1.15-1.09-.23-1.89.6-.71.79-1.37a6.32 6.32 0 0 1 -.5-4.3 10.52 10.52 0 0 1 .32 1.57zm-.19-19.38c0 .33.32.95 0 1.16-.5-.37-.26-.68 0-1.16zm22.62-9.52a1.58 1.58 0 0 1 -1.22-.1 3.3 3.3 0 0 1 1.22.1zm84.15 1.06c-.65-.85-.43-.56 0 .01zm1.17 1.74c.18.13.23.08.23 0-.19-.05-.47-.42-.77-.86 0 .17.08.44.54.87zm-78.81 56.83-.34-.12c.78-.13.56-.01.34.13z"/><path d="m106.37 230.67a.45.45 0 0 1 -.17-.26c-.15.08-.15.17.17.26zm-18.79 40.49v.06l.09.06zm80.03-40.16a1.92 1.92 0 0 1 -.71-.25c-.02.07.15.17.71.25zm30.93 12-.13-1.13a2.34 2.34 0 0 1 -.16 1c.12-.06.28-.27.29.13zm-2.99 9.79c.06.16 0 .35.07.51h.22c-.01-.75-.19-1.24-.29-.51zm1.38-8.79c-.4.09-.26.8-.19 1.59v-.14c.57.24.38-.61.19-1.45zm-.18 1.78a4.45 4.45 0 0 1 0 .73c.25.1.06-.3 0-.73zm-.1-10.78c.1.45.61 0 .55.35.35.14-.11-.52-.51-.9s-.69-.52-.04.55zm-1.05 9.64.5-.28-.41-.45zm.06-6.33c.06.44.06.88.08 1.31.09 0 .16.13.2.33-.06-.8-.12-1.7-.28-1.64zm.28 1.69a3.91 3.91 0 0 0 .14 1.05 8.28 8.28 0 0 0 -.14-1.05zm-.49 2.91.1-.38.04-.89zm-9.19-14.1c-.48-.05-1-.06-1.44-.09-.15.16.21.31.73.32.36-.04.89-.04.71-.23zm3.26 2.82a1.29 1.29 0 0 1 -.3-.63l-.34.52zm-3.46-1.3c-.17.09-1.84.2-.31.39.14-.14 1.4.03.31-.39zm-20.59-1.08.35-.01-.05-1.02zm-18.39 2.44c1.64.24.39-.63 1.87-.33.39-.24-1.21-.25-.82-.45-.99.25-1.51.09-1.05.78zm1.05-.78a4.2 4.2 0 0 0 .51-.16 1.76 1.76 0 0 0 -.51.16zm32.56 59.25 1.05.21-.68-.34zm2.02-.76.25.65.63-.59c-.23.03-.7.09-.88-.06zm-93.71-51.67-.12-.11c-.2 0-.27.21-.42.54zm-1.16 12.83.01-.24-.58.46zm.75 12.01c0-.49-.11-1.06-.08-1.55.1 1.06-.65 1.69.08 1.55z"/></g><path d="m135.52 242.4v29.21h-5.05v-1.71h-17.81v1.71h-4.8v-29.21zm-5.05 23.21v-18.48h-17.81v18.48zm-2.22-15.43v12.48h-13.4v-12.48zm-4.64 4h-4.41v4.51h4.41zm46.46-2.82a34.19 34.19 0 0 1 -4.23 11.49 17.4 17.4 0 0 0 6.32 4.7 17.47 17.47 0 0 0 -3.17 4 19.31 19.31 0 0 1 -6.13-4.82 23.58 23.58 0 0 1 -7 4.95 19.22 19.22 0 0 0 -2.22-3.78v3.65h-4.51v-7.87l-6.26 2-1.61-4.7c.57-.1 1.2-.23 1.87-.38v-15.44h4.41v14.48l1.59-.35v-17.59h4.51v10.7a28.31 28.31 0 0 0 4.29-11l4.73.92c-.35 1.59-.76 3.14-1.24 4.67h10.41v4.35zm-16.42 16a18.4 18.4 0 0 0 6.51-4.51 34.45 34.45 0 0 1 -2.86-7.08 17.82 17.82 0 0 1 -1.52 1.9 25.41 25.41 0 0 0 -2.13-2.25zm6.89-16a33.34 33.34 0 0 0 2.51 7.17 28.33 28.33 0 0 0 2.28-7.17z" fill="#40afc9"/></svg>