<svg viewBox="0 0 261 315" xmlns="http://www.w3.org/2000/svg"><circle cx="129.75" cy="136.89" fill="#febe10" r="111.19"/><path d="m28.46 92.01 203.38 89.22" fill="none" stroke="#fff" stroke-miterlimit="10" stroke-width="11"/><g fill="#fff"><path d="m144.16 82.27c.32-4.89.62-9.78 1-14.67.16-2.33.22-4.69.59-7 .32-1.92 1.13-3.84 3.55-3.7s3.11 2 3.35 4a38.89 38.89 0 0 1 .09 5.4c-.05 4.06-.2 8.12-.16 12.17a49.26 49.26 0 0 0 .6 5.52h.88a41.57 41.57 0 0 0 .7-5.4c0-4.69-.25-9.38-.3-14.06a11.76 11.76 0 0 1 .54-4.73c.54-1.2 2-2.71 3.09-2.73s2.65 1.46 3.11 2.63a19.79 19.79 0 0 1 .85 5.84c.39 5.84.69 11.68 1 17.52h.77q.38-9.24.74-18.49c.06-1.44-.16-3 .36-4.26a4.45 4.45 0 0 1 2.72-2.51c.89-.16 2.39.85 3 1.76a9.27 9.27 0 0 1 1.36 4.34c.5 7.89 1.16 15.8 1.16 23.7a21.25 21.25 0 0 1 -9.41 18 10.14 10.14 0 0 0 -3.53 3.45c-1.75 3.14-1.84 6.91-1.88 10.51-.24 19.48 4.14 38.86 4.14 58.3.64 7.17 2.12 14.27 2.91 21.43.87 7.79-2.81 14.76-9 17.15a7.87 7.87 0 0 1 -5.37 0c-6.08-2.63-9.06-7.73-9.06-14.15 0-4.92 1-9.85 1.48-14.77 1.1-10.21 2.36-20.41 3.26-30.64.87-9.85 2.2-19.94 2.54-29.76.22-6.29.36-15.88-4.5-20.66s-9.62-8-10.2-15.58c-.56-7.41-.09-14.91.11-22.37a36.56 36.56 0 0 1 1.13-6.93c.45-2 1.45-4 3.85-3.83 2.67.17 3.09 2.54 3.19 4.62.18 3.77 0 7.56.14 11.34.1 2.85.45 5.69.69 8.54z"/><path d="m124.29 89.63c0 6.53-1.93 12.6-6.76 17.17-1.2 1.13-2.88 2.1-3.85 3.45-1.17 1.63-1.3 4-1.8 6-2.42 9.62-1.61 18.73-.84 28.47.91 11.41 1.8 22.82 2.8 34.22.63 7.08 2 14.09 2.81 21.16a15.73 15.73 0 0 1 -5.14 13.9c-4.19 3.84-8.3 3.86-12.48.05a14.79 14.79 0 0 1 -5.2-11.48c.07-3.86.57-7.72 1-11.57 1-9.49 2.33-19 3.18-28.47.77-8.63 1.44-17.27 2.1-25.91.58-7.57 2.41-16.13-.62-23.41-1.62-3.87-6.16-5.45-8.74-8.92-5-6.72-5.22-15.36-3.9-23.31a44 44 0 0 1 6.43-16.52 13.94 13.94 0 0 1 23.72-.27c4.93 7.47 7.21 15.66 7.29 25.44z" stroke="#fff" stroke-linecap="round" stroke-linejoin="round" stroke-width="8"/><rect height="58.72" rx="12" width="110.76" x="74.37" y="229.33"/><path d="m173.58 290.47c-.57 0-.36.4-.45.48.97-.14.41-.59.45-.48zm8-3.93v.23a11.42 11.42 0 0 0 .69-1.16c-.27.31-.45.64-.69.93zm4.48-6.66c-.46.27-.64.95-.92 1.72a5.58 5.58 0 0 1 -1.12 2.15l-.27.09c0 .28.05.58.06.87a12.32 12.32 0 0 0 1.36-2.54c.37-.88.61-1.72.89-2.29zm2.11-4.24c-.14.12-.2-.09-.21-.11a1.34 1.34 0 0 1 0 .17v.96c0-.11.06-.14.08-.2s.11-.46.13-.82zm-.04.82c0 1 .27-.63 0 0zm-.13-3.61.25 1c.16-.21.2-1.1.32-.77-.15-1.03-.31-.82-.57-.23zm-.53-.96.1.53c.07-.1.1-.23-.1-.53zm.33 1.63-.23-1.1c-.11.14-.34.16.08.5-.21-.09 0 .13.15.6zm-.11.63c-.16.56-.26 1.29-.5.28.1 1.93.6 1.64.5-.28zm-2.24 5.14a6.17 6.17 0 0 1 -.42.7v.73a2.76 2.76 0 0 1 .33-.83c.11-.32.2-.6.09-.6zm2.91-12.71c-.15-.06-.4.34-.6.41l.18.75c.06-.39.2-1.11.42-1.16zm-.6.42-.26-1.11c-.03.98.09 1.17.26 1.11zm-1.08 4.71.54 1.83-.55-2.18zm1.7-9.38.35.63-.53-1.12zm-.06-2.82c.29.47.49-.64.67-.14a6.58 6.58 0 0 0 -.53-2 4.4 4.4 0 0 1 -.14 2.14zm-.18-3.14a8.05 8.05 0 0 0 .32 1 3.81 3.81 0 0 0 -.32-1zm-.56 7.63a1.29 1.29 0 0 0 .43-.88l-.43.44zm-.01-.44v-.95c.03.11.02.39 0 .95zm0 .54a.41.41 0 0 1 0-.11c-.04.01-.05.06 0 .11zm-.51 4.7c-.23-.65-.49-2-.86-.7.3.47.5-.28.86.7zm-.06-4.16-.1 1.18c.11 0 .28-.24.4.09zm-.1-.58.14.58.04-.44zm.84-5.66a5.63 5.63 0 0 1 -.24-1.7 15.51 15.51 0 0 0 -.12 2c.13.13.37.42.36-.3zm-.12 2.51v-.12c-.06.07-.08.13 0 .12zm-.11-10.42-.08.1.07.02z"/><path d="m187.3 258.85a1.68 1.68 0 0 0 .15 1.1 11.43 11.43 0 0 1 -.07-1.21c-.07-.05-.11-.05-.08.11zm.64-4.21c-.09.27-.17.57-.24.88.14-.26.35-.79.24-.88zm-.23 5.98v.08c.11-.17.07-.15 0-.08zm0 0a3.74 3.74 0 0 0 -.26-.67 5.87 5.87 0 0 0 .14.84 1 1 0 0 1 .12-.17zm-2.95-12.01c.4.09.77 1.42.34 2.58.3 1.13 1.6.39 2.33-.6-.17 0-.33 0-.57-1.2-.21.41-.5 2.59-.86 1.6-.21-1.54.14-1.26.35-2-.5.64-.72-2-1.45-1.63l.26 1.36c-.11 0-.29-.49-.4-.11zm2.63 4.2.05.48a5.85 5.85 0 0 1 .54-1.66c-.2-.8-.35-1-.48-1l-.05 2.37z"/><path d="m187.44 255.45c-.43-.37-.61-1.53-1.08-.82 0 1.41.36 1 .55 1.83-.11-2.28.24.65.48-1a9.49 9.49 0 0 1 .11 1.23c.06-.41.12-.81.2-1.18-.06.1-.09.13-.06 0a.31.31 0 0 1 -.16-.1c.09-.66.11-.1.16.1h.07l-.23-2.28a13.59 13.59 0 0 0 -.04 2.22zm-2.16 11.44a.13.13 0 0 1 .1-.08c-.05-.14-.09-.2-.1.08zm.26-.89a1.28 1.28 0 0 1 .19.84c-.13.47-.21 0-.35 0 .11.33.31 1.14.52.12l-.06-.16c.15-.92.68-2.1.74-1.94a3.26 3.26 0 0 0 -1.04 1.14zm.84-5.37-.21-1.89-.38 1 .23-.05c-.09 1.04.19.81.36.94zm1.34-10.36.46.25-.65-1.09zm-.05-2.46.39.09-.24-.65zm-110.93 1.77.11.56a3 3 0 0 0 -.11-.56zm.03-4.03-.2-.1c.11.18.19.26.2.1zm61.11-18.71c-.82-.37-1.72-.94-1.63-.5l.25.44a3.56 3.56 0 0 1 1.38.06zm-41.48 2.59.24.13.54-.41zm-.57 1.8-1.08-.23a5.81 5.81 0 0 0 1.08.23zm-18.63 40.4.44.65c0-1.02-.22-.57-.44-.65zm95.99-44.63a8.3 8.3 0 0 0 -1.76-.26c.85.26 1.57.58 1.76.26zm-101.05 21c.08.34.17.48.26.47-.07-.35-.16-.55-.26-.47zm97.27-21.3.37.1a8.56 8.56 0 0 1 1.65-.1 2.87 2.87 0 0 0 -2.02 0zm-26.35 58.88.19.05c.01-.06-.07-.06-.19-.05zm23.3 4.42a9 9 0 0 1 -1 0 3.62 3.62 0 0 0 1 0zm20.88-52.84c.19.61.07.08 0 0zm-1.15 3.19c-.05-.11-.12-.2-.22-.2a.34.34 0 0 1 .22.2zm-21.89-10.95c.11.08.08.06 0 0zm23.09 8.74a5 5 0 0 0 -.08-.82c0 .13.03.38.08.82zm.17-.14a4.69 4.69 0 0 1 .08.56c.08.03.14-.06-.08-.56zm-.53-1.68a4.16 4.16 0 0 1 .28 1v-.16a7 7 0 0 0 -.28-.84zm-86.71 50.42h.12c.52-.14.29-.11-.12 0zm24.04-55.39h.06-.07zm-1.88.32a2.1 2.1 0 0 1 1.87-.36l-.63-1.25z"/><path d="m76.87 259.25.39-1.32c.64 1.59.42 2.74 1 1.51-1.36-.19-.14-5.13-1.5-5.32l.29-.86c0 .24.06.28 0 .53.65-1.69-1-1.26-.79-3.43.1-.76.3-1.29.46-.78l-.33-1.69c0-.49.26-.37.23.12l-.11-2.58a12.73 12.73 0 0 1 -.68-1.61c.2-.66.15.33.32.16l-.33-1.43c.35-.58.69.6.64 1.59.68-.67.59-1 .44-1.45a3 3 0 0 1 .06-2.35l.12 1.08a2.16 2.16 0 0 0 .66-1.09 3.56 3.56 0 0 1 .64-1.28 9.6 9.6 0 0 0 -.94.87c-.38.34-.74.55-.81-.1a2.74 2.74 0 0 0 .22-1.5c.23.07.38-.06.49-.3s.22-.59.4-1l.55.33c.2-.82-.07-.91 0-1.53a1.28 1.28 0 0 1 1.63-.46c.52-.5.23-.45-.1-.45s-.67 0 0-.73c1.15-.68 1.71-1.41 3.11-2.37 1-.12 0 .43.35.48a8.8 8.8 0 0 1 .65-.72c.2 0 .17.13.16.22.64-.37-.1-.65 1-1 .13-.39.74-.16 1.55.07a4 4 0 0 0 2.71.08c.41.18-.2.39-.07.64a19.25 19.25 0 0 0 3.84-1.09l1.6.42c-1.17-.48.33-1 1.65-1.52-.42-.23-.78-.43-1-.53l2.11-.34c.25.1 0 .32-.31.59l.39-.15c.75.23.36.6-.18 1l-.75-.4c-.52.39-1 .82-.9 1.2a2.18 2.18 0 0 1 .69-.18c-.14.11-.22.2-.16.27s.29-.08.63-.24l.48.71.12-.28 2.75.45c2-.72 3.67-1.78 6.8-2.07-.78.52-.17.85-.21 1.47-.85-.65-2.42.28-4 .15.85.07.66.36.45.46l2.88-.59c-.06.5.61.38 1.37.59-.57-1 2.15-.67 3.32-1 .08.34-.2.68-1.64.6 1.58.76 2-1.17 3.6-.53-.35 0-.54-.05-.68.12.82-.3 2.82-.06 2.35.23h-.35c2.32.12 7.07 0 7.41-.84a4 4 0 0 1 -.44 1.2l4.14-2.87c-.36.73 1 2.47-.89 2.89a5.4 5.4 0 0 0 2.41 0c-.38-.1-.94-1-.43-1.12a12.27 12.27 0 0 0 2.67 1.12c-.57-.16.06-1.3.95-1.27-.14.18.08 1.13-.25 1.25l2.23-1.12c-.56.2-.1 1 .4 1.27-.24-.22 1.92 0 2.51-.09l-.94-.26c2.51.17 2.48-1.58 5-1.52-.3.23-.74 1.43.52 1.57.58-.58 2.57-2.77 4.78-3.22l.42.33 1.69-.37a34.39 34.39 0 0 1 -5.62 3.4c.94.26.26.39 1.67.36.5.3-.77.46-1.18.48l3.28.2c-.15-.67 2.5-.67 2.38-1.23l-3.56.69c-.15-.67 2.05-1.9 4.38-1.79.59.27-.45 1.2-.4 1.43a5 5 0 0 1 2.42-.28l-1 .36c1.3.25 2.11-.89 3.67-.25.53 0 1.6.86 1.69.47-.87-.77-1-3.15-.46-3.72a23.63 23.63 0 0 1 3.42 1.11c.88.6-1.33 1.43-.58 2 0-.18.52-.41.72-.48.57.16-.23.57 1 .48.21-.68 2.49.06.58-.57 1.2-.2 1.28.14 2.68.11-.45-.44 1.26-1.5 2.46-1.7-.07.18.2.4.33.51 2.45.06 3.77.37 6.06.37.21.17 1.31.37.84.66a3.19 3.19 0 0 1 1.34-.37c1.36.59-1.57.1-.53.8 0-.19.5-.33 1.07-.45s1.17-.2 1.65-.23c-.2-.71-2.21-.24-3.22 0 0-.42.43-.85 1.17-1.23a6.54 6.54 0 0 1 3.2-.62c2.1.32.73.75 1.11.72a10.49 10.49 0 0 0 1.17.41 7.85 7.85 0 0 0 .9.27c.55.11 1 .22 1.37.27a3.6 3.6 0 0 1 2.59 1.77c.49 1.34-.74.77-.83 1.26-1.22-1-1.56-1.91-2.53-2.47l.5.46.46.5a6.91 6.91 0 0 1 -1.87-1c.33.43 1.64 1.17 2.84 2.4a9.16 9.16 0 0 1 2.46 4.25c.16.19.37.47.53.65s.27.26.33 0c-.1-.28-.25-.54-.37-.81.13-.95 1.14 1.42.95.26a8.13 8.13 0 0 1 .94 1.89 5.24 5.24 0 0 1 .25 2.45l-.57.34c.09 0 .18-.29.22-.61a2.28 2.28 0 0 0 -.09-1c.34.8-.79 2.58 0 3.35l.42-1.16c.31 1.18 1 2.63.77 4.08.6-.66-.07-.33.64-1.37-.88.9 0-3.73-.89-2.29a2.81 2.81 0 0 0 .57-1.49 12.37 12.37 0 0 1 .34-2.12c-.2.08-.29.65-.43-.85-.06-.06-.17-.2-.24-.28a.31.31 0 0 0 0-.1v.08c0-.05 0-.06 0 0a1.54 1.54 0 0 1 -.17.79 8.14 8.14 0 0 1 -.83-1.7 6.57 6.57 0 0 0 -.91-1.63c-.27-.78.36.21.36-.28a9.51 9.51 0 0 0 -.84-.84c.36-.3-.57-2.34.74-.73a13.52 13.52 0 0 0 -1-1.55 6.74 6.74 0 0 0 -1-1.55 5.49 5.49 0 0 0 -1.36-1.08c-.65-.65-2.14-.82-1.29-.72a13.15 13.15 0 0 0 -2.73-1.05v-.11a10.88 10.88 0 0 0 -4.35-.65h-2a9 9 0 0 1 -2-.34 11.11 11.11 0 0 1 -3 .12l-.27-.39c-1 .14-3.09-.38-3.53 0-1.11-1-5-.23-6.81-.41l-.07.5a27.29 27.29 0 0 0 -4 .32l.09.45c-1.33.37-3.43-.32-5.54-.27.15-.17.68-.13 1.06 0-2.52-1-5.32.73-7.61 0a2.3 2.3 0 0 1 -1.38 0h.14-.23c-.25-.08-.51-.17-.79-.24a3 3 0 0 0 .66.24 13.42 13.42 0 0 0 -1.76.18l-.28-.48h-.15c-.64-.18-.51.23-.17.59a4.92 4.92 0 0 0 -.87.29c-.52-.78-1.71.26-2.42-.57-.44.41-3.29.31-3.63 1.16 0-.11-.22-.16.13-.17a4.41 4.41 0 0 0 -2.11 0l-.31-.62-1.59.83c-1-.38-1.36-.59-.4-1.06-2.32.72-1.88.27-3.85 1l.09-.4c-.7 0-1.83.55-2.25.22-1.58-.75-7.8-.11-11.84-.8.78 1.16-1.88-.53-2 .38-.24-.28-.8-.43-.15-.67-2.06.27-3.1-.44-4.52.32-.24-.28.44-.4.23-.57-.17.06-.66.24-.87.08s.3-.23.63-.35c-2.11 0-2.33.89-2.48 1.69a2.19 2.19 0 0 0 -2.37.2c-.37-.26-1-.54.32-.63-.74 0-4.51-.38-4.58.26a2.23 2.23 0 0 0 -1.23 0c-1.65 0-1.8-.09-3.42 0l.45.1a1.17 1.17 0 0 1 -1.1.41 4.94 4.94 0 0 0 -1.7 0v-.09a4 4 0 0 0 -2.3.43 12 12 0 0 1 -2.22.77l.38.33c.13.55-.55.7-1.39 1.06a4.51 4.51 0 0 0 -2.38 1.73l.66-.31a1.39 1.39 0 0 1 -.65.61 11.35 11.35 0 0 1 -1 .53 4.76 4.76 0 0 0 -1.87 1.28c-.18.19 0-.42.16-.75-1 1.19-.84 1.39-.62 1.47s.56.16.27 1.18c-.44.28-.67-.8-1.17.64a2.29 2.29 0 0 0 -.2 1 15.75 15.75 0 0 0 .09 1.72c.07.63.14 1.29.19 1.78a3.56 3.56 0 0 1 -.17 1.45c.26-.37.52-.74.72.11.09 1.31-1 3.54-.16 4.73-.07.16-.14.23-.21.23.21 1 .35 3.26.8 3.86-1.66.92.81 6.22-.72 6.2l.08 3.08-.16-.08a5.33 5.33 0 0 0 .64 3.35c-.11.46-.25.13-.33.09a9.6 9.6 0 0 0 .52 5.57l-.5.25a9.6 9.6 0 0 1 -.21 2.68c-.08.65-.14 1.37-.16 2.11a8.87 8.87 0 0 0 .06 1.21 4.66 4.66 0 0 0 .27 1.23c-.06 0-.17-.07-.28-.33a32.29 32.29 0 0 0 1.75 5.77c.86 1.78 2.11 3.05 3.21 2.79a8.18 8.18 0 0 0 1 .57 8.54 8.54 0 0 0 1.08.46c-1.21-.86-1-1-.58-1s.92.11.55-.34a6 6 0 0 1 1.15 1.12c.29.31.31.53-.34.27l-.15-.18c-.46.28.3.8 1.2 1.22s1.92.66 1.81 1a21 21 0 0 0 4.31.42l3.92.17c2.59.13 5.13.27 7.63.29l-.57-.73h1.74c.45.17.61.57-.63.54.65.42 2.08-.34 2.12-.5 2.43.29-1 .85-.21.87l1-.06-.23-.08a4.08 4.08 0 0 1 2.39-.58c.94.14.48.45.85.48 0 .05.13.07.57 0l2.2.06-.88-.58c1-.28 2.06 0 1-.62 1.49 1 8.19.36 9.1.67a13.07 13.07 0 0 1 4.37-.36c-.41-.12-.66-.77.78-.69-.53 1.34 2.63.58 3.79 1.55-1-.64 4.08-.16 2.45-1.07 1.2.11.08.5 1 .82 2.85-.52 6.29.34 9.81.16.06-.18-.53-.44.22-.71l1.87.88c.69-.08.64-1 1.91-.4-.18-.15-.45-.37 0-.43 6.91.86 14.12-.7 21.13.91-1-.34-.31-.37.41-.39-.47-.08 0-.43-.08-.67l2.94.66c.53-.66 3.15 0 3.45-.68l-.93.12c1.24-.75-1.73-1.66-1.55-2.62-1.38.85-3.65-1.26-5.92 0-.5-.2.43-.31.16-.53a3.33 3.33 0 0 1 -2.56.31l.14-.1c-3.62.1-5.17-.31-9.24-.58l.3.48a4.85 4.85 0 0 1 -1.47-.33c-1 .72 2.46 0 1.54.83-1.16-1-6.16 0-7-1.11-1.34 0 .4.55-.95.54l-.35-.29-.34.38c-.89-.07-1.33-.44-1.36-.69a4.89 4.89 0 0 0 .83-.09c-1.14-.35-3.22.12-3.61 0l1.29.18c-3.67.28-8.15-.11-11.7.49l.27.22c-2.71.42-2.17-.24-5.14-.05l.1-.05a6.16 6.16 0 0 1 -2.2.31c.75-.27-1.41-.51-.43-.8-2.93.44-1.45.35-3.39 1.18l-.45-.37a3.72 3.72 0 0 1 -2.2.6c1.22-.31-.95-.56.42-1-3.12-.81-4.63.82-6.06-.37-1.43 1 2.7.57 1.9.79.67.34-1.18.77-2.16.67s-1.7-1.32-4.2-1.3c.25 0 .27-.07.51-.07-.93-.26-1.83.36-3-.07-.65.62-1.49 0-1.68.76l2.3-.18c-1.3.2-2.53 1.13-4.67.68a4.29 4.29 0 0 1 1.24-.49c-.62-.23-1.2.16-1.86-.08.19-.79 2.8-.17 4.19-.78-.67-.33-2.64.58-1.94-.28-1 1.09-2.46-.14-4.16.69l.11-.47a4.44 4.44 0 0 1 -1.32.28l.9-.61c-1.37.52-2.65-.46-4-.17 2.76 0 .62.57 1.79.91-3.4.64-2-1.24-5.76-1 .51-.07 1.93.29 1.12.51a7.45 7.45 0 0 1 -2.12-.53 2.75 2.75 0 0 0 -1 .11c-.08.05 0 .12.1.2.26.15.73.32.19.47-.74-.62-1 .22-2 .23l.09-.47c-1.11-.4-1.32-.24-1.52-.06a.52.52 0 0 1 -.4.18 1.62 1.62 0 0 1 -1-.44 8.23 8.23 0 0 0 1.12-.23 8.39 8.39 0 0 1 -1.09-.3l.46-.39a3.05 3.05 0 0 1 -2.28-1.39c0 .42-.73.58-1.49-.26-.26-.76.59 0-.38-1.13.48.09.92.17 1 .92.17-.06.45 0 .6 0a12.5 12.5 0 0 0 -1.36-1.91 1.49 1.49 0 0 1 .19.53 9.35 9.35 0 0 1 -1.55-1.59c0-.38.28-.17.5 0-.19-.38-.54-.58-.72-1.2a1.21 1.21 0 0 1 1.23.65 6.24 6.24 0 0 1 -.49-.83 6 6 0 0 1 -.39-.9c.12-.16.37-1 .53-.78a8.33 8.33 0 0 0 -.28-2.25 7.45 7.45 0 0 1 -.2-2.78 1.5 1.5 0 0 1 -.21-.68c.09-1.72.57-3.24 0-5.28l.71-1.16c-.16-1.6-.89 1.57-1.16-1.1-.22-1.88.6-.7.8-1.36a6.26 6.26 0 0 1 -.5-4.3 11.91 11.91 0 0 1 .35 1.59zm-.19-19.38c0 .33.32.95 0 1.16-.5-.37-.26-.67 0-1.16zm22.62-9.51a1.58 1.58 0 0 1 -1.22-.1 3.3 3.3 0 0 1 1.22.1zm84.15 1.06c-.65-.87-.45-.57 0 0zm1.17 1.74c.18.13.23.08.23 0-.19 0-.47-.42-.77-.87-.01.17.08.44.54.87zm-78.81 56.84-.35-.13c.78-.15.54-.02.35.13z"/><path d="m95.9 231a.39.39 0 0 1 -.16-.26c-.15.1-.15.19.16.26zm-18.78 40.51v.06a.16.16 0 0 0 .08.06zm80.02-40.21a1.92 1.92 0 0 1 -.7-.25c-.02.12.15.22.7.25zm30.93 12-.12-1.14a2.53 2.53 0 0 1 -.16 1c.11 0 .28-.22.28.14zm-2.98 9.84c.06.16 0 .35.06.51h.23c-.02-.75-.2-1.24-.29-.51zm1.38-8.79c-.41.09-.27.8-.19 1.59a.66.66 0 0 1 0-.14c.57.2.38-.61.19-1.45zm-.18 1.78a4.45 4.45 0 0 1 0 .73c.24.14.06-.3 0-.73zm-.1-10.81c.09.45.6.05.55.36.35.14-.11-.52-.52-.9s-.69-.5-.03.54zm-1.06 9.67.5-.28-.4-.45zm.07-6.33c.06.44.05.88.08 1.31.08 0 .16.13.2.33-.06-.8-.12-1.7-.28-1.64zm.28 1.64a3.24 3.24 0 0 0 .14 1 8 8 0 0 0 -.14-1zm-.5 2.96.11-.38.04-.89zm-9.18-14.1c-.48-.06-1-.06-1.44-.09-.16.16.21.31.73.32.35-.08.91-.02.71-.23zm3.25 2.84a1.27 1.27 0 0 1 -.29-.63l-.34.52zm-3.45-1.32c-.17.09-1.84.2-.32.38.15-.13 1.4.04.32-.38zm-20.6-1.08.35-.01-.04-1.02zm-18.38 2.4c1.64.25.39-.62 1.87-.32.38-.24-1.21-.25-.82-.46-.99.29-1.51.14-1.05.78z"/><path d="m137.67 231.25.51-.15a2.16 2.16 0 0 0 -.51.15zm32.55 59.26 1.06.21-.68-.34zm2.03-.76.25.65.63-.59c-.24.03-.7.09-.88-.06zm-93.73-51.67-.12-.08c-.2 0-.27.22-.42.55zm-1.14 12.83.01-.24-.59.46zm.75 12.01c0-.49-.11-1.06-.09-1.56.11 1.07-.65 1.69.09 1.56z"/></g><path d="m113 266.88a31.41 31.41 0 0 0 4.64.29c1.65 0 6.22 0 8.29-.07a16.21 16.21 0 0 0 -1.59 4.45h-7c-6.09 0-11-1.05-14.51-5.46a15.66 15.66 0 0 1 -4.06 5.84 24 24 0 0 0 -3.5-2.93c3.39-2.7 4.82-8 5.3-12.35l4.76.57c-.25 1.33-.54 2.73-.89 4.12a9.62 9.62 0 0 0 3.75 4v-9.69h-11.78v-4.25h11.78v-2.4h-8.92v-4.22h8.92v-3h4.81v3h9.5v4.22h-9.5v2.39h12v4.25h-12v3.24h9.91v4.12h-9.91zm47.14.57v4h-29v-4h12v-1.58h-8.86v-3.87h.72a15.3 15.3 0 0 0 -2.61-3.08c3-.63 4-1.49 4.32-2.7h-1.43v1h-3.65v-7.43h3.65v3h1.56v-3.59h-5.84v-3.59h2.82a15.27 15.27 0 0 0 -1-2.54l3.43-1a14.31 14.31 0 0 1 1.39 3.21l-1.11.35h4.54l-1-.23a25.24 25.24 0 0 0 1.21-3.52l4 .79c-.57 1.12-1.05 2.13-1.49 3h2.92v3.59h-5.88v3.61h1.46v-3h3.71v6.86a12.58 12.58 0 0 0 1.71-7.21v-6.57h11.81v14c0 1.87-.31 3-1.49 3.65s-2.7.7-4.67.7a16.34 16.34 0 0 0 -1.2-4c1 .06 2.19.06 2.54.06s.51-.12.51-.47v-1.56h-4.1a10.68 10.68 0 0 1 -3.21 5.46v1.21h9.1v3.85h-9.12v1.58zm-17-5.43v-1.77h3.33a19.93 19.93 0 0 0 -2.47-1.5 7.9 7.9 0 0 0 1.78-1.78h-3.47v-.73h-1.51c-.25 2.48-1.4 4.64-5.18 5.78zm12.07-10.09v-1.15h-3.5c0 .38 0 .76-.06 1.15zm-3.47-5.43v1h3.47v-1z" fill="#40afc9"/></svg>