<svg width="40" height="38" viewBox="0 0 40 38" fill="none" xmlns="http://www.w3.org/2000/svg">
<path d="M38.6541 16.157C38.6288 16.1112 38.5979 16.0687 38.5621 16.0305L39.3519 14.8103C39.3998 14.7398 39.4329 14.6604 39.4493 14.5769C39.4656 14.4933 39.4649 14.4074 39.4471 14.3241C39.4294 14.2409 39.3949 14.1621 39.3458 14.0924C39.2968 14.0228 39.2341 13.9637 39.1616 13.9188L37.1444 12.6195C37.0738 12.5722 36.9944 12.5397 36.9109 12.5236C36.8274 12.5076 36.7416 12.5085 36.6585 12.5261C36.5753 12.5438 36.4966 12.578 36.427 12.6266C36.3573 12.6752 36.2982 12.7373 36.2531 12.8091L35.4602 14.0263C35.3236 13.9756 35.1736 13.9734 35.0356 14.0201C34.8975 14.0667 34.7798 14.1593 34.7022 14.2823L24.6669 29.7222C24.5854 29.8433 24.5485 29.9888 24.5624 30.134C24.5763 30.2792 24.6401 30.4152 24.743 30.5188C24.6605 31.4672 24.5559 32.6622 24.5178 33.0637L24.1594 33.6106C24.0673 33.7552 24.0355 33.9298 24.0706 34.0974C24.0881 34.1803 24.122 34.2588 24.1705 34.3283C24.219 34.3978 24.281 34.4569 24.3529 34.5021C24.4564 34.5701 24.5777 34.6064 24.7018 34.6064C24.8098 34.6075 24.9163 34.5811 25.0112 34.5296C25.1062 34.4781 25.1863 34.4034 25.2441 34.3124L25.6025 33.7623C25.9546 33.5632 27.0171 32.9752 27.8418 32.5199C27.9784 32.5706 28.1283 32.5727 28.2664 32.5261C28.4045 32.4795 28.5222 32.3869 28.5998 32.2639L38.1498 17.5732C38.2827 17.8004 38.3476 18.0606 38.3369 18.3233C38.3263 18.5861 38.2404 18.8402 38.0896 19.0559L34.9844 23.8358C34.938 23.9064 34.9062 23.9856 34.8909 24.0687C34.8757 24.1518 34.8773 24.237 34.8956 24.3195C34.9127 24.4021 34.9462 24.4804 34.9942 24.5499C35.0421 24.6194 35.1035 24.6786 35.1748 24.7241C35.2458 24.7714 35.3257 24.8039 35.4096 24.8196C35.4935 24.8354 35.5798 24.8341 35.6632 24.8158C35.8304 24.779 35.9763 24.6779 36.0692 24.5345L39.1743 19.7577C39.9323 18.607 39.7135 17.1812 38.6541 16.157ZM36.5544 14.7123L36.9858 14.0484L37.9151 14.6522L37.4869 15.3129L36.5544 14.7123ZM27.791 31.1511C27.7029 31.1597 27.6175 31.1866 27.5404 31.2301L27.4421 31.2807L25.9007 32.1311C25.9419 31.679 25.9926 31.0784 26.0624 30.2754C26.0685 30.1854 26.0566 30.0952 26.0275 30.0099L29.1231 25.2458L30.8898 26.3838L27.791 31.1511ZM31.5971 25.3027L29.8304 24.1646L35.438 15.5374L37.2046 16.6786L31.5971 25.3027Z" fill="black"/>
<path d="M19.7046 7.55861C19.7037 7.73693 19.6323 7.90772 19.5058 8.03382C19.3793 8.15992 19.2079 8.23113 19.029 8.23197H7.15409C6.97492 8.23197 6.80308 8.16103 6.67639 8.03475C6.54969 7.90847 6.47852 7.73719 6.47852 7.55861C6.47852 7.38002 6.54969 7.20875 6.67639 7.08247C6.80308 6.95619 6.97492 6.88525 7.15409 6.88525H19.029C19.2082 6.88525 19.38 6.95619 19.5067 7.08247C19.6334 7.20875 19.7046 7.38002 19.7046 7.55861Z" fill="black"/>
<path d="M25.6402 13.4761C25.6402 13.6547 25.569 13.8259 25.4423 13.9522C25.3156 14.0785 25.1438 14.1494 24.9646 14.1494H19.0271C18.848 14.1494 18.6761 14.0785 18.5494 13.9522C18.4227 13.8259 18.3516 13.6547 18.3516 13.4761C18.3516 13.2975 18.4227 13.1262 18.5494 12.9999C18.6761 12.8737 18.848 12.8027 19.0271 12.8027H24.9646C25.1435 12.8036 25.3149 12.8748 25.4414 13.0009C25.5679 13.127 25.6393 13.2978 25.6402 13.4761Z" fill="black"/>
<path d="M16.7358 13.4761C16.7358 13.6547 16.6647 13.8259 16.538 13.9522C16.4113 14.0785 16.2394 14.1494 16.0603 14.1494H7.15409C6.97492 14.1494 6.80308 14.0785 6.67639 13.9522C6.54969 13.8259 6.47852 13.6547 6.47852 13.4761C6.47852 13.2975 6.54969 13.1262 6.67639 12.9999C6.80308 12.8737 6.97492 12.8027 7.15409 12.8027H16.0603C16.2392 12.8036 16.4105 12.8748 16.5371 13.0009C16.6636 13.127 16.735 13.2978 16.7358 13.4761Z" fill="black"/>
<path d="M18.9623 19.3943C18.9623 19.5729 18.8911 19.7442 18.7644 19.8705C18.6377 19.9967 18.4659 20.0677 18.2867 20.0677H13.5545C13.3753 20.0677 13.2035 19.9967 13.0768 19.8705C12.9501 19.7442 12.8789 19.5729 12.8789 19.3943C12.8797 19.2163 12.9513 19.0458 13.0779 18.9202C13.2045 18.7946 13.3759 18.7241 13.5545 18.7241H18.2867C18.4653 18.7241 18.6367 18.7946 18.7633 18.9202C18.8899 19.0458 18.9614 19.2163 18.9623 19.3943Z" fill="black"/>
<path d="M11.2615 19.3943C11.2615 19.5729 11.1903 19.7442 11.0636 19.8705C10.9369 19.9967 10.7651 20.0677 10.5859 20.0677H7.15409C6.97492 20.0677 6.80308 19.9967 6.67639 19.8705C6.54969 19.7442 6.47852 19.5729 6.47852 19.3943C6.47851 19.306 6.49601 19.2186 6.53 19.1371C6.56399 19.0556 6.61381 18.9816 6.67658 18.9193C6.73936 18.857 6.81385 18.8077 6.8958 18.7742C6.97775 18.7407 7.06552 18.7237 7.15409 18.7241H10.5859C10.6745 18.7237 10.7622 18.7407 10.8442 18.7742C10.9261 18.8077 11.0006 18.857 11.0634 18.9193C11.1262 18.9816 11.176 19.0556 11.21 19.1371C11.244 19.2186 11.2615 19.306 11.2615 19.3943Z" fill="black"/>
<path d="M22.5433 25.3123C22.5437 25.401 22.5265 25.4889 22.4927 25.5709C22.459 25.653 22.4093 25.7276 22.3465 25.7905C22.2837 25.8533 22.2091 25.9032 22.1269 25.9372C22.0448 25.9713 21.9567 25.9888 21.8677 25.9888H7.1541C7.06511 25.9888 6.97701 25.9713 6.89484 25.9372C6.81267 25.9032 6.73805 25.8533 6.67527 25.7905C6.6125 25.7276 6.5628 25.653 6.52904 25.5709C6.49528 25.4889 6.47811 25.401 6.47852 25.3123C6.47852 25.224 6.49602 25.1366 6.53001 25.0551C6.564 24.9736 6.61382 24.8995 6.67659 24.8373C6.73937 24.775 6.81386 24.7257 6.89581 24.6922C6.97775 24.6587 7.06553 24.6417 7.1541 24.6421H21.8677C21.9562 24.6417 22.044 24.6587 22.126 24.6922C22.2079 24.7257 22.2824 24.775 22.3452 24.8373C22.408 24.8995 22.4578 24.9736 22.4918 25.0551C22.5258 25.1366 22.5433 25.224 22.5433 25.3123Z" fill="black"/>
<path d="M18.9609 31.2334C18.96 31.4118 18.8886 31.5825 18.7621 31.7086C18.6356 31.8347 18.4642 31.906 18.2853 31.9068H15.5037C15.3245 31.9068 15.1527 31.8358 15.026 31.7096C14.8993 31.5833 14.8281 31.412 14.8281 31.2334C14.8281 31.0548 14.8993 30.8836 15.026 30.7573C15.1527 30.631 15.3245 30.5601 15.5037 30.5601H18.2853C18.4645 30.5601 18.6363 30.631 18.763 30.7573C18.8897 30.8836 18.9609 31.0548 18.9609 31.2334Z" fill="black"/>
<path d="M13.2111 31.2334C13.2102 31.4123 13.1384 31.5836 13.0112 31.7098C12.884 31.836 12.7118 31.9068 12.5323 31.9068H7.14041C6.96124 31.9068 6.7894 31.8359 6.66271 31.7096C6.53601 31.5833 6.46484 31.412 6.46484 31.2334C6.46484 31.0548 6.53601 30.8836 6.66271 30.7573C6.7894 30.631 6.96124 30.5601 7.14041 30.5601H12.5323C12.6213 30.5596 12.7095 30.5768 12.7918 30.6104C12.8742 30.6441 12.949 30.6936 13.0121 30.7562C13.0752 30.8187 13.1252 30.8931 13.1593 30.975C13.1935 31.0569 13.2111 31.1447 13.2111 31.2334Z" fill="black"/>
<path d="M30.9063 18.6069C31.2234 18.6069 31.5723 18.4773 31.5787 17.8514V7.55813C31.5773 7.3797 31.5068 7.20869 31.382 7.08078L25.4414 1.1628C25.314 1.03696 25.1418 0.966496 24.9625 0.966798H1.21268C1.0335 0.966798 0.861669 1.03773 0.734974 1.16401C0.608279 1.29029 0.537109 1.46156 0.537109 1.64015V37.148C0.537109 37.3266 0.608279 37.4979 0.734974 37.6242C0.861669 37.7504 1.0335 37.8214 1.21268 37.8214H30.8999C31.0791 37.8214 31.2509 37.7504 31.3776 37.6242C31.5043 37.4979 31.5755 37.3266 31.5755 37.148V32.3239C31.586 32.2256 31.5747 32.1263 31.5424 32.0329C31.5101 31.9395 31.4576 31.8544 31.3886 31.7835C31.3196 31.7126 31.2358 31.6577 31.1431 31.6227C31.0504 31.5877 30.9512 31.5734 30.8523 31.5809C30.4591 31.5809 30.218 31.9983 30.218 32.4029V36.4778H1.88191V2.31351H24.2806V7.55813C24.2814 7.73646 24.3528 7.90725 24.4793 8.03335C24.6059 8.15945 24.7772 8.23066 24.9561 8.23149H30.218V17.8387C30.2275 18.4773 30.5954 18.6069 30.9063 18.6069ZM25.6412 6.88161V3.26507L29.2728 6.88478L25.6412 6.88161Z" fill="black"/>
</svg>
